<?xml version="1.0" encoding="UTF-8" standalone="no"?>
<!DOCTYPE svg PUBLIC "-//W3C//DTD SVG 1.1//EN"
 "http://www.w3.org/Graphics/SVG/1.1/DTD/svg11.dtd">
<!-- Generated by graphviz version 2.26.0 (20091210.2329)
 -->
<!-- Title: t2flow_graph Pages: 1 -->
<svg width="544pt" height="294pt"
 viewBox="0.00 0.00 544.00 294.00" xmlns="http://www.w3.org/2000/svg" xmlns:xlink="http://www.w3.org/1999/xlink">
<g id="graph1" class="graph" transform="scale(1 1) rotate(0) translate(4 290)">
<title>t2flow_graph</title>
<polygon fill="white" stroke="white" points="-4,5 -4,-290 541,-290 541,5 -4,5"/>
<g id="graph2" class="cluster"><title>cluster_sources</title>
<polygon fill="none" stroke="black" stroke-dasharray="1,5" points="8,-219 8,-278 528,-278 528,-219 8,-219"/>
<text text-anchor="middle" x="52" y="-265" font-family="Helvetica,sans-Serif" font-size="10.00">Workflow Inputs</text>
</g>
<g id="graph3" class="cluster"><title>cluster_sinks</title>
<polygon fill="none" stroke="black" stroke-dasharray="1,5" points="121,-8 121,-67 301,-67 301,-8 121,-8"/>
<text text-anchor="middle" x="168.5" y="-54" font-family="Helvetica,sans-Serif" font-size="10.00">Workflow Outputs</text>
</g>
<!-- UWS_caller -->
<g id="node1" class="node"><title>UWS_caller</title>
<polygon fill="#deb887" stroke="black" points="280,-172.5 212,-172.5 212,-151.5 280,-151.5 280,-172.5"/>
<text text-anchor="middle" x="246" y="-159.5" font-family="Helvetica,sans-Serif" font-size="10.00">UWS_caller</text>
</g>
<!-- Concatenate_two_strings -->
<g id="node3" class="node"><title>Concatenate_two_strings</title>
<polygon fill="#d15fee" stroke="black" points="235,-134.5 107,-134.5 107,-113.5 235,-113.5 235,-134.5"/>
<text text-anchor="middle" x="171" y="-121.5" font-family="Helvetica,sans-Serif" font-size="10.00">Concatenate_two_strings</text>
</g>
<!-- UWS_caller&#45;&gt;Concatenate_two_strings -->
<g id="edge8" class="edge"><title>UWS_caller&#45;&gt;Concatenate_two_strings</title>
<path fill="none" stroke="black" d="M225.108,-151.415C217.632,-147.627 209.051,-143.279 200.959,-139.179"/>
<polygon fill="black" stroke="black" points="202.282,-135.926 191.78,-134.528 199.118,-142.17 202.282,-135.926"/>
</g>
<!-- WORKFLOWINTERNALSINK_Job_URL -->
<g id="node16" class="node"><title>WORKFLOWINTERNALSINK_Job_URL</title>
<polygon fill="#bcd2ee" stroke="black" points="275,-37.5 217,-37.5 217,-16.5 275,-16.5 275,-37.5"/>
<text text-anchor="middle" x="246" y="-24.5" font-family="Helvetica,sans-Serif" font-size="10.00">Job_URL</text>
</g>
<!-- UWS_caller&#45;&gt;WORKFLOWINTERNALSINK_Job_URL -->
<g id="edge24" class="edge"><title>UWS_caller&#45;&gt;WORKFLOWINTERNALSINK_Job_URL</title>
<path fill="none" stroke="black" d="M246,-151.407C246,-129.128 246,-77.0746 246,-47.8516"/>
<polygon fill="black" stroke="black" points="249.5,-47.544 246,-37.544 242.5,-47.544 249.5,-47.544"/>
</g>
<!-- cts_url -->
<g id="node2" class="node"><title>cts_url</title>
<polygon fill="#b0c4de" stroke="black" points="238,-210.5 192,-210.5 192,-189.5 238,-189.5 238,-210.5"/>
<text text-anchor="middle" x="215" y="-197.5" font-family="Helvetica,sans-Serif" font-size="10.00">cts_url</text>
</g>
<!-- cts_url&#45;&gt;UWS_caller -->
<g id="edge4" class="edge"><title>cts_url&#45;&gt;UWS_caller</title>
<path fill="none" stroke="black" d="M223.8,-189.212C225.979,-186.542 228.376,-183.604 230.764,-180.676"/>
<polygon fill="black" stroke="black" points="233.676,-182.644 237.285,-172.683 228.252,-178.219 233.676,-182.644"/>
</g>
<!-- Get_Web_Page_from_URL -->
<g id="node5" class="node"><title>Get_Web_Page_from_URL</title>
<polygon fill="#d15fee" stroke="black" points="239,-96.5 103,-96.5 103,-75.5 239,-75.5 239,-96.5"/>
<text text-anchor="middle" x="171" y="-83.5" font-family="Helvetica,sans-Serif" font-size="10.00">Get_Web_Page_from_URL</text>
</g>
<!-- Concatenate_two_strings&#45;&gt;Get_Web_Page_from_URL -->
<g id="edge12" class="edge"><title>Concatenate_two_strings&#45;&gt;Get_Web_Page_from_URL</title>
<path fill="none" stroke="black" d="M171,-113.212C171,-111.19 171,-109.013 171,-106.804"/>
<polygon fill="black" stroke="black" points="174.5,-106.683 171,-96.6831 167.5,-106.683 174.5,-106.683"/>
</g>
<!-- string2_value -->
<g id="node4" class="node"><title>string2_value</title>
<polygon fill="#b0c4de" stroke="black" points="208,-172.5 134,-172.5 134,-151.5 208,-151.5 208,-172.5"/>
<text text-anchor="middle" x="171" y="-159.5" font-family="Helvetica,sans-Serif" font-size="10.00">string2_value</text>
</g>
<!-- string2_value&#45;&gt;Concatenate_two_strings -->
<g id="edge10" class="edge"><title>string2_value&#45;&gt;Concatenate_two_strings</title>
<path fill="none" stroke="black" d="M171,-151.212C171,-149.19 171,-147.013 171,-144.804"/>
<polygon fill="black" stroke="black" points="174.5,-144.683 171,-134.683 167.5,-144.683 174.5,-144.683"/>
</g>
<!-- WORKFLOWINTERNALSINK_OutputVOTable -->
<g id="node17" class="node"><title>WORKFLOWINTERNALSINK_OutputVOTable</title>
<polygon fill="#bcd2ee" stroke="black" points="213,-37.5 129,-37.5 129,-16.5 213,-16.5 213,-37.5"/>
<text text-anchor="middle" x="171" y="-24.5" font-family="Helvetica,sans-Serif" font-size="10.00">OutputVOTable</text>
</g>
<!-- Get_Web_Page_from_URL&#45;&gt;WORKFLOWINTERNALSINK_OutputVOTable -->
<g id="edge26" class="edge"><title>Get_Web_Page_from_URL&#45;&gt;WORKFLOWINTERNALSINK_OutputVOTable</title>
<path fill="none" stroke="black" d="M171,-75.452C171,-67.8285 171,-57.2768 171,-47.966"/>
<polygon fill="black" stroke="black" points="174.5,-47.8558 171,-37.8559 167.5,-47.8559 174.5,-47.8558"/>
</g>
<!-- createConfig -->
<g id="node6" class="node"><title>createConfig</title>
<polygon fill="#deb887" stroke="black" points="314,-210.5 242,-210.5 242,-189.5 314,-189.5 314,-210.5"/>
<text text-anchor="middle" x="278" y="-197.5" font-family="Helvetica,sans-Serif" font-size="10.00">createConfig</text>
</g>
<!-- createConfig&#45;&gt;UWS_caller -->
<g id="edge6" class="edge"><title>createConfig&#45;&gt;UWS_caller</title>
<path fill="none" stroke="black" d="M268.916,-189.212C266.599,-186.461 264.043,-183.426 261.503,-180.41"/>
<polygon fill="black" stroke="black" points="264.115,-178.078 254.996,-172.683 258.76,-182.587 264.115,-178.078"/>
</g>
<!-- WORKFLOWINTERNALSOURCECONTROL -->
<g id="node8" class="node"><title>WORKFLOWINTERNALSOURCECONTROL</title>
<polygon fill="#ff4040" stroke="black" points="513,-245 506,-234.5 520,-234.5 513,-245"/>
</g>
<!-- WORKFLOWINTERNALSOURCE_InputCoordinate -->
<g id="node9" class="node"><title>WORKFLOWINTERNALSOURCE_InputCoordinate</title>
<polygon fill="skyblue" stroke="black" points="502,-248.5 416,-248.5 416,-227.5 502,-227.5 502,-248.5"/>
<text text-anchor="middle" x="459" y="-235.5" font-family="Helvetica,sans-Serif" font-size="10.00">InputCoordinate</text>
</g>
<!-- WORKFLOWINTERNALSOURCE_InputCoordinate&#45;&gt;createConfig -->
<g id="edge14" class="edge"><title>WORKFLOWINTERNALSOURCE_InputCoordinate&#45;&gt;createConfig</title>
<path fill="none" stroke="black" d="M435.955,-227.383C428.449,-224.279 419.99,-221.147 412,-219 383.253,-211.275 350.143,-206.543 324.028,-203.733"/>
<polygon fill="black" stroke="black" points="324.328,-200.246 314.024,-202.714 323.618,-207.21 324.328,-200.246"/>
</g>
<!-- WORKFLOWINTERNALSOURCE_OutputCoordinate -->
<g id="node10" class="node"><title>WORKFLOWINTERNALSOURCE_OutputCoordinate</title>
<polygon fill="skyblue" stroke="black" points="412,-248.5 320,-248.5 320,-227.5 412,-227.5 412,-248.5"/>
<text text-anchor="middle" x="366" y="-235.5" font-family="Helvetica,sans-Serif" font-size="10.00">OutputCoordinate</text>
</g>
<!-- WORKFLOWINTERNALSOURCE_OutputCoordinate&#45;&gt;createConfig -->
<g id="edge16" class="edge"><title>WORKFLOWINTERNALSOURCE_OutputCoordinate&#45;&gt;createConfig</title>
<path fill="none" stroke="black" d="M341.487,-227.415C332.238,-223.421 321.548,-218.805 311.609,-214.513"/>
<polygon fill="black" stroke="black" points="312.95,-211.28 302.381,-210.528 310.175,-217.706 312.95,-211.28"/>
</g>
<!-- WORKFLOWINTERNALSOURCE_InputVOTable -->
<g id="node11" class="node"><title>WORKFLOWINTERNALSOURCE_InputVOTable</title>
<polygon fill="skyblue" stroke="black" points="316,-248.5 240,-248.5 240,-227.5 316,-227.5 316,-248.5"/>
<text text-anchor="middle" x="278" y="-235.5" font-family="Helvetica,sans-Serif" font-size="10.00">InputVOTable</text>
</g>
<!-- WORKFLOWINTERNALSOURCE_InputVOTable&#45;&gt;createConfig -->
<g id="edge18" class="edge"><title>WORKFLOWINTERNALSOURCE_InputVOTable&#45;&gt;createConfig</title>
<path fill="none" stroke="black" d="M278,-227.212C278,-225.19 278,-223.013 278,-220.804"/>
<polygon fill="black" stroke="black" points="281.5,-220.683 278,-210.683 274.5,-220.683 281.5,-220.683"/>
</g>
<!-- WORKFLOWINTERNALSOURCE_InputRepresentation -->
<g id="node12" class="node"><title>WORKFLOWINTERNALSOURCE_InputRepresentation</title>
<polygon fill="skyblue" stroke="black" points="236,-248.5 132,-248.5 132,-227.5 236,-227.5 236,-248.5"/>
<text text-anchor="middle" x="184" y="-235.5" font-family="Helvetica,sans-Serif" font-size="10.00">InputRepresentation</text>
</g>
<!-- WORKFLOWINTERNALSOURCE_InputRepresentation&#45;&gt;createConfig -->
<g id="edge20" class="edge"><title>WORKFLOWINTERNALSOURCE_InputRepresentation&#45;&gt;createConfig</title>
<path fill="none" stroke="black" d="M210.184,-227.415C220.166,-223.38 231.718,-218.71 242.427,-214.38"/>
<polygon fill="black" stroke="black" points="243.997,-217.521 251.956,-210.528 241.373,-211.031 243.997,-217.521"/>
</g>
<!-- WORKFLOWINTERNALSOURCE_OutputRepresentation -->
<g id="node13" class="node"><title>WORKFLOWINTERNALSOURCE_OutputRepresentation</title>
<polygon fill="skyblue" stroke="black" points="128,-248.5 16,-248.5 16,-227.5 128,-227.5 128,-248.5"/>
<text text-anchor="middle" x="72" y="-235.5" font-family="Helvetica,sans-Serif" font-size="10.00">OutputRepresentation</text>
</g>
<!-- WORKFLOWINTERNALSOURCE_OutputRepresentation&#45;&gt;createConfig -->
<g id="edge22" class="edge"><title>WORKFLOWINTERNALSOURCE_OutputRepresentation&#45;&gt;createConfig</title>
<path fill="none" stroke="black" d="M100.643,-227.445C110.46,-224.227 121.594,-221.012 132,-219 175.124,-210.661 189.449,-217.896 231.77,-211.876"/>
<polygon fill="black" stroke="black" points="232.551,-215.296 241.877,-210.27 231.452,-208.382 232.551,-215.296"/>
</g>
<!-- WORKFLOWINTERNALSINKCONTROL -->
<g id="node15" class="node"><title>WORKFLOWINTERNALSINKCONTROL</title>
<polygon fill="#66cd00" stroke="black" points="286,-20 293,-30.5 279,-30.5 286,-20"/>
</g>
</g>
</svg>
