<?xml version="1.0" encoding="UTF-8" standalone="no"?>
<!DOCTYPE svg PUBLIC "-//W3C//DTD SVG 1.1//EN"
 "http://www.w3.org/Graphics/SVG/1.1/DTD/svg11.dtd">
<!-- Generated by graphviz version 2.26.0 (20091210.2329)
 -->
<!-- Title: t2flow_graph Pages: 1 -->
<svg width="214pt" height="256pt"
 viewBox="0.00 0.00 214.00 256.00" xmlns="http://www.w3.org/2000/svg" xmlns:xlink="http://www.w3.org/1999/xlink">
<g id="graph1" class="graph" transform="scale(1 1) rotate(0) translate(4 252)">
<title>t2flow_graph</title>
<polygon fill="white" stroke="white" points="-4,5 -4,-252 211,-252 211,5 -4,5"/>
<g id="graph2" class="cluster"><title>cluster_sources</title>
<polygon fill="none" stroke="black" stroke-dasharray="1,5" points="68,-181 68,-240 156,-240 156,-181 68,-181"/>
<text text-anchor="middle" x="112" y="-227" font-family="Helvetica,sans-Serif" font-size="10.00">Workflow Inputs</text>
</g>
<g id="graph3" class="cluster"><title>cluster_sinks</title>
<polygon fill="none" stroke="black" stroke-dasharray="1,5" points="63,-8 63,-67 161,-67 161,-8 63,-8"/>
<text text-anchor="middle" x="110.5" y="-54" font-family="Helvetica,sans-Serif" font-size="10.00">Workflow Outputs</text>
</g>
<!-- ExecuteProcess_gml2svg -->
<g id="node1" class="node"><title>ExecuteProcess_gml2svg</title>
<polygon fill="#a2cd5a" stroke="black" points="168,-134.5 38,-134.5 38,-113.5 168,-113.5 168,-134.5"/>
<text text-anchor="middle" x="103" y="-121.5" font-family="Helvetica,sans-Serif" font-size="10.00">ExecuteProcess_gml2svg</text>
</g>
<!-- ExecuteProcess_gml2svg_ProcessOutputs -->
<g id="node2" class="node"><title>ExecuteProcess_gml2svg_ProcessOutputs</title>
<polygon fill="#ab92ea" stroke="black" points="206,-96.5 8.52651e-14,-96.5 0,-75.5 206,-75.5 206,-96.5"/>
<text text-anchor="middle" x="103" y="-83.5" font-family="Helvetica,sans-Serif" font-size="10.00">ExecuteProcess_gml2svg_ProcessOutputs</text>
</g>
<!-- ExecuteProcess_gml2svg&#45;&gt;ExecuteProcess_gml2svg_ProcessOutputs -->
<g id="edge6" class="edge"><title>ExecuteProcess_gml2svg&#45;&gt;ExecuteProcess_gml2svg_ProcessOutputs</title>
<path fill="none" stroke="black" d="M103,-113.212C103,-111.19 103,-109.013 103,-106.804"/>
<polygon fill="black" stroke="black" points="106.5,-106.683 103,-96.6831 99.5001,-106.683 106.5,-106.683"/>
</g>
<!-- WORKFLOWINTERNALSINK_svg_output -->
<g id="node9" class="node"><title>WORKFLOWINTERNALSINK_svg_output</title>
<polygon fill="#bcd2ee" stroke="black" points="135,-37.5 71,-37.5 71,-16.5 135,-16.5 135,-37.5"/>
<text text-anchor="middle" x="103" y="-24.5" font-family="Helvetica,sans-Serif" font-size="10.00">svg_output</text>
</g>
<!-- ExecuteProcess_gml2svg_ProcessOutputs&#45;&gt;WORKFLOWINTERNALSINK_svg_output -->
<g id="edge10" class="edge"><title>ExecuteProcess_gml2svg_ProcessOutputs&#45;&gt;WORKFLOWINTERNALSINK_svg_output</title>
<path fill="none" stroke="black" d="M103,-75.452C103,-67.8285 103,-57.2768 103,-47.966"/>
<polygon fill="black" stroke="black" points="106.5,-47.8558 103,-37.8559 99.5001,-47.8559 106.5,-47.8558"/>
</g>
<!-- ExecuteProcess_gml2svg_DataInputs -->
<g id="node3" class="node"><title>ExecuteProcess_gml2svg_DataInputs</title>
<polygon fill="#ab92ea" stroke="black" points="195,-172.5 11,-172.5 11,-151.5 195,-151.5 195,-172.5"/>
<text text-anchor="middle" x="103" y="-159.5" font-family="Helvetica,sans-Serif" font-size="10.00">ExecuteProcess_gml2svg_DataInputs</text>
</g>
<!-- ExecuteProcess_gml2svg_DataInputs&#45;&gt;ExecuteProcess_gml2svg -->
<g id="edge4" class="edge"><title>ExecuteProcess_gml2svg_DataInputs&#45;&gt;ExecuteProcess_gml2svg</title>
<path fill="none" stroke="black" d="M103,-151.212C103,-149.19 103,-147.013 103,-144.804"/>
<polygon fill="black" stroke="black" points="106.5,-144.683 103,-134.683 99.5001,-144.683 106.5,-144.683"/>
</g>
<!-- WORKFLOWINTERNALSOURCECONTROL -->
<g id="node5" class="node"><title>WORKFLOWINTERNALSOURCECONTROL</title>
<polygon fill="#ff4040" stroke="black" points="140,-207 133,-196.5 147,-196.5 140,-207"/>
</g>
<!-- WORKFLOWINTERNALSOURCE_gml_file -->
<g id="node6" class="node"><title>WORKFLOWINTERNALSOURCE_gml_file</title>
<polygon fill="skyblue" stroke="black" points="128,-210.5 78,-210.5 78,-189.5 128,-189.5 128,-210.5"/>
<text text-anchor="middle" x="103" y="-197.5" font-family="Helvetica,sans-Serif" font-size="10.00">gml_file</text>
</g>
<!-- WORKFLOWINTERNALSOURCE_gml_file&#45;&gt;ExecuteProcess_gml2svg_DataInputs -->
<g id="edge8" class="edge"><title>WORKFLOWINTERNALSOURCE_gml_file&#45;&gt;ExecuteProcess_gml2svg_DataInputs</title>
<path fill="none" stroke="black" d="M103,-189.212C103,-187.19 103,-185.013 103,-182.804"/>
<polygon fill="black" stroke="black" points="106.5,-182.683 103,-172.683 99.5001,-182.683 106.5,-182.683"/>
</g>
<!-- WORKFLOWINTERNALSINKCONTROL -->
<g id="node8" class="node"><title>WORKFLOWINTERNALSINKCONTROL</title>
<polygon fill="#66cd00" stroke="black" points="146,-20 153,-30.5 139,-30.5 146,-20"/>
</g>
</g>
</svg>
