<?xml version="1.0" encoding="UTF-8" standalone="no"?>
<!DOCTYPE svg PUBLIC "-//W3C//DTD SVG 1.1//EN"
 "http://www.w3.org/Graphics/SVG/1.1/DTD/svg11.dtd">
<!-- Generated by graphviz version 2.26.0 (20091210.2329)
 -->
<!-- Title: t2flow_graph Pages: 1 -->
<svg width="972pt" height="1113pt"
 viewBox="0.00 0.00 972.00 1113.00" xmlns="http://www.w3.org/2000/svg" xmlns:xlink="http://www.w3.org/1999/xlink">
<g id="graph1" class="graph" transform="scale(1 1) rotate(0) translate(4 1109)">
<title>t2flow_graph</title>
<polygon fill="white" stroke="white" points="-4,5 -4,-1109 969,-1109 969,5 -4,5"/>
<g id="graph2" class="cluster"><title>cluster_Status_CheckStatus_Check</title>
<polygon fill="aliceblue" stroke="black" points="189,-203 189,-510 347,-510 347,-203 189,-203"/>
<text text-anchor="middle" x="228.5" y="-497" font-family="Helvetica,sans-Serif" font-size="10.00">Status_Check</text>
</g>
<g id="graph3" class="cluster"><title>cluster_Status_Checksources</title>
<polygon fill="none" stroke="black" stroke-dasharray="1,5" points="243,-422 243,-481 331,-481 331,-422 243,-422"/>
<text text-anchor="middle" x="287" y="-468" font-family="Helvetica,sans-Serif" font-size="10.00">Workflow Inputs</text>
</g>
<g id="graph4" class="cluster"><title>cluster_Status_Checksinks</title>
<polygon fill="none" stroke="black" stroke-dasharray="1,5" points="197,-211 197,-270 339,-270 339,-211 197,-211"/>
<text text-anchor="middle" x="244.5" y="-257" font-family="Helvetica,sans-Serif" font-size="10.00">Workflow Outputs</text>
</g>
<g id="graph5" class="cluster"><title>cluster_sources</title>
<polygon fill="none" stroke="black" stroke-dasharray="1,5" points="791,-1046 791,-1097 879,-1097 879,-1046 791,-1046"/>
<text text-anchor="middle" x="835" y="-1084" font-family="Helvetica,sans-Serif" font-size="10.00">Workflow Inputs</text>
</g>
<g id="graph6" class="cluster"><title>cluster_sinks</title>
<polygon fill="none" stroke="black" stroke-dasharray="1,5" points="206,-30 206,-89 906,-89 906,-30 206,-30"/>
<text text-anchor="middle" x="253.5" y="-76" font-family="Helvetica,sans-Serif" font-size="10.00">Workflow Outputs</text>
</g>
<!-- run_eSearch -->
<g id="node1" class="node"><title>run_eSearch</title>
<polygon fill="#a2cd5a" stroke="black" points="797,-919.5 727,-919.5 727,-898.5 797,-898.5 797,-919.5"/>
<text text-anchor="middle" x="762" y="-906.5" font-family="Helvetica,sans-Serif" font-size="10.00">run_eSearch</text>
</g>
<!-- XPath_Service -->
<g id="node46" class="node"><title>XPath_Service</title>
<polygon fill="#e6ff5e" stroke="black" points="789,-881.5 707,-881.5 707,-860.5 789,-860.5 789,-881.5"/>
<text text-anchor="middle" x="748" y="-868.5" font-family="Helvetica,sans-Serif" font-size="10.00">XPath_Service</text>
</g>
<!-- run_eSearch&#45;&gt;XPath_Service -->
<g id="edge73" class="edge"><title>run_eSearch&#45;&gt;XPath_Service</title>
<path fill="none" stroke="black" d="M758.026,-898.212C757.221,-896.028 756.35,-893.664 755.469,-891.273"/>
<polygon fill="black" stroke="black" points="758.677,-889.857 751.936,-881.683 752.109,-892.277 758.677,-889.857"/>
</g>
<!-- WORKFLOWINTERNALSINK_run_eSearch_result -->
<g id="node51" class="node"><title>WORKFLOWINTERNALSINK_run_eSearch_result</title>
<polygon fill="#bcd2ee" stroke="black" points="880,-59.5 780,-59.5 780,-38.5 880,-38.5 880,-59.5"/>
<text text-anchor="middle" x="830" y="-46.5" font-family="Helvetica,sans-Serif" font-size="10.00">run_eSearch_result</text>
</g>
<!-- run_eSearch&#45;&gt;WORKFLOWINTERNALSINK_run_eSearch_result -->
<g id="edge75" class="edge"><title>run_eSearch&#45;&gt;WORKFLOWINTERNALSINK_run_eSearch_result</title>
<path fill="none" stroke="black" d="M775.134,-898.415C790.245,-884.954 813,-860.172 813,-833 813,-833 813,-833 813,-146 813,-119.293 819.33,-89.0617 824.265,-69.5516"/>
<polygon fill="black" stroke="black" points="827.708,-70.2209 826.882,-59.6583 820.941,-68.4306 827.708,-70.2209"/>
</g>
<!-- run_eSearch_request -->
<g id="node2" class="node"><title>run_eSearch_request</title>
<polygon fill="#ab92ea" stroke="black" points="816,-957.5 708,-957.5 708,-936.5 816,-936.5 816,-957.5"/>
<text text-anchor="middle" x="762" y="-944.5" font-family="Helvetica,sans-Serif" font-size="10.00">run_eSearch_request</text>
</g>
<!-- run_eSearch_request&#45;&gt;run_eSearch -->
<g id="edge19" class="edge"><title>run_eSearch_request&#45;&gt;run_eSearch</title>
<path fill="none" stroke="black" d="M762,-936.212C762,-934.19 762,-932.013 762,-929.804"/>
<polygon fill="black" stroke="black" points="765.5,-929.683 762,-919.683 758.5,-929.683 765.5,-929.683"/>
</g>
<!-- db_value -->
<g id="node3" class="node"><title>db_value</title>
<polygon fill="#b0c4de" stroke="black" points="640,-995.5 584,-995.5 584,-974.5 640,-974.5 640,-995.5"/>
<text text-anchor="middle" x="612" y="-982.5" font-family="Helvetica,sans-Serif" font-size="10.00">db_value</text>
</g>
<!-- db_value&#45;&gt;run_eSearch_request -->
<g id="edge21" class="edge"><title>db_value&#45;&gt;run_eSearch_request</title>
<path fill="none" stroke="black" d="M640.217,-975.119C641.492,-974.73 642.757,-974.355 644,-974 662.245,-968.793 682.296,-963.9 700.612,-959.748"/>
<polygon fill="black" stroke="black" points="701.589,-963.116 710.586,-957.52 700.063,-956.285 701.589,-963.116"/>
</g>
<!-- Read_Text_File -->
<g id="node4" class="node"><title>Read_Text_File</title>
<polygon fill="#d15fee" stroke="black" points="765,-1033.5 679,-1033.5 679,-1012.5 765,-1012.5 765,-1033.5"/>
<text text-anchor="middle" x="722" y="-1020.5" font-family="Helvetica,sans-Serif" font-size="10.00">Read_Text_File</text>
</g>
<!-- Split_string_into_string_list_by_regular_expression -->
<g id="node5" class="node"><title>Split_string_into_string_list_by_regular_expression</title>
<polygon fill="#d15fee" stroke="black" points="880,-995.5 644,-995.5 644,-974.5 880,-974.5 880,-995.5"/>
<text text-anchor="middle" x="762" y="-982.5" font-family="Helvetica,sans-Serif" font-size="10.00">Split_string_into_string_list_by_regular_expression</text>
</g>
<!-- Read_Text_File&#45;&gt;Split_string_into_string_list_by_regular_expression -->
<g id="edge29" class="edge"><title>Read_Text_File&#45;&gt;Split_string_into_string_list_by_regular_expression</title>
<path fill="none" stroke="black" d="M733.355,-1012.21C736.507,-1009.22 740.013,-1005.89 743.46,-1002.61"/>
<polygon fill="black" stroke="black" points="745.915,-1005.11 750.755,-995.683 741.094,-1000.03 745.915,-1005.11"/>
</g>
<!-- Split_string_into_string_list_by_regular_expression&#45;&gt;run_eSearch_request -->
<g id="edge23" class="edge"><title>Split_string_into_string_list_by_regular_expression&#45;&gt;run_eSearch_request</title>
<path fill="none" stroke="black" d="M762,-974.212C762,-972.19 762,-970.013 762,-967.804"/>
<polygon fill="black" stroke="black" points="765.5,-967.683 762,-957.683 758.5,-967.683 765.5,-967.683"/>
</g>
<!-- regex_value -->
<g id="node6" class="node"><title>regex_value</title>
<polygon fill="#b0c4de" stroke="black" points="837,-1033.5 769,-1033.5 769,-1012.5 837,-1012.5 837,-1033.5"/>
<text text-anchor="middle" x="803" y="-1020.5" font-family="Helvetica,sans-Serif" font-size="10.00">regex_value</text>
</g>
<!-- regex_value&#45;&gt;Split_string_into_string_list_by_regular_expression -->
<g id="edge31" class="edge"><title>regex_value&#45;&gt;Split_string_into_string_list_by_regular_expression</title>
<path fill="none" stroke="black" d="M791.361,-1012.21C788.131,-1009.22 784.537,-1005.89 781.003,-1002.61"/>
<polygon fill="black" stroke="black" points="783.24,-999.914 773.526,-995.683 778.482,-1005.05 783.24,-999.914"/>
</g>
<!-- fileurl_value -->
<g id="node7" class="node"><title>fileurl_value</title>
<polygon fill="#b0c4de" stroke="black" points="756,-1071.5 688,-1071.5 688,-1050.5 756,-1050.5 756,-1071.5"/>
<text text-anchor="middle" x="722" y="-1058.5" font-family="Helvetica,sans-Serif" font-size="10.00">fileurl_value</text>
</g>
<!-- fileurl_value&#45;&gt;Read_Text_File -->
<g id="edge27" class="edge"><title>fileurl_value&#45;&gt;Read_Text_File</title>
<path fill="none" stroke="black" d="M722,-1050.21C722,-1048.19 722,-1046.01 722,-1043.8"/>
<polygon fill="black" stroke="black" points="725.5,-1043.68 722,-1033.68 718.5,-1043.68 725.5,-1043.68"/>
</g>
<!-- RetMax_value -->
<g id="node8" class="node"><title>RetMax_value</title>
<polygon fill="#b0c4de" stroke="black" points="964,-995.5 884,-995.5 884,-974.5 964,-974.5 964,-995.5"/>
<text text-anchor="middle" x="924" y="-982.5" font-family="Helvetica,sans-Serif" font-size="10.00">RetMax_value</text>
</g>
<!-- RetMax_value&#45;&gt;run_eSearch_request -->
<g id="edge25" class="edge"><title>RetMax_value&#45;&gt;run_eSearch_request</title>
<path fill="none" stroke="black" d="M883.725,-974.897C882.469,-974.593 881.225,-974.293 880,-974 860.159,-969.25 838.397,-964.22 819.025,-959.806"/>
<polygon fill="black" stroke="black" points="819.662,-956.361 809.135,-957.558 818.11,-963.187 819.662,-956.361"/>
</g>
<!-- Flatten_List -->
<g id="node9" class="node"><title>Flatten_List</title>
<polygon fill="#d15fee" stroke="black" points="754,-843.5 686,-843.5 686,-822.5 754,-822.5 754,-843.5"/>
<text text-anchor="middle" x="720" y="-830.5" font-family="Helvetica,sans-Serif" font-size="10.00">Flatten_List</text>
</g>
<!-- Echo_List -->
<g id="node38" class="node"><title>Echo_List</title>
<polygon fill="#d15fee" stroke="black" points="687,-805.5 627,-805.5 627,-784.5 687,-784.5 687,-805.5"/>
<text text-anchor="middle" x="657" y="-792.5" font-family="Helvetica,sans-Serif" font-size="10.00">Echo_List</text>
</g>
<!-- Flatten_List&#45;&gt;Echo_List -->
<g id="edge55" class="edge"><title>Flatten_List&#45;&gt;Echo_List</title>
<path fill="none" stroke="black" d="M702.451,-822.415C696.444,-818.791 689.588,-814.656 683.054,-810.715"/>
<polygon fill="black" stroke="black" points="684.826,-807.696 674.455,-805.528 681.21,-813.69 684.826,-807.696"/>
</g>
<!-- WORKFLOWINTERNALSINK_Flatten_List_outputlist -->
<g id="node52" class="node"><title>WORKFLOWINTERNALSINK_Flatten_List_outputlist</title>
<polygon fill="#bcd2ee" stroke="black" points="776,-59.5 664,-59.5 664,-38.5 776,-38.5 776,-59.5"/>
<text text-anchor="middle" x="720" y="-46.5" font-family="Helvetica,sans-Serif" font-size="10.00">Flatten_List_outputlist</text>
</g>
<!-- Flatten_List&#45;&gt;WORKFLOWINTERNALSINK_Flatten_List_outputlist -->
<g id="edge77" class="edge"><title>Flatten_List&#45;&gt;WORKFLOWINTERNALSINK_Flatten_List_outputlist</title>
<path fill="none" stroke="black" d="M720,-822.176C720,-807.436 720,-780.222 720,-757 720,-757 720,-757 720,-146 720,-119.816 720,-89.6562 720,-70.0091"/>
<polygon fill="black" stroke="black" points="723.5,-69.7654 720,-59.7654 716.5,-69.7655 723.5,-69.7654"/>
</g>
<!-- idType_value -->
<g id="node10" class="node"><title>idType_value</title>
<polygon fill="#b0c4de" stroke="black" points="459,-767.5 385,-767.5 385,-746.5 459,-746.5 459,-767.5"/>
<text text-anchor="middle" x="422" y="-754.5" font-family="Helvetica,sans-Serif" font-size="10.00">idType_value</text>
</g>
<!-- InputListText_input -->
<g id="node42" class="node"><title>InputListText_input</title>
<polygon fill="#ab92ea" stroke="black" points="472,-729.5 372,-729.5 372,-708.5 472,-708.5 472,-729.5"/>
<text text-anchor="middle" x="422" y="-716.5" font-family="Helvetica,sans-Serif" font-size="10.00">InputListText_input</text>
</g>
<!-- idType_value&#45;&gt;InputListText_input -->
<g id="edge63" class="edge"><title>idType_value&#45;&gt;InputListText_input</title>
<path fill="none" stroke="black" d="M422,-746.212C422,-744.19 422,-742.013 422,-739.804"/>
<polygon fill="black" stroke="black" points="425.5,-739.683 422,-729.683 418.5,-739.683 425.5,-739.683"/>
</g>
<!-- Download_out -->
<g id="node11" class="node"><title>Download_out</title>
<polygon fill="#ab92ea" stroke="black" points="323,-539.5 245,-539.5 245,-518.5 323,-518.5 323,-539.5"/>
<text text-anchor="middle" x="284" y="-526.5" font-family="Helvetica,sans-Serif" font-size="10.00">Download_out</text>
</g>
<!-- Status_CheckWORKFLOWINTERNALSOURCE_KeyIn -->
<g id="node27" class="node"><title>Status_CheckWORKFLOWINTERNALSOURCE_KeyIn</title>
<polygon fill="skyblue" stroke="black" points="299,-451.5 257,-451.5 257,-430.5 299,-430.5 299,-451.5"/>
<text text-anchor="middle" x="278" y="-438.5" font-family="Helvetica,sans-Serif" font-size="10.00">KeyIn</text>
</g>
<!-- Download_out&#45;&gt;Status_CheckWORKFLOWINTERNALSOURCE_KeyIn -->
<g id="edge53" class="edge"><title>Download_out&#45;&gt;Status_CheckWORKFLOWINTERNALSOURCE_KeyIn</title>
<path fill="none" stroke="black" d="M283.264,-518.209C282.31,-504.213 280.625,-479.498 279.418,-461.799"/>
<polygon fill="black" stroke="black" points="282.895,-461.343 278.723,-451.604 275.911,-461.819 282.895,-461.343"/>
</g>
<!-- GetDownloadUrl_out -->
<g id="node12" class="node"><title>GetDownloadUrl_out</title>
<polygon fill="#ab92ea" stroke="black" points="279,-118.5 173,-118.5 173,-97.5 279,-97.5 279,-118.5"/>
<text text-anchor="middle" x="226" y="-105.5" font-family="Helvetica,sans-Serif" font-size="10.00">GetDownloadUrl_out</text>
</g>
<!-- Read_Text_File_2 -->
<g id="node44" class="node"><title>Read_Text_File_2</title>
<polygon fill="#d15fee" stroke="black" points="96,-59.5 3.55271e-14,-59.5 0,-38.5 96,-38.5 96,-59.5"/>
<text text-anchor="middle" x="48" y="-46.5" font-family="Helvetica,sans-Serif" font-size="10.00">Read_Text_File_2</text>
</g>
<!-- GetDownloadUrl_out&#45;&gt;Read_Text_File_2 -->
<g id="edge71" class="edge"><title>GetDownloadUrl_out&#45;&gt;Read_Text_File_2</title>
<path fill="none" stroke="black" d="M172.769,-102.661C144.526,-99.2984 113.026,-94.5484 100,-89 87.5189,-83.6836 75.3951,-74.6552 65.9981,-66.5199"/>
<polygon fill="black" stroke="black" points="68.2589,-63.8452 58.5016,-59.7164 63.5545,-69.0287 68.2589,-63.8452"/>
</g>
<!-- WORKFLOWINTERNALSINK_URL -->
<g id="node53" class="node"><title>WORKFLOWINTERNALSINK_URL</title>
<polygon fill="#bcd2ee" stroke="black" points="250,-59.5 214,-59.5 214,-38.5 250,-38.5 250,-59.5"/>
<text text-anchor="middle" x="232" y="-46.5" font-family="Helvetica,sans-Serif" font-size="10.00">URL</text>
</g>
<!-- GetDownloadUrl_out&#45;&gt;WORKFLOWINTERNALSINK_URL -->
<g id="edge79" class="edge"><title>GetDownloadUrl_out&#45;&gt;WORKFLOWINTERNALSINK_URL</title>
<path fill="none" stroke="black" d="M227.073,-97.452C227.848,-89.8285 228.921,-79.2768 229.868,-69.966"/>
<polygon fill="black" stroke="black" points="233.366,-70.1587 230.896,-59.8559 226.402,-69.4504 233.366,-70.1587"/>
</g>
<!-- Format -->
<g id="node13" class="node"><title>Format</title>
<polygon fill="#b0c4de" stroke="black" points="248,-653.5 202,-653.5 202,-632.5 248,-632.5 248,-653.5"/>
<text text-anchor="middle" x="225" y="-640.5" font-family="Helvetica,sans-Serif" font-size="10.00">Format</text>
</g>
<!-- Download_in -->
<g id="node19" class="node"><title>Download_in</title>
<polygon fill="#ab92ea" stroke="black" points="324,-615.5 252,-615.5 252,-594.5 324,-594.5 324,-615.5"/>
<text text-anchor="middle" x="288" y="-602.5" font-family="Helvetica,sans-Serif" font-size="10.00">Download_in</text>
</g>
<!-- Format&#45;&gt;Download_in -->
<g id="edge47" class="edge"><title>Format&#45;&gt;Download_in</title>
<path fill="none" stroke="black" d="M242.549,-632.415C248.556,-628.791 255.412,-624.656 261.946,-620.715"/>
<polygon fill="black" stroke="black" points="263.79,-623.69 270.545,-615.528 260.174,-617.696 263.79,-623.69"/>
</g>
<!-- GetDownloadUrl -->
<g id="node14" class="node"><title>GetDownloadUrl</title>
<polygon fill="#a2cd5a" stroke="black" points="271,-156.5 183,-156.5 183,-135.5 271,-135.5 271,-156.5"/>
<text text-anchor="middle" x="227" y="-143.5" font-family="Helvetica,sans-Serif" font-size="10.00">GetDownloadUrl</text>
</g>
<!-- GetDownloadUrl&#45;&gt;GetDownloadUrl_out -->
<g id="edge37" class="edge"><title>GetDownloadUrl&#45;&gt;GetDownloadUrl_out</title>
<path fill="none" stroke="black" d="M226.716,-135.212C226.663,-133.19 226.606,-131.013 226.547,-128.804"/>
<polygon fill="black" stroke="black" points="230.043,-128.588 226.281,-118.683 223.046,-128.772 230.043,-128.588"/>
</g>
<!-- Download -->
<g id="node15" class="node"><title>Download</title>
<polygon fill="#a2cd5a" stroke="black" points="317,-577.5 257,-577.5 257,-556.5 317,-556.5 317,-577.5"/>
<text text-anchor="middle" x="287" y="-564.5" font-family="Helvetica,sans-Serif" font-size="10.00">Download</text>
</g>
<!-- Download&#45;&gt;Download_out -->
<g id="edge35" class="edge"><title>Download&#45;&gt;Download_out</title>
<path fill="none" stroke="black" d="M286.148,-556.212C285.989,-554.19 285.817,-552.013 285.642,-549.804"/>
<polygon fill="black" stroke="black" points="289.12,-549.377 284.843,-539.683 282.141,-549.928 289.12,-549.377"/>
</g>
<!-- InputListText_out -->
<g id="node16" class="node"><title>InputListText_out</title>
<polygon fill="#ab92ea" stroke="black" points="423,-653.5 331,-653.5 331,-632.5 423,-632.5 423,-653.5"/>
<text text-anchor="middle" x="377" y="-640.5" font-family="Helvetica,sans-Serif" font-size="10.00">InputListText_out</text>
</g>
<!-- InputListText_out&#45;&gt;Download_in -->
<g id="edge51" class="edge"><title>InputListText_out&#45;&gt;Download_in</title>
<path fill="none" stroke="black" d="M352.209,-632.415C342.854,-628.421 332.043,-623.805 321.991,-619.513"/>
<polygon fill="black" stroke="black" points="323.23,-616.236 312.659,-615.528 320.481,-622.674 323.23,-616.236"/>
</g>
<!-- WORKFLOWINTERNALSINK_InputListText_out_ListKey -->
<g id="node55" class="node"><title>WORKFLOWINTERNALSINK_InputListText_out_ListKey</title>
<polygon fill="#bcd2ee" stroke="black" points="442,-59.5 312,-59.5 312,-38.5 442,-38.5 442,-59.5"/>
<text text-anchor="middle" x="377" y="-46.5" font-family="Helvetica,sans-Serif" font-size="10.00">InputListText_out_ListKey</text>
</g>
<!-- InputListText_out&#45;&gt;WORKFLOWINTERNALSINK_InputListText_out_ListKey -->
<g id="edge83" class="edge"><title>InputListText_out&#45;&gt;WORKFLOWINTERNALSINK_InputListText_out_ListKey</title>
<path fill="none" stroke="black" d="M377,-632.176C377,-617.436 377,-590.222 377,-567 377,-567 377,-567 377,-146 377,-119.816 377,-89.6562 377,-70.0091"/>
<polygon fill="black" stroke="black" points="380.5,-69.7654 377,-59.7654 373.5,-69.7655 380.5,-69.7654"/>
</g>
<!-- Compression -->
<g id="node17" class="node"><title>Compression</title>
<polygon fill="#b0c4de" stroke="black" points="326,-653.5 252,-653.5 252,-632.5 326,-632.5 326,-653.5"/>
<text text-anchor="middle" x="289" y="-640.5" font-family="Helvetica,sans-Serif" font-size="10.00">Compression</text>
</g>
<!-- Compression&#45;&gt;Download_in -->
<g id="edge49" class="edge"><title>Compression&#45;&gt;Download_in</title>
<path fill="none" stroke="black" d="M288.716,-632.212C288.663,-630.19 288.606,-628.013 288.547,-625.804"/>
<polygon fill="black" stroke="black" points="292.043,-625.588 288.281,-615.683 285.046,-625.772 292.043,-625.588"/>
</g>
<!-- GetDownloadUrl_in -->
<g id="node18" class="node"><title>GetDownloadUrl_in</title>
<polygon fill="#ab92ea" stroke="black" points="278,-194.5 178,-194.5 178,-173.5 278,-173.5 278,-194.5"/>
<text text-anchor="middle" x="228" y="-181.5" font-family="Helvetica,sans-Serif" font-size="10.00">GetDownloadUrl_in</text>
</g>
<!-- GetDownloadUrl_in&#45;&gt;GetDownloadUrl -->
<g id="edge39" class="edge"><title>GetDownloadUrl_in&#45;&gt;GetDownloadUrl</title>
<path fill="none" stroke="black" d="M227.716,-173.212C227.663,-171.19 227.606,-169.013 227.547,-166.804"/>
<polygon fill="black" stroke="black" points="231.043,-166.588 227.281,-156.683 224.046,-166.772 231.043,-166.588"/>
</g>
<!-- Download_in&#45;&gt;Download -->
<g id="edge41" class="edge"><title>Download_in&#45;&gt;Download</title>
<path fill="none" stroke="black" d="M287.716,-594.212C287.663,-592.19 287.606,-590.013 287.547,-587.804"/>
<polygon fill="black" stroke="black" points="291.043,-587.588 287.281,-577.683 284.046,-587.772 291.043,-587.588"/>
</g>
<!-- Status_CheckGetOperationStatus_in -->
<g id="node21" class="node"><title>Status_CheckGetOperationStatus_in</title>
<polygon fill="#ab92ea" stroke="black" points="336,-413.5 220,-413.5 220,-392.5 336,-392.5 336,-413.5"/>
<text text-anchor="middle" x="278" y="-400.5" font-family="Helvetica,sans-Serif" font-size="10.00">GetOperationStatus_in</text>
</g>
<!-- Status_CheckGetOperationStatus -->
<g id="node24" class="node"><title>Status_CheckGetOperationStatus</title>
<polygon fill="#a2cd5a" stroke="black" points="329,-375.5 227,-375.5 227,-354.5 329,-354.5 329,-375.5"/>
<text text-anchor="middle" x="278" y="-362.5" font-family="Helvetica,sans-Serif" font-size="10.00">GetOperationStatus</text>
</g>
<!-- Status_CheckGetOperationStatus_in&#45;&gt;Status_CheckGetOperationStatus -->
<g id="edge11" class="edge"><title>Status_CheckGetOperationStatus_in&#45;&gt;Status_CheckGetOperationStatus</title>
<path fill="none" stroke="black" d="M278,-392.212C278,-390.19 278,-388.013 278,-385.804"/>
<polygon fill="black" stroke="black" points="281.5,-385.683 278,-375.683 274.5,-385.683 281.5,-385.683"/>
</g>
<!-- Status_CheckGetOperationStatus_out -->
<g id="node22" class="node"><title>Status_CheckGetOperationStatus_out</title>
<polygon fill="#ab92ea" stroke="black" points="339,-337.5 217,-337.5 217,-316.5 339,-316.5 339,-337.5"/>
<text text-anchor="middle" x="278" y="-324.5" font-family="Helvetica,sans-Serif" font-size="10.00">GetOperationStatus_out</text>
</g>
<!-- Status_CheckCheckForSuccess -->
<g id="node23" class="node"><title>Status_CheckCheckForSuccess</title>
<polygon fill="#deb887" stroke="black" points="331,-299.5 233,-299.5 233,-278.5 331,-278.5 331,-299.5"/>
<text text-anchor="middle" x="282" y="-286.5" font-family="Helvetica,sans-Serif" font-size="10.00">CheckForSuccess</text>
</g>
<!-- Status_CheckGetOperationStatus_out&#45;&gt;Status_CheckCheckForSuccess -->
<g id="edge9" class="edge"><title>Status_CheckGetOperationStatus_out&#45;&gt;Status_CheckCheckForSuccess</title>
<path fill="none" stroke="black" d="M279.136,-316.212C279.348,-314.19 279.578,-312.013 279.81,-309.804"/>
<polygon fill="black" stroke="black" points="283.309,-309.995 280.875,-299.683 276.348,-309.262 283.309,-309.995"/>
</g>
<!-- Status_CheckWORKFLOWINTERNALSINK_Success -->
<g id="node31" class="node"><title>Status_CheckWORKFLOWINTERNALSINK_Success</title>
<polygon fill="#bcd2ee" stroke="black" points="313,-240.5 259,-240.5 259,-219.5 313,-219.5 313,-240.5"/>
<text text-anchor="middle" x="286" y="-227.5" font-family="Helvetica,sans-Serif" font-size="10.00">Success</text>
</g>
<!-- Status_CheckCheckForSuccess&#45;&gt;Status_CheckWORKFLOWINTERNALSINK_Success -->
<g id="edge15" class="edge"><title>Status_CheckCheckForSuccess&#45;&gt;Status_CheckWORKFLOWINTERNALSINK_Success</title>
<path fill="none" stroke="black" d="M282.715,-278.452C283.232,-270.829 283.947,-260.277 284.579,-250.966"/>
<polygon fill="black" stroke="black" points="288.079,-251.07 285.264,-240.856 281.096,-250.596 288.079,-251.07"/>
</g>
<!-- Status_CheckGetOperationStatus&#45;&gt;Status_CheckGetOperationStatus_out -->
<g id="edge7" class="edge"><title>Status_CheckGetOperationStatus&#45;&gt;Status_CheckGetOperationStatus_out</title>
<path fill="none" stroke="black" d="M278,-354.212C278,-352.19 278,-350.013 278,-347.804"/>
<polygon fill="black" stroke="black" points="281.5,-347.683 278,-337.683 274.5,-347.683 281.5,-347.683"/>
</g>
<!-- Status_CheckWORKFLOWINTERNALSOURCECONTROL -->
<g id="node26" class="node"><title>Status_CheckWORKFLOWINTERNALSOURCECONTROL</title>
<polygon fill="#ff4040" stroke="black" points="313,-448 306,-437.5 320,-437.5 313,-448"/>
</g>
<!-- Status_CheckWORKFLOWINTERNALSOURCE_KeyIn&#45;&gt;Status_CheckGetOperationStatus_in -->
<g id="edge5" class="edge"><title>Status_CheckWORKFLOWINTERNALSOURCE_KeyIn&#45;&gt;Status_CheckGetOperationStatus_in</title>
<path fill="none" stroke="black" d="M278,-430.212C278,-428.19 278,-426.013 278,-423.804"/>
<polygon fill="black" stroke="black" points="281.5,-423.683 278,-413.683 274.5,-423.683 281.5,-423.683"/>
</g>
<!-- Status_CheckWORKFLOWINTERNALSINK_KeyOut -->
<g id="node30" class="node"><title>Status_CheckWORKFLOWINTERNALSINK_KeyOut</title>
<polygon fill="#bcd2ee" stroke="black" points="255,-240.5 205,-240.5 205,-219.5 255,-219.5 255,-240.5"/>
<text text-anchor="middle" x="230" y="-227.5" font-family="Helvetica,sans-Serif" font-size="10.00">KeyOut</text>
</g>
<!-- Status_CheckWORKFLOWINTERNALSOURCE_KeyIn&#45;&gt;Status_CheckWORKFLOWINTERNALSINK_KeyOut -->
<g id="edge13" class="edge"><title>Status_CheckWORKFLOWINTERNALSOURCE_KeyIn&#45;&gt;Status_CheckWORKFLOWINTERNALSINK_KeyOut</title>
<path fill="none" stroke="black" d="M256.753,-437.245C243.135,-433.67 226.321,-426.84 217,-414 204.14,-396.284 212,-386.891 212,-365 212,-365 212,-365 212,-327 212,-305.109 213.014,-299.525 217,-278 218.702,-268.808 221.29,-258.804 223.71,-250.32"/>
<polygon fill="black" stroke="black" points="227.116,-251.144 226.606,-240.562 220.406,-249.153 227.116,-251.144"/>
</g>
<!-- Status_CheckWORKFLOWINTERNALSINKCONTROL -->
<g id="node29" class="node"><title>Status_CheckWORKFLOWINTERNALSINKCONTROL</title>
<polygon fill="#66cd00" stroke="black" points="324,-223 331,-233.5 317,-233.5 324,-223"/>
</g>
<!-- Status_CheckWORKFLOWINTERNALSINK_KeyOut&#45;&gt;GetDownloadUrl_in -->
<g id="edge45" class="edge"><title>Status_CheckWORKFLOWINTERNALSINK_KeyOut&#45;&gt;GetDownloadUrl_in</title>
<path fill="none" stroke="black" d="M229.536,-219.331C229.349,-215.035 229.127,-209.923 228.911,-204.942"/>
<polygon fill="black" stroke="black" points="232.393,-204.45 228.461,-194.611 225.399,-204.754 232.393,-204.45"/>
</g>
<!-- WORKFLOWINTERNALSINK_Success -->
<g id="node54" class="node"><title>WORKFLOWINTERNALSINK_Success</title>
<polygon fill="#bcd2ee" stroke="black" points="308,-59.5 254,-59.5 254,-38.5 308,-38.5 308,-59.5"/>
<text text-anchor="middle" x="281" y="-46.5" font-family="Helvetica,sans-Serif" font-size="10.00">Success</text>
</g>
<!-- Status_CheckWORKFLOWINTERNALSINK_Success&#45;&gt;WORKFLOWINTERNALSINK_Success -->
<g id="edge81" class="edge"><title>Status_CheckWORKFLOWINTERNALSINK_Success&#45;&gt;WORKFLOWINTERNALSINK_Success</title>
<path fill="none" stroke="black" d="M285.71,-219.486C284.905,-190.37 282.638,-108.292 281.57,-69.6301"/>
<polygon fill="black" stroke="black" points="285.066,-69.4422 281.291,-59.5427 278.069,-69.6356 285.066,-69.4422"/>
</g>
<!-- Merge_String_List_to_a_String -->
<g id="node39" class="node"><title>Merge_String_List_to_a_String</title>
<polygon fill="#d15fee" stroke="black" points="628,-767.5 478,-767.5 478,-746.5 628,-746.5 628,-767.5"/>
<text text-anchor="middle" x="553" y="-754.5" font-family="Helvetica,sans-Serif" font-size="10.00">Merge_String_List_to_a_String</text>
</g>
<!-- Echo_List&#45;&gt;Merge_String_List_to_a_String -->
<g id="edge57" class="edge"><title>Echo_List&#45;&gt;Merge_String_List_to_a_String</title>
<path fill="none" stroke="black" d="M628.03,-784.415C616.648,-780.256 603.421,-775.423 591.272,-770.984"/>
<polygon fill="black" stroke="black" points="592.408,-767.673 581.814,-767.528 590.006,-774.248 592.408,-767.673"/>
</g>
<!-- Merge_String_List_to_a_String&#45;&gt;InputListText_input -->
<g id="edge65" class="edge"><title>Merge_String_List_to_a_String&#45;&gt;InputListText_input</title>
<path fill="none" stroke="black" d="M516.509,-746.415C501.462,-742.05 483.856,-736.943 467.945,-732.328"/>
<polygon fill="black" stroke="black" points="468.874,-728.953 458.295,-729.528 466.924,-735.676 468.874,-728.953"/>
</g>
<!-- WORKFLOWINTERNALSINK_Merge_String_List_to_a_String_concatenated -->
<g id="node56" class="node"><title>WORKFLOWINTERNALSINK_Merge_String_List_to_a_String_concatenated</title>
<polygon fill="#bcd2ee" stroke="black" points="660,-59.5 446,-59.5 446,-38.5 660,-38.5 660,-59.5"/>
<text text-anchor="middle" x="553" y="-46.5" font-family="Helvetica,sans-Serif" font-size="10.00">Merge_String_List_to_a_String_concatenated</text>
</g>
<!-- Merge_String_List_to_a_String&#45;&gt;WORKFLOWINTERNALSINK_Merge_String_List_to_a_String_concatenated -->
<g id="edge85" class="edge"><title>Merge_String_List_to_a_String&#45;&gt;WORKFLOWINTERNALSINK_Merge_String_List_to_a_String_concatenated</title>
<path fill="none" stroke="black" d="M553,-746.176C553,-731.436 553,-704.222 553,-681 553,-681 553,-681 553,-146 553,-119.816 553,-89.6562 553,-70.0091"/>
<polygon fill="black" stroke="black" points="556.5,-69.7654 553,-59.7654 549.5,-69.7655 556.5,-69.7654"/>
</g>
<!-- seperator_value -->
<g id="node40" class="node"><title>seperator_value</title>
<polygon fill="#b0c4de" stroke="black" points="596,-805.5 510,-805.5 510,-784.5 596,-784.5 596,-805.5"/>
<text text-anchor="middle" x="553" y="-792.5" font-family="Helvetica,sans-Serif" font-size="10.00">seperator_value</text>
</g>
<!-- seperator_value&#45;&gt;Merge_String_List_to_a_String -->
<g id="edge59" class="edge"><title>seperator_value&#45;&gt;Merge_String_List_to_a_String</title>
<path fill="none" stroke="black" d="M553,-784.212C553,-782.19 553,-780.013 553,-777.804"/>
<polygon fill="black" stroke="black" points="556.5,-777.683 553,-767.683 549.5,-777.683 556.5,-777.683"/>
</g>
<!-- InputListText -->
<g id="node41" class="node"><title>InputListText</title>
<polygon fill="#a2cd5a" stroke="black" points="429,-691.5 355,-691.5 355,-670.5 429,-670.5 429,-691.5"/>
<text text-anchor="middle" x="392" y="-678.5" font-family="Helvetica,sans-Serif" font-size="10.00">InputListText</text>
</g>
<!-- InputListText&#45;&gt;InputListText_out -->
<g id="edge43" class="edge"><title>InputListText&#45;&gt;InputListText_out</title>
<path fill="none" stroke="black" d="M387.742,-670.212C386.847,-667.947 385.877,-665.488 384.897,-663.007"/>
<polygon fill="black" stroke="black" points="388.144,-661.7 381.217,-653.683 381.633,-664.27 388.144,-661.7"/>
</g>
<!-- InputListText_input&#45;&gt;InputListText -->
<g id="edge61" class="edge"><title>InputListText_input&#45;&gt;InputListText</title>
<path fill="none" stroke="black" d="M413.483,-708.212C411.375,-705.542 409.056,-702.604 406.745,-699.676"/>
<polygon fill="black" stroke="black" points="409.378,-697.363 400.434,-691.683 403.883,-701.701 409.378,-697.363"/>
</g>
<!-- Write_Text_File_2 -->
<g id="node43" class="node"><title>Write_Text_File_2</title>
<polygon fill="#d15fee" stroke="black" points="146,-21.5 50,-21.5 50,-0.5 146,-0.5 146,-21.5"/>
<text text-anchor="middle" x="98" y="-8.5" font-family="Helvetica,sans-Serif" font-size="10.00">Write_Text_File_2</text>
</g>
<!-- Read_Text_File_2&#45;&gt;Write_Text_File_2 -->
<g id="edge67" class="edge"><title>Read_Text_File_2&#45;&gt;Write_Text_File_2</title>
<path fill="none" stroke="black" d="M61.9278,-38.4149C66.2621,-35.1208 71.1529,-31.4038 75.9021,-27.7944"/>
<polygon fill="black" stroke="black" points="78.3031,-30.3658 84.1469,-21.5284 74.0675,-24.7926 78.3031,-30.3658"/>
</g>
<!-- outputFile_value_1 -->
<g id="node45" class="node"><title>outputFile_value_1</title>
<polygon fill="#b0c4de" stroke="black" points="198,-59.5 100,-59.5 100,-38.5 198,-38.5 198,-59.5"/>
<text text-anchor="middle" x="149" y="-46.5" font-family="Helvetica,sans-Serif" font-size="10.00">outputFile_value_1</text>
</g>
<!-- outputFile_value_1&#45;&gt;Write_Text_File_2 -->
<g id="edge69" class="edge"><title>outputFile_value_1&#45;&gt;Write_Text_File_2</title>
<path fill="none" stroke="black" d="M134.794,-38.4149C130.262,-35.0384 125.134,-31.2177 120.177,-27.5239"/>
<polygon fill="black" stroke="black" points="122.24,-24.6966 112.13,-21.5284 118.058,-30.3098 122.24,-24.6966"/>
</g>
<!-- XPath_Service&#45;&gt;Flatten_List -->
<g id="edge33" class="edge"><title>XPath_Service&#45;&gt;Flatten_List</title>
<path fill="none" stroke="black" d="M740.051,-860.212C738.143,-857.623 736.05,-854.782 733.958,-851.943"/>
<polygon fill="black" stroke="black" points="736.621,-849.657 727.872,-843.683 730.986,-853.81 736.621,-849.657"/>
</g>
<!-- WORKFLOWINTERNALSOURCECONTROL -->
<g id="node48" class="node"><title>WORKFLOWINTERNALSOURCECONTROL</title>
<polygon fill="#ff4040" stroke="black" points="835,-1068 828,-1057.5 842,-1057.5 835,-1068"/>
</g>
<!-- WORKFLOWINTERNALSINKCONTROL -->
<g id="node50" class="node"><title>WORKFLOWINTERNALSINKCONTROL</title>
<polygon fill="#66cd00" stroke="black" points="891,-42 898,-52.5 884,-52.5 891,-42"/>
</g>
</g>
</svg>
