<?xml version="1.0" encoding="UTF-8" standalone="no"?>
<!DOCTYPE svg PUBLIC "-//W3C//DTD SVG 1.1//EN"
 "http://www.w3.org/Graphics/SVG/1.1/DTD/svg11.dtd">
<!-- Generated by graphviz version 2.26.0 (20091210.2329)
 -->
<!-- Title: t2flow_graph Pages: 1 -->
<svg width="462pt" height="240pt"
 viewBox="0.00 0.00 462.00 240.00" xmlns="http://www.w3.org/2000/svg" xmlns:xlink="http://www.w3.org/1999/xlink">
<g id="graph1" class="graph" transform="scale(1 1) rotate(0) translate(4 236)">
<title>t2flow_graph</title>
<polygon fill="white" stroke="white" points="-4,5 -4,-236 459,-236 459,5 -4,5"/>
<g id="graph2" class="cluster"><title>cluster_sources</title>
<polygon fill="none" stroke="black" stroke-dasharray="1,5" points="356,-105 356,-164 446,-164 446,-105 356,-105"/>
<text text-anchor="middle" x="400" y="-151" font-family="Helvetica,sans-Serif" font-size="10.00">Workflow Inputs</text>
</g>
<g id="graph3" class="cluster"><title>cluster_sinks</title>
<polygon fill="none" stroke="black" stroke-dasharray="1,5" points="271,-8 271,-67 366,-67 366,-8 271,-8"/>
<text text-anchor="middle" x="318.5" y="-54" font-family="Helvetica,sans-Serif" font-size="10.00">Workflow Outputs</text>
</g>
<!-- ExecuteProcess_getIceClassMapsAsar_list -->
<g id="node1" class="node"><title>ExecuteProcess_getIceClassMapsAsar_list</title>
<polygon fill="#a2cd5a" stroke="black" points="246,-231.5 38,-231.5 38,-210.5 246,-210.5 246,-231.5"/>
<text text-anchor="middle" x="142" y="-218.5" font-family="Helvetica,sans-Serif" font-size="10.00">ExecuteProcess_getIceClassMapsAsar_list</text>
</g>
<!-- ExecuteProcess_getIceClassMapsAsar_list_ProcessOutputs -->
<g id="node2" class="node"><title>ExecuteProcess_getIceClassMapsAsar_list_ProcessOutputs</title>
<polygon fill="#ab92ea" stroke="black" points="284,-193.5 1.13687e-13,-193.5 0,-172.5 284,-172.5 284,-193.5"/>
<text text-anchor="middle" x="142" y="-180.5" font-family="Helvetica,sans-Serif" font-size="10.00">ExecuteProcess_getIceClassMapsAsar_list_ProcessOutputs</text>
</g>
<!-- ExecuteProcess_getIceClassMapsAsar_list&#45;&gt;ExecuteProcess_getIceClassMapsAsar_list_ProcessOutputs -->
<g id="edge4" class="edge"><title>ExecuteProcess_getIceClassMapsAsar_list&#45;&gt;ExecuteProcess_getIceClassMapsAsar_list_ProcessOutputs</title>
<path fill="none" stroke="black" d="M142,-210.212C142,-208.19 142,-206.013 142,-203.804"/>
<polygon fill="black" stroke="black" points="145.5,-203.683 142,-193.683 138.5,-203.683 145.5,-203.683"/>
</g>
<!-- Split_string_into_string_list_by_regular_expression -->
<g id="node4" class="node"><title>Split_string_into_string_list_by_regular_expression</title>
<polygon fill="#d15fee" stroke="black" points="348,-134.5 112,-134.5 112,-113.5 348,-113.5 348,-134.5"/>
<text text-anchor="middle" x="230" y="-121.5" font-family="Helvetica,sans-Serif" font-size="10.00">Split_string_into_string_list_by_regular_expression</text>
</g>
<!-- ExecuteProcess_getIceClassMapsAsar_list_ProcessOutputs&#45;&gt;Split_string_into_string_list_by_regular_expression -->
<g id="edge12" class="edge"><title>ExecuteProcess_getIceClassMapsAsar_list_ProcessOutputs&#45;&gt;Split_string_into_string_list_by_regular_expression</title>
<path fill="none" stroke="black" d="M157.733,-172.452C171.04,-163.53 190.329,-150.598 205.632,-140.337"/>
<polygon fill="black" stroke="black" points="207.75,-143.132 214.107,-134.656 203.852,-137.317 207.75,-143.132"/>
</g>
<!-- Filter_List_of_Strings_by_regex -->
<g id="node3" class="node"><title>Filter_List_of_Strings_by_regex</title>
<polygon fill="#d15fee" stroke="black" points="384,-96.5 230,-96.5 230,-75.5 384,-75.5 384,-96.5"/>
<text text-anchor="middle" x="307" y="-83.5" font-family="Helvetica,sans-Serif" font-size="10.00">Filter_List_of_Strings_by_regex</text>
</g>
<!-- WORKFLOWINTERNALSINK_listDate -->
<g id="node11" class="node"><title>WORKFLOWINTERNALSINK_listDate</title>
<polygon fill="#bcd2ee" stroke="black" points="332,-37.5 282,-37.5 282,-16.5 332,-16.5 332,-37.5"/>
<text text-anchor="middle" x="307" y="-24.5" font-family="Helvetica,sans-Serif" font-size="10.00">listDate</text>
</g>
<!-- Filter_List_of_Strings_by_regex&#45;&gt;WORKFLOWINTERNALSINK_listDate -->
<g id="edge14" class="edge"><title>Filter_List_of_Strings_by_regex&#45;&gt;WORKFLOWINTERNALSINK_listDate</title>
<path fill="none" stroke="black" d="M307,-75.452C307,-67.8285 307,-57.2768 307,-47.966"/>
<polygon fill="black" stroke="black" points="310.5,-47.8558 307,-37.8559 303.5,-47.8559 310.5,-47.8558"/>
</g>
<!-- Split_string_into_string_list_by_regular_expression&#45;&gt;Filter_List_of_Strings_by_regex -->
<g id="edge6" class="edge"><title>Split_string_into_string_list_by_regular_expression&#45;&gt;Filter_List_of_Strings_by_regex</title>
<path fill="none" stroke="black" d="M251.449,-113.415C259.208,-109.585 268.126,-105.185 276.513,-101.046"/>
<polygon fill="black" stroke="black" points="278.248,-104.093 285.666,-96.5284 275.15,-97.8153 278.248,-104.093"/>
</g>
<!-- lineFeeder -->
<g id="node5" class="node"><title>lineFeeder</title>
<polygon fill="#b0c4de" stroke="black" points="350,-193.5 288,-193.5 288,-172.5 350,-172.5 350,-193.5"/>
<text text-anchor="middle" x="319" y="-180.5" font-family="Helvetica,sans-Serif" font-size="10.00">lineFeeder</text>
</g>
<!-- lineFeeder&#45;&gt;Split_string_into_string_list_by_regular_expression -->
<g id="edge10" class="edge"><title>lineFeeder&#45;&gt;Split_string_into_string_list_by_regular_expression</title>
<path fill="none" stroke="black" d="M303.089,-172.452C289.63,-163.53 270.122,-150.598 254.645,-140.337"/>
<polygon fill="black" stroke="black" points="256.343,-137.264 246.074,-134.656 252.475,-143.098 256.343,-137.264"/>
</g>
<!-- WORKFLOWINTERNALSOURCECONTROL -->
<g id="node7" class="node"><title>WORKFLOWINTERNALSOURCECONTROL</title>
<polygon fill="#ff4040" stroke="black" points="431,-131 424,-120.5 438,-120.5 431,-131"/>
</g>
<!-- WORKFLOWINTERNALSOURCE_filterDate -->
<g id="node8" class="node"><title>WORKFLOWINTERNALSOURCE_filterDate</title>
<polygon fill="skyblue" stroke="black" points="420,-134.5 364,-134.5 364,-113.5 420,-113.5 420,-134.5"/>
<text text-anchor="middle" x="392" y="-121.5" font-family="Helvetica,sans-Serif" font-size="10.00">filterDate</text>
</g>
<!-- WORKFLOWINTERNALSOURCE_filterDate&#45;&gt;Filter_List_of_Strings_by_regex -->
<g id="edge8" class="edge"><title>WORKFLOWINTERNALSOURCE_filterDate&#45;&gt;Filter_List_of_Strings_by_regex</title>
<path fill="none" stroke="black" d="M375.39,-113.321C370.533,-110.424 365.144,-107.422 360,-105 356.469,-103.338 352.751,-101.732 348.989,-100.205"/>
<polygon fill="black" stroke="black" points="350.221,-96.9292 339.632,-96.5868 347.696,-103.458 350.221,-96.9292"/>
</g>
<!-- WORKFLOWINTERNALSINKCONTROL -->
<g id="node10" class="node"><title>WORKFLOWINTERNALSINKCONTROL</title>
<polygon fill="#66cd00" stroke="black" points="348,-20 355,-30.5 341,-30.5 348,-20"/>
</g>
</g>
</svg>
