<?xml version="1.0" encoding="UTF-8" standalone="no"?>
<!DOCTYPE svg PUBLIC "-//W3C//DTD SVG 1.1//EN"
 "http://www.w3.org/Graphics/SVG/1.1/DTD/svg11.dtd">
<!-- Generated by graphviz version 2.26.0 (20091210.2329)
 -->
<!-- Title: t2flow_graph Pages: 1 -->
<svg width="258pt" height="848pt"
 viewBox="0.00 0.00 258.00 848.00" xmlns="http://www.w3.org/2000/svg" xmlns:xlink="http://www.w3.org/1999/xlink">
<g id="graph1" class="graph" transform="scale(1 1) rotate(0) translate(4 844)">
<title>t2flow_graph</title>
<polygon fill="white" stroke="white" points="-4,5 -4,-844 255,-844 255,5 -4,5"/>
<g id="graph2" class="cluster"><title>cluster_Workflow8Workflow8</title>
<polygon fill="aliceblue" stroke="black" points="26,-458 26,-765 224,-765 224,-458 26,-458"/>
<text text-anchor="middle" x="57.5" y="-752" font-family="Helvetica,sans-Serif" font-size="10.00">Workflow8</text>
</g>
<g id="graph3" class="cluster"><title>cluster_Workflow8sources</title>
<polygon fill="none" stroke="black" stroke-dasharray="1,5" points="34,-677 34,-736 216,-736 216,-677 34,-677"/>
<text text-anchor="middle" x="78" y="-723" font-family="Helvetica,sans-Serif" font-size="10.00">Workflow Inputs</text>
</g>
<g id="graph4" class="cluster"><title>cluster_Workflow8sinks</title>
<polygon fill="none" stroke="black" stroke-dasharray="1,5" points="62,-466 62,-525 188,-525 188,-466 62,-466"/>
<text text-anchor="middle" x="109.5" y="-512" font-family="Helvetica,sans-Serif" font-size="10.00">Workflow Outputs</text>
</g>
<g id="graph5" class="cluster"><title>cluster_Workflow9Workflow9</title>
<polygon fill="aliceblue" stroke="black" points="43,-181 43,-450 189,-450 189,-181 43,-181"/>
<text text-anchor="middle" x="74.5" y="-437" font-family="Helvetica,sans-Serif" font-size="10.00">Workflow9</text>
</g>
<g id="graph6" class="cluster"><title>cluster_Workflow9sources</title>
<polygon fill="none" stroke="black" stroke-dasharray="1,5" points="80,-362 80,-421 170,-421 170,-362 80,-362"/>
<text text-anchor="middle" x="124" y="-408" font-family="Helvetica,sans-Serif" font-size="10.00">Workflow Inputs</text>
</g>
<g id="graph7" class="cluster"><title>cluster_Workflow9sinks</title>
<polygon fill="none" stroke="black" stroke-dasharray="1,5" points="70,-189 70,-248 180,-248 180,-189 70,-189"/>
<text text-anchor="middle" x="117.5" y="-235" font-family="Helvetica,sans-Serif" font-size="10.00">Workflow Outputs</text>
</g>
<g id="graph8" class="cluster"><title>cluster_sources</title>
<polygon fill="none" stroke="black" stroke-dasharray="1,5" points="8,-773 8,-832 242,-832 242,-773 8,-773"/>
<text text-anchor="middle" x="52" y="-819" font-family="Helvetica,sans-Serif" font-size="10.00">Workflow Inputs</text>
</g>
<g id="graph9" class="cluster"><title>cluster_sinks</title>
<polygon fill="none" stroke="black" stroke-dasharray="1,5" points="52,-8 52,-67 198,-67 198,-8 52,-8"/>
<text text-anchor="middle" x="99.5" y="-54" font-family="Helvetica,sans-Serif" font-size="10.00">Workflow Outputs</text>
</g>
<!-- Workflow8cleanText -->
<g id="node2" class="node"><title>Workflow8cleanText</title>
<polygon fill="#a2cd5a" stroke="black" points="145,-592.5 87,-592.5 87,-571.5 145,-571.5 145,-592.5"/>
<text text-anchor="middle" x="116" y="-579.5" font-family="Helvetica,sans-Serif" font-size="10.00">cleanText</text>
</g>
<!-- Workflow8cleanText_output -->
<g id="node4" class="node"><title>Workflow8cleanText_output</title>
<polygon fill="#ab92ea" stroke="black" points="162,-554.5 70,-554.5 70,-533.5 162,-533.5 162,-554.5"/>
<text text-anchor="middle" x="116" y="-541.5" font-family="Helvetica,sans-Serif" font-size="10.00">cleanText_output</text>
</g>
<!-- Workflow8cleanText&#45;&gt;Workflow8cleanText_output -->
<g id="edge9" class="edge"><title>Workflow8cleanText&#45;&gt;Workflow8cleanText_output</title>
<path fill="none" stroke="black" d="M116,-571.212C116,-569.19 116,-567.013 116,-564.804"/>
<polygon fill="black" stroke="black" points="119.5,-564.683 116,-554.683 112.5,-564.683 119.5,-564.683"/>
</g>
<!-- Workflow8cleanText_input -->
<g id="node3" class="node"><title>Workflow8cleanText_input</title>
<polygon fill="#ab92ea" stroke="black" points="159,-630.5 73,-630.5 73,-609.5 159,-609.5 159,-630.5"/>
<text text-anchor="middle" x="116" y="-617.5" font-family="Helvetica,sans-Serif" font-size="10.00">cleanText_input</text>
</g>
<!-- Workflow8cleanText_input&#45;&gt;Workflow8cleanText -->
<g id="edge5" class="edge"><title>Workflow8cleanText_input&#45;&gt;Workflow8cleanText</title>
<path fill="none" stroke="black" d="M116,-609.212C116,-607.19 116,-605.013 116,-602.804"/>
<polygon fill="black" stroke="black" points="119.5,-602.683 116,-592.683 112.5,-602.683 119.5,-602.683"/>
</g>
<!-- Workflow8WORKFLOWINTERNALSINK_cleanedPlainText -->
<g id="node11" class="node"><title>Workflow8WORKFLOWINTERNALSINK_cleanedPlainText</title>
<polygon fill="#bcd2ee" stroke="black" points="162,-495.5 70,-495.5 70,-474.5 162,-474.5 162,-495.5"/>
<text text-anchor="middle" x="116" y="-482.5" font-family="Helvetica,sans-Serif" font-size="10.00">cleanedPlainText</text>
</g>
<!-- Workflow8cleanText_output&#45;&gt;Workflow8WORKFLOWINTERNALSINK_cleanedPlainText -->
<g id="edge13" class="edge"><title>Workflow8cleanText_output&#45;&gt;Workflow8WORKFLOWINTERNALSINK_cleanedPlainText</title>
<path fill="none" stroke="black" d="M116,-533.452C116,-525.829 116,-515.277 116,-505.966"/>
<polygon fill="black" stroke="black" points="119.5,-505.856 116,-495.856 112.5,-505.856 119.5,-505.856"/>
</g>
<!-- Workflow8Encode_Byte_Array_to_Base_64 -->
<g id="node5" class="node"><title>Workflow8Encode_Byte_Array_to_Base_64</title>
<polygon fill="#d15fee" stroke="black" points="196,-668.5 36,-668.5 36,-647.5 196,-647.5 196,-668.5"/>
<text text-anchor="middle" x="116" y="-655.5" font-family="Helvetica,sans-Serif" font-size="10.00">Encode_Byte_Array_to_Base_64</text>
</g>
<!-- Workflow8Encode_Byte_Array_to_Base_64&#45;&gt;Workflow8cleanText_input -->
<g id="edge7" class="edge"><title>Workflow8Encode_Byte_Array_to_Base_64&#45;&gt;Workflow8cleanText_input</title>
<path fill="none" stroke="black" d="M116,-647.212C116,-645.19 116,-643.013 116,-640.804"/>
<polygon fill="black" stroke="black" points="119.5,-640.683 116,-630.683 112.5,-640.683 119.5,-640.683"/>
</g>
<!-- Workflow8WORKFLOWINTERNALSOURCECONTROL -->
<g id="node7" class="node"><title>Workflow8WORKFLOWINTERNALSOURCECONTROL</title>
<polygon fill="#ff4040" stroke="black" points="201,-703 194,-692.5 208,-692.5 201,-703"/>
</g>
<!-- Workflow8WORKFLOWINTERNALSOURCE_plainTextContentsForCleaning -->
<g id="node8" class="node"><title>Workflow8WORKFLOWINTERNALSOURCE_plainTextContentsForCleaning</title>
<polygon fill="skyblue" stroke="black" points="190,-706.5 42,-706.5 42,-685.5 190,-685.5 190,-706.5"/>
<text text-anchor="middle" x="116" y="-693.5" font-family="Helvetica,sans-Serif" font-size="10.00">plainTextContentsForCleaning</text>
</g>
<!-- Workflow8WORKFLOWINTERNALSOURCE_plainTextContentsForCleaning&#45;&gt;Workflow8Encode_Byte_Array_to_Base_64 -->
<g id="edge11" class="edge"><title>Workflow8WORKFLOWINTERNALSOURCE_plainTextContentsForCleaning&#45;&gt;Workflow8Encode_Byte_Array_to_Base_64</title>
<path fill="none" stroke="black" d="M116,-685.212C116,-683.19 116,-681.013 116,-678.804"/>
<polygon fill="black" stroke="black" points="119.5,-678.683 116,-668.683 112.5,-678.683 119.5,-678.683"/>
</g>
<!-- Workflow8WORKFLOWINTERNALSINKCONTROL -->
<g id="node10" class="node"><title>Workflow8WORKFLOWINTERNALSINKCONTROL</title>
<polygon fill="#66cd00" stroke="black" points="173,-478 180,-488.5 166,-488.5 173,-478"/>
</g>
<!-- Workflow9WORKFLOWINTERNALSOURCE_plainText -->
<g id="node26" class="node"><title>Workflow9WORKFLOWINTERNALSOURCE_plainText</title>
<polygon fill="skyblue" stroke="black" points="144,-391.5 88,-391.5 88,-370.5 144,-370.5 144,-391.5"/>
<text text-anchor="middle" x="116" y="-378.5" font-family="Helvetica,sans-Serif" font-size="10.00">plainText</text>
</g>
<!-- Workflow8WORKFLOWINTERNALSINK_cleanedPlainText&#45;&gt;Workflow9WORKFLOWINTERNALSOURCE_plainText -->
<g id="edge36" class="edge"><title>Workflow8WORKFLOWINTERNALSINK_cleanedPlainText&#45;&gt;Workflow9WORKFLOWINTERNALSOURCE_plainText</title>
<path fill="none" stroke="black" d="M116,-474.262C116,-457.203 116,-423.609 116,-401.741"/>
<polygon fill="black" stroke="black" points="119.5,-401.525 116,-391.525 112.5,-401.525 119.5,-401.525"/>
</g>
<!-- Beanshell -->
<g id="node17" class="node"><title>Beanshell</title>
<polygon fill="#deb887" stroke="black" points="145,-172.5 87,-172.5 87,-151.5 145,-151.5 145,-172.5"/>
<text text-anchor="middle" x="116" y="-159.5" font-family="Helvetica,sans-Serif" font-size="10.00">Beanshell</text>
</g>
<!-- Flatten_List -->
<g id="node18" class="node"><title>Flatten_List</title>
<polygon fill="#d15fee" stroke="black" points="150,-134.5 82,-134.5 82,-113.5 150,-113.5 150,-134.5"/>
<text text-anchor="middle" x="116" y="-121.5" font-family="Helvetica,sans-Serif" font-size="10.00">Flatten_List</text>
</g>
<!-- Beanshell&#45;&gt;Flatten_List -->
<g id="edge32" class="edge"><title>Beanshell&#45;&gt;Flatten_List</title>
<path fill="none" stroke="black" d="M116,-151.212C116,-149.19 116,-147.013 116,-144.804"/>
<polygon fill="black" stroke="black" points="119.5,-144.683 116,-134.683 112.5,-144.683 119.5,-144.683"/>
</g>
<!-- Merge_String_List_to_a_String -->
<g id="node19" class="node"><title>Merge_String_List_to_a_String</title>
<polygon fill="#d15fee" stroke="black" points="191,-96.5 41,-96.5 41,-75.5 191,-75.5 191,-96.5"/>
<text text-anchor="middle" x="116" y="-83.5" font-family="Helvetica,sans-Serif" font-size="10.00">Merge_String_List_to_a_String</text>
</g>
<!-- Flatten_List&#45;&gt;Merge_String_List_to_a_String -->
<g id="edge34" class="edge"><title>Flatten_List&#45;&gt;Merge_String_List_to_a_String</title>
<path fill="none" stroke="black" d="M116,-113.212C116,-111.19 116,-109.013 116,-106.804"/>
<polygon fill="black" stroke="black" points="119.5,-106.683 116,-96.6831 112.5,-106.683 119.5,-106.683"/>
</g>
<!-- WORKFLOWINTERNALSINK_Flatten_List_outputlist -->
<g id="node39" class="node"><title>WORKFLOWINTERNALSINK_Flatten_List_outputlist</title>
<polygon fill="#bcd2ee" stroke="black" points="172,-37.5 60,-37.5 60,-16.5 172,-16.5 172,-37.5"/>
<text text-anchor="middle" x="116" y="-24.5" font-family="Helvetica,sans-Serif" font-size="10.00">Flatten_List_outputlist</text>
</g>
<!-- Merge_String_List_to_a_String&#45;&gt;WORKFLOWINTERNALSINK_Flatten_List_outputlist -->
<g id="edge38" class="edge"><title>Merge_String_List_to_a_String&#45;&gt;WORKFLOWINTERNALSINK_Flatten_List_outputlist</title>
<path fill="none" stroke="black" d="M116,-75.452C116,-67.8285 116,-57.2768 116,-47.966"/>
<polygon fill="black" stroke="black" points="119.5,-47.8558 116,-37.8559 112.5,-47.8559 119.5,-47.8558"/>
</g>
<!-- Workflow9splitIntoSentences -->
<g id="node21" class="node"><title>Workflow9splitIntoSentences</title>
<polygon fill="#a2cd5a" stroke="black" points="165,-315.5 67,-315.5 67,-294.5 165,-294.5 165,-315.5"/>
<text text-anchor="middle" x="116" y="-302.5" font-family="Helvetica,sans-Serif" font-size="10.00">splitIntoSentences</text>
</g>
<!-- Workflow9splitIntoSentences_output -->
<g id="node23" class="node"><title>Workflow9splitIntoSentences_output</title>
<polygon fill="#ab92ea" stroke="black" points="181,-277.5 51,-277.5 51,-256.5 181,-256.5 181,-277.5"/>
<text text-anchor="middle" x="116" y="-264.5" font-family="Helvetica,sans-Serif" font-size="10.00">splitIntoSentences_output</text>
</g>
<!-- Workflow9splitIntoSentences&#45;&gt;Workflow9splitIntoSentences_output -->
<g id="edge22" class="edge"><title>Workflow9splitIntoSentences&#45;&gt;Workflow9splitIntoSentences_output</title>
<path fill="none" stroke="black" d="M116,-294.212C116,-292.19 116,-290.013 116,-287.804"/>
<polygon fill="black" stroke="black" points="119.5,-287.683 116,-277.683 112.5,-287.683 119.5,-287.683"/>
</g>
<!-- Workflow9splitIntoSentences_input -->
<g id="node22" class="node"><title>Workflow9splitIntoSentences_input</title>
<polygon fill="#ab92ea" stroke="black" points="178,-353.5 54,-353.5 54,-332.5 178,-332.5 178,-353.5"/>
<text text-anchor="middle" x="116" y="-340.5" font-family="Helvetica,sans-Serif" font-size="10.00">splitIntoSentences_input</text>
</g>
<!-- Workflow9splitIntoSentences_input&#45;&gt;Workflow9splitIntoSentences -->
<g id="edge18" class="edge"><title>Workflow9splitIntoSentences_input&#45;&gt;Workflow9splitIntoSentences</title>
<path fill="none" stroke="black" d="M116,-332.212C116,-330.19 116,-328.013 116,-325.804"/>
<polygon fill="black" stroke="black" points="119.5,-325.683 116,-315.683 112.5,-325.683 119.5,-325.683"/>
</g>
<!-- Workflow9WORKFLOWINTERNALSINK_sentencesList -->
<g id="node29" class="node"><title>Workflow9WORKFLOWINTERNALSINK_sentencesList</title>
<polygon fill="#bcd2ee" stroke="black" points="154,-218.5 78,-218.5 78,-197.5 154,-197.5 154,-218.5"/>
<text text-anchor="middle" x="116" y="-205.5" font-family="Helvetica,sans-Serif" font-size="10.00">sentencesList</text>
</g>
<!-- Workflow9splitIntoSentences_output&#45;&gt;Workflow9WORKFLOWINTERNALSINK_sentencesList -->
<g id="edge24" class="edge"><title>Workflow9splitIntoSentences_output&#45;&gt;Workflow9WORKFLOWINTERNALSINK_sentencesList</title>
<path fill="none" stroke="black" d="M116,-256.452C116,-248.829 116,-238.277 116,-228.966"/>
<polygon fill="black" stroke="black" points="119.5,-228.856 116,-218.856 112.5,-228.856 119.5,-228.856"/>
</g>
<!-- Workflow9WORKFLOWINTERNALSOURCECONTROL -->
<g id="node25" class="node"><title>Workflow9WORKFLOWINTERNALSOURCECONTROL</title>
<polygon fill="#ff4040" stroke="black" points="155,-388 148,-377.5 162,-377.5 155,-388"/>
</g>
<!-- Workflow9WORKFLOWINTERNALSOURCE_plainText&#45;&gt;Workflow9splitIntoSentences_input -->
<g id="edge20" class="edge"><title>Workflow9WORKFLOWINTERNALSOURCE_plainText&#45;&gt;Workflow9splitIntoSentences_input</title>
<path fill="none" stroke="black" d="M116,-370.212C116,-368.19 116,-366.013 116,-363.804"/>
<polygon fill="black" stroke="black" points="119.5,-363.683 116,-353.683 112.5,-363.683 119.5,-363.683"/>
</g>
<!-- Workflow9WORKFLOWINTERNALSINKCONTROL -->
<g id="node28" class="node"><title>Workflow9WORKFLOWINTERNALSINKCONTROL</title>
<polygon fill="#66cd00" stroke="black" points="165,-201 172,-211.5 158,-211.5 165,-201"/>
</g>
<!-- Workflow9WORKFLOWINTERNALSINK_sentencesList&#45;&gt;Beanshell -->
<g id="edge30" class="edge"><title>Workflow9WORKFLOWINTERNALSINK_sentencesList&#45;&gt;Beanshell</title>
<path fill="none" stroke="black" d="M116,-197.331C116,-193.035 116,-187.923 116,-182.942"/>
<polygon fill="black" stroke="black" points="119.5,-182.611 116,-172.611 112.5,-182.611 119.5,-182.611"/>
</g>
<!-- WORKFLOWINTERNALSOURCECONTROL -->
<g id="node35" class="node"><title>WORKFLOWINTERNALSOURCECONTROL</title>
<polygon fill="#ff4040" stroke="black" points="227,-799 220,-788.5 234,-788.5 227,-799"/>
</g>
<!-- WORKFLOWINTERNALSOURCE_Workflow8_plainTextContentsForCleaning -->
<g id="node36" class="node"><title>WORKFLOWINTERNALSOURCE_Workflow8_plainTextContentsForCleaning</title>
<polygon fill="skyblue" stroke="black" points="216,-802.5 16,-802.5 16,-781.5 216,-781.5 216,-802.5"/>
<text text-anchor="middle" x="116" y="-789.5" font-family="Helvetica,sans-Serif" font-size="10.00">Workflow8_plainTextContentsForCleaning</text>
</g>
<!-- WORKFLOWINTERNALSOURCE_Workflow8_plainTextContentsForCleaning&#45;&gt;Workflow8WORKFLOWINTERNALSOURCE_plainTextContentsForCleaning -->
<g id="edge28" class="edge"><title>WORKFLOWINTERNALSOURCE_Workflow8_plainTextContentsForCleaning&#45;&gt;Workflow8WORKFLOWINTERNALSOURCE_plainTextContentsForCleaning</title>
<path fill="none" stroke="black" d="M116,-781.36C116,-765.862 116,-736.766 116,-716.893"/>
<polygon fill="black" stroke="black" points="119.5,-716.688 116,-706.688 112.5,-716.688 119.5,-716.688"/>
</g>
<!-- WORKFLOWINTERNALSINKCONTROL -->
<g id="node38" class="node"><title>WORKFLOWINTERNALSINKCONTROL</title>
<polygon fill="#66cd00" stroke="black" points="183,-20 190,-30.5 176,-30.5 183,-20"/>
</g>
</g>
</svg>
