<?xml version="1.0" encoding="UTF-8" standalone="no"?>
<!DOCTYPE svg PUBLIC "-//W3C//DTD SVG 1.1//EN"
 "http://www.w3.org/Graphics/SVG/1.1/DTD/svg11.dtd">
<!-- Generated by graphviz version 2.26.0 (20091210.2329)
 -->
<!-- Title: t2flow_graph Pages: 1 -->
<svg width="277pt" height="252pt"
 viewBox="0.00 0.00 277.00 252.00" xmlns="http://www.w3.org/2000/svg" xmlns:xlink="http://www.w3.org/1999/xlink">
<g id="graph1" class="graph" transform="scale(1 1) rotate(0) translate(4 248)">
<title>t2flow_graph</title>
<polygon fill="white" stroke="white" points="-4,5 -4,-248 274,-248 274,5 -4,5"/>
<g id="graph2" class="cluster"><title>cluster_sources</title>
<polygon fill="none" stroke="black" stroke-dasharray="1,5" points="173,-185 173,-236 261,-236 261,-185 173,-185"/>
<text text-anchor="middle" x="217" y="-223" font-family="Helvetica,sans-Serif" font-size="10.00">Workflow Inputs</text>
</g>
<g id="graph3" class="cluster"><title>cluster_sinks</title>
<polygon fill="none" stroke="black" stroke-dasharray="1,5" points="71,-8 71,-67 203,-67 203,-8 71,-8"/>
<text text-anchor="middle" x="118.5" y="-54" font-family="Helvetica,sans-Serif" font-size="10.00">Workflow Outputs</text>
</g>
<!-- getPeak -->
<g id="node1" class="node"><title>getPeak</title>
<polygon fill="#a2cd5a" stroke="black" points="148,-134.5 96,-134.5 96,-113.5 148,-113.5 148,-134.5"/>
<text text-anchor="middle" x="122" y="-121.5" font-family="Helvetica,sans-Serif" font-size="10.00">getPeak</text>
</g>
<!-- XPath_From_Text -->
<g id="node4" class="node"><title>XPath_From_Text</title>
<polygon fill="#d15fee" stroke="black" points="221,-96.5 125,-96.5 125,-75.5 221,-75.5 221,-96.5"/>
<text text-anchor="middle" x="173" y="-83.5" font-family="Helvetica,sans-Serif" font-size="10.00">XPath_From_Text</text>
</g>
<!-- getPeak&#45;&gt;XPath_From_Text -->
<g id="edge8" class="edge"><title>getPeak&#45;&gt;XPath_From_Text</title>
<path fill="none" stroke="black" d="M136.206,-113.415C140.738,-110.038 145.866,-106.218 150.823,-102.524"/>
<polygon fill="black" stroke="black" points="152.942,-105.31 158.87,-96.5284 148.76,-99.6966 152.942,-105.31"/>
</g>
<!-- XPath_From_Text0 -->
<g id="node5" class="node"><title>XPath_From_Text0</title>
<polygon fill="#d15fee" stroke="black" points="121,-96.5 21,-96.5 21,-75.5 121,-75.5 121,-96.5"/>
<text text-anchor="middle" x="71" y="-83.5" font-family="Helvetica,sans-Serif" font-size="10.00">XPath_From_Text0</text>
</g>
<!-- getPeak&#45;&gt;XPath_From_Text0 -->
<g id="edge12" class="edge"><title>getPeak&#45;&gt;XPath_From_Text0</title>
<path fill="none" stroke="black" d="M107.794,-113.415C103.262,-110.038 98.1342,-106.218 93.1768,-102.524"/>
<polygon fill="black" stroke="black" points="95.2402,-99.6966 85.1302,-96.5284 91.0578,-105.31 95.2402,-99.6966"/>
</g>
<!-- getPeak_input -->
<g id="node2" class="node"><title>getPeak_input</title>
<polygon fill="#ab92ea" stroke="black" points="161,-172.5 83,-172.5 83,-151.5 161,-151.5 161,-172.5"/>
<text text-anchor="middle" x="122" y="-159.5" font-family="Helvetica,sans-Serif" font-size="10.00">getPeak_input</text>
</g>
<!-- getPeak_input&#45;&gt;getPeak -->
<g id="edge4" class="edge"><title>getPeak_input&#45;&gt;getPeak</title>
<path fill="none" stroke="black" d="M122,-151.212C122,-149.19 122,-147.013 122,-144.804"/>
<polygon fill="black" stroke="black" points="125.5,-144.683 122,-134.683 118.5,-144.683 125.5,-144.683"/>
</g>
<!-- String_Constant -->
<g id="node3" class="node"><title>String_Constant</title>
<polygon fill="#b0c4de" stroke="black" points="165,-210.5 79,-210.5 79,-189.5 165,-189.5 165,-210.5"/>
<text text-anchor="middle" x="122" y="-197.5" font-family="Helvetica,sans-Serif" font-size="10.00">String_Constant</text>
</g>
<!-- String_Constant&#45;&gt;getPeak_input -->
<g id="edge6" class="edge"><title>String_Constant&#45;&gt;getPeak_input</title>
<path fill="none" stroke="black" d="M122,-189.212C122,-187.19 122,-185.013 122,-182.804"/>
<polygon fill="black" stroke="black" points="125.5,-182.683 122,-172.683 118.5,-182.683 125.5,-182.683"/>
</g>
<!-- WORKFLOWINTERNALSINK_intensities -->
<g id="node13" class="node"><title>WORKFLOWINTERNALSINK_intensities</title>
<polygon fill="#bcd2ee" stroke="black" points="177,-37.5 117,-37.5 117,-16.5 177,-16.5 177,-37.5"/>
<text text-anchor="middle" x="147" y="-24.5" font-family="Helvetica,sans-Serif" font-size="10.00">intensities</text>
</g>
<!-- XPath_From_Text&#45;&gt;WORKFLOWINTERNALSINK_intensities -->
<g id="edge18" class="edge"><title>XPath_From_Text&#45;&gt;WORKFLOWINTERNALSINK_intensities</title>
<path fill="none" stroke="black" d="M168.352,-75.452C164.883,-67.5799 160.038,-56.5855 155.84,-47.0593"/>
<polygon fill="black" stroke="black" points="159.019,-45.5953 151.784,-37.8559 152.614,-48.4182 159.019,-45.5953"/>
</g>
<!-- WORKFLOWINTERNALSINK_mzs -->
<g id="node12" class="node"><title>WORKFLOWINTERNALSINK_mzs</title>
<polygon fill="#bcd2ee" stroke="black" points="113,-37.5 79,-37.5 79,-16.5 113,-16.5 113,-37.5"/>
<text text-anchor="middle" x="96" y="-24.5" font-family="Helvetica,sans-Serif" font-size="10.00">mzs</text>
</g>
<!-- XPath_From_Text0&#45;&gt;WORKFLOWINTERNALSINK_mzs -->
<g id="edge16" class="edge"><title>XPath_From_Text0&#45;&gt;WORKFLOWINTERNALSINK_mzs</title>
<path fill="none" stroke="black" d="M75.4695,-75.452C78.77,-67.6628 83.3658,-56.8166 87.3726,-47.3606"/>
<polygon fill="black" stroke="black" points="90.7211,-48.4289 91.4001,-37.8559 84.2759,-45.6979 90.7211,-48.4289"/>
</g>
<!-- String_Constant0 -->
<g id="node6" class="node"><title>String_Constant0</title>
<polygon fill="#b0c4de" stroke="black" points="244,-134.5 152,-134.5 152,-113.5 244,-113.5 244,-134.5"/>
<text text-anchor="middle" x="198" y="-121.5" font-family="Helvetica,sans-Serif" font-size="10.00">String_Constant0</text>
</g>
<!-- String_Constant0&#45;&gt;XPath_From_Text -->
<g id="edge10" class="edge"><title>String_Constant0&#45;&gt;XPath_From_Text</title>
<path fill="none" stroke="black" d="M190.903,-113.212C189.253,-110.704 187.447,-107.959 185.637,-105.209"/>
<polygon fill="black" stroke="black" points="188.449,-103.114 180.028,-96.6831 182.601,-106.961 188.449,-103.114"/>
</g>
<!-- String_Constant1 -->
<g id="node7" class="node"><title>String_Constant1</title>
<polygon fill="#b0c4de" stroke="black" points="92,-134.5 4.26326e-14,-134.5 0,-113.5 92,-113.5 92,-134.5"/>
<text text-anchor="middle" x="46" y="-121.5" font-family="Helvetica,sans-Serif" font-size="10.00">String_Constant1</text>
</g>
<!-- String_Constant1&#45;&gt;XPath_From_Text0 -->
<g id="edge14" class="edge"><title>String_Constant1&#45;&gt;XPath_From_Text0</title>
<path fill="none" stroke="black" d="M53.0971,-113.212C54.7473,-110.704 56.5531,-107.959 58.3626,-105.209"/>
<polygon fill="black" stroke="black" points="61.3994,-106.961 63.9717,-96.6831 55.5515,-103.114 61.3994,-106.961"/>
</g>
<!-- WORKFLOWINTERNALSOURCECONTROL -->
<g id="node9" class="node"><title>WORKFLOWINTERNALSOURCECONTROL</title>
<polygon fill="#ff4040" stroke="black" points="217,-207 210,-196.5 224,-196.5 217,-207"/>
</g>
<!-- WORKFLOWINTERNALSINKCONTROL -->
<g id="node11" class="node"><title>WORKFLOWINTERNALSINKCONTROL</title>
<polygon fill="#66cd00" stroke="black" points="188,-20 195,-30.5 181,-30.5 188,-20"/>
</g>
</g>
</svg>
