<?xml version="1.0" encoding="UTF-8" standalone="no"?>
<!DOCTYPE svg PUBLIC "-//W3C//DTD SVG 1.1//EN"
 "http://www.w3.org/Graphics/SVG/1.1/DTD/svg11.dtd">
<!-- Generated by graphviz version 2.26.0 (20091210.2329)
 -->
<!-- Title: t2flow_graph Pages: 1 -->
<svg width="234pt" height="218pt"
 viewBox="0.00 0.00 234.00 218.00" xmlns="http://www.w3.org/2000/svg" xmlns:xlink="http://www.w3.org/1999/xlink">
<g id="graph1" class="graph" transform="scale(1 1) rotate(0) translate(4 214)">
<title>t2flow_graph</title>
<polygon fill="white" stroke="white" points="-4,5 -4,-214 231,-214 231,5 -4,5"/>
<g id="graph2" class="cluster"><title>cluster_sources</title>
<polygon fill="none" stroke="black" stroke-dasharray="1,5" points="8,-143 8,-202 186,-202 186,-143 8,-143"/>
<text text-anchor="middle" x="52" y="-189" font-family="Helvetica,sans-Serif" font-size="10.00">Workflow Inputs</text>
</g>
<g id="graph3" class="cluster"><title>cluster_sinks</title>
<polygon fill="none" stroke="black" stroke-dasharray="1,5" points="10,-8 10,-67 218,-67 218,-8 10,-8"/>
<text text-anchor="middle" x="57.5" y="-54" font-family="Helvetica,sans-Serif" font-size="10.00">Workflow Outputs</text>
</g>
<!-- Get_Protein_FASTA -->
<g id="node1" class="node"><title>Get_Protein_FASTA</title>
<polygon fill="#d15fee" stroke="black" points="200,-134.5 94,-134.5 94,-113.5 200,-113.5 200,-134.5"/>
<text text-anchor="middle" x="147" y="-121.5" font-family="Helvetica,sans-Serif" font-size="10.00">Get_Protein_FASTA</text>
</g>
<!-- searchSimple -->
<g id="node2" class="node"><title>searchSimple</title>
<polygon fill="#a2cd5a" stroke="black" points="113,-96.5 37,-96.5 37,-75.5 113,-75.5 113,-96.5"/>
<text text-anchor="middle" x="75" y="-83.5" font-family="Helvetica,sans-Serif" font-size="10.00">searchSimple</text>
</g>
<!-- Get_Protein_FASTA&#45;&gt;searchSimple -->
<g id="edge6" class="edge"><title>Get_Protein_FASTA&#45;&gt;searchSimple</title>
<path fill="none" stroke="black" d="M126.944,-113.415C119.844,-109.668 111.708,-105.374 104.014,-101.313"/>
<polygon fill="black" stroke="black" points="105.426,-98.1006 94.9485,-96.5284 102.159,-104.291 105.426,-98.1006"/>
</g>
<!-- WORKFLOWINTERNALSINK_Sequence -->
<g id="node10" class="node"><title>WORKFLOWINTERNALSINK_Sequence</title>
<polygon fill="#bcd2ee" stroke="black" points="192,-37.5 132,-37.5 132,-16.5 192,-16.5 192,-37.5"/>
<text text-anchor="middle" x="162" y="-24.5" font-family="Helvetica,sans-Serif" font-size="10.00">Sequence</text>
</g>
<!-- Get_Protein_FASTA&#45;&gt;WORKFLOWINTERNALSINK_Sequence -->
<g id="edge12" class="edge"><title>Get_Protein_FASTA&#45;&gt;WORKFLOWINTERNALSINK_Sequence</title>
<path fill="none" stroke="black" d="M148.663,-113.249C151.108,-97.4334 155.721,-67.6032 158.828,-47.513"/>
<polygon fill="black" stroke="black" points="162.306,-47.9221 160.376,-37.5046 155.388,-46.8522 162.306,-47.9221"/>
</g>
<!-- WORKFLOWINTERNALSINK_searchSimple_Result -->
<g id="node11" class="node"><title>WORKFLOWINTERNALSINK_searchSimple_Result</title>
<polygon fill="#bcd2ee" stroke="black" points="128,-37.5 18,-37.5 18,-16.5 128,-16.5 128,-37.5"/>
<text text-anchor="middle" x="73" y="-24.5" font-family="Helvetica,sans-Serif" font-size="10.00">searchSimple_Result</text>
</g>
<!-- searchSimple&#45;&gt;WORKFLOWINTERNALSINK_searchSimple_Result -->
<g id="edge14" class="edge"><title>searchSimple&#45;&gt;WORKFLOWINTERNALSINK_searchSimple_Result</title>
<path fill="none" stroke="black" d="M74.6424,-75.452C74.384,-67.8285 74.0263,-57.2768 73.7107,-47.966"/>
<polygon fill="black" stroke="black" points="77.2049,-47.7315 73.368,-37.8559 70.2089,-47.9687 77.2049,-47.7315"/>
</g>
<!-- WORKFLOWINTERNALSOURCECONTROL -->
<g id="node4" class="node"><title>WORKFLOWINTERNALSOURCECONTROL</title>
<polygon fill="#ff4040" stroke="black" points="171,-169 164,-158.5 178,-158.5 171,-169"/>
</g>
<!-- WORKFLOWINTERNALSOURCE_ID -->
<g id="node5" class="node"><title>WORKFLOWINTERNALSOURCE_ID</title>
<polygon fill="skyblue" stroke="black" points="160,-172.5 134,-172.5 134,-151.5 160,-151.5 160,-172.5"/>
<text text-anchor="middle" x="147" y="-159.5" font-family="Helvetica,sans-Serif" font-size="10.00">ID</text>
</g>
<!-- WORKFLOWINTERNALSOURCE_ID&#45;&gt;Get_Protein_FASTA -->
<g id="edge4" class="edge"><title>WORKFLOWINTERNALSOURCE_ID&#45;&gt;Get_Protein_FASTA</title>
<path fill="none" stroke="black" d="M147,-151.212C147,-149.19 147,-147.013 147,-144.804"/>
<polygon fill="black" stroke="black" points="150.5,-144.683 147,-134.683 143.5,-144.683 150.5,-144.683"/>
</g>
<!-- WORKFLOWINTERNALSOURCE_Database -->
<g id="node6" class="node"><title>WORKFLOWINTERNALSOURCE_Database</title>
<polygon fill="skyblue" stroke="black" points="74,-172.5 16,-172.5 16,-151.5 74,-151.5 74,-172.5"/>
<text text-anchor="middle" x="45" y="-159.5" font-family="Helvetica,sans-Serif" font-size="10.00">Database</text>
</g>
<!-- WORKFLOWINTERNALSOURCE_Database&#45;&gt;searchSimple -->
<g id="edge8" class="edge"><title>WORKFLOWINTERNALSOURCE_Database&#45;&gt;searchSimple</title>
<path fill="none" stroke="black" d="M49.1714,-151.433C53.7317,-139.88 61.1512,-121.084 66.8708,-106.594"/>
<polygon fill="black" stroke="black" points="70.2536,-107.557 70.6698,-96.9699 63.7425,-104.986 70.2536,-107.557"/>
</g>
<!-- WORKFLOWINTERNALSOURCE_Program -->
<g id="node7" class="node"><title>WORKFLOWINTERNALSOURCE_Program</title>
<polygon fill="skyblue" stroke="black" points="130,-172.5 78,-172.5 78,-151.5 130,-151.5 130,-172.5"/>
<text text-anchor="middle" x="104" y="-159.5" font-family="Helvetica,sans-Serif" font-size="10.00">Program</text>
</g>
<!-- WORKFLOWINTERNALSOURCE_Program&#45;&gt;searchSimple -->
<g id="edge10" class="edge"><title>WORKFLOWINTERNALSOURCE_Program&#45;&gt;searchSimple</title>
<path fill="none" stroke="black" d="M99.002,-151.314C96.7623,-146.388 94.1478,-140.439 92,-135 88.2919,-125.609 84.5708,-115.045 81.5595,-106.136"/>
<polygon fill="black" stroke="black" points="84.8684,-104.995 78.3938,-96.6084 78.2255,-107.202 84.8684,-104.995"/>
</g>
<!-- WORKFLOWINTERNALSINKCONTROL -->
<g id="node9" class="node"><title>WORKFLOWINTERNALSINKCONTROL</title>
<polygon fill="#66cd00" stroke="black" points="203,-20 210,-30.5 196,-30.5 203,-20"/>
</g>
</g>
</svg>
