<?xml version="1.0" encoding="UTF-8" standalone="no"?>
<!DOCTYPE svg PUBLIC "-//W3C//DTD SVG 1.1//EN" "http://www.w3.org/Graphics/SVG/1.1/DTD/svg11.dtd">
<svg style="stroke:black; fill:none; stroke-width:1px; stroke-linejoin:round; text-anchor:left" xmlns="http://www.w3.org/2000/svg" font-family="Helvetica, Arial, FreeSans, Sans, sans, sans-serif" height="1124px" width="1132.0px" version="1.1" xmlns:xlink="http://www.w3.org/1999/xlink" viewBox="0 0 1132.0 1124">

<g>

<g>

<defs>

<marker refY="3.6" refX="1.5" markerUnits="strokeWidth" viewBox="0 0 10.5 7.2" stroke="none" id="true" markerWidth="10.5" fill="black" orient="auto" markerHeight="7.2">

<path d="M 1.5 3.6 L 0 0 L 10.5 3.6 L 0 7.2 L 1.5 3.6 Z"/>

</marker>

</defs>

<path marker-end="url(#true)" d="M351.25 314L219 444"/>

</g>

<g>

<defs>

<marker refY="3.6" refX="1.5" markerUnits="strokeWidth" viewBox="0 0 10.5 7.2" stroke="none" id="true" markerWidth="10.5" fill="black" orient="auto" markerHeight="7.2">

<path d="M 1.5 3.6 L 0 0 L 10.5 3.6 L 0 7.2 L 1.5 3.6 Z"/>

</marker>

</defs>

<path marker-end="url(#true)" d="M405 470L238 588"/>

</g>

<g>

<defs>

<marker refY="3.6" refX="1.5" markerUnits="strokeWidth" viewBox="0 0 10.5 7.2" stroke="none" id="true" markerWidth="10.5" fill="black" orient="auto" markerHeight="7.2">

<path d="M 1.5 3.6 L 0 0 L 10.5 3.6 L 0 7.2 L 1.5 3.6 Z"/>

</marker>

</defs>

<path marker-end="url(#true)" d="M305.75 614L231 726"/>

</g>

<g>

<defs>

<marker refY="3.6" refX="1.5" markerUnits="strokeWidth" viewBox="0 0 10.5 7.2" stroke="none" id="true" markerWidth="10.5" fill="black" orient="auto" markerHeight="7.2">

<path d="M 1.5 3.6 L 0 0 L 10.5 3.6 L 0 7.2 L 1.5 3.6 Z"/>

</marker>

</defs>

<path marker-end="url(#true)" d="M351 752L227 855"/>

</g>

<g>

<defs>

<marker refY="3.6" refX="1.5" markerUnits="strokeWidth" viewBox="0 0 10.5 7.2" stroke="none" id="true" markerWidth="10.5" fill="black" orient="auto" markerHeight="7.2">

<path d="M 1.5 3.6 L 0 0 L 10.5 3.6 L 0 7.2 L 1.5 3.6 Z"/>

</marker>

</defs>

<path marker-end="url(#true)" d="M294.75 881L579 299"/>

</g>

<g>

<defs>

<marker refY="3.6" refX="1.5" markerUnits="strokeWidth" viewBox="0 0 10.5 7.2" stroke="none" id="true" markerWidth="10.5" fill="black" orient="auto" markerHeight="7.2">

<path d="M 1.5 3.6 L 0 0 L 10.5 3.6 L 0 7.2 L 1.5 3.6 Z"/>

</marker>

</defs>

<path marker-end="url(#true)" d="M688 325L586 412"/>

</g>

<g>

<defs>

<marker refY="3.6" refX="1.5" markerUnits="strokeWidth" viewBox="0 0 10.5 7.2" stroke="none" id="true" markerWidth="10.5" fill="black" orient="auto" markerHeight="7.2">

<path d="M 1.5 3.6 L 0 0 L 10.5 3.6 L 0 7.2 L 1.5 3.6 Z"/>

</marker>

</defs>

<path marker-end="url(#true)" d="M695 438L598 522"/>

</g>

<g>

<defs>

<marker refY="3.6" refX="1.5" markerUnits="strokeWidth" viewBox="0 0 10.5 7.2" stroke="none" id="true" markerWidth="10.5" fill="black" orient="auto" markerHeight="7.2">

<path d="M 1.5 3.6 L 0 0 L 10.5 3.6 L 0 7.2 L 1.5 3.6 Z"/>

</marker>

</defs>

<path marker-end="url(#true)" d="M690.5 548L601 661"/>

</g>

<g>

<defs>

<marker refY="3.6" refX="1.5" markerUnits="strokeWidth" viewBox="0 0 10.5 7.2" stroke="none" id="true" markerWidth="10.5" fill="black" orient="auto" markerHeight="7.2">

<path d="M 1.5 3.6 L 0 0 L 10.5 3.6 L 0 7.2 L 1.5 3.6 Z"/>

</marker>

</defs>

<path marker-end="url(#true)" d="M710 687L596 765"/>

</g>

<g>

<defs>

<marker refY="3.6" refX="1.5" markerUnits="strokeWidth" viewBox="0 0 10.5 7.2" stroke="none" id="true" markerWidth="10.5" fill="black" orient="auto" markerHeight="7.2">

<path d="M 1.5 3.6 L 0 0 L 10.5 3.6 L 0 7.2 L 1.5 3.6 Z"/>

</marker>

</defs>

<path marker-end="url(#true)" d="M688.5 791L599 869"/>

</g>

<g>

<defs>

<marker refY="3.6" refX="1.5" markerUnits="strokeWidth" viewBox="0 0 10.5 7.2" stroke="none" id="true" markerWidth="10.5" fill="black" orient="auto" markerHeight="7.2">

<path d="M 1.5 3.6 L 0 0 L 10.5 3.6 L 0 7.2 L 1.5 3.6 Z"/>

</marker>

</defs>

<path marker-end="url(#true)" d="M708 895L896 542"/>

</g>

</g>

<g>

<path d="M239 274L346.25 274L346.25 304L239 304Z" fill="#EBD9B2"/>

<path d="M239 304L346.25 304L346.25 325L239 325Z" fill="#ffffff"/>

<path d="M224 399L400 399L400 429L224 429Z" fill="#EBD9B2"/>

<path d="M224 429L400 429L400 481L224 481Z" fill="#ffffff"/>

<path d="M243 543L300.75 543L300.75 573L243 573Z" fill="#EBD9B2"/>

<path d="M243 573L300.75 573L300.75 625L243 625Z" fill="#ffffff"/>

<path d="M236 681L346 681L346 711L236 711Z" fill="#EBD9B2"/>

<path d="M236 711L346 711L346 763L236 763Z" fill="#ffffff"/>

<path d="M232 810L289.75 810L289.75 840L232 840Z" fill="#EBD9B2"/>

<path d="M232 840L289.75 840L289.75 892L232 892Z" fill="#ffffff"/>

<path d="M584 254L683 254L683 284L584 284Z" fill="#EBD9B2"/>

<path d="M584 284L683 284L683 336L584 336Z" fill="#ffffff"/>

<path d="M591 367L690 367L690 397L591 397Z" fill="#EBD9B2"/>

<path d="M591 397L690 397L690 449L591 449Z" fill="#ffffff"/>

<path d="M603 477L685.5 477L685.5 507L603 507Z" fill="#EBD9B2"/>

<path d="M603 507L685.5 507L685.5 559L603 559Z" fill="#ffffff"/>

<path d="M606 616L705 616L705 646L606 646Z" fill="#EBD9B2"/>

<path d="M606 646L705 646L705 698L606 698Z" fill="#ffffff"/>

<path d="M601 720L683.5 720L683.5 750L601 750Z" fill="#EBD9B2"/>

<path d="M601 750L683.5 750L683.5 802L601 802Z" fill="#ffffff"/>

<path d="M604 824L703 824L703 854L604 854Z" fill="#EBD9B2"/>

<path d="M604 854L703 854L703 906L604 906Z" fill="#ffffff"/>

<path d="M901 497L950.5 497L950.5 527L901 527Z" fill="#EBD9B2"/>

<path d="M901 527L950.5 527L950.5 579L901 579Z" fill="#ffffff"/>

</g>

<g>

<text y="294" x="244" stroke="none" font-size="14px" fill="black">Input dataset</text>

<text y="319" x="244" stroke="none" font-size="10px" fill="black">output</text>

<text y="419" x="229" stroke="none" font-size="14px" fill="black">Extract Genomic DNA</text>

<text y="444" x="229" stroke="none" font-size="10px" fill="black">Fetch sequences for intervals in</text>

<text y="475" x="229" stroke="none" font-size="10px" fill="black">out_file1</text>

<text y="563" x="248" stroke="none" font-size="14px" fill="black">fuzznuc</text>

<text y="588" x="248" stroke="none" font-size="10px" fill="black">Sequences</text>

<text y="619" x="248" stroke="none" font-size="10px" fill="black">out_file1</text>

<text y="701" x="241" stroke="none" font-size="14px" fill="black">GFF-to-BED</text>

<text y="726" x="241" stroke="none" font-size="10px" fill="black">Convert this dataset</text>

<text y="757" x="241" stroke="none" font-size="10px" fill="black">out_file1</text>

<text y="830" x="237" stroke="none" font-size="14px" fill="black">Convert</text>

<text y="855" x="237" stroke="none" font-size="10px" fill="black">in Dataset</text>

<text y="886" x="237" stroke="none" font-size="10px" fill="black">out_file1</text>

<text y="274" x="589" stroke="none" font-size="14px" fill="black">Compute</text>

<text y="299" x="589" stroke="none" font-size="10px" fill="black">as a new column to</text>

<text y="330" x="589" stroke="none" font-size="10px" fill="black">out_file1</text>

<text y="387" x="596" stroke="none" font-size="14px" fill="black">Compute</text>

<text y="412" x="596" stroke="none" font-size="10px" fill="black">as a new column to</text>

<text y="443" x="596" stroke="none" font-size="10px" fill="black">out_file1</text>

<text y="497" x="608" stroke="none" font-size="14px" fill="black">Add column</text>

<text y="522" x="608" stroke="none" font-size="10px" fill="black">to Dataset</text>

<text y="553" x="608" stroke="none" font-size="10px" fill="black">out_file1</text>

<text y="636" x="611" stroke="none" font-size="14px" fill="black">Compute</text>

<text y="661" x="611" stroke="none" font-size="10px" fill="black">as a new column to</text>

<text y="692" x="611" stroke="none" font-size="10px" fill="black">out_file1</text>

<text y="740" x="606" stroke="none" font-size="14px" fill="black">Add column</text>

<text y="765" x="606" stroke="none" font-size="10px" fill="black">to Dataset</text>

<text y="796" x="606" stroke="none" font-size="10px" fill="black">out_file1</text>

<text y="844" x="609" stroke="none" font-size="14px" fill="black">Compute</text>

<text y="869" x="609" stroke="none" font-size="10px" fill="black">as a new column to</text>

<text y="900" x="609" stroke="none" font-size="10px" fill="black">out_file1</text>

<text y="517" x="906" stroke="none" font-size="14px" fill="black">Cut</text>

<text y="542" x="906" stroke="none" font-size="10px" fill="black">From</text>

<text y="573" x="906" stroke="none" font-size="10px" fill="black">out_file1</text>

<path d="M224 455L400 455"/>

<circle cy="314" cx="346.25" r="5" fill="#ffffff"/>

<path d="M243 599L300.75 599"/>

<circle cy="470" cx="400.0" r="5" fill="#ffffff"/>

<path d="M236 737L346 737"/>

<circle cy="614" cx="300.75" r="5" fill="#ffffff"/>

<path d="M232 866L289.75 866"/>

<circle cy="752" cx="346.0" r="5" fill="#ffffff"/>

<path d="M584 310L683 310"/>

<circle cy="881" cx="289.75" r="5" fill="#ffffff"/>

<path d="M591 423L690 423"/>

<circle cy="325" cx="683.0" r="5" fill="#ffffff"/>

<path d="M603 533L685.5 533"/>

<circle cy="438" cx="690.0" r="5" fill="#ffffff"/>

<path d="M606 672L705 672"/>

<circle cy="548" cx="685.5" r="5" fill="#ffffff"/>

<path d="M601 776L683.5 776"/>

<circle cy="687" cx="705.0" r="5" fill="#ffffff"/>

<path d="M604 880L703 880"/>

<circle cy="791" cx="683.5" r="5" fill="#ffffff"/>

<path d="M901 553L950.5 553"/>

<circle cy="895" cx="703.0" r="5" fill="#ffffff"/>

</g>

</svg>