<?xml version="1.0" encoding="UTF-8" standalone="no"?>
<!DOCTYPE svg PUBLIC "-//W3C//DTD SVG 1.1//EN" "http://www.w3.org/Graphics/SVG/1.1/DTD/svg11.dtd">
<svg style="stroke:black; fill:none; stroke-width:1px; stroke-linejoin:round; text-anchor:left" xmlns="http://www.w3.org/2000/svg" font-family="Helvetica, Arial, FreeSans, Sans, sans, sans-serif" height="988px" width="1143.25px" version="1.1" xmlns:xlink="http://www.w3.org/1999/xlink" viewBox="0 0 1143.25 988">

<g>

<g>

<defs>

<marker refY="3.6" refX="1.5" markerUnits="strokeWidth" viewBox="0 0 10.5 7.2" stroke="none" id="true" markerWidth="10.5" fill="black" orient="auto" markerHeight="7.2">

<path d="M 1.5 3.6 L 0 0 L 10.5 3.6 L 0 7.2 L 1.5 3.6 Z"/>

</marker>

</defs>

<path marker-end="url(#true)" d="M491.25 235L619 204"/>

</g>

<g>

<defs>

<marker refY="3.6" refX="1.5" markerUnits="strokeWidth" viewBox="0 0 10.5 7.2" stroke="none" id="true" markerWidth="10.5" fill="black" orient="auto" markerHeight="7.2">

<path d="M 1.5 3.6 L 0 0 L 10.5 3.6 L 0 7.2 L 1.5 3.6 Z"/>

</marker>

</defs>

<path marker-end="url(#true)" d="M264.25 433L619 188"/>

</g>

<g>

<defs>

<marker refY="3.6" refX="1.5" markerUnits="strokeWidth" viewBox="0 0 10.5 7.2" stroke="none" id="true" markerWidth="10.5" fill="black" orient="auto" markerHeight="7.2">

<path d="M 1.5 3.6 L 0 0 L 10.5 3.6 L 0 7.2 L 1.5 3.6 Z"/>

</marker>

</defs>

<path marker-end="url(#true)" d="M484.25 337L618 345"/>

</g>

<g>

<defs>

<marker refY="3.6" refX="1.5" markerUnits="strokeWidth" viewBox="0 0 10.5 7.2" stroke="none" id="true" markerWidth="10.5" fill="black" orient="auto" markerHeight="7.2">

<path d="M 1.5 3.6 L 0 0 L 10.5 3.6 L 0 7.2 L 1.5 3.6 Z"/>

</marker>

</defs>

<path marker-end="url(#true)" d="M264.25 433L618 329"/>

</g>

<g>

<defs>

<marker refY="3.6" refX="1.5" markerUnits="strokeWidth" viewBox="0 0 10.5 7.2" stroke="none" id="true" markerWidth="10.5" fill="black" orient="auto" markerHeight="7.2">

<path d="M 1.5 3.6 L 0 0 L 10.5 3.6 L 0 7.2 L 1.5 3.6 Z"/>

</marker>

</defs>

<path marker-end="url(#true)" d="M486.25 448L617 473"/>

</g>

<g>

<defs>

<marker refY="3.6" refX="1.5" markerUnits="strokeWidth" viewBox="0 0 10.5 7.2" stroke="none" id="true" markerWidth="10.5" fill="black" orient="auto" markerHeight="7.2">

<path d="M 1.5 3.6 L 0 0 L 10.5 3.6 L 0 7.2 L 1.5 3.6 Z"/>

</marker>

</defs>

<path marker-end="url(#true)" d="M264.25 433L617 457"/>

</g>

<g>

<defs>

<marker refY="3.6" refX="1.5" markerUnits="strokeWidth" viewBox="0 0 10.5 7.2" stroke="none" id="true" markerWidth="10.5" fill="black" orient="auto" markerHeight="7.2">

<path d="M 1.5 3.6 L 0 0 L 10.5 3.6 L 0 7.2 L 1.5 3.6 Z"/>

</marker>

</defs>

<path marker-end="url(#true)" d="M487.25 552L620 607"/>

</g>

<g>

<defs>

<marker refY="3.6" refX="1.5" markerUnits="strokeWidth" viewBox="0 0 10.5 7.2" stroke="none" id="true" markerWidth="10.5" fill="black" orient="auto" markerHeight="7.2">

<path d="M 1.5 3.6 L 0 0 L 10.5 3.6 L 0 7.2 L 1.5 3.6 Z"/>

</marker>

</defs>

<path marker-end="url(#true)" d="M264.25 433L620 591"/>

</g>

<g>

<defs>

<marker refY="3.6" refX="1.5" markerUnits="strokeWidth" viewBox="0 0 10.5 7.2" stroke="none" id="true" markerWidth="10.5" fill="black" orient="auto" markerHeight="7.2">

<path d="M 1.5 3.6 L 0 0 L 10.5 3.6 L 0 7.2 L 1.5 3.6 Z"/>

</marker>

</defs>

<path marker-end="url(#true)" d="M487.25 670L615 744"/>

</g>

<g>

<defs>

<marker refY="3.6" refX="1.5" markerUnits="strokeWidth" viewBox="0 0 10.5 7.2" stroke="none" id="true" markerWidth="10.5" fill="black" orient="auto" markerHeight="7.2">

<path d="M 1.5 3.6 L 0 0 L 10.5 3.6 L 0 7.2 L 1.5 3.6 Z"/>

</marker>

</defs>

<path marker-end="url(#true)" d="M264.25 433L615 728"/>

</g>

<g>

<defs>

<marker refY="3.6" refX="1.5" markerUnits="strokeWidth" viewBox="0 0 10.5 7.2" stroke="none" id="true" markerWidth="10.5" fill="black" orient="auto" markerHeight="7.2">

<path d="M 1.5 3.6 L 0 0 L 10.5 3.6 L 0 7.2 L 1.5 3.6 Z"/>

</marker>

</defs>

<path marker-end="url(#true)" d="M706 230L867 197"/>

</g>

<g>

<defs>

<marker refY="3.6" refX="1.5" markerUnits="strokeWidth" viewBox="0 0 10.5 7.2" stroke="none" id="true" markerWidth="10.5" fill="black" orient="auto" markerHeight="7.2">

<path d="M 1.5 3.6 L 0 0 L 10.5 3.6 L 0 7.2 L 1.5 3.6 Z"/>

</marker>

</defs>

<path marker-end="url(#true)" d="M705 371L857 338"/>

</g>

<g>

<defs>

<marker refY="3.6" refX="1.5" markerUnits="strokeWidth" viewBox="0 0 10.5 7.2" stroke="none" id="true" markerWidth="10.5" fill="black" orient="auto" markerHeight="7.2">

<path d="M 1.5 3.6 L 0 0 L 10.5 3.6 L 0 7.2 L 1.5 3.6 Z"/>

</marker>

</defs>

<path marker-end="url(#true)" d="M704 499L862 466"/>

</g>

<g>

<defs>

<marker refY="3.6" refX="1.5" markerUnits="strokeWidth" viewBox="0 0 10.5 7.2" stroke="none" id="true" markerWidth="10.5" fill="black" orient="auto" markerHeight="7.2">

<path d="M 1.5 3.6 L 0 0 L 10.5 3.6 L 0 7.2 L 1.5 3.6 Z"/>

</marker>

</defs>

<path marker-end="url(#true)" d="M707 633L868 598"/>

</g>

<g>

<defs>

<marker refY="3.6" refX="1.5" markerUnits="strokeWidth" viewBox="0 0 10.5 7.2" stroke="none" id="true" markerWidth="10.5" fill="black" orient="auto" markerHeight="7.2">

<path d="M 1.5 3.6 L 0 0 L 10.5 3.6 L 0 7.2 L 1.5 3.6 Z"/>

</marker>

</defs>

<path marker-end="url(#true)" d="M702 770L877 733"/>

</g>

</g>

<g>

<path d="M152 393L259.25 393L259.25 423L152 423Z" fill="#EBD9B2"/>

<path d="M152 423L259.25 423L259.25 444L152 444Z" fill="#ffffff"/>

<path d="M379 195L486.25 195L486.25 225L379 225Z" fill="#EBD9B2"/>

<path d="M379 225L486.25 225L486.25 246L379 246Z" fill="#ffffff"/>

<path d="M372 297L479.25 297L479.25 327L372 327Z" fill="#EBD9B2"/>

<path d="M372 327L479.25 327L479.25 348L372 348Z" fill="#ffffff"/>

<path d="M374 408L481.25 408L481.25 438L374 438Z" fill="#EBD9B2"/>

<path d="M374 438L481.25 438L481.25 459L374 459Z" fill="#ffffff"/>

<path d="M375 512L482.25 512L482.25 542L375 542Z" fill="#EBD9B2"/>

<path d="M375 542L482.25 542L482.25 563L375 563Z" fill="#ffffff"/>

<path d="M375 630L482.25 630L482.25 660L375 660Z" fill="#EBD9B2"/>

<path d="M375 660L482.25 660L482.25 681L375 681Z" fill="#ffffff"/>

<path d="M624 143L701 143L701 173L624 173Z" fill="#EBD9B2"/>

<path d="M624 173L701 173L701 241L624 241Z" fill="#ffffff"/>

<path d="M623 284L700 284L700 314L623 314Z" fill="#EBD9B2"/>

<path d="M623 314L700 314L700 382L623 382Z" fill="#ffffff"/>

<path d="M622 412L699 412L699 442L622 442Z" fill="#EBD9B2"/>

<path d="M622 442L699 442L699 510L622 510Z" fill="#ffffff"/>

<path d="M625 546L702 546L702 576L625 576Z" fill="#EBD9B2"/>

<path d="M625 576L702 576L702 644L625 644Z" fill="#ffffff"/>

<path d="M620 683L697 683L697 713L620 713Z" fill="#EBD9B2"/>

<path d="M620 713L697 713L697 781L620 781Z" fill="#ffffff"/>

<path d="M872 152L1078.25 152L1078.25 182L872 182Z" fill="#EBD9B2"/>

<path d="M872 182L1078.25 182L1078.25 234L872 234Z" fill="#ffffff"/>

<path d="M862 293L1068.25 293L1068.25 323L862 323Z" fill="#EBD9B2"/>

<path d="M862 323L1068.25 323L1068.25 375L862 375Z" fill="#ffffff"/>

<path d="M867 421L1073.25 421L1073.25 451L867 451Z" fill="#EBD9B2"/>

<path d="M867 451L1073.25 451L1073.25 503L867 503Z" fill="#ffffff"/>

<path d="M873 553L1079.25 553L1079.25 583L873 583Z" fill="#EBD9B2"/>

<path d="M873 583L1079.25 583L1079.25 635L873 635Z" fill="#ffffff"/>

<path d="M882 688L1088.25 688L1088.25 718L882 718Z" fill="#EBD9B2"/>

<path d="M882 718L1088.25 718L1088.25 770L882 770Z" fill="#ffffff"/>

</g>

<g>

<text y="413" x="157" stroke="none" font-size="14px" fill="black">Input dataset</text>

<text y="438" x="157" stroke="none" font-size="10px" fill="black">output</text>

<text y="215" x="384" stroke="none" font-size="14px" fill="black">Input dataset</text>

<text y="240" x="384" stroke="none" font-size="10px" fill="black">output</text>

<text y="317" x="377" stroke="none" font-size="14px" fill="black">Input dataset</text>

<text y="342" x="377" stroke="none" font-size="10px" fill="black">output</text>

<text y="428" x="379" stroke="none" font-size="14px" fill="black">Input dataset</text>

<text y="453" x="379" stroke="none" font-size="10px" fill="black">output</text>

<text y="532" x="380" stroke="none" font-size="14px" fill="black">Input dataset</text>

<text y="557" x="380" stroke="none" font-size="10px" fill="black">output</text>

<text y="650" x="380" stroke="none" font-size="14px" fill="black">Input dataset</text>

<text y="675" x="380" stroke="none" font-size="10px" fill="black">output</text>

<text y="163" x="629" stroke="none" font-size="14px" fill="black">Intersect</text>

<text y="188" x="629" stroke="none" font-size="10px" fill="black">of</text>

<text y="204" x="629" stroke="none" font-size="10px" fill="black">that intersect</text>

<text y="235" x="629" stroke="none" font-size="10px" fill="black">output</text>

<text y="304" x="628" stroke="none" font-size="14px" fill="black">Intersect</text>

<text y="329" x="628" stroke="none" font-size="10px" fill="black">of</text>

<text y="345" x="628" stroke="none" font-size="10px" fill="black">that intersect</text>

<text y="376" x="628" stroke="none" font-size="10px" fill="black">output</text>

<text y="432" x="627" stroke="none" font-size="14px" fill="black">Intersect</text>

<text y="457" x="627" stroke="none" font-size="10px" fill="black">of</text>

<text y="473" x="627" stroke="none" font-size="10px" fill="black">that intersect</text>

<text y="504" x="627" stroke="none" font-size="10px" fill="black">output</text>

<text y="566" x="630" stroke="none" font-size="14px" fill="black">Intersect</text>

<text y="591" x="630" stroke="none" font-size="10px" fill="black">of</text>

<text y="607" x="630" stroke="none" font-size="10px" fill="black">that intersect</text>

<text y="638" x="630" stroke="none" font-size="10px" fill="black">output</text>

<text y="703" x="625" stroke="none" font-size="14px" fill="black">Intersect</text>

<text y="728" x="625" stroke="none" font-size="10px" fill="black">of</text>

<text y="744" x="625" stroke="none" font-size="10px" fill="black">that intersect</text>

<text y="775" x="625" stroke="none" font-size="10px" fill="black">output</text>

<text y="172" x="877" stroke="none" font-size="14px" fill="black">Line/Word/Character count</text>

<text y="197" x="877" stroke="none" font-size="10px" fill="black">Text file</text>

<text y="228" x="877" stroke="none" font-size="10px" fill="black">out_file1</text>

<text y="313" x="867" stroke="none" font-size="14px" fill="black">Line/Word/Character count</text>

<text y="338" x="867" stroke="none" font-size="10px" fill="black">Text file</text>

<text y="369" x="867" stroke="none" font-size="10px" fill="black">out_file1</text>

<text y="441" x="872" stroke="none" font-size="14px" fill="black">Line/Word/Character count</text>

<text y="466" x="872" stroke="none" font-size="10px" fill="black">Text file</text>

<text y="497" x="872" stroke="none" font-size="10px" fill="black">out_file1</text>

<text y="573" x="878" stroke="none" font-size="14px" fill="black">Line/Word/Character count</text>

<text y="598" x="878" stroke="none" font-size="10px" fill="black">Text file</text>

<text y="629" x="878" stroke="none" font-size="10px" fill="black">out_file1</text>

<text y="708" x="887" stroke="none" font-size="14px" fill="black">Line/Word/Character count</text>

<text y="733" x="887" stroke="none" font-size="10px" fill="black">Text file</text>

<text y="764" x="887" stroke="none" font-size="10px" fill="black">out_file1</text>

<path d="M624 215L701 215"/>

<circle cy="235" cx="486.25" r="5" fill="#ffffff"/>

<circle cy="433" cx="259.25" r="5" fill="#ffffff"/>

<path d="M623 356L700 356"/>

<circle cy="337" cx="479.25" r="5" fill="#ffffff"/>

<circle cy="433" cx="259.25" r="5" fill="#ffffff"/>

<path d="M622 484L699 484"/>

<circle cy="448" cx="481.25" r="5" fill="#ffffff"/>

<circle cy="433" cx="259.25" r="5" fill="#ffffff"/>

<path d="M625 618L702 618"/>

<circle cy="552" cx="482.25" r="5" fill="#ffffff"/>

<circle cy="433" cx="259.25" r="5" fill="#ffffff"/>

<path d="M620 755L697 755"/>

<circle cy="670" cx="482.25" r="5" fill="#ffffff"/>

<circle cy="433" cx="259.25" r="5" fill="#ffffff"/>

<path d="M872 208L1078.25 208"/>

<circle cy="230" cx="701.0" r="5" fill="#ffffff"/>

<path d="M862 349L1068.25 349"/>

<circle cy="371" cx="700.0" r="5" fill="#ffffff"/>

<path d="M867 477L1073.25 477"/>

<circle cy="499" cx="699.0" r="5" fill="#ffffff"/>

<path d="M873 609L1079.25 609"/>

<circle cy="633" cx="702.0" r="5" fill="#ffffff"/>

<path d="M882 744L1088.25 744"/>

<circle cy="770" cx="697.0" r="5" fill="#ffffff"/>

</g>

</svg>