<?xml version="1.0" encoding="UTF-8" standalone="no"?>
<!DOCTYPE svg PUBLIC "-//W3C//DTD SVG 1.1//EN" "http://www.w3.org/Graphics/SVG/1.1/DTD/svg11.dtd">
<svg style="stroke:black; fill:none; stroke-width:1px; stroke-linejoin:round; text-anchor:left" xmlns="http://www.w3.org/2000/svg" font-family="Helvetica, Arial, FreeSans, Sans, sans, sans-serif" height="1078px" width="789.25px" version="1.1" xmlns:xlink="http://www.w3.org/1999/xlink" viewBox="0 0 789.25 1078">

<g>

<g>

<defs>

<marker refY="3.6" refX="1.5" markerUnits="strokeWidth" viewBox="0 0 10.5 7.2" stroke="none" id="true" markerWidth="10.5" fill="black" orient="auto" markerHeight="7.2">

<path d="M 1.5 3.6 L 0 0 L 10.5 3.6 L 0 7.2 L 1.5 3.6 Z"/>

</marker>

</defs>

<path marker-end="url(#true)" d="M287.25 338L401 472"/>

</g>

<g>

<defs>

<marker refY="3.6" refX="1.5" markerUnits="strokeWidth" viewBox="0 0 10.5 7.2" stroke="none" id="true" markerWidth="10.5" fill="black" orient="auto" markerHeight="7.2">

<path d="M 1.5 3.6 L 0 0 L 10.5 3.6 L 0 7.2 L 1.5 3.6 Z"/>

</marker>

</defs>

<path marker-end="url(#true)" d="M287.25 338L394 584"/>

</g>

<g>

<defs>

<marker refY="3.6" refX="1.5" markerUnits="strokeWidth" viewBox="0 0 10.5 7.2" stroke="none" id="true" markerWidth="10.5" fill="black" orient="auto" markerHeight="7.2">

<path d="M 1.5 3.6 L 0 0 L 10.5 3.6 L 0 7.2 L 1.5 3.6 Z"/>

</marker>

</defs>

<path marker-end="url(#true)" d="M287.25 338L608 353"/>

</g>

<g>

<defs>

<marker refY="3.6" refX="1.5" markerUnits="strokeWidth" viewBox="0 0 10.5 7.2" stroke="none" id="true" markerWidth="10.5" fill="black" orient="auto" markerHeight="7.2">

<path d="M 1.5 3.6 L 0 0 L 10.5 3.6 L 0 7.2 L 1.5 3.6 Z"/>

</marker>

</defs>

<path marker-end="url(#true)" d="M287.25 338L396 701"/>

</g>

<g>

<defs>

<marker refY="3.6" refX="1.5" markerUnits="strokeWidth" viewBox="0 0 10.5 7.2" stroke="none" id="true" markerWidth="10.5" fill="black" orient="auto" markerHeight="7.2">

<path d="M 1.5 3.6 L 0 0 L 10.5 3.6 L 0 7.2 L 1.5 3.6 Z"/>

</marker>

</defs>

<path marker-end="url(#true)" d="M287.25 338L614 823"/>

</g>

<g>

<defs>

<marker refY="3.6" refX="1.5" markerUnits="strokeWidth" viewBox="0 0 10.5 7.2" stroke="none" id="true" markerWidth="10.5" fill="black" orient="auto" markerHeight="7.2">

<path d="M 1.5 3.6 L 0 0 L 10.5 3.6 L 0 7.2 L 1.5 3.6 Z"/>

</marker>

</defs>

<path marker-end="url(#true)" d="M510 498L604 471"/>

</g>

<g>

<defs>

<marker refY="3.6" refX="1.5" markerUnits="strokeWidth" viewBox="0 0 10.5 7.2" stroke="none" id="true" markerWidth="10.5" fill="black" orient="auto" markerHeight="7.2">

<path d="M 1.5 3.6 L 0 0 L 10.5 3.6 L 0 7.2 L 1.5 3.6 Z"/>

</marker>

</defs>

<path marker-end="url(#true)" d="M503 610L608 588"/>

</g>

<g>

<defs>

<marker refY="3.6" refX="1.5" markerUnits="strokeWidth" viewBox="0 0 10.5 7.2" stroke="none" id="true" markerWidth="10.5" fill="black" orient="auto" markerHeight="7.2">

<path d="M 1.5 3.6 L 0 0 L 10.5 3.6 L 0 7.2 L 1.5 3.6 Z"/>

</marker>

</defs>

<path marker-end="url(#true)" d="M505 727L622 712"/>

</g>

</g>

<g>

<path d="M175 298L282.25 298L282.25 328L175 328Z" fill="#EBD9B2"/>

<path d="M175 328L282.25 328L282.25 349L175 349Z" fill="#ffffff"/>

<path d="M406 427L505 427L505 457L406 457Z" fill="#EBD9B2"/>

<path d="M406 457L505 457L505 509L406 509Z" fill="#ffffff"/>

<path d="M399 539L498 539L498 569L399 569Z" fill="#EBD9B2"/>

<path d="M399 569L498 569L498 621L399 621Z" fill="#ffffff"/>

<path d="M613 308L712 308L712 338L613 338Z" fill="#EBD9B2"/>

<path d="M613 338L712 338L712 390L613 390Z" fill="#ffffff"/>

<path d="M401 656L500 656L500 686L401 686Z" fill="#EBD9B2"/>

<path d="M401 686L500 686L500 738L401 738Z" fill="#ffffff"/>

<path d="M619 778L709.75 778L709.75 808L619 808Z" fill="#EBD9B2"/>

<path d="M619 808L709.75 808L709.75 860L619 860Z" fill="#ffffff"/>

<path d="M609 426L699.75 426L699.75 456L609 456Z" fill="#EBD9B2"/>

<path d="M609 456L699.75 456L699.75 508L609 508Z" fill="#ffffff"/>

<path d="M613 543L703.75 543L703.75 573L613 573Z" fill="#EBD9B2"/>

<path d="M613 573L703.75 573L703.75 625L613 625Z" fill="#ffffff"/>

<path d="M627 667L717.75 667L717.75 697L627 697Z" fill="#EBD9B2"/>

<path d="M627 697L717.75 697L717.75 749L627 749Z" fill="#ffffff"/>

</g>

<g>

<text y="318" x="180" stroke="none" font-size="14px" fill="black">Input dataset</text>

<text y="343" x="180" stroke="none" font-size="10px" fill="black">output</text>

<text y="447" x="411" stroke="none" font-size="14px" fill="black">Select first</text>

<text y="472" x="411" stroke="none" font-size="10px" fill="black">from</text>

<text y="503" x="411" stroke="none" font-size="10px" fill="black">out_file1</text>

<text y="559" x="404" stroke="none" font-size="14px" fill="black">Select first</text>

<text y="584" x="404" stroke="none" font-size="10px" fill="black">from</text>

<text y="615" x="404" stroke="none" font-size="10px" fill="black">out_file1</text>

<text y="328" x="618" stroke="none" font-size="14px" fill="black">Select first</text>

<text y="353" x="618" stroke="none" font-size="10px" fill="black">from</text>

<text y="384" x="618" stroke="none" font-size="10px" fill="black">out_file1</text>

<text y="676" x="406" stroke="none" font-size="14px" fill="black">Select first</text>

<text y="701" x="406" stroke="none" font-size="10px" fill="black">from</text>

<text y="732" x="406" stroke="none" font-size="10px" fill="black">out_file1</text>

<text y="798" x="624" stroke="none" font-size="14px" fill="black">Select last</text>

<text y="823" x="624" stroke="none" font-size="10px" fill="black">from</text>

<text y="854" x="624" stroke="none" font-size="10px" fill="black">out_file1</text>

<text y="446" x="614" stroke="none" font-size="14px" fill="black">Select last</text>

<text y="471" x="614" stroke="none" font-size="10px" fill="black">from</text>

<text y="502" x="614" stroke="none" font-size="10px" fill="black">out_file1</text>

<text y="563" x="618" stroke="none" font-size="14px" fill="black">Select last</text>

<text y="588" x="618" stroke="none" font-size="10px" fill="black">from</text>

<text y="619" x="618" stroke="none" font-size="10px" fill="black">out_file1</text>

<text y="687" x="632" stroke="none" font-size="14px" fill="black">Select last</text>

<text y="712" x="632" stroke="none" font-size="10px" fill="black">from</text>

<text y="743" x="632" stroke="none" font-size="10px" fill="black">out_file1</text>

<path d="M406 483L505 483"/>

<circle cy="338" cx="282.25" r="5" fill="#ffffff"/>

<path d="M399 595L498 595"/>

<circle cy="338" cx="282.25" r="5" fill="#ffffff"/>

<path d="M613 364L712 364"/>

<circle cy="338" cx="282.25" r="5" fill="#ffffff"/>

<path d="M401 712L500 712"/>

<circle cy="338" cx="282.25" r="5" fill="#ffffff"/>

<path d="M619 834L709.75 834"/>

<circle cy="338" cx="282.25" r="5" fill="#ffffff"/>

<path d="M609 482L699.75 482"/>

<circle cy="498" cx="505.0" r="5" fill="#ffffff"/>

<path d="M613 599L703.75 599"/>

<circle cy="610" cx="498.0" r="5" fill="#ffffff"/>

<path d="M627 723L717.75 723"/>

<circle cy="727" cx="500.0" r="5" fill="#ffffff"/>

</g>

</svg>