<?xml version="1.0" encoding="UTF-8" standalone="no"?>
<!DOCTYPE svg PUBLIC "-//W3C//DTD SVG 1.1//EN" "http://www.w3.org/Graphics/SVG/1.1/DTD/svg11.dtd">
<svg style="stroke:black; fill:none; stroke-width:1px; stroke-linejoin:round; text-anchor:left" xmlns="http://www.w3.org/2000/svg" font-family="Helvetica, Arial, FreeSans, Sans, sans, sans-serif" height="499px" width="1055.5px" version="1.1" xmlns:xlink="http://www.w3.org/1999/xlink" viewBox="0 0 1055.5 499">

<g>

<g>

<defs>

<marker refY="3.6" refX="1.5" markerUnits="strokeWidth" viewBox="0 0 10.5 7.2" stroke="none" id="true" markerWidth="10.5" fill="black" orient="auto" markerHeight="7.2">

<path d="M 1.5 3.6 L 0 0 L 10.5 3.6 L 0 7.2 L 1.5 3.6 Z"/>

</marker>

</defs>

<path marker-end="url(#true)" d="M431 239L519.5 244"/>

</g>

<g>

<defs>

<marker refY="3.6" refX="1.5" markerUnits="strokeWidth" viewBox="0 0 10.5 7.2" stroke="none" id="true" markerWidth="10.5" fill="black" orient="auto" markerHeight="7.2">

<path d="M 1.5 3.6 L 0 0 L 10.5 3.6 L 0 7.2 L 1.5 3.6 Z"/>

</marker>

</defs>

<path marker-end="url(#true)" d="M661.5 270L764.5 242"/>

</g>

</g>

<g>

<path d="M195 152L426 152L426 182L195 182Z" fill="#EBD9B2"/>

<path d="M195 182L426 182L426 314L195 314Z" fill="#ffffff"/>

<path d="M524.5 199L656.5 199L656.5 229L524.5 229Z" fill="#EBD9B2"/>

<path d="M524.5 229L656.5 229L656.5 281L524.5 281Z" fill="#ffffff"/>

<path d="M769.5 197L879.5 197L879.5 227L769.5 227Z" fill="#EBD9B2"/>

<path d="M769.5 227L879.5 227L879.5 295L769.5 295Z" fill="#ffffff"/>

</g>

<g>

<text y="172" x="200" stroke="none" font-size="14px" fill="black">Map with Bowtie for Illumina</text>

<text y="197" x="200" stroke="none" font-size="10px" fill="black">Select the reference genome</text>

<text y="213" x="200" stroke="none" font-size="10px" fill="black">FASTQ file</text>

<text y="244" x="200" stroke="none" font-size="10px" fill="black">output</text>

<text y="260" x="200" stroke="none" font-size="10px" fill="black">output_suppressed_reads_l</text>

<text y="276" x="200" stroke="none" font-size="10px" fill="black">output_suppressed_reads_r</text>

<text y="292" x="200" stroke="none" font-size="10px" fill="black">output_unmapped_reads_l</text>

<text y="308" x="200" stroke="none" font-size="10px" fill="black">output_unmapped_reads_r</text>

<text y="219" x="529.5" stroke="none" font-size="14px" fill="black">Filter SAM</text>

<text y="244" x="529.5" stroke="none" font-size="10px" fill="black">Select dataset to filter</text>

<text y="275" x="529.5" stroke="none" font-size="10px" fill="black">out_file1</text>

<text y="217" x="774.5" stroke="none" font-size="14px" fill="black">SAM-to-BAM</text>

<text y="242" x="774.5" stroke="none" font-size="10px" fill="black">Convert SAM file</text>

<text y="258" x="774.5" stroke="none" font-size="10px" fill="black">Using reference file</text>

<text y="289" x="774.5" stroke="none" font-size="10px" fill="black">output1</text>

<path d="M195 224L426 224"/>

<path d="M524.5 255L656.5 255"/>

<circle cy="239" cx="426.0" r="5" fill="#ffffff"/>

<path d="M769.5 269L879.5 269"/>

<circle cy="270" cx="656.5" r="5" fill="#ffffff"/>

</g>

</svg>