<?xml version="1.0" encoding="UTF-8" standalone="no"?>
<!DOCTYPE svg PUBLIC "-//W3C//DTD SVG 1.1//EN" "http://www.w3.org/Graphics/SVG/1.1/DTD/svg11.dtd">
<svg style="stroke:black; fill:none; stroke-width:1px; stroke-linejoin:round; text-anchor:left" xmlns="http://www.w3.org/2000/svg" font-family="Helvetica, Arial, FreeSans, Sans, sans, sans-serif" height="845.516677856px" width="1445.43334961px" version="1.1" xmlns:xlink="http://www.w3.org/1999/xlink" viewBox="0 0 1445.43334961 845.516677856">

<g>

<g>

<defs>

<marker refY="3.6" refX="1.5" markerUnits="strokeWidth" viewBox="0 0 10.5 7.2" stroke="none" id="true" markerWidth="10.5" fill="black" orient="auto" markerHeight="7.2">

<path d="M 1.5 3.6 L 0 0 L 10.5 3.6 L 0 7.2 L 1.5 3.6 Z"/>

</marker>

</defs>

<path marker-end="url(#true)" d="M341.517 483.833L432.767 446.267"/>

</g>

<g>

<defs>

<marker refY="3.6" refX="1.5" markerUnits="strokeWidth" viewBox="0 0 10.5 7.2" stroke="none" id="true" markerWidth="10.5" fill="black" orient="auto" markerHeight="7.2">

<path d="M 1.5 3.6 L 0 0 L 10.5 3.6 L 0 7.2 L 1.5 3.6 Z"/>

</marker>

</defs>

<path marker-end="url(#true)" d="M341.517 401.833L432.767 430.267"/>

</g>

<g>

<defs>

<marker refY="3.6" refX="1.5" markerUnits="strokeWidth" viewBox="0 0 10.5 7.2" stroke="none" id="true" markerWidth="10.5" fill="black" orient="auto" markerHeight="7.2">

<path d="M 1.5 3.6 L 0 0 L 10.5 3.6 L 0 7.2 L 1.5 3.6 Z"/>

</marker>

</defs>

<path marker-end="url(#true)" d="M346.35 308L445.6 277"/>

</g>

<g>

<defs>

<marker refY="3.6" refX="1.5" markerUnits="strokeWidth" viewBox="0 0 10.5 7.2" stroke="none" id="true" markerWidth="10.5" fill="black" orient="auto" markerHeight="7.2">

<path d="M 1.5 3.6 L 0 0 L 10.5 3.6 L 0 7.2 L 1.5 3.6 Z"/>

</marker>

</defs>

<path marker-end="url(#true)" d="M345.35 240L445.6 261"/>

</g>

<g>

<defs>

<marker refY="3.6" refX="1.5" markerUnits="strokeWidth" viewBox="0 0 10.5 7.2" stroke="none" id="true" markerWidth="10.5" fill="black" orient="auto" markerHeight="7.2">

<path d="M 1.5 3.6 L 0 0 L 10.5 3.6 L 0 7.2 L 1.5 3.6 Z"/>

</marker>

</defs>

<path marker-end="url(#true)" d="M530.767 472.267L662.267 480.833"/>

</g>

<g>

<defs>

<marker refY="3.6" refX="1.5" markerUnits="strokeWidth" viewBox="0 0 10.5 7.2" stroke="none" id="true" markerWidth="10.5" fill="black" orient="auto" markerHeight="7.2">

<path d="M 1.5 3.6 L 0 0 L 10.5 3.6 L 0 7.2 L 1.5 3.6 Z"/>

</marker>

</defs>

<path marker-end="url(#true)" d="M543.6 303L670.6 268"/>

</g>

<g>

<defs>

<marker refY="3.6" refX="1.5" markerUnits="strokeWidth" viewBox="0 0 10.5 7.2" stroke="none" id="true" markerWidth="10.5" fill="black" orient="auto" markerHeight="7.2">

<path d="M 1.5 3.6 L 0 0 L 10.5 3.6 L 0 7.2 L 1.5 3.6 Z"/>

</marker>

</defs>

<path marker-end="url(#true)" d="M878.517 506.833L691.433 590.517"/>

</g>

<g>

<defs>

<marker refY="3.6" refX="1.5" markerUnits="strokeWidth" viewBox="0 0 10.5 7.2" stroke="none" id="true" markerWidth="10.5" fill="black" orient="auto" markerHeight="7.2">

<path d="M 1.5 3.6 L 0 0 L 10.5 3.6 L 0 7.2 L 1.5 3.6 Z"/>

</marker>

</defs>

<path marker-end="url(#true)" d="M878.517 506.833L933.267 507.833"/>

</g>

<g>

<defs>

<marker refY="3.6" refX="1.5" markerUnits="strokeWidth" viewBox="0 0 10.5 7.2" stroke="none" id="true" markerWidth="10.5" fill="black" orient="auto" markerHeight="7.2">

<path d="M 1.5 3.6 L 0 0 L 10.5 3.6 L 0 7.2 L 1.5 3.6 Z"/>

</marker>

</defs>

<path marker-end="url(#true)" d="M886.85 294L928.933 296.483"/>

</g>

<g>

<defs>

<marker refY="3.6" refX="1.5" markerUnits="strokeWidth" viewBox="0 0 10.5 7.2" stroke="none" id="true" markerWidth="10.5" fill="black" orient="auto" markerHeight="7.2">

<path d="M 1.5 3.6 L 0 0 L 10.5 3.6 L 0 7.2 L 1.5 3.6 Z"/>

</marker>

</defs>

<path marker-end="url(#true)" d="M886.85 294L698.533 373.95"/>

</g>

<g>

<defs>

<marker refY="3.6" refX="1.5" markerUnits="strokeWidth" viewBox="0 0 10.5 7.2" stroke="none" id="true" markerWidth="10.5" fill="black" orient="auto" markerHeight="7.2">

<path d="M 1.5 3.6 L 0 0 L 10.5 3.6 L 0 7.2 L 1.5 3.6 Z"/>

</marker>

</defs>

<path marker-end="url(#true)" d="M1070.93 322.483L1154.43 316"/>

</g>

<g>

<defs>

<marker refY="3.6" refX="1.5" markerUnits="strokeWidth" viewBox="0 0 10.5 7.2" stroke="none" id="true" markerWidth="10.5" fill="black" orient="auto" markerHeight="7.2">

<path d="M 1.5 3.6 L 0 0 L 10.5 3.6 L 0 7.2 L 1.5 3.6 Z"/>

</marker>

</defs>

<path marker-end="url(#true)" d="M1075.27 533.833L1154.43 332"/>

</g>

</g>

<g>

<path d="M229.267 361.833L336.517 361.833L336.517 391.833L229.267 391.833Z" fill="#EBD9B2"/>

<path d="M229.267 391.833L336.517 391.833L336.517 412.833L229.267 412.833Z" fill="#ffffff"/>

<path d="M229.267 443.833L336.517 443.833L336.517 473.833L229.267 473.833Z" fill="#EBD9B2"/>

<path d="M229.267 473.833L336.517 473.833L336.517 494.833L229.267 494.833Z" fill="#ffffff"/>

<path d="M233.1 200L340.35 200L340.35 230L233.1 230Z" fill="#EBD9B2"/>

<path d="M233.1 230L340.35 230L340.35 251L233.1 251Z" fill="#ffffff"/>

<path d="M234.1 268L341.35 268L341.35 298L234.1 298Z" fill="#EBD9B2"/>

<path d="M234.1 298L341.35 298L341.35 319L234.1 319Z" fill="#ffffff"/>

<path d="M437.767 385.267L525.767 385.267L525.767 415.267L437.767 415.267Z" fill="#EBD9B2"/>

<path d="M437.767 415.267L525.767 415.267L525.767 499.267L437.767 499.267Z" fill="#ffffff"/>

<path d="M450.6 216L538.6 216L538.6 246L450.6 246Z" fill="#EBD9B2"/>

<path d="M450.6 246L538.6 246L538.6 330L450.6 330Z" fill="#ffffff"/>

<path d="M667.267 435.833L873.517 435.833L873.517 465.833L667.267 465.833Z" fill="#EBD9B2"/>

<path d="M667.267 465.833L873.517 465.833L873.517 581.833L667.267 581.833Z" fill="#ffffff"/>

<path d="M675.6 223L881.85 223L881.85 253L675.6 253Z" fill="#EBD9B2"/>

<path d="M675.6 253L881.85 253L881.85 369L675.6 369Z" fill="#ffffff"/>

<path d="M696.433 545.517L762.433 545.517L762.433 575.517L696.433 575.517Z" fill="#EBD9B2"/>

<path d="M696.433 575.517L762.433 575.517L762.433 627.517L696.433 627.517Z" fill="#ffffff"/>

<path d="M938.267 462.833L1070.27 462.833L1070.27 492.833L938.267 492.833Z" fill="#EBD9B2"/>

<path d="M938.267 492.833L1070.27 492.833L1070.27 544.833L938.267 544.833Z" fill="#ffffff"/>

<path d="M933.933 251.483L1065.93 251.483L1065.93 281.483L933.933 281.483Z" fill="#EBD9B2"/>

<path d="M933.933 281.483L1065.93 281.483L1065.93 333.483L933.933 333.483Z" fill="#ffffff"/>

<path d="M703.533 328.95L769.533 328.95L769.533 358.95L703.533 358.95Z" fill="#EBD9B2"/>

<path d="M703.533 358.95L769.533 358.95L769.533 410.95L703.533 410.95Z" fill="#ffffff"/>

<path d="M1159.43 271L1390.43 271L1390.43 301L1159.43 301Z" fill="#EBD9B2"/>

<path d="M1159.43 301L1390.43 301L1390.43 449L1159.43 449Z" fill="#ffffff"/>

</g>

<g>

<text y="381.833343506" x="234.266662598" stroke="none" font-size="14px" fill="black">Input dataset</text>

<text y="406.833343506" x="234.266662598" stroke="none" font-size="10px" fill="black">output</text>

<text y="463.833328247" x="234.266662598" stroke="none" font-size="14px" fill="black">Input dataset</text>

<text y="488.833328247" x="234.266662598" stroke="none" font-size="10px" fill="black">output</text>

<text y="220" x="238.100006104" stroke="none" font-size="14px" fill="black">Input dataset</text>

<text y="245" x="238.100006104" stroke="none" font-size="10px" fill="black">output</text>

<text y="288" x="239.100006104" stroke="none" font-size="14px" fill="black">Input dataset</text>

<text y="313" x="239.100006104" stroke="none" font-size="10px" fill="black">output</text>

<text y="405.266677856" x="442.766677856" stroke="none" font-size="14px" fill="black">Convert</text>

<text y="430.266677856" x="442.766677856" stroke="none" font-size="10px" fill="black">Select reads</text>

<text y="446.266677856" x="442.766677856" stroke="none" font-size="10px" fill="black">Select qualities</text>

<text y="477.266677856" x="442.766677856" stroke="none" font-size="10px" fill="black">out_file1</text>

<text y="493.266677856" x="442.766677856" stroke="none" font-size="10px" fill="black">out_file2</text>

<text y="236" x="455.600006104" stroke="none" font-size="14px" fill="black">Convert</text>

<text y="261" x="455.600006104" stroke="none" font-size="10px" fill="black">Select reads</text>

<text y="277" x="455.600006104" stroke="none" font-size="10px" fill="black">Select qualities</text>

<text y="308" x="455.600006104" stroke="none" font-size="10px" fill="black">out_file1</text>

<text y="324" x="455.600006104" stroke="none" font-size="10px" fill="black">out_file2</text>

<text y="455.833328247" x="672.266677856" stroke="none" font-size="14px" fill="black">Map with Bowtie for SOLiD</text>

<text y="480.833328247" x="672.266677856" stroke="none" font-size="10px" fill="black">FASTQ file</text>

<text y="511.833328247" x="672.266677856" stroke="none" font-size="10px" fill="black">output</text>

<text y="527.833328247" x="672.266677856" stroke="none" font-size="10px" fill="black">output_suppressed_reads_l</text>

<text y="543.833328247" x="672.266677856" stroke="none" font-size="10px" fill="black">output_suppressed_reads_r</text>

<text y="559.833328247" x="672.266677856" stroke="none" font-size="10px" fill="black">output_unmapped_reads_l</text>

<text y="575.833328247" x="672.266677856" stroke="none" font-size="10px" fill="black">output_unmapped_reads_r</text>

<text y="243" x="680.600006104" stroke="none" font-size="14px" fill="black">Map with Bowtie for SOLiD</text>

<text y="268" x="680.600006104" stroke="none" font-size="10px" fill="black">FASTQ file</text>

<text y="299" x="680.600006104" stroke="none" font-size="10px" fill="black">output</text>

<text y="315" x="680.600006104" stroke="none" font-size="10px" fill="black">output_suppressed_reads_l</text>

<text y="331" x="680.600006104" stroke="none" font-size="10px" fill="black">output_suppressed_reads_r</text>

<text y="347" x="680.600006104" stroke="none" font-size="10px" fill="black">output_unmapped_reads_l</text>

<text y="363" x="680.600006104" stroke="none" font-size="10px" fill="black">output_unmapped_reads_r</text>

<text y="565.516677856" x="701.433334351" stroke="none" font-size="14px" fill="black">Count</text>

<text y="590.516677856" x="701.433334351" stroke="none" font-size="10px" fill="black">from dataset</text>

<text y="621.516677856" x="701.433334351" stroke="none" font-size="10px" fill="black">out_file1</text>

<text y="482.833328247" x="943.266662598" stroke="none" font-size="14px" fill="black">Filter SAM</text>

<text y="507.833328247" x="943.266662598" stroke="none" font-size="10px" fill="black">Select dataset to filter</text>

<text y="538.833328247" x="943.266662598" stroke="none" font-size="10px" fill="black">out_file1</text>

<text y="271.483337402" x="938.933349609" stroke="none" font-size="14px" fill="black">Filter SAM</text>

<text y="296.483337402" x="938.933349609" stroke="none" font-size="10px" fill="black">Select dataset to filter</text>

<text y="327.483337402" x="938.933349609" stroke="none" font-size="10px" fill="black">out_file1</text>

<text y="348.949996948" x="708.533340454" stroke="none" font-size="14px" fill="black">Count</text>

<text y="373.949996948" x="708.533340454" stroke="none" font-size="10px" fill="black">from dataset</text>

<text y="404.949996948" x="708.533340454" stroke="none" font-size="10px" fill="black">out_file1</text>

<text y="291" x="1164.43334961" stroke="none" font-size="14px" fill="black">MACS</text>

<text y="316" x="1164.43334961" stroke="none" font-size="10px" fill="black">ChIP-Seq Tag File</text>

<text y="332" x="1164.43334961" stroke="none" font-size="10px" fill="black">ChIP-Seq Control File</text>

<text y="363" x="1164.43334961" stroke="none" font-size="10px" fill="black">output_bed_file</text>

<text y="379" x="1164.43334961" stroke="none" font-size="10px" fill="black">output_xls_to_interval_peaks_file</text>

<text y="395" x="1164.43334961" stroke="none" font-size="10px" fill="black">output_xls_to_interval_negative_peaks_file</text>

<text y="411" x="1164.43334961" stroke="none" font-size="10px" fill="black">output_treatment_wig_file</text>

<text y="427" x="1164.43334961" stroke="none" font-size="10px" fill="black">output_control_wig_file</text>

<text y="443" x="1164.43334961" stroke="none" font-size="10px" fill="black">output_extra_files</text>

<path d="M437.767 457.267L525.767 457.267"/>

<circle cy="483.833328247" cx="336.516662598" r="5" fill="#ffffff"/>

<circle cy="401.833343506" cx="336.516662598" r="5" fill="#ffffff"/>

<path d="M450.6 288L538.6 288"/>

<circle cy="308" cx="341.350006104" r="5" fill="#ffffff"/>

<circle cy="240" cx="340.350006104" r="5" fill="#ffffff"/>

<path d="M667.267 491.833L873.517 491.833"/>

<circle cy="472.266677856" cx="525.766677856" r="5" fill="#ffffff"/>

<path d="M675.6 279L881.85 279"/>

<circle cy="303" cx="538.600006104" r="5" fill="#ffffff"/>

<path d="M696.433 601.517L762.433 601.517"/>

<circle cy="506.833328247" cx="873.516677856" r="5" fill="#ffffff"/>

<path d="M938.267 518.833L1070.27 518.833"/>

<circle cy="506.833328247" cx="873.516677856" r="5" fill="#ffffff"/>

<path d="M933.933 307.483L1065.93 307.483"/>

<circle cy="294" cx="881.850006104" r="5" fill="#ffffff"/>

<path d="M703.533 384.95L769.533 384.95"/>

<circle cy="294" cx="881.850006104" r="5" fill="#ffffff"/>

<path d="M1159.43 343L1390.43 343"/>

<circle cy="322.483337402" cx="1065.93334961" r="5" fill="#ffffff"/>

<circle cy="533.833328247" cx="1070.2666626" r="5" fill="#ffffff"/>

</g>

</svg>