<?xml version="1.0" encoding="UTF-8" standalone="no"?>
<!DOCTYPE svg PUBLIC "-//W3C//DTD SVG 1.1//EN"
 "http://www.w3.org/Graphics/SVG/1.1/DTD/svg11.dtd">
<!-- Generated by graphviz version 2.26.0 (20091210.2329)
 -->
<!-- Title: t2flow_graph Pages: 1 -->
<svg width="395pt" height="180pt"
 viewBox="0.00 0.00 395.00 180.00" xmlns="http://www.w3.org/2000/svg" xmlns:xlink="http://www.w3.org/1999/xlink">
<g id="graph1" class="graph" transform="scale(1 1) rotate(0) translate(4 176)">
<title>t2flow_graph</title>
<polygon fill="white" stroke="white" points="-4,5 -4,-176 392,-176 392,5 -4,5"/>
<g id="graph2" class="cluster"><title>cluster_sources</title>
<polygon fill="none" stroke="black" stroke-dasharray="1,5" points="9,-105 9,-164 379,-164 379,-105 9,-105"/>
<text text-anchor="middle" x="53" y="-151" font-family="Helvetica,sans-Serif" font-size="10.00">Workflow Inputs</text>
</g>
<g id="graph3" class="cluster"><title>cluster_sinks</title>
<polygon fill="none" stroke="black" stroke-dasharray="1,5" points="8,-8 8,-67 296,-67 296,-8 8,-8"/>
<text text-anchor="middle" x="55.5" y="-54" font-family="Helvetica,sans-Serif" font-size="10.00">Workflow Outputs</text>
</g>
<!-- Check_template_filler -->
<g id="node1" class="node"><title>Check_template_filler</title>
<polygon fill="white" stroke="black" points="148,-96.5 38,-96.5 38,-75.5 148,-75.5 148,-96.5"/>
<text text-anchor="middle" x="93" y="-83.5" font-family="Helvetica,sans-Serif" font-size="10.00">Check_template_filler</text>
</g>
<!-- WORKFLOWINTERNALSINK_Check_template_filler_report -->
<g id="node11" class="node"><title>WORKFLOWINTERNALSINK_Check_template_filler_report</title>
<polygon fill="#bcd2ee" stroke="black" points="156,-37.5 16,-37.5 16,-16.5 156,-16.5 156,-37.5"/>
<text text-anchor="middle" x="86" y="-24.5" font-family="Helvetica,sans-Serif" font-size="10.00">Check_template_filler_report</text>
</g>
<!-- Check_template_filler&#45;&gt;WORKFLOWINTERNALSINK_Check_template_filler_report -->
<g id="edge16" class="edge"><title>Check_template_filler&#45;&gt;WORKFLOWINTERNALSINK_Check_template_filler_report</title>
<path fill="none" stroke="black" d="M91.7485,-75.452C90.8441,-67.8285 89.5922,-57.2768 88.4875,-47.966"/>
<polygon fill="black" stroke="black" points="91.9419,-47.3738 87.288,-37.8559 84.9906,-48.1986 91.9419,-47.3738"/>
</g>
<!-- Template_filler -->
<g id="node2" class="node"><title>Template_filler</title>
<polygon fill="white" stroke="black" points="247,-96.5 167,-96.5 167,-75.5 247,-75.5 247,-96.5"/>
<text text-anchor="middle" x="207" y="-83.5" font-family="Helvetica,sans-Serif" font-size="10.00">Template_filler</text>
</g>
<!-- WORKFLOWINTERNALSINK_Template_filler_report -->
<g id="node12" class="node"><title>WORKFLOWINTERNALSINK_Template_filler_report</title>
<polygon fill="#bcd2ee" stroke="black" points="270,-37.5 160,-37.5 160,-16.5 270,-16.5 270,-37.5"/>
<text text-anchor="middle" x="215" y="-24.5" font-family="Helvetica,sans-Serif" font-size="10.00">Template_filler_report</text>
</g>
<!-- Template_filler&#45;&gt;WORKFLOWINTERNALSINK_Template_filler_report -->
<g id="edge18" class="edge"><title>Template_filler&#45;&gt;WORKFLOWINTERNALSINK_Template_filler_report</title>
<path fill="none" stroke="black" d="M208.43,-75.452C209.464,-67.8285 210.895,-57.2768 212.157,-47.966"/>
<polygon fill="black" stroke="black" points="215.653,-48.2355 213.528,-37.8559 208.716,-47.2949 215.653,-48.2355"/>
</g>
<!-- WORKFLOWINTERNALSOURCECONTROL -->
<g id="node4" class="node"><title>WORKFLOWINTERNALSOURCECONTROL</title>
<polygon fill="#ff4040" stroke="black" points="364,-131 357,-120.5 371,-120.5 364,-131"/>
</g>
<!-- WORKFLOWINTERNALSOURCE_votable -->
<g id="node5" class="node"><title>WORKFLOWINTERNALSOURCE_votable</title>
<polygon fill="skyblue" stroke="black" points="191,-134.5 143,-134.5 143,-113.5 191,-113.5 191,-134.5"/>
<text text-anchor="middle" x="167" y="-121.5" font-family="Helvetica,sans-Serif" font-size="10.00">votable</text>
</g>
<!-- WORKFLOWINTERNALSOURCE_votable&#45;&gt;Check_template_filler -->
<g id="edge4" class="edge"><title>WORKFLOWINTERNALSOURCE_votable&#45;&gt;Check_template_filler</title>
<path fill="none" stroke="black" d="M152.532,-113.358C148.283,-110.462 143.552,-107.451 139,-105 136.273,-103.532 133.408,-102.102 130.497,-100.729"/>
<polygon fill="black" stroke="black" points="131.713,-97.439 121.155,-96.5585 128.86,-103.831 131.713,-97.439"/>
</g>
<!-- WORKFLOWINTERNALSOURCE_votable&#45;&gt;Template_filler -->
<g id="edge12" class="edge"><title>WORKFLOWINTERNALSOURCE_votable&#45;&gt;Template_filler</title>
<path fill="none" stroke="black" d="M178.355,-113.212C181.507,-110.219 185.013,-106.888 188.46,-103.613"/>
<polygon fill="black" stroke="black" points="190.915,-106.108 195.755,-96.6831 186.094,-101.033 190.915,-106.108"/>
</g>
<!-- WORKFLOWINTERNALSOURCE_vocabulary -->
<g id="node6" class="node"><title>WORKFLOWINTERNALSOURCE_vocabulary</title>
<polygon fill="skyblue" stroke="black" points="81,-134.5 17,-134.5 17,-113.5 81,-113.5 81,-134.5"/>
<text text-anchor="middle" x="49" y="-121.5" font-family="Helvetica,sans-Serif" font-size="10.00">vocabulary</text>
</g>
<!-- WORKFLOWINTERNALSOURCE_vocabulary&#45;&gt;Check_template_filler -->
<g id="edge6" class="edge"><title>WORKFLOWINTERNALSOURCE_vocabulary&#45;&gt;Check_template_filler</title>
<path fill="none" stroke="black" d="M61.4909,-113.212C65.0511,-110.138 69.0226,-106.708 72.9137,-103.347"/>
<polygon fill="black" stroke="black" points="75.3495,-105.868 80.6301,-96.6831 70.7742,-100.57 75.3495,-105.868"/>
</g>
<!-- WORKFLOWINTERNALSOURCE_template -->
<g id="node7" class="node"><title>WORKFLOWINTERNALSOURCE_template</title>
<polygon fill="skyblue" stroke="black" points="139,-134.5 85,-134.5 85,-113.5 139,-113.5 139,-134.5"/>
<text text-anchor="middle" x="112" y="-121.5" font-family="Helvetica,sans-Serif" font-size="10.00">template</text>
</g>
<!-- WORKFLOWINTERNALSOURCE_template&#45;&gt;Check_template_filler -->
<g id="edge8" class="edge"><title>WORKFLOWINTERNALSOURCE_template&#45;&gt;Check_template_filler</title>
<path fill="none" stroke="black" d="M106.606,-113.212C105.433,-110.866 104.156,-108.313 102.871,-105.741"/>
<polygon fill="black" stroke="black" points="105.944,-104.062 98.3415,-96.6831 99.6832,-107.193 105.944,-104.062"/>
</g>
<!-- WORKFLOWINTERNALSOURCE_template&#45;&gt;Template_filler -->
<g id="edge14" class="edge"><title>WORKFLOWINTERNALSOURCE_template&#45;&gt;Template_filler</title>
<path fill="none" stroke="black" d="M127.654,-113.311C132.439,-110.347 137.811,-107.313 143,-105 147.463,-103.011 152.192,-101.162 156.977,-99.4607"/>
<polygon fill="black" stroke="black" points="158.436,-102.664 166.814,-96.1783 156.22,-96.0236 158.436,-102.664"/>
</g>
<!-- WORKFLOWINTERNALSOURCE_columnNameWithConfigFilePath -->
<g id="node8" class="node"><title>WORKFLOWINTERNALSOURCE_columnNameWithConfigFilePath</title>
<polygon fill="skyblue" stroke="black" points="353,-134.5 195,-134.5 195,-113.5 353,-113.5 353,-134.5"/>
<text text-anchor="middle" x="274" y="-121.5" font-family="Helvetica,sans-Serif" font-size="10.00">columnNameWithConfigFilePath</text>
</g>
<!-- WORKFLOWINTERNALSOURCE_columnNameWithConfigFilePath&#45;&gt;Template_filler -->
<g id="edge10" class="edge"><title>WORKFLOWINTERNALSOURCE_columnNameWithConfigFilePath&#45;&gt;Template_filler</title>
<path fill="none" stroke="black" d="M255.337,-113.415C248.948,-109.791 241.657,-105.656 234.709,-101.715"/>
<polygon fill="black" stroke="black" points="235.988,-98.4174 225.563,-96.5284 232.535,-104.506 235.988,-98.4174"/>
</g>
<!-- WORKFLOWINTERNALSINKCONTROL -->
<g id="node10" class="node"><title>WORKFLOWINTERNALSINKCONTROL</title>
<polygon fill="#66cd00" stroke="black" points="281,-20 288,-30.5 274,-30.5 281,-20"/>
</g>
</g>
</svg>
