<?xml version="1.0" encoding="UTF-8" standalone="no"?>
<!DOCTYPE svg PUBLIC "-//W3C//DTD SVG 1.1//EN"
 "http://www.w3.org/Graphics/SVG/1.1/DTD/svg11.dtd">
<!-- Generated by graphviz version 2.26.0 (20091210.2329)
 -->
<!-- Title: t2flow_graph Pages: 1 -->
<svg width="174pt" height="294pt"
 viewBox="0.00 0.00 174.00 294.00" xmlns="http://www.w3.org/2000/svg" xmlns:xlink="http://www.w3.org/1999/xlink">
<g id="graph1" class="graph" transform="scale(1 1) rotate(0) translate(4 290)">
<title>t2flow_graph</title>
<polygon fill="white" stroke="white" points="-4,5 -4,-290 171,-290 171,5 -4,5"/>
<g id="graph2" class="cluster"><title>cluster_sources</title>
<polygon fill="none" stroke="black" stroke-dasharray="1,5" points="25,-219 25,-278 153,-278 153,-219 25,-219"/>
<text text-anchor="middle" x="69" y="-265" font-family="Helvetica,sans-Serif" font-size="10.00">Workflow Inputs</text>
</g>
<g id="graph3" class="cluster"><title>cluster_sinks</title>
<polygon fill="none" stroke="black" stroke-dasharray="1,5" points="20,-8 20,-67 158,-67 158,-8 20,-8"/>
<text text-anchor="middle" x="67.5" y="-54" font-family="Helvetica,sans-Serif" font-size="10.00">Workflow Outputs</text>
</g>
<!-- pdfToText -->
<g id="node1" class="node"><title>pdfToText</title>
<polygon fill="#a2cd5a" stroke="black" points="110,-134.5 50,-134.5 50,-113.5 110,-113.5 110,-134.5"/>
<text text-anchor="middle" x="80" y="-121.5" font-family="Helvetica,sans-Serif" font-size="10.00">pdfToText</text>
</g>
<!-- pdfToText_output -->
<g id="node3" class="node"><title>pdfToText_output</title>
<polygon fill="#ab92ea" stroke="black" points="126,-96.5 34,-96.5 34,-75.5 126,-75.5 126,-96.5"/>
<text text-anchor="middle" x="80" y="-83.5" font-family="Helvetica,sans-Serif" font-size="10.00">pdfToText_output</text>
</g>
<!-- pdfToText&#45;&gt;pdfToText_output -->
<g id="edge8" class="edge"><title>pdfToText&#45;&gt;pdfToText_output</title>
<path fill="none" stroke="black" d="M80,-113.212C80,-111.19 80,-109.013 80,-106.804"/>
<polygon fill="black" stroke="black" points="83.5001,-106.683 80,-96.6831 76.5001,-106.683 83.5001,-106.683"/>
</g>
<!-- pdfToText_input -->
<g id="node2" class="node"><title>pdfToText_input</title>
<polygon fill="#ab92ea" stroke="black" points="123,-172.5 37,-172.5 37,-151.5 123,-151.5 123,-172.5"/>
<text text-anchor="middle" x="80" y="-159.5" font-family="Helvetica,sans-Serif" font-size="10.00">pdfToText_input</text>
</g>
<!-- pdfToText_input&#45;&gt;pdfToText -->
<g id="edge4" class="edge"><title>pdfToText_input&#45;&gt;pdfToText</title>
<path fill="none" stroke="black" d="M80,-151.212C80,-149.19 80,-147.013 80,-144.804"/>
<polygon fill="black" stroke="black" points="83.5001,-144.683 80,-134.683 76.5001,-144.683 83.5001,-144.683"/>
</g>
<!-- WORKFLOWINTERNALSINK_textFileContentsOut -->
<g id="node10" class="node"><title>WORKFLOWINTERNALSINK_textFileContentsOut</title>
<polygon fill="#bcd2ee" stroke="black" points="132,-37.5 28,-37.5 28,-16.5 132,-16.5 132,-37.5"/>
<text text-anchor="middle" x="80" y="-24.5" font-family="Helvetica,sans-Serif" font-size="10.00">textFileContentsOut</text>
</g>
<!-- pdfToText_output&#45;&gt;WORKFLOWINTERNALSINK_textFileContentsOut -->
<g id="edge12" class="edge"><title>pdfToText_output&#45;&gt;WORKFLOWINTERNALSINK_textFileContentsOut</title>
<path fill="none" stroke="black" d="M80,-75.452C80,-67.8285 80,-57.2768 80,-47.966"/>
<polygon fill="black" stroke="black" points="83.5001,-47.8558 80,-37.8559 76.5001,-47.8559 83.5001,-47.8558"/>
</g>
<!-- Encode_Byte_Array_to_Base_64 -->
<g id="node4" class="node"><title>Encode_Byte_Array_to_Base_64</title>
<polygon fill="#d15fee" stroke="black" points="160,-210.5 8.52651e-14,-210.5 0,-189.5 160,-189.5 160,-210.5"/>
<text text-anchor="middle" x="80" y="-197.5" font-family="Helvetica,sans-Serif" font-size="10.00">Encode_Byte_Array_to_Base_64</text>
</g>
<!-- Encode_Byte_Array_to_Base_64&#45;&gt;pdfToText_input -->
<g id="edge6" class="edge"><title>Encode_Byte_Array_to_Base_64&#45;&gt;pdfToText_input</title>
<path fill="none" stroke="black" d="M80,-189.212C80,-187.19 80,-185.013 80,-182.804"/>
<polygon fill="black" stroke="black" points="83.5001,-182.683 80,-172.683 76.5001,-182.683 83.5001,-182.683"/>
</g>
<!-- WORKFLOWINTERNALSOURCECONTROL -->
<g id="node6" class="node"><title>WORKFLOWINTERNALSOURCECONTROL</title>
<polygon fill="#ff4040" stroke="black" points="138,-245 131,-234.5 145,-234.5 138,-245"/>
</g>
<!-- WORKFLOWINTERNALSOURCE_pdfFileContentsIn -->
<g id="node7" class="node"><title>WORKFLOWINTERNALSOURCE_pdfFileContentsIn</title>
<polygon fill="skyblue" stroke="black" points="127,-248.5 33,-248.5 33,-227.5 127,-227.5 127,-248.5"/>
<text text-anchor="middle" x="80" y="-235.5" font-family="Helvetica,sans-Serif" font-size="10.00">pdfFileContentsIn</text>
</g>
<!-- WORKFLOWINTERNALSOURCE_pdfFileContentsIn&#45;&gt;Encode_Byte_Array_to_Base_64 -->
<g id="edge10" class="edge"><title>WORKFLOWINTERNALSOURCE_pdfFileContentsIn&#45;&gt;Encode_Byte_Array_to_Base_64</title>
<path fill="none" stroke="black" d="M80,-227.212C80,-225.19 80,-223.013 80,-220.804"/>
<polygon fill="black" stroke="black" points="83.5001,-220.683 80,-210.683 76.5001,-220.683 83.5001,-220.683"/>
</g>
<!-- WORKFLOWINTERNALSINKCONTROL -->
<g id="node9" class="node"><title>WORKFLOWINTERNALSINKCONTROL</title>
<polygon fill="#66cd00" stroke="black" points="143,-20 150,-30.5 136,-30.5 143,-20"/>
</g>
</g>
</svg>
