<?xml version="1.0" encoding="UTF-8" standalone="no"?>
<!DOCTYPE svg PUBLIC "-//W3C//DTD SVG 1.1//EN"
 "http://www.w3.org/Graphics/SVG/1.1/DTD/svg11.dtd">
<!-- Generated by graphviz version 2.26.0 (20091210.2329)
 -->
<!-- Title: t2flow_graph Pages: 1 -->
<svg width="470pt" height="214pt"
 viewBox="0.00 0.00 470.00 214.00" xmlns="http://www.w3.org/2000/svg" xmlns:xlink="http://www.w3.org/1999/xlink">
<g id="graph1" class="graph" transform="scale(1 1) rotate(0) translate(4 210)">
<title>t2flow_graph</title>
<polygon fill="white" stroke="white" points="-4,5 -4,-210 467,-210 467,5 -4,5"/>
<g id="graph2" class="cluster"><title>cluster_sources</title>
<polygon fill="none" stroke="black" stroke-dasharray="1,5" points="308,-147 308,-198 396,-198 396,-147 308,-147"/>
<text text-anchor="middle" x="352" y="-185" font-family="Helvetica,sans-Serif" font-size="10.00">Workflow Inputs</text>
</g>
<g id="graph3" class="cluster"><title>cluster_sinks</title>
<polygon fill="none" stroke="black" stroke-dasharray="1,5" points="8,-8 8,-67 454,-67 454,-8 8,-8"/>
<text text-anchor="middle" x="55.5" y="-54" font-family="Helvetica,sans-Serif" font-size="10.00">Workflow Outputs</text>
</g>
<!-- max -->
<g id="node1" class="node"><title>max</title>
<polygon fill="#a2cd5a" stroke="black" points="50,-96.5 16,-96.5 16,-75.5 50,-75.5 50,-96.5"/>
<text text-anchor="middle" x="33" y="-83.5" font-family="Helvetica,sans-Serif" font-size="10.00">max</text>
</g>
<!-- WORKFLOWINTERNALSINK_max -->
<g id="node16" class="node"><title>WORKFLOWINTERNALSINK_max</title>
<polygon fill="#bcd2ee" stroke="black" points="50,-37.5 16,-37.5 16,-16.5 50,-16.5 50,-37.5"/>
<text text-anchor="middle" x="33" y="-24.5" font-family="Helvetica,sans-Serif" font-size="10.00">max</text>
</g>
<!-- max&#45;&gt;WORKFLOWINTERNALSINK_max -->
<g id="edge40" class="edge"><title>max&#45;&gt;WORKFLOWINTERNALSINK_max</title>
<path fill="none" stroke="black" d="M33,-75.452C33,-67.8285 33,-57.2768 33,-47.966"/>
<polygon fill="black" stroke="black" points="36.5001,-47.8558 33,-37.8559 29.5001,-47.8559 36.5001,-47.8558"/>
</g>
<!-- maxdex -->
<g id="node2" class="node"><title>maxdex</title>
<polygon fill="#a2cd5a" stroke="black" points="104,-96.5 54,-96.5 54,-75.5 104,-75.5 104,-96.5"/>
<text text-anchor="middle" x="79" y="-83.5" font-family="Helvetica,sans-Serif" font-size="10.00">maxdex</text>
</g>
<!-- WORKFLOWINTERNALSINK_maxdex -->
<g id="node17" class="node"><title>WORKFLOWINTERNALSINK_maxdex</title>
<polygon fill="#bcd2ee" stroke="black" points="104,-37.5 54,-37.5 54,-16.5 104,-16.5 104,-37.5"/>
<text text-anchor="middle" x="79" y="-24.5" font-family="Helvetica,sans-Serif" font-size="10.00">maxdex</text>
</g>
<!-- maxdex&#45;&gt;WORKFLOWINTERNALSINK_maxdex -->
<g id="edge42" class="edge"><title>maxdex&#45;&gt;WORKFLOWINTERNALSINK_maxdex</title>
<path fill="none" stroke="black" d="M79,-75.452C79,-67.8285 79,-57.2768 79,-47.966"/>
<polygon fill="black" stroke="black" points="82.5001,-47.8558 79,-37.8559 75.5001,-47.8559 82.5001,-47.8558"/>
</g>
<!-- min -->
<g id="node3" class="node"><title>min</title>
<polygon fill="#a2cd5a" stroke="black" points="140,-96.5 108,-96.5 108,-75.5 140,-75.5 140,-96.5"/>
<text text-anchor="middle" x="124" y="-83.5" font-family="Helvetica,sans-Serif" font-size="10.00">min</text>
</g>
<!-- WORKFLOWINTERNALSINK_min -->
<g id="node18" class="node"><title>WORKFLOWINTERNALSINK_min</title>
<polygon fill="#bcd2ee" stroke="black" points="140,-37.5 108,-37.5 108,-16.5 140,-16.5 140,-37.5"/>
<text text-anchor="middle" x="124" y="-24.5" font-family="Helvetica,sans-Serif" font-size="10.00">min</text>
</g>
<!-- min&#45;&gt;WORKFLOWINTERNALSINK_min -->
<g id="edge44" class="edge"><title>min&#45;&gt;WORKFLOWINTERNALSINK_min</title>
<path fill="none" stroke="black" d="M124,-75.452C124,-67.8285 124,-57.2768 124,-47.966"/>
<polygon fill="black" stroke="black" points="127.5,-47.8558 124,-37.8559 120.5,-47.8559 127.5,-47.8558"/>
</g>
<!-- mindex -->
<g id="node4" class="node"><title>mindex</title>
<polygon fill="#a2cd5a" stroke="black" points="192,-96.5 144,-96.5 144,-75.5 192,-75.5 192,-96.5"/>
<text text-anchor="middle" x="168" y="-83.5" font-family="Helvetica,sans-Serif" font-size="10.00">mindex</text>
</g>
<!-- WORKFLOWINTERNALSINK_mindex -->
<g id="node19" class="node"><title>WORKFLOWINTERNALSINK_mindex</title>
<polygon fill="#bcd2ee" stroke="black" points="192,-37.5 144,-37.5 144,-16.5 192,-16.5 192,-37.5"/>
<text text-anchor="middle" x="168" y="-24.5" font-family="Helvetica,sans-Serif" font-size="10.00">mindex</text>
</g>
<!-- mindex&#45;&gt;WORKFLOWINTERNALSINK_mindex -->
<g id="edge46" class="edge"><title>mindex&#45;&gt;WORKFLOWINTERNALSINK_mindex</title>
<path fill="none" stroke="black" d="M168,-75.452C168,-67.8285 168,-57.2768 168,-47.966"/>
<polygon fill="black" stroke="black" points="171.5,-47.8558 168,-37.8559 164.5,-47.8559 171.5,-47.8558"/>
</g>
<!-- mean -->
<g id="node5" class="node"><title>mean</title>
<polygon fill="#a2cd5a" stroke="black" points="236,-96.5 196,-96.5 196,-75.5 236,-75.5 236,-96.5"/>
<text text-anchor="middle" x="216" y="-83.5" font-family="Helvetica,sans-Serif" font-size="10.00">mean</text>
</g>
<!-- WORKFLOWINTERNALSINK_mean -->
<g id="node20" class="node"><title>WORKFLOWINTERNALSINK_mean</title>
<polygon fill="#bcd2ee" stroke="black" points="236,-37.5 196,-37.5 196,-16.5 236,-16.5 236,-37.5"/>
<text text-anchor="middle" x="216" y="-24.5" font-family="Helvetica,sans-Serif" font-size="10.00">mean</text>
</g>
<!-- mean&#45;&gt;WORKFLOWINTERNALSINK_mean -->
<g id="edge48" class="edge"><title>mean&#45;&gt;WORKFLOWINTERNALSINK_mean</title>
<path fill="none" stroke="black" d="M216,-75.452C216,-67.8285 216,-57.2768 216,-47.966"/>
<polygon fill="black" stroke="black" points="219.5,-47.8558 216,-37.8559 212.5,-47.8559 219.5,-47.8558"/>
</g>
<!-- sum -->
<g id="node6" class="node"><title>sum</title>
<polygon fill="#a2cd5a" stroke="black" points="274,-96.5 240,-96.5 240,-75.5 274,-75.5 274,-96.5"/>
<text text-anchor="middle" x="257" y="-83.5" font-family="Helvetica,sans-Serif" font-size="10.00">sum</text>
</g>
<!-- WORKFLOWINTERNALSINK_sum -->
<g id="node21" class="node"><title>WORKFLOWINTERNALSINK_sum</title>
<polygon fill="#bcd2ee" stroke="black" points="274,-37.5 240,-37.5 240,-16.5 274,-16.5 274,-37.5"/>
<text text-anchor="middle" x="257" y="-24.5" font-family="Helvetica,sans-Serif" font-size="10.00">sum</text>
</g>
<!-- sum&#45;&gt;WORKFLOWINTERNALSINK_sum -->
<g id="edge50" class="edge"><title>sum&#45;&gt;WORKFLOWINTERNALSINK_sum</title>
<path fill="none" stroke="black" d="M257,-75.452C257,-67.8285 257,-57.2768 257,-47.966"/>
<polygon fill="black" stroke="black" points="260.5,-47.8558 257,-37.8559 253.5,-47.8559 260.5,-47.8558"/>
</g>
<!-- median -->
<g id="node7" class="node"><title>median</title>
<polygon fill="#a2cd5a" stroke="black" points="326,-96.5 278,-96.5 278,-75.5 326,-75.5 326,-96.5"/>
<text text-anchor="middle" x="302" y="-83.5" font-family="Helvetica,sans-Serif" font-size="10.00">median</text>
</g>
<!-- WORKFLOWINTERNALSINK_median -->
<g id="node22" class="node"><title>WORKFLOWINTERNALSINK_median</title>
<polygon fill="#bcd2ee" stroke="black" points="326,-37.5 278,-37.5 278,-16.5 326,-16.5 326,-37.5"/>
<text text-anchor="middle" x="302" y="-24.5" font-family="Helvetica,sans-Serif" font-size="10.00">median</text>
</g>
<!-- median&#45;&gt;WORKFLOWINTERNALSINK_median -->
<g id="edge52" class="edge"><title>median&#45;&gt;WORKFLOWINTERNALSINK_median</title>
<path fill="none" stroke="black" d="M302,-75.452C302,-67.8285 302,-57.2768 302,-47.966"/>
<polygon fill="black" stroke="black" points="305.5,-47.8558 302,-37.8559 298.5,-47.8559 305.5,-47.8558"/>
</g>
<!-- standard_deviation -->
<g id="node8" class="node"><title>standard_deviation</title>
<polygon fill="#a2cd5a" stroke="black" points="428,-96.5 330,-96.5 330,-75.5 428,-75.5 428,-96.5"/>
<text text-anchor="middle" x="379" y="-83.5" font-family="Helvetica,sans-Serif" font-size="10.00">standard_deviation</text>
</g>
<!-- WORKFLOWINTERNALSINK_standard_deviation -->
<g id="node23" class="node"><title>WORKFLOWINTERNALSINK_standard_deviation</title>
<polygon fill="#bcd2ee" stroke="black" points="428,-37.5 330,-37.5 330,-16.5 428,-16.5 428,-37.5"/>
<text text-anchor="middle" x="379" y="-24.5" font-family="Helvetica,sans-Serif" font-size="10.00">standard_deviation</text>
</g>
<!-- standard_deviation&#45;&gt;WORKFLOWINTERNALSINK_standard_deviation -->
<g id="edge54" class="edge"><title>standard_deviation&#45;&gt;WORKFLOWINTERNALSINK_standard_deviation</title>
<path fill="none" stroke="black" d="M379,-75.452C379,-67.8285 379,-57.2768 379,-47.966"/>
<polygon fill="black" stroke="black" points="382.5,-47.8558 379,-37.8559 375.5,-47.8559 382.5,-47.8558"/>
</g>
<!-- list -->
<g id="node9" class="node"><title>list</title>
<polygon fill="#b0c4de" stroke="black" points="183,-172.5 155,-172.5 155,-151.5 183,-151.5 183,-172.5"/>
<text text-anchor="middle" x="169" y="-159.5" font-family="Helvetica,sans-Serif" font-size="10.00">list</text>
</g>
<!-- Split_string_into_string_list_by_regular_expression -->
<g id="node10" class="node"><title>Split_string_into_string_list_by_regular_expression</title>
<polygon fill="#d15fee" stroke="black" points="310,-134.5 74,-134.5 74,-113.5 310,-113.5 310,-134.5"/>
<text text-anchor="middle" x="192" y="-121.5" font-family="Helvetica,sans-Serif" font-size="10.00">Split_string_into_string_list_by_regular_expression</text>
</g>
<!-- list&#45;&gt;Split_string_into_string_list_by_regular_expression -->
<g id="edge36" class="edge"><title>list&#45;&gt;Split_string_into_string_list_by_regular_expression</title>
<path fill="none" stroke="black" d="M175.529,-151.212C176.999,-148.785 178.602,-146.136 180.213,-143.475"/>
<polygon fill="black" stroke="black" points="183.35,-145.05 185.534,-134.683 177.362,-141.426 183.35,-145.05"/>
</g>
<!-- Split_string_into_string_list_by_regular_expression&#45;&gt;max -->
<g id="edge4" class="edge"><title>Split_string_into_string_list_by_regular_expression&#45;&gt;max</title>
<path fill="none" stroke="black" d="M115.258,-113.44C97.4103,-109.995 78.4695,-105.565 59.6493,-99.5114"/>
<polygon fill="black" stroke="black" points="60.7206,-96.1791 50.1265,-96.3009 58.4843,-102.812 60.7206,-96.1791"/>
</g>
<!-- Split_string_into_string_list_by_regular_expression&#45;&gt;max -->
<g id="edge6" class="edge"><title>Split_string_into_string_list_by_regular_expression&#45;&gt;max</title>
<path fill="none" stroke="black" d="M119.101,-113.44C100.983,-109.917 81.6016,-105.362 59.8352,-98.0137"/>
<polygon fill="black" stroke="black" points="60.9524,-94.6965 50.3575,-94.688 58.6346,-101.302 60.9524,-94.6965"/>
</g>
<!-- Split_string_into_string_list_by_regular_expression&#45;&gt;maxdex -->
<g id="edge8" class="edge"><title>Split_string_into_string_list_by_regular_expression&#45;&gt;maxdex</title>
<path fill="none" stroke="black" d="M156.116,-113.492C143.403,-109.521 128.817,-104.816 113.948,-99.7362"/>
<polygon fill="black" stroke="black" points="114.748,-96.3094 104.153,-96.3478 112.459,-102.925 114.748,-96.3094"/>
</g>
<!-- Split_string_into_string_list_by_regular_expression&#45;&gt;maxdex -->
<g id="edge10" class="edge"><title>Split_string_into_string_list_by_regular_expression&#45;&gt;maxdex</title>
<path fill="none" stroke="black" d="M159.772,-113.492C146.868,-109.369 131.695,-104.457 113.722,-98.2439"/>
<polygon fill="black" stroke="black" points="114.66,-94.8642 104.065,-94.8739 112.353,-101.473 114.66,-94.8642"/>
</g>
<!-- Split_string_into_string_list_by_regular_expression&#45;&gt;min -->
<g id="edge12" class="edge"><title>Split_string_into_string_list_by_regular_expression&#45;&gt;min</title>
<path fill="none" stroke="black" d="M171.697,-113.415C164.597,-109.524 156.542,-105.042 149.098,-100.846"/>
<polygon fill="black" stroke="black" points="150.538,-97.6386 140.114,-95.7474 147.084,-103.727 150.538,-97.6386"/>
</g>
<!-- Split_string_into_string_list_by_regular_expression&#45;&gt;min -->
<g id="edge14" class="edge"><title>Split_string_into_string_list_by_regular_expression&#45;&gt;min</title>
<path fill="none" stroke="black" d="M174.419,-113.415C166.611,-108.964 157.288,-103.74 148.792,-99.0538"/>
<polygon fill="black" stroke="black" points="150.46,-95.977 140.009,-94.241 147.097,-102.116 150.46,-95.977"/>
</g>
<!-- Split_string_into_string_list_by_regular_expression&#45;&gt;mindex -->
<g id="edge16" class="edge"><title>Split_string_into_string_list_by_regular_expression&#45;&gt;mindex</title>
<path fill="none" stroke="black" d="M183.819,-113.212C182.149,-110.704 180.371,-107.959 178.632,-105.209"/>
<polygon fill="black" stroke="black" points="181.606,-103.364 173.383,-96.6831 175.645,-107.034 181.606,-103.364"/>
</g>
<!-- Split_string_into_string_list_by_regular_expression&#45;&gt;mindex -->
<g id="edge18" class="edge"><title>Split_string_into_string_list_by_regular_expression&#45;&gt;mindex</title>
<path fill="none" stroke="black" d="M186.555,-113.212C185.056,-110.704 183.367,-107.959 181.632,-105.209"/>
<polygon fill="black" stroke="black" points="184.484,-103.175 176.111,-96.6831 178.609,-106.979 184.484,-103.175"/>
</g>
<!-- Split_string_into_string_list_by_regular_expression&#45;&gt;mean -->
<g id="edge20" class="edge"><title>Split_string_into_string_list_by_regular_expression&#45;&gt;mean</title>
<path fill="none" stroke="black" d="M197.445,-113.212C198.944,-110.704 200.633,-107.959 202.368,-105.209"/>
<polygon fill="black" stroke="black" points="205.391,-106.979 207.889,-96.6831 199.516,-103.175 205.391,-106.979"/>
</g>
<!-- Split_string_into_string_list_by_regular_expression&#45;&gt;mean -->
<g id="edge22" class="edge"><title>Split_string_into_string_list_by_regular_expression&#45;&gt;mean</title>
<path fill="none" stroke="black" d="M200.181,-113.212C201.851,-110.704 203.629,-107.959 205.368,-105.209"/>
<polygon fill="black" stroke="black" points="208.355,-107.034 210.617,-96.6831 202.394,-103.364 208.355,-107.034"/>
</g>
<!-- Split_string_into_string_list_by_regular_expression&#45;&gt;sum -->
<g id="edge24" class="edge"><title>Split_string_into_string_list_by_regular_expression&#45;&gt;sum</title>
<path fill="none" stroke="black" d="M208.745,-113.415C215.471,-109.4 223.379,-104.757 230.827,-100.447"/>
<polygon fill="black" stroke="black" points="232.967,-103.254 239.893,-95.2366 229.478,-97.1852 232.967,-103.254"/>
</g>
<!-- Split_string_into_string_list_by_regular_expression&#45;&gt;sum -->
<g id="edge26" class="edge"><title>Split_string_into_string_list_by_regular_expression&#45;&gt;sum</title>
<path fill="none" stroke="black" d="M211.467,-113.415C217.793,-109.791 224.906,-105.656 231.598,-101.715"/>
<polygon fill="black" stroke="black" points="233.532,-104.638 240.35,-96.5284 229.963,-98.6163 233.532,-104.638"/>
</g>
<!-- Split_string_into_string_list_by_regular_expression&#45;&gt;median -->
<g id="edge28" class="edge"><title>Split_string_into_string_list_by_regular_expression&#45;&gt;median</title>
<path fill="none" stroke="black" d="M223.826,-113.389C236.241,-109.328 250.76,-104.508 267.924,-98.4052"/>
<polygon fill="black" stroke="black" points="269.508,-101.555 277.736,-94.8797 267.141,-94.9676 269.508,-101.555"/>
</g>
<!-- Split_string_into_string_list_by_regular_expression&#45;&gt;median -->
<g id="edge30" class="edge"><title>Split_string_into_string_list_by_regular_expression&#45;&gt;median</title>
<path fill="none" stroke="black" d="M227.491,-113.389C239.836,-109.441 253.944,-104.775 268.318,-99.7225"/>
<polygon fill="black" stroke="black" points="269.539,-103.003 277.785,-96.3501 267.191,-96.4085 269.539,-103.003"/>
</g>
<!-- Split_string_into_string_list_by_regular_expression&#45;&gt;standard_deviation -->
<g id="edge32" class="edge"><title>Split_string_into_string_list_by_regular_expression&#45;&gt;standard_deviation</title>
<path fill="none" stroke="black" d="M242.701,-113.492C264.754,-109.029 291.128,-103.706 320.011,-97.8112"/>
<polygon fill="black" stroke="black" points="320.804,-101.222 329.9,-95.7904 319.402,-94.3635 320.804,-101.222"/>
</g>
<!-- Split_string_into_string_list_by_regular_expression&#45;&gt;standard_deviation -->
<g id="edge34" class="edge"><title>Split_string_into_string_list_by_regular_expression&#45;&gt;standard_deviation</title>
<path fill="none" stroke="black" d="M246.333,-113.492C268.425,-109.087 294.436,-103.845 320.32,-98.5672"/>
<polygon fill="black" stroke="black" points="321.128,-101.975 330.226,-96.5443 319.728,-95.1161 321.128,-101.975"/>
</g>
<!-- separator -->
<g id="node11" class="node"><title>separator</title>
<polygon fill="#b0c4de" stroke="black" points="243,-172.5 187,-172.5 187,-151.5 243,-151.5 243,-172.5"/>
<text text-anchor="middle" x="215" y="-159.5" font-family="Helvetica,sans-Serif" font-size="10.00">separator</text>
</g>
<!-- separator&#45;&gt;Split_string_into_string_list_by_regular_expression -->
<g id="edge38" class="edge"><title>separator&#45;&gt;Split_string_into_string_list_by_regular_expression</title>
<path fill="none" stroke="black" d="M208.471,-151.212C207.001,-148.785 205.398,-146.136 203.787,-143.475"/>
<polygon fill="black" stroke="black" points="206.638,-141.426 198.466,-134.683 200.65,-145.05 206.638,-141.426"/>
</g>
<!-- WORKFLOWINTERNALSOURCECONTROL -->
<g id="node13" class="node"><title>WORKFLOWINTERNALSOURCECONTROL</title>
<polygon fill="#ff4040" stroke="black" points="352,-169 345,-158.5 359,-158.5 352,-169"/>
</g>
<!-- WORKFLOWINTERNALSINKCONTROL -->
<g id="node15" class="node"><title>WORKFLOWINTERNALSINKCONTROL</title>
<polygon fill="#66cd00" stroke="black" points="439,-20 446,-30.5 432,-30.5 439,-20"/>
</g>
</g>
</svg>
