<?xml version="1.0" encoding="UTF-8" standalone="no"?>
<!DOCTYPE svg PUBLIC "-//W3C//DTD SVG 1.1//EN"
 "http://www.w3.org/Graphics/SVG/1.1/DTD/svg11.dtd">
<!-- Generated by graphviz version 2.26.0 (20091210.2329)
 -->
<!-- Title: t2flow_graph Pages: 1 -->
<svg width="288pt" height="180pt"
 viewBox="0.00 0.00 288.00 180.00" xmlns="http://www.w3.org/2000/svg" xmlns:xlink="http://www.w3.org/1999/xlink">
<g id="graph1" class="graph" transform="scale(1 1) rotate(0) translate(4 176)">
<title>t2flow_graph</title>
<polygon fill="white" stroke="white" points="-4,5 -4,-176 285,-176 285,5 -4,5"/>
<g id="graph2" class="cluster"><title>cluster_sources</title>
<polygon fill="none" stroke="black" stroke-dasharray="1,5" points="103,-105 103,-164 201,-164 201,-105 103,-105"/>
<text text-anchor="middle" x="147" y="-151" font-family="Helvetica,sans-Serif" font-size="10.00">Workflow Inputs</text>
</g>
<g id="graph3" class="cluster"><title>cluster_sinks</title>
<polygon fill="none" stroke="black" stroke-dasharray="1,5" points="8,-8 8,-67 272,-67 272,-8 8,-8"/>
<text text-anchor="middle" x="55.5" y="-54" font-family="Helvetica,sans-Serif" font-size="10.00">Workflow Outputs</text>
</g>
<!-- Tool -->
<g id="node1" class="node"><title>Tool</title>
<polygon fill="#f28c55" stroke="black" points="160,-96.5 126,-96.5 126,-75.5 160,-75.5 160,-96.5"/>
<text text-anchor="middle" x="143" y="-83.5" font-family="Helvetica,sans-Serif" font-size="10.00">Tool</text>
</g>
<!-- WORKFLOWINTERNALSINK_resultdata -->
<g id="node7" class="node"><title>WORKFLOWINTERNALSINK_resultdata</title>
<polygon fill="#bcd2ee" stroke="black" points="246,-37.5 188,-37.5 188,-16.5 246,-16.5 246,-37.5"/>
<text text-anchor="middle" x="217" y="-24.5" font-family="Helvetica,sans-Serif" font-size="10.00">resultdata</text>
</g>
<!-- Tool&#45;&gt;WORKFLOWINTERNALSINK_resultdata -->
<g id="edge6" class="edge"><title>Tool&#45;&gt;WORKFLOWINTERNALSINK_resultdata</title>
<path fill="none" stroke="black" d="M160.316,-79.9925C168.016,-76.8311 176.921,-72.4656 184,-67 191.516,-61.1974 198.44,-53.3866 203.984,-46.2073"/>
<polygon fill="black" stroke="black" points="207.157,-47.7954 210.21,-37.6499 201.497,-43.6773 207.157,-47.7954"/>
</g>
<!-- WORKFLOWINTERNALSINK_Tool_STDOUT -->
<g id="node8" class="node"><title>WORKFLOWINTERNALSINK_Tool_STDOUT</title>
<polygon fill="#bcd2ee" stroke="black" points="184,-37.5 102,-37.5 102,-16.5 184,-16.5 184,-37.5"/>
<text text-anchor="middle" x="143" y="-24.5" font-family="Helvetica,sans-Serif" font-size="10.00">Tool_STDOUT</text>
</g>
<!-- Tool&#45;&gt;WORKFLOWINTERNALSINK_Tool_STDOUT -->
<g id="edge8" class="edge"><title>Tool&#45;&gt;WORKFLOWINTERNALSINK_Tool_STDOUT</title>
<path fill="none" stroke="black" d="M143,-75.452C143,-67.8285 143,-57.2768 143,-47.966"/>
<polygon fill="black" stroke="black" points="146.5,-47.8558 143,-37.8559 139.5,-47.8559 146.5,-47.8558"/>
</g>
<!-- WORKFLOWINTERNALSINK_Tool_STDERR -->
<g id="node9" class="node"><title>WORKFLOWINTERNALSINK_Tool_STDERR</title>
<polygon fill="#bcd2ee" stroke="black" points="98,-37.5 16,-37.5 16,-16.5 98,-16.5 98,-37.5"/>
<text text-anchor="middle" x="57" y="-24.5" font-family="Helvetica,sans-Serif" font-size="10.00">Tool_STDERR</text>
</g>
<!-- Tool&#45;&gt;WORKFLOWINTERNALSINK_Tool_STDERR -->
<g id="edge10" class="edge"><title>Tool&#45;&gt;WORKFLOWINTERNALSINK_Tool_STDERR</title>
<path fill="none" stroke="black" d="M125.651,-79.3009C118.114,-76.0564 109.348,-71.8175 102,-67 92.2968,-60.6386 82.5479,-52.2736 74.6172,-44.8384"/>
<polygon fill="black" stroke="black" points="76.9832,-42.2576 67.3616,-37.8219 72.117,-47.2896 76.9832,-42.2576"/>
</g>
<!-- WORKFLOWINTERNALSOURCECONTROL -->
<g id="node3" class="node"><title>WORKFLOWINTERNALSOURCECONTROL</title>
<polygon fill="#ff4040" stroke="black" points="186,-131 179,-120.5 193,-120.5 186,-131"/>
</g>
<!-- WORKFLOWINTERNALSOURCE_mapbTable -->
<g id="node4" class="node"><title>WORKFLOWINTERNALSOURCE_mapbTable</title>
<polygon fill="skyblue" stroke="black" points="175,-134.5 111,-134.5 111,-113.5 175,-113.5 175,-134.5"/>
<text text-anchor="middle" x="143" y="-121.5" font-family="Helvetica,sans-Serif" font-size="10.00">mapbTable</text>
</g>
<!-- WORKFLOWINTERNALSOURCE_mapbTable&#45;&gt;Tool -->
<g id="edge4" class="edge"><title>WORKFLOWINTERNALSOURCE_mapbTable&#45;&gt;Tool</title>
<path fill="none" stroke="black" d="M143,-113.212C143,-111.19 143,-109.013 143,-106.804"/>
<polygon fill="black" stroke="black" points="146.5,-106.683 143,-96.6831 139.5,-106.683 146.5,-106.683"/>
</g>
<!-- WORKFLOWINTERNALSINKCONTROL -->
<g id="node6" class="node"><title>WORKFLOWINTERNALSINKCONTROL</title>
<polygon fill="#66cd00" stroke="black" points="257,-20 264,-30.5 250,-30.5 257,-20"/>
</g>
</g>
</svg>
