<?xml version="1.0" encoding="UTF-8" standalone="no"?>
<!DOCTYPE svg PUBLIC "-//W3C//DTD SVG 1.1//EN"
 "http://www.w3.org/Graphics/SVG/1.1/DTD/svg11.dtd">
<!-- Generated by graphviz version 2.26.0 (20091210.2329)
 -->
<!-- Title: t2flow_graph Pages: 1 -->
<svg width="332pt" height="180pt"
 viewBox="0.00 0.00 332.00 180.00" xmlns="http://www.w3.org/2000/svg" xmlns:xlink="http://www.w3.org/1999/xlink">
<g id="graph1" class="graph" transform="scale(1 1) rotate(0) translate(4 176)">
<title>t2flow_graph</title>
<polygon fill="white" stroke="white" points="-4,5 -4,-176 329,-176 329,5 -4,5"/>
<g id="graph2" class="cluster"><title>cluster_sources</title>
<polygon fill="none" stroke="black" stroke-dasharray="1,5" points="135,-105 135,-164 223,-164 223,-105 135,-105"/>
<text text-anchor="middle" x="179" y="-151" font-family="Helvetica,sans-Serif" font-size="10.00">Workflow Inputs</text>
</g>
<g id="graph3" class="cluster"><title>cluster_sinks</title>
<polygon fill="none" stroke="black" stroke-dasharray="1,5" points="8,-8 8,-67 316,-67 316,-8 8,-8"/>
<text text-anchor="middle" x="55.5" y="-54" font-family="Helvetica,sans-Serif" font-size="10.00">Workflow Outputs</text>
</g>
<!-- devinthedevil -->
<g id="node1" class="node"><title>devinthedevil</title>
<polygon fill="#fafad2" stroke="black" points="207,-96.5 133,-96.5 133,-75.5 207,-75.5 207,-96.5"/>
<text text-anchor="middle" x="170" y="-83.5" font-family="Helvetica,sans-Serif" font-size="10.00">devinthedevil</text>
</g>
<!-- WORKFLOWINTERNALSINK_output -->
<g id="node7" class="node"><title>WORKFLOWINTERNALSINK_output</title>
<polygon fill="#bcd2ee" stroke="black" points="290,-37.5 246,-37.5 246,-16.5 290,-16.5 290,-37.5"/>
<text text-anchor="middle" x="268" y="-24.5" font-family="Helvetica,sans-Serif" font-size="10.00">output</text>
</g>
<!-- devinthedevil&#45;&gt;WORKFLOWINTERNALSINK_output -->
<g id="edge6" class="edge"><title>devinthedevil&#45;&gt;WORKFLOWINTERNALSINK_output</title>
<path fill="none" stroke="black" d="M207.147,-78.7556C221.62,-75.4101 236.134,-71.243 242,-67 249.013,-61.9273 254.633,-54.3308 258.828,-47.1162"/>
<polygon fill="black" stroke="black" points="262.169,-48.2766 263.664,-37.7877 255.954,-45.0551 262.169,-48.2766"/>
</g>
<!-- WORKFLOWINTERNALSINK_energy_levels -->
<g id="node8" class="node"><title>WORKFLOWINTERNALSINK_energy_levels</title>
<polygon fill="#bcd2ee" stroke="black" points="242,-37.5 166,-37.5 166,-16.5 242,-16.5 242,-37.5"/>
<text text-anchor="middle" x="204" y="-24.5" font-family="Helvetica,sans-Serif" font-size="10.00">energy_levels</text>
</g>
<!-- devinthedevil&#45;&gt;WORKFLOWINTERNALSINK_energy_levels -->
<g id="edge8" class="edge"><title>devinthedevil&#45;&gt;WORKFLOWINTERNALSINK_energy_levels</title>
<path fill="none" stroke="black" d="M176.079,-75.452C180.663,-67.4971 187.084,-56.3537 192.613,-46.759"/>
<polygon fill="black" stroke="black" points="195.784,-48.2677 197.744,-37.8559 189.719,-44.7726 195.784,-48.2677"/>
</g>
<!-- WORKFLOWINTERNALSINK_avalues -->
<g id="node9" class="node"><title>WORKFLOWINTERNALSINK_avalues</title>
<polygon fill="#bcd2ee" stroke="black" points="162,-37.5 112,-37.5 112,-16.5 162,-16.5 162,-37.5"/>
<text text-anchor="middle" x="137" y="-24.5" font-family="Helvetica,sans-Serif" font-size="10.00">avalues</text>
</g>
<!-- devinthedevil&#45;&gt;WORKFLOWINTERNALSINK_avalues -->
<g id="edge10" class="edge"><title>devinthedevil&#45;&gt;WORKFLOWINTERNALSINK_avalues</title>
<path fill="none" stroke="black" d="M164.1,-75.452C159.651,-67.4971 153.418,-56.3537 148.052,-46.759"/>
<polygon fill="black" stroke="black" points="151.008,-44.8749 143.072,-37.8559 144.899,-48.292 151.008,-44.8749"/>
</g>
<!-- WORKFLOWINTERNALSINK_level_populations -->
<g id="node10" class="node"><title>WORKFLOWINTERNALSINK_level_populations</title>
<polygon fill="#bcd2ee" stroke="black" points="108,-37.5 16,-37.5 16,-16.5 108,-16.5 108,-37.5"/>
<text text-anchor="middle" x="62" y="-24.5" font-family="Helvetica,sans-Serif" font-size="10.00">level_populations</text>
</g>
<!-- devinthedevil&#45;&gt;WORKFLOWINTERNALSINK_level_populations -->
<g id="edge12" class="edge"><title>devinthedevil&#45;&gt;WORKFLOWINTERNALSINK_level_populations</title>
<path fill="none" stroke="black" d="M132.971,-76.0716C125.818,-73.5467 118.525,-70.5277 112,-67 100.77,-60.9281 89.553,-52.254 80.5977,-44.5345"/>
<polygon fill="black" stroke="black" points="82.8638,-41.8657 73.0737,-37.8154 78.2012,-47.0869 82.8638,-41.8657"/>
</g>
<!-- WORKFLOWINTERNALSOURCECONTROL -->
<g id="node3" class="node"><title>WORKFLOWINTERNALSOURCECONTROL</title>
<polygon fill="#ff4040" stroke="black" points="204,-131 197,-120.5 211,-120.5 204,-131"/>
</g>
<!-- WORKFLOWINTERNALSOURCE_input -->
<g id="node4" class="node"><title>WORKFLOWINTERNALSOURCE_input</title>
<polygon fill="skyblue" stroke="black" points="189,-134.5 151,-134.5 151,-113.5 189,-113.5 189,-134.5"/>
<text text-anchor="middle" x="170" y="-121.5" font-family="Helvetica,sans-Serif" font-size="10.00">input</text>
</g>
<!-- WORKFLOWINTERNALSOURCE_input&#45;&gt;devinthedevil -->
<g id="edge4" class="edge"><title>WORKFLOWINTERNALSOURCE_input&#45;&gt;devinthedevil</title>
<path fill="none" stroke="black" d="M170,-113.212C170,-111.19 170,-109.013 170,-106.804"/>
<polygon fill="black" stroke="black" points="173.5,-106.683 170,-96.6831 166.5,-106.683 173.5,-106.683"/>
</g>
<!-- WORKFLOWINTERNALSINKCONTROL -->
<g id="node6" class="node"><title>WORKFLOWINTERNALSINKCONTROL</title>
<polygon fill="#66cd00" stroke="black" points="301,-20 308,-30.5 294,-30.5 301,-20"/>
</g>
</g>
</svg>
