<?xml version="1.0" encoding="UTF-8" standalone="no"?>
<!DOCTYPE svg PUBLIC "-//W3C//DTD SVG 1.1//EN"
 "http://www.w3.org/Graphics/SVG/1.1/DTD/svg11.dtd">
<!-- Generated by graphviz version 2.26.0 (20091210.2329)
 -->
<!-- Title: t2flow_graph Pages: 1 -->
<svg width="271pt" height="294pt"
 viewBox="0.00 0.00 271.00 294.00" xmlns="http://www.w3.org/2000/svg" xmlns:xlink="http://www.w3.org/1999/xlink">
<g id="graph1" class="graph" transform="scale(1 1) rotate(0) translate(4 290)">
<title>t2flow_graph</title>
<polygon fill="white" stroke="white" points="-4,5 -4,-290 268,-290 268,5 -4,5"/>
<g id="graph2" class="cluster"><title>cluster_sources</title>
<polygon fill="none" stroke="black" stroke-dasharray="1,5" points="70,-219 70,-278 180,-278 180,-219 70,-219"/>
<text text-anchor="middle" x="114" y="-265" font-family="Helvetica,sans-Serif" font-size="10.00">Workflow Inputs</text>
</g>
<g id="graph3" class="cluster"><title>cluster_sinks</title>
<polygon fill="none" stroke="black" stroke-dasharray="1,5" points="37,-8 37,-67 255,-67 255,-8 37,-8"/>
<text text-anchor="middle" x="84.5" y="-54" font-family="Helvetica,sans-Serif" font-size="10.00">Workflow Outputs</text>
</g>
<!-- XPath_From_Text -->
<g id="node1" class="node"><title>XPath_From_Text</title>
<polygon fill="#d15fee" stroke="black" points="98,-172.5 2,-172.5 2,-151.5 98,-151.5 98,-172.5"/>
<text text-anchor="middle" x="50" y="-159.5" font-family="Helvetica,sans-Serif" font-size="10.00">XPath_From_Text</text>
</g>
<!-- Flatten_List -->
<g id="node6" class="node"><title>Flatten_List</title>
<polygon fill="#d15fee" stroke="black" points="91,-134.5 23,-134.5 23,-113.5 91,-113.5 91,-134.5"/>
<text text-anchor="middle" x="57" y="-121.5" font-family="Helvetica,sans-Serif" font-size="10.00">Flatten_List</text>
</g>
<!-- XPath_From_Text&#45;&gt;Flatten_List -->
<g id="edge14" class="edge"><title>XPath_From_Text&#45;&gt;Flatten_List</title>
<path fill="none" stroke="black" d="M51.9872,-151.212C52.3747,-149.109 52.7929,-146.839 53.2166,-144.538"/>
<polygon fill="black" stroke="black" points="56.6624,-145.152 55.0321,-134.683 49.7783,-143.884 56.6624,-145.152"/>
</g>
<!-- SesameXML -->
<g id="node2" class="node"><title>SesameXML</title>
<polygon fill="#a2cd5a" stroke="black" points="152,-210.5 80,-210.5 80,-189.5 152,-189.5 152,-210.5"/>
<text text-anchor="middle" x="116" y="-197.5" font-family="Helvetica,sans-Serif" font-size="10.00">SesameXML</text>
</g>
<!-- SesameXML&#45;&gt;XPath_From_Text -->
<g id="edge4" class="edge"><title>SesameXML&#45;&gt;XPath_From_Text</title>
<path fill="none" stroke="black" d="M97.6153,-189.415C91.3218,-185.791 84.1396,-181.656 77.2951,-177.715"/>
<polygon fill="black" stroke="black" points="78.6987,-174.485 68.2861,-172.528 75.2059,-180.551 78.6987,-174.485"/>
</g>
<!-- XPath_From_Text_2 -->
<g id="node4" class="node"><title>XPath_From_Text_2</title>
<polygon fill="#d15fee" stroke="black" points="258,-172.5 152,-172.5 152,-151.5 258,-151.5 258,-172.5"/>
<text text-anchor="middle" x="205" y="-159.5" font-family="Helvetica,sans-Serif" font-size="10.00">XPath_From_Text_2</text>
</g>
<!-- SesameXML&#45;&gt;XPath_From_Text_2 -->
<g id="edge12" class="edge"><title>SesameXML&#45;&gt;XPath_From_Text_2</title>
<path fill="none" stroke="black" d="M140.791,-189.415C150.146,-185.421 160.957,-180.805 171.009,-176.513"/>
<polygon fill="black" stroke="black" points="172.519,-179.674 180.341,-172.528 169.77,-173.236 172.519,-179.674"/>
</g>
<!-- WORKFLOWINTERNALSINK_sesame -->
<g id="node15" class="node"><title>WORKFLOWINTERNALSINK_sesame</title>
<polygon fill="#bcd2ee" stroke="black" points="123,-37.5 73,-37.5 73,-16.5 123,-16.5 123,-37.5"/>
<text text-anchor="middle" x="98" y="-24.5" font-family="Helvetica,sans-Serif" font-size="10.00">sesame</text>
</g>
<!-- SesameXML&#45;&gt;WORKFLOWINTERNALSINK_sesame -->
<g id="edge24" class="edge"><title>SesameXML&#45;&gt;WORKFLOWINTERNALSINK_sesame</title>
<path fill="none" stroke="black" d="M114.901,-189.438C111.996,-161.515 104.07,-85.3363 100.193,-48.0808"/>
<polygon fill="black" stroke="black" points="103.647,-47.449 99.1305,-37.8649 96.6842,-48.1735 103.647,-47.449"/>
</g>
<!-- xpath_for_RA -->
<g id="node3" class="node"><title>xpath_for_RA</title>
<polygon fill="#b0c4de" stroke="black" points="76,-210.5 4.26326e-14,-210.5 0,-189.5 76,-189.5 76,-210.5"/>
<text text-anchor="middle" x="38" y="-197.5" font-family="Helvetica,sans-Serif" font-size="10.00">xpath_for_RA</text>
</g>
<!-- xpath_for_RA&#45;&gt;XPath_From_Text -->
<g id="edge6" class="edge"><title>xpath_for_RA&#45;&gt;XPath_From_Text</title>
<path fill="none" stroke="black" d="M41.4066,-189.212C42.0965,-187.028 42.843,-184.664 43.5981,-182.273"/>
<polygon fill="black" stroke="black" points="46.9526,-183.273 46.6264,-172.683 40.2775,-181.165 46.9526,-183.273"/>
</g>
<!-- Flatten_List_2 -->
<g id="node7" class="node"><title>Flatten_List_2</title>
<polygon fill="#d15fee" stroke="black" points="252,-134.5 174,-134.5 174,-113.5 252,-113.5 252,-134.5"/>
<text text-anchor="middle" x="213" y="-121.5" font-family="Helvetica,sans-Serif" font-size="10.00">Flatten_List_2</text>
</g>
<!-- XPath_From_Text_2&#45;&gt;Flatten_List_2 -->
<g id="edge16" class="edge"><title>XPath_From_Text_2&#45;&gt;Flatten_List_2</title>
<path fill="none" stroke="black" d="M207.271,-151.212C207.714,-149.109 208.192,-146.839 208.676,-144.538"/>
<polygon fill="black" stroke="black" points="212.116,-145.19 210.751,-134.683 205.266,-143.748 212.116,-145.19"/>
</g>
<!-- xpath_for_DEC -->
<g id="node5" class="node"><title>xpath_for_DEC</title>
<polygon fill="#b0c4de" stroke="black" points="247,-210.5 163,-210.5 163,-189.5 247,-189.5 247,-210.5"/>
<text text-anchor="middle" x="205" y="-197.5" font-family="Helvetica,sans-Serif" font-size="10.00">xpath_for_DEC</text>
</g>
<!-- xpath_for_DEC&#45;&gt;XPath_From_Text_2 -->
<g id="edge10" class="edge"><title>xpath_for_DEC&#45;&gt;XPath_From_Text_2</title>
<path fill="none" stroke="black" d="M205,-189.212C205,-187.19 205,-185.013 205,-182.804"/>
<polygon fill="black" stroke="black" points="208.5,-182.683 205,-172.683 201.5,-182.683 208.5,-182.683"/>
</g>
<!-- VII_237 -->
<g id="node8" class="node"><title>VII_237</title>
<polygon fill="#7aafff" stroke="black" points="175,-96.5 125,-96.5 125,-75.5 175,-75.5 175,-96.5"/>
<text text-anchor="middle" x="150" y="-83.5" font-family="Helvetica,sans-Serif" font-size="10.00">VII_237</text>
</g>
<!-- Flatten_List&#45;&gt;VII_237 -->
<g id="edge18" class="edge"><title>Flatten_List&#45;&gt;VII_237</title>
<path fill="none" stroke="black" d="M82.9057,-113.415C92.9461,-109.312 104.592,-104.554 115.335,-100.164"/>
<polygon fill="black" stroke="black" points="116.942,-103.289 124.875,-96.2661 114.294,-96.8087 116.942,-103.289"/>
</g>
<!-- WORKFLOWINTERNALSINK_ra -->
<g id="node16" class="node"><title>WORKFLOWINTERNALSINK_ra</title>
<polygon fill="#bcd2ee" stroke="black" points="69,-37.5 45,-37.5 45,-16.5 69,-16.5 69,-37.5"/>
<text text-anchor="middle" x="57" y="-24.5" font-family="Helvetica,sans-Serif" font-size="10.00">ra</text>
</g>
<!-- Flatten_List&#45;&gt;WORKFLOWINTERNALSINK_ra -->
<g id="edge26" class="edge"><title>Flatten_List&#45;&gt;WORKFLOWINTERNALSINK_ra</title>
<path fill="none" stroke="black" d="M57,-113.249C57,-97.4334 57,-67.6032 57,-47.513"/>
<polygon fill="black" stroke="black" points="60.5001,-47.5046 57,-37.5046 53.5001,-47.5047 60.5001,-47.5046"/>
</g>
<!-- Flatten_List_2&#45;&gt;VII_237 -->
<g id="edge20" class="edge"><title>Flatten_List_2&#45;&gt;VII_237</title>
<path fill="none" stroke="black" d="M195.451,-113.415C189.444,-109.791 182.588,-105.656 176.054,-101.715"/>
<polygon fill="black" stroke="black" points="177.826,-98.6963 167.455,-96.5284 174.21,-104.69 177.826,-98.6963"/>
</g>
<!-- WORKFLOWINTERNALSINK_dec -->
<g id="node17" class="node"><title>WORKFLOWINTERNALSINK_dec</title>
<polygon fill="#bcd2ee" stroke="black" points="229,-37.5 197,-37.5 197,-16.5 229,-16.5 229,-37.5"/>
<text text-anchor="middle" x="213" y="-24.5" font-family="Helvetica,sans-Serif" font-size="10.00">dec</text>
</g>
<!-- Flatten_List_2&#45;&gt;WORKFLOWINTERNALSINK_dec -->
<g id="edge28" class="edge"><title>Flatten_List_2&#45;&gt;WORKFLOWINTERNALSINK_dec</title>
<path fill="none" stroke="black" d="M213,-113.249C213,-97.4334 213,-67.6032 213,-47.513"/>
<polygon fill="black" stroke="black" points="216.5,-47.5046 213,-37.5046 209.5,-47.5047 216.5,-47.5046"/>
</g>
<!-- WORKFLOWINTERNALSINK_leda_output -->
<g id="node18" class="node"><title>WORKFLOWINTERNALSINK_leda_output</title>
<polygon fill="#bcd2ee" stroke="black" points="193,-37.5 127,-37.5 127,-16.5 193,-16.5 193,-37.5"/>
<text text-anchor="middle" x="160" y="-24.5" font-family="Helvetica,sans-Serif" font-size="10.00">leda_output</text>
</g>
<!-- VII_237&#45;&gt;WORKFLOWINTERNALSINK_leda_output -->
<g id="edge30" class="edge"><title>VII_237&#45;&gt;WORKFLOWINTERNALSINK_leda_output</title>
<path fill="none" stroke="black" d="M151.788,-75.452C153.08,-67.8285 154.868,-57.2768 156.446,-47.966"/>
<polygon fill="black" stroke="black" points="159.94,-48.3002 158.16,-37.8559 153.038,-47.1303 159.94,-48.3002"/>
</g>
<!-- SR_value -->
<g id="node9" class="node"><title>SR_value</title>
<polygon fill="#b0c4de" stroke="black" points="170,-134.5 112,-134.5 112,-113.5 170,-113.5 170,-134.5"/>
<text text-anchor="middle" x="141" y="-121.5" font-family="Helvetica,sans-Serif" font-size="10.00">SR_value</text>
</g>
<!-- SR_value&#45;&gt;VII_237 -->
<g id="edge22" class="edge"><title>SR_value&#45;&gt;VII_237</title>
<path fill="none" stroke="black" d="M143.555,-113.212C144.053,-111.109 144.591,-108.839 145.136,-106.538"/>
<polygon fill="black" stroke="black" points="148.571,-107.221 147.47,-96.6831 141.759,-105.607 148.571,-107.221"/>
</g>
<!-- WORKFLOWINTERNALSOURCECONTROL -->
<g id="node11" class="node"><title>WORKFLOWINTERNALSOURCECONTROL</title>
<polygon fill="#ff4040" stroke="black" points="165,-245 158,-234.5 172,-234.5 165,-245"/>
</g>
<!-- WORKFLOWINTERNALSOURCE_list_cig_name -->
<g id="node12" class="node"><title>WORKFLOWINTERNALSOURCE_list_cig_name</title>
<polygon fill="skyblue" stroke="black" points="154,-248.5 78,-248.5 78,-227.5 154,-227.5 154,-248.5"/>
<text text-anchor="middle" x="116" y="-235.5" font-family="Helvetica,sans-Serif" font-size="10.00">list_cig_name</text>
</g>
<!-- WORKFLOWINTERNALSOURCE_list_cig_name&#45;&gt;SesameXML -->
<g id="edge8" class="edge"><title>WORKFLOWINTERNALSOURCE_list_cig_name&#45;&gt;SesameXML</title>
<path fill="none" stroke="black" d="M116,-227.212C116,-225.19 116,-223.013 116,-220.804"/>
<polygon fill="black" stroke="black" points="119.5,-220.683 116,-210.683 112.5,-220.683 119.5,-220.683"/>
</g>
<!-- WORKFLOWINTERNALSINKCONTROL -->
<g id="node14" class="node"><title>WORKFLOWINTERNALSINKCONTROL</title>
<polygon fill="#66cd00" stroke="black" points="240,-20 247,-30.5 233,-30.5 240,-20"/>
</g>
</g>
</svg>
