<?xml version="1.0" encoding="UTF-8" standalone="no"?>
<!DOCTYPE svg PUBLIC "-//W3C//DTD SVG 1.1//EN"
 "http://www.w3.org/Graphics/SVG/1.1/DTD/svg11.dtd">
<!-- Generated by graphviz version 2.26.0 (20091210.2329)
 -->
<!-- Title: t2flow_graph Pages: 1 -->
<svg width="546pt" height="522pt"
 viewBox="0.00 0.00 546.00 522.00" xmlns="http://www.w3.org/2000/svg" xmlns:xlink="http://www.w3.org/1999/xlink">
<g id="graph1" class="graph" transform="scale(1 1) rotate(0) translate(4 518)">
<title>t2flow_graph</title>
<polygon fill="white" stroke="white" points="-4,5 -4,-518 543,-518 543,5 -4,5"/>
<g id="graph2" class="cluster"><title>cluster_sources</title>
<polygon fill="none" stroke="black" stroke-dasharray="1,5" points="232,-447 232,-506 530,-506 530,-447 232,-447"/>
<text text-anchor="middle" x="276" y="-493" font-family="Helvetica,sans-Serif" font-size="10.00">Workflow Inputs</text>
</g>
<g id="graph3" class="cluster"><title>cluster_sinks</title>
<polygon fill="none" stroke="black" stroke-dasharray="1,5" points="255,-8 255,-67 491,-67 491,-8 255,-8"/>
<text text-anchor="middle" x="302.5" y="-54" font-family="Helvetica,sans-Serif" font-size="10.00">Workflow Outputs</text>
</g>
<!-- tjoin -->
<g id="node1" class="node"><title>tjoin</title>
<polygon fill="white" stroke="black" points="419,-96.5 385,-96.5 385,-75.5 419,-75.5 419,-96.5"/>
<text text-anchor="middle" x="402" y="-83.5" font-family="Helvetica,sans-Serif" font-size="10.00">tjoin</text>
</g>
<!-- WORKFLOWINTERNALSINK_VotableWithnewColumns -->
<g id="node26" class="node"><title>WORKFLOWINTERNALSINK_VotableWithnewColumns</title>
<polygon fill="#bcd2ee" stroke="black" points="465,-37.5 339,-37.5 339,-16.5 465,-16.5 465,-37.5"/>
<text text-anchor="middle" x="402" y="-24.5" font-family="Helvetica,sans-Serif" font-size="10.00">VotableWithnewColumns</text>
</g>
<!-- tjoin&#45;&gt;WORKFLOWINTERNALSINK_VotableWithnewColumns -->
<g id="edge44" class="edge"><title>tjoin&#45;&gt;WORKFLOWINTERNALSINK_VotableWithnewColumns</title>
<path fill="none" stroke="black" d="M402,-75.452C402,-67.8285 402,-57.2768 402,-47.966"/>
<polygon fill="black" stroke="black" points="405.5,-47.8558 402,-37.8559 398.5,-47.8559 405.5,-47.8558"/>
</g>
<!-- Read_File -->
<g id="node2" class="node"><title>Read_File</title>
<polygon fill="#deb887" stroke="black" points="256,-400.5 196,-400.5 196,-379.5 256,-379.5 256,-400.5"/>
<text text-anchor="middle" x="226" y="-387.5" font-family="Helvetica,sans-Serif" font-size="10.00">Read_File</text>
</g>
<!-- transform_BuDS_or_BDBS_GalfitFile -->
<g id="node4" class="node"><title>transform_BuDS_or_BDBS_GalfitFile</title>
<polygon fill="#deb887" stroke="black" points="253,-362.5 73,-362.5 73,-341.5 253,-341.5 253,-362.5"/>
<text text-anchor="middle" x="163" y="-349.5" font-family="Helvetica,sans-Serif" font-size="10.00">transform_BuDS_or_BDBS_GalfitFile</text>
</g>
<!-- Read_File&#45;&gt;transform_BuDS_or_BDBS_GalfitFile -->
<g id="edge14" class="edge"><title>Read_File&#45;&gt;transform_BuDS_or_BDBS_GalfitFile</title>
<path fill="none" stroke="black" d="M208.451,-379.415C202.444,-375.791 195.588,-371.656 189.054,-367.715"/>
<polygon fill="black" stroke="black" points="190.826,-364.696 180.455,-362.528 187.21,-370.69 190.826,-364.696"/>
</g>
<!-- List_from_column -->
<g id="node3" class="node"><title>List_from_column</title>
<polygon fill="white" stroke="black" points="357,-438.5 263,-438.5 263,-417.5 357,-417.5 357,-438.5"/>
<text text-anchor="middle" x="310" y="-425.5" font-family="Helvetica,sans-Serif" font-size="10.00">List_from_column</text>
</g>
<!-- List_from_column&#45;&gt;Read_File -->
<g id="edge8" class="edge"><title>List_from_column&#45;&gt;Read_File</title>
<path fill="none" stroke="black" d="M286.601,-417.415C277.954,-413.503 267.989,-408.995 258.669,-404.779"/>
<polygon fill="black" stroke="black" points="259.827,-401.461 249.273,-400.528 256.942,-407.839 259.827,-401.461"/>
</g>
<!-- Format_conversion -->
<g id="node5" class="node"><title>Format_conversion</title>
<polygon fill="white" stroke="black" points="327,-324.5 227,-324.5 227,-303.5 327,-303.5 327,-324.5"/>
<text text-anchor="middle" x="277" y="-311.5" font-family="Helvetica,sans-Serif" font-size="10.00">Format_conversion</text>
</g>
<!-- transform_BuDS_or_BDBS_GalfitFile&#45;&gt;Format_conversion -->
<g id="edge16" class="edge"><title>transform_BuDS_or_BDBS_GalfitFile&#45;&gt;Format_conversion</title>
<path fill="none" stroke="black" d="M194.755,-341.415C207.479,-337.174 222.305,-332.232 235.838,-327.721"/>
<polygon fill="black" stroke="black" points="237.035,-331.011 245.415,-324.528 234.821,-324.37 237.035,-331.011"/>
</g>
<!-- MakeDoubleTypes -->
<g id="node18" class="node"><title>MakeDoubleTypes</title>
<polygon fill="#deb887" stroke="black" points="321,-286.5 223,-286.5 223,-265.5 321,-265.5 321,-286.5"/>
<text text-anchor="middle" x="272" y="-273.5" font-family="Helvetica,sans-Serif" font-size="10.00">MakeDoubleTypes</text>
</g>
<!-- Format_conversion&#45;&gt;MakeDoubleTypes -->
<g id="edge42" class="edge"><title>Format_conversion&#45;&gt;MakeDoubleTypes</title>
<path fill="none" stroke="black" d="M275.581,-303.212C275.314,-301.19 275.028,-299.013 274.737,-296.804"/>
<polygon fill="black" stroke="black" points="278.18,-296.141 273.406,-286.683 271.24,-297.054 278.18,-296.141"/>
</g>
<!-- csv_value -->
<g id="node6" class="node"><title>csv_value</title>
<polygon fill="#b0c4de" stroke="black" points="317,-362.5 257,-362.5 257,-341.5 317,-341.5 317,-362.5"/>
<text text-anchor="middle" x="287" y="-349.5" font-family="Helvetica,sans-Serif" font-size="10.00">csv_value</text>
</g>
<!-- csv_value&#45;&gt;Format_conversion -->
<g id="edge18" class="edge"><title>csv_value&#45;&gt;Format_conversion</title>
<path fill="none" stroke="black" d="M284.161,-341.212C283.608,-339.109 283.01,-336.839 282.405,-334.538"/>
<polygon fill="black" stroke="black" points="285.741,-333.463 279.811,-324.683 278.972,-335.245 285.741,-333.463"/>
</g>
<!-- votable_value -->
<g id="node7" class="node"><title>votable_value</title>
<polygon fill="#b0c4de" stroke="black" points="397,-362.5 321,-362.5 321,-341.5 397,-341.5 397,-362.5"/>
<text text-anchor="middle" x="359" y="-349.5" font-family="Helvetica,sans-Serif" font-size="10.00">votable_value</text>
</g>
<!-- votable_value&#45;&gt;Format_conversion -->
<g id="edge20" class="edge"><title>votable_value&#45;&gt;Format_conversion</title>
<path fill="none" stroke="black" d="M336.158,-341.415C327.717,-337.503 317.989,-332.995 308.891,-328.779"/>
<polygon fill="black" stroke="black" points="310.264,-325.557 299.719,-324.528 307.321,-331.909 310.264,-325.557"/>
</g>
<!-- Add_Column -->
<g id="node8" class="node"><title>Add_Column</title>
<polygon fill="white" stroke="black" points="127,-210.5 55,-210.5 55,-189.5 127,-189.5 127,-210.5"/>
<text text-anchor="middle" x="91" y="-197.5" font-family="Helvetica,sans-Serif" font-size="10.00">Add_Column</text>
</g>
<!-- Add_Column_2 -->
<g id="node9" class="node"><title>Add_Column_2</title>
<polygon fill="white" stroke="black" points="201,-172.5 119,-172.5 119,-151.5 201,-151.5 201,-172.5"/>
<text text-anchor="middle" x="160" y="-159.5" font-family="Helvetica,sans-Serif" font-size="10.00">Add_Column_2</text>
</g>
<!-- Add_Column&#45;&gt;Add_Column_2 -->
<g id="edge28" class="edge"><title>Add_Column&#45;&gt;Add_Column_2</title>
<path fill="none" stroke="black" d="M110.22,-189.415C116.949,-185.709 124.65,-181.468 131.952,-177.447"/>
<polygon fill="black" stroke="black" points="133.812,-180.418 140.883,-172.528 130.435,-174.287 133.812,-180.418"/>
</g>
<!-- Add_Column_3 -->
<g id="node10" class="node"><title>Add_Column_3</title>
<polygon fill="white" stroke="black" points="340,-134.5 258,-134.5 258,-113.5 340,-113.5 340,-134.5"/>
<text text-anchor="middle" x="299" y="-121.5" font-family="Helvetica,sans-Serif" font-size="10.00">Add_Column_3</text>
</g>
<!-- Add_Column_2&#45;&gt;Add_Column_3 -->
<g id="edge34" class="edge"><title>Add_Column_2&#45;&gt;Add_Column_3</title>
<path fill="none" stroke="black" d="M198.719,-151.415C214.835,-147.009 233.719,-141.847 250.726,-137.197"/>
<polygon fill="black" stroke="black" points="251.765,-140.542 260.488,-134.528 249.919,-133.789 251.765,-140.542"/>
</g>
<!-- Add_Column_3&#45;&gt;tjoin -->
<g id="edge6" class="edge"><title>Add_Column_3&#45;&gt;tjoin</title>
<path fill="none" stroke="black" d="M327.691,-113.415C342.587,-107.919 360.674,-101.246 375.274,-95.8602"/>
<polygon fill="black" stroke="black" points="376.572,-99.112 384.742,-92.367 374.149,-92.5447 376.572,-99.112"/>
</g>
<!-- WORKFLOWINTERNALSINK_GalfitVotable -->
<g id="node27" class="node"><title>WORKFLOWINTERNALSINK_GalfitVotable</title>
<polygon fill="#bcd2ee" stroke="black" points="335,-37.5 263,-37.5 263,-16.5 335,-16.5 335,-37.5"/>
<text text-anchor="middle" x="299" y="-24.5" font-family="Helvetica,sans-Serif" font-size="10.00">GalfitVotable</text>
</g>
<!-- Add_Column_3&#45;&gt;WORKFLOWINTERNALSINK_GalfitVotable -->
<g id="edge46" class="edge"><title>Add_Column_3&#45;&gt;WORKFLOWINTERNALSINK_GalfitVotable</title>
<path fill="none" stroke="black" d="M299,-113.249C299,-97.4334 299,-67.6032 299,-47.513"/>
<polygon fill="black" stroke="black" points="302.5,-47.5046 299,-37.5046 295.5,-47.5047 302.5,-47.5046"/>
</g>
<!-- expression_value -->
<g id="node11" class="node"><title>expression_value</title>
<polygon fill="#b0c4de" stroke="black" points="92,-248.5 4.26326e-14,-248.5 0,-227.5 92,-227.5 92,-248.5"/>
<text text-anchor="middle" x="46" y="-235.5" font-family="Helvetica,sans-Serif" font-size="10.00">expression_value</text>
</g>
<!-- expression_value&#45;&gt;Add_Column -->
<g id="edge22" class="edge"><title>expression_value&#45;&gt;Add_Column</title>
<path fill="none" stroke="black" d="M58.7748,-227.212C62.4159,-224.138 66.4777,-220.708 70.4572,-217.347"/>
<polygon fill="black" stroke="black" points="72.9668,-219.809 78.349,-210.683 68.4505,-214.461 72.9668,-219.809"/>
</g>
<!-- hr_disk_arcsec_value -->
<g id="node12" class="node"><title>hr_disk_arcsec_value</title>
<polygon fill="#b0c4de" stroke="black" points="206,-248.5 96,-248.5 96,-227.5 206,-227.5 206,-248.5"/>
<text text-anchor="middle" x="151" y="-235.5" font-family="Helvetica,sans-Serif" font-size="10.00">hr_disk_arcsec_value</text>
</g>
<!-- hr_disk_arcsec_value&#45;&gt;Add_Column -->
<g id="edge24" class="edge"><title>hr_disk_arcsec_value&#45;&gt;Add_Column</title>
<path fill="none" stroke="black" d="M134.287,-227.415C128.695,-223.874 122.332,-219.844 116.238,-215.984"/>
<polygon fill="black" stroke="black" points="117.945,-212.922 107.624,-210.528 114.199,-218.836 117.945,-212.922"/>
</g>
<!-- re_bul_carsec_value -->
<g id="node13" class="node"><title>re_bul_carsec_value</title>
<polygon fill="#b0c4de" stroke="black" points="237,-210.5 131,-210.5 131,-189.5 237,-189.5 237,-210.5"/>
<text text-anchor="middle" x="184" y="-197.5" font-family="Helvetica,sans-Serif" font-size="10.00">re_bul_carsec_value</text>
</g>
<!-- re_bul_carsec_value&#45;&gt;Add_Column_2 -->
<g id="edge30" class="edge"><title>re_bul_carsec_value&#45;&gt;Add_Column_2</title>
<path fill="none" stroke="black" d="M177.187,-189.212C175.603,-186.704 173.869,-183.959 172.132,-181.209"/>
<polygon fill="black" stroke="black" points="175.046,-179.269 166.747,-172.683 169.128,-183.007 175.046,-179.269"/>
</g>
<!-- expression_value_1 -->
<g id="node14" class="node"><title>expression_value_1</title>
<polygon fill="#b0c4de" stroke="black" points="343,-210.5 241,-210.5 241,-189.5 343,-189.5 343,-210.5"/>
<text text-anchor="middle" x="292" y="-197.5" font-family="Helvetica,sans-Serif" font-size="10.00">expression_value_1</text>
</g>
<!-- expression_value_1&#45;&gt;Add_Column_2 -->
<g id="edge32" class="edge"><title>expression_value_1&#45;&gt;Add_Column_2</title>
<path fill="none" stroke="black" d="M255.231,-189.415C240.069,-185.05 222.328,-179.943 206.296,-175.328"/>
<polygon fill="black" stroke="black" points="207.15,-171.931 196.572,-172.528 205.214,-178.658 207.15,-171.931"/>
</g>
<!-- expression_value_2 -->
<g id="node15" class="node"><title>expression_value_2</title>
<polygon fill="#b0c4de" stroke="black" points="307,-172.5 205,-172.5 205,-151.5 307,-151.5 307,-172.5"/>
<text text-anchor="middle" x="256" y="-159.5" font-family="Helvetica,sans-Serif" font-size="10.00">expression_value_2</text>
</g>
<!-- expression_value_2&#45;&gt;Add_Column_3 -->
<g id="edge36" class="edge"><title>expression_value_2&#45;&gt;Add_Column_3</title>
<path fill="none" stroke="black" d="M268.207,-151.212C271.686,-148.138 275.568,-144.708 279.37,-141.347"/>
<polygon fill="black" stroke="black" points="281.736,-143.928 286.911,-134.683 277.1,-138.682 281.736,-143.928"/>
</g>
<!-- re_bar_arcsec_value -->
<g id="node16" class="node"><title>re_bar_arcsec_value</title>
<polygon fill="#b0c4de" stroke="black" points="417,-172.5 311,-172.5 311,-151.5 417,-151.5 417,-172.5"/>
<text text-anchor="middle" x="364" y="-159.5" font-family="Helvetica,sans-Serif" font-size="10.00">re_bar_arcsec_value</text>
</g>
<!-- re_bar_arcsec_value&#45;&gt;Add_Column_3 -->
<g id="edge38" class="edge"><title>re_bar_arcsec_value&#45;&gt;Add_Column_3</title>
<path fill="none" stroke="black" d="M345.894,-151.415C339.696,-147.791 332.622,-143.656 325.882,-139.715"/>
<polygon fill="black" stroke="black" points="327.408,-136.554 317.009,-134.528 323.876,-142.597 327.408,-136.554"/>
</g>
<!-- Cat_n&#45;tables -->
<g id="node17" class="node"><title>Cat_n&#45;tables</title>
<polygon fill="white" stroke="black" points="306,-248.5 234,-248.5 234,-227.5 306,-227.5 306,-248.5"/>
<text text-anchor="middle" x="270" y="-235.5" font-family="Helvetica,sans-Serif" font-size="10.00">Cat_n&#45;tables</text>
</g>
<!-- Cat_n&#45;tables&#45;&gt;Add_Column -->
<g id="edge26" class="edge"><title>Cat_n&#45;tables&#45;&gt;Add_Column</title>
<path fill="none" stroke="black" d="M233.774,-231.289C203.786,-225.682 162.542,-217.841 137.252,-212.348"/>
<polygon fill="black" stroke="black" points="137.686,-208.858 127.162,-210.078 136.15,-215.687 137.686,-208.858"/>
</g>
<!-- MakeDoubleTypes&#45;&gt;Cat_n&#45;tables -->
<g id="edge40" class="edge"><title>MakeDoubleTypes&#45;&gt;Cat_n&#45;tables</title>
<path fill="none" stroke="black" d="M271.432,-265.212C271.326,-263.19 271.211,-261.013 271.095,-258.804"/>
<polygon fill="black" stroke="black" points="274.583,-258.485 270.562,-248.683 267.593,-258.853 274.583,-258.485"/>
</g>
<!-- WORKFLOWINTERNALSOURCECONTROL -->
<g id="node20" class="node"><title>WORKFLOWINTERNALSOURCECONTROL</title>
<polygon fill="#ff4040" stroke="black" points="515,-473 508,-462.5 522,-462.5 515,-473"/>
</g>
<!-- WORKFLOWINTERNALSOURCE_Precedence -->
<g id="node21" class="node"><title>WORKFLOWINTERNALSOURCE_Precedence</title>
<polygon fill="skyblue" stroke="black" points="504,-476.5 436,-476.5 436,-455.5 504,-455.5 504,-476.5"/>
<text text-anchor="middle" x="470" y="-463.5" font-family="Helvetica,sans-Serif" font-size="10.00">Precedence</text>
</g>
<!-- WORKFLOWINTERNALSOURCE_ColumnNameWithConfigFile -->
<g id="node22" class="node"><title>WORKFLOWINTERNALSOURCE_ColumnNameWithConfigFile</title>
<polygon fill="skyblue" stroke="black" points="380,-476.5 240,-476.5 240,-455.5 380,-455.5 380,-476.5"/>
<text text-anchor="middle" x="310" y="-463.5" font-family="Helvetica,sans-Serif" font-size="10.00">ColumnNameWithConfigFile</text>
</g>
<!-- WORKFLOWINTERNALSOURCE_ColumnNameWithConfigFile&#45;&gt;List_from_column -->
<g id="edge10" class="edge"><title>WORKFLOWINTERNALSOURCE_ColumnNameWithConfigFile&#45;&gt;List_from_column</title>
<path fill="none" stroke="black" d="M310,-455.212C310,-453.19 310,-451.013 310,-448.804"/>
<polygon fill="black" stroke="black" points="313.5,-448.683 310,-438.683 306.5,-448.683 313.5,-448.683"/>
</g>
<!-- WORKFLOWINTERNALSOURCE_votable -->
<g id="node23" class="node"><title>WORKFLOWINTERNALSOURCE_votable</title>
<polygon fill="skyblue" stroke="black" points="432,-476.5 384,-476.5 384,-455.5 432,-455.5 432,-476.5"/>
<text text-anchor="middle" x="408" y="-463.5" font-family="Helvetica,sans-Serif" font-size="10.00">votable</text>
</g>
<!-- WORKFLOWINTERNALSOURCE_votable&#45;&gt;tjoin -->
<g id="edge4" class="edge"><title>WORKFLOWINTERNALSOURCE_votable&#45;&gt;tjoin</title>
<path fill="none" stroke="black" d="M411.711,-455.326C416.438,-440.754 424,-413.731 424,-390 424,-390 424,-390 424,-162 424,-142.357 417.135,-120.945 411.075,-105.869"/>
<polygon fill="black" stroke="black" points="414.242,-104.372 407.103,-96.5443 407.802,-107.116 414.242,-104.372"/>
</g>
<!-- WORKFLOWINTERNALSOURCE_votable&#45;&gt;List_from_column -->
<g id="edge12" class="edge"><title>WORKFLOWINTERNALSOURCE_votable&#45;&gt;List_from_column</title>
<path fill="none" stroke="black" d="M394.296,-455.376C389.909,-452.344 384.911,-449.256 380,-447 375.72,-445.034 371.196,-443.236 366.591,-441.601"/>
<polygon fill="black" stroke="black" points="367.669,-438.271 357.076,-438.468 365.48,-444.92 367.669,-438.271"/>
</g>
<!-- WORKFLOWINTERNALSINKCONTROL -->
<g id="node25" class="node"><title>WORKFLOWINTERNALSINKCONTROL</title>
<polygon fill="#66cd00" stroke="black" points="476,-20 483,-30.5 469,-30.5 476,-20"/>
</g>
</g>
</svg>
