<?xml version="1.0" encoding="UTF-8" standalone="no"?>
<!DOCTYPE svg PUBLIC "-//W3C//DTD SVG 1.1//EN"
 "http://www.w3.org/Graphics/SVG/1.1/DTD/svg11.dtd">
<!-- Generated by graphviz version 2.26.0 (20091210.2329)
 -->
<!-- Title: t2flow_graph Pages: 1 -->
<svg width="281pt" height="180pt"
 viewBox="0.00 0.00 281.00 180.00" xmlns="http://www.w3.org/2000/svg" xmlns:xlink="http://www.w3.org/1999/xlink">
<g id="graph1" class="graph" transform="scale(1 1) rotate(0) translate(4 176)">
<title>t2flow_graph</title>
<polygon fill="white" stroke="white" points="-4,5 -4,-176 278,-176 278,5 -4,5"/>
<g id="graph2" class="cluster"><title>cluster_sources</title>
<polygon fill="none" stroke="black" stroke-dasharray="1,5" points="39,-105 39,-164 185,-164 185,-105 39,-105"/>
<text text-anchor="middle" x="83" y="-151" font-family="Helvetica,sans-Serif" font-size="10.00">Workflow Inputs</text>
</g>
<g id="graph3" class="cluster"><title>cluster_sinks</title>
<polygon fill="none" stroke="black" stroke-dasharray="1,5" points="29,-8 29,-67 265,-67 265,-8 29,-8"/>
<text text-anchor="middle" x="76.5" y="-54" font-family="Helvetica,sans-Serif" font-size="10.00">Workflow Outputs</text>
</g>
<!-- Get_Nucleotide_FASTA -->
<g id="node1" class="node"><title>Get_Nucleotide_FASTA</title>
<polygon fill="#d15fee" stroke="black" points="258,-96.5 136,-96.5 136,-75.5 258,-75.5 258,-96.5"/>
<text text-anchor="middle" x="197" y="-83.5" font-family="Helvetica,sans-Serif" font-size="10.00">Get_Nucleotide_FASTA</text>
</g>
<!-- WORKFLOWINTERNALSINK_SourceGenomeSeq -->
<g id="node10" class="node"><title>WORKFLOWINTERNALSINK_SourceGenomeSeq</title>
<polygon fill="#bcd2ee" stroke="black" points="239,-37.5 139,-37.5 139,-16.5 239,-16.5 239,-37.5"/>
<text text-anchor="middle" x="189" y="-24.5" font-family="Helvetica,sans-Serif" font-size="10.00">SourceGenomeSeq</text>
</g>
<!-- Get_Nucleotide_FASTA&#45;&gt;WORKFLOWINTERNALSINK_SourceGenomeSeq -->
<g id="edge10" class="edge"><title>Get_Nucleotide_FASTA&#45;&gt;WORKFLOWINTERNALSINK_SourceGenomeSeq</title>
<path fill="none" stroke="black" d="M195.57,-75.452C194.536,-67.8285 193.105,-57.2768 191.843,-47.966"/>
<polygon fill="black" stroke="black" points="195.284,-47.2949 190.472,-37.8559 188.347,-48.2355 195.284,-47.2949"/>
</g>
<!-- Get_Nucleotide_FASTA_2 -->
<g id="node2" class="node"><title>Get_Nucleotide_FASTA_2</title>
<polygon fill="#d15fee" stroke="black" points="132,-96.5 5.68434e-14,-96.5 0,-75.5 132,-75.5 132,-96.5"/>
<text text-anchor="middle" x="66" y="-83.5" font-family="Helvetica,sans-Serif" font-size="10.00">Get_Nucleotide_FASTA_2</text>
</g>
<!-- WORKFLOWINTERNALSINK_TargetGenomeSeq -->
<g id="node9" class="node"><title>WORKFLOWINTERNALSINK_TargetGenomeSeq</title>
<polygon fill="#bcd2ee" stroke="black" points="135,-37.5 37,-37.5 37,-16.5 135,-16.5 135,-37.5"/>
<text text-anchor="middle" x="86" y="-24.5" font-family="Helvetica,sans-Serif" font-size="10.00">TargetGenomeSeq</text>
</g>
<!-- Get_Nucleotide_FASTA_2&#45;&gt;WORKFLOWINTERNALSINK_TargetGenomeSeq -->
<g id="edge8" class="edge"><title>Get_Nucleotide_FASTA_2&#45;&gt;WORKFLOWINTERNALSINK_TargetGenomeSeq</title>
<path fill="none" stroke="black" d="M69.5756,-75.452C72.216,-67.6628 75.8927,-56.8166 79.0981,-47.3606"/>
<polygon fill="black" stroke="black" points="82.4243,-48.4502 82.32,-37.8559 75.7949,-46.2029 82.4243,-48.4502"/>
</g>
<!-- WORKFLOWINTERNALSOURCECONTROL -->
<g id="node4" class="node"><title>WORKFLOWINTERNALSOURCECONTROL</title>
<polygon fill="#ff4040" stroke="black" points="170,-131 163,-120.5 177,-120.5 170,-131"/>
</g>
<!-- WORKFLOWINTERNALSOURCE_TargetId -->
<g id="node5" class="node"><title>WORKFLOWINTERNALSOURCE_TargetId</title>
<polygon fill="skyblue" stroke="black" points="99,-134.5 47,-134.5 47,-113.5 99,-113.5 99,-134.5"/>
<text text-anchor="middle" x="73" y="-121.5" font-family="Helvetica,sans-Serif" font-size="10.00">TargetId</text>
</g>
<!-- WORKFLOWINTERNALSOURCE_TargetId&#45;&gt;Get_Nucleotide_FASTA_2 -->
<g id="edge6" class="edge"><title>WORKFLOWINTERNALSOURCE_TargetId&#45;&gt;Get_Nucleotide_FASTA_2</title>
<path fill="none" stroke="black" d="M71.0128,-113.212C70.6253,-111.109 70.2071,-108.839 69.7834,-106.538"/>
<polygon fill="black" stroke="black" points="73.2217,-105.884 67.9679,-96.6831 66.3376,-107.152 73.2217,-105.884"/>
</g>
<!-- WORKFLOWINTERNALSOURCE_SourceId -->
<g id="node6" class="node"><title>WORKFLOWINTERNALSOURCE_SourceId</title>
<polygon fill="skyblue" stroke="black" points="159,-134.5 103,-134.5 103,-113.5 159,-113.5 159,-134.5"/>
<text text-anchor="middle" x="131" y="-121.5" font-family="Helvetica,sans-Serif" font-size="10.00">SourceId</text>
</g>
<!-- WORKFLOWINTERNALSOURCE_SourceId&#45;&gt;Get_Nucleotide_FASTA -->
<g id="edge4" class="edge"><title>WORKFLOWINTERNALSOURCE_SourceId&#45;&gt;Get_Nucleotide_FASTA</title>
<path fill="none" stroke="black" d="M148.557,-113.464C153.236,-110.686 158.297,-107.709 163,-105 164.952,-103.875 166.971,-102.722 169.008,-101.566"/>
<polygon fill="black" stroke="black" points="170.893,-104.521 177.889,-96.5643 167.458,-98.4217 170.893,-104.521"/>
</g>
<!-- WORKFLOWINTERNALSINKCONTROL -->
<g id="node8" class="node"><title>WORKFLOWINTERNALSINKCONTROL</title>
<polygon fill="#66cd00" stroke="black" points="250,-20 257,-30.5 243,-30.5 250,-20"/>
</g>
</g>
</svg>
