<?xml version="1.0" encoding="UTF-8" standalone="no"?>
<!DOCTYPE svg PUBLIC "-//W3C//DTD SVG 1.1//EN"
 "http://www.w3.org/Graphics/SVG/1.1/DTD/svg11.dtd">
<!-- Generated by graphviz version 2.26.0 (20091210.2329)
 -->
<!-- Title: t2flow_graph Pages: 1 -->
<svg width="423pt" height="294pt"
 viewBox="0.00 0.00 423.00 294.00" xmlns="http://www.w3.org/2000/svg" xmlns:xlink="http://www.w3.org/1999/xlink">
<g id="graph1" class="graph" transform="scale(1 1) rotate(0) translate(4 290)">
<title>t2flow_graph</title>
<polygon fill="white" stroke="white" points="-4,5 -4,-290 420,-290 420,5 -4,5"/>
<g id="graph2" class="cluster"><title>cluster_sources</title>
<polygon fill="none" stroke="black" stroke-dasharray="1,5" points="105,-219 105,-278 193,-278 193,-219 105,-219"/>
<text text-anchor="middle" x="149" y="-265" font-family="Helvetica,sans-Serif" font-size="10.00">Workflow Inputs</text>
</g>
<g id="graph3" class="cluster"><title>cluster_sinks</title>
<polygon fill="none" stroke="black" stroke-dasharray="1,5" points="134,-8 134,-67 280,-67 280,-8 134,-8"/>
<text text-anchor="middle" x="181.5" y="-54" font-family="Helvetica,sans-Serif" font-size="10.00">Workflow Outputs</text>
</g>
<!-- ExecuteProcess_gdalinfo -->
<g id="node1" class="node"><title>ExecuteProcess_gdalinfo</title>
<polygon fill="#a2cd5a" stroke="black" points="164,-172.5 36,-172.5 36,-151.5 164,-151.5 164,-172.5"/>
<text text-anchor="middle" x="100" y="-159.5" font-family="Helvetica,sans-Serif" font-size="10.00">ExecuteProcess_gdalinfo</text>
</g>
<!-- ExecuteProcess_gdalinfo_ProcessOutputs -->
<g id="node3" class="node"><title>ExecuteProcess_gdalinfo_ProcessOutputs</title>
<polygon fill="#ab92ea" stroke="black" points="207,-96.5 5,-96.5 5,-75.5 207,-75.5 207,-96.5"/>
<text text-anchor="middle" x="106" y="-83.5" font-family="Helvetica,sans-Serif" font-size="10.00">ExecuteProcess_gdalinfo_ProcessOutputs</text>
</g>
<!-- ExecuteProcess_gdalinfo&#45;&gt;ExecuteProcess_gdalinfo_ProcessOutputs -->
<g id="edge8" class="edge"><title>ExecuteProcess_gdalinfo&#45;&gt;ExecuteProcess_gdalinfo_ProcessOutputs</title>
<path fill="none" stroke="black" d="M100.834,-151.433C101.737,-139.992 103.201,-121.448 104.341,-107.017"/>
<polygon fill="black" stroke="black" points="107.836,-107.214 105.134,-96.9699 100.858,-106.663 107.836,-107.214"/>
</g>
<!-- ExecuteProcess_gdalinfo_DataInputs -->
<g id="node2" class="node"><title>ExecuteProcess_gdalinfo_DataInputs</title>
<polygon fill="#ab92ea" stroke="black" points="180,-210.5 8.52651e-14,-210.5 0,-189.5 180,-189.5 180,-210.5"/>
<text text-anchor="middle" x="90" y="-197.5" font-family="Helvetica,sans-Serif" font-size="10.00">ExecuteProcess_gdalinfo_DataInputs</text>
</g>
<!-- ExecuteProcess_gdalinfo_DataInputs&#45;&gt;ExecuteProcess_gdalinfo -->
<g id="edge4" class="edge"><title>ExecuteProcess_gdalinfo_DataInputs&#45;&gt;ExecuteProcess_gdalinfo</title>
<path fill="none" stroke="black" d="M92.8389,-189.212C93.3925,-187.109 93.9898,-184.839 94.5952,-182.538"/>
<polygon fill="black" stroke="black" points="98.0284,-183.245 97.1887,-172.683 91.2589,-181.463 98.0284,-183.245"/>
</g>
<!-- WORKFLOWINTERNALSINK_gdalOut -->
<g id="node13" class="node"><title>WORKFLOWINTERNALSINK_gdalOut</title>
<polygon fill="#bcd2ee" stroke="black" points="192,-37.5 142,-37.5 142,-16.5 192,-16.5 192,-37.5"/>
<text text-anchor="middle" x="167" y="-24.5" font-family="Helvetica,sans-Serif" font-size="10.00">gdalOut</text>
</g>
<!-- ExecuteProcess_gdalinfo_ProcessOutputs&#45;&gt;WORKFLOWINTERNALSINK_gdalOut -->
<g id="edge18" class="edge"><title>ExecuteProcess_gdalinfo_ProcessOutputs&#45;&gt;WORKFLOWINTERNALSINK_gdalOut</title>
<path fill="none" stroke="black" d="M116.906,-75.452C125.644,-66.9999 138.104,-54.9483 148.411,-44.9792"/>
<polygon fill="black" stroke="black" points="151.021,-47.3239 155.776,-37.8559 146.155,-42.2924 151.021,-47.3239"/>
</g>
<!-- ExecuteProcess_histogramprocess -->
<g id="node4" class="node"><title>ExecuteProcess_histogramprocess</title>
<polygon fill="#a2cd5a" stroke="black" points="380,-172.5 210,-172.5 210,-151.5 380,-151.5 380,-172.5"/>
<text text-anchor="middle" x="295" y="-159.5" font-family="Helvetica,sans-Serif" font-size="10.00">ExecuteProcess_histogramprocess</text>
</g>
<!-- ExecuteProcess_histogramprocess_ProcessOutputs -->
<g id="node6" class="node"><title>ExecuteProcess_histogramprocess_ProcessOutputs</title>
<polygon fill="#ab92ea" stroke="black" points="415,-134.5 169,-134.5 169,-113.5 415,-113.5 415,-134.5"/>
<text text-anchor="middle" x="292" y="-121.5" font-family="Helvetica,sans-Serif" font-size="10.00">ExecuteProcess_histogramprocess_ProcessOutputs</text>
</g>
<!-- ExecuteProcess_histogramprocess&#45;&gt;ExecuteProcess_histogramprocess_ProcessOutputs -->
<g id="edge14" class="edge"><title>ExecuteProcess_histogramprocess&#45;&gt;ExecuteProcess_histogramprocess_ProcessOutputs</title>
<path fill="none" stroke="black" d="M294.148,-151.212C293.989,-149.19 293.817,-147.013 293.642,-144.804"/>
<polygon fill="black" stroke="black" points="297.12,-144.377 292.843,-134.683 290.141,-144.928 297.12,-144.377"/>
</g>
<!-- ExecuteProcess_histogramprocess_DataInputs -->
<g id="node5" class="node"><title>ExecuteProcess_histogramprocess_DataInputs</title>
<polygon fill="#ab92ea" stroke="black" points="408,-210.5 184,-210.5 184,-189.5 408,-189.5 408,-210.5"/>
<text text-anchor="middle" x="296" y="-197.5" font-family="Helvetica,sans-Serif" font-size="10.00">ExecuteProcess_histogramprocess_DataInputs</text>
</g>
<!-- ExecuteProcess_histogramprocess_DataInputs&#45;&gt;ExecuteProcess_histogramprocess -->
<g id="edge10" class="edge"><title>ExecuteProcess_histogramprocess_DataInputs&#45;&gt;ExecuteProcess_histogramprocess</title>
<path fill="none" stroke="black" d="M295.716,-189.212C295.663,-187.19 295.606,-185.013 295.547,-182.804"/>
<polygon fill="black" stroke="black" points="299.043,-182.588 295.281,-172.683 292.046,-182.772 299.043,-182.588"/>
</g>
<!-- Decode_Base_64_to_byte_Array -->
<g id="node7" class="node"><title>Decode_Base_64_to_byte_Array</title>
<polygon fill="#d15fee" stroke="black" points="371,-96.5 211,-96.5 211,-75.5 371,-75.5 371,-96.5"/>
<text text-anchor="middle" x="291" y="-83.5" font-family="Helvetica,sans-Serif" font-size="10.00">Decode_Base_64_to_byte_Array</text>
</g>
<!-- ExecuteProcess_histogramprocess_ProcessOutputs&#45;&gt;Decode_Base_64_to_byte_Array -->
<g id="edge16" class="edge"><title>ExecuteProcess_histogramprocess_ProcessOutputs&#45;&gt;Decode_Base_64_to_byte_Array</title>
<path fill="none" stroke="black" d="M291.716,-113.212C291.663,-111.19 291.606,-109.013 291.547,-106.804"/>
<polygon fill="black" stroke="black" points="295.043,-106.588 291.281,-96.6831 288.046,-106.772 295.043,-106.588"/>
</g>
<!-- WORKFLOWINTERNALSINK_histogram -->
<g id="node14" class="node"><title>WORKFLOWINTERNALSINK_histogram</title>
<polygon fill="#bcd2ee" stroke="black" points="254,-37.5 196,-37.5 196,-16.5 254,-16.5 254,-37.5"/>
<text text-anchor="middle" x="225" y="-24.5" font-family="Helvetica,sans-Serif" font-size="10.00">histogram</text>
</g>
<!-- Decode_Base_64_to_byte_Array&#45;&gt;WORKFLOWINTERNALSINK_histogram -->
<g id="edge20" class="edge"><title>Decode_Base_64_to_byte_Array&#45;&gt;WORKFLOWINTERNALSINK_histogram</title>
<path fill="none" stroke="black" d="M269.997,-75.4253C265.836,-72.9197 261.635,-70.0726 258,-67 250.845,-60.9525 244.054,-53.2121 238.513,-46.1543"/>
<polygon fill="black" stroke="black" points="241.024,-43.668 232.231,-37.7583 235.42,-47.8619 241.024,-43.668"/>
</g>
<!-- WORKFLOWINTERNALSOURCECONTROL -->
<g id="node9" class="node"><title>WORKFLOWINTERNALSOURCECONTROL</title>
<polygon fill="#ff4040" stroke="black" points="175,-245 168,-234.5 182,-234.5 175,-245"/>
</g>
<!-- WORKFLOWINTERNALSOURCE_image -->
<g id="node10" class="node"><title>WORKFLOWINTERNALSOURCE_image</title>
<polygon fill="skyblue" stroke="black" points="161,-248.5 119,-248.5 119,-227.5 161,-227.5 161,-248.5"/>
<text text-anchor="middle" x="140" y="-235.5" font-family="Helvetica,sans-Serif" font-size="10.00">image</text>
</g>
<!-- WORKFLOWINTERNALSOURCE_image&#45;&gt;ExecuteProcess_gdalinfo_DataInputs -->
<g id="edge6" class="edge"><title>WORKFLOWINTERNALSOURCE_image&#45;&gt;ExecuteProcess_gdalinfo_DataInputs</title>
<path fill="none" stroke="black" d="M126.072,-227.415C121.738,-224.121 116.847,-220.404 112.098,-216.794"/>
<polygon fill="black" stroke="black" points="113.933,-213.793 103.853,-210.528 109.697,-219.366 113.933,-213.793"/>
</g>
<!-- WORKFLOWINTERNALSOURCE_image&#45;&gt;ExecuteProcess_histogramprocess_DataInputs -->
<g id="edge12" class="edge"><title>WORKFLOWINTERNALSOURCE_image&#45;&gt;ExecuteProcess_histogramprocess_DataInputs</title>
<path fill="none" stroke="black" d="M151.952,-227.392C156.134,-224.211 161.032,-221.031 166,-219 171.938,-216.572 181.543,-214.294 192.917,-212.217"/>
<polygon fill="black" stroke="black" points="193.577,-215.655 202.845,-210.521 192.398,-208.755 193.577,-215.655"/>
</g>
<!-- WORKFLOWINTERNALSINKCONTROL -->
<g id="node12" class="node"><title>WORKFLOWINTERNALSINKCONTROL</title>
<polygon fill="#66cd00" stroke="black" points="265,-20 272,-30.5 258,-30.5 265,-20"/>
</g>
</g>
</svg>
