<?xml version="1.0" encoding="UTF-8" standalone="no"?>
<!DOCTYPE svg PUBLIC "-//W3C//DTD SVG 1.1//EN"
 "http://www.w3.org/Graphics/SVG/1.1/DTD/svg11.dtd">
<!-- Generated by graphviz version 2.26.0 (20091210.2329)
 -->
<!-- Title: t2flow_graph Pages: 1 -->
<svg width="550pt" height="764pt"
 viewBox="0.00 0.00 550.00 764.00" xmlns="http://www.w3.org/2000/svg" xmlns:xlink="http://www.w3.org/1999/xlink">
<g id="graph1" class="graph" transform="scale(1 1) rotate(0) translate(4 760)">
<title>t2flow_graph</title>
<polygon fill="white" stroke="white" points="-4,5 -4,-760 547,-760 547,5 -4,5"/>
<g id="graph2" class="cluster"><title>cluster_Workflow15Workflow15</title>
<polygon fill="aliceblue" stroke="black" points="8,-458 8,-748 374,-748 374,-458 8,-458"/>
<text text-anchor="middle" x="42" y="-735" font-family="Helvetica,sans-Serif" font-size="10.00">Workflow15</text>
</g>
<g id="graph3" class="cluster"><title>cluster_Workflow15sources</title>
<polygon fill="none" stroke="black" stroke-dasharray="1,5" points="276,-563 276,-622 366,-622 366,-563 276,-563"/>
<text text-anchor="middle" x="320" y="-609" font-family="Helvetica,sans-Serif" font-size="10.00">Workflow Inputs</text>
</g>
<g id="graph4" class="cluster"><title>cluster_Workflow15sinks</title>
<polygon fill="none" stroke="black" stroke-dasharray="1,5" points="251,-466 251,-525 346,-525 346,-466 251,-466"/>
<text text-anchor="middle" x="298.5" y="-512" font-family="Helvetica,sans-Serif" font-size="10.00">Workflow Outputs</text>
</g>
<g id="graph5" class="cluster"><title>cluster_Workflow1Workflow1</title>
<polygon fill="aliceblue" stroke="black" points="40,-75 40,-344 310,-344 310,-75 40,-75"/>
<text text-anchor="middle" x="71.5" y="-331" font-family="Helvetica,sans-Serif" font-size="10.00">Workflow1</text>
</g>
<g id="graph6" class="cluster"><title>cluster_Workflow1sources</title>
<polygon fill="none" stroke="black" stroke-dasharray="1,5" points="214,-256 214,-315 302,-315 302,-256 214,-256"/>
<text text-anchor="middle" x="258" y="-302" font-family="Helvetica,sans-Serif" font-size="10.00">Workflow Inputs</text>
</g>
<g id="graph7" class="cluster"><title>cluster_Workflow1sinks</title>
<polygon fill="none" stroke="black" stroke-dasharray="1,5" points="181,-83 181,-142 276,-142 276,-83 181,-83"/>
<text text-anchor="middle" x="228.5" y="-129" font-family="Helvetica,sans-Serif" font-size="10.00">Workflow Outputs</text>
</g>
<g id="graph8" class="cluster"><title>cluster_sources</title>
<polygon fill="none" stroke="black" stroke-dasharray="1,5" points="382,-630 382,-689 534,-689 534,-630 382,-630"/>
<text text-anchor="middle" x="426" y="-676" font-family="Helvetica,sans-Serif" font-size="10.00">Workflow Inputs</text>
</g>
<g id="graph9" class="cluster"><title>cluster_sinks</title>
<polygon fill="none" stroke="black" stroke-dasharray="1,5" points="210,-8 210,-67 454,-67 454,-8 210,-8"/>
<text text-anchor="middle" x="257.5" y="-54" font-family="Helvetica,sans-Serif" font-size="10.00">Workflow Outputs</text>
</g>
<!-- Workflow15ExecuteProcess_getIceClassMapsAsar_list -->
<g id="node2" class="node"><title>Workflow15ExecuteProcess_getIceClassMapsAsar_list</title>
<polygon fill="#a2cd5a" stroke="black" points="328,-718.5 120,-718.5 120,-697.5 328,-697.5 328,-718.5"/>
<text text-anchor="middle" x="224" y="-705.5" font-family="Helvetica,sans-Serif" font-size="10.00">ExecuteProcess_getIceClassMapsAsar_list</text>
</g>
<!-- Workflow15ExecuteProcess_getIceClassMapsAsar_list_ProcessOutputs -->
<g id="node3" class="node"><title>Workflow15ExecuteProcess_getIceClassMapsAsar_list_ProcessOutputs</title>
<polygon fill="#ab92ea" stroke="black" points="366,-659.5 82,-659.5 82,-638.5 366,-638.5 366,-659.5"/>
<text text-anchor="middle" x="224" y="-646.5" font-family="Helvetica,sans-Serif" font-size="10.00">ExecuteProcess_getIceClassMapsAsar_list_ProcessOutputs</text>
</g>
<!-- Workflow15ExecuteProcess_getIceClassMapsAsar_list&#45;&gt;Workflow15ExecuteProcess_getIceClassMapsAsar_list_ProcessOutputs -->
<g id="edge5" class="edge"><title>Workflow15ExecuteProcess_getIceClassMapsAsar_list&#45;&gt;Workflow15ExecuteProcess_getIceClassMapsAsar_list_ProcessOutputs</title>
<path fill="none" stroke="black" d="M224,-697.452C224,-689.829 224,-679.277 224,-669.966"/>
<polygon fill="black" stroke="black" points="227.5,-669.856 224,-659.856 220.5,-669.856 227.5,-669.856"/>
</g>
<!-- Workflow15Split_string_into_string_list_by_regular_expression -->
<g id="node5" class="node"><title>Workflow15Split_string_into_string_list_by_regular_expression</title>
<polygon fill="#d15fee" stroke="black" points="268,-592.5 32,-592.5 32,-571.5 268,-571.5 268,-592.5"/>
<text text-anchor="middle" x="150" y="-579.5" font-family="Helvetica,sans-Serif" font-size="10.00">Split_string_into_string_list_by_regular_expression</text>
</g>
<!-- Workflow15ExecuteProcess_getIceClassMapsAsar_list_ProcessOutputs&#45;&gt;Workflow15Split_string_into_string_list_by_regular_expression -->
<g id="edge13" class="edge"><title>Workflow15ExecuteProcess_getIceClassMapsAsar_list_ProcessOutputs&#45;&gt;Workflow15Split_string_into_string_list_by_regular_expression</title>
<path fill="none" stroke="black" d="M212.111,-638.235C200.499,-627.722 182.639,-611.552 169.046,-599.245"/>
<polygon fill="black" stroke="black" points="171.378,-596.634 161.616,-592.517 166.68,-601.823 171.378,-596.634"/>
</g>
<!-- Workflow15Filter_List_of_Strings_by_regex -->
<g id="node4" class="node"><title>Workflow15Filter_List_of_Strings_by_regex</title>
<polygon fill="#d15fee" stroke="black" points="366,-554.5 212,-554.5 212,-533.5 366,-533.5 366,-554.5"/>
<text text-anchor="middle" x="289" y="-541.5" font-family="Helvetica,sans-Serif" font-size="10.00">Filter_List_of_Strings_by_regex</text>
</g>
<!-- Workflow15WORKFLOWINTERNALSINK_listDate -->
<g id="node12" class="node"><title>Workflow15WORKFLOWINTERNALSINK_listDate</title>
<polygon fill="#bcd2ee" stroke="black" points="314,-495.5 264,-495.5 264,-474.5 314,-474.5 314,-495.5"/>
<text text-anchor="middle" x="289" y="-482.5" font-family="Helvetica,sans-Serif" font-size="10.00">listDate</text>
</g>
<!-- Workflow15Filter_List_of_Strings_by_regex&#45;&gt;Workflow15WORKFLOWINTERNALSINK_listDate -->
<g id="edge15" class="edge"><title>Workflow15Filter_List_of_Strings_by_regex&#45;&gt;Workflow15WORKFLOWINTERNALSINK_listDate</title>
<path fill="none" stroke="black" d="M289,-533.452C289,-525.829 289,-515.277 289,-505.966"/>
<polygon fill="black" stroke="black" points="292.5,-505.856 289,-495.856 285.5,-505.856 292.5,-505.856"/>
</g>
<!-- Workflow15Split_string_into_string_list_by_regular_expression&#45;&gt;Workflow15Filter_List_of_Strings_by_regex -->
<g id="edge7" class="edge"><title>Workflow15Split_string_into_string_list_by_regular_expression&#45;&gt;Workflow15Filter_List_of_Strings_by_regex</title>
<path fill="none" stroke="black" d="M188.719,-571.415C204.835,-567.009 223.719,-561.847 240.726,-557.197"/>
<polygon fill="black" stroke="black" points="241.765,-560.542 250.488,-554.528 239.919,-553.789 241.765,-560.542"/>
</g>
<!-- Workflow15lineFeeder -->
<g id="node6" class="node"><title>Workflow15lineFeeder</title>
<polygon fill="#b0c4de" stroke="black" points="78,-659.5 16,-659.5 16,-638.5 78,-638.5 78,-659.5"/>
<text text-anchor="middle" x="47" y="-646.5" font-family="Helvetica,sans-Serif" font-size="10.00">lineFeeder</text>
</g>
<!-- Workflow15lineFeeder&#45;&gt;Workflow15Split_string_into_string_list_by_regular_expression -->
<g id="edge11" class="edge"><title>Workflow15lineFeeder&#45;&gt;Workflow15Split_string_into_string_list_by_regular_expression</title>
<path fill="none" stroke="black" d="M63.5487,-638.235C80.24,-627.378 106.205,-610.488 125.326,-598.05"/>
<polygon fill="black" stroke="black" points="127.358,-600.904 133.832,-592.517 123.541,-595.036 127.358,-600.904"/>
</g>
<!-- Workflow15WORKFLOWINTERNALSOURCECONTROL -->
<g id="node8" class="node"><title>Workflow15WORKFLOWINTERNALSOURCECONTROL</title>
<polygon fill="#ff4040" stroke="black" points="351,-589 344,-578.5 358,-578.5 351,-589"/>
</g>
<!-- Workflow15WORKFLOWINTERNALSOURCE_filterDate -->
<g id="node9" class="node"><title>Workflow15WORKFLOWINTERNALSOURCE_filterDate</title>
<polygon fill="skyblue" stroke="black" points="340,-592.5 284,-592.5 284,-571.5 340,-571.5 340,-592.5"/>
<text text-anchor="middle" x="312" y="-579.5" font-family="Helvetica,sans-Serif" font-size="10.00">filterDate</text>
</g>
<!-- Workflow15WORKFLOWINTERNALSOURCE_filterDate&#45;&gt;Workflow15Filter_List_of_Strings_by_regex -->
<g id="edge9" class="edge"><title>Workflow15WORKFLOWINTERNALSOURCE_filterDate&#45;&gt;Workflow15Filter_List_of_Strings_by_regex</title>
<path fill="none" stroke="black" d="M305.471,-571.212C304.001,-568.785 302.398,-566.136 300.787,-563.475"/>
<polygon fill="black" stroke="black" points="303.638,-561.426 295.466,-554.683 297.65,-565.05 303.638,-561.426"/>
</g>
<!-- Workflow15WORKFLOWINTERNALSINKCONTROL -->
<g id="node11" class="node"><title>Workflow15WORKFLOWINTERNALSINKCONTROL</title>
<polygon fill="#66cd00" stroke="black" points="328,-478 335,-488.5 321,-488.5 328,-478"/>
</g>
<!-- ExecuteProcess_getIceClassMapsAsarGeoTIFF_DataInputs -->
<g id="node20" class="node"><title>ExecuteProcess_getIceClassMapsAsarGeoTIFF_DataInputs</title>
<polygon fill="#ab92ea" stroke="black" points="430,-449.5 148,-449.5 148,-428.5 430,-428.5 430,-449.5"/>
<text text-anchor="middle" x="289" y="-436.5" font-family="Helvetica,sans-Serif" font-size="10.00">ExecuteProcess_getIceClassMapsAsarGeoTIFF_DataInputs</text>
</g>
<!-- Workflow15WORKFLOWINTERNALSINK_listDate&#45;&gt;ExecuteProcess_getIceClassMapsAsarGeoTIFF_DataInputs -->
<g id="edge40" class="edge"><title>Workflow15WORKFLOWINTERNALSINK_listDate&#45;&gt;ExecuteProcess_getIceClassMapsAsarGeoTIFF_DataInputs</title>
<path fill="none" stroke="black" d="M289,-474.331C289,-470.035 289,-464.923 289,-459.942"/>
<polygon fill="black" stroke="black" points="292.5,-459.611 289,-449.611 285.5,-459.611 292.5,-459.611"/>
</g>
<!-- ExecuteProcess_getIceClassMapsAsarGeoTIFF -->
<g id="node19" class="node"><title>ExecuteProcess_getIceClassMapsAsarGeoTIFF</title>
<polygon fill="#a2cd5a" stroke="black" points="404,-411.5 174,-411.5 174,-390.5 404,-390.5 404,-411.5"/>
<text text-anchor="middle" x="289" y="-398.5" font-family="Helvetica,sans-Serif" font-size="10.00">ExecuteProcess_getIceClassMapsAsarGeoTIFF</text>
</g>
<!-- ExecuteProcess_getIceClassMapsAsarGeoTIFF_ProcessOutputs -->
<g id="node21" class="node"><title>ExecuteProcess_getIceClassMapsAsarGeoTIFF_ProcessOutputs</title>
<polygon fill="#ab92ea" stroke="black" points="441,-373.5 137,-373.5 137,-352.5 441,-352.5 441,-373.5"/>
<text text-anchor="middle" x="289" y="-360.5" font-family="Helvetica,sans-Serif" font-size="10.00">ExecuteProcess_getIceClassMapsAsarGeoTIFF_ProcessOutputs</text>
</g>
<!-- ExecuteProcess_getIceClassMapsAsarGeoTIFF&#45;&gt;ExecuteProcess_getIceClassMapsAsarGeoTIFF_ProcessOutputs -->
<g id="edge42" class="edge"><title>ExecuteProcess_getIceClassMapsAsarGeoTIFF&#45;&gt;ExecuteProcess_getIceClassMapsAsarGeoTIFF_ProcessOutputs</title>
<path fill="none" stroke="black" d="M289,-390.212C289,-388.19 289,-386.013 289,-383.804"/>
<polygon fill="black" stroke="black" points="292.5,-383.683 289,-373.683 285.5,-383.683 292.5,-383.683"/>
</g>
<!-- ExecuteProcess_getIceClassMapsAsarGeoTIFF_DataInputs&#45;&gt;ExecuteProcess_getIceClassMapsAsarGeoTIFF -->
<g id="edge38" class="edge"><title>ExecuteProcess_getIceClassMapsAsarGeoTIFF_DataInputs&#45;&gt;ExecuteProcess_getIceClassMapsAsarGeoTIFF</title>
<path fill="none" stroke="black" d="M289,-428.212C289,-426.19 289,-424.013 289,-421.804"/>
<polygon fill="black" stroke="black" points="292.5,-421.683 289,-411.683 285.5,-421.683 292.5,-421.683"/>
</g>
<!-- Workflow1WORKFLOWINTERNALSOURCE_image -->
<g id="node31" class="node"><title>Workflow1WORKFLOWINTERNALSOURCE_image</title>
<polygon fill="skyblue" stroke="black" points="270,-285.5 228,-285.5 228,-264.5 270,-264.5 270,-285.5"/>
<text text-anchor="middle" x="249" y="-272.5" font-family="Helvetica,sans-Serif" font-size="10.00">image</text>
</g>
<!-- ExecuteProcess_getIceClassMapsAsarGeoTIFF_ProcessOutputs&#45;&gt;Workflow1WORKFLOWINTERNALSOURCE_image -->
<g id="edge44" class="edge"><title>ExecuteProcess_getIceClassMapsAsarGeoTIFF_ProcessOutputs&#45;&gt;Workflow1WORKFLOWINTERNALSOURCE_image</title>
<path fill="none" stroke="black" d="M280.466,-352.491C278.519,-349.816 276.565,-346.88 275,-344 266.526,-328.403 259.604,-309.46 255.039,-295.371"/>
<polygon fill="black" stroke="black" points="258.336,-294.186 252.021,-285.679 251.653,-296.267 258.336,-294.186"/>
</g>
<!-- ExecuteProcess_r.colors_DataInputs -->
<g id="node43" class="node"><title>ExecuteProcess_r.colors_DataInputs</title>
<polygon fill="#ab92ea" stroke="black" points="518,-285.5 340,-285.5 340,-264.5 518,-264.5 518,-285.5"/>
<text text-anchor="middle" x="429" y="-272.5" font-family="Helvetica,sans-Serif" font-size="10.00">ExecuteProcess_r.colors_DataInputs</text>
</g>
<!-- ExecuteProcess_getIceClassMapsAsarGeoTIFF_ProcessOutputs&#45;&gt;ExecuteProcess_r.colors_DataInputs -->
<g id="edge48" class="edge"><title>ExecuteProcess_getIceClassMapsAsarGeoTIFF_ProcessOutputs&#45;&gt;ExecuteProcess_r.colors_DataInputs</title>
<path fill="none" stroke="black" d="M309.757,-352.499C314.8,-349.824 320.138,-346.886 325,-344 353.531,-327.064 385.14,-305.702 405.936,-291.268"/>
<polygon fill="black" stroke="black" points="407.948,-294.131 414.147,-285.539 403.943,-288.391 407.948,-294.131"/>
</g>
<!-- WORKFLOWINTERNALSINK_textResults -->
<g id="node54" class="node"><title>WORKFLOWINTERNALSINK_textResults</title>
<polygon fill="#bcd2ee" stroke="black" points="354,-37.5 288,-37.5 288,-16.5 354,-16.5 354,-37.5"/>
<text text-anchor="middle" x="321" y="-24.5" font-family="Helvetica,sans-Serif" font-size="10.00">textResults</text>
</g>
<!-- ExecuteProcess_getIceClassMapsAsarGeoTIFF_ProcessOutputs&#45;&gt;WORKFLOWINTERNALSINK_textResults -->
<g id="edge60" class="edge"><title>ExecuteProcess_getIceClassMapsAsarGeoTIFF_ProcessOutputs&#45;&gt;WORKFLOWINTERNALSINK_textResults</title>
<path fill="none" stroke="black" d="M298.229,-352.282C300.057,-349.707 301.785,-346.867 303,-344 321.817,-299.599 321,-285.224 321,-237 321,-237 321,-237 321,-161 321,-121.078 321,-74.4655 321,-48.0712"/>
<polygon fill="black" stroke="black" points="324.5,-47.7689 321,-37.769 317.5,-47.769 324.5,-47.7689"/>
</g>
<!-- Workflow1a_value -->
<g id="node23" class="node"><title>Workflow1a_value</title>
<polygon fill="#b0c4de" stroke="black" points="206,-285.5 156,-285.5 156,-264.5 206,-264.5 206,-285.5"/>
<text text-anchor="middle" x="181" y="-272.5" font-family="Helvetica,sans-Serif" font-size="10.00">a_value</text>
</g>
<!-- Workflow1ExecuteProcess_r.stats_DataInputs -->
<g id="node27" class="node"><title>Workflow1ExecuteProcess_r.stats_DataInputs</title>
<polygon fill="#ab92ea" stroke="black" points="268,-247.5 94,-247.5 94,-226.5 268,-226.5 268,-247.5"/>
<text text-anchor="middle" x="181" y="-234.5" font-family="Helvetica,sans-Serif" font-size="10.00">ExecuteProcess_r.stats_DataInputs</text>
</g>
<!-- Workflow1a_value&#45;&gt;Workflow1ExecuteProcess_r.stats_DataInputs -->
<g id="edge22" class="edge"><title>Workflow1a_value&#45;&gt;Workflow1ExecuteProcess_r.stats_DataInputs</title>
<path fill="none" stroke="black" d="M181,-264.212C181,-262.19 181,-260.013 181,-257.804"/>
<polygon fill="black" stroke="black" points="184.5,-257.683 181,-247.683 177.5,-257.683 184.5,-257.683"/>
</g>
<!-- Workflow1p_value -->
<g id="node24" class="node"><title>Workflow1p_value</title>
<polygon fill="#b0c4de" stroke="black" points="152,-285.5 102,-285.5 102,-264.5 152,-264.5 152,-285.5"/>
<text text-anchor="middle" x="127" y="-272.5" font-family="Helvetica,sans-Serif" font-size="10.00">p_value</text>
</g>
<!-- Workflow1p_value&#45;&gt;Workflow1ExecuteProcess_r.stats_DataInputs -->
<g id="edge24" class="edge"><title>Workflow1p_value&#45;&gt;Workflow1ExecuteProcess_r.stats_DataInputs</title>
<path fill="none" stroke="black" d="M142.042,-264.415C146.84,-261.038 152.27,-257.218 157.519,-253.524"/>
<polygon fill="black" stroke="black" points="159.875,-256.146 166.039,-247.528 155.846,-250.421 159.875,-256.146"/>
</g>
<!-- Workflow1n_value -->
<g id="node25" class="node"><title>Workflow1n_value</title>
<polygon fill="#b0c4de" stroke="black" points="98,-285.5 48,-285.5 48,-264.5 98,-264.5 98,-285.5"/>
<text text-anchor="middle" x="73" y="-272.5" font-family="Helvetica,sans-Serif" font-size="10.00">n_value</text>
</g>
<!-- Workflow1n_value&#45;&gt;Workflow1ExecuteProcess_r.stats_DataInputs -->
<g id="edge26" class="edge"><title>Workflow1n_value&#45;&gt;Workflow1ExecuteProcess_r.stats_DataInputs</title>
<path fill="none" stroke="black" d="M87.1977,-264.303C91.7421,-261.269 96.917,-258.197 102,-256 106.655,-253.988 111.561,-252.166 116.556,-250.521"/>
<polygon fill="black" stroke="black" points="117.682,-253.836 126.226,-247.571 115.64,-247.141 117.682,-253.836"/>
</g>
<!-- Workflow1ExecuteProcess_r.stats -->
<g id="node26" class="node"><title>Workflow1ExecuteProcess_r.stats</title>
<polygon fill="#a2cd5a" stroke="black" points="248,-209.5 126,-209.5 126,-188.5 248,-188.5 248,-209.5"/>
<text text-anchor="middle" x="187" y="-196.5" font-family="Helvetica,sans-Serif" font-size="10.00">ExecuteProcess_r.stats</text>
</g>
<!-- Workflow1ExecuteProcess_r.stats_ProcessOutputs -->
<g id="node28" class="node"><title>Workflow1ExecuteProcess_r.stats_ProcessOutputs</title>
<polygon fill="#ab92ea" stroke="black" points="291,-171.5 95,-171.5 95,-150.5 291,-150.5 291,-171.5"/>
<text text-anchor="middle" x="193" y="-158.5" font-family="Helvetica,sans-Serif" font-size="10.00">ExecuteProcess_r.stats_ProcessOutputs</text>
</g>
<!-- Workflow1ExecuteProcess_r.stats&#45;&gt;Workflow1ExecuteProcess_r.stats_ProcessOutputs -->
<g id="edge30" class="edge"><title>Workflow1ExecuteProcess_r.stats&#45;&gt;Workflow1ExecuteProcess_r.stats_ProcessOutputs</title>
<path fill="none" stroke="black" d="M188.703,-188.212C189.023,-186.19 189.366,-184.013 189.715,-181.804"/>
<polygon fill="black" stroke="black" points="193.211,-182.107 191.313,-171.683 186.296,-181.015 193.211,-182.107"/>
</g>
<!-- Workflow1ExecuteProcess_r.stats_DataInputs&#45;&gt;Workflow1ExecuteProcess_r.stats -->
<g id="edge20" class="edge"><title>Workflow1ExecuteProcess_r.stats_DataInputs&#45;&gt;Workflow1ExecuteProcess_r.stats</title>
<path fill="none" stroke="black" d="M182.703,-226.212C183.023,-224.19 183.366,-222.013 183.715,-219.804"/>
<polygon fill="black" stroke="black" points="187.211,-220.107 185.313,-209.683 180.296,-219.015 187.211,-220.107"/>
</g>
<!-- Workflow1WORKFLOWINTERNALSINK_stats -->
<g id="node34" class="node"><title>Workflow1WORKFLOWINTERNALSINK_stats</title>
<polygon fill="#bcd2ee" stroke="black" points="238,-112.5 200,-112.5 200,-91.5 238,-91.5 238,-112.5"/>
<text text-anchor="middle" x="219" y="-99.5" font-family="Helvetica,sans-Serif" font-size="10.00">stats</text>
</g>
<!-- Workflow1ExecuteProcess_r.stats_ProcessOutputs&#45;&gt;Workflow1WORKFLOWINTERNALSINK_stats -->
<g id="edge32" class="edge"><title>Workflow1ExecuteProcess_r.stats_ProcessOutputs&#45;&gt;Workflow1WORKFLOWINTERNALSINK_stats</title>
<path fill="none" stroke="black" d="M197.648,-150.452C201.117,-142.58 205.962,-131.586 210.16,-122.059"/>
<polygon fill="black" stroke="black" points="213.386,-123.418 214.216,-112.856 206.981,-120.595 213.386,-123.418"/>
</g>
<!-- Workflow1WORKFLOWINTERNALSOURCECONTROL -->
<g id="node30" class="node"><title>Workflow1WORKFLOWINTERNALSOURCECONTROL</title>
<polygon fill="#ff4040" stroke="black" points="284,-282 277,-271.5 291,-271.5 284,-282"/>
</g>
<!-- Workflow1WORKFLOWINTERNALSOURCE_image&#45;&gt;Workflow1ExecuteProcess_r.stats_DataInputs -->
<g id="edge28" class="edge"><title>Workflow1WORKFLOWINTERNALSOURCE_image&#45;&gt;Workflow1ExecuteProcess_r.stats_DataInputs</title>
<path fill="none" stroke="black" d="M236.17,-264.341C232.377,-261.444 228.132,-258.437 224,-256 221.643,-254.61 219.166,-253.257 216.64,-251.957"/>
<polygon fill="black" stroke="black" points="217.938,-248.697 207.411,-247.502 214.895,-255.001 217.938,-248.697"/>
</g>
<!-- Workflow1WORKFLOWINTERNALSINKCONTROL -->
<g id="node33" class="node"><title>Workflow1WORKFLOWINTERNALSINKCONTROL</title>
<polygon fill="#66cd00" stroke="black" points="255,-95 262,-105.5 248,-105.5 255,-95"/>
</g>
<!-- WORKFLOWINTERNALSINK_statsResult -->
<g id="node52" class="node"><title>WORKFLOWINTERNALSINK_statsResult</title>
<polygon fill="#bcd2ee" stroke="black" points="284,-37.5 218,-37.5 218,-16.5 284,-16.5 284,-37.5"/>
<text text-anchor="middle" x="251" y="-24.5" font-family="Helvetica,sans-Serif" font-size="10.00">statsResult</text>
</g>
<!-- Workflow1WORKFLOWINTERNALSINK_stats&#45;&gt;WORKFLOWINTERNALSINK_statsResult -->
<g id="edge56" class="edge"><title>Workflow1WORKFLOWINTERNALSINK_stats&#45;&gt;WORKFLOWINTERNALSINK_statsResult</title>
<path fill="none" stroke="black" d="M223.585,-91.2543C228.48,-79.7815 236.349,-61.3374 242.404,-47.1466"/>
<polygon fill="black" stroke="black" points="245.718,-48.2971 246.424,-37.7257 239.28,-45.55 245.718,-48.2971"/>
</g>
<!-- ExecuteProcess_r.colors -->
<g id="node42" class="node"><title>ExecuteProcess_r.colors</title>
<polygon fill="#a2cd5a" stroke="black" points="492,-247.5 366,-247.5 366,-226.5 492,-226.5 492,-247.5"/>
<text text-anchor="middle" x="429" y="-234.5" font-family="Helvetica,sans-Serif" font-size="10.00">ExecuteProcess_r.colors</text>
</g>
<!-- ExecuteProcess_r.colors_ProcessOutputs -->
<g id="node44" class="node"><title>ExecuteProcess_r.colors_ProcessOutputs</title>
<polygon fill="#ab92ea" stroke="black" points="530,-209.5 328,-209.5 328,-188.5 530,-188.5 530,-209.5"/>
<text text-anchor="middle" x="429" y="-196.5" font-family="Helvetica,sans-Serif" font-size="10.00">ExecuteProcess_r.colors_ProcessOutputs</text>
</g>
<!-- ExecuteProcess_r.colors&#45;&gt;ExecuteProcess_r.colors_ProcessOutputs -->
<g id="edge52" class="edge"><title>ExecuteProcess_r.colors&#45;&gt;ExecuteProcess_r.colors_ProcessOutputs</title>
<path fill="none" stroke="black" d="M429,-226.212C429,-224.19 429,-222.013 429,-219.804"/>
<polygon fill="black" stroke="black" points="432.5,-219.683 429,-209.683 425.5,-219.683 432.5,-219.683"/>
</g>
<!-- ExecuteProcess_r.colors_DataInputs&#45;&gt;ExecuteProcess_r.colors -->
<g id="edge46" class="edge"><title>ExecuteProcess_r.colors_DataInputs&#45;&gt;ExecuteProcess_r.colors</title>
<path fill="none" stroke="black" d="M429,-264.212C429,-262.19 429,-260.013 429,-257.804"/>
<polygon fill="black" stroke="black" points="432.5,-257.683 429,-247.683 425.5,-257.683 432.5,-257.683"/>
</g>
<!-- Decode_Base_64_to_byte_Array -->
<g id="node45" class="node"><title>Decode_Base_64_to_byte_Array</title>
<polygon fill="#d15fee" stroke="black" points="498,-171.5 338,-171.5 338,-150.5 498,-150.5 498,-171.5"/>
<text text-anchor="middle" x="418" y="-158.5" font-family="Helvetica,sans-Serif" font-size="10.00">Decode_Base_64_to_byte_Array</text>
</g>
<!-- ExecuteProcess_r.colors_ProcessOutputs&#45;&gt;Decode_Base_64_to_byte_Array -->
<g id="edge54" class="edge"><title>ExecuteProcess_r.colors_ProcessOutputs&#45;&gt;Decode_Base_64_to_byte_Array</title>
<path fill="none" stroke="black" d="M425.877,-188.212C425.268,-186.109 424.611,-183.839 423.945,-181.538"/>
<polygon fill="black" stroke="black" points="427.235,-180.315 421.092,-171.683 420.511,-182.262 427.235,-180.315"/>
</g>
<!-- WORKFLOWINTERNALSINK_imageResult -->
<g id="node53" class="node"><title>WORKFLOWINTERNALSINK_imageResult</title>
<polygon fill="#bcd2ee" stroke="black" points="428,-37.5 358,-37.5 358,-16.5 428,-16.5 428,-37.5"/>
<text text-anchor="middle" x="393" y="-24.5" font-family="Helvetica,sans-Serif" font-size="10.00">imageResult</text>
</g>
<!-- Decode_Base_64_to_byte_Array&#45;&gt;WORKFLOWINTERNALSINK_imageResult -->
<g id="edge58" class="edge"><title>Decode_Base_64_to_byte_Array&#45;&gt;WORKFLOWINTERNALSINK_imageResult</title>
<path fill="none" stroke="black" d="M416.038,-150.485C411.915,-128.383 402.283,-76.7577 396.87,-47.7427"/>
<polygon fill="black" stroke="black" points="400.297,-47.0266 395.022,-37.8381 393.416,-48.3104 400.297,-47.0266"/>
</g>
<!-- WORKFLOWINTERNALSOURCECONTROL -->
<g id="node47" class="node"><title>WORKFLOWINTERNALSOURCECONTROL</title>
<polygon fill="#ff4040" stroke="black" points="519,-656 512,-645.5 526,-645.5 519,-656"/>
</g>
<!-- WORKFLOWINTERNALSOURCE_dateReg -->
<g id="node48" class="node"><title>WORKFLOWINTERNALSOURCE_dateReg</title>
<polygon fill="skyblue" stroke="black" points="442,-659.5 390,-659.5 390,-638.5 442,-638.5 442,-659.5"/>
<text text-anchor="middle" x="416" y="-646.5" font-family="Helvetica,sans-Serif" font-size="10.00">dateReg</text>
</g>
<!-- WORKFLOWINTERNALSOURCE_dateReg&#45;&gt;Workflow15WORKFLOWINTERNALSOURCE_filterDate -->
<g id="edge36" class="edge"><title>WORKFLOWINTERNALSOURCE_dateReg&#45;&gt;Workflow15WORKFLOWINTERNALSOURCE_filterDate</title>
<path fill="none" stroke="black" d="M395.026,-638.391C388.69,-635.43 381.649,-632.376 375,-630 361.601,-625.211 355.946,-629.73 344,-622 335.843,-616.722 328.82,-608.664 323.449,-601.16"/>
<polygon fill="black" stroke="black" points="326.364,-599.222 317.934,-592.805 320.522,-603.079 326.364,-599.222"/>
</g>
<!-- WORKFLOWINTERNALSOURCE_colorTable -->
<g id="node49" class="node"><title>WORKFLOWINTERNALSOURCE_colorTable</title>
<polygon fill="skyblue" stroke="black" points="508,-659.5 446,-659.5 446,-638.5 508,-638.5 508,-659.5"/>
<text text-anchor="middle" x="477" y="-646.5" font-family="Helvetica,sans-Serif" font-size="10.00">colorTable</text>
</g>
<!-- WORKFLOWINTERNALSOURCE_colorTable&#45;&gt;ExecuteProcess_r.colors_DataInputs -->
<g id="edge50" class="edge"><title>WORKFLOWINTERNALSOURCE_colorTable&#45;&gt;ExecuteProcess_r.colors_DataInputs</title>
<path fill="none" stroke="black" d="M474.455,-638.34C470.176,-619.448 462,-578.803 462,-544 462,-544 462,-544 462,-401 462,-362.417 447.34,-319.293 437.563,-294.82"/>
<polygon fill="black" stroke="black" points="440.782,-293.447 433.728,-285.542 434.313,-296.121 440.782,-293.447"/>
</g>
<!-- WORKFLOWINTERNALSINKCONTROL -->
<g id="node51" class="node"><title>WORKFLOWINTERNALSINKCONTROL</title>
<polygon fill="#66cd00" stroke="black" points="439,-20 446,-30.5 432,-30.5 439,-20"/>
</g>
</g>
</svg>
