<?xml version="1.0" encoding="UTF-8" standalone="no"?>
<!DOCTYPE svg PUBLIC "-//W3C//DTD SVG 1.1//EN"
 "http://www.w3.org/Graphics/SVG/1.1/DTD/svg11.dtd">
<!-- Generated by graphviz version 2.26.0 (20091210.2329)
 -->
<!-- Title: t2flow_graph Pages: 1 -->
<svg width="460pt" height="623pt"
 viewBox="0.00 0.00 460.00 623.00" xmlns="http://www.w3.org/2000/svg" xmlns:xlink="http://www.w3.org/1999/xlink">
<g id="graph1" class="graph" transform="scale(1 1) rotate(0) translate(4 619)">
<title>t2flow_graph</title>
<polygon fill="white" stroke="white" points="-4,5 -4,-619 457,-619 457,5 -4,5"/>
<g id="graph2" class="cluster"><title>cluster_readLinesFilereadLinesFile</title>
<polygon fill="aliceblue" stroke="black" points="122,-316 122,-585 374,-585 374,-316 122,-316"/>
<text text-anchor="middle" x="159" y="-572" font-family="Helvetica,sans-Serif" font-size="10.00">readLinesFile</text>
</g>
<g id="graph3" class="cluster"><title>cluster_readLinesFilesources</title>
<polygon fill="none" stroke="black" stroke-dasharray="1,5" points="278,-497 278,-556 366,-556 366,-497 278,-497"/>
<text text-anchor="middle" x="322" y="-543" font-family="Helvetica,sans-Serif" font-size="10.00">Workflow Inputs</text>
</g>
<g id="graph4" class="cluster"><title>cluster_readLinesFilesinks</title>
<polygon fill="none" stroke="black" stroke-dasharray="1,5" points="210,-324 210,-383 305,-383 305,-324 210,-324"/>
<text text-anchor="middle" x="257.5" y="-370" font-family="Helvetica,sans-Serif" font-size="10.00">Workflow Outputs</text>
</g>
<g id="graph5" class="cluster"><title>cluster_sources</title>
<polygon fill="none" stroke="black" stroke-dasharray="1,5" points="260,-219 260,-278 348,-278 348,-219 260,-219"/>
<text text-anchor="middle" x="304" y="-265" font-family="Helvetica,sans-Serif" font-size="10.00">Workflow Inputs</text>
</g>
<g id="graph6" class="cluster"><title>cluster_sinks</title>
<polygon fill="none" stroke="black" stroke-dasharray="1,5" points="177,-8 177,-67 367,-67 367,-8 177,-8"/>
<text text-anchor="middle" x="224.5" y="-54" font-family="Helvetica,sans-Serif" font-size="10.00">Workflow Outputs</text>
</g>
<!-- REST_Service -->
<g id="node1" class="node"><title>REST_Service</title>
<polygon fill="#7aafff" stroke="black" points="289,-307.5 207,-307.5 207,-286.5 289,-286.5 289,-307.5"/>
<text text-anchor="middle" x="248" y="-294.5" font-family="Helvetica,sans-Serif" font-size="10.00">REST_Service</text>
</g>
<!-- Write_Text_File -->
<g id="node3" class="node"><title>Write_Text_File</title>
<polygon fill="#d15fee" stroke="black" points="252,-248.5 166,-248.5 166,-227.5 252,-227.5 252,-248.5"/>
<text text-anchor="middle" x="209" y="-235.5" font-family="Helvetica,sans-Serif" font-size="10.00">Write_Text_File</text>
</g>
<!-- REST_Service&#45;&gt;Write_Text_File -->
<g id="edge31" class="edge"><title>REST_Service&#45;&gt;Write_Text_File</title>
<path fill="none" stroke="black" d="M241.028,-286.452C235.714,-278.414 228.25,-267.121 221.863,-257.46"/>
<polygon fill="black" stroke="black" points="224.61,-255.268 216.176,-248.856 218.771,-259.128 224.61,-255.268"/>
</g>
<!-- extractPropertyValue -->
<g id="node2" class="node"><title>extractPropertyValue</title>
<polygon fill="#f28c55" stroke="black" points="331,-210.5 223,-210.5 223,-189.5 331,-189.5 331,-210.5"/>
<text text-anchor="middle" x="277" y="-197.5" font-family="Helvetica,sans-Serif" font-size="10.00">extractPropertyValue</text>
</g>
<!-- Merge_String_List_to_a_String -->
<g id="node28" class="node"><title>Merge_String_List_to_a_String</title>
<polygon fill="#d15fee" stroke="black" points="352,-172.5 202,-172.5 202,-151.5 352,-151.5 352,-172.5"/>
<text text-anchor="middle" x="277" y="-159.5" font-family="Helvetica,sans-Serif" font-size="10.00">Merge_String_List_to_a_String</text>
</g>
<!-- extractPropertyValue&#45;&gt;Merge_String_List_to_a_String -->
<g id="edge37" class="edge"><title>extractPropertyValue&#45;&gt;Merge_String_List_to_a_String</title>
<path fill="none" stroke="black" d="M277,-189.212C277,-187.19 277,-185.013 277,-182.804"/>
<polygon fill="black" stroke="black" points="280.5,-182.683 277,-172.683 273.5,-182.683 280.5,-182.683"/>
</g>
<!-- Write_Text_File&#45;&gt;extractPropertyValue -->
<g id="edge25" class="edge"><title>Write_Text_File&#45;&gt;extractPropertyValue</title>
<path fill="none" stroke="black" d="M227.942,-227.415C234.573,-223.709 242.163,-219.468 249.358,-215.447"/>
<polygon fill="black" stroke="black" points="251.138,-218.462 258.16,-210.528 247.723,-212.351 251.138,-218.462"/>
</g>
<!-- encoding_value_1 -->
<g id="node4" class="node"><title>encoding_value_1</title>
<polygon fill="#b0c4de" stroke="black" points="393,-307.5 299,-307.5 299,-286.5 393,-286.5 393,-307.5"/>
<text text-anchor="middle" x="346" y="-294.5" font-family="Helvetica,sans-Serif" font-size="10.00">encoding_value_1</text>
</g>
<!-- encoding_value_1&#45;&gt;Write_Text_File -->
<g id="edge29" class="edge"><title>encoding_value_1&#45;&gt;Write_Text_File</title>
<path fill="none" stroke="black" d="M298.579,-287.597C280.355,-283.802 262.942,-279.88 259,-278 247.322,-272.433 235.929,-263.661 226.975,-255.749"/>
<polygon fill="black" stroke="black" points="229.219,-253.057 219.499,-248.841 224.468,-258.198 229.219,-253.057"/>
</g>
<!-- Write_Text_File_3 -->
<g id="node29" class="node"><title>Write_Text_File_3</title>
<polygon fill="#d15fee" stroke="black" points="351,-134.5 255,-134.5 255,-113.5 351,-113.5 351,-134.5"/>
<text text-anchor="middle" x="303" y="-121.5" font-family="Helvetica,sans-Serif" font-size="10.00">Write_Text_File_3</text>
</g>
<!-- encoding_value_1&#45;&gt;Write_Text_File_3 -->
<g id="edge39" class="edge"><title>encoding_value_1&#45;&gt;Write_Text_File_3</title>
<path fill="none" stroke="black" d="M350.167,-286.141C359.26,-260.516 378.064,-195.121 352,-151 349.507,-146.779 346.092,-143.174 342.216,-140.104"/>
<polygon fill="black" stroke="black" points="344.036,-137.112 333.76,-134.532 340.185,-142.957 344.036,-137.112"/>
</g>
<!-- outputFile_value -->
<g id="node5" class="node"><title>outputFile_value</title>
<polygon fill="#b0c4de" stroke="black" points="203,-307.5 115,-307.5 115,-286.5 203,-286.5 203,-307.5"/>
<text text-anchor="middle" x="159" y="-294.5" font-family="Helvetica,sans-Serif" font-size="10.00">outputFile_value</text>
</g>
<!-- outputFile_value&#45;&gt;Write_Text_File -->
<g id="edge33" class="edge"><title>outputFile_value&#45;&gt;Write_Text_File</title>
<path fill="none" stroke="black" d="M167.939,-286.452C174.961,-278.166 184.916,-266.42 193.264,-256.568"/>
<polygon fill="black" stroke="black" points="196.005,-258.748 199.8,-248.856 190.665,-254.222 196.005,-258.748"/>
</g>
<!-- readLinesFileSelect_File -->
<g id="node7" class="node"><title>readLinesFileSelect_File</title>
<polygon fill="#d15fee" stroke="black" points="282,-488.5 218,-488.5 218,-467.5 282,-467.5 282,-488.5"/>
<text text-anchor="middle" x="250" y="-475.5" font-family="Helvetica,sans-Serif" font-size="10.00">Select_File</text>
</g>
<!-- readLinesFileRead_Text_File -->
<g id="node9" class="node"><title>readLinesFileRead_Text_File</title>
<polygon fill="#d15fee" stroke="black" points="292,-450.5 206,-450.5 206,-429.5 292,-429.5 292,-450.5"/>
<text text-anchor="middle" x="249" y="-437.5" font-family="Helvetica,sans-Serif" font-size="10.00">Read_Text_File</text>
</g>
<!-- readLinesFileSelect_File&#45;&gt;readLinesFileRead_Text_File -->
<g id="edge13" class="edge"><title>readLinesFileSelect_File&#45;&gt;readLinesFileRead_Text_File</title>
<path fill="none" stroke="black" d="M249.716,-467.212C249.663,-465.19 249.606,-463.013 249.547,-460.804"/>
<polygon fill="black" stroke="black" points="253.043,-460.588 249.281,-450.683 246.046,-460.772 253.043,-460.588"/>
</g>
<!-- readLinesFilefileExtensions_value -->
<g id="node8" class="node"><title>readLinesFilefileExtensions_value</title>
<polygon fill="#b0c4de" stroke="black" points="270,-526.5 164,-526.5 164,-505.5 270,-505.5 270,-526.5"/>
<text text-anchor="middle" x="217" y="-513.5" font-family="Helvetica,sans-Serif" font-size="10.00">fileExtensions_value</text>
</g>
<!-- readLinesFilefileExtensions_value&#45;&gt;readLinesFileSelect_File -->
<g id="edge5" class="edge"><title>readLinesFilefileExtensions_value&#45;&gt;readLinesFileSelect_File</title>
<path fill="none" stroke="black" d="M225,-505.212C227.295,-502.461 229.887,-499.426 232.513,-496.41"/>
<polygon fill="black" stroke="black" points="235.347,-498.489 239.358,-488.683 230.107,-493.847 235.347,-498.489"/>
</g>
<!-- readLinesFilefileExtensions_value&#45;&gt;readLinesFileSelect_File -->
<g id="edge7" class="edge"><title>readLinesFilefileExtensions_value&#45;&gt;readLinesFileSelect_File</title>
<path fill="none" stroke="black" d="M227.736,-505.212C230.219,-502.461 232.899,-499.426 235.511,-496.41"/>
<polygon fill="black" stroke="black" points="238.272,-498.567 242.087,-488.683 232.941,-494.031 238.272,-498.567"/>
</g>
<!-- readLinesFileSplit_string_into_string_list_by_regular_expression -->
<g id="node11" class="node"><title>readLinesFileSplit_string_into_string_list_by_regular_expression</title>
<polygon fill="#d15fee" stroke="black" points="366,-412.5 130,-412.5 130,-391.5 366,-391.5 366,-412.5"/>
<text text-anchor="middle" x="248" y="-399.5" font-family="Helvetica,sans-Serif" font-size="10.00">Split_string_into_string_list_by_regular_expression</text>
</g>
<!-- readLinesFileRead_Text_File&#45;&gt;readLinesFileSplit_string_into_string_list_by_regular_expression -->
<g id="edge15" class="edge"><title>readLinesFileRead_Text_File&#45;&gt;readLinesFileSplit_string_into_string_list_by_regular_expression</title>
<path fill="none" stroke="black" d="M248.716,-429.212C248.663,-427.19 248.606,-425.013 248.547,-422.804"/>
<polygon fill="black" stroke="black" points="252.043,-422.588 248.281,-412.683 245.046,-422.772 252.043,-422.588"/>
</g>
<!-- readLinesFileencoding_value -->
<g id="node10" class="node"><title>readLinesFileencoding_value</title>
<polygon fill="#b0c4de" stroke="black" points="214,-488.5 130,-488.5 130,-467.5 214,-467.5 214,-488.5"/>
<text text-anchor="middle" x="172" y="-475.5" font-family="Helvetica,sans-Serif" font-size="10.00">encoding_value</text>
</g>
<!-- readLinesFileencoding_value&#45;&gt;readLinesFileRead_Text_File -->
<g id="edge11" class="edge"><title>readLinesFileencoding_value&#45;&gt;readLinesFileRead_Text_File</title>
<path fill="none" stroke="black" d="M193.449,-467.415C201.208,-463.585 210.126,-459.185 218.513,-455.046"/>
<polygon fill="black" stroke="black" points="220.248,-458.093 227.666,-450.528 217.15,-451.815 220.248,-458.093"/>
</g>
<!-- readLinesFileWORKFLOWINTERNALSINK_lines -->
<g id="node18" class="node"><title>readLinesFileWORKFLOWINTERNALSINK_lines</title>
<polygon fill="#bcd2ee" stroke="black" points="266,-353.5 230,-353.5 230,-332.5 266,-332.5 266,-353.5"/>
<text text-anchor="middle" x="248" y="-340.5" font-family="Helvetica,sans-Serif" font-size="10.00">lines</text>
</g>
<!-- readLinesFileSplit_string_into_string_list_by_regular_expression&#45;&gt;readLinesFileWORKFLOWINTERNALSINK_lines -->
<g id="edge19" class="edge"><title>readLinesFileSplit_string_into_string_list_by_regular_expression&#45;&gt;readLinesFileWORKFLOWINTERNALSINK_lines</title>
<path fill="none" stroke="black" d="M248,-391.452C248,-383.829 248,-373.277 248,-363.966"/>
<polygon fill="black" stroke="black" points="251.5,-363.856 248,-353.856 244.5,-363.856 251.5,-363.856"/>
</g>
<!-- readLinesFileregex_value -->
<g id="node12" class="node"><title>readLinesFileregex_value</title>
<polygon fill="#b0c4de" stroke="black" points="202,-450.5 134,-450.5 134,-429.5 202,-429.5 202,-450.5"/>
<text text-anchor="middle" x="168" y="-437.5" font-family="Helvetica,sans-Serif" font-size="10.00">regex_value</text>
</g>
<!-- readLinesFileregex_value&#45;&gt;readLinesFileSplit_string_into_string_list_by_regular_expression -->
<g id="edge17" class="edge"><title>readLinesFileregex_value&#45;&gt;readLinesFileSplit_string_into_string_list_by_regular_expression</title>
<path fill="none" stroke="black" d="M190.284,-429.415C198.433,-425.544 207.811,-421.09 216.606,-416.912"/>
<polygon fill="black" stroke="black" points="218.304,-419.98 225.835,-412.528 215.301,-413.658 218.304,-419.98"/>
</g>
<!-- readLinesFileWORKFLOWINTERNALSOURCECONTROL -->
<g id="node14" class="node"><title>readLinesFileWORKFLOWINTERNALSOURCECONTROL</title>
<polygon fill="#ff4040" stroke="black" points="340,-523 333,-512.5 347,-512.5 340,-523"/>
</g>
<!-- readLinesFileWORKFLOWINTERNALSOURCE_title -->
<g id="node15" class="node"><title>readLinesFileWORKFLOWINTERNALSOURCE_title</title>
<polygon fill="skyblue" stroke="black" points="318,-526.5 286,-526.5 286,-505.5 318,-505.5 318,-526.5"/>
<text text-anchor="middle" x="302" y="-513.5" font-family="Helvetica,sans-Serif" font-size="10.00">title</text>
</g>
<!-- readLinesFileWORKFLOWINTERNALSOURCE_title&#45;&gt;readLinesFileSelect_File -->
<g id="edge9" class="edge"><title>readLinesFileWORKFLOWINTERNALSOURCE_title&#45;&gt;readLinesFileSelect_File</title>
<path fill="none" stroke="black" d="M291.807,-505.478C288.774,-502.583 285.361,-499.543 282,-497 280.776,-496.074 279.504,-495.156 278.203,-494.253"/>
<polygon fill="black" stroke="black" points="279.706,-491.058 269.406,-488.576 275.91,-496.939 279.706,-491.058"/>
</g>
<!-- readLinesFileWORKFLOWINTERNALSINKCONTROL -->
<g id="node17" class="node"><title>readLinesFileWORKFLOWINTERNALSINKCONTROL</title>
<polygon fill="#66cd00" stroke="black" points="283,-336 290,-346.5 276,-346.5 283,-336"/>
</g>
<!-- readLinesFileWORKFLOWINTERNALSINK_lines&#45;&gt;REST_Service -->
<g id="edge23" class="edge"><title>readLinesFileWORKFLOWINTERNALSINK_lines&#45;&gt;REST_Service</title>
<path fill="none" stroke="black" d="M248,-332.331C248,-328.035 248,-322.923 248,-317.942"/>
<polygon fill="black" stroke="black" points="251.5,-317.611 248,-307.611 244.5,-317.611 251.5,-317.611"/>
</g>
<!-- Names_galaxies -->
<g id="node27" class="node"><title>Names_galaxies</title>
<polygon fill="#b0c4de" stroke="black" points="346,-614.5 258,-614.5 258,-593.5 346,-593.5 346,-614.5"/>
<text text-anchor="middle" x="302" y="-601.5" font-family="Helvetica,sans-Serif" font-size="10.00">Names_galaxies</text>
</g>
<!-- Names_galaxies&#45;&gt;readLinesFileWORKFLOWINTERNALSOURCE_title -->
<g id="edge35" class="edge"><title>Names_galaxies&#45;&gt;readLinesFileWORKFLOWINTERNALSOURCE_title</title>
<path fill="none" stroke="black" d="M302,-593.209C302,-579.213 302,-554.498 302,-536.799"/>
<polygon fill="black" stroke="black" points="305.5,-536.604 302,-526.604 298.5,-536.604 305.5,-536.604"/>
</g>
<!-- Merge_String_List_to_a_String&#45;&gt;Write_Text_File_3 -->
<g id="edge41" class="edge"><title>Merge_String_List_to_a_String&#45;&gt;Write_Text_File_3</title>
<path fill="none" stroke="black" d="M284.381,-151.212C286.153,-148.623 288.097,-145.782 290.039,-142.943"/>
<polygon fill="black" stroke="black" points="292.932,-144.913 295.691,-134.683 287.155,-140.96 292.932,-144.913"/>
</g>
<!-- Make_comparing_file -->
<g id="node35" class="node"><title>Make_comparing_file</title>
<polygon fill="#f28c55" stroke="black" points="277,-96.5 169,-96.5 169,-75.5 277,-75.5 277,-96.5"/>
<text text-anchor="middle" x="223" y="-83.5" font-family="Helvetica,sans-Serif" font-size="10.00">Make_comparing_file</text>
</g>
<!-- Write_Text_File_3&#45;&gt;Make_comparing_file -->
<g id="edge53" class="edge"><title>Write_Text_File_3&#45;&gt;Make_comparing_file</title>
<path fill="none" stroke="black" d="M280.716,-113.415C272.567,-109.544 263.189,-105.09 254.394,-100.912"/>
<polygon fill="black" stroke="black" points="255.699,-97.6575 245.165,-96.5284 252.696,-103.98 255.699,-97.6575"/>
</g>
<!-- WORKFLOWINTERNALSINK_remoteValues -->
<g id="node41" class="node"><title>WORKFLOWINTERNALSINK_remoteValues</title>
<polygon fill="#bcd2ee" stroke="black" points="341,-37.5 265,-37.5 265,-16.5 341,-16.5 341,-37.5"/>
<text text-anchor="middle" x="303" y="-24.5" font-family="Helvetica,sans-Serif" font-size="10.00">remoteValues</text>
</g>
<!-- Write_Text_File_3&#45;&gt;WORKFLOWINTERNALSINK_remoteValues -->
<g id="edge55" class="edge"><title>Write_Text_File_3&#45;&gt;WORKFLOWINTERNALSINK_remoteValues</title>
<path fill="none" stroke="black" d="M303,-113.249C303,-97.4334 303,-67.6032 303,-47.513"/>
<polygon fill="black" stroke="black" points="306.5,-47.5046 303,-37.5046 299.5,-47.5047 306.5,-47.5046"/>
</g>
<!-- RemotesValues -->
<g id="node30" class="node"><title>RemotesValues</title>
<polygon fill="#b0c4de" stroke="black" points="452,-172.5 366,-172.5 366,-151.5 452,-151.5 452,-172.5"/>
<text text-anchor="middle" x="409" y="-159.5" font-family="Helvetica,sans-Serif" font-size="10.00">RemotesValues</text>
</g>
<!-- RemotesValues&#45;&gt;Write_Text_File_3 -->
<g id="edge43" class="edge"><title>RemotesValues&#45;&gt;Write_Text_File_3</title>
<path fill="none" stroke="black" d="M379.473,-151.415C367.872,-147.256 354.391,-142.423 342.008,-137.984"/>
<polygon fill="black" stroke="black" points="342.963,-134.608 332.369,-134.528 340.601,-141.198 342.963,-134.608"/>
</g>
<!-- Select_File -->
<g id="node31" class="node"><title>Select_File</title>
<polygon fill="#d15fee" stroke="black" points="164,-134.5 100,-134.5 100,-113.5 164,-113.5 164,-134.5"/>
<text text-anchor="middle" x="132" y="-121.5" font-family="Helvetica,sans-Serif" font-size="10.00">Select_File</text>
</g>
<!-- Select_File&#45;&gt;Make_comparing_file -->
<g id="edge51" class="edge"><title>Select_File&#45;&gt;Make_comparing_file</title>
<path fill="none" stroke="black" d="M157.349,-113.415C166.913,-109.421 177.967,-104.805 188.245,-100.513"/>
<polygon fill="black" stroke="black" points="189.908,-103.611 197.787,-96.5284 187.211,-97.152 189.908,-103.611"/>
</g>
<!-- extension_TXT -->
<g id="node32" class="node"><title>extension_TXT</title>
<polygon fill="#b0c4de" stroke="black" points="82,-172.5 4.26326e-14,-172.5 0,-151.5 82,-151.5 82,-172.5"/>
<text text-anchor="middle" x="41" y="-159.5" font-family="Helvetica,sans-Serif" font-size="10.00">extension_TXT</text>
</g>
<!-- extension_TXT&#45;&gt;Select_File -->
<g id="edge45" class="edge"><title>extension_TXT&#45;&gt;Select_File</title>
<path fill="none" stroke="black" d="M66.3486,-151.415C75.9134,-147.421 86.9671,-142.805 97.245,-138.513"/>
<polygon fill="black" stroke="black" points="98.9083,-141.611 106.787,-134.528 96.2109,-135.152 98.9083,-141.611"/>
</g>
<!-- TXT -->
<g id="node33" class="node"><title>TXT</title>
<polygon fill="#b0c4de" stroke="black" points="120,-172.5 86,-172.5 86,-151.5 120,-151.5 120,-172.5"/>
<text text-anchor="middle" x="103" y="-159.5" font-family="Helvetica,sans-Serif" font-size="10.00">TXT</text>
</g>
<!-- TXT&#45;&gt;Select_File -->
<g id="edge47" class="edge"><title>TXT&#45;&gt;Select_File</title>
<path fill="none" stroke="black" d="M111.233,-151.212C113.27,-148.542 115.513,-145.604 117.747,-142.676"/>
<polygon fill="black" stroke="black" points="120.563,-144.756 123.847,-134.683 114.998,-140.509 120.563,-144.756"/>
</g>
<!-- Local_Values -->
<g id="node34" class="node"><title>Local_Values</title>
<polygon fill="#b0c4de" stroke="black" points="198,-172.5 124,-172.5 124,-151.5 198,-151.5 198,-172.5"/>
<text text-anchor="middle" x="161" y="-159.5" font-family="Helvetica,sans-Serif" font-size="10.00">Local_Values</text>
</g>
<!-- Local_Values&#45;&gt;Select_File -->
<g id="edge49" class="edge"><title>Local_Values&#45;&gt;Select_File</title>
<path fill="none" stroke="black" d="M152.767,-151.212C150.73,-148.542 148.487,-145.604 146.253,-142.676"/>
<polygon fill="black" stroke="black" points="149.002,-140.509 140.153,-134.683 143.437,-144.756 149.002,-140.509"/>
</g>
<!-- WORKFLOWINTERNALSINK_comparingFile -->
<g id="node42" class="node"><title>WORKFLOWINTERNALSINK_comparingFile</title>
<polygon fill="#bcd2ee" stroke="black" points="261,-37.5 185,-37.5 185,-16.5 261,-16.5 261,-37.5"/>
<text text-anchor="middle" x="223" y="-24.5" font-family="Helvetica,sans-Serif" font-size="10.00">comparingFile</text>
</g>
<!-- Make_comparing_file&#45;&gt;WORKFLOWINTERNALSINK_comparingFile -->
<g id="edge57" class="edge"><title>Make_comparing_file&#45;&gt;WORKFLOWINTERNALSINK_comparingFile</title>
<path fill="none" stroke="black" d="M223,-75.452C223,-67.8285 223,-57.2768 223,-47.966"/>
<polygon fill="black" stroke="black" points="226.5,-47.8558 223,-37.8559 219.5,-47.8559 226.5,-47.8558"/>
</g>
<!-- WORKFLOWINTERNALSOURCECONTROL -->
<g id="node37" class="node"><title>WORKFLOWINTERNALSOURCECONTROL</title>
<polygon fill="#ff4040" stroke="black" points="332,-245 325,-234.5 339,-234.5 332,-245"/>
</g>
<!-- WORKFLOWINTERNALSOURCE_property -->
<g id="node38" class="node"><title>WORKFLOWINTERNALSOURCE_property</title>
<polygon fill="skyblue" stroke="black" points="320,-248.5 268,-248.5 268,-227.5 320,-227.5 320,-248.5"/>
<text text-anchor="middle" x="294" y="-235.5" font-family="Helvetica,sans-Serif" font-size="10.00">property</text>
</g>
<!-- WORKFLOWINTERNALSOURCE_property&#45;&gt;extractPropertyValue -->
<g id="edge27" class="edge"><title>WORKFLOWINTERNALSOURCE_property&#45;&gt;extractPropertyValue</title>
<path fill="none" stroke="black" d="M289.174,-227.212C288.16,-224.947 287.061,-222.488 285.95,-220.007"/>
<polygon fill="black" stroke="black" points="289.058,-218.382 281.779,-210.683 282.668,-221.241 289.058,-218.382"/>
</g>
<!-- WORKFLOWINTERNALSINKCONTROL -->
<g id="node40" class="node"><title>WORKFLOWINTERNALSINKCONTROL</title>
<polygon fill="#66cd00" stroke="black" points="352,-20 359,-30.5 345,-30.5 352,-20"/>
</g>
</g>
</svg>
