<?xml version="1.0" encoding="UTF-8" standalone="no"?>
<!DOCTYPE svg PUBLIC "-//W3C//DTD SVG 1.1//EN"
 "http://www.w3.org/Graphics/SVG/1.1/DTD/svg11.dtd">
<!-- Generated by graphviz version 2.26.0 (20091210.2329)
 -->
<!-- Title: t2flow_graph Pages: 1 -->
<svg width="616pt" height="750pt"
 viewBox="0.00 0.00 616.00 750.00" xmlns="http://www.w3.org/2000/svg" xmlns:xlink="http://www.w3.org/1999/xlink">
<g id="graph1" class="graph" transform="scale(1 1) rotate(0) translate(4 746)">
<title>t2flow_graph</title>
<polygon fill="white" stroke="white" points="-4,5 -4,-746 613,-746 613,5 -4,5"/>
<g id="graph2" class="cluster"><title>cluster_sources</title>
<polygon fill="none" stroke="black" stroke-dasharray="1,5" points="78,-675 78,-734 600,-734 600,-675 78,-675"/>
<text text-anchor="middle" x="122" y="-721" font-family="Helvetica,sans-Serif" font-size="10.00">Workflow Inputs</text>
</g>
<g id="graph3" class="cluster"><title>cluster_sinks</title>
<polygon fill="none" stroke="black" stroke-dasharray="1,5" points="125,-8 125,-67 220,-67 220,-8 125,-8"/>
<text text-anchor="middle" x="172.5" y="-54" font-family="Helvetica,sans-Serif" font-size="10.00">Workflow Outputs</text>
</g>
<!-- tjoin_2 -->
<g id="node1" class="node"><title>tjoin_2</title>
<polygon fill="white" stroke="black" points="179,-666.5 135,-666.5 135,-645.5 179,-645.5 179,-666.5"/>
<text text-anchor="middle" x="157" y="-653.5" font-family="Helvetica,sans-Serif" font-size="10.00">tjoin_2</text>
</g>
<!-- tjoin_3 -->
<g id="node2" class="node"><title>tjoin_3</title>
<polygon fill="white" stroke="black" points="227,-628.5 183,-628.5 183,-607.5 227,-607.5 227,-628.5"/>
<text text-anchor="middle" x="205" y="-615.5" font-family="Helvetica,sans-Serif" font-size="10.00">tjoin_3</text>
</g>
<!-- tjoin_2&#45;&gt;tjoin_3 -->
<g id="edge8" class="edge"><title>tjoin_2&#45;&gt;tjoin_3</title>
<path fill="none" stroke="black" d="M170.371,-645.415C174.532,-642.121 179.227,-638.404 183.786,-634.794"/>
<polygon fill="black" stroke="black" points="186.033,-637.48 191.701,-628.528 181.688,-631.991 186.033,-637.48"/>
</g>
<!-- tjoin_4 -->
<g id="node3" class="node"><title>tjoin_4</title>
<polygon fill="white" stroke="black" points="258,-590.5 214,-590.5 214,-569.5 258,-569.5 258,-590.5"/>
<text text-anchor="middle" x="236" y="-577.5" font-family="Helvetica,sans-Serif" font-size="10.00">tjoin_4</text>
</g>
<!-- tjoin_3&#45;&gt;tjoin_4 -->
<g id="edge14" class="edge"><title>tjoin_3&#45;&gt;tjoin_4</title>
<path fill="none" stroke="black" d="M213.8,-607.212C215.979,-604.542 218.376,-601.604 220.764,-598.676"/>
<polygon fill="black" stroke="black" points="223.676,-600.644 227.285,-590.683 218.252,-596.219 223.676,-600.644"/>
</g>
<!-- tjoin_5 -->
<g id="node4" class="node"><title>tjoin_5</title>
<polygon fill="white" stroke="black" points="290,-552.5 246,-552.5 246,-531.5 290,-531.5 290,-552.5"/>
<text text-anchor="middle" x="268" y="-539.5" font-family="Helvetica,sans-Serif" font-size="10.00">tjoin_5</text>
</g>
<!-- tjoin_4&#45;&gt;tjoin_5 -->
<g id="edge16" class="edge"><title>tjoin_4&#45;&gt;tjoin_5</title>
<path fill="none" stroke="black" d="M245.084,-569.212C247.401,-566.461 249.957,-563.426 252.497,-560.41"/>
<polygon fill="black" stroke="black" points="255.24,-562.587 259.004,-552.683 249.885,-558.078 255.24,-562.587"/>
</g>
<!-- tjoin_6 -->
<g id="node5" class="node"><title>tjoin_6</title>
<polygon fill="white" stroke="black" points="342,-514.5 298,-514.5 298,-493.5 342,-493.5 342,-514.5"/>
<text text-anchor="middle" x="320" y="-501.5" font-family="Helvetica,sans-Serif" font-size="10.00">tjoin_6</text>
</g>
<!-- tjoin_5&#45;&gt;tjoin_6 -->
<g id="edge20" class="edge"><title>tjoin_5&#45;&gt;tjoin_6</title>
<path fill="none" stroke="black" d="M282.485,-531.415C287.105,-528.038 292.334,-524.218 297.388,-520.524"/>
<polygon fill="black" stroke="black" points="299.584,-523.254 305.593,-514.528 295.454,-517.603 299.584,-523.254"/>
</g>
<!-- tjoin_7 -->
<g id="node6" class="node"><title>tjoin_7</title>
<polygon fill="white" stroke="black" points="395,-476.5 351,-476.5 351,-455.5 395,-455.5 395,-476.5"/>
<text text-anchor="middle" x="373" y="-463.5" font-family="Helvetica,sans-Serif" font-size="10.00">tjoin_7</text>
</g>
<!-- tjoin_6&#45;&gt;tjoin_7 -->
<g id="edge24" class="edge"><title>tjoin_6&#45;&gt;tjoin_7</title>
<path fill="none" stroke="black" d="M334.763,-493.415C339.473,-490.038 344.802,-486.218 349.954,-482.524"/>
<polygon fill="black" stroke="black" points="352.228,-485.2 358.316,-476.528 348.149,-479.511 352.228,-485.2"/>
</g>
<!-- tjoin_8 -->
<g id="node7" class="node"><title>tjoin_8</title>
<polygon fill="white" stroke="black" points="429,-438.5 385,-438.5 385,-417.5 429,-417.5 429,-438.5"/>
<text text-anchor="middle" x="407" y="-425.5" font-family="Helvetica,sans-Serif" font-size="10.00">tjoin_8</text>
</g>
<!-- tjoin_7&#45;&gt;tjoin_8 -->
<g id="edge28" class="edge"><title>tjoin_7&#45;&gt;tjoin_8</title>
<path fill="none" stroke="black" d="M382.652,-455.212C385.186,-452.38 387.989,-449.247 390.766,-446.144"/>
<polygon fill="black" stroke="black" points="393.382,-448.469 397.441,-438.683 388.165,-443.802 393.382,-448.469"/>
</g>
<!-- tjoin_9 -->
<g id="node8" class="node"><title>tjoin_9</title>
<polygon fill="white" stroke="black" points="459,-400.5 415,-400.5 415,-379.5 459,-379.5 459,-400.5"/>
<text text-anchor="middle" x="437" y="-387.5" font-family="Helvetica,sans-Serif" font-size="10.00">tjoin_9</text>
</g>
<!-- tjoin_8&#45;&gt;tjoin_9 -->
<g id="edge32" class="edge"><title>tjoin_8&#45;&gt;tjoin_9</title>
<path fill="none" stroke="black" d="M415.517,-417.212C417.625,-414.542 419.944,-411.604 422.255,-408.676"/>
<polygon fill="black" stroke="black" points="425.117,-410.701 428.566,-400.683 419.622,-406.363 425.117,-410.701"/>
</g>
<!-- tjoin_10 -->
<g id="node9" class="node"><title>tjoin_10</title>
<polygon fill="white" stroke="black" points="494,-362.5 444,-362.5 444,-341.5 494,-341.5 494,-362.5"/>
<text text-anchor="middle" x="469" y="-349.5" font-family="Helvetica,sans-Serif" font-size="10.00">tjoin_10</text>
</g>
<!-- tjoin_9&#45;&gt;tjoin_10 -->
<g id="edge36" class="edge"><title>tjoin_9&#45;&gt;tjoin_10</title>
<path fill="none" stroke="black" d="M446.084,-379.212C448.401,-376.461 450.957,-373.426 453.497,-370.41"/>
<polygon fill="black" stroke="black" points="456.24,-372.587 460.004,-362.683 450.885,-368.078 456.24,-372.587"/>
</g>
<!-- tjoin_11 -->
<g id="node10" class="node"><title>tjoin_11</title>
<polygon fill="white" stroke="black" points="524,-324.5 474,-324.5 474,-303.5 524,-303.5 524,-324.5"/>
<text text-anchor="middle" x="499" y="-311.5" font-family="Helvetica,sans-Serif" font-size="10.00">tjoin_11</text>
</g>
<!-- tjoin_10&#45;&gt;tjoin_11 -->
<g id="edge40" class="edge"><title>tjoin_10&#45;&gt;tjoin_11</title>
<path fill="none" stroke="black" d="M477.517,-341.212C479.625,-338.542 481.944,-335.604 484.255,-332.676"/>
<polygon fill="black" stroke="black" points="487.117,-334.701 490.566,-324.683 481.622,-330.363 487.117,-334.701"/>
</g>
<!-- tjoin_12 -->
<g id="node11" class="node"><title>tjoin_12</title>
<polygon fill="white" stroke="black" points="554,-286.5 504,-286.5 504,-265.5 554,-265.5 554,-286.5"/>
<text text-anchor="middle" x="529" y="-273.5" font-family="Helvetica,sans-Serif" font-size="10.00">tjoin_12</text>
</g>
<!-- tjoin_11&#45;&gt;tjoin_12 -->
<g id="edge44" class="edge"><title>tjoin_11&#45;&gt;tjoin_12</title>
<path fill="none" stroke="black" d="M507.517,-303.212C509.625,-300.542 511.944,-297.604 514.255,-294.676"/>
<polygon fill="black" stroke="black" points="517.117,-296.701 520.566,-286.683 511.622,-292.363 517.117,-296.701"/>
</g>
<!-- tjoin_13 -->
<g id="node12" class="node"><title>tjoin_13</title>
<polygon fill="white" stroke="black" points="570,-248.5 520,-248.5 520,-227.5 570,-227.5 570,-248.5"/>
<text text-anchor="middle" x="545" y="-235.5" font-family="Helvetica,sans-Serif" font-size="10.00">tjoin_13</text>
</g>
<!-- tjoin_12&#45;&gt;tjoin_13 -->
<g id="edge48" class="edge"><title>tjoin_12&#45;&gt;tjoin_13</title>
<path fill="none" stroke="black" d="M533.542,-265.212C534.496,-262.947 535.531,-260.488 536.576,-258.007"/>
<polygon fill="black" stroke="black" points="539.847,-259.258 540.502,-248.683 533.396,-256.541 539.847,-259.258"/>
</g>
<!-- Add_ZP -->
<g id="node13" class="node"><title>Add_ZP</title>
<polygon fill="white" stroke="black" points="496,-210.5 444,-210.5 444,-189.5 496,-189.5 496,-210.5"/>
<text text-anchor="middle" x="470" y="-197.5" font-family="Helvetica,sans-Serif" font-size="10.00">Add_ZP</text>
</g>
<!-- tjoin_13&#45;&gt;Add_ZP -->
<g id="edge52" class="edge"><title>tjoin_13&#45;&gt;Add_ZP</title>
<path fill="none" stroke="black" d="M524.108,-227.415C516.632,-223.627 508.051,-219.279 499.959,-215.179"/>
<polygon fill="black" stroke="black" points="501.282,-211.926 490.78,-210.528 498.118,-218.17 501.282,-211.926"/>
</g>
<!-- Add_MAGZEROPOINT -->
<g id="node16" class="node"><title>Add_MAGZEROPOINT</title>
<polygon fill="white" stroke="black" points="449,-172.5 329,-172.5 329,-151.5 449,-151.5 449,-172.5"/>
<text text-anchor="middle" x="389" y="-159.5" font-family="Helvetica,sans-Serif" font-size="10.00">Add_MAGZEROPOINT</text>
</g>
<!-- Add_ZP&#45;&gt;Add_MAGZEROPOINT -->
<g id="edge58" class="edge"><title>Add_ZP&#45;&gt;Add_MAGZEROPOINT</title>
<path fill="none" stroke="black" d="M447.437,-189.415C439.099,-185.503 429.489,-180.995 420.503,-176.779"/>
<polygon fill="black" stroke="black" points="421.982,-173.607 411.442,-172.528 419.009,-179.944 421.982,-173.607"/>
</g>
<!-- zp_value -->
<g id="node14" class="node"><title>zp_value</title>
<polygon fill="#b0c4de" stroke="black" points="420,-248.5 364,-248.5 364,-227.5 420,-227.5 420,-248.5"/>
<text text-anchor="middle" x="392" y="-235.5" font-family="Helvetica,sans-Serif" font-size="10.00">zp_value</text>
</g>
<!-- zp_value&#45;&gt;Add_ZP -->
<g id="edge54" class="edge"><title>zp_value&#45;&gt;Add_ZP</title>
<path fill="none" stroke="black" d="M413.727,-227.415C421.672,-223.544 430.816,-219.09 439.391,-214.912"/>
<polygon fill="black" stroke="black" points="440.932,-218.055 448.389,-210.528 437.866,-211.762 440.932,-218.055"/>
</g>
<!-- expression_value -->
<g id="node15" class="node"><title>expression_value</title>
<polygon fill="#b0c4de" stroke="black" points="516,-248.5 424,-248.5 424,-227.5 516,-227.5 516,-248.5"/>
<text text-anchor="middle" x="470" y="-235.5" font-family="Helvetica,sans-Serif" font-size="10.00">expression_value</text>
</g>
<!-- expression_value&#45;&gt;Add_ZP -->
<g id="edge56" class="edge"><title>expression_value&#45;&gt;Add_ZP</title>
<path fill="none" stroke="black" d="M470,-227.212C470,-225.19 470,-223.013 470,-220.804"/>
<polygon fill="black" stroke="black" points="473.5,-220.683 470,-210.683 466.5,-220.683 473.5,-220.683"/>
</g>
<!-- Add_XCONVSIZE -->
<g id="node19" class="node"><title>Add_XCONVSIZE</title>
<polygon fill="white" stroke="black" points="322,-134.5 224,-134.5 224,-113.5 322,-113.5 322,-134.5"/>
<text text-anchor="middle" x="273" y="-121.5" font-family="Helvetica,sans-Serif" font-size="10.00">Add_XCONVSIZE</text>
</g>
<!-- Add_MAGZEROPOINT&#45;&gt;Add_XCONVSIZE -->
<g id="edge64" class="edge"><title>Add_MAGZEROPOINT&#45;&gt;Add_XCONVSIZE</title>
<path fill="none" stroke="black" d="M356.688,-151.415C343.741,-147.174 328.654,-142.232 314.884,-137.721"/>
<polygon fill="black" stroke="black" points="315.732,-134.315 305.139,-134.528 313.553,-140.968 315.732,-134.315"/>
</g>
<!-- magZeropoint_value -->
<g id="node17" class="node"><title>magZeropoint_value</title>
<polygon fill="#b0c4de" stroke="black" points="334,-210.5 230,-210.5 230,-189.5 334,-189.5 334,-210.5"/>
<text text-anchor="middle" x="282" y="-197.5" font-family="Helvetica,sans-Serif" font-size="10.00">magZeropoint_value</text>
</g>
<!-- magZeropoint_value&#45;&gt;Add_MAGZEROPOINT -->
<g id="edge60" class="edge"><title>magZeropoint_value&#45;&gt;Add_MAGZEROPOINT</title>
<path fill="none" stroke="black" d="M311.805,-189.415C323.516,-185.256 337.124,-180.423 349.624,-175.984"/>
<polygon fill="black" stroke="black" points="351.102,-179.173 359.354,-172.528 348.76,-172.577 351.102,-179.173"/>
</g>
<!-- expression_value_1 -->
<g id="node18" class="node"><title>expression_value_1</title>
<polygon fill="#b0c4de" stroke="black" points="440,-210.5 338,-210.5 338,-189.5 440,-189.5 440,-210.5"/>
<text text-anchor="middle" x="389" y="-197.5" font-family="Helvetica,sans-Serif" font-size="10.00">expression_value_1</text>
</g>
<!-- expression_value_1&#45;&gt;Add_MAGZEROPOINT -->
<g id="edge62" class="edge"><title>expression_value_1&#45;&gt;Add_MAGZEROPOINT</title>
<path fill="none" stroke="black" d="M389,-189.212C389,-187.19 389,-185.013 389,-182.804"/>
<polygon fill="black" stroke="black" points="392.5,-182.683 389,-172.683 385.5,-182.683 392.5,-182.683"/>
</g>
<!-- Add_YCONVSIZE -->
<g id="node22" class="node"><title>Add_YCONVSIZE</title>
<polygon fill="white" stroke="black" points="212,-96.5 114,-96.5 114,-75.5 212,-75.5 212,-96.5"/>
<text text-anchor="middle" x="163" y="-83.5" font-family="Helvetica,sans-Serif" font-size="10.00">Add_YCONVSIZE</text>
</g>
<!-- Add_XCONVSIZE&#45;&gt;Add_YCONVSIZE -->
<g id="edge70" class="edge"><title>Add_XCONVSIZE&#45;&gt;Add_YCONVSIZE</title>
<path fill="none" stroke="black" d="M242.359,-113.415C230.201,-109.215 216.053,-104.327 203.098,-99.8521"/>
<polygon fill="black" stroke="black" points="204.072,-96.4855 193.477,-96.5284 201.786,-103.102 204.072,-96.4855"/>
</g>
<!-- expression_value_2 -->
<g id="node20" class="node"><title>expression_value_2</title>
<polygon fill="#b0c4de" stroke="black" points="217,-172.5 115,-172.5 115,-151.5 217,-151.5 217,-172.5"/>
<text text-anchor="middle" x="166" y="-159.5" font-family="Helvetica,sans-Serif" font-size="10.00">expression_value_2</text>
</g>
<!-- expression_value_2&#45;&gt;Add_XCONVSIZE -->
<g id="edge66" class="edge"><title>expression_value_2&#45;&gt;Add_XCONVSIZE</title>
<path fill="none" stroke="black" d="M195.805,-151.415C207.516,-147.256 221.124,-142.423 233.624,-137.984"/>
<polygon fill="black" stroke="black" points="235.102,-141.173 243.354,-134.528 232.76,-134.577 235.102,-141.173"/>
</g>
<!-- nameNewCol_value -->
<g id="node21" class="node"><title>nameNewCol_value</title>
<polygon fill="#b0c4de" stroke="black" points="325,-172.5 221,-172.5 221,-151.5 325,-151.5 325,-172.5"/>
<text text-anchor="middle" x="273" y="-159.5" font-family="Helvetica,sans-Serif" font-size="10.00">nameNewCol_value</text>
</g>
<!-- nameNewCol_value&#45;&gt;Add_XCONVSIZE -->
<g id="edge68" class="edge"><title>nameNewCol_value&#45;&gt;Add_XCONVSIZE</title>
<path fill="none" stroke="black" d="M273,-151.212C273,-149.19 273,-147.013 273,-144.804"/>
<polygon fill="black" stroke="black" points="276.5,-144.683 273,-134.683 269.5,-144.683 276.5,-144.683"/>
</g>
<!-- WORKFLOWINTERNALSINK_votable -->
<g id="node42" class="node"><title>WORKFLOWINTERNALSINK_votable</title>
<polygon fill="#bcd2ee" stroke="black" points="187,-37.5 139,-37.5 139,-16.5 187,-16.5 187,-37.5"/>
<text text-anchor="middle" x="163" y="-24.5" font-family="Helvetica,sans-Serif" font-size="10.00">votable</text>
</g>
<!-- Add_YCONVSIZE&#45;&gt;WORKFLOWINTERNALSINK_votable -->
<g id="edge76" class="edge"><title>Add_YCONVSIZE&#45;&gt;WORKFLOWINTERNALSINK_votable</title>
<path fill="none" stroke="black" d="M163,-75.452C163,-67.8285 163,-57.2768 163,-47.966"/>
<polygon fill="black" stroke="black" points="166.5,-47.8558 163,-37.8559 159.5,-47.8559 166.5,-47.8558"/>
</g>
<!-- expression_value_3 -->
<g id="node23" class="node"><title>expression_value_3</title>
<polygon fill="#b0c4de" stroke="black" points="102,-134.5 4.26326e-14,-134.5 0,-113.5 102,-113.5 102,-134.5"/>
<text text-anchor="middle" x="51" y="-121.5" font-family="Helvetica,sans-Serif" font-size="10.00">expression_value_3</text>
</g>
<!-- expression_value_3&#45;&gt;Add_YCONVSIZE -->
<g id="edge72" class="edge"><title>expression_value_3&#45;&gt;Add_YCONVSIZE</title>
<path fill="none" stroke="black" d="M82.1982,-113.415C94.5772,-109.215 108.982,-104.327 122.173,-99.8521"/>
<polygon fill="black" stroke="black" points="123.624,-103.056 131.969,-96.5284 121.375,-96.427 123.624,-103.056"/>
</g>
<!-- nameNewCol_value_1 -->
<g id="node24" class="node"><title>nameNewCol_value_1</title>
<polygon fill="#b0c4de" stroke="black" points="220,-134.5 106,-134.5 106,-113.5 220,-113.5 220,-134.5"/>
<text text-anchor="middle" x="163" y="-121.5" font-family="Helvetica,sans-Serif" font-size="10.00">nameNewCol_value_1</text>
</g>
<!-- nameNewCol_value_1&#45;&gt;Add_YCONVSIZE -->
<g id="edge74" class="edge"><title>nameNewCol_value_1&#45;&gt;Add_YCONVSIZE</title>
<path fill="none" stroke="black" d="M163,-113.212C163,-111.19 163,-109.013 163,-106.804"/>
<polygon fill="black" stroke="black" points="166.5,-106.683 163,-96.6831 159.5,-106.683 166.5,-106.683"/>
</g>
<!-- WORKFLOWINTERNALSOURCECONTROL -->
<g id="node26" class="node"><title>WORKFLOWINTERNALSOURCECONTROL</title>
<polygon fill="#ff4040" stroke="black" points="585,-701 578,-690.5 592,-690.5 585,-701"/>
</g>
<!-- WORKFLOWINTERNALSOURCE_band -->
<g id="node27" class="node"><title>WORKFLOWINTERNALSOURCE_band</title>
<polygon fill="skyblue" stroke="black" points="124,-704.5 86,-704.5 86,-683.5 124,-683.5 124,-704.5"/>
<text text-anchor="middle" x="105" y="-691.5" font-family="Helvetica,sans-Serif" font-size="10.00">band</text>
</g>
<!-- WORKFLOWINTERNALSOURCE_band&#45;&gt;tjoin_2 -->
<g id="edge6" class="edge"><title>WORKFLOWINTERNALSOURCE_band&#45;&gt;tjoin_2</title>
<path fill="none" stroke="black" d="M117.454,-683.29C120.818,-680.515 124.498,-677.581 128,-675 129.211,-674.107 130.462,-673.207 131.734,-672.311"/>
<polygon fill="black" stroke="black" points="133.919,-675.058 140.222,-666.542 129.984,-669.269 133.919,-675.058"/>
</g>
<!-- WORKFLOWINTERNALSOURCE_filenames -->
<g id="node28" class="node"><title>WORKFLOWINTERNALSOURCE_filenames</title>
<polygon fill="skyblue" stroke="black" points="186,-704.5 128,-704.5 128,-683.5 186,-683.5 186,-704.5"/>
<text text-anchor="middle" x="157" y="-691.5" font-family="Helvetica,sans-Serif" font-size="10.00">filenames</text>
</g>
<!-- WORKFLOWINTERNALSOURCE_filenames&#45;&gt;tjoin_2 -->
<g id="edge4" class="edge"><title>WORKFLOWINTERNALSOURCE_filenames&#45;&gt;tjoin_2</title>
<path fill="none" stroke="black" d="M157,-683.212C157,-681.19 157,-679.013 157,-676.804"/>
<polygon fill="black" stroke="black" points="160.5,-676.683 157,-666.683 153.5,-676.683 160.5,-676.683"/>
</g>
<!-- WORKFLOWINTERNALSOURCE_psf -->
<g id="node29" class="node"><title>WORKFLOWINTERNALSOURCE_psf</title>
<polygon fill="skyblue" stroke="black" points="220,-704.5 190,-704.5 190,-683.5 220,-683.5 220,-704.5"/>
<text text-anchor="middle" x="205" y="-691.5" font-family="Helvetica,sans-Serif" font-size="10.00">psf</text>
</g>
<!-- WORKFLOWINTERNALSOURCE_psf&#45;&gt;tjoin_3 -->
<g id="edge10" class="edge"><title>WORKFLOWINTERNALSOURCE_psf&#45;&gt;tjoin_3</title>
<path fill="none" stroke="black" d="M205,-683.433C205,-671.992 205,-653.448 205,-639.017"/>
<polygon fill="black" stroke="black" points="208.5,-638.97 205,-628.97 201.5,-638.97 208.5,-638.97"/>
</g>
<!-- WORKFLOWINTERNALSOURCE_ra -->
<g id="node30" class="node"><title>WORKFLOWINTERNALSOURCE_ra</title>
<polygon fill="skyblue" stroke="black" points="248,-704.5 224,-704.5 224,-683.5 248,-683.5 248,-704.5"/>
<text text-anchor="middle" x="236" y="-691.5" font-family="Helvetica,sans-Serif" font-size="10.00">ra</text>
</g>
<!-- WORKFLOWINTERNALSOURCE_ra&#45;&gt;tjoin_4 -->
<g id="edge12" class="edge"><title>WORKFLOWINTERNALSOURCE_ra&#45;&gt;tjoin_4</title>
<path fill="none" stroke="black" d="M236,-683.479C236,-664.742 236,-625.27 236,-600.857"/>
<polygon fill="black" stroke="black" points="239.5,-600.828 236,-590.828 232.5,-600.828 239.5,-600.828"/>
</g>
<!-- WORKFLOWINTERNALSOURCE_dec -->
<g id="node31" class="node"><title>WORKFLOWINTERNALSOURCE_dec</title>
<polygon fill="skyblue" stroke="black" points="284,-704.5 252,-704.5 252,-683.5 284,-683.5 284,-704.5"/>
<text text-anchor="middle" x="268" y="-691.5" font-family="Helvetica,sans-Serif" font-size="10.00">dec</text>
</g>
<!-- WORKFLOWINTERNALSOURCE_dec&#45;&gt;tjoin_5 -->
<g id="edge18" class="edge"><title>WORKFLOWINTERNALSOURCE_dec&#45;&gt;tjoin_5</title>
<path fill="none" stroke="black" d="M268,-683.069C268,-657.981 268,-595.918 268,-563.109"/>
<polygon fill="black" stroke="black" points="271.5,-562.832 268,-552.832 264.5,-562.832 271.5,-562.832"/>
</g>
<!-- WORKFLOWINTERNALSOURCE_satur_level -->
<g id="node32" class="node"><title>WORKFLOWINTERNALSOURCE_satur_level</title>
<polygon fill="skyblue" stroke="black" points="352,-704.5 288,-704.5 288,-683.5 352,-683.5 352,-704.5"/>
<text text-anchor="middle" x="320" y="-691.5" font-family="Helvetica,sans-Serif" font-size="10.00">satur_level</text>
</g>
<!-- WORKFLOWINTERNALSOURCE_satur_level&#45;&gt;tjoin_6 -->
<g id="edge22" class="edge"><title>WORKFLOWINTERNALSOURCE_satur_level&#45;&gt;tjoin_6</title>
<path fill="none" stroke="black" d="M320,-683.176C320,-668.436 320,-641.222 320,-618 320,-618 320,-618 320,-580 320,-561.495 320,-540.455 320,-525.212"/>
<polygon fill="black" stroke="black" points="323.5,-524.824 320,-514.824 316.5,-524.824 323.5,-524.824"/>
</g>
<!-- WORKFLOWINTERNALSOURCE_gain -->
<g id="node33" class="node"><title>WORKFLOWINTERNALSOURCE_gain</title>
<polygon fill="skyblue" stroke="black" points="390,-704.5 356,-704.5 356,-683.5 390,-683.5 390,-704.5"/>
<text text-anchor="middle" x="373" y="-691.5" font-family="Helvetica,sans-Serif" font-size="10.00">gain</text>
</g>
<!-- WORKFLOWINTERNALSOURCE_gain&#45;&gt;tjoin_7 -->
<g id="edge26" class="edge"><title>WORKFLOWINTERNALSOURCE_gain&#45;&gt;tjoin_7</title>
<path fill="none" stroke="black" d="M373,-683.176C373,-668.436 373,-641.222 373,-618 373,-618 373,-618 373,-542 373,-523.495 373,-502.455 373,-487.212"/>
<polygon fill="black" stroke="black" points="376.5,-486.824 373,-476.824 369.5,-486.824 376.5,-486.824"/>
</g>
<!-- WORKFLOWINTERNALSOURCE_nx -->
<g id="node34" class="node"><title>WORKFLOWINTERNALSOURCE_nx</title>
<polygon fill="skyblue" stroke="black" points="420,-704.5 394,-704.5 394,-683.5 420,-683.5 420,-704.5"/>
<text text-anchor="middle" x="407" y="-691.5" font-family="Helvetica,sans-Serif" font-size="10.00">nx</text>
</g>
<!-- WORKFLOWINTERNALSOURCE_nx&#45;&gt;tjoin_8 -->
<g id="edge30" class="edge"><title>WORKFLOWINTERNALSOURCE_nx&#45;&gt;tjoin_8</title>
<path fill="none" stroke="black" d="M407,-683.176C407,-668.436 407,-641.222 407,-618 407,-618 407,-618 407,-504 407,-485.495 407,-464.455 407,-449.212"/>
<polygon fill="black" stroke="black" points="410.5,-448.824 407,-438.824 403.5,-448.824 410.5,-448.824"/>
</g>
<!-- WORKFLOWINTERNALSOURCE_ny -->
<g id="node35" class="node"><title>WORKFLOWINTERNALSOURCE_ny</title>
<polygon fill="skyblue" stroke="black" points="450,-704.5 424,-704.5 424,-683.5 450,-683.5 450,-704.5"/>
<text text-anchor="middle" x="437" y="-691.5" font-family="Helvetica,sans-Serif" font-size="10.00">ny</text>
</g>
<!-- WORKFLOWINTERNALSOURCE_ny&#45;&gt;tjoin_9 -->
<g id="edge34" class="edge"><title>WORKFLOWINTERNALSOURCE_ny&#45;&gt;tjoin_9</title>
<path fill="none" stroke="black" d="M437,-683.176C437,-668.436 437,-641.222 437,-618 437,-618 437,-618 437,-466 437,-447.495 437,-426.455 437,-411.212"/>
<polygon fill="black" stroke="black" points="440.5,-410.824 437,-400.824 433.5,-410.824 440.5,-410.824"/>
</g>
<!-- WORKFLOWINTERNALSOURCE_bar -->
<g id="node36" class="node"><title>WORKFLOWINTERNALSOURCE_bar</title>
<polygon fill="skyblue" stroke="black" points="484,-704.5 454,-704.5 454,-683.5 484,-683.5 484,-704.5"/>
<text text-anchor="middle" x="469" y="-691.5" font-family="Helvetica,sans-Serif" font-size="10.00">bar</text>
</g>
<!-- WORKFLOWINTERNALSOURCE_bar&#45;&gt;tjoin_10 -->
<g id="edge38" class="edge"><title>WORKFLOWINTERNALSOURCE_bar&#45;&gt;tjoin_10</title>
<path fill="none" stroke="black" d="M469,-683.176C469,-668.436 469,-641.222 469,-618 469,-618 469,-618 469,-428 469,-409.495 469,-388.455 469,-373.212"/>
<polygon fill="black" stroke="black" points="472.5,-372.824 469,-362.824 465.5,-372.824 472.5,-372.824"/>
</g>
<!-- WORKFLOWINTERNALSOURCE_aa -->
<g id="node37" class="node"><title>WORKFLOWINTERNALSOURCE_aa</title>
<polygon fill="skyblue" stroke="black" points="514,-704.5 488,-704.5 488,-683.5 514,-683.5 514,-704.5"/>
<text text-anchor="middle" x="501" y="-691.5" font-family="Helvetica,sans-Serif" font-size="10.00">aa</text>
</g>
<!-- WORKFLOWINTERNALSOURCE_aa&#45;&gt;tjoin_11 -->
<g id="edge42" class="edge"><title>WORKFLOWINTERNALSOURCE_aa&#45;&gt;tjoin_11</title>
<path fill="none" stroke="black" d="M501,-683.176C501,-668.436 501,-641.222 501,-618 501,-618 501,-618 501,-390 501,-371.488 500.4,-350.449 499.857,-335.208"/>
<polygon fill="black" stroke="black" points="503.34,-334.682 499.464,-324.821 496.345,-334.946 503.34,-334.682"/>
</g>
<!-- WORKFLOWINTERNALSOURCE_kk -->
<g id="node38" class="node"><title>WORKFLOWINTERNALSOURCE_kk</title>
<polygon fill="skyblue" stroke="black" points="544,-704.5 518,-704.5 518,-683.5 544,-683.5 544,-704.5"/>
<text text-anchor="middle" x="531" y="-691.5" font-family="Helvetica,sans-Serif" font-size="10.00">kk</text>
</g>
<!-- WORKFLOWINTERNALSOURCE_kk&#45;&gt;tjoin_12 -->
<g id="edge46" class="edge"><title>WORKFLOWINTERNALSOURCE_kk&#45;&gt;tjoin_12</title>
<path fill="none" stroke="black" d="M531,-683.176C531,-668.436 531,-641.222 531,-618 531,-618 531,-618 531,-352 531,-333.488 530.4,-312.449 529.857,-297.208"/>
<polygon fill="black" stroke="black" points="533.34,-296.682 529.464,-286.821 526.345,-296.946 533.34,-296.682"/>
</g>
<!-- WORKFLOWINTERNALSOURCE_air -->
<g id="node39" class="node"><title>WORKFLOWINTERNALSOURCE_air</title>
<polygon fill="skyblue" stroke="black" points="574,-704.5 548,-704.5 548,-683.5 574,-683.5 574,-704.5"/>
<text text-anchor="middle" x="561" y="-691.5" font-family="Helvetica,sans-Serif" font-size="10.00">air</text>
</g>
<!-- WORKFLOWINTERNALSOURCE_air&#45;&gt;tjoin_13 -->
<g id="edge50" class="edge"><title>WORKFLOWINTERNALSOURCE_air&#45;&gt;tjoin_13</title>
<path fill="none" stroke="black" d="M561,-683.176C561,-668.436 561,-641.222 561,-618 561,-618 561,-618 561,-314 561,-292.001 559.054,-286.41 554,-265 553.474,-262.773 552.844,-260.468 552.165,-258.186"/>
<polygon fill="black" stroke="black" points="555.479,-257.06 549.041,-248.646 548.827,-259.238 555.479,-257.06"/>
</g>
<!-- WORKFLOWINTERNALSINKCONTROL -->
<g id="node41" class="node"><title>WORKFLOWINTERNALSINKCONTROL</title>
<polygon fill="#66cd00" stroke="black" points="201,-20 208,-30.5 194,-30.5 201,-20"/>
</g>
</g>
</svg>
