<?xml version="1.0" encoding="UTF-8" standalone="no"?>
<!DOCTYPE svg PUBLIC "-//W3C//DTD SVG 1.1//EN"
 "http://www.w3.org/Graphics/SVG/1.1/DTD/svg11.dtd">
<!-- Generated by graphviz version 2.26.0 (20091210.2329)
 -->
<!-- Title: t2flow_graph Pages: 1 -->
<svg width="614pt" height="1204pt"
 viewBox="0.00 0.00 614.00 1204.00" xmlns="http://www.w3.org/2000/svg" xmlns:xlink="http://www.w3.org/1999/xlink">
<g id="graph1" class="graph" transform="scale(1 1) rotate(0) translate(4 1200)">
<title>t2flow_graph</title>
<polygon fill="white" stroke="white" points="-4,5 -4,-1200 611,-1200 611,5 -4,5"/>
<g id="graph2" class="cluster"><title>cluster_Workflow7Workflow7</title>
<polygon fill="aliceblue" stroke="black" points="224,-897 224,-1166 476,-1166 476,-897 224,-897"/>
<text text-anchor="middle" x="255.5" y="-1153" font-family="Helvetica,sans-Serif" font-size="10.00">Workflow7</text>
</g>
<g id="graph3" class="cluster"><title>cluster_Workflow7sources</title>
<polygon fill="none" stroke="black" stroke-dasharray="1,5" points="380,-1078 380,-1137 468,-1137 468,-1078 380,-1078"/>
<text text-anchor="middle" x="424" y="-1124" font-family="Helvetica,sans-Serif" font-size="10.00">Workflow Inputs</text>
</g>
<g id="graph4" class="cluster"><title>cluster_Workflow7sinks</title>
<polygon fill="none" stroke="black" stroke-dasharray="1,5" points="312,-905 312,-964 407,-964 407,-905 312,-905"/>
<text text-anchor="middle" x="359.5" y="-951" font-family="Helvetica,sans-Serif" font-size="10.00">Workflow Outputs</text>
</g>
<g id="graph5" class="cluster"><title>cluster_Extracting_J2000Coordinates_from_LEDAExtracting_J2000Coordinates_from_LEDA</title>
<polygon fill="aliceblue" stroke="black" points="310,-620 310,-889 598,-889 598,-620 310,-620"/>
<text text-anchor="middle" x="410.5" y="-876" font-family="Helvetica,sans-Serif" font-size="10.00">Extracting_J2000Coordinates_from_LEDA</text>
</g>
<g id="graph6" class="cluster"><title>cluster_Extracting_J2000Coordinates_from_LEDAsources</title>
<polygon fill="none" stroke="black" stroke-dasharray="1,5" points="374,-801 374,-860 462,-860 462,-801 374,-801"/>
<text text-anchor="middle" x="418" y="-847" font-family="Helvetica,sans-Serif" font-size="10.00">Workflow Inputs</text>
</g>
<g id="graph7" class="cluster"><title>cluster_Extracting_J2000Coordinates_from_LEDAsinks</title>
<polygon fill="none" stroke="black" stroke-dasharray="1,5" points="409,-628 409,-687 517,-687 517,-628 409,-628"/>
<text text-anchor="middle" x="456.5" y="-674" font-family="Helvetica,sans-Serif" font-size="10.00">Workflow Outputs</text>
</g>
<g id="graph8" class="cluster"><title>cluster_Extracting_values_of_one_porperty_from_LEDA_Extracting_values_of_one_porperty_from_LEDA_</title>
<polygon fill="aliceblue" stroke="black" points="8,-620 8,-889 302,-889 302,-620 8,-620"/>
<text text-anchor="middle" x="123.5" y="-876" font-family="Helvetica,sans-Serif" font-size="10.00">Extracting_values_of_one_porperty_from_LEDA_</text>
</g>
<g id="graph9" class="cluster"><title>cluster_Extracting_values_of_one_porperty_from_LEDA_sources</title>
<polygon fill="none" stroke="black" stroke-dasharray="1,5" points="79,-801 79,-860 205,-860 205,-801 79,-801"/>
<text text-anchor="middle" x="123" y="-847" font-family="Helvetica,sans-Serif" font-size="10.00">Workflow Inputs</text>
</g>
<g id="graph10" class="cluster"><title>cluster_Extracting_values_of_one_porperty_from_LEDA_sinks</title>
<polygon fill="none" stroke="black" stroke-dasharray="1,5" points="115,-628 115,-687 225,-687 225,-628 115,-628"/>
<text text-anchor="middle" x="162.5" y="-674" font-family="Helvetica,sans-Serif" font-size="10.00">Workflow Outputs</text>
</g>
<g id="graph11" class="cluster"><title>cluster_Comparing_Quantities_Comparing_Quantities_</title>
<polygon fill="aliceblue" stroke="black" points="188,-352 188,-545 356,-545 356,-352 188,-352"/>
<text text-anchor="middle" x="247.5" y="-532" font-family="Helvetica,sans-Serif" font-size="10.00">Comparing_Quantities_</text>
</g>
<g id="graph12" class="cluster"><title>cluster_Comparing_Quantities_sources</title>
<polygon fill="none" stroke="black" stroke-dasharray="1,5" points="196,-457 196,-516 348,-516 348,-457 196,-457"/>
<text text-anchor="middle" x="240" y="-503" font-family="Helvetica,sans-Serif" font-size="10.00">Workflow Inputs</text>
</g>
<g id="graph13" class="cluster"><title>cluster_Comparing_Quantities_sinks</title>
<polygon fill="none" stroke="black" stroke-dasharray="1,5" points="238,-360 238,-419 348,-419 348,-360 238,-360"/>
<text text-anchor="middle" x="285.5" y="-406" font-family="Helvetica,sans-Serif" font-size="10.00">Workflow Outputs</text>
</g>
<g id="graph14" class="cluster"><title>cluster_Calculate_the_distances_of_galaxiesCalculate_the_distances_of_galaxies</title>
<polygon fill="aliceblue" stroke="black" points="254,-75 254,-344 494,-344 494,-75 254,-75"/>
<text text-anchor="middle" x="343.5" y="-331" font-family="Helvetica,sans-Serif" font-size="10.00">Calculate_the_distances_of_galaxies</text>
</g>
<g id="graph15" class="cluster"><title>cluster_Calculate_the_distances_of_galaxiessources</title>
<polygon fill="none" stroke="black" stroke-dasharray="1,5" points="264,-256 264,-315 486,-315 486,-256 264,-256"/>
<text text-anchor="middle" x="308" y="-302" font-family="Helvetica,sans-Serif" font-size="10.00">Workflow Inputs</text>
</g>
<g id="graph16" class="cluster"><title>cluster_Calculate_the_distances_of_galaxiessinks</title>
<polygon fill="none" stroke="black" stroke-dasharray="1,5" points="391,-83 391,-142 486,-142 486,-83 391,-83"/>
<text text-anchor="middle" x="438.5" y="-129" font-family="Helvetica,sans-Serif" font-size="10.00">Workflow Outputs</text>
</g>
<g id="graph17" class="cluster"><title>cluster_sources</title>
<polygon fill="none" stroke="black" stroke-dasharray="1,5" points="244,-553 244,-612 366,-612 366,-553 244,-553"/>
<text text-anchor="middle" x="288" y="-599" font-family="Helvetica,sans-Serif" font-size="10.00">Workflow Inputs</text>
</g>
<g id="graph18" class="cluster"><title>cluster_sinks</title>
<polygon fill="none" stroke="black" stroke-dasharray="1,5" points="393,-8 393,-67 488,-67 488,-8 393,-8"/>
<text text-anchor="middle" x="440.5" y="-54" font-family="Helvetica,sans-Serif" font-size="10.00">Workflow Outputs</text>
</g>
<!-- Workflow7Select_File -->
<g id="node2" class="node"><title>Workflow7Select_File</title>
<polygon fill="#d15fee" stroke="black" points="384,-1069.5 320,-1069.5 320,-1048.5 384,-1048.5 384,-1069.5"/>
<text text-anchor="middle" x="352" y="-1056.5" font-family="Helvetica,sans-Serif" font-size="10.00">Select_File</text>
</g>
<!-- Workflow7Read_Text_File -->
<g id="node4" class="node"><title>Workflow7Read_Text_File</title>
<polygon fill="#d15fee" stroke="black" points="394,-1031.5 308,-1031.5 308,-1010.5 394,-1010.5 394,-1031.5"/>
<text text-anchor="middle" x="351" y="-1018.5" font-family="Helvetica,sans-Serif" font-size="10.00">Read_Text_File</text>
</g>
<!-- Workflow7Select_File&#45;&gt;Workflow7Read_Text_File -->
<g id="edge13" class="edge"><title>Workflow7Select_File&#45;&gt;Workflow7Read_Text_File</title>
<path fill="none" stroke="black" d="M351.716,-1048.21C351.663,-1046.19 351.606,-1044.01 351.547,-1041.8"/>
<polygon fill="black" stroke="black" points="355.043,-1041.59 351.281,-1031.68 348.046,-1041.77 355.043,-1041.59"/>
</g>
<!-- Workflow7fileExtensions_value -->
<g id="node3" class="node"><title>Workflow7fileExtensions_value</title>
<polygon fill="#b0c4de" stroke="black" points="372,-1107.5 266,-1107.5 266,-1086.5 372,-1086.5 372,-1107.5"/>
<text text-anchor="middle" x="319" y="-1094.5" font-family="Helvetica,sans-Serif" font-size="10.00">fileExtensions_value</text>
</g>
<!-- Workflow7fileExtensions_value&#45;&gt;Workflow7Select_File -->
<g id="edge5" class="edge"><title>Workflow7fileExtensions_value&#45;&gt;Workflow7Select_File</title>
<path fill="none" stroke="black" d="M327,-1086.21C329.295,-1083.46 331.887,-1080.43 334.513,-1077.41"/>
<polygon fill="black" stroke="black" points="337.347,-1079.49 341.358,-1069.68 332.107,-1074.85 337.347,-1079.49"/>
</g>
<!-- Workflow7fileExtensions_value&#45;&gt;Workflow7Select_File -->
<g id="edge7" class="edge"><title>Workflow7fileExtensions_value&#45;&gt;Workflow7Select_File</title>
<path fill="none" stroke="black" d="M329.736,-1086.21C332.219,-1083.46 334.899,-1080.43 337.511,-1077.41"/>
<polygon fill="black" stroke="black" points="340.272,-1079.57 344.087,-1069.68 334.941,-1075.03 340.272,-1079.57"/>
</g>
<!-- Workflow7Split_string_into_string_list_by_regular_expression -->
<g id="node6" class="node"><title>Workflow7Split_string_into_string_list_by_regular_expression</title>
<polygon fill="#d15fee" stroke="black" points="468,-993.5 232,-993.5 232,-972.5 468,-972.5 468,-993.5"/>
<text text-anchor="middle" x="350" y="-980.5" font-family="Helvetica,sans-Serif" font-size="10.00">Split_string_into_string_list_by_regular_expression</text>
</g>
<!-- Workflow7Read_Text_File&#45;&gt;Workflow7Split_string_into_string_list_by_regular_expression -->
<g id="edge15" class="edge"><title>Workflow7Read_Text_File&#45;&gt;Workflow7Split_string_into_string_list_by_regular_expression</title>
<path fill="none" stroke="black" d="M350.716,-1010.21C350.663,-1008.19 350.606,-1006.01 350.547,-1003.8"/>
<polygon fill="black" stroke="black" points="354.043,-1003.59 350.281,-993.683 347.046,-1003.77 354.043,-1003.59"/>
</g>
<!-- Workflow7encoding_value -->
<g id="node5" class="node"><title>Workflow7encoding_value</title>
<polygon fill="#b0c4de" stroke="black" points="316,-1069.5 232,-1069.5 232,-1048.5 316,-1048.5 316,-1069.5"/>
<text text-anchor="middle" x="274" y="-1056.5" font-family="Helvetica,sans-Serif" font-size="10.00">encoding_value</text>
</g>
<!-- Workflow7encoding_value&#45;&gt;Workflow7Read_Text_File -->
<g id="edge11" class="edge"><title>Workflow7encoding_value&#45;&gt;Workflow7Read_Text_File</title>
<path fill="none" stroke="black" d="M295.449,-1048.41C303.208,-1044.59 312.126,-1040.18 320.513,-1036.05"/>
<polygon fill="black" stroke="black" points="322.248,-1039.09 329.666,-1031.53 319.15,-1032.82 322.248,-1039.09"/>
</g>
<!-- Workflow7WORKFLOWINTERNALSINK_lines -->
<g id="node13" class="node"><title>Workflow7WORKFLOWINTERNALSINK_lines</title>
<polygon fill="#bcd2ee" stroke="black" points="368,-934.5 332,-934.5 332,-913.5 368,-913.5 368,-934.5"/>
<text text-anchor="middle" x="350" y="-921.5" font-family="Helvetica,sans-Serif" font-size="10.00">lines</text>
</g>
<!-- Workflow7Split_string_into_string_list_by_regular_expression&#45;&gt;Workflow7WORKFLOWINTERNALSINK_lines -->
<g id="edge19" class="edge"><title>Workflow7Split_string_into_string_list_by_regular_expression&#45;&gt;Workflow7WORKFLOWINTERNALSINK_lines</title>
<path fill="none" stroke="black" d="M350,-972.452C350,-964.829 350,-954.277 350,-944.966"/>
<polygon fill="black" stroke="black" points="353.5,-944.856 350,-934.856 346.5,-944.856 353.5,-944.856"/>
</g>
<!-- Workflow7regex_value -->
<g id="node7" class="node"><title>Workflow7regex_value</title>
<polygon fill="#b0c4de" stroke="black" points="304,-1031.5 236,-1031.5 236,-1010.5 304,-1010.5 304,-1031.5"/>
<text text-anchor="middle" x="270" y="-1018.5" font-family="Helvetica,sans-Serif" font-size="10.00">regex_value</text>
</g>
<!-- Workflow7regex_value&#45;&gt;Workflow7Split_string_into_string_list_by_regular_expression -->
<g id="edge17" class="edge"><title>Workflow7regex_value&#45;&gt;Workflow7Split_string_into_string_list_by_regular_expression</title>
<path fill="none" stroke="black" d="M292.284,-1010.41C300.433,-1006.54 309.811,-1002.09 318.606,-997.912"/>
<polygon fill="black" stroke="black" points="320.304,-1000.98 327.835,-993.528 317.301,-994.658 320.304,-1000.98"/>
</g>
<!-- Workflow7WORKFLOWINTERNALSOURCECONTROL -->
<g id="node9" class="node"><title>Workflow7WORKFLOWINTERNALSOURCECONTROL</title>
<polygon fill="#ff4040" stroke="black" points="442,-1104 435,-1093.5 449,-1093.5 442,-1104"/>
</g>
<!-- Workflow7WORKFLOWINTERNALSOURCE_title -->
<g id="node10" class="node"><title>Workflow7WORKFLOWINTERNALSOURCE_title</title>
<polygon fill="skyblue" stroke="black" points="420,-1107.5 388,-1107.5 388,-1086.5 420,-1086.5 420,-1107.5"/>
<text text-anchor="middle" x="404" y="-1094.5" font-family="Helvetica,sans-Serif" font-size="10.00">title</text>
</g>
<!-- Workflow7WORKFLOWINTERNALSOURCE_title&#45;&gt;Workflow7Select_File -->
<g id="edge9" class="edge"><title>Workflow7WORKFLOWINTERNALSOURCE_title&#45;&gt;Workflow7Select_File</title>
<path fill="none" stroke="black" d="M393.807,-1086.48C390.774,-1083.58 387.361,-1080.54 384,-1078 382.776,-1077.07 381.504,-1076.16 380.203,-1075.25"/>
<polygon fill="black" stroke="black" points="381.706,-1072.06 371.406,-1069.58 377.91,-1077.94 381.706,-1072.06"/>
</g>
<!-- Workflow7WORKFLOWINTERNALSINKCONTROL -->
<g id="node12" class="node"><title>Workflow7WORKFLOWINTERNALSINKCONTROL</title>
<polygon fill="#66cd00" stroke="black" points="385,-917 392,-927.5 378,-927.5 385,-917"/>
</g>
<!-- Extracting_J2000Coordinates_from_LEDAWORKFLOWINTERNALSOURCE_lines -->
<g id="node31" class="node"><title>Extracting_J2000Coordinates_from_LEDAWORKFLOWINTERNALSOURCE_lines</title>
<polygon fill="skyblue" stroke="black" points="427,-830.5 391,-830.5 391,-809.5 427,-809.5 427,-830.5"/>
<text text-anchor="middle" x="409" y="-817.5" font-family="Helvetica,sans-Serif" font-size="10.00">lines</text>
</g>
<!-- Workflow7WORKFLOWINTERNALSINK_lines&#45;&gt;Extracting_J2000Coordinates_from_LEDAWORKFLOWINTERNALSOURCE_lines -->
<g id="edge85" class="edge"><title>Workflow7WORKFLOWINTERNALSINK_lines&#45;&gt;Extracting_J2000Coordinates_from_LEDAWORKFLOWINTERNALSOURCE_lines</title>
<path fill="none" stroke="black" d="M356.092,-913.262C365.992,-895.812 385.707,-861.059 398.076,-839.256"/>
<polygon fill="black" stroke="black" points="401.139,-840.95 403.029,-830.525 395.051,-837.496 401.139,-840.95"/>
</g>
<!-- Extracting_values_of_one_porperty_from_LEDA_WORKFLOWINTERNALSOURCE_lines -->
<g id="node50" class="node"><title>Extracting_values_of_one_porperty_from_LEDA_WORKFLOWINTERNALSOURCE_lines</title>
<polygon fill="skyblue" stroke="black" points="179,-830.5 143,-830.5 143,-809.5 179,-809.5 179,-830.5"/>
<text text-anchor="middle" x="161" y="-817.5" font-family="Helvetica,sans-Serif" font-size="10.00">lines</text>
</g>
<!-- Workflow7WORKFLOWINTERNALSINK_lines&#45;&gt;Extracting_values_of_one_porperty_from_LEDA_WORKFLOWINTERNALSOURCE_lines -->
<g id="edge87" class="edge"><title>Workflow7WORKFLOWINTERNALSINK_lines&#45;&gt;Extracting_values_of_one_porperty_from_LEDA_WORKFLOWINTERNALSOURCE_lines</title>
<path fill="none" stroke="black" d="M344.348,-913.409C340.568,-907.474 335.004,-900.568 328,-897 299.244,-882.353 208.521,-908.751 183,-889 168.377,-877.683 163.295,-856.598 161.617,-840.702"/>
<polygon fill="black" stroke="black" points="165.108,-840.444 160.924,-830.71 158.124,-840.929 165.108,-840.444"/>
</g>
<!-- Names_Galaxies -->
<g id="node22" class="node"><title>Names_Galaxies</title>
<polygon fill="#b0c4de" stroke="black" points="450,-1195.5 358,-1195.5 358,-1174.5 450,-1174.5 450,-1195.5"/>
<text text-anchor="middle" x="404" y="-1182.5" font-family="Helvetica,sans-Serif" font-size="10.00">Names_Galaxies</text>
</g>
<!-- Names_Galaxies&#45;&gt;Workflow7WORKFLOWINTERNALSOURCE_title -->
<g id="edge83" class="edge"><title>Names_Galaxies&#45;&gt;Workflow7WORKFLOWINTERNALSOURCE_title</title>
<path fill="none" stroke="black" d="M404,-1174.21C404,-1160.21 404,-1135.5 404,-1117.8"/>
<polygon fill="black" stroke="black" points="407.5,-1117.6 404,-1107.6 400.5,-1117.6 407.5,-1117.6"/>
</g>
<!-- Extracting_J2000Coordinates_from_LEDAREST_Service -->
<g id="node24" class="node"><title>Extracting_J2000Coordinates_from_LEDAREST_Service</title>
<polygon fill="#7aafff" stroke="black" points="498,-792.5 416,-792.5 416,-771.5 498,-771.5 498,-792.5"/>
<text text-anchor="middle" x="457" y="-779.5" font-family="Helvetica,sans-Serif" font-size="10.00">REST_Service</text>
</g>
<!-- Extracting_J2000Coordinates_from_LEDAWrite_Text_File -->
<g id="node26" class="node"><title>Extracting_J2000Coordinates_from_LEDAWrite_Text_File</title>
<polygon fill="#d15fee" stroke="black" points="499,-754.5 413,-754.5 413,-733.5 499,-733.5 499,-754.5"/>
<text text-anchor="middle" x="456" y="-741.5" font-family="Helvetica,sans-Serif" font-size="10.00">Write_Text_File</text>
</g>
<!-- Extracting_J2000Coordinates_from_LEDAREST_Service&#45;&gt;Extracting_J2000Coordinates_from_LEDAWrite_Text_File -->
<g id="edge30" class="edge"><title>Extracting_J2000Coordinates_from_LEDAREST_Service&#45;&gt;Extracting_J2000Coordinates_from_LEDAWrite_Text_File</title>
<path fill="none" stroke="black" d="M456.716,-771.212C456.663,-769.19 456.606,-767.013 456.547,-764.804"/>
<polygon fill="black" stroke="black" points="460.043,-764.588 456.281,-754.683 453.046,-764.772 460.043,-764.588"/>
</g>
<!-- Extracting_J2000Coordinates_from_LEDAextractJ2000Coord -->
<g id="node25" class="node"><title>Extracting_J2000Coordinates_from_LEDAextractJ2000Coord</title>
<polygon fill="#f28c55" stroke="black" points="504,-716.5 406,-716.5 406,-695.5 504,-695.5 504,-716.5"/>
<text text-anchor="middle" x="455" y="-703.5" font-family="Helvetica,sans-Serif" font-size="10.00">extractJ2000Coord</text>
</g>
<!-- Extracting_J2000Coordinates_from_LEDAWORKFLOWINTERNALSINK_J2000Coords -->
<g id="node34" class="node"><title>Extracting_J2000Coordinates_from_LEDAWORKFLOWINTERNALSINK_J2000Coords</title>
<polygon fill="#bcd2ee" stroke="black" points="491,-657.5 417,-657.5 417,-636.5 491,-636.5 491,-657.5"/>
<text text-anchor="middle" x="454" y="-644.5" font-family="Helvetica,sans-Serif" font-size="10.00">J2000Coords</text>
</g>
<!-- Extracting_J2000Coordinates_from_LEDAextractJ2000Coord&#45;&gt;Extracting_J2000Coordinates_from_LEDAWORKFLOWINTERNALSINK_J2000Coords -->
<g id="edge34" class="edge"><title>Extracting_J2000Coordinates_from_LEDAextractJ2000Coord&#45;&gt;Extracting_J2000Coordinates_from_LEDAWORKFLOWINTERNALSINK_J2000Coords</title>
<path fill="none" stroke="black" d="M454.821,-695.452C454.692,-687.829 454.513,-677.277 454.355,-667.966"/>
<polygon fill="black" stroke="black" points="457.853,-667.795 454.184,-657.856 450.854,-667.914 457.853,-667.795"/>
</g>
<!-- Extracting_J2000Coordinates_from_LEDAWrite_Text_File&#45;&gt;Extracting_J2000Coordinates_from_LEDAextractJ2000Coord -->
<g id="edge26" class="edge"><title>Extracting_J2000Coordinates_from_LEDAWrite_Text_File&#45;&gt;Extracting_J2000Coordinates_from_LEDAextractJ2000Coord</title>
<path fill="none" stroke="black" d="M455.716,-733.212C455.663,-731.19 455.606,-729.013 455.547,-726.804"/>
<polygon fill="black" stroke="black" points="459.043,-726.588 455.281,-716.683 452.046,-726.772 459.043,-726.588"/>
</g>
<!-- Extracting_J2000Coordinates_from_LEDAencoding_value_1 -->
<g id="node27" class="node"><title>Extracting_J2000Coordinates_from_LEDAencoding_value_1</title>
<polygon fill="#b0c4de" stroke="black" points="412,-792.5 318,-792.5 318,-771.5 412,-771.5 412,-792.5"/>
<text text-anchor="middle" x="365" y="-779.5" font-family="Helvetica,sans-Serif" font-size="10.00">encoding_value_1</text>
</g>
<!-- Extracting_J2000Coordinates_from_LEDAencoding_value_1&#45;&gt;Extracting_J2000Coordinates_from_LEDAWrite_Text_File -->
<g id="edge28" class="edge"><title>Extracting_J2000Coordinates_from_LEDAencoding_value_1&#45;&gt;Extracting_J2000Coordinates_from_LEDAWrite_Text_File</title>
<path fill="none" stroke="black" d="M390.349,-771.415C399.913,-767.421 410.967,-762.805 421.245,-758.513"/>
<polygon fill="black" stroke="black" points="422.908,-761.611 430.787,-754.528 420.211,-755.152 422.908,-761.611"/>
</g>
<!-- Extracting_J2000Coordinates_from_LEDAoutputFile_value -->
<g id="node28" class="node"><title>Extracting_J2000Coordinates_from_LEDAoutputFile_value</title>
<polygon fill="#b0c4de" stroke="black" points="590,-792.5 502,-792.5 502,-771.5 590,-771.5 590,-792.5"/>
<text text-anchor="middle" x="546" y="-779.5" font-family="Helvetica,sans-Serif" font-size="10.00">outputFile_value</text>
</g>
<!-- Extracting_J2000Coordinates_from_LEDAoutputFile_value&#45;&gt;Extracting_J2000Coordinates_from_LEDAWrite_Text_File -->
<g id="edge32" class="edge"><title>Extracting_J2000Coordinates_from_LEDAoutputFile_value&#45;&gt;Extracting_J2000Coordinates_from_LEDAWrite_Text_File</title>
<path fill="none" stroke="black" d="M520.93,-771.415C511.47,-767.421 500.538,-762.805 490.373,-758.513"/>
<polygon fill="black" stroke="black" points="491.509,-755.194 480.936,-754.528 488.787,-761.643 491.509,-755.194"/>
</g>
<!-- Extracting_J2000Coordinates_from_LEDAWORKFLOWINTERNALSOURCECONTROL -->
<g id="node30" class="node"><title>Extracting_J2000Coordinates_from_LEDAWORKFLOWINTERNALSOURCECONTROL</title>
<polygon fill="#ff4040" stroke="black" points="442,-827 435,-816.5 449,-816.5 442,-827"/>
</g>
<!-- Extracting_J2000Coordinates_from_LEDAWORKFLOWINTERNALSOURCE_lines&#45;&gt;Extracting_J2000Coordinates_from_LEDAREST_Service -->
<g id="edge24" class="edge"><title>Extracting_J2000Coordinates_from_LEDAWORKFLOWINTERNALSOURCE_lines&#45;&gt;Extracting_J2000Coordinates_from_LEDAREST_Service</title>
<path fill="none" stroke="black" d="M422.371,-809.415C426.532,-806.121 431.227,-802.404 435.786,-798.794"/>
<polygon fill="black" stroke="black" points="438.033,-801.48 443.701,-792.528 433.688,-795.991 438.033,-801.48"/>
</g>
<!-- Extracting_J2000Coordinates_from_LEDAWORKFLOWINTERNALSINKCONTROL -->
<g id="node33" class="node"><title>Extracting_J2000Coordinates_from_LEDAWORKFLOWINTERNALSINKCONTROL</title>
<polygon fill="#66cd00" stroke="black" points="502,-640 509,-650.5 495,-650.5 502,-640"/>
</g>
<!-- Merge_String_List_to_a_String_2 -->
<g id="node75" class="node"><title>Merge_String_List_to_a_String_2</title>
<polygon fill="#d15fee" stroke="black" points="534,-582.5 374,-582.5 374,-561.5 534,-561.5 534,-582.5"/>
<text text-anchor="middle" x="454" y="-569.5" font-family="Helvetica,sans-Serif" font-size="10.00">Merge_String_List_to_a_String_2</text>
</g>
<!-- Extracting_J2000Coordinates_from_LEDAWORKFLOWINTERNALSINK_J2000Coords&#45;&gt;Merge_String_List_to_a_String_2 -->
<g id="edge97" class="edge"><title>Extracting_J2000Coordinates_from_LEDAWORKFLOWINTERNALSINK_J2000Coords&#45;&gt;Merge_String_List_to_a_String_2</title>
<path fill="none" stroke="black" d="M454,-636.254C454,-625.004 454,-607.051 454,-592.978"/>
<polygon fill="black" stroke="black" points="457.5,-592.726 454,-582.726 450.5,-592.726 457.5,-592.726"/>
</g>
<!-- Extracting_values_of_one_porperty_from_LEDA_REST_Service -->
<g id="node42" class="node"><title>Extracting_values_of_one_porperty_from_LEDA_REST_Service</title>
<polygon fill="#7aafff" stroke="black" points="202,-792.5 120,-792.5 120,-771.5 202,-771.5 202,-792.5"/>
<text text-anchor="middle" x="161" y="-779.5" font-family="Helvetica,sans-Serif" font-size="10.00">REST_Service</text>
</g>
<!-- Extracting_values_of_one_porperty_from_LEDA_Write_Text_File -->
<g id="node44" class="node"><title>Extracting_values_of_one_porperty_from_LEDA_Write_Text_File</title>
<polygon fill="#d15fee" stroke="black" points="204,-754.5 118,-754.5 118,-733.5 204,-733.5 204,-754.5"/>
<text text-anchor="middle" x="161" y="-741.5" font-family="Helvetica,sans-Serif" font-size="10.00">Write_Text_File</text>
</g>
<!-- Extracting_values_of_one_porperty_from_LEDA_REST_Service&#45;&gt;Extracting_values_of_one_porperty_from_LEDA_Write_Text_File -->
<g id="edge47" class="edge"><title>Extracting_values_of_one_porperty_from_LEDA_REST_Service&#45;&gt;Extracting_values_of_one_porperty_from_LEDA_Write_Text_File</title>
<path fill="none" stroke="black" d="M161,-771.212C161,-769.19 161,-767.013 161,-764.804"/>
<polygon fill="black" stroke="black" points="164.5,-764.683 161,-754.683 157.5,-764.683 164.5,-764.683"/>
</g>
<!-- Extracting_values_of_one_porperty_from_LEDA_extractPropertyValue -->
<g id="node43" class="node"><title>Extracting_values_of_one_porperty_from_LEDA_extractPropertyValue</title>
<polygon fill="#f28c55" stroke="black" points="215,-716.5 107,-716.5 107,-695.5 215,-695.5 215,-716.5"/>
<text text-anchor="middle" x="161" y="-703.5" font-family="Helvetica,sans-Serif" font-size="10.00">extractPropertyValue</text>
</g>
<!-- Extracting_values_of_one_porperty_from_LEDA_WORKFLOWINTERNALSINK_remoteValues -->
<g id="node53" class="node"><title>Extracting_values_of_one_porperty_from_LEDA_WORKFLOWINTERNALSINK_remoteValues</title>
<polygon fill="#bcd2ee" stroke="black" points="199,-657.5 123,-657.5 123,-636.5 199,-636.5 199,-657.5"/>
<text text-anchor="middle" x="161" y="-644.5" font-family="Helvetica,sans-Serif" font-size="10.00">remoteValues</text>
</g>
<!-- Extracting_values_of_one_porperty_from_LEDA_extractPropertyValue&#45;&gt;Extracting_values_of_one_porperty_from_LEDA_WORKFLOWINTERNALSINK_remoteValues -->
<g id="edge51" class="edge"><title>Extracting_values_of_one_porperty_from_LEDA_extractPropertyValue&#45;&gt;Extracting_values_of_one_porperty_from_LEDA_WORKFLOWINTERNALSINK_remoteValues</title>
<path fill="none" stroke="black" d="M161,-695.452C161,-687.829 161,-677.277 161,-667.966"/>
<polygon fill="black" stroke="black" points="164.5,-667.856 161,-657.856 157.5,-667.856 164.5,-667.856"/>
</g>
<!-- Extracting_values_of_one_porperty_from_LEDA_Write_Text_File&#45;&gt;Extracting_values_of_one_porperty_from_LEDA_extractPropertyValue -->
<g id="edge41" class="edge"><title>Extracting_values_of_one_porperty_from_LEDA_Write_Text_File&#45;&gt;Extracting_values_of_one_porperty_from_LEDA_extractPropertyValue</title>
<path fill="none" stroke="black" d="M161,-733.212C161,-731.19 161,-729.013 161,-726.804"/>
<polygon fill="black" stroke="black" points="164.5,-726.683 161,-716.683 157.5,-726.683 164.5,-726.683"/>
</g>
<!-- Extracting_values_of_one_porperty_from_LEDA_encoding_value_1 -->
<g id="node45" class="node"><title>Extracting_values_of_one_porperty_from_LEDA_encoding_value_1</title>
<polygon fill="#b0c4de" stroke="black" points="116,-792.5 22,-792.5 22,-771.5 116,-771.5 116,-792.5"/>
<text text-anchor="middle" x="69" y="-779.5" font-family="Helvetica,sans-Serif" font-size="10.00">encoding_value_1</text>
</g>
<!-- Extracting_values_of_one_porperty_from_LEDA_encoding_value_1&#45;&gt;Extracting_values_of_one_porperty_from_LEDA_Write_Text_File -->
<g id="edge45" class="edge"><title>Extracting_values_of_one_porperty_from_LEDA_encoding_value_1&#45;&gt;Extracting_values_of_one_porperty_from_LEDA_Write_Text_File</title>
<path fill="none" stroke="black" d="M94.6271,-771.415C104.397,-767.38 115.703,-762.71 126.184,-758.38"/>
<polygon fill="black" stroke="black" points="127.604,-761.581 135.51,-754.528 124.932,-755.111 127.604,-761.581"/>
</g>
<!-- Extracting_values_of_one_porperty_from_LEDA_outputFile_value -->
<g id="node46" class="node"><title>Extracting_values_of_one_porperty_from_LEDA_outputFile_value</title>
<polygon fill="#b0c4de" stroke="black" points="294,-792.5 206,-792.5 206,-771.5 294,-771.5 294,-792.5"/>
<text text-anchor="middle" x="250" y="-779.5" font-family="Helvetica,sans-Serif" font-size="10.00">outputFile_value</text>
</g>
<!-- Extracting_values_of_one_porperty_from_LEDA_outputFile_value&#45;&gt;Extracting_values_of_one_porperty_from_LEDA_Write_Text_File -->
<g id="edge49" class="edge"><title>Extracting_values_of_one_porperty_from_LEDA_outputFile_value&#45;&gt;Extracting_values_of_one_porperty_from_LEDA_Write_Text_File</title>
<path fill="none" stroke="black" d="M225.209,-771.415C215.854,-767.421 205.043,-762.805 194.991,-758.513"/>
<polygon fill="black" stroke="black" points="196.23,-755.236 185.659,-754.528 193.481,-761.674 196.23,-755.236"/>
</g>
<!-- Extracting_values_of_one_porperty_from_LEDA_WORKFLOWINTERNALSOURCECONTROL -->
<g id="node48" class="node"><title>Extracting_values_of_one_porperty_from_LEDA_WORKFLOWINTERNALSOURCECONTROL</title>
<polygon fill="#ff4040" stroke="black" points="190,-827 183,-816.5 197,-816.5 190,-827"/>
</g>
<!-- Extracting_values_of_one_porperty_from_LEDA_WORKFLOWINTERNALSOURCE_property -->
<g id="node49" class="node"><title>Extracting_values_of_one_porperty_from_LEDA_WORKFLOWINTERNALSOURCE_property</title>
<polygon fill="skyblue" stroke="black" points="139,-830.5 87,-830.5 87,-809.5 139,-809.5 139,-830.5"/>
<text text-anchor="middle" x="113" y="-817.5" font-family="Helvetica,sans-Serif" font-size="10.00">property</text>
</g>
<!-- Extracting_values_of_one_porperty_from_LEDA_WORKFLOWINTERNALSOURCE_property&#45;&gt;Extracting_values_of_one_porperty_from_LEDA_extractPropertyValue -->
<g id="edge43" class="edge"><title>Extracting_values_of_one_porperty_from_LEDA_WORKFLOWINTERNALSOURCE_property&#45;&gt;Extracting_values_of_one_porperty_from_LEDA_extractPropertyValue</title>
<path fill="none" stroke="black" d="M86.6267,-815.746C62.6257,-811.273 29.787,-803.433 22,-793 16.1515,-785.164 16.7509,-779.249 22,-771 38.6951,-744.763 69.0675,-728.938 97.1719,-719.485"/>
<polygon fill="black" stroke="black" points="98.5004,-722.737 106.992,-716.401 96.4028,-716.058 98.5004,-722.737"/>
</g>
<!-- Extracting_values_of_one_porperty_from_LEDA_WORKFLOWINTERNALSOURCE_lines&#45;&gt;Extracting_values_of_one_porperty_from_LEDA_REST_Service -->
<g id="edge39" class="edge"><title>Extracting_values_of_one_porperty_from_LEDA_WORKFLOWINTERNALSOURCE_lines&#45;&gt;Extracting_values_of_one_porperty_from_LEDA_REST_Service</title>
<path fill="none" stroke="black" d="M161,-809.212C161,-807.19 161,-805.013 161,-802.804"/>
<polygon fill="black" stroke="black" points="164.5,-802.683 161,-792.683 157.5,-802.683 164.5,-802.683"/>
</g>
<!-- Extracting_values_of_one_porperty_from_LEDA_WORKFLOWINTERNALSINKCONTROL -->
<g id="node52" class="node"><title>Extracting_values_of_one_porperty_from_LEDA_WORKFLOWINTERNALSINKCONTROL</title>
<polygon fill="#66cd00" stroke="black" points="210,-640 217,-650.5 203,-650.5 210,-640"/>
</g>
<!-- Merge_String_List_to_a_String -->
<g id="node62" class="node"><title>Merge_String_List_to_a_String</title>
<polygon fill="#d15fee" stroke="black" points="236,-582.5 86,-582.5 86,-561.5 236,-561.5 236,-582.5"/>
<text text-anchor="middle" x="161" y="-569.5" font-family="Helvetica,sans-Serif" font-size="10.00">Merge_String_List_to_a_String</text>
</g>
<!-- Extracting_values_of_one_porperty_from_LEDA_WORKFLOWINTERNALSINK_remoteValues&#45;&gt;Merge_String_List_to_a_String -->
<g id="edge91" class="edge"><title>Extracting_values_of_one_porperty_from_LEDA_WORKFLOWINTERNALSINK_remoteValues&#45;&gt;Merge_String_List_to_a_String</title>
<path fill="none" stroke="black" d="M161,-636.254C161,-625.004 161,-607.051 161,-592.978"/>
<polygon fill="black" stroke="black" points="164.5,-592.726 161,-582.726 157.5,-592.726 164.5,-592.726"/>
</g>
<!-- velocity_property -->
<g id="node61" class="node"><title>velocity_property</title>
<polygon fill="#b0c4de" stroke="black" points="158,-934.5 68,-934.5 68,-913.5 158,-913.5 158,-934.5"/>
<text text-anchor="middle" x="113" y="-921.5" font-family="Helvetica,sans-Serif" font-size="10.00">velocity_property</text>
</g>
<!-- velocity_property&#45;&gt;Extracting_values_of_one_porperty_from_LEDA_WORKFLOWINTERNALSOURCE_property -->
<g id="edge89" class="edge"><title>velocity_property&#45;&gt;Extracting_values_of_one_porperty_from_LEDA_WORKFLOWINTERNALSOURCE_property</title>
<path fill="none" stroke="black" d="M113,-913.262C113,-896.203 113,-862.609 113,-840.741"/>
<polygon fill="black" stroke="black" points="116.5,-840.525 113,-830.525 109.5,-840.525 116.5,-840.525"/>
</g>
<!-- Comparing_Quantities_WORKFLOWINTERNALSOURCE_remoteFile -->
<g id="node68" class="node"><title>Comparing_Quantities_WORKFLOWINTERNALSOURCE_remoteFile</title>
<polygon fill="skyblue" stroke="black" points="266,-486.5 204,-486.5 204,-465.5 266,-465.5 266,-486.5"/>
<text text-anchor="middle" x="235" y="-473.5" font-family="Helvetica,sans-Serif" font-size="10.00">remoteFile</text>
</g>
<!-- Merge_String_List_to_a_String&#45;&gt;Comparing_Quantities_WORKFLOWINTERNALSOURCE_remoteFile -->
<g id="edge93" class="edge"><title>Merge_String_List_to_a_String&#45;&gt;Comparing_Quantities_WORKFLOWINTERNALSOURCE_remoteFile</title>
<path fill="none" stroke="black" d="M169.202,-561.36C181.593,-545.285 205.26,-514.582 220.575,-494.714"/>
<polygon fill="black" stroke="black" points="223.428,-496.745 226.761,-486.688 217.884,-492.471 223.428,-496.745"/>
</g>
<!-- Comparing_Quantities_compare -->
<g id="node64" class="node"><title>Comparing_Quantities_compare</title>
<polygon fill="#f28c55" stroke="black" points="311,-448.5 257,-448.5 257,-427.5 311,-427.5 311,-448.5"/>
<text text-anchor="middle" x="284" y="-435.5" font-family="Helvetica,sans-Serif" font-size="10.00">compare</text>
</g>
<!-- Comparing_Quantities_WORKFLOWINTERNALSINK_comparingFile -->
<g id="node71" class="node"><title>Comparing_Quantities_WORKFLOWINTERNALSINK_comparingFile</title>
<polygon fill="#bcd2ee" stroke="black" points="322,-389.5 246,-389.5 246,-368.5 322,-368.5 322,-389.5"/>
<text text-anchor="middle" x="284" y="-376.5" font-family="Helvetica,sans-Serif" font-size="10.00">comparingFile</text>
</g>
<!-- Comparing_Quantities_compare&#45;&gt;Comparing_Quantities_WORKFLOWINTERNALSINK_comparingFile -->
<g id="edge60" class="edge"><title>Comparing_Quantities_compare&#45;&gt;Comparing_Quantities_WORKFLOWINTERNALSINK_comparingFile</title>
<path fill="none" stroke="black" d="M284,-427.452C284,-419.829 284,-409.277 284,-399.966"/>
<polygon fill="black" stroke="black" points="287.5,-399.856 284,-389.856 280.5,-399.856 287.5,-399.856"/>
</g>
<!-- Comparing_Quantities_WORKFLOWINTERNALSOURCECONTROL -->
<g id="node66" class="node"><title>Comparing_Quantities_WORKFLOWINTERNALSOURCECONTROL</title>
<polygon fill="#ff4040" stroke="black" points="333,-483 326,-472.5 340,-472.5 333,-483"/>
</g>
<!-- Comparing_Quantities_WORKFLOWINTERNALSOURCE_localFile -->
<g id="node67" class="node"><title>Comparing_Quantities_WORKFLOWINTERNALSOURCE_localFile</title>
<polygon fill="skyblue" stroke="black" points="322,-486.5 270,-486.5 270,-465.5 322,-465.5 322,-486.5"/>
<text text-anchor="middle" x="296" y="-473.5" font-family="Helvetica,sans-Serif" font-size="10.00">localFile</text>
</g>
<!-- Comparing_Quantities_WORKFLOWINTERNALSOURCE_localFile&#45;&gt;Comparing_Quantities_compare -->
<g id="edge56" class="edge"><title>Comparing_Quantities_WORKFLOWINTERNALSOURCE_localFile&#45;&gt;Comparing_Quantities_compare</title>
<path fill="none" stroke="black" d="M292.593,-465.212C291.903,-463.028 291.157,-460.664 290.402,-458.273"/>
<polygon fill="black" stroke="black" points="293.723,-457.165 287.374,-448.683 287.047,-459.273 293.723,-457.165"/>
</g>
<!-- Comparing_Quantities_WORKFLOWINTERNALSOURCE_remoteFile&#45;&gt;Comparing_Quantities_compare -->
<g id="edge58" class="edge"><title>Comparing_Quantities_WORKFLOWINTERNALSOURCE_remoteFile&#45;&gt;Comparing_Quantities_compare</title>
<path fill="none" stroke="black" d="M248.649,-465.415C252.897,-462.121 257.69,-458.404 262.344,-454.794"/>
<polygon fill="black" stroke="black" points="264.667,-457.422 270.424,-448.528 260.377,-451.891 264.667,-457.422"/>
</g>
<!-- Comparing_Quantities_WORKFLOWINTERNALSINKCONTROL -->
<g id="node70" class="node"><title>Comparing_Quantities_WORKFLOWINTERNALSINKCONTROL</title>
<polygon fill="#66cd00" stroke="black" points="333,-372 340,-382.5 326,-382.5 333,-372"/>
</g>
<!-- Calculate_the_distances_of_galaxiesWORKFLOWINTERNALSOURCE_velocityComparing -->
<g id="node85" class="node"><title>Calculate_the_distances_of_galaxiesWORKFLOWINTERNALSOURCE_velocityComparing</title>
<polygon fill="skyblue" stroke="black" points="370,-285.5 272,-285.5 272,-264.5 370,-264.5 370,-285.5"/>
<text text-anchor="middle" x="321" y="-272.5" font-family="Helvetica,sans-Serif" font-size="10.00">velocityComparing</text>
</g>
<!-- Comparing_Quantities_WORKFLOWINTERNALSINK_comparingFile&#45;&gt;Calculate_the_distances_of_galaxiesWORKFLOWINTERNALSOURCE_velocityComparing -->
<g id="edge101" class="edge"><title>Comparing_Quantities_WORKFLOWINTERNALSINK_comparingFile&#45;&gt;Calculate_the_distances_of_galaxiesWORKFLOWINTERNALSOURCE_velocityComparing</title>
<path fill="none" stroke="black" d="M287.82,-368.262C293.945,-351.046 306.061,-316.991 313.834,-295.142"/>
<polygon fill="black" stroke="black" points="317.201,-296.12 317.256,-285.525 310.606,-293.773 317.201,-296.12"/>
</g>
<!-- Calculate_the_distances_of_galaxiesWORKFLOWINTERNALSOURCE_fileCoordsJ2000 -->
<g id="node84" class="node"><title>Calculate_the_distances_of_galaxiesWORKFLOWINTERNALSOURCE_fileCoordsJ2000</title>
<polygon fill="skyblue" stroke="black" points="460,-285.5 374,-285.5 374,-264.5 460,-264.5 460,-285.5"/>
<text text-anchor="middle" x="417" y="-272.5" font-family="Helvetica,sans-Serif" font-size="10.00">fileCoordsJ2000</text>
</g>
<!-- Merge_String_List_to_a_String_2&#45;&gt;Calculate_the_distances_of_galaxiesWORKFLOWINTERNALSOURCE_fileCoordsJ2000 -->
<g id="edge99" class="edge"><title>Merge_String_List_to_a_String_2&#45;&gt;Calculate_the_distances_of_galaxiesWORKFLOWINTERNALSOURCE_fileCoordsJ2000</title>
<path fill="none" stroke="black" d="M452.683,-561.43C447.3,-518.223 426.912,-354.561 419.616,-295.998"/>
<polygon fill="black" stroke="black" points="423.049,-295.245 418.34,-285.754 416.103,-296.11 423.049,-295.245"/>
</g>
<!-- Calculate_the_distances_of_galaxiescoords2Deg -->
<g id="node77" class="node"><title>Calculate_the_distances_of_galaxiescoords2Deg</title>
<polygon fill="#f28c55" stroke="black" points="486,-247.5 418,-247.5 418,-226.5 486,-226.5 486,-247.5"/>
<text text-anchor="middle" x="452" y="-234.5" font-family="Helvetica,sans-Serif" font-size="10.00">coords2Deg</text>
</g>
<!-- Calculate_the_distances_of_galaxieseq2gal -->
<g id="node78" class="node"><title>Calculate_the_distances_of_galaxieseq2gal</title>
<polygon fill="#f28c55" stroke="black" points="486,-209.5 442,-209.5 442,-188.5 486,-188.5 486,-209.5"/>
<text text-anchor="middle" x="464" y="-196.5" font-family="Helvetica,sans-Serif" font-size="10.00">eq2gal</text>
</g>
<!-- Calculate_the_distances_of_galaxiescoords2Deg&#45;&gt;Calculate_the_distances_of_galaxieseq2gal -->
<g id="edge67" class="edge"><title>Calculate_the_distances_of_galaxiescoords2Deg&#45;&gt;Calculate_the_distances_of_galaxieseq2gal</title>
<path fill="none" stroke="black" d="M455.407,-226.212C456.097,-224.028 456.843,-221.664 457.598,-219.273"/>
<polygon fill="black" stroke="black" points="460.953,-220.273 460.626,-209.683 454.277,-218.165 460.953,-220.273"/>
</g>
<!-- Calculate_the_distances_of_galaxiescalculateDistance -->
<g id="node79" class="node"><title>Calculate_the_distances_of_galaxiescalculateDistance</title>
<polygon fill="#f28c55" stroke="black" points="478,-171.5 384,-171.5 384,-150.5 478,-150.5 478,-171.5"/>
<text text-anchor="middle" x="431" y="-158.5" font-family="Helvetica,sans-Serif" font-size="10.00">calculateDistance</text>
</g>
<!-- Calculate_the_distances_of_galaxiescoords2Deg&#45;&gt;Calculate_the_distances_of_galaxiescalculateDistance -->
<g id="edge69" class="edge"><title>Calculate_the_distances_of_galaxiescoords2Deg&#45;&gt;Calculate_the_distances_of_galaxiescalculateDistance</title>
<path fill="none" stroke="black" d="M447.676,-226.338C445.777,-221.416 443.617,-215.464 442,-210 439.256,-200.728 436.825,-190.293 434.951,-181.443"/>
<polygon fill="black" stroke="black" points="438.376,-180.723 432.957,-171.619 431.516,-182.115 438.376,-180.723"/>
</g>
<!-- Calculate_the_distances_of_galaxieseq2gal&#45;&gt;Calculate_the_distances_of_galaxiescalculateDistance -->
<g id="edge71" class="edge"><title>Calculate_the_distances_of_galaxieseq2gal&#45;&gt;Calculate_the_distances_of_galaxiescalculateDistance</title>
<path fill="none" stroke="black" d="M454.632,-188.212C452.243,-185.461 449.607,-182.426 446.988,-179.41"/>
<polygon fill="black" stroke="black" points="449.477,-176.939 440.277,-171.683 444.192,-181.528 449.477,-176.939"/>
</g>
<!-- Calculate_the_distances_of_galaxiesWORKFLOWINTERNALSINK_distances -->
<g id="node88" class="node"><title>Calculate_the_distances_of_galaxiesWORKFLOWINTERNALSINK_distances</title>
<polygon fill="#bcd2ee" stroke="black" points="460,-112.5 402,-112.5 402,-91.5 460,-91.5 460,-112.5"/>
<text text-anchor="middle" x="431" y="-99.5" font-family="Helvetica,sans-Serif" font-size="10.00">distances</text>
</g>
<!-- Calculate_the_distances_of_galaxiescalculateDistance&#45;&gt;Calculate_the_distances_of_galaxiesWORKFLOWINTERNALSINK_distances -->
<g id="edge79" class="edge"><title>Calculate_the_distances_of_galaxiescalculateDistance&#45;&gt;Calculate_the_distances_of_galaxiesWORKFLOWINTERNALSINK_distances</title>
<path fill="none" stroke="black" d="M431,-150.452C431,-142.829 431,-132.277 431,-122.966"/>
<polygon fill="black" stroke="black" points="434.5,-122.856 431,-112.856 427.5,-122.856 434.5,-122.856"/>
</g>
<!-- Calculate_the_distances_of_galaxiesh75_value -->
<g id="node80" class="node"><title>Calculate_the_distances_of_galaxiesh75_value</title>
<polygon fill="#b0c4de" stroke="black" points="426,-209.5 366,-209.5 366,-188.5 426,-188.5 426,-209.5"/>
<text text-anchor="middle" x="396" y="-196.5" font-family="Helvetica,sans-Serif" font-size="10.00">h75_value</text>
</g>
<!-- Calculate_the_distances_of_galaxiesh75_value&#45;&gt;Calculate_the_distances_of_galaxiescalculateDistance -->
<g id="edge73" class="edge"><title>Calculate_the_distances_of_galaxiesh75_value&#45;&gt;Calculate_the_distances_of_galaxiescalculateDistance</title>
<path fill="none" stroke="black" d="M405.936,-188.212C408.544,-185.38 411.43,-182.247 414.288,-179.144"/>
<polygon fill="black" stroke="black" points="416.96,-181.41 421.16,-171.683 411.811,-176.667 416.96,-181.41"/>
</g>
<!-- Calculate_the_distances_of_galaxiesvirgo_coords_value -->
<g id="node81" class="node"><title>Calculate_the_distances_of_galaxiesvirgo_coords_value</title>
<polygon fill="#b0c4de" stroke="black" points="362,-209.5 262,-209.5 262,-188.5 362,-188.5 362,-209.5"/>
<text text-anchor="middle" x="312" y="-196.5" font-family="Helvetica,sans-Serif" font-size="10.00">virgo_coords_value</text>
</g>
<!-- Calculate_the_distances_of_galaxiesvirgo_coords_value&#45;&gt;Calculate_the_distances_of_galaxiescalculateDistance -->
<g id="edge75" class="edge"><title>Calculate_the_distances_of_galaxiesvirgo_coords_value&#45;&gt;Calculate_the_distances_of_galaxiescalculateDistance</title>
<path fill="none" stroke="black" d="M345.148,-188.415C358.559,-184.133 374.207,-179.136 388.444,-174.589"/>
<polygon fill="black" stroke="black" points="389.568,-177.905 398.03,-171.528 387.439,-171.236 389.568,-177.905"/>
</g>
<!-- Calculate_the_distances_of_galaxiesWORKFLOWINTERNALSOURCECONTROL -->
<g id="node83" class="node"><title>Calculate_the_distances_of_galaxiesWORKFLOWINTERNALSOURCECONTROL</title>
<polygon fill="#ff4040" stroke="black" points="471,-282 464,-271.5 478,-271.5 471,-282"/>
</g>
<!-- Calculate_the_distances_of_galaxiesWORKFLOWINTERNALSOURCE_fileCoordsJ2000&#45;&gt;Calculate_the_distances_of_galaxiescoords2Deg -->
<g id="edge65" class="edge"><title>Calculate_the_distances_of_galaxiesWORKFLOWINTERNALSOURCE_fileCoordsJ2000&#45;&gt;Calculate_the_distances_of_galaxiescoords2Deg</title>
<path fill="none" stroke="black" d="M426.936,-264.212C429.544,-261.38 432.43,-258.247 435.288,-255.144"/>
<polygon fill="black" stroke="black" points="437.96,-257.41 442.16,-247.683 432.811,-252.667 437.96,-257.41"/>
</g>
<!-- Calculate_the_distances_of_galaxiesWORKFLOWINTERNALSOURCE_velocityComparing&#45;&gt;Calculate_the_distances_of_galaxiescalculateDistance -->
<g id="edge77" class="edge"><title>Calculate_the_distances_of_galaxiesWORKFLOWINTERNALSOURCE_velocityComparing&#45;&gt;Calculate_the_distances_of_galaxiescalculateDistance</title>
<path fill="none" stroke="black" d="M352.309,-264.418C376.706,-254.421 409.17,-236.899 426,-210 431.216,-201.664 432.755,-190.929 432.867,-181.633"/>
<polygon fill="black" stroke="black" points="436.364,-181.468 432.48,-171.611 429.369,-181.739 436.364,-181.468"/>
</g>
<!-- Calculate_the_distances_of_galaxiesWORKFLOWINTERNALSINKCONTROL -->
<g id="node87" class="node"><title>Calculate_the_distances_of_galaxiesWORKFLOWINTERNALSINKCONTROL</title>
<polygon fill="#66cd00" stroke="black" points="471,-95 478,-105.5 464,-105.5 471,-95"/>
</g>
<!-- WORKFLOWINTERNALSINK_distances -->
<g id="node102" class="node"><title>WORKFLOWINTERNALSINK_distances</title>
<polygon fill="#bcd2ee" stroke="black" points="460,-37.5 402,-37.5 402,-16.5 460,-16.5 460,-37.5"/>
<text text-anchor="middle" x="431" y="-24.5" font-family="Helvetica,sans-Serif" font-size="10.00">distances</text>
</g>
<!-- Calculate_the_distances_of_galaxiesWORKFLOWINTERNALSINK_distances&#45;&gt;WORKFLOWINTERNALSINK_distances -->
<g id="edge103" class="edge"><title>Calculate_the_distances_of_galaxiesWORKFLOWINTERNALSINK_distances&#45;&gt;WORKFLOWINTERNALSINK_distances</title>
<path fill="none" stroke="black" d="M431,-91.2543C431,-80.0043 431,-62.051 431,-47.978"/>
<polygon fill="black" stroke="black" points="434.5,-47.7257 431,-37.7257 427.5,-47.7258 434.5,-47.7257"/>
</g>
<!-- WORKFLOWINTERNALSOURCECONTROL -->
<g id="node98" class="node"><title>WORKFLOWINTERNALSOURCECONTROL</title>
<polygon fill="#ff4040" stroke="black" points="351,-579 344,-568.5 358,-568.5 351,-579"/>
</g>
<!-- WORKFLOWINTERNALSOURCE_localPropertyFile -->
<g id="node99" class="node"><title>WORKFLOWINTERNALSOURCE_localPropertyFile</title>
<polygon fill="skyblue" stroke="black" points="340,-582.5 252,-582.5 252,-561.5 340,-561.5 340,-582.5"/>
<text text-anchor="middle" x="296" y="-569.5" font-family="Helvetica,sans-Serif" font-size="10.00">localPropertyFile</text>
</g>
<!-- WORKFLOWINTERNALSOURCE_localPropertyFile&#45;&gt;Comparing_Quantities_WORKFLOWINTERNALSOURCE_localFile -->
<g id="edge95" class="edge"><title>WORKFLOWINTERNALSOURCE_localPropertyFile&#45;&gt;Comparing_Quantities_WORKFLOWINTERNALSOURCE_localFile</title>
<path fill="none" stroke="black" d="M296,-561.36C296,-545.862 296,-516.766 296,-496.893"/>
<polygon fill="black" stroke="black" points="299.5,-496.688 296,-486.688 292.5,-496.688 299.5,-496.688"/>
</g>
<!-- WORKFLOWINTERNALSINKCONTROL -->
<g id="node101" class="node"><title>WORKFLOWINTERNALSINKCONTROL</title>
<polygon fill="#66cd00" stroke="black" points="472,-20 479,-30.5 465,-30.5 472,-20"/>
</g>
</g>
</svg>
