<?xml version="1.0" encoding="UTF-8" standalone="no"?>
<!DOCTYPE svg PUBLIC "-//W3C//DTD SVG 1.1//EN"
 "http://www.w3.org/Graphics/SVG/1.1/DTD/svg11.dtd">
<!-- Generated by graphviz version 2.26.0 (20091210.2329)
 -->
<!-- Title: t2flow_graph Pages: 1 -->
<svg width="442pt" height="290pt"
 viewBox="0.00 0.00 442.00 290.00" xmlns="http://www.w3.org/2000/svg" xmlns:xlink="http://www.w3.org/1999/xlink">
<g id="graph1" class="graph" transform="scale(1 1) rotate(0) translate(4 286)">
<title>t2flow_graph</title>
<polygon fill="white" stroke="white" points="-4,5 -4,-286 439,-286 439,5 -4,5"/>
<g id="graph2" class="cluster"><title>cluster_sources</title>
<polygon fill="none" stroke="black" stroke-dasharray="1,5" points="200,-223 200,-274 288,-274 288,-223 200,-223"/>
<text text-anchor="middle" x="244" y="-261" font-family="Helvetica,sans-Serif" font-size="10.00">Workflow Inputs</text>
</g>
<g id="graph3" class="cluster"><title>cluster_sinks</title>
<polygon fill="none" stroke="black" stroke-dasharray="1,5" points="175,-8 175,-67 367,-67 367,-8 175,-8"/>
<text text-anchor="middle" x="222.5" y="-54" font-family="Helvetica,sans-Serif" font-size="10.00">Workflow Outputs</text>
</g>
<!-- master_snp_call_database -->
<g id="node1" class="node"><title>master_snp_call_database</title>
<polygon fill="#f28c55" stroke="black" points="294,-96.5 162,-96.5 162,-75.5 294,-75.5 294,-96.5"/>
<text text-anchor="middle" x="228" y="-83.5" font-family="Helvetica,sans-Serif" font-size="10.00">master_snp_call_database</text>
</g>
<!-- Tell_2 -->
<g id="node9" class="node"><title>Tell_2</title>
<polygon fill="#d15fee" stroke="black" points="144,-37.5 102,-37.5 102,-16.5 144,-16.5 144,-37.5"/>
<text text-anchor="middle" x="123" y="-24.5" font-family="Helvetica,sans-Serif" font-size="10.00">Tell_2</text>
</g>
<!-- master_snp_call_database&#45;&gt;Tell_2 -->
<g id="edge32" class="edge"><title>master_snp_call_database&#45;&gt;Tell_2</title>
<path fill="none" stroke="gray" d="M192.707,-75.4595C186.319,-73.0299 179.838,-70.2024 174,-67 161.976,-60.4045 149.842,-51.023 140.427,-43.0031"/>
<ellipse fill="none" stroke="gray" cx="137.391" cy="-40.3509" rx="4.00002" ry="4.00002"/>
</g>
<!-- WORKFLOWINTERNALSINK_database_status -->
<g id="node18" class="node"><title>WORKFLOWINTERNALSINK_database_status</title>
<polygon fill="#bcd2ee" stroke="black" points="341,-37.5 253,-37.5 253,-16.5 341,-16.5 341,-37.5"/>
<text text-anchor="middle" x="297" y="-24.5" font-family="Helvetica,sans-Serif" font-size="10.00">database_status</text>
</g>
<!-- master_snp_call_database&#45;&gt;WORKFLOWINTERNALSINK_database_status -->
<g id="edge26" class="edge"><title>master_snp_call_database&#45;&gt;WORKFLOWINTERNALSINK_database_status</title>
<path fill="none" stroke="black" d="M240.336,-75.452C250.414,-66.8342 264.869,-54.4743 276.656,-44.3953"/>
<polygon fill="black" stroke="black" points="278.978,-47.0149 284.304,-37.8559 274.429,-41.6946 278.978,-47.0149"/>
</g>
<!-- WORKFLOWINTERNALSINK_error_report -->
<g id="node19" class="node"><title>WORKFLOWINTERNALSINK_error_report</title>
<polygon fill="#bcd2ee" stroke="black" points="249,-37.5 183,-37.5 183,-16.5 249,-16.5 249,-37.5"/>
<text text-anchor="middle" x="216" y="-24.5" font-family="Helvetica,sans-Serif" font-size="10.00">error_report</text>
</g>
<!-- master_snp_call_database&#45;&gt;WORKFLOWINTERNALSINK_error_report -->
<g id="edge28" class="edge"><title>master_snp_call_database&#45;&gt;WORKFLOWINTERNALSINK_error_report</title>
<path fill="none" stroke="black" d="M225.855,-75.452C224.287,-67.7457 222.111,-57.047 220.203,-47.6629"/>
<polygon fill="black" stroke="black" points="223.631,-46.9576 218.208,-37.8559 216.771,-48.3528 223.631,-46.9576"/>
</g>
<!-- app_dir -->
<g id="node2" class="node"><title>app_dir</title>
<polygon fill="#b0c4de" stroke="black" points="176,-134.5 128,-134.5 128,-113.5 176,-113.5 176,-134.5"/>
<text text-anchor="middle" x="152" y="-121.5" font-family="Helvetica,sans-Serif" font-size="10.00">app_dir</text>
</g>
<!-- app_dir&#45;&gt;master_snp_call_database -->
<g id="edge4" class="edge"><title>app_dir&#45;&gt;master_snp_call_database</title>
<path fill="none" stroke="black" d="M173.17,-113.415C180.829,-109.585 189.631,-105.185 197.909,-101.046"/>
<polygon fill="black" stroke="black" points="199.564,-104.131 206.943,-96.5284 196.434,-97.87 199.564,-104.131"/>
</g>
<!-- Choose -->
<g id="node3" class="node"><title>Choose</title>
<polygon fill="#d15fee" stroke="black" points="312,-172.5 262,-172.5 262,-151.5 312,-151.5 312,-172.5"/>
<text text-anchor="middle" x="287" y="-159.5" font-family="Helvetica,sans-Serif" font-size="10.00">Choose</text>
</g>
<!-- Beanshell_2 -->
<g id="node11" class="node"><title>Beanshell_2</title>
<polygon fill="#deb887" stroke="black" points="302,-134.5 232,-134.5 232,-113.5 302,-113.5 302,-134.5"/>
<text text-anchor="middle" x="267" y="-121.5" font-family="Helvetica,sans-Serif" font-size="10.00">Beanshell_2</text>
</g>
<!-- Choose&#45;&gt;Beanshell_2 -->
<g id="edge24" class="edge"><title>Choose&#45;&gt;Beanshell_2</title>
<path fill="none" stroke="black" d="M281.322,-151.212C280.087,-148.866 278.743,-146.313 277.39,-143.741"/>
<polygon fill="black" stroke="black" points="280.377,-141.902 272.623,-134.683 274.183,-145.162 280.377,-141.902"/>
</g>
<!-- Ask_Beanscript_Edited_2 -->
<g id="node12" class="node"><title>Ask_Beanscript_Edited_2</title>
<polygon fill="#d15fee" stroke="black" points="434,-134.5 306,-134.5 306,-113.5 434,-113.5 434,-134.5"/>
<text text-anchor="middle" x="370" y="-121.5" font-family="Helvetica,sans-Serif" font-size="10.00">Ask_Beanscript_Edited_2</text>
</g>
<!-- Choose&#45;&gt;Ask_Beanscript_Edited_2 -->
<g id="edge30" class="edge"><title>Choose&#45;&gt;Ask_Beanscript_Edited_2</title>
<path fill="none" stroke="gray" d="M310.12,-151.415C319.204,-147.256 329.76,-142.423 339.456,-137.984"/>
<ellipse fill="none" stroke="gray" cx="343.367" cy="-136.193" rx="4.00002" ry="4.00002"/>
</g>
<!-- Split_string_into_string_list_by_regular_expression -->
<g id="node4" class="node"><title>Split_string_into_string_list_by_regular_expression</title>
<polygon fill="#d15fee" stroke="black" points="236,-210.5 8.52651e-14,-210.5 0,-189.5 236,-189.5 236,-210.5"/>
<text text-anchor="middle" x="118" y="-197.5" font-family="Helvetica,sans-Serif" font-size="10.00">Split_string_into_string_list_by_regular_expression</text>
</g>
<!-- Split_string_into_string_list_by_regular_expression&#45;&gt;Choose -->
<g id="edge12" class="edge"><title>Split_string_into_string_list_by_regular_expression&#45;&gt;Choose</title>
<path fill="none" stroke="black" d="M165.076,-189.415C192.545,-183.238 226.626,-175.575 251.766,-169.922"/>
<polygon fill="black" stroke="black" points="252.619,-173.318 261.608,-167.71 251.083,-166.489 252.619,-173.318"/>
</g>
<!-- regex_value -->
<g id="node5" class="node"><title>regex_value</title>
<polygon fill="#b0c4de" stroke="black" points="116,-248.5 48,-248.5 48,-227.5 116,-227.5 116,-248.5"/>
<text text-anchor="middle" x="82" y="-235.5" font-family="Helvetica,sans-Serif" font-size="10.00">regex_value</text>
</g>
<!-- regex_value&#45;&gt;Split_string_into_string_list_by_regular_expression -->
<g id="edge18" class="edge"><title>regex_value&#45;&gt;Split_string_into_string_list_by_regular_expression</title>
<path fill="none" stroke="black" d="M92.2199,-227.212C94.9027,-224.38 97.8712,-221.247 100.811,-218.144"/>
<polygon fill="black" stroke="black" points="103.543,-220.35 107.879,-210.683 98.4609,-215.536 103.543,-220.35"/>
</g>
<!-- string_value -->
<g id="node6" class="node"><title>string_value</title>
<polygon fill="#b0c4de" stroke="black" points="188,-248.5 120,-248.5 120,-227.5 188,-227.5 188,-248.5"/>
<text text-anchor="middle" x="154" y="-235.5" font-family="Helvetica,sans-Serif" font-size="10.00">string_value</text>
</g>
<!-- string_value&#45;&gt;Split_string_into_string_list_by_regular_expression -->
<g id="edge20" class="edge"><title>string_value&#45;&gt;Split_string_into_string_list_by_regular_expression</title>
<path fill="none" stroke="black" d="M143.78,-227.212C141.097,-224.38 138.129,-221.247 135.189,-218.144"/>
<polygon fill="black" stroke="black" points="137.539,-215.536 128.121,-210.683 132.457,-220.35 137.539,-215.536"/>
</g>
<!-- message_value_1 -->
<g id="node7" class="node"><title>message_value_1</title>
<polygon fill="#b0c4de" stroke="black" points="334,-210.5 240,-210.5 240,-189.5 334,-189.5 334,-210.5"/>
<text text-anchor="middle" x="287" y="-197.5" font-family="Helvetica,sans-Serif" font-size="10.00">message_value_1</text>
</g>
<!-- message_value_1&#45;&gt;Choose -->
<g id="edge14" class="edge"><title>message_value_1&#45;&gt;Choose</title>
<path fill="none" stroke="black" d="M287,-189.212C287,-187.19 287,-185.013 287,-182.804"/>
<polygon fill="black" stroke="black" points="290.5,-182.683 287,-172.683 283.5,-182.683 290.5,-182.683"/>
</g>
<!-- title_value_1 -->
<g id="node8" class="node"><title>title_value_1</title>
<polygon fill="#b0c4de" stroke="black" points="408,-210.5 338,-210.5 338,-189.5 408,-189.5 408,-210.5"/>
<text text-anchor="middle" x="373" y="-197.5" font-family="Helvetica,sans-Serif" font-size="10.00">title_value_1</text>
</g>
<!-- title_value_1&#45;&gt;Choose -->
<g id="edge16" class="edge"><title>title_value_1&#45;&gt;Choose</title>
<path fill="none" stroke="black" d="M349.044,-189.415C340.098,-185.462 329.774,-180.9 320.146,-176.646"/>
<polygon fill="black" stroke="black" points="321.389,-173.369 310.827,-172.528 318.56,-179.771 321.389,-173.369"/>
</g>
<!-- tmp_dir -->
<g id="node10" class="node"><title>tmp_dir</title>
<polygon fill="#b0c4de" stroke="black" points="228,-134.5 180,-134.5 180,-113.5 228,-113.5 228,-134.5"/>
<text text-anchor="middle" x="204" y="-121.5" font-family="Helvetica,sans-Serif" font-size="10.00">tmp_dir</text>
</g>
<!-- tmp_dir&#45;&gt;master_snp_call_database -->
<g id="edge6" class="edge"><title>tmp_dir&#45;&gt;master_snp_call_database</title>
<path fill="none" stroke="black" d="M210.813,-113.212C212.397,-110.704 214.131,-107.959 215.868,-105.209"/>
<polygon fill="black" stroke="black" points="218.872,-107.007 221.253,-96.6831 212.954,-103.269 218.872,-107.007"/>
</g>
<!-- Beanshell_2&#45;&gt;master_snp_call_database -->
<g id="edge10" class="edge"><title>Beanshell_2&#45;&gt;master_snp_call_database</title>
<path fill="none" stroke="black" d="M255.928,-113.212C252.939,-110.3 249.622,-107.068 246.349,-103.878"/>
<polygon fill="black" stroke="black" points="248.569,-101.155 238.964,-96.6831 243.684,-106.169 248.569,-101.155"/>
</g>
<!-- Ask_Beanscript_Edited_2&#45;&gt;master_snp_call_database -->
<g id="edge8" class="edge"><title>Ask_Beanscript_Edited_2&#45;&gt;master_snp_call_database</title>
<path fill="none" stroke="black" d="M330.445,-113.415C313.981,-109.009 294.69,-103.847 277.315,-99.1971"/>
<polygon fill="black" stroke="black" points="277.908,-95.7325 267.343,-96.5284 276.098,-102.495 277.908,-95.7325"/>
</g>
<!-- message_value_3 -->
<g id="node13" class="node"><title>message_value_3</title>
<polygon fill="#b0c4de" stroke="black" points="158,-96.5 64,-96.5 64,-75.5 158,-75.5 158,-96.5"/>
<text text-anchor="middle" x="111" y="-83.5" font-family="Helvetica,sans-Serif" font-size="10.00">message_value_3</text>
</g>
<!-- message_value_3&#45;&gt;Tell_2 -->
<g id="edge22" class="edge"><title>message_value_3&#45;&gt;Tell_2</title>
<path fill="none" stroke="black" d="M113.145,-75.452C114.713,-67.7457 116.889,-57.047 118.797,-47.6629"/>
<polygon fill="black" stroke="black" points="122.229,-48.3528 120.792,-37.8559 115.369,-46.9576 122.229,-48.3528"/>
</g>
<!-- WORKFLOWINTERNALSOURCECONTROL -->
<g id="node15" class="node"><title>WORKFLOWINTERNALSOURCECONTROL</title>
<polygon fill="#ff4040" stroke="black" points="244,-245 237,-234.5 251,-234.5 244,-245"/>
</g>
<!-- WORKFLOWINTERNALSINKCONTROL -->
<g id="node17" class="node"><title>WORKFLOWINTERNALSINKCONTROL</title>
<polygon fill="#66cd00" stroke="black" points="352,-20 359,-30.5 345,-30.5 352,-20"/>
</g>
</g>
</svg>
