<?xml version="1.0" encoding="UTF-8" standalone="no"?>
<!DOCTYPE svg PUBLIC "-//W3C//DTD SVG 1.1//EN"
 "http://www.w3.org/Graphics/SVG/1.1/DTD/svg11.dtd">
<!-- Generated by graphviz version 2.26.0 (20091210.2329)
 -->
<!-- Title: t2flow_graph Pages: 1 -->
<svg width="599pt" height="404pt"
 viewBox="0.00 0.00 598.94 404.00" xmlns="http://www.w3.org/2000/svg" xmlns:xlink="http://www.w3.org/1999/xlink">
<g id="graph1" class="graph" transform="scale(1 1) rotate(0) translate(4 400)">
<title>t2flow_graph</title>
<polygon fill="white" stroke="white" points="-4,5 -4,-400 595.945,-400 595.945,5 -4,5"/>
<g id="graph2" class="cluster"><title>cluster_sources</title>
<polygon fill="none" stroke="black" stroke-dasharray="1,5" points="337.945,-337 337.945,-388 425.945,-388 425.945,-337 337.945,-337"/>
<text text-anchor="middle" x="381.945" y="-375" font-family="Helvetica,sans-Serif" font-size="10.00">Workflow Inputs</text>
</g>
<g id="graph3" class="cluster"><title>cluster_sinks</title>
<polygon fill="none" stroke="black" stroke-dasharray="1,5" points="77.9448,-8 77.9448,-67 219.945,-67 219.945,-8 77.9448,-8"/>
<text text-anchor="middle" x="125.445" y="-54" font-family="Helvetica,sans-Serif" font-size="10.00">Workflow Outputs</text>
</g>
<!-- Read_Text_File -->
<g id="node1" class="node"><title>Read_Text_File</title>
<polygon fill="#d15fee" stroke="black" points="219.945,-286.5 133.945,-286.5 133.945,-265.5 219.945,-265.5 219.945,-286.5"/>
<text text-anchor="middle" x="176.945" y="-273.5" font-family="Helvetica,sans-Serif" font-size="10.00">Read_Text_File</text>
</g>
<!-- Split_string_into_string_list_by_regular_expression -->
<g id="node8" class="node"><title>Split_string_into_string_list_by_regular_expression</title>
<polygon fill="#d15fee" stroke="black" points="294.945,-248.5 58.9448,-248.5 58.9448,-227.5 294.945,-227.5 294.945,-248.5"/>
<text text-anchor="middle" x="176.945" y="-235.5" font-family="Helvetica,sans-Serif" font-size="10.00">Split_string_into_string_list_by_regular_expression</text>
</g>
<!-- Read_Text_File&#45;&gt;Split_string_into_string_list_by_regular_expression -->
<g id="edge16" class="edge"><title>Read_Text_File&#45;&gt;Split_string_into_string_list_by_regular_expression</title>
<path fill="none" stroke="black" d="M176.945,-265.212C176.945,-263.19 176.945,-261.013 176.945,-258.804"/>
<polygon fill="black" stroke="black" points="180.445,-258.683 176.945,-248.683 173.445,-258.683 180.445,-258.683"/>
</g>
<!-- encoding_value -->
<g id="node2" class="node"><title>encoding_value</title>
<polygon fill="#b0c4de" stroke="black" points="179.945,-324.5 95.9448,-324.5 95.9448,-303.5 179.945,-303.5 179.945,-324.5"/>
<text text-anchor="middle" x="137.945" y="-311.5" font-family="Helvetica,sans-Serif" font-size="10.00">encoding_value</text>
</g>
<!-- encoding_value&#45;&gt;Read_Text_File -->
<g id="edge4" class="edge"><title>encoding_value&#45;&gt;Read_Text_File</title>
<path fill="none" stroke="black" d="M149.016,-303.212C152.006,-300.3 155.323,-297.068 158.596,-293.878"/>
<polygon fill="black" stroke="black" points="161.261,-296.169 165.981,-286.683 156.376,-291.155 161.261,-296.169"/>
</g>
<!-- Select_File -->
<g id="node3" class="node"><title>Select_File</title>
<polygon fill="#d15fee" stroke="black" points="247.945,-324.5 183.945,-324.5 183.945,-303.5 247.945,-303.5 247.945,-324.5"/>
<text text-anchor="middle" x="215.945" y="-311.5" font-family="Helvetica,sans-Serif" font-size="10.00">Select_File</text>
</g>
<!-- Select_File&#45;&gt;Read_Text_File -->
<g id="edge6" class="edge"><title>Select_File&#45;&gt;Read_Text_File</title>
<path fill="none" stroke="black" d="M204.873,-303.212C201.884,-300.3 198.567,-297.068 195.294,-293.878"/>
<polygon fill="black" stroke="black" points="197.514,-291.155 187.909,-286.683 192.629,-296.169 197.514,-291.155"/>
</g>
<!-- fileExtensions_value -->
<g id="node4" class="node"><title>fileExtensions_value</title>
<polygon fill="#b0c4de" stroke="black" points="161.945,-362.5 55.9448,-362.5 55.9448,-341.5 161.945,-341.5 161.945,-362.5"/>
<text text-anchor="middle" x="108.945" y="-349.5" font-family="Helvetica,sans-Serif" font-size="10.00">fileExtensions_value</text>
</g>
<!-- fileExtensions_value&#45;&gt;Select_File -->
<g id="edge8" class="edge"><title>fileExtensions_value&#45;&gt;Select_File</title>
<path fill="none" stroke="black" d="M138.75,-341.415C150.461,-337.256 164.069,-332.423 176.569,-327.984"/>
<polygon fill="black" stroke="black" points="178.047,-331.173 186.299,-324.528 175.704,-324.577 178.047,-331.173"/>
</g>
<!-- fileExtLabels_value -->
<g id="node5" class="node"><title>fileExtLabels_value</title>
<polygon fill="#b0c4de" stroke="black" points="265.945,-362.5 165.945,-362.5 165.945,-341.5 265.945,-341.5 265.945,-362.5"/>
<text text-anchor="middle" x="215.945" y="-349.5" font-family="Helvetica,sans-Serif" font-size="10.00">fileExtLabels_value</text>
</g>
<!-- fileExtLabels_value&#45;&gt;Select_File -->
<g id="edge10" class="edge"><title>fileExtLabels_value&#45;&gt;Select_File</title>
<path fill="none" stroke="black" d="M215.945,-341.212C215.945,-339.19 215.945,-337.013 215.945,-334.804"/>
<polygon fill="black" stroke="black" points="219.445,-334.683 215.945,-324.683 212.445,-334.683 219.445,-334.683"/>
</g>
<!-- title_value -->
<g id="node6" class="node"><title>title_value</title>
<polygon fill="#b0c4de" stroke="black" points="329.945,-362.5 269.945,-362.5 269.945,-341.5 329.945,-341.5 329.945,-362.5"/>
<text text-anchor="middle" x="299.945" y="-349.5" font-family="Helvetica,sans-Serif" font-size="10.00">title_value</text>
</g>
<!-- title_value&#45;&gt;Select_File -->
<g id="edge12" class="edge"><title>title_value&#45;&gt;Select_File</title>
<path fill="none" stroke="black" d="M276.546,-341.415C267.899,-337.503 257.934,-332.995 248.614,-328.779"/>
<polygon fill="black" stroke="black" points="249.772,-325.461 239.218,-324.528 246.886,-331.839 249.772,-325.461"/>
</g>
<!-- REST_Service -->
<g id="node7" class="node"><title>REST_Service</title>
<polygon fill="#7aafff" stroke="black" points="217.945,-210.5 135.945,-210.5 135.945,-189.5 217.945,-189.5 217.945,-210.5"/>
<text text-anchor="middle" x="176.945" y="-197.5" font-family="Helvetica,sans-Serif" font-size="10.00">REST_Service</text>
</g>
<!-- Split_string_into_string_list_by_regular_expression_2 -->
<g id="node10" class="node"><title>Split_string_into_string_list_by_regular_expression_2</title>
<polygon fill="#d15fee" stroke="black" points="424.945,-172.5 178.945,-172.5 178.945,-151.5 424.945,-151.5 424.945,-172.5"/>
<text text-anchor="middle" x="301.945" y="-159.5" font-family="Helvetica,sans-Serif" font-size="10.00">Split_string_into_string_list_by_regular_expression_2</text>
</g>
<!-- REST_Service&#45;&gt;Split_string_into_string_list_by_regular_expression_2 -->
<g id="edge20" class="edge"><title>REST_Service&#45;&gt;Split_string_into_string_list_by_regular_expression_2</title>
<path fill="none" stroke="black" d="M211.764,-189.415C225.986,-185.091 242.605,-180.039 257.674,-175.458"/>
<polygon fill="black" stroke="black" points="258.762,-178.786 267.312,-172.528 256.726,-172.088 258.762,-178.786"/>
</g>
<!-- WORKFLOWINTERNALSINK_test -->
<g id="node24" class="node"><title>WORKFLOWINTERNALSINK_test</title>
<polygon fill="#bcd2ee" stroke="black" points="117.945,-37.5 85.9448,-37.5 85.9448,-16.5 117.945,-16.5 117.945,-37.5"/>
<text text-anchor="middle" x="101.945" y="-24.5" font-family="Helvetica,sans-Serif" font-size="10.00">test</text>
</g>
<!-- REST_Service&#45;&gt;WORKFLOWINTERNALSINK_test -->
<g id="edge44" class="edge"><title>REST_Service&#45;&gt;WORKFLOWINTERNALSINK_test</title>
<path fill="none" stroke="black" d="M135.641,-196.064C89.1343,-191.206 18.9607,-182.425 10.9448,-173 -25.2416,-130.452 40.0005,-72.1569 77.7944,-43.8258"/>
<polygon fill="black" stroke="black" points="80.2831,-46.3418 86.2884,-37.6133 76.1507,-40.6918 80.2831,-46.3418"/>
</g>
<!-- Split_string_into_string_list_by_regular_expression&#45;&gt;REST_Service -->
<g id="edge14" class="edge"><title>Split_string_into_string_list_by_regular_expression&#45;&gt;REST_Service</title>
<path fill="none" stroke="black" d="M176.945,-227.212C176.945,-225.19 176.945,-223.013 176.945,-220.804"/>
<polygon fill="black" stroke="black" points="180.445,-220.683 176.945,-210.683 173.445,-220.683 180.445,-220.683"/>
</g>
<!-- regex_value -->
<g id="node9" class="node"><title>regex_value</title>
<polygon fill="#b0c4de" stroke="black" points="313.945,-286.5 245.945,-286.5 245.945,-265.5 313.945,-265.5 313.945,-286.5"/>
<text text-anchor="middle" x="279.945" y="-273.5" font-family="Helvetica,sans-Serif" font-size="10.00">regex_value</text>
</g>
<!-- regex_value&#45;&gt;Split_string_into_string_list_by_regular_expression -->
<g id="edge18" class="edge"><title>regex_value&#45;&gt;Split_string_into_string_list_by_regular_expression</title>
<path fill="none" stroke="black" d="M251.254,-265.415C240.093,-261.297 227.141,-256.519 215.206,-252.116"/>
<polygon fill="black" stroke="black" points="216.076,-248.706 205.482,-248.528 213.653,-255.273 216.076,-248.706"/>
</g>
<!-- regex_value&#45;&gt;Split_string_into_string_list_by_regular_expression_2 -->
<g id="edge22" class="edge"><title>regex_value&#45;&gt;Split_string_into_string_list_by_regular_expression_2</title>
<path fill="none" stroke="black" d="M287.193,-265.439C290.118,-260.635 293.206,-254.749 294.945,-249 301.561,-227.123 302.811,-200.824 302.721,-182.908"/>
<polygon fill="black" stroke="black" points="306.217,-182.643 302.52,-172.714 299.218,-182.781 306.217,-182.643"/>
</g>
<!-- Filter_list_of_strings_extracting_match_to_a_regex -->
<g id="node11" class="node"><title>Filter_list_of_strings_extracting_match_to_a_regex</title>
<polygon fill="#d15fee" stroke="black" points="590.945,-134.5 352.945,-134.5 352.945,-113.5 590.945,-113.5 590.945,-134.5"/>
<text text-anchor="middle" x="471.945" y="-121.5" font-family="Helvetica,sans-Serif" font-size="10.00">Filter_list_of_strings_extracting_match_to_a_regex</text>
</g>
<!-- Split_string_into_string_list_by_regular_expression_2&#45;&gt;Filter_list_of_strings_extracting_match_to_a_regex -->
<g id="edge24" class="edge"><title>Split_string_into_string_list_by_regular_expression_2&#45;&gt;Filter_list_of_strings_extracting_match_to_a_regex</title>
<path fill="none" stroke="black" d="M349.299,-151.415C369.654,-146.865 393.619,-141.508 414.939,-136.743"/>
<polygon fill="black" stroke="black" points="415.849,-140.126 424.844,-134.528 414.322,-133.294 415.849,-140.126"/>
</g>
<!-- Filter_list_of_strings_extracting_match_to_a_regex_2 -->
<g id="node14" class="node"><title>Filter_list_of_strings_extracting_match_to_a_regex_2</title>
<polygon fill="#d15fee" stroke="black" points="258.945,-134.5 10.9448,-134.5 10.9448,-113.5 258.945,-113.5 258.945,-134.5"/>
<text text-anchor="middle" x="134.945" y="-121.5" font-family="Helvetica,sans-Serif" font-size="10.00">Filter_list_of_strings_extracting_match_to_a_regex_2</text>
</g>
<!-- Split_string_into_string_list_by_regular_expression_2&#45;&gt;Filter_list_of_strings_extracting_match_to_a_regex_2 -->
<g id="edge30" class="edge"><title>Split_string_into_string_list_by_regular_expression_2&#45;&gt;Filter_list_of_strings_extracting_match_to_a_regex_2</title>
<path fill="none" stroke="black" d="M255.426,-151.415C235.52,-146.885 212.101,-141.557 191.229,-136.807"/>
<polygon fill="black" stroke="black" points="191.741,-133.334 181.214,-134.528 190.188,-140.16 191.741,-133.334"/>
</g>
<!-- Merge_String_List_to_a_String -->
<g id="node17" class="node"><title>Merge_String_List_to_a_String</title>
<polygon fill="#d15fee" stroke="black" points="380.945,-96.5 230.945,-96.5 230.945,-75.5 380.945,-75.5 380.945,-96.5"/>
<text text-anchor="middle" x="305.945" y="-83.5" font-family="Helvetica,sans-Serif" font-size="10.00">Merge_String_List_to_a_String</text>
</g>
<!-- Filter_list_of_strings_extracting_match_to_a_regex&#45;&gt;Merge_String_List_to_a_String -->
<g id="edge36" class="edge"><title>Filter_list_of_strings_extracting_match_to_a_regex&#45;&gt;Merge_String_List_to_a_String</title>
<path fill="none" stroke="black" d="M425.705,-113.415C405.918,-108.885 382.639,-103.557 361.892,-98.8072"/>
<polygon fill="black" stroke="black" points="362.466,-95.3481 351.937,-96.5284 360.904,-102.172 362.466,-95.3481"/>
</g>
<!-- group_value -->
<g id="node12" class="node"><title>group_value</title>
<polygon fill="#b0c4de" stroke="black" points="500.945,-172.5 432.945,-172.5 432.945,-151.5 500.945,-151.5 500.945,-172.5"/>
<text text-anchor="middle" x="466.945" y="-159.5" font-family="Helvetica,sans-Serif" font-size="10.00">group_value</text>
</g>
<!-- group_value&#45;&gt;Filter_list_of_strings_extracting_match_to_a_regex -->
<g id="edge26" class="edge"><title>group_value&#45;&gt;Filter_list_of_strings_extracting_match_to_a_regex</title>
<path fill="none" stroke="black" d="M468.364,-151.212C468.63,-149.19 468.917,-147.013 469.207,-144.804"/>
<polygon fill="black" stroke="black" points="472.705,-145.054 470.539,-134.683 465.764,-144.141 472.705,-145.054"/>
</g>
<!-- regex_value_1 -->
<g id="node13" class="node"><title>regex_value_1</title>
<polygon fill="#b0c4de" stroke="black" points="584.945,-172.5 504.945,-172.5 504.945,-151.5 584.945,-151.5 584.945,-172.5"/>
<text text-anchor="middle" x="544.945" y="-159.5" font-family="Helvetica,sans-Serif" font-size="10.00">regex_value_1</text>
</g>
<!-- regex_value_1&#45;&gt;Filter_list_of_strings_extracting_match_to_a_regex -->
<g id="edge28" class="edge"><title>regex_value_1&#45;&gt;Filter_list_of_strings_extracting_match_to_a_regex</title>
<path fill="none" stroke="black" d="M524.61,-151.415C517.333,-147.627 508.981,-143.279 501.105,-139.179"/>
<polygon fill="black" stroke="black" points="502.657,-136.041 492.17,-134.528 499.424,-142.25 502.657,-136.041"/>
</g>
<!-- Merge_String_List_to_a_String_2 -->
<g id="node19" class="node"><title>Merge_String_List_to_a_String_2</title>
<polygon fill="#d15fee" stroke="black" points="220.945,-96.5 60.9448,-96.5 60.9448,-75.5 220.945,-75.5 220.945,-96.5"/>
<text text-anchor="middle" x="140.945" y="-83.5" font-family="Helvetica,sans-Serif" font-size="10.00">Merge_String_List_to_a_String_2</text>
</g>
<!-- Filter_list_of_strings_extracting_match_to_a_regex_2&#45;&gt;Merge_String_List_to_a_String_2 -->
<g id="edge40" class="edge"><title>Filter_list_of_strings_extracting_match_to_a_regex_2&#45;&gt;Merge_String_List_to_a_String_2</title>
<path fill="none" stroke="black" d="M136.648,-113.212C136.968,-111.19 137.311,-109.013 137.66,-106.804"/>
<polygon fill="black" stroke="black" points="141.155,-107.107 139.258,-96.6831 134.241,-106.015 141.155,-107.107"/>
</g>
<!-- regex_value_2 -->
<g id="node15" class="node"><title>regex_value_2</title>
<polygon fill="#b0c4de" stroke="black" points="90.9448,-172.5 10.9448,-172.5 10.9448,-151.5 90.9448,-151.5 90.9448,-172.5"/>
<text text-anchor="middle" x="50.9448" y="-159.5" font-family="Helvetica,sans-Serif" font-size="10.00">regex_value_2</text>
</g>
<!-- regex_value_2&#45;&gt;Filter_list_of_strings_extracting_match_to_a_regex_2 -->
<g id="edge32" class="edge"><title>regex_value_2&#45;&gt;Filter_list_of_strings_extracting_match_to_a_regex_2</title>
<path fill="none" stroke="black" d="M74.3435,-151.415C82.9905,-147.503 92.9558,-142.995 102.276,-138.779"/>
<polygon fill="black" stroke="black" points="104.003,-141.839 111.672,-134.528 101.118,-135.461 104.003,-141.839"/>
</g>
<!-- group_value_1 -->
<g id="node16" class="node"><title>group_value_1</title>
<polygon fill="#b0c4de" stroke="black" points="174.945,-172.5 94.9448,-172.5 94.9448,-151.5 174.945,-151.5 174.945,-172.5"/>
<text text-anchor="middle" x="134.945" y="-159.5" font-family="Helvetica,sans-Serif" font-size="10.00">group_value_1</text>
</g>
<!-- group_value_1&#45;&gt;Filter_list_of_strings_extracting_match_to_a_regex_2 -->
<g id="edge34" class="edge"><title>group_value_1&#45;&gt;Filter_list_of_strings_extracting_match_to_a_regex_2</title>
<path fill="none" stroke="black" d="M134.945,-151.212C134.945,-149.19 134.945,-147.013 134.945,-144.804"/>
<polygon fill="black" stroke="black" points="138.445,-144.683 134.945,-134.683 131.445,-144.683 138.445,-144.683"/>
</g>
<!-- WORKFLOWINTERNALSINK_RA -->
<g id="node26" class="node"><title>WORKFLOWINTERNALSINK_RA</title>
<polygon fill="#bcd2ee" stroke="black" points="193.945,-37.5 163.945,-37.5 163.945,-16.5 193.945,-16.5 193.945,-37.5"/>
<text text-anchor="middle" x="178.945" y="-24.5" font-family="Helvetica,sans-Serif" font-size="10.00">RA</text>
</g>
<!-- Merge_String_List_to_a_String&#45;&gt;WORKFLOWINTERNALSINK_RA -->
<g id="edge48" class="edge"><title>Merge_String_List_to_a_String&#45;&gt;WORKFLOWINTERNALSINK_RA</title>
<path fill="none" stroke="black" d="M231.762,-75.4699C215.08,-72.5752 201.277,-69.5372 197.945,-67 191.542,-62.1251 187.199,-54.5496 184.301,-47.2967"/>
<polygon fill="black" stroke="black" points="187.553,-45.9802 181.104,-37.5742 180.903,-48.1672 187.553,-45.9802"/>
</g>
<!-- seperator_value -->
<g id="node18" class="node"><title>seperator_value</title>
<polygon fill="#b0c4de" stroke="black" points="348.945,-134.5 262.945,-134.5 262.945,-113.5 348.945,-113.5 348.945,-134.5"/>
<text text-anchor="middle" x="305.945" y="-121.5" font-family="Helvetica,sans-Serif" font-size="10.00">seperator_value</text>
</g>
<!-- seperator_value&#45;&gt;Merge_String_List_to_a_String -->
<g id="edge38" class="edge"><title>seperator_value&#45;&gt;Merge_String_List_to_a_String</title>
<path fill="none" stroke="black" d="M305.945,-113.212C305.945,-111.19 305.945,-109.013 305.945,-106.804"/>
<polygon fill="black" stroke="black" points="309.445,-106.683 305.945,-96.6831 302.445,-106.683 309.445,-106.683"/>
</g>
<!-- seperator_value&#45;&gt;Merge_String_List_to_a_String_2 -->
<g id="edge42" class="edge"><title>seperator_value&#45;&gt;Merge_String_List_to_a_String_2</title>
<path fill="none" stroke="black" d="M262.917,-113.921C261.578,-113.61 260.251,-113.302 258.945,-113 238.807,-108.34 216.725,-103.275 197.166,-98.8042"/>
<polygon fill="black" stroke="black" points="197.719,-95.3406 187.191,-96.5259 196.16,-102.165 197.719,-95.3406"/>
</g>
<!-- WORKFLOWINTERNALSINK_DEC -->
<g id="node25" class="node"><title>WORKFLOWINTERNALSINK_DEC</title>
<polygon fill="#bcd2ee" stroke="black" points="159.945,-37.5 121.945,-37.5 121.945,-16.5 159.945,-16.5 159.945,-37.5"/>
<text text-anchor="middle" x="140.945" y="-24.5" font-family="Helvetica,sans-Serif" font-size="10.00">DEC</text>
</g>
<!-- Merge_String_List_to_a_String_2&#45;&gt;WORKFLOWINTERNALSINK_DEC -->
<g id="edge46" class="edge"><title>Merge_String_List_to_a_String_2&#45;&gt;WORKFLOWINTERNALSINK_DEC</title>
<path fill="none" stroke="black" d="M140.945,-75.452C140.945,-67.8285 140.945,-57.2768 140.945,-47.966"/>
<polygon fill="black" stroke="black" points="144.445,-47.8558 140.945,-37.8559 137.445,-47.8559 144.445,-47.8558"/>
</g>
<!-- WORKFLOWINTERNALSOURCECONTROL -->
<g id="node21" class="node"><title>WORKFLOWINTERNALSOURCECONTROL</title>
<polygon fill="#ff4040" stroke="black" points="381.945,-359 374.945,-348.5 388.945,-348.5 381.945,-359"/>
</g>
<!-- WORKFLOWINTERNALSINKCONTROL -->
<g id="node23" class="node"><title>WORKFLOWINTERNALSINKCONTROL</title>
<polygon fill="#66cd00" stroke="black" points="204.945,-20 211.945,-30.5 197.945,-30.5 204.945,-20"/>
</g>
</g>
</svg>
