<?xml version="1.0" encoding="UTF-8" standalone="no"?>
<!DOCTYPE svg PUBLIC "-//W3C//DTD SVG 1.1//EN"
 "http://www.w3.org/Graphics/SVG/1.1/DTD/svg11.dtd">
<!-- Generated by graphviz version 2.26.0 (20091210.2329)
 -->
<!-- Title: t2flow_graph Pages: 1 -->
<svg width="354pt" height="218pt"
 viewBox="0.00 0.00 354.00 218.00" xmlns="http://www.w3.org/2000/svg" xmlns:xlink="http://www.w3.org/1999/xlink">
<g id="graph1" class="graph" transform="scale(1 1) rotate(0) translate(4 214)">
<title>t2flow_graph</title>
<polygon fill="white" stroke="white" points="-4,5 -4,-214 351,-214 351,5 -4,5"/>
<g id="graph2" class="cluster"><title>cluster_sources</title>
<polygon fill="none" stroke="black" stroke-dasharray="1,5" points="228,-143 228,-202 316,-202 316,-143 228,-143"/>
<text text-anchor="middle" x="272" y="-189" font-family="Helvetica,sans-Serif" font-size="10.00">Workflow Inputs</text>
</g>
<g id="graph3" class="cluster"><title>cluster_sinks</title>
<polygon fill="none" stroke="black" stroke-dasharray="1,5" points="80,-8 80,-67 338,-67 338,-8 80,-8"/>
<text text-anchor="middle" x="127.5" y="-54" font-family="Helvetica,sans-Serif" font-size="10.00">Workflow Outputs</text>
</g>
<!-- Format_conversion -->
<g id="node1" class="node"><title>Format_conversion</title>
<polygon fill="white" stroke="black" points="214,-134.5 114,-134.5 114,-113.5 214,-113.5 214,-134.5"/>
<text text-anchor="middle" x="164" y="-121.5" font-family="Helvetica,sans-Serif" font-size="10.00">Format_conversion</text>
</g>
<!-- makePlots -->
<g id="node4" class="node"><title>makePlots</title>
<polygon fill="#f28c55" stroke="black" points="195,-96.5 133,-96.5 133,-75.5 195,-75.5 195,-96.5"/>
<text text-anchor="middle" x="164" y="-83.5" font-family="Helvetica,sans-Serif" font-size="10.00">makePlots</text>
</g>
<!-- Format_conversion&#45;&gt;makePlots -->
<g id="edge10" class="edge"><title>Format_conversion&#45;&gt;makePlots</title>
<path fill="none" stroke="black" d="M164,-113.212C164,-111.19 164,-109.013 164,-106.804"/>
<polygon fill="black" stroke="black" points="167.5,-106.683 164,-96.6831 160.5,-106.683 167.5,-106.683"/>
</g>
<!-- formatTableIn_value -->
<g id="node2" class="node"><title>formatTableIn_value</title>
<polygon fill="#b0c4de" stroke="black" points="104,-172.5 4.26326e-14,-172.5 0,-151.5 104,-151.5 104,-172.5"/>
<text text-anchor="middle" x="52" y="-159.5" font-family="Helvetica,sans-Serif" font-size="10.00">formatTableIn_value</text>
</g>
<!-- formatTableIn_value&#45;&gt;Format_conversion -->
<g id="edge4" class="edge"><title>formatTableIn_value&#45;&gt;Format_conversion</title>
<path fill="none" stroke="black" d="M83.1982,-151.415C95.5772,-147.215 109.982,-142.327 123.173,-137.852"/>
<polygon fill="black" stroke="black" points="124.624,-141.056 132.969,-134.528 122.375,-134.427 124.624,-141.056"/>
</g>
<!-- formatTableOut_value -->
<g id="node3" class="node"><title>formatTableOut_value</title>
<polygon fill="#b0c4de" stroke="black" points="220,-172.5 108,-172.5 108,-151.5 220,-151.5 220,-172.5"/>
<text text-anchor="middle" x="164" y="-159.5" font-family="Helvetica,sans-Serif" font-size="10.00">formatTableOut_value</text>
</g>
<!-- formatTableOut_value&#45;&gt;Format_conversion -->
<g id="edge6" class="edge"><title>formatTableOut_value&#45;&gt;Format_conversion</title>
<path fill="none" stroke="black" d="M164,-151.212C164,-149.19 164,-147.013 164,-144.804"/>
<polygon fill="black" stroke="black" points="167.5,-144.683 164,-134.683 160.5,-144.683 167.5,-144.683"/>
</g>
<!-- WORKFLOWINTERNALSINK_makePlots_STDOUT -->
<g id="node10" class="node"><title>WORKFLOWINTERNALSINK_makePlots_STDOUT</title>
<polygon fill="#bcd2ee" stroke="black" points="312,-37.5 202,-37.5 202,-16.5 312,-16.5 312,-37.5"/>
<text text-anchor="middle" x="257" y="-24.5" font-family="Helvetica,sans-Serif" font-size="10.00">makePlots_STDOUT</text>
</g>
<!-- makePlots&#45;&gt;WORKFLOWINTERNALSINK_makePlots_STDOUT -->
<g id="edge12" class="edge"><title>makePlots&#45;&gt;WORKFLOWINTERNALSINK_makePlots_STDOUT</title>
<path fill="none" stroke="black" d="M183.586,-75.4336C188.349,-72.7603 193.396,-69.8399 198,-67 210.014,-59.5897 223.035,-50.842 233.78,-43.4198"/>
<polygon fill="black" stroke="black" points="235.994,-46.143 242.199,-37.5553 231.993,-40.3991 235.994,-46.143"/>
</g>
<!-- WORKFLOWINTERNALSINK_makePlots_STDERR -->
<g id="node11" class="node"><title>WORKFLOWINTERNALSINK_makePlots_STDERR</title>
<polygon fill="#bcd2ee" stroke="black" points="198,-37.5 88,-37.5 88,-16.5 198,-16.5 198,-37.5"/>
<text text-anchor="middle" x="143" y="-24.5" font-family="Helvetica,sans-Serif" font-size="10.00">makePlots_STDERR</text>
</g>
<!-- makePlots&#45;&gt;WORKFLOWINTERNALSINK_makePlots_STDERR -->
<g id="edge14" class="edge"><title>makePlots&#45;&gt;WORKFLOWINTERNALSINK_makePlots_STDERR</title>
<path fill="none" stroke="black" d="M160.246,-75.452C157.473,-67.6628 153.613,-56.8166 150.247,-47.3606"/>
<polygon fill="black" stroke="black" points="153.515,-46.1032 146.864,-37.8559 146.92,-48.4506 153.515,-46.1032"/>
</g>
<!-- WORKFLOWINTERNALSOURCECONTROL -->
<g id="node6" class="node"><title>WORKFLOWINTERNALSOURCECONTROL</title>
<polygon fill="#ff4040" stroke="black" points="298,-169 291,-158.5 305,-158.5 298,-169"/>
</g>
<!-- WORKFLOWINTERNALSOURCE_votable -->
<g id="node7" class="node"><title>WORKFLOWINTERNALSOURCE_votable</title>
<polygon fill="skyblue" stroke="black" points="284,-172.5 236,-172.5 236,-151.5 284,-151.5 284,-172.5"/>
<text text-anchor="middle" x="260" y="-159.5" font-family="Helvetica,sans-Serif" font-size="10.00">votable</text>
</g>
<!-- WORKFLOWINTERNALSOURCE_votable&#45;&gt;Format_conversion -->
<g id="edge8" class="edge"><title>WORKFLOWINTERNALSOURCE_votable&#45;&gt;Format_conversion</title>
<path fill="none" stroke="black" d="M246.286,-151.398C241.898,-148.368 236.903,-145.274 232,-143 227.95,-141.121 223.676,-139.393 219.324,-137.809"/>
<polygon fill="black" stroke="black" points="220.321,-134.452 209.727,-134.573 218.085,-141.085 220.321,-134.452"/>
</g>
<!-- WORKFLOWINTERNALSINKCONTROL -->
<g id="node9" class="node"><title>WORKFLOWINTERNALSINKCONTROL</title>
<polygon fill="#66cd00" stroke="black" points="323,-20 330,-30.5 316,-30.5 323,-20"/>
</g>
</g>
</svg>
