<?xml version="1.0" encoding="UTF-8" standalone="no"?>
<!DOCTYPE svg PUBLIC "-//W3C//DTD SVG 1.1//EN"
 "http://www.w3.org/Graphics/SVG/1.1/DTD/svg11.dtd">
<!-- Generated by graphviz version 2.26.0 (20091210.2329)
 -->
<!-- Title: t2flow_graph Pages: 1 -->
<svg width="216pt" height="180pt"
 viewBox="0.00 0.00 216.00 180.00" xmlns="http://www.w3.org/2000/svg" xmlns:xlink="http://www.w3.org/1999/xlink">
<g id="graph1" class="graph" transform="scale(1 1) rotate(0) translate(4 176)">
<title>t2flow_graph</title>
<polygon fill="white" stroke="white" points="-4,5 -4,-176 213,-176 213,5 -4,5"/>
<g id="graph2" class="cluster"><title>cluster_sources</title>
<polygon fill="none" stroke="black" stroke-dasharray="1,5" points="50,-105 50,-164 174,-164 174,-105 50,-105"/>
<text text-anchor="middle" x="94" y="-151" font-family="Helvetica,sans-Serif" font-size="10.00">Workflow Inputs</text>
</g>
<g id="graph3" class="cluster"><title>cluster_sinks</title>
<polygon fill="none" stroke="black" stroke-dasharray="1,5" points="8,-8 8,-67 200,-67 200,-8 8,-8"/>
<text text-anchor="middle" x="55.5" y="-54" font-family="Helvetica,sans-Serif" font-size="10.00">Workflow Outputs</text>
</g>
<!-- Plot_Distribution_As_PDF -->
<g id="node1" class="node"><title>Plot_Distribution_As_PDF</title>
<polygon fill="white" stroke="black" points="160,-96.5 30,-96.5 30,-75.5 160,-75.5 160,-96.5"/>
<text text-anchor="middle" x="95" y="-83.5" font-family="Helvetica,sans-Serif" font-size="10.00">Plot_Distribution_As_PDF</text>
</g>
<!-- WORKFLOWINTERNALSINK_Plot_Distribution_As_PDF_Files -->
<g id="node8" class="node"><title>WORKFLOWINTERNALSINK_Plot_Distribution_As_PDF_Files</title>
<polygon fill="#bcd2ee" stroke="black" points="174,-37.5 16,-37.5 16,-16.5 174,-16.5 174,-37.5"/>
<text text-anchor="middle" x="95" y="-24.5" font-family="Helvetica,sans-Serif" font-size="10.00">Plot_Distribution_As_PDF_Files</text>
</g>
<!-- Plot_Distribution_As_PDF&#45;&gt;WORKFLOWINTERNALSINK_Plot_Distribution_As_PDF_Files -->
<g id="edge8" class="edge"><title>Plot_Distribution_As_PDF&#45;&gt;WORKFLOWINTERNALSINK_Plot_Distribution_As_PDF_Files</title>
<path fill="none" stroke="black" d="M95,-75.452C95,-67.8285 95,-57.2768 95,-47.966"/>
<polygon fill="black" stroke="black" points="98.5001,-47.8558 95,-37.8559 91.5001,-47.8559 98.5001,-47.8558"/>
</g>
<!-- WORKFLOWINTERNALSOURCECONTROL -->
<g id="node3" class="node"><title>WORKFLOWINTERNALSOURCECONTROL</title>
<polygon fill="#ff4040" stroke="black" points="159,-131 152,-120.5 166,-120.5 159,-131"/>
</g>
<!-- WORKFLOWINTERNALSOURCE_score_file -->
<g id="node4" class="node"><title>WORKFLOWINTERNALSOURCE_score_file</title>
<polygon fill="skyblue" stroke="black" points="148,-134.5 90,-134.5 90,-113.5 148,-113.5 148,-134.5"/>
<text text-anchor="middle" x="119" y="-121.5" font-family="Helvetica,sans-Serif" font-size="10.00">score_file</text>
</g>
<!-- WORKFLOWINTERNALSOURCE_score_file&#45;&gt;Plot_Distribution_As_PDF -->
<g id="edge4" class="edge"><title>WORKFLOWINTERNALSOURCE_score_file&#45;&gt;Plot_Distribution_As_PDF</title>
<path fill="none" stroke="black" d="M112.187,-113.212C110.603,-110.704 108.869,-107.959 107.132,-105.209"/>
<polygon fill="black" stroke="black" points="110.046,-103.269 101.747,-96.6831 104.128,-107.007 110.046,-103.269"/>
</g>
<!-- WORKFLOWINTERNALSOURCE_file -->
<g id="node5" class="node"><title>WORKFLOWINTERNALSOURCE_file</title>
<polygon fill="skyblue" stroke="black" points="86,-134.5 58,-134.5 58,-113.5 86,-113.5 86,-134.5"/>
<text text-anchor="middle" x="72" y="-121.5" font-family="Helvetica,sans-Serif" font-size="10.00">file</text>
</g>
<!-- WORKFLOWINTERNALSOURCE_file&#45;&gt;Plot_Distribution_As_PDF -->
<g id="edge6" class="edge"><title>WORKFLOWINTERNALSOURCE_file&#45;&gt;Plot_Distribution_As_PDF</title>
<path fill="none" stroke="black" d="M78.5294,-113.212C79.9986,-110.785 81.6018,-108.136 83.2125,-105.475"/>
<polygon fill="black" stroke="black" points="86.3501,-107.05 88.5339,-96.6831 80.3616,-103.426 86.3501,-107.05"/>
</g>
<!-- WORKFLOWINTERNALSINKCONTROL -->
<g id="node7" class="node"><title>WORKFLOWINTERNALSINKCONTROL</title>
<polygon fill="#66cd00" stroke="black" points="185,-20 192,-30.5 178,-30.5 185,-20"/>
</g>
</g>
</svg>
