<?xml version="1.0" encoding="UTF-8" standalone="no"?>
<!DOCTYPE svg PUBLIC "-//W3C//DTD SVG 1.1//EN"
 "http://www.w3.org/Graphics/SVG/1.1/DTD/svg11.dtd">
<!-- Generated by graphviz version 2.26.0 (20091210.2329)
 -->
<!-- Title: t2flow_graph Pages: 1 -->
<svg width="410pt" height="446pt"
 viewBox="0.00 0.00 410.00 446.00" xmlns="http://www.w3.org/2000/svg" xmlns:xlink="http://www.w3.org/1999/xlink">
<g id="graph1" class="graph" transform="scale(1 1) rotate(0) translate(4 442)">
<title>t2flow_graph</title>
<polygon fill="white" stroke="white" points="-4,5 -4,-442 407,-442 407,5 -4,5"/>
<g id="graph2" class="cluster"><title>cluster_sources</title>
<polygon fill="none" stroke="black" stroke-dasharray="1,5" points="283,-371 283,-430 393,-430 393,-371 283,-371"/>
<text text-anchor="middle" x="327" y="-417" font-family="Helvetica,sans-Serif" font-size="10.00">Workflow Inputs</text>
</g>
<g id="graph3" class="cluster"><title>cluster_sinks</title>
<polygon fill="none" stroke="black" stroke-dasharray="1,5" points="8,-8 8,-67 394,-67 394,-8 8,-8"/>
<text text-anchor="middle" x="55.5" y="-54" font-family="Helvetica,sans-Serif" font-size="10.00">Workflow Outputs</text>
</g>
<!-- Extracting_RA -->
<g id="node1" class="node"><title>Extracting_RA</title>
<polygon fill="#d15fee" stroke="black" points="343,-324.5 263,-324.5 263,-303.5 343,-303.5 343,-324.5"/>
<text text-anchor="middle" x="303" y="-311.5" font-family="Helvetica,sans-Serif" font-size="10.00">Extracting_RA</text>
</g>
<!-- Flatten_List -->
<g id="node6" class="node"><title>Flatten_List</title>
<polygon fill="#d15fee" stroke="black" points="340,-286.5 272,-286.5 272,-265.5 340,-265.5 340,-286.5"/>
<text text-anchor="middle" x="306" y="-273.5" font-family="Helvetica,sans-Serif" font-size="10.00">Flatten_List</text>
</g>
<!-- Extracting_RA&#45;&gt;Flatten_List -->
<g id="edge14" class="edge"><title>Extracting_RA&#45;&gt;Flatten_List</title>
<path fill="none" stroke="black" d="M303.852,-303.212C304.011,-301.19 304.183,-299.013 304.358,-296.804"/>
<polygon fill="black" stroke="black" points="307.859,-296.928 305.157,-286.683 300.88,-296.377 307.859,-296.928"/>
</g>
<!-- SesameXML -->
<g id="node2" class="node"><title>SesameXML</title>
<polygon fill="#a2cd5a" stroke="black" points="365,-362.5 293,-362.5 293,-341.5 365,-341.5 365,-362.5"/>
<text text-anchor="middle" x="329" y="-349.5" font-family="Helvetica,sans-Serif" font-size="10.00">SesameXML</text>
</g>
<!-- SesameXML&#45;&gt;Extracting_RA -->
<g id="edge4" class="edge"><title>SesameXML&#45;&gt;Extracting_RA</title>
<path fill="none" stroke="black" d="M321.619,-341.212C319.847,-338.623 317.903,-335.782 315.961,-332.943"/>
<polygon fill="black" stroke="black" points="318.845,-330.96 310.309,-324.683 313.068,-334.913 318.845,-330.96"/>
</g>
<!-- Extracting_DEC -->
<g id="node4" class="node"><title>Extracting_DEC</title>
<polygon fill="#d15fee" stroke="black" points="210,-324.5 122,-324.5 122,-303.5 210,-303.5 210,-324.5"/>
<text text-anchor="middle" x="166" y="-311.5" font-family="Helvetica,sans-Serif" font-size="10.00">Extracting_DEC</text>
</g>
<!-- SesameXML&#45;&gt;Extracting_DEC -->
<g id="edge12" class="edge"><title>SesameXML&#45;&gt;Extracting_DEC</title>
<path fill="none" stroke="black" d="M292.829,-341.962C291.538,-341.633 290.259,-341.311 289,-341 266.555,-335.454 241.664,-329.883 220.178,-325.253"/>
<polygon fill="black" stroke="black" points="220.761,-321.799 210.25,-323.129 219.296,-328.644 220.761,-321.799"/>
</g>
<!-- WORKFLOWINTERNALSINK_sesame -->
<g id="node24" class="node"><title>WORKFLOWINTERNALSINK_sesame</title>
<polygon fill="#bcd2ee" stroke="black" points="368,-37.5 318,-37.5 318,-16.5 368,-16.5 368,-37.5"/>
<text text-anchor="middle" x="343" y="-24.5" font-family="Helvetica,sans-Serif" font-size="10.00">sesame</text>
</g>
<!-- SesameXML&#45;&gt;WORKFLOWINTERNALSINK_sesame -->
<g id="edge46" class="edge"><title>SesameXML&#45;&gt;WORKFLOWINTERNALSINK_sesame</title>
<path fill="none" stroke="black" d="M335.593,-341.328C338.29,-336.504 341.195,-330.632 343,-325 349.714,-304.051 350,-297.999 350,-276 350,-276 350,-276 350,-124 350,-97.6252 347.394,-67.3209 345.362,-47.7031"/>
<polygon fill="black" stroke="black" points="348.84,-47.3124 344.284,-37.7472 341.881,-48.0658 348.84,-47.3124"/>
</g>
<!-- xpath_for_RA -->
<g id="node3" class="node"><title>xpath_for_RA</title>
<polygon fill="#b0c4de" stroke="black" points="289,-362.5 213,-362.5 213,-341.5 289,-341.5 289,-362.5"/>
<text text-anchor="middle" x="251" y="-349.5" font-family="Helvetica,sans-Serif" font-size="10.00">xpath_for_RA</text>
</g>
<!-- xpath_for_RA&#45;&gt;Extracting_RA -->
<g id="edge6" class="edge"><title>xpath_for_RA&#45;&gt;Extracting_RA</title>
<path fill="none" stroke="black" d="M265.485,-341.415C270.105,-338.038 275.334,-334.218 280.388,-330.524"/>
<polygon fill="black" stroke="black" points="282.584,-333.254 288.593,-324.528 278.454,-327.603 282.584,-333.254"/>
</g>
<!-- Flatten_List_2 -->
<g id="node7" class="node"><title>Flatten_List_2</title>
<polygon fill="#d15fee" stroke="black" points="203,-286.5 125,-286.5 125,-265.5 203,-265.5 203,-286.5"/>
<text text-anchor="middle" x="164" y="-273.5" font-family="Helvetica,sans-Serif" font-size="10.00">Flatten_List_2</text>
</g>
<!-- Extracting_DEC&#45;&gt;Flatten_List_2 -->
<g id="edge16" class="edge"><title>Extracting_DEC&#45;&gt;Flatten_List_2</title>
<path fill="none" stroke="black" d="M165.432,-303.212C165.326,-301.19 165.211,-299.013 165.095,-296.804"/>
<polygon fill="black" stroke="black" points="168.583,-296.485 164.562,-286.683 161.593,-296.853 168.583,-296.485"/>
</g>
<!-- xpath_for_DEC -->
<g id="node5" class="node"><title>xpath_for_DEC</title>
<polygon fill="#b0c4de" stroke="black" points="208,-362.5 124,-362.5 124,-341.5 208,-341.5 208,-362.5"/>
<text text-anchor="middle" x="166" y="-349.5" font-family="Helvetica,sans-Serif" font-size="10.00">xpath_for_DEC</text>
</g>
<!-- xpath_for_DEC&#45;&gt;Extracting_DEC -->
<g id="edge10" class="edge"><title>xpath_for_DEC&#45;&gt;Extracting_DEC</title>
<path fill="none" stroke="black" d="M166,-341.212C166,-339.19 166,-337.013 166,-334.804"/>
<polygon fill="black" stroke="black" points="169.5,-334.683 166,-324.683 162.5,-334.683 169.5,-334.683"/>
</g>
<!-- VII_237 -->
<g id="node8" class="node"><title>VII_237</title>
<polygon fill="#7aafff" stroke="black" points="112,-248.5 62,-248.5 62,-227.5 112,-227.5 112,-248.5"/>
<text text-anchor="middle" x="87" y="-235.5" font-family="Helvetica,sans-Serif" font-size="10.00">VII_237</text>
</g>
<!-- Flatten_List&#45;&gt;VII_237 -->
<g id="edge18" class="edge"><title>Flatten_List&#45;&gt;VII_237</title>
<path fill="none" stroke="black" d="M271.831,-272.066C229.532,-267.051 158.931,-258.179 122.07,-250.25"/>
<polygon fill="black" stroke="black" points="122.735,-246.811 112.199,-247.935 121.136,-253.626 122.735,-246.811"/>
</g>
<!-- calculate_internal_extinction -->
<g id="node11" class="node"><title>calculate_internal_extinction</title>
<polygon fill="#f28c55" stroke="black" points="315,-96.5 175,-96.5 175,-75.5 315,-75.5 315,-96.5"/>
<text text-anchor="middle" x="245" y="-83.5" font-family="Helvetica,sans-Serif" font-size="10.00">calculate_internal_extinction</text>
</g>
<!-- Flatten_List&#45;&gt;calculate_internal_extinction -->
<g id="edge26" class="edge"><title>Flatten_List&#45;&gt;calculate_internal_extinction</title>
<path fill="none" stroke="black" d="M314.232,-265.252C317.466,-260.509 320.9,-254.72 323,-249 330.583,-228.349 330,-221.999 330,-200 330,-200 330,-200 330,-162 330,-140.001 336.998,-129.97 323,-113 319.079,-108.246 308.988,-103.639 297.316,-99.6165"/>
<polygon fill="black" stroke="black" points="298.295,-96.255 287.704,-96.5243 296.152,-102.919 298.295,-96.255"/>
</g>
<!-- WORKFLOWINTERNALSINK_ra -->
<g id="node25" class="node"><title>WORKFLOWINTERNALSINK_ra</title>
<polygon fill="#bcd2ee" stroke="black" points="314,-37.5 290,-37.5 290,-16.5 314,-16.5 314,-37.5"/>
<text text-anchor="middle" x="302" y="-24.5" font-family="Helvetica,sans-Serif" font-size="10.00">ra</text>
</g>
<!-- Flatten_List&#45;&gt;WORKFLOWINTERNALSINK_ra -->
<g id="edge48" class="edge"><title>Flatten_List&#45;&gt;WORKFLOWINTERNALSINK_ra</title>
<path fill="none" stroke="black" d="M318.568,-265.29C323.16,-260.724 327.968,-255.055 331,-249 340.915,-229.202 340,-222.142 340,-200 340,-200 340,-200 340,-124 340,-122.978 321.047,-75.0188 309.911,-46.9296"/>
<polygon fill="black" stroke="black" points="313.153,-45.6087 306.212,-37.6038 306.646,-48.1897 313.153,-45.6087"/>
</g>
<!-- Flatten_List_2&#45;&gt;VII_237 -->
<g id="edge20" class="edge"><title>Flatten_List_2&#45;&gt;VII_237</title>
<path fill="none" stroke="black" d="M142.551,-265.415C134.792,-261.585 125.874,-257.185 117.487,-253.046"/>
<polygon fill="black" stroke="black" points="118.85,-249.815 108.334,-248.528 115.752,-256.093 118.85,-249.815"/>
</g>
<!-- Flatten_List_2&#45;&gt;calculate_internal_extinction -->
<g id="edge24" class="edge"><title>Flatten_List_2&#45;&gt;calculate_internal_extinction</title>
<path fill="none" stroke="black" d="M202.562,-265.431C248.758,-251.606 320,-226.059 320,-200 320,-200 320,-200 320,-162 320,-135.399 296.434,-114.74 275.722,-101.72"/>
<polygon fill="black" stroke="black" points="277.485,-98.6962 267.097,-96.6124 273.918,-104.719 277.485,-98.6962"/>
</g>
<!-- WORKFLOWINTERNALSINK_dec -->
<g id="node26" class="node"><title>WORKFLOWINTERNALSINK_dec</title>
<polygon fill="#bcd2ee" stroke="black" points="48,-37.5 16,-37.5 16,-16.5 48,-16.5 48,-37.5"/>
<text text-anchor="middle" x="32" y="-24.5" font-family="Helvetica,sans-Serif" font-size="10.00">dec</text>
</g>
<!-- Flatten_List_2&#45;&gt;WORKFLOWINTERNALSINK_dec -->
<g id="edge50" class="edge"><title>Flatten_List_2&#45;&gt;WORKFLOWINTERNALSINK_dec</title>
<path fill="none" stroke="black" d="M124.81,-266.359C96.5754,-259.328 62.9418,-250.736 60,-249 34.7939,-234.122 16,-229.269 16,-200 16,-200 16,-200 16,-124 16,-97.3382 21.9575,-67.0971 26.602,-47.5723"/>
<polygon fill="black" stroke="black" points="30.0475,-48.2197 29.0654,-37.6705 23.2546,-46.5297 30.0475,-48.2197"/>
</g>
<!-- Select_logr25_Mtype -->
<g id="node15" class="node"><title>Select_logr25_Mtype</title>
<polygon fill="white" stroke="black" points="141,-210.5 33,-210.5 33,-189.5 141,-189.5 141,-210.5"/>
<text text-anchor="middle" x="87" y="-197.5" font-family="Helvetica,sans-Serif" font-size="10.00">Select_logr25_Mtype</text>
</g>
<!-- VII_237&#45;&gt;Select_logr25_Mtype -->
<g id="edge38" class="edge"><title>VII_237&#45;&gt;Select_logr25_Mtype</title>
<path fill="none" stroke="black" d="M87,-227.212C87,-225.19 87,-223.013 87,-220.804"/>
<polygon fill="black" stroke="black" points="90.5001,-220.683 87,-210.683 83.5001,-220.683 90.5001,-220.683"/>
</g>
<!-- WORKFLOWINTERNALSINK_leda_output -->
<g id="node27" class="node"><title>WORKFLOWINTERNALSINK_leda_output</title>
<polygon fill="#bcd2ee" stroke="black" points="118,-37.5 52,-37.5 52,-16.5 118,-16.5 118,-37.5"/>
<text text-anchor="middle" x="85" y="-24.5" font-family="Helvetica,sans-Serif" font-size="10.00">leda_output</text>
</g>
<!-- VII_237&#45;&gt;WORKFLOWINTERNALSINK_leda_output -->
<g id="edge52" class="edge"><title>VII_237&#45;&gt;WORKFLOWINTERNALSINK_leda_output</title>
<path fill="none" stroke="black" d="M61.7584,-231.132C51.2583,-226.995 39.9254,-220.608 33,-211 20.137,-193.154 26,-183.999 26,-162 26,-162 26,-162 26,-124 26,-106.959 52.9162,-68.686 70.3885,-45.6367"/>
<polygon fill="black" stroke="black" points="73.2279,-47.6859 76.5467,-37.6243 67.6778,-43.4201 73.2279,-47.6859"/>
</g>
<!-- SR_0.001 -->
<g id="node9" class="node"><title>SR_0.001</title>
<polygon fill="#b0c4de" stroke="black" points="117,-286.5 57,-286.5 57,-265.5 117,-265.5 117,-286.5"/>
<text text-anchor="middle" x="87" y="-273.5" font-family="Helvetica,sans-Serif" font-size="10.00">SR_0.001</text>
</g>
<!-- SR_0.001&#45;&gt;VII_237 -->
<g id="edge22" class="edge"><title>SR_0.001&#45;&gt;VII_237</title>
<path fill="none" stroke="black" d="M87,-265.212C87,-263.19 87,-261.013 87,-258.804"/>
<polygon fill="black" stroke="black" points="90.5001,-258.683 87,-248.683 83.5001,-258.683 90.5001,-258.683"/>
</g>
<!-- filter_logr25_Mtype -->
<g id="node10" class="node"><title>filter_logr25_Mtype</title>
<polygon fill="#b0c4de" stroke="black" points="214,-248.5 116,-248.5 116,-227.5 214,-227.5 214,-248.5"/>
<text text-anchor="middle" x="165" y="-235.5" font-family="Helvetica,sans-Serif" font-size="10.00">filter_logr25_Mtype</text>
</g>
<!-- filter_logr25_Mtype&#45;&gt;Select_logr25_Mtype -->
<g id="edge36" class="edge"><title>filter_logr25_Mtype&#45;&gt;Select_logr25_Mtype</title>
<path fill="none" stroke="black" d="M143.273,-227.415C135.328,-223.544 126.184,-219.09 117.609,-214.912"/>
<polygon fill="black" stroke="black" points="119.134,-211.762 108.611,-210.528 116.068,-218.055 119.134,-211.762"/>
</g>
<!-- WORKFLOWINTERNALSINK_data_internal_extinction -->
<g id="node29" class="node"><title>WORKFLOWINTERNALSINK_data_internal_extinction</title>
<polygon fill="#bcd2ee" stroke="black" points="286,-37.5 168,-37.5 168,-16.5 286,-16.5 286,-37.5"/>
<text text-anchor="middle" x="227" y="-24.5" font-family="Helvetica,sans-Serif" font-size="10.00">data_internal_extinction</text>
</g>
<!-- calculate_internal_extinction&#45;&gt;WORKFLOWINTERNALSINK_data_internal_extinction -->
<g id="edge56" class="edge"><title>calculate_internal_extinction&#45;&gt;WORKFLOWINTERNALSINK_data_internal_extinction</title>
<path fill="none" stroke="black" d="M241.782,-75.452C239.431,-67.7457 236.167,-57.047 233.304,-47.6629"/>
<polygon fill="black" stroke="black" points="236.578,-46.3993 230.312,-37.8559 229.882,-48.442 236.578,-46.3993"/>
</g>
<!-- Write_Text_File -->
<g id="node12" class="node"><title>Write_Text_File</title>
<polygon fill="#d15fee" stroke="black" points="255,-134.5 169,-134.5 169,-113.5 255,-113.5 255,-134.5"/>
<text text-anchor="middle" x="212" y="-121.5" font-family="Helvetica,sans-Serif" font-size="10.00">Write_Text_File</text>
</g>
<!-- Write_Text_File&#45;&gt;calculate_internal_extinction -->
<g id="edge28" class="edge"><title>Write_Text_File&#45;&gt;calculate_internal_extinction</title>
<path fill="none" stroke="black" d="M221.368,-113.212C223.757,-110.461 226.393,-107.426 229.012,-104.41"/>
<polygon fill="black" stroke="black" points="231.808,-106.528 235.723,-96.6831 226.523,-101.939 231.808,-106.528"/>
</g>
<!-- encoding_value -->
<g id="node13" class="node"><title>encoding_value</title>
<polygon fill="#b0c4de" stroke="black" points="221,-172.5 137,-172.5 137,-151.5 221,-151.5 221,-172.5"/>
<text text-anchor="middle" x="179" y="-159.5" font-family="Helvetica,sans-Serif" font-size="10.00">encoding_value</text>
</g>
<!-- encoding_value&#45;&gt;Write_Text_File -->
<g id="edge30" class="edge"><title>encoding_value&#45;&gt;Write_Text_File</title>
<path fill="none" stroke="black" d="M188.368,-151.212C190.757,-148.461 193.393,-145.426 196.012,-142.41"/>
<polygon fill="black" stroke="black" points="198.808,-144.528 202.723,-134.683 193.523,-139.939 198.808,-144.528"/>
</g>
<!-- outputFile_value -->
<g id="node14" class="node"><title>outputFile_value</title>
<polygon fill="#b0c4de" stroke="black" points="313,-172.5 225,-172.5 225,-151.5 313,-151.5 313,-172.5"/>
<text text-anchor="middle" x="269" y="-159.5" font-family="Helvetica,sans-Serif" font-size="10.00">outputFile_value</text>
</g>
<!-- outputFile_value&#45;&gt;Write_Text_File -->
<g id="edge32" class="edge"><title>outputFile_value&#45;&gt;Write_Text_File</title>
<path fill="none" stroke="black" d="M253.122,-151.415C247.934,-147.956 242.047,-144.031 236.381,-140.254"/>
<polygon fill="black" stroke="black" points="238.055,-137.163 227.793,-134.528 234.172,-142.988 238.055,-137.163"/>
</g>
<!-- Format_conversion -->
<g id="node16" class="node"><title>Format_conversion</title>
<polygon fill="white" stroke="black" points="133,-172.5 33,-172.5 33,-151.5 133,-151.5 133,-172.5"/>
<text text-anchor="middle" x="83" y="-159.5" font-family="Helvetica,sans-Serif" font-size="10.00">Format_conversion</text>
</g>
<!-- Select_logr25_Mtype&#45;&gt;Format_conversion -->
<g id="edge44" class="edge"><title>Select_logr25_Mtype&#45;&gt;Format_conversion</title>
<path fill="none" stroke="black" d="M85.8645,-189.212C85.6515,-187.19 85.4224,-185.013 85.1898,-182.804"/>
<polygon fill="black" stroke="black" points="88.6522,-182.262 84.1245,-172.683 81.6907,-182.995 88.6522,-182.262"/>
</g>
<!-- Format_conversion&#45;&gt;Write_Text_File -->
<g id="edge34" class="edge"><title>Format_conversion&#45;&gt;Write_Text_File</title>
<path fill="none" stroke="black" d="M118.934,-151.415C133.611,-147.091 150.761,-142.039 166.313,-137.458"/>
<polygon fill="black" stroke="black" points="167.656,-140.711 176.259,-134.528 165.678,-133.997 167.656,-140.711"/>
</g>
<!-- WORKFLOWINTERNALSINK_logr25 -->
<g id="node28" class="node"><title>WORKFLOWINTERNALSINK_logr25</title>
<polygon fill="#bcd2ee" stroke="black" points="164,-37.5 122,-37.5 122,-16.5 164,-16.5 164,-37.5"/>
<text text-anchor="middle" x="143" y="-24.5" font-family="Helvetica,sans-Serif" font-size="10.00">logr25</text>
</g>
<!-- Format_conversion&#45;&gt;WORKFLOWINTERNALSINK_logr25 -->
<g id="edge54" class="edge"><title>Format_conversion&#45;&gt;WORKFLOWINTERNALSINK_logr25</title>
<path fill="none" stroke="black" d="M87.7081,-151.407C97.7413,-128.832 121.361,-75.6874 134.244,-46.7"/>
<polygon fill="black" stroke="black" points="137.451,-48.1036 138.314,-37.544 131.054,-45.2606 137.451,-48.1036"/>
</g>
<!-- format_votable -->
<g id="node17" class="node"><title>format_votable</title>
<polygon fill="#b0c4de" stroke="black" points="299,-210.5 219,-210.5 219,-189.5 299,-189.5 299,-210.5"/>
<text text-anchor="middle" x="259" y="-197.5" font-family="Helvetica,sans-Serif" font-size="10.00">format_votable</text>
</g>
<!-- format_votable&#45;&gt;Format_conversion -->
<g id="edge40" class="edge"><title>format_votable&#45;&gt;Format_conversion</title>
<path fill="none" stroke="black" d="M218.733,-189.859C217.475,-189.566 216.229,-189.279 215,-189 213.093,-188.567 177.124,-181.212 143.219,-174.288"/>
<polygon fill="black" stroke="black" points="143.771,-170.829 133.273,-172.257 142.371,-177.687 143.771,-170.829"/>
</g>
<!-- format_ascii -->
<g id="node18" class="node"><title>format_ascii</title>
<polygon fill="#b0c4de" stroke="black" points="215,-210.5 145,-210.5 145,-189.5 215,-189.5 215,-210.5"/>
<text text-anchor="middle" x="180" y="-197.5" font-family="Helvetica,sans-Serif" font-size="10.00">format_ascii</text>
</g>
<!-- format_ascii&#45;&gt;Format_conversion -->
<g id="edge42" class="edge"><title>format_ascii&#45;&gt;Format_conversion</title>
<path fill="none" stroke="black" d="M152.98,-189.415C142.574,-185.338 130.516,-180.614 119.37,-176.248"/>
<polygon fill="black" stroke="black" points="120.463,-172.917 109.875,-172.528 117.909,-179.435 120.463,-172.917"/>
</g>
<!-- WORKFLOWINTERNALSOURCECONTROL -->
<g id="node20" class="node"><title>WORKFLOWINTERNALSOURCECONTROL</title>
<polygon fill="#ff4040" stroke="black" points="378,-397 371,-386.5 385,-386.5 378,-397"/>
</g>
<!-- WORKFLOWINTERNALSOURCE_list_cig_name -->
<g id="node21" class="node"><title>WORKFLOWINTERNALSOURCE_list_cig_name</title>
<polygon fill="skyblue" stroke="black" points="367,-400.5 291,-400.5 291,-379.5 367,-379.5 367,-400.5"/>
<text text-anchor="middle" x="329" y="-387.5" font-family="Helvetica,sans-Serif" font-size="10.00">list_cig_name</text>
</g>
<!-- WORKFLOWINTERNALSOURCE_list_cig_name&#45;&gt;SesameXML -->
<g id="edge8" class="edge"><title>WORKFLOWINTERNALSOURCE_list_cig_name&#45;&gt;SesameXML</title>
<path fill="none" stroke="black" d="M329,-379.212C329,-377.19 329,-375.013 329,-372.804"/>
<polygon fill="black" stroke="black" points="332.5,-372.683 329,-362.683 325.5,-372.683 332.5,-372.683"/>
</g>
<!-- WORKFLOWINTERNALSINKCONTROL -->
<g id="node23" class="node"><title>WORKFLOWINTERNALSINKCONTROL</title>
<polygon fill="#66cd00" stroke="black" points="379,-20 386,-30.5 372,-30.5 379,-20"/>
</g>
</g>
</svg>
