<?xml version="1.0" encoding="UTF-8" standalone="no"?>
<!DOCTYPE svg PUBLIC "-//W3C//DTD SVG 1.1//EN"
 "http://www.w3.org/Graphics/SVG/1.1/DTD/svg11.dtd">
<!-- Generated by graphviz version 2.26.0 (20091210.2329)
 -->
<!-- Title: t2flow_graph Pages: 1 -->
<svg width="368pt" height="176pt"
 viewBox="0.00 0.00 368.00 176.00" xmlns="http://www.w3.org/2000/svg" xmlns:xlink="http://www.w3.org/1999/xlink">
<g id="graph1" class="graph" transform="scale(1 1) rotate(0) translate(4 172)">
<title>t2flow_graph</title>
<polygon fill="white" stroke="white" points="-4,5 -4,-172 365,-172 365,5 -4,5"/>
<g id="graph2" class="cluster"><title>cluster_sources</title>
<polygon fill="none" stroke="black" stroke-dasharray="1,5" points="233,-109 233,-160 321,-160 321,-109 233,-109"/>
<text text-anchor="middle" x="277" y="-147" font-family="Helvetica,sans-Serif" font-size="10.00">Workflow Inputs</text>
</g>
<g id="graph3" class="cluster"><title>cluster_sinks</title>
<polygon fill="none" stroke="black" stroke-dasharray="1,5" points="8,-8 8,-67 352,-67 352,-8 8,-8"/>
<text text-anchor="middle" x="55.5" y="-54" font-family="Helvetica,sans-Serif" font-size="10.00">Workflow Outputs</text>
</g>
<!-- auto_complete_json -->
<g id="node1" class="node"><title>auto_complete_json</title>
<polygon fill="#7aafff" stroke="black" points="166,-96.5 62,-96.5 62,-75.5 166,-75.5 166,-96.5"/>
<text text-anchor="middle" x="114" y="-83.5" font-family="Helvetica,sans-Serif" font-size="10.00">auto_complete_json</text>
</g>
<!-- WORKFLOWINTERNALSINK_auto_complete_json_responseBody -->
<g id="node7" class="node"><title>WORKFLOWINTERNALSINK_auto_complete_json_responseBody</title>
<polygon fill="#bcd2ee" stroke="black" points="326,-37.5 156,-37.5 156,-16.5 326,-16.5 326,-37.5"/>
<text text-anchor="middle" x="241" y="-24.5" font-family="Helvetica,sans-Serif" font-size="10.00">auto_complete_json_responseBody</text>
</g>
<!-- auto_complete_json&#45;&gt;WORKFLOWINTERNALSINK_auto_complete_json_responseBody -->
<g id="edge6" class="edge"><title>auto_complete_json&#45;&gt;WORKFLOWINTERNALSINK_auto_complete_json_responseBody</title>
<path fill="none" stroke="black" d="M136.705,-75.452C156.807,-66.1132 186.368,-52.3802 208.89,-41.9172"/>
<polygon fill="black" stroke="black" points="210.469,-45.0431 218.063,-37.6556 207.52,-38.6947 210.469,-45.0431"/>
</g>
<!-- WORKFLOWINTERNALSINK_auto_complete_json_status -->
<g id="node8" class="node"><title>WORKFLOWINTERNALSINK_auto_complete_json_status</title>
<polygon fill="#bcd2ee" stroke="black" points="152,-37.5 16,-37.5 16,-16.5 152,-16.5 152,-37.5"/>
<text text-anchor="middle" x="84" y="-24.5" font-family="Helvetica,sans-Serif" font-size="10.00">auto_complete_json_status</text>
</g>
<!-- auto_complete_json&#45;&gt;WORKFLOWINTERNALSINK_auto_complete_json_status -->
<g id="edge8" class="edge"><title>auto_complete_json&#45;&gt;WORKFLOWINTERNALSINK_auto_complete_json_status</title>
<path fill="none" stroke="black" d="M108.637,-75.452C104.634,-67.5799 99.0435,-56.5855 94.1996,-47.0593"/>
<polygon fill="black" stroke="black" points="97.1723,-45.1833 89.5199,-37.8559 90.9326,-48.3561 97.1723,-45.1833"/>
</g>
<!-- partial_name_value -->
<g id="node2" class="node"><title>partial_name_value</title>
<polygon fill="#b0c4de" stroke="black" points="164,-134.5 64,-134.5 64,-113.5 164,-113.5 164,-134.5"/>
<text text-anchor="middle" x="114" y="-121.5" font-family="Helvetica,sans-Serif" font-size="10.00">partial_name_value</text>
</g>
<!-- partial_name_value&#45;&gt;auto_complete_json -->
<g id="edge4" class="edge"><title>partial_name_value&#45;&gt;auto_complete_json</title>
<path fill="none" stroke="black" d="M114,-113.212C114,-111.19 114,-109.013 114,-106.804"/>
<polygon fill="black" stroke="black" points="117.5,-106.683 114,-96.6831 110.5,-106.683 117.5,-106.683"/>
</g>
<!-- WORKFLOWINTERNALSOURCECONTROL -->
<g id="node4" class="node"><title>WORKFLOWINTERNALSOURCECONTROL</title>
<polygon fill="#ff4040" stroke="black" points="277,-131 270,-120.5 284,-120.5 277,-131"/>
</g>
<!-- WORKFLOWINTERNALSINKCONTROL -->
<g id="node6" class="node"><title>WORKFLOWINTERNALSINKCONTROL</title>
<polygon fill="#66cd00" stroke="black" points="337,-20 344,-30.5 330,-30.5 337,-20"/>
</g>
</g>
</svg>
