<?xml version="1.0" encoding="UTF-8" standalone="no"?>
<!DOCTYPE svg PUBLIC "-//W3C//DTD SVG 1.1//EN"
 "http://www.w3.org/Graphics/SVG/1.1/DTD/svg11.dtd">
<!-- Generated by graphviz version 2.26.0 (20091210.2329)
 -->
<!-- Title: t2flow_graph Pages: 1 -->
<svg width="424pt" height="867pt"
 viewBox="0.00 0.00 424.29 867.00" xmlns="http://www.w3.org/2000/svg" xmlns:xlink="http://www.w3.org/1999/xlink">
<g id="graph1" class="graph" transform="scale(1 1) rotate(0) translate(4 863)">
<title>t2flow_graph</title>
<polygon fill="white" stroke="white" points="-4,5 -4,-863 421.287,-863 421.287,5 -4,5"/>
<g id="graph2" class="cluster"><title>cluster_Status_CheckStatus_Check</title>
<polygon fill="aliceblue" stroke="black" points="16,-295 16,-564 188,-564 188,-295 16,-295"/>
<text text-anchor="middle" x="55.5" y="-551" font-family="Helvetica,sans-Serif" font-size="10.00">Status_Check</text>
</g>
<g id="graph3" class="cluster"><title>cluster_Status_Checksources</title>
<polygon fill="none" stroke="black" stroke-dasharray="1,5" points="86,-476 86,-535 174,-535 174,-476 86,-476"/>
<text text-anchor="middle" x="130" y="-522" font-family="Helvetica,sans-Serif" font-size="10.00">Workflow Inputs</text>
</g>
<g id="graph4" class="cluster"><title>cluster_Status_Checksinks</title>
<polygon fill="none" stroke="black" stroke-dasharray="1,5" points="24,-303 24,-362 180,-362 180,-303 24,-303"/>
<text text-anchor="middle" x="71.5" y="-349" font-family="Helvetica,sans-Serif" font-size="10.00">Workflow Outputs</text>
</g>
<g id="graph5" class="cluster"><title>cluster_sources</title>
<polygon fill="none" stroke="black" stroke-dasharray="1,5" points="8,-792 8,-851 270,-851 270,-792 8,-792"/>
<text text-anchor="middle" x="52" y="-838" font-family="Helvetica,sans-Serif" font-size="10.00">Workflow Inputs</text>
</g>
<g id="graph6" class="cluster"><title>cluster_sinks</title>
<polygon fill="none" stroke="black" stroke-dasharray="1,5" points="70,-8 70,-67 210,-67 210,-8 70,-8"/>
<text text-anchor="middle" x="117.5" y="-54" font-family="Helvetica,sans-Serif" font-size="10.00">Workflow Outputs</text>
</g>
<!-- fetchBatch -->
<g id="node1" class="node"><title>fetchBatch</title>
<polygon fill="#a2cd5a" stroke="black" points="226,-783.5 162,-783.5 162,-762.5 226,-762.5 226,-783.5"/>
<text text-anchor="middle" x="194" y="-770.5" font-family="Helvetica,sans-Serif" font-size="10.00">fetchBatch</text>
</g>
<!-- run -->
<g id="node2" class="node"><title>run</title>
<polygon fill="#a2cd5a" stroke="black" points="267,-631.5 237,-631.5 237,-610.5 267,-610.5 267,-631.5"/>
<text text-anchor="middle" x="252" y="-618.5" font-family="Helvetica,sans-Serif" font-size="10.00">run</text>
</g>
<!-- fetchBatch&#45;&gt;run -->
<g id="edge71" class="edge"><title>fetchBatch&#45;&gt;run</title>
<path fill="none" stroke="gray" d="M226.24,-771.206C282.63,-767.737 394.321,-759.261 406,-746 452.231,-693.507 328.133,-645.616 274.905,-628.075"/>
<ellipse fill="none" stroke="gray" cx="270.815" cy="-626.754" rx="4.00001" ry="4.00001"/>
</g>
<!-- Merge_List_to_String -->
<g id="node10" class="node"><title>Merge_List_to_String</title>
<polygon fill="#deb887" stroke="black" points="246,-745.5 138,-745.5 138,-724.5 246,-724.5 246,-745.5"/>
<text text-anchor="middle" x="192" y="-732.5" font-family="Helvetica,sans-Serif" font-size="10.00">Merge_List_to_String</text>
</g>
<!-- fetchBatch&#45;&gt;Merge_List_to_String -->
<g id="edge43" class="edge"><title>fetchBatch&#45;&gt;Merge_List_to_String</title>
<path fill="none" stroke="black" d="M193.432,-762.212C193.326,-760.19 193.211,-758.013 193.095,-755.804"/>
<polygon fill="black" stroke="black" points="196.583,-755.485 192.562,-745.683 189.593,-755.853 196.583,-755.485"/>
</g>
<!-- run_output -->
<g id="node5" class="node"><title>run_output</title>
<polygon fill="#ab92ea" stroke="black" points="283,-593.5 221,-593.5 221,-572.5 283,-572.5 283,-593.5"/>
<text text-anchor="middle" x="252" y="-580.5" font-family="Helvetica,sans-Serif" font-size="10.00">run_output</text>
</g>
<!-- run&#45;&gt;run_output -->
<g id="edge41" class="edge"><title>run&#45;&gt;run_output</title>
<path fill="none" stroke="black" d="M252,-610.212C252,-608.19 252,-606.013 252,-603.804"/>
<polygon fill="black" stroke="black" points="255.5,-603.683 252,-593.683 248.5,-603.683 255.5,-603.683"/>
</g>
<!-- run_input -->
<g id="node3" class="node"><title>run_input</title>
<polygon fill="#ab92ea" stroke="black" points="180,-669.5 124,-669.5 124,-648.5 180,-648.5 180,-669.5"/>
<text text-anchor="middle" x="152" y="-656.5" font-family="Helvetica,sans-Serif" font-size="10.00">run_input</text>
</g>
<!-- run_input&#45;&gt;run -->
<g id="edge23" class="edge"><title>run_input&#45;&gt;run</title>
<path fill="none" stroke="black" d="M179.856,-648.415C194.737,-642.76 212.898,-635.859 227.275,-630.395"/>
<polygon fill="black" stroke="black" points="228.87,-633.534 236.975,-626.71 226.384,-626.99 228.87,-633.534"/>
</g>
<!-- run_input_2 -->
<g id="node4" class="node"><title>run_input_2</title>
<polygon fill="#ab92ea" stroke="black" points="267,-707.5 201,-707.5 201,-686.5 267,-686.5 267,-707.5"/>
<text text-anchor="middle" x="234" y="-694.5" font-family="Helvetica,sans-Serif" font-size="10.00">run_input_2</text>
</g>
<!-- run_input_2&#45;&gt;run_input -->
<g id="edge25" class="edge"><title>run_input_2&#45;&gt;run_input</title>
<path fill="none" stroke="black" d="M211.158,-686.415C202.717,-682.503 192.989,-677.995 183.891,-673.779"/>
<polygon fill="black" stroke="black" points="185.264,-670.557 174.719,-669.528 182.321,-676.909 185.264,-670.557"/>
</g>
<!-- getResultTypes_input -->
<g id="node12" class="node"><title>getResultTypes_input</title>
<polygon fill="#ab92ea" stroke="black" points="308,-332.5 196,-332.5 196,-311.5 308,-311.5 308,-332.5"/>
<text text-anchor="middle" x="252" y="-319.5" font-family="Helvetica,sans-Serif" font-size="10.00">getResultTypes_input</text>
</g>
<!-- run_output&#45;&gt;getResultTypes_input -->
<g id="edge47" class="edge"><title>run_output&#45;&gt;getResultTypes_input</title>
<path fill="none" stroke="black" d="M252,-572.213C252,-550.436 252,-499.656 252,-457 252,-457 252,-457 252,-419 252,-392.816 252,-362.656 252,-343.009"/>
<polygon fill="black" stroke="black" points="255.5,-342.765 252,-332.765 248.5,-342.765 255.5,-342.765"/>
</g>
<!-- Status_CheckWORKFLOWINTERNALSOURCE_jobID -->
<g id="node20" class="node"><title>Status_CheckWORKFLOWINTERNALSOURCE_jobID</title>
<polygon fill="skyblue" stroke="black" points="141,-505.5 101,-505.5 101,-484.5 141,-484.5 141,-505.5"/>
<text text-anchor="middle" x="121" y="-492.5" font-family="Helvetica,sans-Serif" font-size="10.00">jobID</text>
</g>
<!-- run_output&#45;&gt;Status_CheckWORKFLOWINTERNALSOURCE_jobID -->
<g id="edge51" class="edge"><title>run_output&#45;&gt;Status_CheckWORKFLOWINTERNALSOURCE_jobID</title>
<path fill="none" stroke="black" d="M220.956,-580.846C193.837,-578.365 157.115,-573.368 146,-564 131.888,-552.107 125.742,-531.584 123.065,-516.003"/>
<polygon fill="black" stroke="black" points="126.483,-515.161 121.665,-505.725 119.547,-516.106 126.483,-515.161"/>
</g>
<!-- getResult_input -->
<g id="node29" class="node"><title>getResult_input</title>
<polygon fill="#ab92ea" stroke="black" points="278,-172.5 194,-172.5 194,-151.5 278,-151.5 278,-172.5"/>
<text text-anchor="middle" x="236" y="-159.5" font-family="Helvetica,sans-Serif" font-size="10.00">getResult_input</text>
</g>
<!-- run_output&#45;&gt;getResult_input -->
<g id="edge55" class="edge"><title>run_output&#45;&gt;getResult_input</title>
<path fill="none" stroke="black" d="M261.568,-572.439C279.192,-551.847 315,-504.202 315,-457 315,-457 315,-457 315,-238 315,-214.306 310.494,-206.01 294,-189 289.535,-184.395 284.133,-180.494 278.443,-177.213"/>
<polygon fill="black" stroke="black" points="279.856,-174.004 269.36,-172.556 276.662,-180.233 279.856,-174.004"/>
</g>
<!-- program -->
<g id="node6" class="node"><title>program</title>
<polygon fill="#b0c4de" stroke="black" points="302,-745.5 250,-745.5 250,-724.5 302,-724.5 302,-745.5"/>
<text text-anchor="middle" x="276" y="-732.5" font-family="Helvetica,sans-Serif" font-size="10.00">program</text>
</g>
<!-- program&#45;&gt;run_input_2 -->
<g id="edge31" class="edge"><title>program&#45;&gt;run_input_2</title>
<path fill="none" stroke="black" d="M264.077,-724.212C260.768,-721.219 257.087,-717.888 253.467,-714.613"/>
<polygon fill="black" stroke="black" points="255.571,-711.797 245.808,-707.683 250.875,-716.988 255.571,-711.797"/>
</g>
<!-- stype -->
<g id="node7" class="node"><title>stype</title>
<polygon fill="#b0c4de" stroke="black" points="346,-745.5 306,-745.5 306,-724.5 346,-724.5 346,-745.5"/>
<text text-anchor="middle" x="326" y="-732.5" font-family="Helvetica,sans-Serif" font-size="10.00">stype</text>
</g>
<!-- stype&#45;&gt;run_input_2 -->
<g id="edge33" class="edge"><title>stype&#45;&gt;run_input_2</title>
<path fill="none" stroke="black" d="M305.868,-725.681C304.562,-725.105 303.264,-724.54 302,-724 291.998,-719.726 281.079,-715.29 270.975,-711.279"/>
<polygon fill="black" stroke="black" points="272.181,-707.992 261.594,-707.582 269.615,-714.505 272.181,-707.992"/>
</g>
<!-- database -->
<g id="node8" class="node"><title>database</title>
<polygon fill="#b0c4de" stroke="black" points="406,-745.5 350,-745.5 350,-724.5 406,-724.5 406,-745.5"/>
<text text-anchor="middle" x="378" y="-732.5" font-family="Helvetica,sans-Serif" font-size="10.00">database</text>
</g>
<!-- database&#45;&gt;run_input_2 -->
<g id="edge35" class="edge"><title>database&#45;&gt;run_input_2</title>
<path fill="none" stroke="black" d="M349.778,-725.137C348.504,-724.743 347.241,-724.362 346,-724 323.394,-717.406 297.892,-711.166 276.939,-706.35"/>
<polygon fill="black" stroke="black" points="277.578,-702.906 267.051,-704.104 276.028,-709.732 277.578,-702.906"/>
</g>
<!-- seqrange_value -->
<g id="node9" class="node"><title>seqrange_value</title>
<polygon fill="#b0c4de" stroke="black" points="134,-745.5 50,-745.5 50,-724.5 134,-724.5 134,-745.5"/>
<text text-anchor="middle" x="92" y="-732.5" font-family="Helvetica,sans-Serif" font-size="10.00">seqrange_value</text>
</g>
<!-- seqrange_value&#45;&gt;run_input_2 -->
<g id="edge37" class="edge"><title>seqrange_value&#45;&gt;run_input_2</title>
<path fill="none" stroke="black" d="M131.555,-724.415C150.058,-719.463 172.133,-713.556 191.044,-708.495"/>
<polygon fill="black" stroke="black" points="192.14,-711.825 200.895,-705.859 190.33,-705.063 192.14,-711.825"/>
</g>
<!-- Merge_List_to_String&#45;&gt;run_input_2 -->
<g id="edge39" class="edge"><title>Merge_List_to_String&#45;&gt;run_input_2</title>
<path fill="none" stroke="black" d="M203.923,-724.212C207.232,-721.219 210.913,-717.888 214.533,-714.613"/>
<polygon fill="black" stroke="black" points="217.125,-716.988 222.192,-707.683 212.429,-711.797 217.125,-716.988"/>
</g>
<!-- getResultTypes -->
<g id="node11" class="node"><title>getResultTypes</title>
<polygon fill="#a2cd5a" stroke="black" points="221,-286.5 135,-286.5 135,-265.5 221,-265.5 221,-286.5"/>
<text text-anchor="middle" x="178" y="-273.5" font-family="Helvetica,sans-Serif" font-size="10.00">getResultTypes</text>
</g>
<!-- getResultTypes_output -->
<g id="node13" class="node"><title>getResultTypes_output</title>
<polygon fill="#ab92ea" stroke="black" points="295,-248.5 177,-248.5 177,-227.5 295,-227.5 295,-248.5"/>
<text text-anchor="middle" x="236" y="-235.5" font-family="Helvetica,sans-Serif" font-size="10.00">getResultTypes_output</text>
</g>
<!-- getResultTypes&#45;&gt;getResultTypes_output -->
<g id="edge49" class="edge"><title>getResultTypes&#45;&gt;getResultTypes_output</title>
<path fill="none" stroke="black" d="M194.156,-265.415C199.435,-261.956 205.426,-258.031 211.191,-254.254"/>
<polygon fill="black" stroke="black" points="213.484,-256.936 219.93,-248.528 209.648,-251.081 213.484,-256.936"/>
</g>
<!-- getResult -->
<g id="node28" class="node"><title>getResult</title>
<polygon fill="#a2cd5a" stroke="black" points="199,-134.5 141,-134.5 141,-113.5 199,-113.5 199,-134.5"/>
<text text-anchor="middle" x="170" y="-121.5" font-family="Helvetica,sans-Serif" font-size="10.00">getResult</text>
</g>
<!-- getResultTypes&#45;&gt;getResult -->
<g id="edge69" class="edge"><title>getResultTypes&#45;&gt;getResult</title>
<path fill="none" stroke="gray" d="M177.425,-265.069C176.075,-239.434 172.694,-175.19 171,-143.002"/>
<ellipse fill="none" stroke="gray" cx="170.78" cy="-138.827" rx="4" ry="4"/>
</g>
<!-- getResultTypes_input&#45;&gt;getResultTypes -->
<g id="edge45" class="edge"><title>getResultTypes_input&#45;&gt;getResultTypes</title>
<path fill="none" stroke="black" d="M234.837,-311.331C225.591,-305.583 213.998,-298.377 203.697,-291.974"/>
<polygon fill="black" stroke="black" points="205.411,-288.918 195.07,-286.611 201.715,-294.863 205.411,-288.918"/>
</g>
<!-- process_ResultTypes -->
<g id="node31" class="node"><title>process_ResultTypes</title>
<polygon fill="#deb887" stroke="black" points="292,-210.5 180,-210.5 180,-189.5 292,-189.5 292,-210.5"/>
<text text-anchor="middle" x="236" y="-197.5" font-family="Helvetica,sans-Serif" font-size="10.00">process_ResultTypes</text>
</g>
<!-- getResultTypes_output&#45;&gt;process_ResultTypes -->
<g id="edge61" class="edge"><title>getResultTypes_output&#45;&gt;process_ResultTypes</title>
<path fill="none" stroke="black" d="M236,-227.212C236,-225.19 236,-223.013 236,-220.804"/>
<polygon fill="black" stroke="black" points="239.5,-220.683 236,-210.683 232.5,-220.683 239.5,-220.683"/>
</g>
<!-- Status_CheckgetStatus -->
<g id="node15" class="node"><title>Status_CheckgetStatus</title>
<polygon fill="#a2cd5a" stroke="black" points="132,-429.5 74,-429.5 74,-408.5 132,-408.5 132,-429.5"/>
<text text-anchor="middle" x="103" y="-416.5" font-family="Helvetica,sans-Serif" font-size="10.00">getStatus</text>
</g>
<!-- Status_CheckgetStatus_output -->
<g id="node17" class="node"><title>Status_CheckgetStatus_output</title>
<polygon fill="#ab92ea" stroke="black" points="141,-391.5 51,-391.5 51,-370.5 141,-370.5 141,-391.5"/>
<text text-anchor="middle" x="96" y="-378.5" font-family="Helvetica,sans-Serif" font-size="10.00">getStatus_output</text>
</g>
<!-- Status_CheckgetStatus&#45;&gt;Status_CheckgetStatus_output -->
<g id="edge9" class="edge"><title>Status_CheckgetStatus&#45;&gt;Status_CheckgetStatus_output</title>
<path fill="none" stroke="black" d="M101.013,-408.212C100.625,-406.109 100.207,-403.839 99.7834,-401.538"/>
<polygon fill="black" stroke="black" points="103.222,-400.884 97.9679,-391.683 96.3376,-402.152 103.222,-400.884"/>
</g>
<!-- Status_CheckgetStatus_input -->
<g id="node16" class="node"><title>Status_CheckgetStatus_input</title>
<polygon fill="#ab92ea" stroke="black" points="158,-467.5 74,-467.5 74,-446.5 158,-446.5 158,-467.5"/>
<text text-anchor="middle" x="116" y="-454.5" font-family="Helvetica,sans-Serif" font-size="10.00">getStatus_input</text>
</g>
<!-- Status_CheckgetStatus_input&#45;&gt;Status_CheckgetStatus -->
<g id="edge5" class="edge"><title>Status_CheckgetStatus_input&#45;&gt;Status_CheckgetStatus</title>
<path fill="none" stroke="black" d="M112.309,-446.212C111.562,-444.028 110.753,-441.664 109.935,-439.273"/>
<polygon fill="black" stroke="black" points="113.203,-438.012 106.655,-429.683 106.58,-440.278 113.203,-438.012"/>
</g>
<!-- Status_CheckWORKFLOWINTERNALSINK_getStatus_output_status -->
<g id="node23" class="node"><title>Status_CheckWORKFLOWINTERNALSINK_getStatus_output_status</title>
<polygon fill="#bcd2ee" stroke="black" points="154,-332.5 32,-332.5 32,-311.5 154,-311.5 154,-332.5"/>
<text text-anchor="middle" x="93" y="-319.5" font-family="Helvetica,sans-Serif" font-size="10.00">getStatus_output_status</text>
</g>
<!-- Status_CheckgetStatus_output&#45;&gt;Status_CheckWORKFLOWINTERNALSINK_getStatus_output_status -->
<g id="edge11" class="edge"><title>Status_CheckgetStatus_output&#45;&gt;Status_CheckWORKFLOWINTERNALSINK_getStatus_output_status</title>
<path fill="none" stroke="black" d="M95.4637,-370.452C95.076,-362.829 94.5395,-352.277 94.0661,-342.966"/>
<polygon fill="black" stroke="black" points="97.5554,-342.665 93.552,-332.856 90.5644,-343.021 97.5554,-342.665"/>
</g>
<!-- Status_CheckWORKFLOWINTERNALSOURCECONTROL -->
<g id="node19" class="node"><title>Status_CheckWORKFLOWINTERNALSOURCECONTROL</title>
<polygon fill="#ff4040" stroke="black" points="155,-502 148,-491.5 162,-491.5 155,-502"/>
</g>
<!-- Status_CheckWORKFLOWINTERNALSOURCE_jobID&#45;&gt;Status_CheckgetStatus_input -->
<g id="edge7" class="edge"><title>Status_CheckWORKFLOWINTERNALSOURCE_jobID&#45;&gt;Status_CheckgetStatus_input</title>
<path fill="none" stroke="black" d="M119.581,-484.212C119.314,-482.19 119.028,-480.013 118.737,-477.804"/>
<polygon fill="black" stroke="black" points="122.18,-477.141 117.406,-467.683 115.24,-478.054 122.18,-477.141"/>
</g>
<!-- Status_CheckWORKFLOWINTERNALSINKCONTROL -->
<g id="node22" class="node"><title>Status_CheckWORKFLOWINTERNALSINKCONTROL</title>
<polygon fill="#66cd00" stroke="black" points="165,-315 172,-325.5 158,-325.5 165,-315"/>
</g>
<!-- Status_CheckWORKFLOWINTERNALSINKCONTROL&#45;&gt;getResultTypes -->
<g id="edge67" class="edge"><title>Status_CheckWORKFLOWINTERNALSINKCONTROL&#45;&gt;getResultTypes</title>
<path fill="none" stroke="gray" d="M166.391,-317.077C167.924,-311.654 170.48,-302.608 172.805,-294.383"/>
<ellipse fill="none" stroke="gray" cx="173.917" cy="-290.446" rx="4.00001" ry="4.00001"/>
</g>
<!-- WORKFLOWINTERNALSINK_job_status -->
<g id="node43" class="node"><title>WORKFLOWINTERNALSINK_job_status</title>
<polygon fill="#bcd2ee" stroke="black" points="140,-37.5 78,-37.5 78,-16.5 140,-16.5 140,-37.5"/>
<text text-anchor="middle" x="109" y="-24.5" font-family="Helvetica,sans-Serif" font-size="10.00">job_status</text>
</g>
<!-- Status_CheckWORKFLOWINTERNALSINK_getStatus_output_status&#45;&gt;WORKFLOWINTERNALSINK_job_status -->
<g id="edge65" class="edge"><title>Status_CheckWORKFLOWINTERNALSINK_getStatus_output_status&#45;&gt;WORKFLOWINTERNALSINK_job_status</title>
<path fill="none" stroke="black" d="M94.6576,-311.423C97.0009,-295.527 101,-264.515 101,-238 101,-238 101,-238 101,-124 101,-97.6043 103.979,-67.3046 106.301,-47.6936"/>
<polygon fill="black" stroke="black" points="109.778,-48.0958 107.533,-37.7416 102.831,-47.2359 109.778,-48.0958"/>
</g>
<!-- getResult_output -->
<g id="node30" class="node"><title>getResult_output</title>
<polygon fill="#ab92ea" stroke="black" points="213,-96.5 123,-96.5 123,-75.5 213,-75.5 213,-96.5"/>
<text text-anchor="middle" x="168" y="-83.5" font-family="Helvetica,sans-Serif" font-size="10.00">getResult_output</text>
</g>
<!-- getResult&#45;&gt;getResult_output -->
<g id="edge59" class="edge"><title>getResult&#45;&gt;getResult_output</title>
<path fill="none" stroke="black" d="M169.432,-113.212C169.326,-111.19 169.211,-109.013 169.095,-106.804"/>
<polygon fill="black" stroke="black" points="172.583,-106.485 168.562,-96.6831 165.593,-106.853 172.583,-106.485"/>
</g>
<!-- getResult_input&#45;&gt;getResult -->
<g id="edge53" class="edge"><title>getResult_input&#45;&gt;getResult</title>
<path fill="none" stroke="black" d="M217.615,-151.415C211.322,-147.791 204.14,-143.656 197.295,-139.715"/>
<polygon fill="black" stroke="black" points="198.699,-136.485 188.286,-134.528 195.206,-142.551 198.699,-136.485"/>
</g>
<!-- WORKFLOWINTERNALSINK_result -->
<g id="node42" class="node"><title>WORKFLOWINTERNALSINK_result</title>
<polygon fill="#bcd2ee" stroke="black" points="184,-37.5 144,-37.5 144,-16.5 184,-16.5 184,-37.5"/>
<text text-anchor="middle" x="164" y="-24.5" font-family="Helvetica,sans-Serif" font-size="10.00">result</text>
</g>
<!-- getResult_output&#45;&gt;WORKFLOWINTERNALSINK_result -->
<g id="edge63" class="edge"><title>getResult_output&#45;&gt;WORKFLOWINTERNALSINK_result</title>
<path fill="none" stroke="black" d="M167.285,-75.452C166.768,-67.8285 166.053,-57.2768 165.421,-47.966"/>
<polygon fill="black" stroke="black" points="168.904,-47.5962 164.736,-37.8559 161.921,-48.0697 168.904,-47.5962"/>
</g>
<!-- process_ResultTypes&#45;&gt;getResult_input -->
<g id="edge57" class="edge"><title>process_ResultTypes&#45;&gt;getResult_input</title>
<path fill="none" stroke="black" d="M236,-189.212C236,-187.19 236,-185.013 236,-182.804"/>
<polygon fill="black" stroke="black" points="239.5,-182.683 236,-172.683 232.5,-182.683 239.5,-182.683"/>
</g>
<!-- WORKFLOWINTERNALSOURCECONTROL -->
<g id="node33" class="node"><title>WORKFLOWINTERNALSOURCECONTROL</title>
<polygon fill="#ff4040" stroke="black" points="255,-818 248,-807.5 262,-807.5 255,-818"/>
</g>
<!-- WORKFLOWINTERNALSOURCE_ids -->
<g id="node34" class="node"><title>WORKFLOWINTERNALSOURCE_ids</title>
<polygon fill="skyblue" stroke="black" points="124,-821.5 96,-821.5 96,-800.5 124,-800.5 124,-821.5"/>
<text text-anchor="middle" x="110" y="-808.5" font-family="Helvetica,sans-Serif" font-size="10.00">ids</text>
</g>
<!-- WORKFLOWINTERNALSOURCE_ids&#45;&gt;fetchBatch -->
<g id="edge21" class="edge"><title>WORKFLOWINTERNALSOURCE_ids&#45;&gt;fetchBatch</title>
<path fill="none" stroke="black" d="M118.299,-800.272C121.099,-797.237 124.428,-794.172 128,-792 135.323,-787.547 143.736,-784.097 152.05,-781.437"/>
<polygon fill="black" stroke="black" points="153.05,-784.792 161.694,-778.666 151.116,-778.064 153.05,-784.792"/>
</g>
<!-- WORKFLOWINTERNALSOURCE_db -->
<g id="node35" class="node"><title>WORKFLOWINTERNALSOURCE_db</title>
<polygon fill="skyblue" stroke="black" points="244,-821.5 218,-821.5 218,-800.5 244,-800.5 244,-821.5"/>
<text text-anchor="middle" x="231" y="-808.5" font-family="Helvetica,sans-Serif" font-size="10.00">db</text>
</g>
<!-- WORKFLOWINTERNALSOURCE_db&#45;&gt;fetchBatch -->
<g id="edge19" class="edge"><title>WORKFLOWINTERNALSOURCE_db&#45;&gt;fetchBatch</title>
<path fill="none" stroke="black" d="M221.797,-800.408C219.31,-797.631 216.59,-794.668 214,-792 213.583,-791.57 213.159,-791.137 212.73,-790.703"/>
<polygon fill="black" stroke="black" points="215.17,-788.193 205.578,-783.695 210.271,-793.193 215.17,-788.193"/>
</g>
<!-- WORKFLOWINTERNALSOURCE_style -->
<g id="node36" class="node"><title>WORKFLOWINTERNALSOURCE_style</title>
<polygon fill="skyblue" stroke="black" points="214,-821.5 176,-821.5 176,-800.5 214,-800.5 214,-821.5"/>
<text text-anchor="middle" x="195" y="-808.5" font-family="Helvetica,sans-Serif" font-size="10.00">style</text>
</g>
<!-- WORKFLOWINTERNALSOURCE_style&#45;&gt;fetchBatch -->
<g id="edge17" class="edge"><title>WORKFLOWINTERNALSOURCE_style&#45;&gt;fetchBatch</title>
<path fill="none" stroke="black" d="M194.716,-800.212C194.663,-798.19 194.606,-796.013 194.547,-793.804"/>
<polygon fill="black" stroke="black" points="198.043,-793.588 194.281,-783.683 191.046,-793.772 198.043,-793.588"/>
</g>
<!-- WORKFLOWINTERNALSOURCE_format -->
<g id="node37" class="node"><title>WORKFLOWINTERNALSOURCE_format</title>
<polygon fill="skyblue" stroke="black" points="172,-821.5 128,-821.5 128,-800.5 172,-800.5 172,-821.5"/>
<text text-anchor="middle" x="150" y="-808.5" font-family="Helvetica,sans-Serif" font-size="10.00">format</text>
</g>
<!-- WORKFLOWINTERNALSOURCE_format&#45;&gt;fetchBatch -->
<g id="edge15" class="edge"><title>WORKFLOWINTERNALSOURCE_format&#45;&gt;fetchBatch</title>
<path fill="none" stroke="black" d="M162.491,-800.212C166.051,-797.138 170.023,-793.708 173.914,-790.347"/>
<polygon fill="black" stroke="black" points="176.35,-792.868 181.63,-783.683 171.774,-787.57 176.35,-792.868"/>
</g>
<!-- WORKFLOWINTERNALSOURCE_title -->
<g id="node38" class="node"><title>WORKFLOWINTERNALSOURCE_title</title>
<polygon fill="skyblue" stroke="black" points="48,-821.5 16,-821.5 16,-800.5 48,-800.5 48,-821.5"/>
<text text-anchor="middle" x="32" y="-808.5" font-family="Helvetica,sans-Serif" font-size="10.00">title</text>
</g>
<!-- WORKFLOWINTERNALSOURCE_title&#45;&gt;run_input -->
<g id="edge27" class="edge"><title>WORKFLOWINTERNALSOURCE_title&#45;&gt;run_input</title>
<path fill="none" stroke="black" d="M30.8482,-800.219C28.8876,-775.622 27.9793,-715.238 62,-686 70.0272,-679.101 93.0414,-672.259 113.786,-667.188"/>
<polygon fill="black" stroke="black" points="114.782,-670.55 123.712,-664.849 113.176,-663.736 114.782,-670.55"/>
</g>
<!-- WORKFLOWINTERNALSOURCE_email -->
<g id="node39" class="node"><title>WORKFLOWINTERNALSOURCE_email</title>
<polygon fill="skyblue" stroke="black" points="92,-821.5 52,-821.5 52,-800.5 92,-800.5 92,-821.5"/>
<text text-anchor="middle" x="72" y="-808.5" font-family="Helvetica,sans-Serif" font-size="10.00">email</text>
</g>
<!-- WORKFLOWINTERNALSOURCE_email&#45;&gt;run_input -->
<g id="edge29" class="edge"><title>WORKFLOWINTERNALSOURCE_email&#45;&gt;run_input</title>
<path fill="none" stroke="black" d="M64.6633,-800.467C53.8003,-783.451 36.1385,-749.27 50,-724 63.6688,-699.081 91.397,-682.342 114.497,-672.099"/>
<polygon fill="black" stroke="black" points="115.861,-675.323 123.732,-668.231 113.156,-668.866 115.861,-675.323"/>
</g>
<!-- WORKFLOWINTERNALSINKCONTROL -->
<g id="node41" class="node"><title>WORKFLOWINTERNALSINKCONTROL</title>
<polygon fill="#66cd00" stroke="black" points="195,-20 202,-30.5 188,-30.5 195,-20"/>
</g>
</g>
</svg>
