<?xml version="1.0" encoding="UTF-8" standalone="no"?>
<!DOCTYPE svg PUBLIC "-//W3C//DTD SVG 1.1//EN"
 "http://www.w3.org/Graphics/SVG/1.1/DTD/svg11.dtd">
<!-- Generated by graphviz version 2.26.0 (20091210.2329)
 -->
<!-- Title: t2flow_graph Pages: 1 -->
<svg width="696pt" height="256pt"
 viewBox="0.00 0.00 696.00 256.00" xmlns="http://www.w3.org/2000/svg" xmlns:xlink="http://www.w3.org/1999/xlink">
<g id="graph1" class="graph" transform="scale(1 1) rotate(0) translate(4 252)">
<title>t2flow_graph</title>
<polygon fill="white" stroke="white" points="-4,5 -4,-252 693,-252 693,5 -4,5"/>
<g id="graph2" class="cluster"><title>cluster_sources</title>
<polygon fill="none" stroke="black" stroke-dasharray="1,5" points="119,-181 119,-240 321,-240 321,-181 119,-181"/>
<text text-anchor="middle" x="163" y="-227" font-family="Helvetica,sans-Serif" font-size="10.00">Workflow Inputs</text>
</g>
<g id="graph3" class="cluster"><title>cluster_sinks</title>
<polygon fill="none" stroke="black" stroke-dasharray="1,5" points="127,-8 127,-67 493,-67 493,-8 127,-8"/>
<text text-anchor="middle" x="174.5" y="-54" font-family="Helvetica,sans-Serif" font-size="10.00">Workflow Outputs</text>
</g>
<!-- sentenceListNormaliser -->
<g id="node1" class="node"><title>sentenceListNormaliser</title>
<polygon fill="#deb887" stroke="black" points="330,-172.5 212,-172.5 212,-151.5 330,-151.5 330,-172.5"/>
<text text-anchor="middle" x="271" y="-159.5" font-family="Helvetica,sans-Serif" font-size="10.00">sentenceListNormaliser</text>
</g>
<!-- analyze -->
<g id="node2" class="node"><title>analyze</title>
<polygon fill="#a2cd5a" stroke="black" points="417,-134.5 367,-134.5 367,-113.5 417,-113.5 417,-134.5"/>
<text text-anchor="middle" x="392" y="-121.5" font-family="Helvetica,sans-Serif" font-size="10.00">analyze</text>
</g>
<!-- sentenceListNormaliser&#45;&gt;analyze -->
<g id="edge14" class="edge"><title>sentenceListNormaliser&#45;&gt;analyze</title>
<path fill="none" stroke="black" d="M304.705,-151.415C321.036,-146.286 340.63,-140.133 357.113,-134.956"/>
<polygon fill="black" stroke="black" points="358.425,-138.213 366.917,-131.877 356.328,-131.534 358.425,-138.213"/>
</g>
<!-- jamesXPath -->
<g id="node7" class="node"><title>jamesXPath</title>
<polygon fill="#deb887" stroke="black" points="322,-96.5 252,-96.5 252,-75.5 322,-75.5 322,-96.5"/>
<text text-anchor="middle" x="287" y="-83.5" font-family="Helvetica,sans-Serif" font-size="10.00">jamesXPath</text>
</g>
<!-- analyze&#45;&gt;jamesXPath -->
<g id="edge16" class="edge"><title>analyze&#45;&gt;jamesXPath</title>
<path fill="none" stroke="black" d="M366.85,-114.898C354.547,-110.446 339.464,-104.987 325.733,-100.018"/>
<polygon fill="black" stroke="black" points="326.627,-96.6191 316.033,-96.5071 324.245,-103.201 326.627,-96.6191"/>
</g>
<!-- jamesXPath_2 -->
<g id="node12" class="node"><title>jamesXPath_2</title>
<polygon fill="#deb887" stroke="black" points="458,-96.5 378,-96.5 378,-75.5 458,-75.5 458,-96.5"/>
<text text-anchor="middle" x="418" y="-83.5" font-family="Helvetica,sans-Serif" font-size="10.00">jamesXPath_2</text>
</g>
<!-- analyze&#45;&gt;jamesXPath_2 -->
<g id="edge28" class="edge"><title>analyze&#45;&gt;jamesXPath_2</title>
<path fill="none" stroke="black" d="M399.381,-113.212C401.153,-110.623 403.097,-107.782 405.039,-104.943"/>
<polygon fill="black" stroke="black" points="407.932,-106.913 410.691,-96.6831 402.155,-102.96 407.932,-106.913"/>
</g>
<!-- filter_value -->
<g id="node3" class="node"><title>filter_value</title>
<polygon fill="#b0c4de" stroke="black" points="398,-172.5 334,-172.5 334,-151.5 398,-151.5 398,-172.5"/>
<text text-anchor="middle" x="366" y="-159.5" font-family="Helvetica,sans-Serif" font-size="10.00">filter_value</text>
</g>
<!-- filter_value&#45;&gt;analyze -->
<g id="edge6" class="edge"><title>filter_value&#45;&gt;analyze</title>
<path fill="none" stroke="black" d="M373.381,-151.212C375.153,-148.623 377.097,-145.782 379.039,-142.943"/>
<polygon fill="black" stroke="black" points="381.932,-144.913 384.691,-134.683 376.155,-140.96 381.932,-144.913"/>
</g>
<!-- input_format_value -->
<g id="node4" class="node"><title>input_format_value</title>
<polygon fill="#b0c4de" stroke="black" points="500,-172.5 402,-172.5 402,-151.5 500,-151.5 500,-172.5"/>
<text text-anchor="middle" x="451" y="-159.5" font-family="Helvetica,sans-Serif" font-size="10.00">input_format_value</text>
</g>
<!-- input_format_value&#45;&gt;analyze -->
<g id="edge8" class="edge"><title>input_format_value&#45;&gt;analyze</title>
<path fill="none" stroke="black" d="M434.565,-151.415C429.067,-147.874 422.81,-143.844 416.818,-139.984"/>
<polygon fill="black" stroke="black" points="418.649,-137.001 408.347,-134.528 414.859,-142.886 418.649,-137.001"/>
</g>
<!-- output_format_value -->
<g id="node5" class="node"><title>output_format_value</title>
<polygon fill="#b0c4de" stroke="black" points="608,-172.5 504,-172.5 504,-151.5 608,-151.5 608,-172.5"/>
<text text-anchor="middle" x="556" y="-159.5" font-family="Helvetica,sans-Serif" font-size="10.00">output_format_value</text>
</g>
<!-- output_format_value&#45;&gt;analyze -->
<g id="edge10" class="edge"><title>output_format_value&#45;&gt;analyze</title>
<path fill="none" stroke="black" d="M503.805,-151.663C475.405,-146.026 443.182,-139.606 427.002,-136.119"/>
<polygon fill="black" stroke="black" points="427.756,-132.701 417.223,-133.848 426.172,-139.52 427.756,-132.701"/>
</g>
<!-- stoplist_value -->
<g id="node6" class="node"><title>stoplist_value</title>
<polygon fill="#b0c4de" stroke="black" points="688,-172.5 612,-172.5 612,-151.5 688,-151.5 688,-172.5"/>
<text text-anchor="middle" x="650" y="-159.5" font-family="Helvetica,sans-Serif" font-size="10.00">stoplist_value</text>
</g>
<!-- stoplist_value&#45;&gt;analyze -->
<g id="edge12" class="edge"><title>stoplist_value&#45;&gt;analyze</title>
<path fill="none" stroke="black" d="M611.605,-151.664C610.392,-151.427 609.188,-151.205 608,-151 529.17,-137.407 504.356,-152.207 427.353,-136.243"/>
<polygon fill="black" stroke="black" points="427.695,-132.735 417.179,-134.021 426.202,-139.574 427.695,-132.735"/>
</g>
<!-- WORKFLOWINTERNALSINK_termCandidatesAboveThreshold -->
<g id="node20" class="node"><title>WORKFLOWINTERNALSINK_termCandidatesAboveThreshold</title>
<polygon fill="#bcd2ee" stroke="black" points="365,-37.5 209,-37.5 209,-16.5 365,-16.5 365,-37.5"/>
<text text-anchor="middle" x="287" y="-24.5" font-family="Helvetica,sans-Serif" font-size="10.00">termCandidatesAboveThreshold</text>
</g>
<!-- jamesXPath&#45;&gt;WORKFLOWINTERNALSINK_termCandidatesAboveThreshold -->
<g id="edge32" class="edge"><title>jamesXPath&#45;&gt;WORKFLOWINTERNALSINK_termCandidatesAboveThreshold</title>
<path fill="none" stroke="black" d="M287,-75.452C287,-67.8285 287,-57.2768 287,-47.966"/>
<polygon fill="black" stroke="black" points="290.5,-47.8558 287,-37.8559 283.5,-47.8559 290.5,-47.8558"/>
</g>
<!-- Concatenate_two_strings -->
<g id="node8" class="node"><title>Concatenate_two_strings</title>
<polygon fill="#d15fee" stroke="black" points="128,-172.5 6.39488e-14,-172.5 0,-151.5 128,-151.5 128,-172.5"/>
<text text-anchor="middle" x="64" y="-159.5" font-family="Helvetica,sans-Serif" font-size="10.00">Concatenate_two_strings</text>
</g>
<!-- Concatenate_two_strings_2 -->
<g id="node10" class="node"><title>Concatenate_two_strings_2</title>
<polygon fill="#d15fee" stroke="black" points="239,-134.5 101,-134.5 101,-113.5 239,-113.5 239,-134.5"/>
<text text-anchor="middle" x="170" y="-121.5" font-family="Helvetica,sans-Serif" font-size="10.00">Concatenate_two_strings_2</text>
</g>
<!-- Concatenate_two_strings&#45;&gt;Concatenate_two_strings_2 -->
<g id="edge24" class="edge"><title>Concatenate_two_strings&#45;&gt;Concatenate_two_strings_2</title>
<path fill="none" stroke="black" d="M93.5269,-151.415C105.128,-147.256 118.609,-142.423 130.992,-137.984"/>
<polygon fill="black" stroke="black" points="132.399,-141.198 140.631,-134.528 130.037,-134.608 132.399,-141.198"/>
</g>
<!-- xpath_first_bit -->
<g id="node9" class="node"><title>xpath_first_bit</title>
<polygon fill="#b0c4de" stroke="black" points="103,-210.5 25,-210.5 25,-189.5 103,-189.5 103,-210.5"/>
<text text-anchor="middle" x="64" y="-197.5" font-family="Helvetica,sans-Serif" font-size="10.00">xpath_first_bit</text>
</g>
<!-- xpath_first_bit&#45;&gt;Concatenate_two_strings -->
<g id="edge22" class="edge"><title>xpath_first_bit&#45;&gt;Concatenate_two_strings</title>
<path fill="none" stroke="black" d="M64,-189.212C64,-187.19 64,-185.013 64,-182.804"/>
<polygon fill="black" stroke="black" points="67.5001,-182.683 64,-172.683 60.5001,-182.683 67.5001,-182.683"/>
</g>
<!-- Concatenate_two_strings_2&#45;&gt;jamesXPath -->
<g id="edge18" class="edge"><title>Concatenate_two_strings_2&#45;&gt;jamesXPath</title>
<path fill="none" stroke="black" d="M202.591,-113.415C215.649,-109.174 230.866,-104.232 244.755,-99.7206"/>
<polygon fill="black" stroke="black" points="246.154,-102.946 254.584,-96.5284 243.992,-96.2886 246.154,-102.946"/>
</g>
<!-- WORKFLOWINTERNALSINK_xpathOutput -->
<g id="node21" class="node"><title>WORKFLOWINTERNALSINK_xpathOutput</title>
<polygon fill="#bcd2ee" stroke="black" points="205,-37.5 135,-37.5 135,-16.5 205,-16.5 205,-37.5"/>
<text text-anchor="middle" x="170" y="-24.5" font-family="Helvetica,sans-Serif" font-size="10.00">xpathOutput</text>
</g>
<!-- Concatenate_two_strings_2&#45;&gt;WORKFLOWINTERNALSINK_xpathOutput -->
<g id="edge34" class="edge"><title>Concatenate_two_strings_2&#45;&gt;WORKFLOWINTERNALSINK_xpathOutput</title>
<path fill="none" stroke="black" d="M170,-113.249C170,-97.4334 170,-67.6032 170,-47.513"/>
<polygon fill="black" stroke="black" points="173.5,-47.5046 170,-37.5046 166.5,-47.5047 173.5,-47.5046"/>
</g>
<!-- xpath_last_bit -->
<g id="node11" class="node"><title>xpath_last_bit</title>
<polygon fill="#b0c4de" stroke="black" points="208,-172.5 132,-172.5 132,-151.5 208,-151.5 208,-172.5"/>
<text text-anchor="middle" x="170" y="-159.5" font-family="Helvetica,sans-Serif" font-size="10.00">xpath_last_bit</text>
</g>
<!-- xpath_last_bit&#45;&gt;Concatenate_two_strings_2 -->
<g id="edge26" class="edge"><title>xpath_last_bit&#45;&gt;Concatenate_two_strings_2</title>
<path fill="none" stroke="black" d="M170,-151.212C170,-149.19 170,-147.013 170,-144.804"/>
<polygon fill="black" stroke="black" points="173.5,-144.683 170,-134.683 166.5,-144.683 173.5,-144.683"/>
</g>
<!-- WORKFLOWINTERNALSINK_allTermCandidates -->
<g id="node22" class="node"><title>WORKFLOWINTERNALSINK_allTermCandidates</title>
<polygon fill="#bcd2ee" stroke="black" points="467,-37.5 369,-37.5 369,-16.5 467,-16.5 467,-37.5"/>
<text text-anchor="middle" x="418" y="-24.5" font-family="Helvetica,sans-Serif" font-size="10.00">allTermCandidates</text>
</g>
<!-- jamesXPath_2&#45;&gt;WORKFLOWINTERNALSINK_allTermCandidates -->
<g id="edge36" class="edge"><title>jamesXPath_2&#45;&gt;WORKFLOWINTERNALSINK_allTermCandidates</title>
<path fill="none" stroke="black" d="M418,-75.452C418,-67.8285 418,-57.2768 418,-47.966"/>
<polygon fill="black" stroke="black" points="421.5,-47.8558 418,-37.8559 414.5,-47.8559 421.5,-47.8558"/>
</g>
<!-- xPathString_value -->
<g id="node13" class="node"><title>xPathString_value</title>
<polygon fill="#b0c4de" stroke="black" points="517,-134.5 421,-134.5 421,-113.5 517,-113.5 517,-134.5"/>
<text text-anchor="middle" x="469" y="-121.5" font-family="Helvetica,sans-Serif" font-size="10.00">xPathString_value</text>
</g>
<!-- xPathString_value&#45;&gt;jamesXPath_2 -->
<g id="edge30" class="edge"><title>xPathString_value&#45;&gt;jamesXPath_2</title>
<path fill="none" stroke="black" d="M454.794,-113.415C450.262,-110.038 445.134,-106.218 440.177,-102.524"/>
<polygon fill="black" stroke="black" points="442.24,-99.6966 432.13,-96.5284 438.058,-105.31 442.24,-99.6966"/>
</g>
<!-- WORKFLOWINTERNALSOURCECONTROL -->
<g id="node15" class="node"><title>WORKFLOWINTERNALSOURCECONTROL</title>
<polygon fill="#ff4040" stroke="black" points="306,-207 299,-196.5 313,-196.5 306,-207"/>
</g>
<!-- WORKFLOWINTERNALSOURCE_sentencesList -->
<g id="node16" class="node"><title>WORKFLOWINTERNALSOURCE_sentencesList</title>
<polygon fill="skyblue" stroke="black" points="295,-210.5 219,-210.5 219,-189.5 295,-189.5 295,-210.5"/>
<text text-anchor="middle" x="257" y="-197.5" font-family="Helvetica,sans-Serif" font-size="10.00">sentencesList</text>
</g>
<!-- WORKFLOWINTERNALSOURCE_sentencesList&#45;&gt;sentenceListNormaliser -->
<g id="edge4" class="edge"><title>WORKFLOWINTERNALSOURCE_sentencesList&#45;&gt;sentenceListNormaliser</title>
<path fill="none" stroke="black" d="M260.974,-189.212C261.779,-187.028 262.65,-184.664 263.531,-182.273"/>
<polygon fill="black" stroke="black" points="266.891,-183.277 267.064,-172.683 260.323,-180.857 266.891,-183.277"/>
</g>
<!-- WORKFLOWINTERNALSOURCE_cValueThreshold -->
<g id="node17" class="node"><title>WORKFLOWINTERNALSOURCE_cValueThreshold</title>
<polygon fill="skyblue" stroke="black" points="215,-210.5 127,-210.5 127,-189.5 215,-189.5 215,-210.5"/>
<text text-anchor="middle" x="171" y="-197.5" font-family="Helvetica,sans-Serif" font-size="10.00">cValueThreshold</text>
</g>
<!-- WORKFLOWINTERNALSOURCE_cValueThreshold&#45;&gt;Concatenate_two_strings -->
<g id="edge20" class="edge"><title>WORKFLOWINTERNALSOURCE_cValueThreshold&#45;&gt;Concatenate_two_strings</title>
<path fill="none" stroke="black" d="M145.21,-189.433C138.053,-186.599 130.256,-183.601 123,-181 118.123,-179.252 112.995,-177.489 107.881,-175.779"/>
<polygon fill="black" stroke="black" points="108.728,-172.374 98.1353,-172.574 106.541,-179.023 108.728,-172.374"/>
</g>
<!-- WORKFLOWINTERNALSINKCONTROL -->
<g id="node19" class="node"><title>WORKFLOWINTERNALSINKCONTROL</title>
<polygon fill="#66cd00" stroke="black" points="478,-20 485,-30.5 471,-30.5 478,-20"/>
</g>
</g>
</svg>
