<?xml version="1.0" encoding="UTF-8" standalone="no"?>
<!DOCTYPE svg PUBLIC "-//W3C//DTD SVG 1.1//EN"
 "http://www.w3.org/Graphics/SVG/1.1/DTD/svg11.dtd">
<!-- Generated by graphviz version 2.26.0 (20091210.2329)
 -->
<!-- Title: t2flow_graph Pages: 1 -->
<svg width="421pt" height="219pt"
 viewBox="0.00 0.00 421.00 219.00" xmlns="http://www.w3.org/2000/svg" xmlns:xlink="http://www.w3.org/1999/xlink">
<g id="graph1" class="graph" transform="scale(1 1) rotate(0) translate(4 215)">
<title>t2flow_graph</title>
<polygon fill="white" stroke="white" points="-4,5 -4,-215 418,-215 418,5 -4,5"/>
<g id="graph2" class="cluster"><title>cluster_sources</title>
<polygon fill="none" stroke="black" stroke-dasharray="1,5" points="8,-144 8,-203 302,-203 302,-144 8,-144"/>
<text text-anchor="middle" x="52" y="-190" font-family="Helvetica,sans-Serif" font-size="10.00">Workflow Inputs</text>
</g>
<g id="graph3" class="cluster"><title>cluster_sinks</title>
<polygon fill="none" stroke="black" stroke-dasharray="1,5" points="310,-148 310,-199 405,-199 405,-148 310,-148"/>
<text text-anchor="middle" x="357.5" y="-186" font-family="Helvetica,sans-Serif" font-size="10.00">Workflow Outputs</text>
</g>
<!-- Read_Text_File -->
<g id="node1" class="node"><title>Read_Text_File</title>
<polygon fill="#d15fee" stroke="black" points="168,-135.5 82,-135.5 82,-114.5 168,-114.5 168,-135.5"/>
<text text-anchor="middle" x="125" y="-122.5" font-family="Helvetica,sans-Serif" font-size="10.00">Read_Text_File</text>
</g>
<!-- Extract_unique_proteins -->
<g id="node2" class="node"><title>Extract_unique_proteins</title>
<polygon fill="#deb887" stroke="black" points="186,-97.5 64,-97.5 64,-76.5 186,-76.5 186,-97.5"/>
<text text-anchor="middle" x="125" y="-84.5" font-family="Helvetica,sans-Serif" font-size="10.00">Extract_unique_proteins</text>
</g>
<!-- Read_Text_File&#45;&gt;Extract_unique_proteins -->
<g id="edge6" class="edge"><title>Read_Text_File&#45;&gt;Extract_unique_proteins</title>
<path fill="none" stroke="black" d="M123.632,-114.212C123.563,-112.19 123.521,-110.013 123.506,-107.804"/>
<polygon fill="black" stroke="black" points="127.007,-107.727 123.636,-97.6831 120.008,-107.637 127.007,-107.727"/>
</g>
<!-- Read_Text_File&#45;&gt;Extract_unique_proteins -->
<g id="edge22" class="edge"><title>Read_Text_File&#45;&gt;Extract_unique_proteins</title>
<path fill="none" stroke="gray" d="M126.368,-114.212C126.457,-111.623 126.501,-108.782 126.5,-105.943"/>
<ellipse fill="none" stroke="gray" cx="126.43" cy="-101.683" rx="4" ry="4"/>
</g>
<!-- Tfasta_parser -->
<g id="node3" class="node"><title>Tfasta_parser</title>
<polygon fill="#deb887" stroke="black" points="231,-59.5 155,-59.5 155,-38.5 231,-38.5 231,-59.5"/>
<text text-anchor="middle" x="193" y="-46.5" font-family="Helvetica,sans-Serif" font-size="10.00">Tfasta_parser</text>
</g>
<!-- Extract_unique_proteins&#45;&gt;Tfasta_parser -->
<g id="edge8" class="edge"><title>Extract_unique_proteins&#45;&gt;Tfasta_parser</title>
<path fill="none" stroke="black" d="M143.942,-76.4149C150.573,-72.709 158.163,-68.4679 165.358,-64.447"/>
<polygon fill="black" stroke="black" points="167.138,-67.4619 174.16,-59.5284 163.723,-61.3513 167.138,-67.4619"/>
</g>
<!-- extract_gis -->
<g id="node5" class="node"><title>extract_gis</title>
<polygon fill="#deb887" stroke="black" points="141,-59.5 77,-59.5 77,-38.5 141,-38.5 141,-59.5"/>
<text text-anchor="middle" x="109" y="-46.5" font-family="Helvetica,sans-Serif" font-size="10.00">extract_gis</text>
</g>
<!-- Extract_unique_proteins&#45;&gt;extract_gis -->
<g id="edge16" class="edge"><title>Extract_unique_proteins&#45;&gt;extract_gis</title>
<path fill="none" stroke="black" d="M120.458,-76.2124C119.504,-73.9468 118.469,-71.4884 117.424,-69.007"/>
<polygon fill="black" stroke="black" points="120.604,-67.5412 113.498,-59.6831 114.153,-70.2577 120.604,-67.5412"/>
</g>
<!-- Write_Text_File -->
<g id="node4" class="node"><title>Write_Text_File</title>
<polygon fill="#d15fee" stroke="black" points="251,-21.5 165,-21.5 165,-0.5 251,-0.5 251,-21.5"/>
<text text-anchor="middle" x="208" y="-8.5" font-family="Helvetica,sans-Serif" font-size="10.00">Write_Text_File</text>
</g>
<!-- Tfasta_parser&#45;&gt;Write_Text_File -->
<g id="edge12" class="edge"><title>Tfasta_parser&#45;&gt;Write_Text_File</title>
<path fill="none" stroke="black" d="M197.258,-38.2124C198.153,-35.9468 199.123,-33.4884 200.103,-31.007"/>
<polygon fill="black" stroke="black" points="203.367,-32.2697 203.783,-21.6831 196.856,-29.6995 203.367,-32.2697"/>
</g>
<!-- Write_Text_File_2 -->
<g id="node6" class="node"><title>Write_Text_File_2</title>
<polygon fill="#d15fee" stroke="black" points="141,-21.5 45,-21.5 45,-0.5 141,-0.5 141,-21.5"/>
<text text-anchor="middle" x="93" y="-8.5" font-family="Helvetica,sans-Serif" font-size="10.00">Write_Text_File_2</text>
</g>
<!-- extract_gis&#45;&gt;Write_Text_File_2 -->
<g id="edge18" class="edge"><title>extract_gis&#45;&gt;Write_Text_File_2</title>
<path fill="none" stroke="black" d="M104.458,-38.2124C103.504,-35.9468 102.469,-33.4884 101.424,-31.007"/>
<polygon fill="black" stroke="black" points="104.604,-29.5412 97.4981,-21.6831 98.153,-32.2577 104.604,-29.5412"/>
</g>
<!-- WORKFLOWINTERNALSOURCECONTROL -->
<g id="node8" class="node"><title>WORKFLOWINTERNALSOURCECONTROL</title>
<polygon fill="#ff4040" stroke="black" points="287,-170 280,-159.5 294,-159.5 287,-170"/>
</g>
<!-- WORKFLOWINTERNALSOURCE_blastFile -->
<g id="node9" class="node"><title>WORKFLOWINTERNALSOURCE_blastFile</title>
<polygon fill="skyblue" stroke="black" points="154,-173.5 102,-173.5 102,-152.5 154,-152.5 154,-173.5"/>
<text text-anchor="middle" x="128" y="-160.5" font-family="Helvetica,sans-Serif" font-size="10.00">blastFile</text>
</g>
<!-- WORKFLOWINTERNALSOURCE_blastFile&#45;&gt;Read_Text_File -->
<g id="edge4" class="edge"><title>WORKFLOWINTERNALSOURCE_blastFile&#45;&gt;Read_Text_File</title>
<path fill="none" stroke="black" d="M127.148,-152.212C126.989,-150.19 126.817,-148.013 126.642,-145.804"/>
<polygon fill="black" stroke="black" points="130.12,-145.377 125.843,-135.683 123.141,-145.928 130.12,-145.377"/>
</g>
<!-- WORKFLOWINTERNALSOURCE_tfasta -->
<g id="node10" class="node"><title>WORKFLOWINTERNALSOURCE_tfasta</title>
<polygon fill="skyblue" stroke="black" points="198,-173.5 158,-173.5 158,-152.5 198,-152.5 198,-173.5"/>
<text text-anchor="middle" x="178" y="-160.5" font-family="Helvetica,sans-Serif" font-size="10.00">tfasta</text>
</g>
<!-- WORKFLOWINTERNALSOURCE_tfasta&#45;&gt;Tfasta_parser -->
<g id="edge10" class="edge"><title>WORKFLOWINTERNALSOURCE_tfasta&#45;&gt;Tfasta_parser</title>
<path fill="none" stroke="black" d="M179.384,-152.479C181.85,-133.742 187.043,-94.2701 190.256,-69.8565"/>
<polygon fill="black" stroke="black" points="193.741,-70.1988 191.575,-59.8276 186.801,-69.2855 193.741,-70.1988"/>
</g>
<!-- WORKFLOWINTERNALSOURCE_list_of_proteins -->
<g id="node11" class="node"><title>WORKFLOWINTERNALSOURCE_list_of_proteins</title>
<polygon fill="skyblue" stroke="black" points="98,-173.5 16,-173.5 16,-152.5 98,-152.5 98,-173.5"/>
<text text-anchor="middle" x="57" y="-160.5" font-family="Helvetica,sans-Serif" font-size="10.00">list_of_proteins</text>
</g>
<!-- WORKFLOWINTERNALSOURCE_list_of_proteins&#45;&gt;Write_Text_File_2 -->
<g id="edge20" class="edge"><title>WORKFLOWINTERNALSOURCE_list_of_proteins&#45;&gt;Write_Text_File_2</title>
<path fill="none" stroke="black" d="M56.5278,-152.384C55.9529,-130.078 56.8026,-77.1722 75,-38 76.2461,-35.3176 77.7381,-32.5999 79.3228,-29.9742"/>
<polygon fill="black" stroke="black" points="82.2694,-31.8634 84.8446,-21.5863 76.4226,-28.0143 82.2694,-31.8634"/>
</g>
<!-- WORKFLOWINTERNALSOURCE_end_file_path -->
<g id="node12" class="node"><title>WORKFLOWINTERNALSOURCE_end_file_path</title>
<polygon fill="skyblue" stroke="black" points="276,-173.5 202,-173.5 202,-152.5 276,-152.5 276,-173.5"/>
<text text-anchor="middle" x="239" y="-160.5" font-family="Helvetica,sans-Serif" font-size="10.00">end_file_path</text>
</g>
<!-- WORKFLOWINTERNALSOURCE_end_file_path&#45;&gt;Write_Text_File -->
<g id="edge14" class="edge"><title>WORKFLOWINTERNALSOURCE_end_file_path&#45;&gt;Write_Text_File</title>
<path fill="none" stroke="black" d="M240.483,-152.469C243.149,-130.325 247.078,-77.7075 231,-38 229.813,-35.0695 228.178,-32.2285 226.321,-29.5588"/>
<polygon fill="black" stroke="black" points="228.95,-27.2449 219.912,-21.7149 223.529,-31.6735 228.95,-27.2449"/>
</g>
<!-- WORKFLOWINTERNALSINKCONTROL -->
<g id="node14" class="node"><title>WORKFLOWINTERNALSINKCONTROL</title>
<polygon fill="#66cd00" stroke="black" points="357,-156 364,-166.5 350,-166.5 357,-156"/>
</g>
</g>
</svg>
