<?xml version="1.0" encoding="UTF-8" standalone="no"?>
<!DOCTYPE svg PUBLIC "-//W3C//DTD SVG 1.1//EN" "http://www.w3.org/Graphics/SVG/1.1/DTD/svg11.dtd">
<svg style="stroke:black; fill:none; stroke-width:1px; stroke-linejoin:round; text-anchor:left" xmlns="http://www.w3.org/2000/svg" font-family="Helvetica, Arial, FreeSans, Sans, sans, sans-serif" height="823px" width="831.25px" version="1.1" xmlns:xlink="http://www.w3.org/1999/xlink" viewBox="0 0 831.25 823">

<g>

<g>

<defs>

<marker refY="3.6" refX="1.5" markerUnits="strokeWidth" viewBox="0 0 10.5 7.2" stroke="none" id="true" markerWidth="10.5" fill="black" orient="auto" markerHeight="7.2">

<path d="M 1.5 3.6 L 0 0 L 10.5 3.6 L 0 7.2 L 1.5 3.6 Z"/>

</marker>

</defs>

<path marker-end="url(#true)" d="M263.5 382L474 245"/>

</g>

<g>

<defs>

<marker refY="3.6" refX="1.5" markerUnits="strokeWidth" viewBox="0 0 10.5 7.2" stroke="none" id="true" markerWidth="10.5" fill="black" orient="auto" markerHeight="7.2">

<path d="M 1.5 3.6 L 0 0 L 10.5 3.6 L 0 7.2 L 1.5 3.6 Z"/>

</marker>

</defs>

<path marker-end="url(#true)" d="M263.5 382L430 467"/>

</g>

<g>

<defs>

<marker refY="3.6" refX="1.5" markerUnits="strokeWidth" viewBox="0 0 10.5 7.2" stroke="none" id="true" markerWidth="10.5" fill="black" orient="auto" markerHeight="7.2">

<path d="M 1.5 3.6 L 0 0 L 10.5 3.6 L 0 7.2 L 1.5 3.6 Z"/>

</marker>

</defs>

<path marker-end="url(#true)" d="M506 493L664 568"/>

</g>

</g>

<g>

<path d="M209 295L258.5 295L258.5 325L209 325Z" fill="#EBD9B2"/>

<path d="M209 325L258.5 325L258.5 393L209 393Z" fill="#ffffff"/>

<path d="M479 200L586.25 200L586.25 230L479 230Z" fill="#EBD9B2"/>

<path d="M479 230L586.25 230L586.25 282L479 282Z" fill="#ffffff"/>

<path d="M435 422L501 422L501 452L435 452Z" fill="#EBD9B2"/>

<path d="M435 452L501 452L501 504L435 504Z" fill="#ffffff"/>

<path d="M669 523L735 523L735 553L669 553Z" fill="#EBD9B2"/>

<path d="M669 553L735 553L735 605L669 605Z" fill="#ffffff"/>

</g>

<g>

<text y="315" x="214" stroke="none" font-size="14px" fill="black">Paste</text>

<text y="340" x="214" stroke="none" font-size="10px" fill="black">Paste</text>

<text y="356" x="214" stroke="none" font-size="10px" fill="black">and</text>

<text y="387" x="214" stroke="none" font-size="10px" fill="black">out_file1</text>

<text y="220" x="484" stroke="none" font-size="14px" fill="black">Merge Columns</text>

<text y="245" x="484" stroke="none" font-size="10px" fill="black">Select data</text>

<text y="276" x="484" stroke="none" font-size="10px" fill="black">out_file1</text>

<text y="442" x="440" stroke="none" font-size="14px" fill="black">Count</text>

<text y="467" x="440" stroke="none" font-size="10px" fill="black">from dataset</text>

<text y="498" x="440" stroke="none" font-size="10px" fill="black">out_file1</text>

<text y="543" x="674" stroke="none" font-size="14px" fill="black">Sort</text>

<text y="568" x="674" stroke="none" font-size="10px" fill="black">Sort Dataset</text>

<text y="599" x="674" stroke="none" font-size="10px" fill="black">out_file1</text>

<path d="M209 367L258.5 367"/>

<path d="M479 256L586.25 256"/>

<circle cy="382" cx="258.5" r="5" fill="#ffffff"/>

<path d="M435 478L501 478"/>

<circle cy="382" cx="258.5" r="5" fill="#ffffff"/>

<path d="M669 579L735 579"/>

<circle cy="493" cx="501.0" r="5" fill="#ffffff"/>

</g>

</svg>