<?xml version="1.0" encoding="UTF-8" standalone="no"?>
<!DOCTYPE svg PUBLIC "-//W3C//DTD SVG 1.1//EN"
 "http://www.w3.org/Graphics/SVG/1.1/DTD/svg11.dtd">
<!-- Generated by graphviz version 2.26.0 (20091210.2329)
 -->
<!-- Title: t2flow_graph Pages: 1 -->
<svg width="619pt" height="218pt"
 viewBox="0.00 0.00 619.00 218.00" xmlns="http://www.w3.org/2000/svg" xmlns:xlink="http://www.w3.org/1999/xlink">
<g id="graph1" class="graph" transform="scale(1 1) rotate(0) translate(4 214)">
<title>t2flow_graph</title>
<polygon fill="white" stroke="white" points="-4,5 -4,-214 616,-214 616,5 -4,5"/>
<g id="graph2" class="cluster"><title>cluster_sources</title>
<polygon fill="none" stroke="black" stroke-dasharray="1,5" points="376,-143 376,-202 540,-202 540,-143 376,-143"/>
<text text-anchor="middle" x="420" y="-189" font-family="Helvetica,sans-Serif" font-size="10.00">Workflow Inputs</text>
</g>
<g id="graph3" class="cluster"><title>cluster_sinks</title>
<polygon fill="none" stroke="black" stroke-dasharray="1,5" points="51,-8 51,-67 603,-67 603,-8 51,-8"/>
<text text-anchor="middle" x="98.5" y="-54" font-family="Helvetica,sans-Serif" font-size="10.00">Workflow Outputs</text>
</g>
<!-- REST_Service -->
<g id="node1" class="node"><title>REST_Service</title>
<polygon fill="#7aafff" stroke="black" points="302,-134.5 220,-134.5 220,-113.5 302,-113.5 302,-134.5"/>
<text text-anchor="middle" x="261" y="-121.5" font-family="Helvetica,sans-Serif" font-size="10.00">REST_Service</text>
</g>
<!-- String_constant -->
<g id="node2" class="node"><title>String_constant</title>
<polygon fill="#b0c4de" stroke="black" points="208,-96.5 124,-96.5 124,-75.5 208,-75.5 208,-96.5"/>
<text text-anchor="middle" x="166" y="-83.5" font-family="Helvetica,sans-Serif" font-size="10.00">String_constant</text>
</g>
<!-- REST_Service&#45;&gt;String_constant -->
<g id="edge20" class="edge"><title>REST_Service&#45;&gt;String_constant</title>
<path fill="none" stroke="gray" d="M234.537,-113.415C223.831,-109.133 211.339,-104.136 199.973,-99.5893"/>
<ellipse fill="none" stroke="gray" cx="196.035" cy="-98.0139" rx="4.00001" ry="4.00001"/>
</g>
<!-- WORKFLOWINTERNALSINK_REST_Service_responseBody -->
<g id="node12" class="node"><title>WORKFLOWINTERNALSINK_REST_Service_responseBody</title>
<polygon fill="#bcd2ee" stroke="black" points="323,-37.5 175,-37.5 175,-16.5 323,-16.5 323,-37.5"/>
<text text-anchor="middle" x="249" y="-24.5" font-family="Helvetica,sans-Serif" font-size="10.00">REST_Service_responseBody</text>
</g>
<!-- REST_Service&#45;&gt;WORKFLOWINTERNALSINK_REST_Service_responseBody -->
<g id="edge14" class="edge"><title>REST_Service&#45;&gt;WORKFLOWINTERNALSINK_REST_Service_responseBody</title>
<path fill="none" stroke="black" d="M259.67,-113.249C257.713,-97.4334 254.023,-67.6032 251.538,-47.513"/>
<polygon fill="black" stroke="black" points="255.001,-46.9992 250.3,-37.5046 248.054,-47.8587 255.001,-46.9992"/>
</g>
<!-- WORKFLOWINTERNALSINK_REST_Service_status -->
<g id="node13" class="node"><title>WORKFLOWINTERNALSINK_REST_Service_status</title>
<polygon fill="#bcd2ee" stroke="black" points="441,-37.5 327,-37.5 327,-16.5 441,-16.5 441,-37.5"/>
<text text-anchor="middle" x="384" y="-24.5" font-family="Helvetica,sans-Serif" font-size="10.00">REST_Service_status</text>
</g>
<!-- REST_Service&#45;&gt;WORKFLOWINTERNALSINK_REST_Service_status -->
<g id="edge16" class="edge"><title>REST_Service&#45;&gt;WORKFLOWINTERNALSINK_REST_Service_status</title>
<path fill="none" stroke="black" d="M274.633,-113.249C295.987,-96.4083 337.491,-63.6774 362.778,-43.7357"/>
<polygon fill="black" stroke="black" points="364.995,-46.4452 370.68,-37.5046 360.66,-40.9487 364.995,-46.4452"/>
</g>
<!-- WORKFLOWINTERNALSINK_REST_Service_redirection -->
<g id="node14" class="node"><title>WORKFLOWINTERNALSINK_REST_Service_redirection</title>
<polygon fill="#bcd2ee" stroke="black" points="577,-37.5 445,-37.5 445,-16.5 577,-16.5 577,-37.5"/>
<text text-anchor="middle" x="511" y="-24.5" font-family="Helvetica,sans-Serif" font-size="10.00">REST_Service_redirection</text>
</g>
<!-- REST_Service&#45;&gt;WORKFLOWINTERNALSINK_REST_Service_redirection -->
<g id="edge18" class="edge"><title>REST_Service&#45;&gt;WORKFLOWINTERNALSINK_REST_Service_redirection</title>
<path fill="none" stroke="black" d="M302.296,-113.614C339.378,-103.662 394.912,-87.1908 441,-67 456.475,-60.2205 472.919,-50.9417 485.978,-43.0275"/>
<polygon fill="black" stroke="black" points="488.158,-45.7946 494.826,-37.5612 484.479,-39.8393 488.158,-45.7946"/>
</g>
<!-- WORKFLOWINTERNALSINK_String_constant_value -->
<g id="node11" class="node"><title>WORKFLOWINTERNALSINK_String_constant_value</title>
<polygon fill="#bcd2ee" stroke="black" points="171,-37.5 59,-37.5 59,-16.5 171,-16.5 171,-37.5"/>
<text text-anchor="middle" x="115" y="-24.5" font-family="Helvetica,sans-Serif" font-size="10.00">String_constant_value</text>
</g>
<!-- String_constant&#45;&gt;WORKFLOWINTERNALSINK_String_constant_value -->
<g id="edge12" class="edge"><title>String_constant&#45;&gt;WORKFLOWINTERNALSINK_String_constant_value</title>
<path fill="none" stroke="black" d="M156.882,-75.452C149.719,-67.1656 139.566,-55.4195 131.05,-45.568"/>
<polygon fill="black" stroke="black" points="133.571,-43.1324 124.384,-37.8559 128.276,-47.7101 133.571,-43.1324"/>
</g>
<!-- repository_location1_value -->
<g id="node3" class="node"><title>repository_location1_value</title>
<polygon fill="#b0c4de" stroke="black" points="132,-172.5 5.68434e-14,-172.5 0,-151.5 132,-151.5 132,-172.5"/>
<text text-anchor="middle" x="66" y="-159.5" font-family="Helvetica,sans-Serif" font-size="10.00">repository_location1_value</text>
</g>
<!-- repository_location1_value&#45;&gt;REST_Service -->
<g id="edge4" class="edge"><title>repository_location1_value&#45;&gt;REST_Service</title>
<path fill="none" stroke="black" d="M101.78,-151.444C112.702,-148.45 124.788,-145.366 136,-143 160.12,-137.911 187.132,-133.63 209.859,-130.428"/>
<polygon fill="black" stroke="black" points="210.545,-133.867 219.973,-129.034 209.589,-126.933 210.545,-133.867"/>
</g>
<!-- repository_location2_value -->
<g id="node4" class="node"><title>repository_location2_value</title>
<polygon fill="#b0c4de" stroke="black" points="268,-172.5 136,-172.5 136,-151.5 268,-151.5 268,-172.5"/>
<text text-anchor="middle" x="202" y="-159.5" font-family="Helvetica,sans-Serif" font-size="10.00">repository_location2_value</text>
</g>
<!-- repository_location2_value&#45;&gt;REST_Service -->
<g id="edge6" class="edge"><title>repository_location2_value&#45;&gt;REST_Service</title>
<path fill="none" stroke="black" d="M218.435,-151.415C223.933,-147.874 230.19,-143.844 236.182,-139.984"/>
<polygon fill="black" stroke="black" points="238.141,-142.886 244.653,-134.528 234.351,-137.001 238.141,-142.886"/>
</g>
<!-- entry_name_value -->
<g id="node5" class="node"><title>entry_name_value</title>
<polygon fill="#b0c4de" stroke="black" points="368,-172.5 272,-172.5 272,-151.5 368,-151.5 368,-172.5"/>
<text text-anchor="middle" x="320" y="-159.5" font-family="Helvetica,sans-Serif" font-size="10.00">entry_name_value</text>
</g>
<!-- entry_name_value&#45;&gt;REST_Service -->
<g id="edge8" class="edge"><title>entry_name_value&#45;&gt;REST_Service</title>
<path fill="none" stroke="black" d="M303.565,-151.415C298.067,-147.874 291.81,-143.844 285.818,-139.984"/>
<polygon fill="black" stroke="black" points="287.649,-137.001 277.347,-134.528 283.859,-142.886 287.649,-137.001"/>
</g>
<!-- WORKFLOWINTERNALSOURCECONTROL -->
<g id="node7" class="node"><title>WORKFLOWINTERNALSOURCECONTROL</title>
<polygon fill="#ff4040" stroke="black" points="525,-169 518,-158.5 532,-158.5 525,-169"/>
</g>
<!-- WORKFLOWINTERNALSOURCE_REST_Service_inputBody -->
<g id="node8" class="node"><title>WORKFLOWINTERNALSOURCE_REST_Service_inputBody</title>
<polygon fill="skyblue" stroke="black" points="514,-172.5 384,-172.5 384,-151.5 514,-151.5 514,-172.5"/>
<text text-anchor="middle" x="449" y="-159.5" font-family="Helvetica,sans-Serif" font-size="10.00">REST_Service_inputBody</text>
</g>
<!-- WORKFLOWINTERNALSOURCE_REST_Service_inputBody&#45;&gt;REST_Service -->
<g id="edge10" class="edge"><title>WORKFLOWINTERNALSOURCE_REST_Service_inputBody&#45;&gt;REST_Service</title>
<path fill="none" stroke="black" d="M413.729,-151.481C402.963,-148.489 391.05,-145.396 380,-143 357.948,-138.219 333.356,-134.094 312.278,-130.921"/>
<polygon fill="black" stroke="black" points="312.642,-127.437 302.239,-129.441 311.621,-134.362 312.642,-127.437"/>
</g>
<!-- WORKFLOWINTERNALSINKCONTROL -->
<g id="node10" class="node"><title>WORKFLOWINTERNALSINKCONTROL</title>
<polygon fill="#66cd00" stroke="black" points="588,-20 595,-30.5 581,-30.5 588,-20"/>
</g>
</g>
</svg>
