<?xml version="1.0" encoding="UTF-8" standalone="no"?>
<!DOCTYPE svg PUBLIC "-//W3C//DTD SVG 1.1//EN"
 "http://www.w3.org/Graphics/SVG/1.1/DTD/svg11.dtd">
<!-- Generated by graphviz version 2.26.0 (20091210.2329)
 -->
<!-- Title: t2flow_graph Pages: 1 -->
<svg width="242pt" height="218pt"
 viewBox="0.00 0.00 242.00 218.00" xmlns="http://www.w3.org/2000/svg" xmlns:xlink="http://www.w3.org/1999/xlink">
<g id="graph1" class="graph" transform="scale(1 1) rotate(0) translate(4 214)">
<title>t2flow_graph</title>
<polygon fill="white" stroke="white" points="-4,5 -4,-214 239,-214 239,5 -4,5"/>
<g id="graph2" class="cluster"><title>cluster_sources</title>
<polygon fill="none" stroke="black" stroke-dasharray="1,5" points="94,-143 94,-202 226,-202 226,-143 94,-143"/>
<text text-anchor="middle" x="138" y="-189" font-family="Helvetica,sans-Serif" font-size="10.00">Workflow Inputs</text>
</g>
<g id="graph3" class="cluster"><title>cluster_sinks</title>
<polygon fill="none" stroke="black" stroke-dasharray="1,5" points="39,-8 39,-67 173,-67 173,-8 39,-8"/>
<text text-anchor="middle" x="86.5" y="-54" font-family="Helvetica,sans-Serif" font-size="10.00">Workflow Outputs</text>
</g>
<!-- List_Files_by_Extension -->
<g id="node1" class="node"><title>List_Files_by_Extension</title>
<polygon fill="#d15fee" stroke="black" points="158,-134.5 36,-134.5 36,-113.5 158,-113.5 158,-134.5"/>
<text text-anchor="middle" x="97" y="-121.5" font-family="Helvetica,sans-Serif" font-size="10.00">List_Files_by_Extension</text>
</g>
<!-- binaryFileReader -->
<g id="node3" class="node"><title>binaryFileReader</title>
<polygon fill="#deb887" stroke="black" points="142,-96.5 52,-96.5 52,-75.5 142,-75.5 142,-96.5"/>
<text text-anchor="middle" x="97" y="-83.5" font-family="Helvetica,sans-Serif" font-size="10.00">binaryFileReader</text>
</g>
<!-- List_Files_by_Extension&#45;&gt;binaryFileReader -->
<g id="edge8" class="edge"><title>List_Files_by_Extension&#45;&gt;binaryFileReader</title>
<path fill="none" stroke="black" d="M97,-113.212C97,-111.19 97,-109.013 97,-106.804"/>
<polygon fill="black" stroke="black" points="100.5,-106.683 97,-96.6831 93.5001,-106.683 100.5,-106.683"/>
</g>
<!-- extension_value -->
<g id="node2" class="node"><title>extension_value</title>
<polygon fill="#b0c4de" stroke="black" points="86,-172.5 4.26326e-14,-172.5 0,-151.5 86,-151.5 86,-172.5"/>
<text text-anchor="middle" x="43" y="-159.5" font-family="Helvetica,sans-Serif" font-size="10.00">extension_value</text>
</g>
<!-- extension_value&#45;&gt;List_Files_by_Extension -->
<g id="edge6" class="edge"><title>extension_value&#45;&gt;List_Files_by_Extension</title>
<path fill="none" stroke="black" d="M58.042,-151.415C62.8401,-148.038 68.2697,-144.218 73.5187,-140.524"/>
<polygon fill="black" stroke="black" points="75.8748,-143.146 82.0387,-134.528 71.8463,-137.421 75.8748,-143.146"/>
</g>
<!-- WORKFLOWINTERNALSINK_pdfFileContentsOut -->
<g id="node9" class="node"><title>WORKFLOWINTERNALSINK_pdfFileContentsOut</title>
<polygon fill="#bcd2ee" stroke="black" points="147,-37.5 47,-37.5 47,-16.5 147,-16.5 147,-37.5"/>
<text text-anchor="middle" x="97" y="-24.5" font-family="Helvetica,sans-Serif" font-size="10.00">pdfFileContentsOut</text>
</g>
<!-- binaryFileReader&#45;&gt;WORKFLOWINTERNALSINK_pdfFileContentsOut -->
<g id="edge10" class="edge"><title>binaryFileReader&#45;&gt;WORKFLOWINTERNALSINK_pdfFileContentsOut</title>
<path fill="none" stroke="black" d="M97,-75.452C97,-67.8285 97,-57.2768 97,-47.966"/>
<polygon fill="black" stroke="black" points="100.5,-47.8558 97,-37.8559 93.5001,-47.8559 100.5,-47.8558"/>
</g>
<!-- WORKFLOWINTERNALSOURCECONTROL -->
<g id="node5" class="node"><title>WORKFLOWINTERNALSOURCECONTROL</title>
<polygon fill="#ff4040" stroke="black" points="211,-169 204,-158.5 218,-158.5 211,-169"/>
</g>
<!-- WORKFLOWINTERNALSOURCE_pdfDirectoryPathIn -->
<g id="node6" class="node"><title>WORKFLOWINTERNALSOURCE_pdfDirectoryPathIn</title>
<polygon fill="skyblue" stroke="black" points="200,-172.5 102,-172.5 102,-151.5 200,-151.5 200,-172.5"/>
<text text-anchor="middle" x="151" y="-159.5" font-family="Helvetica,sans-Serif" font-size="10.00">pdfDirectoryPathIn</text>
</g>
<!-- WORKFLOWINTERNALSOURCE_pdfDirectoryPathIn&#45;&gt;List_Files_by_Extension -->
<g id="edge4" class="edge"><title>WORKFLOWINTERNALSOURCE_pdfDirectoryPathIn&#45;&gt;List_Files_by_Extension</title>
<path fill="none" stroke="black" d="M135.958,-151.415C131.16,-148.038 125.73,-144.218 120.481,-140.524"/>
<polygon fill="black" stroke="black" points="122.154,-137.421 111.961,-134.528 118.125,-143.146 122.154,-137.421"/>
</g>
<!-- WORKFLOWINTERNALSINKCONTROL -->
<g id="node8" class="node"><title>WORKFLOWINTERNALSINKCONTROL</title>
<polygon fill="#66cd00" stroke="black" points="158,-20 165,-30.5 151,-30.5 158,-20"/>
</g>
</g>
</svg>
