<?xml version="1.0" encoding="UTF-8" standalone="no"?>
<!DOCTYPE svg PUBLIC "-//W3C//DTD SVG 1.1//EN"
 "http://www.w3.org/Graphics/SVG/1.1/DTD/svg11.dtd">
<!-- Generated by graphviz version 2.26.0 (20091210.2329)
 -->
<!-- Title: t2flow_graph Pages: 1 -->
<svg width="400pt" height="256pt"
 viewBox="0.00 0.00 400.00 256.00" xmlns="http://www.w3.org/2000/svg" xmlns:xlink="http://www.w3.org/1999/xlink">
<g id="graph1" class="graph" transform="scale(1 1) rotate(0) translate(4 252)">
<title>t2flow_graph</title>
<polygon fill="white" stroke="white" points="-4,5 -4,-252 397,-252 397,5 -4,5"/>
<g id="graph2" class="cluster"><title>cluster_sources</title>
<polygon fill="none" stroke="black" stroke-dasharray="1,5" points="218,-181 218,-240 384,-240 384,-181 218,-181"/>
<text text-anchor="middle" x="262" y="-227" font-family="Helvetica,sans-Serif" font-size="10.00">Workflow Inputs</text>
</g>
<g id="graph3" class="cluster"><title>cluster_sinks</title>
<polygon fill="none" stroke="black" stroke-dasharray="1,5" points="126,-8 126,-67 221,-67 221,-8 126,-8"/>
<text text-anchor="middle" x="173.5" y="-54" font-family="Helvetica,sans-Serif" font-size="10.00">Workflow Outputs</text>
</g>
<!-- Merge_String_List_to_a_String -->
<g id="node1" class="node"><title>Merge_String_List_to_a_String</title>
<polygon fill="#d15fee" stroke="black" points="322,-172.5 172,-172.5 172,-151.5 322,-151.5 322,-172.5"/>
<text text-anchor="middle" x="247" y="-159.5" font-family="Helvetica,sans-Serif" font-size="10.00">Merge_String_List_to_a_String</text>
</g>
<!-- Concatenate_two_strings -->
<g id="node2" class="node"><title>Concatenate_two_strings</title>
<polygon fill="#d15fee" stroke="black" points="352,-134.5 224,-134.5 224,-113.5 352,-113.5 352,-134.5"/>
<text text-anchor="middle" x="288" y="-121.5" font-family="Helvetica,sans-Serif" font-size="10.00">Concatenate_two_strings</text>
</g>
<!-- Merge_String_List_to_a_String&#45;&gt;Concatenate_two_strings -->
<g id="edge6" class="edge"><title>Merge_String_List_to_a_String&#45;&gt;Concatenate_two_strings</title>
<path fill="none" stroke="black" d="M258.639,-151.212C261.869,-148.219 265.463,-144.888 268.997,-141.613"/>
<polygon fill="black" stroke="black" points="271.518,-144.048 276.474,-134.683 266.76,-138.914 271.518,-144.048"/>
</g>
<!-- Format_conversion -->
<g id="node3" class="node"><title>Format_conversion</title>
<polygon fill="white" stroke="black" points="214,-96.5 114,-96.5 114,-75.5 214,-75.5 214,-96.5"/>
<text text-anchor="middle" x="164" y="-83.5" font-family="Helvetica,sans-Serif" font-size="10.00">Format_conversion</text>
</g>
<!-- Concatenate_two_strings&#45;&gt;Format_conversion -->
<g id="edge10" class="edge"><title>Concatenate_two_strings&#45;&gt;Format_conversion</title>
<path fill="none" stroke="black" d="M253.459,-113.415C239.485,-109.133 223.179,-104.136 208.344,-99.5893"/>
<polygon fill="black" stroke="black" points="208.942,-96.112 198.356,-96.5284 206.891,-102.805 208.942,-96.112"/>
</g>
<!-- WORKFLOWINTERNALSINK_votable -->
<g id="node12" class="node"><title>WORKFLOWINTERNALSINK_votable</title>
<polygon fill="#bcd2ee" stroke="black" points="188,-37.5 140,-37.5 140,-16.5 188,-16.5 188,-37.5"/>
<text text-anchor="middle" x="164" y="-24.5" font-family="Helvetica,sans-Serif" font-size="10.00">votable</text>
</g>
<!-- Format_conversion&#45;&gt;WORKFLOWINTERNALSINK_votable -->
<g id="edge16" class="edge"><title>Format_conversion&#45;&gt;WORKFLOWINTERNALSINK_votable</title>
<path fill="none" stroke="black" d="M164,-75.452C164,-67.8285 164,-57.2768 164,-47.966"/>
<polygon fill="black" stroke="black" points="167.5,-47.8558 164,-37.8559 160.5,-47.8559 167.5,-47.8558"/>
</g>
<!-- formatTableIn_value -->
<g id="node4" class="node"><title>formatTableIn_value</title>
<polygon fill="#b0c4de" stroke="black" points="104,-134.5 4.26326e-14,-134.5 0,-113.5 104,-113.5 104,-134.5"/>
<text text-anchor="middle" x="52" y="-121.5" font-family="Helvetica,sans-Serif" font-size="10.00">formatTableIn_value</text>
</g>
<!-- formatTableIn_value&#45;&gt;Format_conversion -->
<g id="edge12" class="edge"><title>formatTableIn_value&#45;&gt;Format_conversion</title>
<path fill="none" stroke="black" d="M83.1982,-113.415C95.5772,-109.215 109.982,-104.327 123.173,-99.8521"/>
<polygon fill="black" stroke="black" points="124.624,-103.056 132.969,-96.5284 122.375,-96.427 124.624,-103.056"/>
</g>
<!-- formatTableOut_value -->
<g id="node5" class="node"><title>formatTableOut_value</title>
<polygon fill="#b0c4de" stroke="black" points="220,-134.5 108,-134.5 108,-113.5 220,-113.5 220,-134.5"/>
<text text-anchor="middle" x="164" y="-121.5" font-family="Helvetica,sans-Serif" font-size="10.00">formatTableOut_value</text>
</g>
<!-- formatTableOut_value&#45;&gt;Format_conversion -->
<g id="edge14" class="edge"><title>formatTableOut_value&#45;&gt;Format_conversion</title>
<path fill="none" stroke="black" d="M164,-113.212C164,-111.19 164,-109.013 164,-106.804"/>
<polygon fill="black" stroke="black" points="167.5,-106.683 164,-96.6831 160.5,-106.683 167.5,-106.683"/>
</g>
<!-- WORKFLOWINTERNALSOURCECONTROL -->
<g id="node7" class="node"><title>WORKFLOWINTERNALSOURCECONTROL</title>
<polygon fill="#ff4040" stroke="black" points="369,-207 362,-196.5 376,-196.5 369,-207"/>
</g>
<!-- WORKFLOWINTERNALSOURCE_stringList -->
<g id="node8" class="node"><title>WORKFLOWINTERNALSOURCE_stringList</title>
<polygon fill="skyblue" stroke="black" points="282,-210.5 226,-210.5 226,-189.5 282,-189.5 282,-210.5"/>
<text text-anchor="middle" x="254" y="-197.5" font-family="Helvetica,sans-Serif" font-size="10.00">stringList</text>
</g>
<!-- WORKFLOWINTERNALSOURCE_stringList&#45;&gt;Merge_String_List_to_a_String -->
<g id="edge4" class="edge"><title>WORKFLOWINTERNALSOURCE_stringList&#45;&gt;Merge_String_List_to_a_String</title>
<path fill="none" stroke="black" d="M252.013,-189.212C251.625,-187.109 251.207,-184.839 250.783,-182.538"/>
<polygon fill="black" stroke="black" points="254.222,-181.884 248.968,-172.683 247.338,-183.152 254.222,-181.884"/>
</g>
<!-- WORKFLOWINTERNALSOURCE_headerName -->
<g id="node9" class="node"><title>WORKFLOWINTERNALSOURCE_headerName</title>
<polygon fill="skyblue" stroke="black" points="358,-210.5 286,-210.5 286,-189.5 358,-189.5 358,-210.5"/>
<text text-anchor="middle" x="322" y="-197.5" font-family="Helvetica,sans-Serif" font-size="10.00">headerName</text>
</g>
<!-- WORKFLOWINTERNALSOURCE_headerName&#45;&gt;Concatenate_two_strings -->
<g id="edge8" class="edge"><title>WORKFLOWINTERNALSOURCE_headerName&#45;&gt;Concatenate_two_strings</title>
<path fill="none" stroke="black" d="M324.569,-189.277C326.475,-178.932 327.844,-163.104 322,-151 320.244,-147.362 317.732,-144.064 314.859,-141.123"/>
<polygon fill="black" stroke="black" points="317.068,-138.406 307.197,-134.558 312.513,-143.722 317.068,-138.406"/>
</g>
<!-- WORKFLOWINTERNALSINKCONTROL -->
<g id="node11" class="node"><title>WORKFLOWINTERNALSINKCONTROL</title>
<polygon fill="#66cd00" stroke="black" points="202,-20 209,-30.5 195,-30.5 202,-20"/>
</g>
</g>
</svg>
