<?xml version="1.0" encoding="UTF-8" standalone="no"?>
<!DOCTYPE svg PUBLIC "-//W3C//DTD SVG 1.1//EN"
 "http://www.w3.org/Graphics/SVG/1.1/DTD/svg11.dtd">
<!-- Generated by graphviz version 2.26.0 (20091210.2329)
 -->
<!-- Title: t2flow_graph Pages: 1 -->
<svg width="1156pt" height="176pt"
 viewBox="0.00 0.00 1156.00 176.00" xmlns="http://www.w3.org/2000/svg" xmlns:xlink="http://www.w3.org/1999/xlink">
<g id="graph1" class="graph" transform="scale(1 1) rotate(0) translate(4 172)">
<title>t2flow_graph</title>
<polygon fill="white" stroke="white" points="-4,5 -4,-172 1153,-172 1153,5 -4,5"/>
<g id="graph2" class="cluster"><title>cluster_sources</title>
<polygon fill="none" stroke="black" stroke-dasharray="1,5" points="867,-109 867,-160 955,-160 955,-109 867,-109"/>
<text text-anchor="middle" x="911" y="-147" font-family="Helvetica,sans-Serif" font-size="10.00">Workflow Inputs</text>
</g>
<g id="graph3" class="cluster"><title>cluster_sinks</title>
<polygon fill="none" stroke="black" stroke-dasharray="1,5" points="12,-8 12,-67 1140,-67 1140,-8 12,-8"/>
<text text-anchor="middle" x="59.5" y="-54" font-family="Helvetica,sans-Serif" font-size="10.00">Workflow Outputs</text>
</g>
<!-- ConeSearch -->
<g id="node1" class="node"><title>ConeSearch</title>
<polygon fill="#7aafff" stroke="black" points="134,-96.5 64,-96.5 64,-75.5 134,-75.5 134,-96.5"/>
<text text-anchor="middle" x="99" y="-83.5" font-family="Helvetica,sans-Serif" font-size="10.00">ConeSearch</text>
</g>
<!-- WORKFLOWINTERNALSINK_ConeSearch -->
<g id="node26" class="node"><title>WORKFLOWINTERNALSINK_ConeSearch</title>
<polygon fill="#bcd2ee" stroke="black" points="134,-37.5 64,-37.5 64,-16.5 134,-16.5 134,-37.5"/>
<text text-anchor="middle" x="99" y="-24.5" font-family="Helvetica,sans-Serif" font-size="10.00">ConeSearch</text>
</g>
<!-- ConeSearch&#45;&gt;WORKFLOWINTERNALSINK_ConeSearch -->
<g id="edge40" class="edge"><title>ConeSearch&#45;&gt;WORKFLOWINTERNALSINK_ConeSearch</title>
<path fill="none" stroke="black" d="M99,-75.452C99,-67.8285 99,-57.2768 99,-47.966"/>
<polygon fill="black" stroke="black" points="102.5,-47.8558 99,-37.8559 95.5001,-47.8559 102.5,-47.8558"/>
</g>
<!-- DEC_value -->
<g id="node2" class="node"><title>DEC_value</title>
<polygon fill="#b0c4de" stroke="black" points="66,-134.5 2.84217e-14,-134.5 0,-113.5 66,-113.5 66,-134.5"/>
<text text-anchor="middle" x="33" y="-121.5" font-family="Helvetica,sans-Serif" font-size="10.00">DEC_value</text>
</g>
<!-- DEC_value&#45;&gt;ConeSearch -->
<g id="edge4" class="edge"><title>DEC_value&#45;&gt;ConeSearch</title>
<path fill="none" stroke="black" d="M51.3847,-113.415C57.6782,-109.791 64.8604,-105.656 71.7049,-101.715"/>
<polygon fill="black" stroke="black" points="73.7941,-104.551 80.7139,-96.5284 70.3013,-98.4849 73.7941,-104.551"/>
</g>
<!-- SIAP -->
<g id="node5" class="node"><title>SIAP</title>
<polygon fill="#7aafff" stroke="black" points="60,-96.5 20,-96.5 20,-75.5 60,-75.5 60,-96.5"/>
<text text-anchor="middle" x="40" y="-83.5" font-family="Helvetica,sans-Serif" font-size="10.00">SIAP</text>
</g>
<!-- DEC_value&#45;&gt;SIAP -->
<g id="edge12" class="edge"><title>DEC_value&#45;&gt;SIAP</title>
<path fill="none" stroke="black" d="M34.9872,-113.212C35.3747,-111.109 35.7929,-108.839 36.2166,-106.538"/>
<polygon fill="black" stroke="black" points="39.6624,-107.152 38.0321,-96.6831 32.7783,-105.884 39.6624,-107.152"/>
</g>
<!-- RA_value -->
<g id="node3" class="node"><title>RA_value</title>
<polygon fill="#b0c4de" stroke="black" points="128,-134.5 70,-134.5 70,-113.5 128,-113.5 128,-134.5"/>
<text text-anchor="middle" x="99" y="-121.5" font-family="Helvetica,sans-Serif" font-size="10.00">RA_value</text>
</g>
<!-- RA_value&#45;&gt;ConeSearch -->
<g id="edge6" class="edge"><title>RA_value&#45;&gt;ConeSearch</title>
<path fill="none" stroke="black" d="M99,-113.212C99,-111.19 99,-109.013 99,-106.804"/>
<polygon fill="black" stroke="black" points="102.5,-106.683 99,-96.6831 95.5001,-106.683 102.5,-106.683"/>
</g>
<!-- RA_value&#45;&gt;SIAP -->
<g id="edge10" class="edge"><title>RA_value&#45;&gt;SIAP</title>
<path fill="none" stroke="black" d="M82.5652,-113.415C77.0671,-109.874 70.8102,-105.844 64.8178,-101.984"/>
<polygon fill="black" stroke="black" points="66.649,-99.0007 56.3467,-96.5284 62.8586,-104.886 66.649,-99.0007"/>
</g>
<!-- SR_value -->
<g id="node4" class="node"><title>SR_value</title>
<polygon fill="#b0c4de" stroke="black" points="190,-134.5 132,-134.5 132,-113.5 190,-113.5 190,-134.5"/>
<text text-anchor="middle" x="161" y="-121.5" font-family="Helvetica,sans-Serif" font-size="10.00">SR_value</text>
</g>
<!-- SR_value&#45;&gt;ConeSearch -->
<g id="edge8" class="edge"><title>SR_value&#45;&gt;ConeSearch</title>
<path fill="none" stroke="black" d="M143.73,-113.415C137.952,-109.874 131.377,-105.844 125.08,-101.984"/>
<polygon fill="black" stroke="black" points="126.533,-98.7699 116.178,-96.5284 122.875,-104.738 126.533,-98.7699"/>
</g>
<!-- SR_value&#45;&gt;SIAP -->
<g id="edge14" class="edge"><title>SR_value&#45;&gt;SIAP</title>
<path fill="none" stroke="black" d="M139.637,-113.391C135.823,-111.757 131.841,-110.213 128,-109 103.53,-101.27 93.8218,-104.702 69.9342,-98.5007"/>
<polygon fill="black" stroke="black" points="70.6045,-95.0504 60.0244,-95.609 68.6436,-101.77 70.6045,-95.0504"/>
</g>
<!-- Near_objname -->
<g id="node7" class="node"><title>Near_objname</title>
<polygon fill="#7aafff" stroke="black" points="218,-96.5 138,-96.5 138,-75.5 218,-75.5 218,-96.5"/>
<text text-anchor="middle" x="178" y="-83.5" font-family="Helvetica,sans-Serif" font-size="10.00">Near_objname</text>
</g>
<!-- SR_value&#45;&gt;Near_objname -->
<g id="edge18" class="edge"><title>SR_value&#45;&gt;Near_objname</title>
<path fill="none" stroke="black" d="M165.826,-113.212C166.84,-110.947 167.939,-108.488 169.05,-106.007"/>
<polygon fill="black" stroke="black" points="172.332,-107.241 173.221,-96.6831 165.942,-104.382 172.332,-107.241"/>
</g>
<!-- WORKFLOWINTERNALSINK_SIAP -->
<g id="node27" class="node"><title>WORKFLOWINTERNALSINK_SIAP</title>
<polygon fill="#bcd2ee" stroke="black" points="60,-37.5 20,-37.5 20,-16.5 60,-16.5 60,-37.5"/>
<text text-anchor="middle" x="40" y="-24.5" font-family="Helvetica,sans-Serif" font-size="10.00">SIAP</text>
</g>
<!-- SIAP&#45;&gt;WORKFLOWINTERNALSINK_SIAP -->
<g id="edge42" class="edge"><title>SIAP&#45;&gt;WORKFLOWINTERNALSINK_SIAP</title>
<path fill="none" stroke="black" d="M40,-75.452C40,-67.8285 40,-57.2768 40,-47.966"/>
<polygon fill="black" stroke="black" points="43.5001,-47.8558 40,-37.8559 36.5001,-47.8559 43.5001,-47.8558"/>
</g>
<!-- Name_value -->
<g id="node6" class="node"><title>Name_value</title>
<polygon fill="#b0c4de" stroke="black" points="675,-134.5 605,-134.5 605,-113.5 675,-113.5 675,-134.5"/>
<text text-anchor="middle" x="640" y="-121.5" font-family="Helvetica,sans-Serif" font-size="10.00">Name_value</text>
</g>
<!-- Name_value&#45;&gt;Near_objname -->
<g id="edge16" class="edge"><title>Name_value&#45;&gt;Near_objname</title>
<path fill="none" stroke="black" d="M604.977,-122.553C521.767,-118.989 313.094,-109.281 228.184,-97.8088"/>
<polygon fill="black" stroke="black" points="228.623,-94.3359 218.224,-96.3645 227.618,-101.263 228.623,-94.3359"/>
</g>
<!-- Alias -->
<g id="node10" class="node"><title>Alias</title>
<polygon fill="#7aafff" stroke="black" points="1050,-96.5 1012,-96.5 1012,-75.5 1050,-75.5 1050,-96.5"/>
<text text-anchor="middle" x="1031" y="-83.5" font-family="Helvetica,sans-Serif" font-size="10.00">Alias</text>
</g>
<!-- Name_value&#45;&gt;Alias -->
<g id="edge20" class="edge"><title>Name_value&#45;&gt;Alias</title>
<path fill="none" stroke="black" d="M675.059,-121.6C756.282,-116.02 953.854,-102.323 1001.75,-97.178"/>
<polygon fill="black" stroke="black" points="1002.44,-100.616 1011.87,-95.7851 1001.49,-93.6812 1002.44,-100.616"/>
</g>
<!-- Best_Position -->
<g id="node11" class="node"><title>Best_Position</title>
<polygon fill="#7aafff" stroke="black" points="388,-96.5 312,-96.5 312,-75.5 388,-75.5 388,-96.5"/>
<text text-anchor="middle" x="350" y="-83.5" font-family="Helvetica,sans-Serif" font-size="10.00">Best_Position</text>
</g>
<!-- Name_value&#45;&gt;Best_Position -->
<g id="edge22" class="edge"><title>Name_value&#45;&gt;Best_Position</title>
<path fill="none" stroke="black" d="M604.853,-121.815C558.651,-118.587 474.782,-111.502 398.61,-98.1382"/>
<polygon fill="black" stroke="black" points="398.863,-94.6275 388.401,-96.3 397.623,-101.517 398.863,-94.6275"/>
</g>
<!-- Basic -->
<g id="node12" class="node"><title>Basic</title>
<polygon fill="#7aafff" stroke="black" points="432,-96.5 392,-96.5 392,-75.5 432,-75.5 432,-96.5"/>
<text text-anchor="middle" x="412" y="-83.5" font-family="Helvetica,sans-Serif" font-size="10.00">Basic</text>
</g>
<!-- Name_value&#45;&gt;Basic -->
<g id="edge24" class="edge"><title>Name_value&#45;&gt;Basic</title>
<path fill="none" stroke="black" d="M604.7,-122.516C565.676,-120.188 500.956,-114.293 442.046,-98.5159"/>
<polygon fill="black" stroke="black" points="442.84,-95.1038 432.267,-95.7881 440.959,-101.846 442.84,-95.1038"/>
</g>
<!-- External_Links -->
<g id="node13" class="node"><title>External_Links</title>
<polygon fill="#7aafff" stroke="black" points="516,-96.5 436,-96.5 436,-75.5 516,-75.5 516,-96.5"/>
<text text-anchor="middle" x="476" y="-83.5" font-family="Helvetica,sans-Serif" font-size="10.00">External_Links</text>
</g>
<!-- Name_value&#45;&gt;External_Links -->
<g id="edge26" class="edge"><title>Name_value&#45;&gt;External_Links</title>
<path fill="none" stroke="black" d="M604.769,-116.303C583.261,-111.553 554.951,-105.213 526.078,-98.4261"/>
<polygon fill="black" stroke="black" points="526.811,-95.0029 516.274,-96.109 525.201,-101.815 526.811,-95.0029"/>
</g>
<!-- BasicTables -->
<g id="node14" class="node"><title>BasicTables</title>
<polygon fill="#7aafff" stroke="black" points="590,-96.5 520,-96.5 520,-75.5 590,-75.5 590,-96.5"/>
<text text-anchor="middle" x="555" y="-83.5" font-family="Helvetica,sans-Serif" font-size="10.00">BasicTables</text>
</g>
<!-- Name_value&#45;&gt;BasicTables -->
<g id="edge28" class="edge"><title>Name_value&#45;&gt;BasicTables</title>
<path fill="none" stroke="black" d="M616.323,-113.415C607.481,-109.462 597.276,-104.9 587.761,-100.646"/>
<polygon fill="black" stroke="black" points="589.108,-97.4145 578.55,-96.5284 586.251,-103.805 589.108,-97.4145"/>
</g>
<!-- Multiwl_Positions -->
<g id="node15" class="node"><title>Multiwl_Positions</title>
<polygon fill="#7aafff" stroke="black" points="686,-96.5 594,-96.5 594,-75.5 686,-75.5 686,-96.5"/>
<text text-anchor="middle" x="640" y="-83.5" font-family="Helvetica,sans-Serif" font-size="10.00">Multiwl_Positions</text>
</g>
<!-- Name_value&#45;&gt;Multiwl_Positions -->
<g id="edge30" class="edge"><title>Name_value&#45;&gt;Multiwl_Positions</title>
<path fill="none" stroke="black" d="M640,-113.212C640,-111.19 640,-109.013 640,-106.804"/>
<polygon fill="black" stroke="black" points="643.5,-106.683 640,-96.6831 636.5,-106.683 643.5,-106.683"/>
</g>
<!-- Notes -->
<g id="node16" class="node"><title>Notes</title>
<polygon fill="#7aafff" stroke="black" points="732,-96.5 690,-96.5 690,-75.5 732,-75.5 732,-96.5"/>
<text text-anchor="middle" x="711" y="-83.5" font-family="Helvetica,sans-Serif" font-size="10.00">Notes</text>
</g>
<!-- Name_value&#45;&gt;Notes -->
<g id="edge32" class="edge"><title>Name_value&#45;&gt;Notes</title>
<path fill="none" stroke="black" d="M659.777,-113.415C666.779,-109.668 674.802,-105.374 682.389,-101.313"/>
<polygon fill="black" stroke="black" points="684.164,-104.333 691.329,-96.5284 680.86,-98.1613 684.164,-104.333"/>
</g>
<!-- References -->
<g id="node17" class="node"><title>References</title>
<polygon fill="#7aafff" stroke="black" points="802,-96.5 736,-96.5 736,-75.5 802,-75.5 802,-96.5"/>
<text text-anchor="middle" x="769" y="-83.5" font-family="Helvetica,sans-Serif" font-size="10.00">References</text>
</g>
<!-- Name_value&#45;&gt;References -->
<g id="edge34" class="edge"><title>Name_value&#45;&gt;References</title>
<path fill="none" stroke="black" d="M675.396,-113.644C690.028,-109.356 707.381,-104.261 726.238,-98.6989"/>
<polygon fill="black" stroke="black" points="727.32,-102.029 735.919,-95.841 725.338,-95.3156 727.32,-102.029"/>
</g>
<!-- Multiwl_size -->
<g id="node19" class="node"><title>Multiwl_size</title>
<polygon fill="#7aafff" stroke="black" points="876,-96.5 806,-96.5 806,-75.5 876,-75.5 876,-96.5"/>
<text text-anchor="middle" x="841" y="-83.5" font-family="Helvetica,sans-Serif" font-size="10.00">Multiwl_size</text>
</g>
<!-- Name_value&#45;&gt;Multiwl_size -->
<g id="edge36" class="edge"><title>Name_value&#45;&gt;Multiwl_size</title>
<path fill="none" stroke="black" d="M675.293,-119.258C705.938,-114.89 751.72,-107.77 795.793,-98.3134"/>
<polygon fill="black" stroke="black" points="796.738,-101.689 805.756,-96.1279 795.238,-94.8519 796.738,-101.689"/>
</g>
<!-- Photometry -->
<g id="node20" class="node"><title>Photometry</title>
<polygon fill="#7aafff" stroke="black" points="1008,-96.5 942,-96.5 942,-75.5 1008,-75.5 1008,-96.5"/>
<text text-anchor="middle" x="975" y="-83.5" font-family="Helvetica,sans-Serif" font-size="10.00">Photometry</text>
</g>
<!-- Name_value&#45;&gt;Photometry -->
<g id="edge38" class="edge"><title>Name_value&#45;&gt;Photometry</title>
<path fill="none" stroke="black" d="M675.182,-123.071C729.334,-121.153 836.48,-115.43 931.913,-98.0538"/>
<polygon fill="black" stroke="black" points="932.813,-101.446 941.998,-96.1648 931.525,-94.5658 932.813,-101.446"/>
</g>
<!-- WORKFLOWINTERNALSINK_Near_objname -->
<g id="node28" class="node"><title>WORKFLOWINTERNALSINK_Near_objname</title>
<polygon fill="#bcd2ee" stroke="black" points="218,-37.5 138,-37.5 138,-16.5 218,-16.5 218,-37.5"/>
<text text-anchor="middle" x="178" y="-24.5" font-family="Helvetica,sans-Serif" font-size="10.00">Near_objname</text>
</g>
<!-- Near_objname&#45;&gt;WORKFLOWINTERNALSINK_Near_objname -->
<g id="edge44" class="edge"><title>Near_objname&#45;&gt;WORKFLOWINTERNALSINK_Near_objname</title>
<path fill="none" stroke="black" d="M178,-75.452C178,-67.8285 178,-57.2768 178,-47.966"/>
<polygon fill="black" stroke="black" points="181.5,-47.8558 178,-37.8559 174.5,-47.8559 181.5,-47.8558"/>
</g>
<!-- IAU -->
<g id="node8" class="node"><title>IAU</title>
<polygon fill="#7aafff" stroke="black" points="256,-96.5 222,-96.5 222,-75.5 256,-75.5 256,-96.5"/>
<text text-anchor="middle" x="239" y="-83.5" font-family="Helvetica,sans-Serif" font-size="10.00">IAU</text>
</g>
<!-- WORKFLOWINTERNALSINK_IAU -->
<g id="node29" class="node"><title>WORKFLOWINTERNALSINK_IAU</title>
<polygon fill="#bcd2ee" stroke="black" points="256,-37.5 222,-37.5 222,-16.5 256,-16.5 256,-37.5"/>
<text text-anchor="middle" x="239" y="-24.5" font-family="Helvetica,sans-Serif" font-size="10.00">IAU</text>
</g>
<!-- IAU&#45;&gt;WORKFLOWINTERNALSINK_IAU -->
<g id="edge46" class="edge"><title>IAU&#45;&gt;WORKFLOWINTERNALSINK_IAU</title>
<path fill="none" stroke="black" d="M239,-75.452C239,-67.8285 239,-57.2768 239,-47.966"/>
<polygon fill="black" stroke="black" points="242.5,-47.8558 239,-37.8559 235.5,-47.8559 242.5,-47.8558"/>
</g>
<!-- Journal -->
<g id="node9" class="node"><title>Journal</title>
<polygon fill="#7aafff" stroke="black" points="308,-96.5 260,-96.5 260,-75.5 308,-75.5 308,-96.5"/>
<text text-anchor="middle" x="284" y="-83.5" font-family="Helvetica,sans-Serif" font-size="10.00">Journal</text>
</g>
<!-- WORKFLOWINTERNALSINK_Journal -->
<g id="node30" class="node"><title>WORKFLOWINTERNALSINK_Journal</title>
<polygon fill="#bcd2ee" stroke="black" points="308,-37.5 260,-37.5 260,-16.5 308,-16.5 308,-37.5"/>
<text text-anchor="middle" x="284" y="-24.5" font-family="Helvetica,sans-Serif" font-size="10.00">Journal</text>
</g>
<!-- Journal&#45;&gt;WORKFLOWINTERNALSINK_Journal -->
<g id="edge48" class="edge"><title>Journal&#45;&gt;WORKFLOWINTERNALSINK_Journal</title>
<path fill="none" stroke="black" d="M284,-75.452C284,-67.8285 284,-57.2768 284,-47.966"/>
<polygon fill="black" stroke="black" points="287.5,-47.8558 284,-37.8559 280.5,-47.8559 287.5,-47.8558"/>
</g>
<!-- WORKFLOWINTERNALSINK_Alias -->
<g id="node31" class="node"><title>WORKFLOWINTERNALSINK_Alias</title>
<polygon fill="#bcd2ee" stroke="black" points="1050,-37.5 1012,-37.5 1012,-16.5 1050,-16.5 1050,-37.5"/>
<text text-anchor="middle" x="1031" y="-24.5" font-family="Helvetica,sans-Serif" font-size="10.00">Alias</text>
</g>
<!-- Alias&#45;&gt;WORKFLOWINTERNALSINK_Alias -->
<g id="edge50" class="edge"><title>Alias&#45;&gt;WORKFLOWINTERNALSINK_Alias</title>
<path fill="none" stroke="black" d="M1031,-75.452C1031,-67.8285 1031,-57.2768 1031,-47.966"/>
<polygon fill="black" stroke="black" points="1034.5,-47.8558 1031,-37.8559 1027.5,-47.8559 1034.5,-47.8558"/>
</g>
<!-- WORKFLOWINTERNALSINK_Best_Position -->
<g id="node32" class="node"><title>WORKFLOWINTERNALSINK_Best_Position</title>
<polygon fill="#bcd2ee" stroke="black" points="388,-37.5 312,-37.5 312,-16.5 388,-16.5 388,-37.5"/>
<text text-anchor="middle" x="350" y="-24.5" font-family="Helvetica,sans-Serif" font-size="10.00">Best_Position</text>
</g>
<!-- Best_Position&#45;&gt;WORKFLOWINTERNALSINK_Best_Position -->
<g id="edge52" class="edge"><title>Best_Position&#45;&gt;WORKFLOWINTERNALSINK_Best_Position</title>
<path fill="none" stroke="black" d="M350,-75.452C350,-67.8285 350,-57.2768 350,-47.966"/>
<polygon fill="black" stroke="black" points="353.5,-47.8558 350,-37.8559 346.5,-47.8559 353.5,-47.8558"/>
</g>
<!-- WORKFLOWINTERNALSINK_Basic -->
<g id="node33" class="node"><title>WORKFLOWINTERNALSINK_Basic</title>
<polygon fill="#bcd2ee" stroke="black" points="432,-37.5 392,-37.5 392,-16.5 432,-16.5 432,-37.5"/>
<text text-anchor="middle" x="412" y="-24.5" font-family="Helvetica,sans-Serif" font-size="10.00">Basic</text>
</g>
<!-- Basic&#45;&gt;WORKFLOWINTERNALSINK_Basic -->
<g id="edge54" class="edge"><title>Basic&#45;&gt;WORKFLOWINTERNALSINK_Basic</title>
<path fill="none" stroke="black" d="M412,-75.452C412,-67.8285 412,-57.2768 412,-47.966"/>
<polygon fill="black" stroke="black" points="415.5,-47.8558 412,-37.8559 408.5,-47.8559 415.5,-47.8558"/>
</g>
<!-- WORKFLOWINTERNALSINK_External_Links -->
<g id="node34" class="node"><title>WORKFLOWINTERNALSINK_External_Links</title>
<polygon fill="#bcd2ee" stroke="black" points="516,-37.5 436,-37.5 436,-16.5 516,-16.5 516,-37.5"/>
<text text-anchor="middle" x="476" y="-24.5" font-family="Helvetica,sans-Serif" font-size="10.00">External_Links</text>
</g>
<!-- External_Links&#45;&gt;WORKFLOWINTERNALSINK_External_Links -->
<g id="edge56" class="edge"><title>External_Links&#45;&gt;WORKFLOWINTERNALSINK_External_Links</title>
<path fill="none" stroke="black" d="M476,-75.452C476,-67.8285 476,-57.2768 476,-47.966"/>
<polygon fill="black" stroke="black" points="479.5,-47.8558 476,-37.8559 472.5,-47.8559 479.5,-47.8558"/>
</g>
<!-- WORKFLOWINTERNALSINK_BasicTables -->
<g id="node35" class="node"><title>WORKFLOWINTERNALSINK_BasicTables</title>
<polygon fill="#bcd2ee" stroke="black" points="590,-37.5 520,-37.5 520,-16.5 590,-16.5 590,-37.5"/>
<text text-anchor="middle" x="555" y="-24.5" font-family="Helvetica,sans-Serif" font-size="10.00">BasicTables</text>
</g>
<!-- BasicTables&#45;&gt;WORKFLOWINTERNALSINK_BasicTables -->
<g id="edge58" class="edge"><title>BasicTables&#45;&gt;WORKFLOWINTERNALSINK_BasicTables</title>
<path fill="none" stroke="black" d="M555,-75.452C555,-67.8285 555,-57.2768 555,-47.966"/>
<polygon fill="black" stroke="black" points="558.5,-47.8558 555,-37.8559 551.5,-47.8559 558.5,-47.8558"/>
</g>
<!-- WORKFLOWINTERNALSINK_Multiwl_Positions -->
<g id="node36" class="node"><title>WORKFLOWINTERNALSINK_Multiwl_Positions</title>
<polygon fill="#bcd2ee" stroke="black" points="686,-37.5 594,-37.5 594,-16.5 686,-16.5 686,-37.5"/>
<text text-anchor="middle" x="640" y="-24.5" font-family="Helvetica,sans-Serif" font-size="10.00">Multiwl_Positions</text>
</g>
<!-- Multiwl_Positions&#45;&gt;WORKFLOWINTERNALSINK_Multiwl_Positions -->
<g id="edge60" class="edge"><title>Multiwl_Positions&#45;&gt;WORKFLOWINTERNALSINK_Multiwl_Positions</title>
<path fill="none" stroke="black" d="M640,-75.452C640,-67.8285 640,-57.2768 640,-47.966"/>
<polygon fill="black" stroke="black" points="643.5,-47.8558 640,-37.8559 636.5,-47.8559 643.5,-47.8558"/>
</g>
<!-- WORKFLOWINTERNALSINK_Notes -->
<g id="node37" class="node"><title>WORKFLOWINTERNALSINK_Notes</title>
<polygon fill="#bcd2ee" stroke="black" points="732,-37.5 690,-37.5 690,-16.5 732,-16.5 732,-37.5"/>
<text text-anchor="middle" x="711" y="-24.5" font-family="Helvetica,sans-Serif" font-size="10.00">Notes</text>
</g>
<!-- Notes&#45;&gt;WORKFLOWINTERNALSINK_Notes -->
<g id="edge62" class="edge"><title>Notes&#45;&gt;WORKFLOWINTERNALSINK_Notes</title>
<path fill="none" stroke="black" d="M711,-75.452C711,-67.8285 711,-57.2768 711,-47.966"/>
<polygon fill="black" stroke="black" points="714.5,-47.8558 711,-37.8559 707.5,-47.8559 714.5,-47.8558"/>
</g>
<!-- WORKFLOWINTERNALSINK_References -->
<g id="node38" class="node"><title>WORKFLOWINTERNALSINK_References</title>
<polygon fill="#bcd2ee" stroke="black" points="802,-37.5 736,-37.5 736,-16.5 802,-16.5 802,-37.5"/>
<text text-anchor="middle" x="769" y="-24.5" font-family="Helvetica,sans-Serif" font-size="10.00">References</text>
</g>
<!-- References&#45;&gt;WORKFLOWINTERNALSINK_References -->
<g id="edge64" class="edge"><title>References&#45;&gt;WORKFLOWINTERNALSINK_References</title>
<path fill="none" stroke="black" d="M769,-75.452C769,-67.8285 769,-57.2768 769,-47.966"/>
<polygon fill="black" stroke="black" points="772.5,-47.8558 769,-37.8559 765.5,-47.8559 772.5,-47.8558"/>
</g>
<!-- Multiwl_z -->
<g id="node18" class="node"><title>Multiwl_z</title>
<polygon fill="#7aafff" stroke="black" points="938,-96.5 880,-96.5 880,-75.5 938,-75.5 938,-96.5"/>
<text text-anchor="middle" x="909" y="-83.5" font-family="Helvetica,sans-Serif" font-size="10.00">Multiwl_z</text>
</g>
<!-- WORKFLOWINTERNALSINK_Multiwl_z -->
<g id="node39" class="node"><title>WORKFLOWINTERNALSINK_Multiwl_z</title>
<polygon fill="#bcd2ee" stroke="black" points="938,-37.5 880,-37.5 880,-16.5 938,-16.5 938,-37.5"/>
<text text-anchor="middle" x="909" y="-24.5" font-family="Helvetica,sans-Serif" font-size="10.00">Multiwl_z</text>
</g>
<!-- Multiwl_z&#45;&gt;WORKFLOWINTERNALSINK_Multiwl_z -->
<g id="edge66" class="edge"><title>Multiwl_z&#45;&gt;WORKFLOWINTERNALSINK_Multiwl_z</title>
<path fill="none" stroke="black" d="M909,-75.452C909,-67.8285 909,-57.2768 909,-47.966"/>
<polygon fill="black" stroke="black" points="912.5,-47.8558 909,-37.8559 905.5,-47.8559 912.5,-47.8558"/>
</g>
<!-- WORKFLOWINTERNALSINK_Multiwl_size -->
<g id="node40" class="node"><title>WORKFLOWINTERNALSINK_Multiwl_size</title>
<polygon fill="#bcd2ee" stroke="black" points="876,-37.5 806,-37.5 806,-16.5 876,-16.5 876,-37.5"/>
<text text-anchor="middle" x="841" y="-24.5" font-family="Helvetica,sans-Serif" font-size="10.00">Multiwl_size</text>
</g>
<!-- Multiwl_size&#45;&gt;WORKFLOWINTERNALSINK_Multiwl_size -->
<g id="edge68" class="edge"><title>Multiwl_size&#45;&gt;WORKFLOWINTERNALSINK_Multiwl_size</title>
<path fill="none" stroke="black" d="M841,-75.452C841,-67.8285 841,-57.2768 841,-47.966"/>
<polygon fill="black" stroke="black" points="844.5,-47.8558 841,-37.8559 837.5,-47.8559 844.5,-47.8558"/>
</g>
<!-- WORKFLOWINTERNALSINK_Photometry -->
<g id="node41" class="node"><title>WORKFLOWINTERNALSINK_Photometry</title>
<polygon fill="#bcd2ee" stroke="black" points="1008,-37.5 942,-37.5 942,-16.5 1008,-16.5 1008,-37.5"/>
<text text-anchor="middle" x="975" y="-24.5" font-family="Helvetica,sans-Serif" font-size="10.00">Photometry</text>
</g>
<!-- Photometry&#45;&gt;WORKFLOWINTERNALSINK_Photometry -->
<g id="edge70" class="edge"><title>Photometry&#45;&gt;WORKFLOWINTERNALSINK_Photometry</title>
<path fill="none" stroke="black" d="M975,-75.452C975,-67.8285 975,-57.2768 975,-47.966"/>
<polygon fill="black" stroke="black" points="978.5,-47.8558 975,-37.8559 971.5,-47.8559 978.5,-47.8558"/>
</g>
<!-- Advanced -->
<g id="node21" class="node"><title>Advanced</title>
<polygon fill="#7aafff" stroke="black" points="1114,-96.5 1054,-96.5 1054,-75.5 1114,-75.5 1114,-96.5"/>
<text text-anchor="middle" x="1084" y="-83.5" font-family="Helvetica,sans-Serif" font-size="10.00">Advanced</text>
</g>
<!-- WORKFLOWINTERNALSINK_Advanced -->
<g id="node42" class="node"><title>WORKFLOWINTERNALSINK_Advanced</title>
<polygon fill="#bcd2ee" stroke="black" points="1114,-37.5 1054,-37.5 1054,-16.5 1114,-16.5 1114,-37.5"/>
<text text-anchor="middle" x="1084" y="-24.5" font-family="Helvetica,sans-Serif" font-size="10.00">Advanced</text>
</g>
<!-- Advanced&#45;&gt;WORKFLOWINTERNALSINK_Advanced -->
<g id="edge72" class="edge"><title>Advanced&#45;&gt;WORKFLOWINTERNALSINK_Advanced</title>
<path fill="none" stroke="black" d="M1084,-75.452C1084,-67.8285 1084,-57.2768 1084,-47.966"/>
<polygon fill="black" stroke="black" points="1087.5,-47.8558 1084,-37.8559 1080.5,-47.8559 1087.5,-47.8558"/>
</g>
<!-- WORKFLOWINTERNALSOURCECONTROL -->
<g id="node23" class="node"><title>WORKFLOWINTERNALSOURCECONTROL</title>
<polygon fill="#ff4040" stroke="black" points="911,-131 904,-120.5 918,-120.5 911,-131"/>
</g>
<!-- WORKFLOWINTERNALSINKCONTROL -->
<g id="node25" class="node"><title>WORKFLOWINTERNALSINKCONTROL</title>
<polygon fill="#66cd00" stroke="black" points="1125,-20 1132,-30.5 1118,-30.5 1125,-20"/>
</g>
</g>
</svg>
