<?xml version="1.0" encoding="UTF-8" standalone="no"?>
<!DOCTYPE svg PUBLIC "-//W3C//DTD SVG 1.1//EN"
 "http://www.w3.org/Graphics/SVG/1.1/DTD/svg11.dtd">
<!-- Generated by graphviz version 2.26.0 (20091210.2329)
 -->
<!-- Title: t2flow_graph Pages: 1 -->
<svg width="503pt" height="408pt"
 viewBox="0.00 0.00 503.00 408.00" xmlns="http://www.w3.org/2000/svg" xmlns:xlink="http://www.w3.org/1999/xlink">
<g id="graph1" class="graph" transform="scale(1 1) rotate(0) translate(4 404)">
<title>t2flow_graph</title>
<polygon fill="white" stroke="white" points="-4,5 -4,-404 500,-404 500,5 -4,5"/>
<g id="graph2" class="cluster"><title>cluster_sources</title>
<polygon fill="none" stroke="black" stroke-dasharray="1,5" points="193,-333 193,-392 413,-392 413,-333 193,-333"/>
<text text-anchor="middle" x="237" y="-379" font-family="Helvetica,sans-Serif" font-size="10.00">Workflow Inputs</text>
</g>
<g id="graph3" class="cluster"><title>cluster_sinks</title>
<polygon fill="none" stroke="black" stroke-dasharray="1,5" points="183,-8 183,-67 487,-67 487,-8 183,-8"/>
<text text-anchor="middle" x="230.5" y="-54" font-family="Helvetica,sans-Serif" font-size="10.00">Workflow Outputs</text>
</g>
<!-- List_from_column_2 -->
<g id="node1" class="node"><title>List_from_column_2</title>
<polygon fill="white" stroke="black" points="320,-324.5 216,-324.5 216,-303.5 320,-303.5 320,-324.5"/>
<text text-anchor="middle" x="268" y="-311.5" font-family="Helvetica,sans-Serif" font-size="10.00">List_from_column_2</text>
</g>
<!-- DetectFile -->
<g id="node8" class="node"><title>DetectFile</title>
<polygon fill="#deb887" stroke="black" points="100,-286.5 38,-286.5 38,-265.5 100,-265.5 100,-286.5"/>
<text text-anchor="middle" x="69" y="-273.5" font-family="Helvetica,sans-Serif" font-size="10.00">DetectFile</text>
</g>
<!-- List_from_column_2&#45;&gt;DetectFile -->
<g id="edge24" class="edge"><title>List_from_column_2&#45;&gt;DetectFile</title>
<path fill="none" stroke="black" d="M215.922,-307.345C186.157,-303.107 147.949,-296.943 110.305,-288.403"/>
<polygon fill="black" stroke="black" points="110.766,-284.917 100.233,-286.056 109.178,-291.734 110.766,-284.917"/>
</g>
<!-- Concatenate_two_strings_2 -->
<g id="node2" class="node"><title>Concatenate_two_strings_2</title>
<polygon fill="#d15fee" stroke="black" points="138,-248.5 7.10543e-14,-248.5 0,-227.5 138,-227.5 138,-248.5"/>
<text text-anchor="middle" x="69" y="-235.5" font-family="Helvetica,sans-Serif" font-size="10.00">Concatenate_two_strings_2</text>
</g>
<!-- Format_conversion -->
<g id="node3" class="node"><title>Format_conversion</title>
<polygon fill="white" stroke="black" points="277,-210.5 177,-210.5 177,-189.5 277,-189.5 277,-210.5"/>
<text text-anchor="middle" x="227" y="-197.5" font-family="Helvetica,sans-Serif" font-size="10.00">Format_conversion</text>
</g>
<!-- Concatenate_two_strings_2&#45;&gt;Format_conversion -->
<g id="edge12" class="edge"><title>Concatenate_two_strings_2&#45;&gt;Format_conversion</title>
<path fill="none" stroke="black" d="M113.012,-227.415C131.759,-222.906 153.8,-217.605 173.479,-212.872"/>
<polygon fill="black" stroke="black" points="174.32,-216.27 183.224,-210.528 172.683,-209.464 174.32,-216.27"/>
</g>
<!-- Cat_n&#45;tables -->
<g id="node6" class="node"><title>Cat_n&#45;tables</title>
<polygon fill="white" stroke="black" points="296,-172.5 224,-172.5 224,-151.5 296,-151.5 296,-172.5"/>
<text text-anchor="middle" x="260" y="-159.5" font-family="Helvetica,sans-Serif" font-size="10.00">Cat_n&#45;tables</text>
</g>
<!-- Format_conversion&#45;&gt;Cat_n&#45;tables -->
<g id="edge18" class="edge"><title>Format_conversion&#45;&gt;Cat_n&#45;tables</title>
<path fill="none" stroke="black" d="M236.368,-189.212C238.757,-186.461 241.393,-183.426 244.012,-180.41"/>
<polygon fill="black" stroke="black" points="246.808,-182.528 250.723,-172.683 241.523,-177.939 246.808,-182.528"/>
</g>
<!-- formatTableIn_value -->
<g id="node4" class="node"><title>formatTableIn_value</title>
<polygon fill="#b0c4de" stroke="black" points="246,-248.5 142,-248.5 142,-227.5 246,-227.5 246,-248.5"/>
<text text-anchor="middle" x="194" y="-235.5" font-family="Helvetica,sans-Serif" font-size="10.00">formatTableIn_value</text>
</g>
<!-- formatTableIn_value&#45;&gt;Format_conversion -->
<g id="edge14" class="edge"><title>formatTableIn_value&#45;&gt;Format_conversion</title>
<path fill="none" stroke="black" d="M203.368,-227.212C205.757,-224.461 208.393,-221.426 211.012,-218.41"/>
<polygon fill="black" stroke="black" points="213.808,-220.528 217.723,-210.683 208.523,-215.939 213.808,-220.528"/>
</g>
<!-- formatTableOut_value -->
<g id="node5" class="node"><title>formatTableOut_value</title>
<polygon fill="#b0c4de" stroke="black" points="362,-248.5 250,-248.5 250,-227.5 362,-227.5 362,-248.5"/>
<text text-anchor="middle" x="306" y="-235.5" font-family="Helvetica,sans-Serif" font-size="10.00">formatTableOut_value</text>
</g>
<!-- formatTableOut_value&#45;&gt;Format_conversion -->
<g id="edge16" class="edge"><title>formatTableOut_value&#45;&gt;Format_conversion</title>
<path fill="none" stroke="black" d="M283.994,-227.415C275.947,-223.544 266.687,-219.09 258.002,-214.912"/>
<polygon fill="black" stroke="black" points="259.417,-211.709 248.888,-210.528 256.382,-218.017 259.417,-211.709"/>
</g>
<!-- tjoin -->
<g id="node7" class="node"><title>tjoin</title>
<polygon fill="white" stroke="black" points="375,-134.5 341,-134.5 341,-113.5 375,-113.5 375,-134.5"/>
<text text-anchor="middle" x="358" y="-121.5" font-family="Helvetica,sans-Serif" font-size="10.00">tjoin</text>
</g>
<!-- Cat_n&#45;tables&#45;&gt;tjoin -->
<g id="edge22" class="edge"><title>Cat_n&#45;tables&#45;&gt;tjoin</title>
<path fill="none" stroke="black" d="M289.636,-151.498C300.985,-147.376 314.186,-142.463 331.44,-135.528"/>
<polygon fill="black" stroke="black" points="332.894,-138.715 340.844,-131.711 330.262,-132.229 332.894,-138.715"/>
</g>
<!-- Select_Rows -->
<g id="node9" class="node"><title>Select_Rows</title>
<polygon fill="white" stroke="black" points="310,-96.5 236,-96.5 236,-75.5 310,-75.5 310,-96.5"/>
<text text-anchor="middle" x="273" y="-83.5" font-family="Helvetica,sans-Serif" font-size="10.00">Select_Rows</text>
</g>
<!-- tjoin&#45;&gt;Select_Rows -->
<g id="edge26" class="edge"><title>tjoin&#45;&gt;Select_Rows</title>
<path fill="none" stroke="black" d="M340.799,-116.31C330.77,-111.827 317.787,-106.022 305.869,-100.694"/>
<polygon fill="black" stroke="black" points="307.175,-97.4444 296.617,-96.5583 304.318,-103.835 307.175,-97.4444"/>
</g>
<!-- WORKFLOWINTERNALSINK_VotableWithnewColumns -->
<g id="node18" class="node"><title>WORKFLOWINTERNALSINK_VotableWithnewColumns</title>
<polygon fill="#bcd2ee" stroke="black" points="461,-37.5 335,-37.5 335,-16.5 461,-16.5 461,-37.5"/>
<text text-anchor="middle" x="398" y="-24.5" font-family="Helvetica,sans-Serif" font-size="10.00">VotableWithnewColumns</text>
</g>
<!-- tjoin&#45;&gt;WORKFLOWINTERNALSINK_VotableWithnewColumns -->
<g id="edge30" class="edge"><title>tjoin&#45;&gt;WORKFLOWINTERNALSINK_VotableWithnewColumns</title>
<path fill="none" stroke="black" d="M362.434,-113.249C369.016,-97.287 381.485,-67.0496 389.77,-46.9574"/>
<polygon fill="black" stroke="black" points="393.092,-48.0838 393.668,-37.5046 386.62,-45.4151 393.092,-48.0838"/>
</g>
<!-- DetectFile&#45;&gt;Concatenate_two_strings_2 -->
<g id="edge8" class="edge"><title>DetectFile&#45;&gt;Concatenate_two_strings_2</title>
<path fill="none" stroke="black" d="M69,-265.212C69,-263.19 69,-261.013 69,-258.804"/>
<polygon fill="black" stroke="black" points="72.5001,-258.683 69,-248.683 65.5001,-258.683 72.5001,-258.683"/>
</g>
<!-- WORKFLOWINTERNALSINK_votable_rows_without_errors -->
<g id="node19" class="node"><title>WORKFLOWINTERNALSINK_votable_rows_without_errors</title>
<polygon fill="#bcd2ee" stroke="black" points="331,-37.5 191,-37.5 191,-16.5 331,-16.5 331,-37.5"/>
<text text-anchor="middle" x="261" y="-24.5" font-family="Helvetica,sans-Serif" font-size="10.00">votable_rows_without_errors</text>
</g>
<!-- Select_Rows&#45;&gt;WORKFLOWINTERNALSINK_votable_rows_without_errors -->
<g id="edge32" class="edge"><title>Select_Rows&#45;&gt;WORKFLOWINTERNALSINK_votable_rows_without_errors</title>
<path fill="none" stroke="black" d="M270.855,-75.452C269.287,-67.7457 267.111,-57.047 265.203,-47.6629"/>
<polygon fill="black" stroke="black" points="268.631,-46.9576 263.208,-37.8559 261.771,-48.3528 268.631,-46.9576"/>
</g>
<!-- validellipse_expression -->
<g id="node10" class="node"><title>validellipse_expression</title>
<polygon fill="#b0c4de" stroke="black" points="331,-134.5 215,-134.5 215,-113.5 331,-113.5 331,-134.5"/>
<text text-anchor="middle" x="273" y="-121.5" font-family="Helvetica,sans-Serif" font-size="10.00">validellipse_expression</text>
</g>
<!-- validellipse_expression&#45;&gt;Select_Rows -->
<g id="edge28" class="edge"><title>validellipse_expression&#45;&gt;Select_Rows</title>
<path fill="none" stroke="black" d="M273,-113.212C273,-111.19 273,-109.013 273,-106.804"/>
<polygon fill="black" stroke="black" points="276.5,-106.683 273,-96.6831 269.5,-106.683 276.5,-106.683"/>
</g>
<!-- validellipse_name -->
<g id="node11" class="node"><title>validellipse_name</title>
<polygon fill="#b0c4de" stroke="black" points="198,-286.5 104,-286.5 104,-265.5 198,-265.5 198,-286.5"/>
<text text-anchor="middle" x="151" y="-273.5" font-family="Helvetica,sans-Serif" font-size="10.00">validellipse_name</text>
</g>
<!-- validellipse_name&#45;&gt;Concatenate_two_strings_2 -->
<g id="edge10" class="edge"><title>validellipse_name&#45;&gt;Concatenate_two_strings_2</title>
<path fill="none" stroke="black" d="M128.158,-265.415C119.717,-261.503 109.989,-256.995 100.891,-252.779"/>
<polygon fill="black" stroke="black" points="102.264,-249.557 91.7191,-248.528 99.3206,-255.909 102.264,-249.557"/>
</g>
<!-- WORKFLOWINTERNALSOURCECONTROL -->
<g id="node13" class="node"><title>WORKFLOWINTERNALSOURCECONTROL</title>
<polygon fill="#ff4040" stroke="black" points="398,-359 391,-348.5 405,-348.5 398,-359"/>
</g>
<!-- WORKFLOWINTERNALSOURCE_votable -->
<g id="node14" class="node"><title>WORKFLOWINTERNALSOURCE_votable</title>
<polygon fill="skyblue" stroke="black" points="387,-362.5 339,-362.5 339,-341.5 387,-341.5 387,-362.5"/>
<text text-anchor="middle" x="363" y="-349.5" font-family="Helvetica,sans-Serif" font-size="10.00">votable</text>
</g>
<!-- WORKFLOWINTERNALSOURCE_votable&#45;&gt;List_from_column_2 -->
<g id="edge4" class="edge"><title>WORKFLOWINTERNALSOURCE_votable&#45;&gt;List_from_column_2</title>
<path fill="none" stroke="black" d="M349.28,-341.41C344.892,-338.38 339.898,-335.284 335,-333 330.945,-331.11 326.663,-329.369 322.304,-327.774"/>
<polygon fill="black" stroke="black" points="323.291,-324.413 312.696,-324.514 321.041,-331.041 323.291,-324.413"/>
</g>
<!-- WORKFLOWINTERNALSOURCE_votable&#45;&gt;tjoin -->
<g id="edge20" class="edge"><title>WORKFLOWINTERNALSOURCE_votable&#45;&gt;tjoin</title>
<path fill="none" stroke="black" d="M364.392,-341.198C366.164,-326.481 369,-299.294 369,-276 369,-276 369,-276 369,-200 369,-181.119 365.633,-159.868 362.625,-144.649"/>
<polygon fill="black" stroke="black" points="366.028,-143.822 360.551,-134.753 359.177,-145.258 366.028,-143.822"/>
</g>
<!-- WORKFLOWINTERNALSOURCE_ColumnNameWithDataFile -->
<g id="node15" class="node"><title>WORKFLOWINTERNALSOURCE_ColumnNameWithDataFile</title>
<polygon fill="skyblue" stroke="black" points="335,-362.5 201,-362.5 201,-341.5 335,-341.5 335,-362.5"/>
<text text-anchor="middle" x="268" y="-349.5" font-family="Helvetica,sans-Serif" font-size="10.00">ColumnNameWithDataFile</text>
</g>
<!-- WORKFLOWINTERNALSOURCE_ColumnNameWithDataFile&#45;&gt;List_from_column_2 -->
<g id="edge6" class="edge"><title>WORKFLOWINTERNALSOURCE_ColumnNameWithDataFile&#45;&gt;List_from_column_2</title>
<path fill="none" stroke="black" d="M268,-341.212C268,-339.19 268,-337.013 268,-334.804"/>
<polygon fill="black" stroke="black" points="271.5,-334.683 268,-324.683 264.5,-334.683 271.5,-334.683"/>
</g>
<!-- WORKFLOWINTERNALSINKCONTROL -->
<g id="node17" class="node"><title>WORKFLOWINTERNALSINKCONTROL</title>
<polygon fill="#66cd00" stroke="black" points="472,-20 479,-30.5 465,-30.5 472,-20"/>
</g>
</g>
</svg>
