<?xml version="1.0" encoding="UTF-8" standalone="no"?>
<!DOCTYPE svg PUBLIC "-//W3C//DTD SVG 1.1//EN"
 "http://www.w3.org/Graphics/SVG/1.1/DTD/svg11.dtd">
<!-- Generated by graphviz version 2.26.0 (20091210.2329)
 -->
<!-- Title: t2flow_graph Pages: 1 -->
<svg width="292pt" height="332pt"
 viewBox="0.00 0.00 292.00 332.00" xmlns="http://www.w3.org/2000/svg" xmlns:xlink="http://www.w3.org/1999/xlink">
<g id="graph1" class="graph" transform="scale(1 1) rotate(0) translate(4 328)">
<title>t2flow_graph</title>
<polygon fill="white" stroke="white" points="-4,5 -4,-328 289,-328 289,5 -4,5"/>
<g id="graph2" class="cluster"><title>cluster_sources</title>
<polygon fill="none" stroke="black" stroke-dasharray="1,5" points="76,-257 76,-316 164,-316 164,-257 76,-257"/>
<text text-anchor="middle" x="120" y="-303" font-family="Helvetica,sans-Serif" font-size="10.00">Workflow Inputs</text>
</g>
<g id="graph3" class="cluster"><title>cluster_sinks</title>
<polygon fill="none" stroke="black" stroke-dasharray="1,5" points="37,-8 37,-67 147,-67 147,-8 37,-8"/>
<text text-anchor="middle" x="84.5" y="-54" font-family="Helvetica,sans-Serif" font-size="10.00">Workflow Outputs</text>
</g>
<!-- SDSS_DR8 -->
<g id="node1" class="node"><title>SDSS_DR8</title>
<polygon fill="#7aafff" stroke="black" points="173,-210.5 103,-210.5 103,-189.5 173,-189.5 173,-210.5"/>
<text text-anchor="middle" x="138" y="-197.5" font-family="Helvetica,sans-Serif" font-size="10.00">SDSS_DR8</text>
</g>
<!-- Select_columns -->
<g id="node7" class="node"><title>Select_columns</title>
<polygon fill="white" stroke="black" points="126,-172.5 40,-172.5 40,-151.5 126,-151.5 126,-172.5"/>
<text text-anchor="middle" x="83" y="-159.5" font-family="Helvetica,sans-Serif" font-size="10.00">Select_columns</text>
</g>
<!-- SDSS_DR8&#45;&gt;Select_columns -->
<g id="edge20" class="edge"><title>SDSS_DR8&#45;&gt;Select_columns</title>
<path fill="none" stroke="black" d="M122.679,-189.415C117.673,-185.956 111.992,-182.031 106.525,-178.254"/>
<polygon fill="black" stroke="black" points="108.455,-175.333 98.2384,-172.528 104.476,-181.092 108.455,-175.333"/>
</g>
<!-- RA_list -->
<g id="node2" class="node"><title>RA_list</title>
<polygon fill="white" stroke="black" points="106,-248.5 58,-248.5 58,-227.5 106,-227.5 106,-248.5"/>
<text text-anchor="middle" x="82" y="-235.5" font-family="Helvetica,sans-Serif" font-size="10.00">RA_list</text>
</g>
<!-- RA_list&#45;&gt;SDSS_DR8 -->
<g id="edge4" class="edge"><title>RA_list&#45;&gt;SDSS_DR8</title>
<path fill="none" stroke="black" d="M97.5991,-227.415C102.696,-223.956 108.481,-220.031 114.047,-216.254"/>
<polygon fill="black" stroke="black" points="116.175,-219.04 122.485,-210.528 112.244,-213.247 116.175,-219.04"/>
</g>
<!-- column_RA -->
<g id="node3" class="node"><title>column_RA</title>
<polygon fill="#b0c4de" stroke="black" points="68,-286.5 3.55271e-14,-286.5 0,-265.5 68,-265.5 68,-286.5"/>
<text text-anchor="middle" x="34" y="-273.5" font-family="Helvetica,sans-Serif" font-size="10.00">column_RA</text>
</g>
<!-- column_RA&#45;&gt;RA_list -->
<g id="edge12" class="edge"><title>column_RA&#45;&gt;RA_list</title>
<path fill="none" stroke="black" d="M47.3707,-265.415C51.5317,-262.121 56.2268,-258.404 60.786,-254.794"/>
<polygon fill="black" stroke="black" points="63.033,-257.48 68.701,-248.528 58.6881,-251.991 63.033,-257.48"/>
</g>
<!-- DEC_list -->
<g id="node4" class="node"><title>DEC_list</title>
<polygon fill="white" stroke="black" points="166,-248.5 110,-248.5 110,-227.5 166,-227.5 166,-248.5"/>
<text text-anchor="middle" x="138" y="-235.5" font-family="Helvetica,sans-Serif" font-size="10.00">DEC_list</text>
</g>
<!-- DEC_list&#45;&gt;SDSS_DR8 -->
<g id="edge6" class="edge"><title>DEC_list&#45;&gt;SDSS_DR8</title>
<path fill="none" stroke="black" d="M138,-227.212C138,-225.19 138,-223.013 138,-220.804"/>
<polygon fill="black" stroke="black" points="141.5,-220.683 138,-210.683 134.5,-220.683 141.5,-220.683"/>
</g>
<!-- column_DEC -->
<g id="node5" class="node"><title>column_DEC</title>
<polygon fill="#b0c4de" stroke="black" points="246,-286.5 172,-286.5 172,-265.5 246,-265.5 246,-286.5"/>
<text text-anchor="middle" x="209" y="-273.5" font-family="Helvetica,sans-Serif" font-size="10.00">column_DEC</text>
</g>
<!-- column_DEC&#45;&gt;DEC_list -->
<g id="edge16" class="edge"><title>column_DEC&#45;&gt;DEC_list</title>
<path fill="none" stroke="black" d="M189.223,-265.415C182.221,-261.668 174.198,-257.374 166.611,-253.313"/>
<polygon fill="black" stroke="black" points="168.14,-250.161 157.671,-248.528 164.836,-256.333 168.14,-250.161"/>
</g>
<!-- SR_value -->
<g id="node6" class="node"><title>SR_value</title>
<polygon fill="#b0c4de" stroke="black" points="228,-248.5 170,-248.5 170,-227.5 228,-227.5 228,-248.5"/>
<text text-anchor="middle" x="199" y="-235.5" font-family="Helvetica,sans-Serif" font-size="10.00">SR_value</text>
</g>
<!-- SR_value&#45;&gt;SDSS_DR8 -->
<g id="edge8" class="edge"><title>SR_value&#45;&gt;SDSS_DR8</title>
<path fill="none" stroke="black" d="M182.008,-227.415C176.324,-223.874 169.855,-219.844 163.659,-215.984"/>
<polygon fill="black" stroke="black" points="165.239,-212.845 154.901,-210.528 161.538,-218.787 165.239,-212.845"/>
</g>
<!-- select_row_with_min_r -->
<g id="node9" class="node"><title>select_row_with_min_r</title>
<polygon fill="#deb887" stroke="black" points="141,-134.5 25,-134.5 25,-113.5 141,-113.5 141,-134.5"/>
<text text-anchor="middle" x="83" y="-121.5" font-family="Helvetica,sans-Serif" font-size="10.00">select_row_with_min_r</text>
</g>
<!-- Select_columns&#45;&gt;select_row_with_min_r -->
<g id="edge22" class="edge"><title>Select_columns&#45;&gt;select_row_with_min_r</title>
<path fill="none" stroke="black" d="M83,-151.212C83,-149.19 83,-147.013 83,-144.804"/>
<polygon fill="black" stroke="black" points="86.5001,-144.683 83,-134.683 79.5001,-144.683 86.5001,-144.683"/>
</g>
<!-- filter_value -->
<g id="node8" class="node"><title>filter_value</title>
<polygon fill="#b0c4de" stroke="black" points="99,-210.5 35,-210.5 35,-189.5 99,-189.5 99,-210.5"/>
<text text-anchor="middle" x="67" y="-197.5" font-family="Helvetica,sans-Serif" font-size="10.00">filter_value</text>
</g>
<!-- filter_value&#45;&gt;Select_columns -->
<g id="edge18" class="edge"><title>filter_value&#45;&gt;Select_columns</title>
<path fill="none" stroke="black" d="M71.5422,-189.212C72.4961,-186.947 73.5312,-184.488 74.576,-182.007"/>
<polygon fill="black" stroke="black" points="77.847,-183.258 78.5019,-172.683 71.3955,-180.541 77.847,-183.258"/>
</g>
<!-- Cat_n&#45;tables -->
<g id="node10" class="node"><title>Cat_n&#45;tables</title>
<polygon fill="white" stroke="black" points="119,-96.5 47,-96.5 47,-75.5 119,-75.5 119,-96.5"/>
<text text-anchor="middle" x="83" y="-83.5" font-family="Helvetica,sans-Serif" font-size="10.00">Cat_n&#45;tables</text>
</g>
<!-- select_row_with_min_r&#45;&gt;Cat_n&#45;tables -->
<g id="edge24" class="edge"><title>select_row_with_min_r&#45;&gt;Cat_n&#45;tables</title>
<path fill="none" stroke="black" d="M83,-113.212C83,-111.19 83,-109.013 83,-106.804"/>
<polygon fill="black" stroke="black" points="86.5001,-106.683 83,-96.6831 79.5001,-106.683 86.5001,-106.683"/>
</g>
<!-- WORKFLOWINTERNALSINK_min_r_votable -->
<g id="node17" class="node"><title>WORKFLOWINTERNALSINK_min_r_votable</title>
<polygon fill="#bcd2ee" stroke="black" points="121,-37.5 45,-37.5 45,-16.5 121,-16.5 121,-37.5"/>
<text text-anchor="middle" x="83" y="-24.5" font-family="Helvetica,sans-Serif" font-size="10.00">min_r_votable</text>
</g>
<!-- Cat_n&#45;tables&#45;&gt;WORKFLOWINTERNALSINK_min_r_votable -->
<g id="edge26" class="edge"><title>Cat_n&#45;tables&#45;&gt;WORKFLOWINTERNALSINK_min_r_votable</title>
<path fill="none" stroke="black" d="M83,-75.452C83,-67.8285 83,-57.2768 83,-47.966"/>
<polygon fill="black" stroke="black" points="86.5001,-47.8558 83,-37.8559 79.5001,-47.8559 86.5001,-47.8558"/>
</g>
<!-- tjoin -->
<g id="node11" class="node"><title>tjoin</title>
<polygon fill="white" stroke="black" points="284,-286.5 250,-286.5 250,-265.5 284,-265.5 284,-286.5"/>
<text text-anchor="middle" x="267" y="-273.5" font-family="Helvetica,sans-Serif" font-size="10.00">tjoin</text>
</g>
<!-- WORKFLOWINTERNALSOURCECONTROL -->
<g id="node13" class="node"><title>WORKFLOWINTERNALSOURCECONTROL</title>
<polygon fill="#ff4040" stroke="black" points="148,-283 141,-272.5 155,-272.5 148,-283"/>
</g>
<!-- WORKFLOWINTERNALSOURCE_votable -->
<g id="node14" class="node"><title>WORKFLOWINTERNALSOURCE_votable</title>
<polygon fill="skyblue" stroke="black" points="134,-286.5 86,-286.5 86,-265.5 134,-265.5 134,-286.5"/>
<text text-anchor="middle" x="110" y="-273.5" font-family="Helvetica,sans-Serif" font-size="10.00">votable</text>
</g>
<!-- WORKFLOWINTERNALSOURCE_votable&#45;&gt;RA_list -->
<g id="edge10" class="edge"><title>WORKFLOWINTERNALSOURCE_votable&#45;&gt;RA_list</title>
<path fill="none" stroke="black" d="M102.051,-265.212C100.143,-262.623 98.0499,-259.782 95.9577,-256.943"/>
<polygon fill="black" stroke="black" points="98.6215,-254.657 89.8717,-248.683 92.9861,-258.81 98.6215,-254.657"/>
</g>
<!-- WORKFLOWINTERNALSOURCE_votable&#45;&gt;DEC_list -->
<g id="edge14" class="edge"><title>WORKFLOWINTERNALSOURCE_votable&#45;&gt;DEC_list</title>
<path fill="none" stroke="black" d="M117.949,-265.212C119.857,-262.623 121.95,-259.782 124.042,-256.943"/>
<polygon fill="black" stroke="black" points="127.014,-258.81 130.128,-248.683 121.379,-254.657 127.014,-258.81"/>
</g>
<!-- WORKFLOWINTERNALSINKCONTROL -->
<g id="node16" class="node"><title>WORKFLOWINTERNALSINKCONTROL</title>
<polygon fill="#66cd00" stroke="black" points="132,-20 139,-30.5 125,-30.5 132,-20"/>
</g>
</g>
</svg>
