<?xml version="1.0" encoding="UTF-8" standalone="no"?>
<!DOCTYPE svg PUBLIC "-//W3C//DTD SVG 1.1//EN"
 "http://www.w3.org/Graphics/SVG/1.1/DTD/svg11.dtd">
<!-- Generated by graphviz version 2.26.0 (20091210.2329)
 -->
<!-- Title: t2flow_graph Pages: 1 -->
<svg width="434pt" height="408pt"
 viewBox="0.00 0.00 434.00 408.00" xmlns="http://www.w3.org/2000/svg" xmlns:xlink="http://www.w3.org/1999/xlink">
<g id="graph1" class="graph" transform="scale(1 1) rotate(0) translate(4 404)">
<title>t2flow_graph</title>
<polygon fill="white" stroke="white" points="-4,5 -4,-404 431,-404 431,5 -4,5"/>
<g id="graph2" class="cluster"><title>cluster_sources</title>
<polygon fill="none" stroke="black" stroke-dasharray="1,5" points="8,-333 8,-392 418,-392 418,-333 8,-333"/>
<text text-anchor="middle" x="52" y="-379" font-family="Helvetica,sans-Serif" font-size="10.00">Workflow Inputs</text>
</g>
<g id="graph3" class="cluster"><title>cluster_sinks</title>
<polygon fill="none" stroke="black" stroke-dasharray="1,5" points="122,-8 122,-67 386,-67 386,-8 122,-8"/>
<text text-anchor="middle" x="169.5" y="-54" font-family="Helvetica,sans-Serif" font-size="10.00">Workflow Outputs</text>
</g>
<!-- Iterative_SDfile_Reader -->
<g id="node1" class="node"><title>Iterative_SDfile_Reader</title>
<polygon fill="white" stroke="black" points="245,-324.5 125,-324.5 125,-303.5 245,-303.5 245,-324.5"/>
<text text-anchor="middle" x="185" y="-311.5" font-family="Helvetica,sans-Serif" font-size="10.00">Iterative_SDfile_Reader</text>
</g>
<!-- Tag_Molecules_With_UUID -->
<g id="node2" class="node"><title>Tag_Molecules_With_UUID</title>
<polygon fill="white" stroke="black" points="254,-286.5 116,-286.5 116,-265.5 254,-265.5 254,-286.5"/>
<text text-anchor="middle" x="185" y="-273.5" font-family="Helvetica,sans-Serif" font-size="10.00">Tag_Molecules_With_UUID</text>
</g>
<!-- Iterative_SDfile_Reader&#45;&gt;Tag_Molecules_With_UUID -->
<g id="edge8" class="edge"><title>Iterative_SDfile_Reader&#45;&gt;Tag_Molecules_With_UUID</title>
<path fill="none" stroke="black" d="M185,-303.212C185,-301.19 185,-299.013 185,-296.804"/>
<polygon fill="black" stroke="black" points="188.5,-296.683 185,-286.683 181.5,-296.683 188.5,-296.683"/>
</g>
<!-- Molecule_Connectivity_Checker -->
<g id="node3" class="node"><title>Molecule_Connectivity_Checker</title>
<polygon fill="white" stroke="black" points="259,-248.5 101,-248.5 101,-227.5 259,-227.5 259,-248.5"/>
<text text-anchor="middle" x="180" y="-235.5" font-family="Helvetica,sans-Serif" font-size="10.00">Molecule_Connectivity_Checker</text>
</g>
<!-- Tag_Molecules_With_UUID&#45;&gt;Molecule_Connectivity_Checker -->
<g id="edge10" class="edge"><title>Tag_Molecules_With_UUID&#45;&gt;Molecule_Connectivity_Checker</title>
<path fill="none" stroke="black" d="M183.581,-265.212C183.314,-263.19 183.028,-261.013 182.737,-258.804"/>
<polygon fill="black" stroke="black" points="186.18,-258.141 181.406,-248.683 179.24,-259.054 186.18,-258.141"/>
</g>
<!-- SDFile_Writer -->
<g id="node8" class="node"><title>SDFile_Writer</title>
<polygon fill="white" stroke="black" points="357,-248.5 279,-248.5 279,-227.5 357,-227.5 357,-248.5"/>
<text text-anchor="middle" x="318" y="-235.5" font-family="Helvetica,sans-Serif" font-size="10.00">SDFile_Writer</text>
</g>
<!-- Tag_Molecules_With_UUID&#45;&gt;SDFile_Writer -->
<g id="edge22" class="edge"><title>Tag_Molecules_With_UUID&#45;&gt;SDFile_Writer</title>
<path fill="none" stroke="black" d="M222.048,-265.415C237.324,-261.05 255.199,-255.943 271.354,-251.328"/>
<polygon fill="black" stroke="black" points="272.497,-254.641 281.151,-248.528 270.574,-247.91 272.497,-254.641"/>
</g>
<!-- Remove_Sugar_Groups -->
<g id="node4" class="node"><title>Remove_Sugar_Groups</title>
<polygon fill="white" stroke="black" points="240,-210.5 120,-210.5 120,-189.5 240,-189.5 240,-210.5"/>
<text text-anchor="middle" x="180" y="-197.5" font-family="Helvetica,sans-Serif" font-size="10.00">Remove_Sugar_Groups</text>
</g>
<!-- Molecule_Connectivity_Checker&#45;&gt;Remove_Sugar_Groups -->
<g id="edge12" class="edge"><title>Molecule_Connectivity_Checker&#45;&gt;Remove_Sugar_Groups</title>
<path fill="none" stroke="black" d="M180,-227.212C180,-225.19 180,-223.013 180,-220.804"/>
<polygon fill="black" stroke="black" points="183.5,-220.683 180,-210.683 176.5,-220.683 183.5,-220.683"/>
</g>
<!-- Curate_Strange_Elements -->
<g id="node5" class="node"><title>Curate_Strange_Elements</title>
<polygon fill="white" stroke="black" points="245,-172.5 115,-172.5 115,-151.5 245,-151.5 245,-172.5"/>
<text text-anchor="middle" x="180" y="-159.5" font-family="Helvetica,sans-Serif" font-size="10.00">Curate_Strange_Elements</text>
</g>
<!-- Remove_Sugar_Groups&#45;&gt;Curate_Strange_Elements -->
<g id="edge14" class="edge"><title>Remove_Sugar_Groups&#45;&gt;Curate_Strange_Elements</title>
<path fill="none" stroke="black" d="M180,-189.212C180,-187.19 180,-185.013 180,-182.804"/>
<polygon fill="black" stroke="black" points="183.5,-182.683 180,-172.683 176.5,-182.683 183.5,-182.683"/>
</g>
<!-- Generate_Atom_Signatures -->
<g id="node6" class="node"><title>Generate_Atom_Signatures</title>
<polygon fill="white" stroke="black" points="212,-134.5 76,-134.5 76,-113.5 212,-113.5 212,-134.5"/>
<text text-anchor="middle" x="144" y="-121.5" font-family="Helvetica,sans-Serif" font-size="10.00">Generate_Atom_Signatures</text>
</g>
<!-- Curate_Strange_Elements&#45;&gt;Generate_Atom_Signatures -->
<g id="edge16" class="edge"><title>Curate_Strange_Elements&#45;&gt;Generate_Atom_Signatures</title>
<path fill="none" stroke="black" d="M169.78,-151.212C167.097,-148.38 164.129,-145.247 161.189,-142.144"/>
<polygon fill="black" stroke="black" points="163.539,-139.536 154.121,-134.683 158.457,-144.35 163.539,-139.536"/>
</g>
<!-- SDFile_Writer_2 -->
<g id="node9" class="node"><title>SDFile_Writer_2</title>
<polygon fill="white" stroke="black" points="304,-134.5 216,-134.5 216,-113.5 304,-113.5 304,-134.5"/>
<text text-anchor="middle" x="260" y="-121.5" font-family="Helvetica,sans-Serif" font-size="10.00">SDFile_Writer_2</text>
</g>
<!-- Curate_Strange_Elements&#45;&gt;SDFile_Writer_2 -->
<g id="edge26" class="edge"><title>Curate_Strange_Elements&#45;&gt;SDFile_Writer_2</title>
<path fill="none" stroke="black" d="M202.284,-151.415C210.433,-147.544 219.811,-143.09 228.606,-138.912"/>
<polygon fill="black" stroke="black" points="230.304,-141.98 237.835,-134.528 227.301,-135.658 230.304,-141.98"/>
</g>
<!-- Text_File_Writer -->
<g id="node7" class="node"><title>Text_File_Writer</title>
<polygon fill="white" stroke="black" points="188,-96.5 100,-96.5 100,-75.5 188,-75.5 188,-96.5"/>
<text text-anchor="middle" x="144" y="-83.5" font-family="Helvetica,sans-Serif" font-size="10.00">Text_File_Writer</text>
</g>
<!-- Generate_Atom_Signatures&#45;&gt;Text_File_Writer -->
<g id="edge18" class="edge"><title>Generate_Atom_Signatures&#45;&gt;Text_File_Writer</title>
<path fill="none" stroke="black" d="M144,-113.212C144,-111.19 144,-109.013 144,-106.804"/>
<polygon fill="black" stroke="black" points="147.5,-106.683 144,-96.6831 140.5,-106.683 147.5,-106.683"/>
</g>
<!-- WORKFLOWINTERNALSINK_output_file -->
<g id="node19" class="node"><title>WORKFLOWINTERNALSINK_output_file</title>
<polygon fill="#bcd2ee" stroke="black" points="192,-37.5 130,-37.5 130,-16.5 192,-16.5 192,-37.5"/>
<text text-anchor="middle" x="161" y="-24.5" font-family="Helvetica,sans-Serif" font-size="10.00">output_file</text>
</g>
<!-- Text_File_Writer&#45;&gt;WORKFLOWINTERNALSINK_output_file -->
<g id="edge30" class="edge"><title>Text_File_Writer&#45;&gt;WORKFLOWINTERNALSINK_output_file</title>
<path fill="none" stroke="black" d="M147.039,-75.452C149.26,-67.7457 152.342,-57.047 155.046,-47.6629"/>
<polygon fill="black" stroke="black" points="158.466,-48.434 157.872,-37.8559 151.74,-46.4959 158.466,-48.434"/>
</g>
<!-- WORKFLOWINTERNALSINK_Tagged_SDFile -->
<g id="node20" class="node"><title>WORKFLOWINTERNALSINK_Tagged_SDFile</title>
<polygon fill="#bcd2ee" stroke="black" points="360,-37.5 276,-37.5 276,-16.5 360,-16.5 360,-37.5"/>
<text text-anchor="middle" x="318" y="-24.5" font-family="Helvetica,sans-Serif" font-size="10.00">Tagged_SDFile</text>
</g>
<!-- SDFile_Writer&#45;&gt;WORKFLOWINTERNALSINK_Tagged_SDFile -->
<g id="edge32" class="edge"><title>SDFile_Writer&#45;&gt;WORKFLOWINTERNALSINK_Tagged_SDFile</title>
<path fill="none" stroke="black" d="M318,-227.176C318,-212.436 318,-185.222 318,-162 318,-162 318,-162 318,-124 318,-97.816 318,-67.6562 318,-48.0091"/>
<polygon fill="black" stroke="black" points="321.5,-47.7654 318,-37.7654 314.5,-47.7655 321.5,-47.7654"/>
</g>
<!-- WORKFLOWINTERNALSINK_Curated_SDF -->
<g id="node21" class="node"><title>WORKFLOWINTERNALSINK_Curated_SDF</title>
<polygon fill="#bcd2ee" stroke="black" points="272,-37.5 196,-37.5 196,-16.5 272,-16.5 272,-37.5"/>
<text text-anchor="middle" x="234" y="-24.5" font-family="Helvetica,sans-Serif" font-size="10.00">Curated_SDF</text>
</g>
<!-- SDFile_Writer_2&#45;&gt;WORKFLOWINTERNALSINK_Curated_SDF -->
<g id="edge34" class="edge"><title>SDFile_Writer_2&#45;&gt;WORKFLOWINTERNALSINK_Curated_SDF</title>
<path fill="none" stroke="black" d="M257.118,-113.249C252.859,-97.3602 244.809,-67.3267 239.424,-47.2346"/>
<polygon fill="black" stroke="black" points="242.785,-46.2575 236.816,-37.5046 236.024,-48.0698 242.785,-46.2575"/>
</g>
<!-- WORKFLOWINTERNALSOURCECONTROL -->
<g id="node11" class="node"><title>WORKFLOWINTERNALSOURCECONTROL</title>
<polygon fill="#ff4040" stroke="black" points="403,-359 396,-348.5 410,-348.5 403,-359"/>
</g>
<!-- WORKFLOWINTERNALSOURCE_signatures_file -->
<g id="node12" class="node"><title>WORKFLOWINTERNALSOURCE_signatures_file</title>
<polygon fill="skyblue" stroke="black" points="96,-362.5 16,-362.5 16,-341.5 96,-341.5 96,-362.5"/>
<text text-anchor="middle" x="56" y="-349.5" font-family="Helvetica,sans-Serif" font-size="10.00">signatures_file</text>
</g>
<!-- WORKFLOWINTERNALSOURCE_signatures_file&#45;&gt;Text_File_Writer -->
<g id="edge20" class="edge"><title>WORKFLOWINTERNALSOURCE_signatures_file&#45;&gt;Text_File_Writer</title>
<path fill="none" stroke="black" d="M57.3916,-341.198C59.1641,-326.481 62,-299.294 62,-276 62,-276 62,-276 62,-162 62,-139.579 59.1918,-129.835 74,-113 78.6239,-107.743 84.392,-103.503 90.62,-100.085"/>
<polygon fill="black" stroke="black" points="92.4562,-103.088 99.994,-95.6431 89.4585,-96.7628 92.4562,-103.088"/>
</g>
<!-- WORKFLOWINTERNALSOURCE_Input_SDF -->
<g id="node13" class="node"><title>WORKFLOWINTERNALSOURCE_Input_SDF</title>
<polygon fill="skyblue" stroke="black" points="224,-362.5 160,-362.5 160,-341.5 224,-341.5 224,-362.5"/>
<text text-anchor="middle" x="192" y="-349.5" font-family="Helvetica,sans-Serif" font-size="10.00">Input_SDF</text>
</g>
<!-- WORKFLOWINTERNALSOURCE_Input_SDF&#45;&gt;Iterative_SDfile_Reader -->
<g id="edge4" class="edge"><title>WORKFLOWINTERNALSOURCE_Input_SDF&#45;&gt;Iterative_SDfile_Reader</title>
<path fill="none" stroke="black" d="M190.013,-341.212C189.625,-339.109 189.207,-336.839 188.783,-334.538"/>
<polygon fill="black" stroke="black" points="192.222,-333.884 186.968,-324.683 185.338,-335.152 192.222,-333.884"/>
</g>
<!-- WORKFLOWINTERNALSOURCE_Iterations -->
<g id="node14" class="node"><title>WORKFLOWINTERNALSOURCE_Iterations</title>
<polygon fill="skyblue" stroke="black" points="156,-362.5 100,-362.5 100,-341.5 156,-341.5 156,-362.5"/>
<text text-anchor="middle" x="128" y="-349.5" font-family="Helvetica,sans-Serif" font-size="10.00">Iterations</text>
</g>
<!-- WORKFLOWINTERNALSOURCE_Iterations&#45;&gt;Iterative_SDfile_Reader -->
<g id="edge6" class="edge"><title>WORKFLOWINTERNALSOURCE_Iterations&#45;&gt;Iterative_SDfile_Reader</title>
<path fill="none" stroke="black" d="M143.878,-341.415C149.066,-337.956 154.953,-334.031 160.619,-330.254"/>
<polygon fill="black" stroke="black" points="162.828,-332.988 169.207,-324.528 158.945,-327.163 162.828,-332.988"/>
</g>
<!-- WORKFLOWINTERNALSOURCE_Tagged_SDFile -->
<g id="node15" class="node"><title>WORKFLOWINTERNALSOURCE_Tagged_SDFile</title>
<polygon fill="skyblue" stroke="black" points="392,-362.5 308,-362.5 308,-341.5 392,-341.5 392,-362.5"/>
<text text-anchor="middle" x="350" y="-349.5" font-family="Helvetica,sans-Serif" font-size="10.00">Tagged_SDFile</text>
</g>
<!-- WORKFLOWINTERNALSOURCE_Tagged_SDFile&#45;&gt;SDFile_Writer -->
<g id="edge24" class="edge"><title>WORKFLOWINTERNALSOURCE_Tagged_SDFile&#45;&gt;SDFile_Writer</title>
<path fill="none" stroke="black" d="M347.047,-341.479C341.764,-322.658 330.607,-282.914 323.762,-258.528"/>
<polygon fill="black" stroke="black" points="327.112,-257.51 321.039,-248.828 320.372,-259.401 327.112,-257.51"/>
</g>
<!-- WORKFLOWINTERNALSOURCE_Curated_SDF -->
<g id="node16" class="node"><title>WORKFLOWINTERNALSOURCE_Curated_SDF</title>
<polygon fill="skyblue" stroke="black" points="304,-362.5 228,-362.5 228,-341.5 304,-341.5 304,-362.5"/>
<text text-anchor="middle" x="266" y="-349.5" font-family="Helvetica,sans-Serif" font-size="10.00">Curated_SDF</text>
</g>
<!-- WORKFLOWINTERNALSOURCE_Curated_SDF&#45;&gt;SDFile_Writer_2 -->
<g id="edge28" class="edge"><title>WORKFLOWINTERNALSOURCE_Curated_SDF&#45;&gt;SDFile_Writer_2</title>
<path fill="none" stroke="black" d="M266,-341.176C266,-326.436 266,-299.222 266,-276 266,-276 266,-276 266,-200 266,-181.437 264.199,-160.403 262.571,-145.177"/>
<polygon fill="black" stroke="black" points="265.999,-144.343 261.392,-134.802 259.043,-145.134 265.999,-144.343"/>
</g>
<!-- WORKFLOWINTERNALSINKCONTROL -->
<g id="node18" class="node"><title>WORKFLOWINTERNALSINKCONTROL</title>
<polygon fill="#66cd00" stroke="black" points="371,-20 378,-30.5 364,-30.5 371,-20"/>
</g>
</g>
</svg>
