<?xml version="1.0" encoding="UTF-8" standalone="no"?>
<!DOCTYPE svg PUBLIC "-//W3C//DTD SVG 1.1//EN"
 "http://www.w3.org/Graphics/SVG/1.1/DTD/svg11.dtd">
<!-- Generated by graphviz version 2.26.0 (20091210.2329)
 -->
<!-- Title: t2flow_graph Pages: 1 -->
<svg width="563pt" height="674pt"
 viewBox="0.00 0.00 563.00 674.00" xmlns="http://www.w3.org/2000/svg" xmlns:xlink="http://www.w3.org/1999/xlink">
<g id="graph1" class="graph" transform="scale(1 1) rotate(0) translate(4 670)">
<title>t2flow_graph</title>
<polygon fill="white" stroke="white" points="-4,5 -4,-670 560,-670 560,5 -4,5"/>
<g id="graph2" class="cluster"><title>cluster_sources</title>
<polygon fill="none" stroke="black" stroke-dasharray="1,5" points="121,-599 121,-658 489,-658 489,-599 121,-599"/>
<text text-anchor="middle" x="165" y="-645" font-family="Helvetica,sans-Serif" font-size="10.00">Workflow Inputs</text>
</g>
<g id="graph3" class="cluster"><title>cluster_sinks</title>
<polygon fill="none" stroke="black" stroke-dasharray="1,5" points="8,-8 8,-67 402,-67 402,-8 8,-8"/>
<text text-anchor="middle" x="55.5" y="-54" font-family="Helvetica,sans-Serif" font-size="10.00">Workflow Outputs</text>
</g>
<!-- List_from_column -->
<g id="node1" class="node"><title>List_from_column</title>
<polygon fill="white" stroke="black" points="487,-590.5 393,-590.5 393,-569.5 487,-569.5 487,-590.5"/>
<text text-anchor="middle" x="440" y="-577.5" font-family="Helvetica,sans-Serif" font-size="10.00">List_from_column</text>
</g>
<!-- Read_File_1 -->
<g id="node28" class="node"><title>Read_File_1</title>
<polygon fill="#deb887" stroke="black" points="386,-552.5 316,-552.5 316,-531.5 386,-531.5 386,-552.5"/>
<text text-anchor="middle" x="351" y="-539.5" font-family="Helvetica,sans-Serif" font-size="10.00">Read_File_1</text>
</g>
<!-- List_from_column&#45;&gt;Read_File_1 -->
<g id="edge72" class="edge"><title>List_from_column&#45;&gt;Read_File_1</title>
<path fill="none" stroke="black" d="M415.209,-569.415C405.854,-565.421 395.043,-560.805 384.991,-556.513"/>
<polygon fill="black" stroke="black" points="386.23,-553.236 375.659,-552.528 383.481,-559.674 386.23,-553.236"/>
</g>
<!-- ellipseHeader2asciiHeader -->
<g id="node2" class="node"><title>ellipseHeader2asciiHeader</title>
<polygon fill="#deb887" stroke="black" points="404,-514.5 272,-514.5 272,-493.5 404,-493.5 404,-514.5"/>
<text text-anchor="middle" x="338" y="-501.5" font-family="Helvetica,sans-Serif" font-size="10.00">ellipseHeader2asciiHeader</text>
</g>
<!-- Concatenate_two_strings_2 -->
<g id="node4" class="node"><title>Concatenate_two_strings_2</title>
<polygon fill="#d15fee" stroke="black" points="325,-476.5 187,-476.5 187,-455.5 325,-455.5 325,-476.5"/>
<text text-anchor="middle" x="256" y="-463.5" font-family="Helvetica,sans-Serif" font-size="10.00">Concatenate_two_strings_2</text>
</g>
<!-- ellipseHeader2asciiHeader&#45;&gt;Concatenate_two_strings_2 -->
<g id="edge14" class="edge"><title>ellipseHeader2asciiHeader&#45;&gt;Concatenate_two_strings_2</title>
<path fill="none" stroke="black" d="M315.158,-493.415C306.717,-489.503 296.989,-484.995 287.891,-480.779"/>
<polygon fill="black" stroke="black" points="289.264,-477.557 278.719,-476.528 286.321,-483.909 289.264,-477.557"/>
</g>
<!-- List_from_column_2 -->
<g id="node3" class="node"><title>List_from_column_2</title>
<polygon fill="white" stroke="black" points="205,-590.5 101,-590.5 101,-569.5 205,-569.5 205,-590.5"/>
<text text-anchor="middle" x="153" y="-577.5" font-family="Helvetica,sans-Serif" font-size="10.00">List_from_column_2</text>
</g>
<!-- Read_File_2 -->
<g id="node29" class="node"><title>Read_File_2</title>
<polygon fill="#deb887" stroke="black" points="291,-552.5 221,-552.5 221,-531.5 291,-531.5 291,-552.5"/>
<text text-anchor="middle" x="256" y="-539.5" font-family="Helvetica,sans-Serif" font-size="10.00">Read_File_2</text>
</g>
<!-- List_from_column_2&#45;&gt;Read_File_2 -->
<g id="edge76" class="edge"><title>List_from_column_2&#45;&gt;Read_File_2</title>
<path fill="none" stroke="black" d="M181.691,-569.415C192.852,-565.297 205.804,-560.519 217.739,-556.116"/>
<polygon fill="black" stroke="black" points="219.292,-559.273 227.463,-552.528 216.869,-552.706 219.292,-559.273"/>
</g>
<!-- Format_conversion -->
<g id="node5" class="node"><title>Format_conversion</title>
<polygon fill="white" stroke="black" points="413,-438.5 313,-438.5 313,-417.5 413,-417.5 413,-438.5"/>
<text text-anchor="middle" x="363" y="-425.5" font-family="Helvetica,sans-Serif" font-size="10.00">Format_conversion</text>
</g>
<!-- Concatenate_two_strings_2&#45;&gt;Format_conversion -->
<g id="edge18" class="edge"><title>Concatenate_two_strings_2&#45;&gt;Format_conversion</title>
<path fill="none" stroke="black" d="M285.805,-455.415C297.516,-451.256 311.124,-446.423 323.624,-441.984"/>
<polygon fill="black" stroke="black" points="325.102,-445.173 333.354,-438.528 322.76,-438.577 325.102,-445.173"/>
</g>
<!-- Select_columns -->
<g id="node8" class="node"><title>Select_columns</title>
<polygon fill="white" stroke="black" points="406,-400.5 320,-400.5 320,-379.5 406,-379.5 406,-400.5"/>
<text text-anchor="middle" x="363" y="-387.5" font-family="Helvetica,sans-Serif" font-size="10.00">Select_columns</text>
</g>
<!-- Format_conversion&#45;&gt;Select_columns -->
<g id="edge24" class="edge"><title>Format_conversion&#45;&gt;Select_columns</title>
<path fill="none" stroke="black" d="M363,-417.212C363,-415.19 363,-413.013 363,-410.804"/>
<polygon fill="black" stroke="black" points="366.5,-410.683 363,-400.683 359.5,-410.683 366.5,-410.683"/>
</g>
<!-- formatTableIn_value -->
<g id="node6" class="node"><title>formatTableIn_value</title>
<polygon fill="#b0c4de" stroke="black" points="433,-476.5 329,-476.5 329,-455.5 433,-455.5 433,-476.5"/>
<text text-anchor="middle" x="381" y="-463.5" font-family="Helvetica,sans-Serif" font-size="10.00">formatTableIn_value</text>
</g>
<!-- formatTableIn_value&#45;&gt;Format_conversion -->
<g id="edge20" class="edge"><title>formatTableIn_value&#45;&gt;Format_conversion</title>
<path fill="none" stroke="black" d="M375.89,-455.212C374.779,-452.866 373.569,-450.313 372.351,-447.741"/>
<polygon fill="black" stroke="black" points="375.504,-446.222 368.06,-438.683 369.178,-449.219 375.504,-446.222"/>
</g>
<!-- formatTableOut_value -->
<g id="node7" class="node"><title>formatTableOut_value</title>
<polygon fill="#b0c4de" stroke="black" points="549,-476.5 437,-476.5 437,-455.5 549,-455.5 549,-476.5"/>
<text text-anchor="middle" x="493" y="-463.5" font-family="Helvetica,sans-Serif" font-size="10.00">formatTableOut_value</text>
</g>
<!-- formatTableOut_value&#45;&gt;Format_conversion -->
<g id="edge22" class="edge"><title>formatTableOut_value&#45;&gt;Format_conversion</title>
<path fill="none" stroke="black" d="M456.788,-455.415C441.997,-451.091 424.714,-446.039 409.042,-441.458"/>
<polygon fill="black" stroke="black" points="409.598,-437.975 399.018,-438.528 407.634,-444.694 409.598,-437.975"/>
</g>
<!-- List_from_column_3 -->
<g id="node10" class="node"><title>List_from_column_3</title>
<polygon fill="white" stroke="black" points="555,-362.5 451,-362.5 451,-341.5 555,-341.5 555,-362.5"/>
<text text-anchor="middle" x="503" y="-349.5" font-family="Helvetica,sans-Serif" font-size="10.00">List_from_column_3</text>
</g>
<!-- Select_columns&#45;&gt;List_from_column_3 -->
<g id="edge28" class="edge"><title>Select_columns&#45;&gt;List_from_column_3</title>
<path fill="none" stroke="black" d="M401.998,-379.415C418.23,-375.009 437.249,-369.847 454.379,-365.197"/>
<polygon fill="black" stroke="black" points="455.477,-368.526 464.211,-362.528 453.644,-361.77 455.477,-368.526"/>
</g>
<!-- List_from_column_4 -->
<g id="node12" class="node"><title>List_from_column_4</title>
<polygon fill="white" stroke="black" points="231,-362.5 127,-362.5 127,-341.5 231,-341.5 231,-362.5"/>
<text text-anchor="middle" x="179" y="-349.5" font-family="Helvetica,sans-Serif" font-size="10.00">List_from_column_4</text>
</g>
<!-- Select_columns&#45;&gt;List_from_column_4 -->
<g id="edge32" class="edge"><title>Select_columns&#45;&gt;List_from_column_4</title>
<path fill="none" stroke="black" d="M319.984,-379.868C318.641,-379.573 317.311,-379.282 316,-379 314.01,-378.571 276.367,-371.154 241.045,-364.203"/>
<polygon fill="black" stroke="black" points="241.664,-360.758 231.176,-362.261 240.312,-367.626 241.664,-360.758"/>
</g>
<!-- List_from_column_5 -->
<g id="node13" class="node"><title>List_from_column_5</title>
<polygon fill="white" stroke="black" points="339,-362.5 235,-362.5 235,-341.5 339,-341.5 339,-362.5"/>
<text text-anchor="middle" x="287" y="-349.5" font-family="Helvetica,sans-Serif" font-size="10.00">List_from_column_5</text>
</g>
<!-- Select_columns&#45;&gt;List_from_column_5 -->
<g id="edge36" class="edge"><title>Select_columns&#45;&gt;List_from_column_5</title>
<path fill="none" stroke="black" d="M341.83,-379.415C334.171,-375.585 325.369,-371.185 317.091,-367.046"/>
<polygon fill="black" stroke="black" points="318.566,-363.87 308.057,-362.528 315.436,-370.131 318.566,-363.87"/>
</g>
<!-- List_from_column_6 -->
<g id="node23" class="node"><title>List_from_column_6</title>
<polygon fill="white" stroke="black" points="447,-362.5 343,-362.5 343,-341.5 447,-341.5 447,-362.5"/>
<text text-anchor="middle" x="395" y="-349.5" font-family="Helvetica,sans-Serif" font-size="10.00">List_from_column_6</text>
</g>
<!-- Select_columns&#45;&gt;List_from_column_6 -->
<g id="edge62" class="edge"><title>Select_columns&#45;&gt;List_from_column_6</title>
<path fill="none" stroke="black" d="M372.084,-379.212C374.401,-376.461 376.957,-373.426 379.497,-370.41"/>
<polygon fill="black" stroke="black" points="382.24,-372.587 386.004,-362.683 376.885,-368.078 382.24,-372.587"/>
</g>
<!-- filter_value -->
<g id="node9" class="node"><title>filter_value</title>
<polygon fill="#b0c4de" stroke="black" points="481,-438.5 417,-438.5 417,-417.5 481,-417.5 481,-438.5"/>
<text text-anchor="middle" x="449" y="-425.5" font-family="Helvetica,sans-Serif" font-size="10.00">filter_value</text>
</g>
<!-- filter_value&#45;&gt;Select_columns -->
<g id="edge26" class="edge"><title>filter_value&#45;&gt;Select_columns</title>
<path fill="none" stroke="black" d="M425.044,-417.415C416.098,-413.462 405.774,-408.9 396.146,-404.646"/>
<polygon fill="black" stroke="black" points="397.389,-401.369 386.827,-400.528 394.56,-407.771 397.389,-401.369"/>
</g>
<!-- lists2ascii -->
<g id="node16" class="node"><title>lists2ascii</title>
<polygon fill="#deb887" stroke="black" points="317,-324.5 257,-324.5 257,-303.5 317,-303.5 317,-324.5"/>
<text text-anchor="middle" x="287" y="-311.5" font-family="Helvetica,sans-Serif" font-size="10.00">lists2ascii</text>
</g>
<!-- List_from_column_3&#45;&gt;lists2ascii -->
<g id="edge40" class="edge"><title>List_from_column_3&#45;&gt;lists2ascii</title>
<path fill="none" stroke="black" d="M450.856,-341.637C449.558,-341.418 448.272,-341.205 447,-341 394.538,-332.526 378.012,-336.725 327.221,-326.253"/>
<polygon fill="black" stroke="black" points="327.835,-322.805 317.322,-324.12 326.361,-329.648 327.835,-322.805"/>
</g>
<!-- X0_column -->
<g id="node11" class="node"><title>X0_column</title>
<polygon fill="#b0c4de" stroke="black" points="544,-400.5 480,-400.5 480,-379.5 544,-379.5 544,-400.5"/>
<text text-anchor="middle" x="512" y="-387.5" font-family="Helvetica,sans-Serif" font-size="10.00">X0_column</text>
</g>
<!-- X0_column&#45;&gt;List_from_column_3 -->
<g id="edge30" class="edge"><title>X0_column&#45;&gt;List_from_column_3</title>
<path fill="none" stroke="black" d="M509.445,-379.212C508.947,-377.109 508.409,-374.839 507.864,-372.538"/>
<polygon fill="black" stroke="black" points="511.241,-371.607 505.53,-362.683 504.429,-373.221 511.241,-371.607"/>
</g>
<!-- List_from_column_4&#45;&gt;lists2ascii -->
<g id="edge42" class="edge"><title>List_from_column_4&#45;&gt;lists2ascii</title>
<path fill="none" stroke="black" d="M209.084,-341.415C221.021,-337.215 234.912,-332.327 247.631,-327.852"/>
<polygon fill="black" stroke="black" points="248.806,-331.149 257.077,-324.528 246.482,-324.546 248.806,-331.149"/>
</g>
<!-- List_from_column_5&#45;&gt;lists2ascii -->
<g id="edge44" class="edge"><title>List_from_column_5&#45;&gt;lists2ascii</title>
<path fill="none" stroke="black" d="M287,-341.212C287,-339.19 287,-337.013 287,-334.804"/>
<polygon fill="black" stroke="black" points="290.5,-334.683 287,-324.683 283.5,-334.683 290.5,-334.683"/>
</g>
<!-- Y0_column -->
<g id="node14" class="node"><title>Y0_column</title>
<polygon fill="#b0c4de" stroke="black" points="211,-400.5 147,-400.5 147,-379.5 211,-379.5 211,-400.5"/>
<text text-anchor="middle" x="179" y="-387.5" font-family="Helvetica,sans-Serif" font-size="10.00">Y0_column</text>
</g>
<!-- Y0_column&#45;&gt;List_from_column_4 -->
<g id="edge34" class="edge"><title>Y0_column&#45;&gt;List_from_column_4</title>
<path fill="none" stroke="black" d="M179,-379.212C179,-377.19 179,-375.013 179,-372.804"/>
<polygon fill="black" stroke="black" points="182.5,-372.683 179,-362.683 175.5,-372.683 182.5,-372.683"/>
</g>
<!-- ELLIP_column -->
<g id="node15" class="node"><title>ELLIP_column</title>
<polygon fill="#b0c4de" stroke="black" points="316,-400.5 236,-400.5 236,-379.5 316,-379.5 316,-400.5"/>
<text text-anchor="middle" x="276" y="-387.5" font-family="Helvetica,sans-Serif" font-size="10.00">ELLIP_column</text>
</g>
<!-- ELLIP_column&#45;&gt;List_from_column_5 -->
<g id="edge38" class="edge"><title>ELLIP_column&#45;&gt;List_from_column_5</title>
<path fill="none" stroke="black" d="M279.123,-379.212C279.732,-377.109 280.389,-374.839 281.055,-372.538"/>
<polygon fill="black" stroke="black" points="284.489,-373.262 283.908,-362.683 277.765,-371.315 284.489,-373.262"/>
</g>
<!-- Format_conversion_2 -->
<g id="node17" class="node"><title>Format_conversion_2</title>
<polygon fill="white" stroke="black" points="386,-286.5 276,-286.5 276,-265.5 386,-265.5 386,-286.5"/>
<text text-anchor="middle" x="331" y="-273.5" font-family="Helvetica,sans-Serif" font-size="10.00">Format_conversion_2</text>
</g>
<!-- lists2ascii&#45;&gt;Format_conversion_2 -->
<g id="edge52" class="edge"><title>lists2ascii&#45;&gt;Format_conversion_2</title>
<path fill="none" stroke="black" d="M299.491,-303.212C303.051,-300.138 307.023,-296.708 310.914,-293.347"/>
<polygon fill="black" stroke="black" points="313.35,-295.868 318.63,-286.683 308.774,-290.57 313.35,-295.868"/>
</g>
<!-- MakeDoubleTypes -->
<g id="node22" class="node"><title>MakeDoubleTypes</title>
<polygon fill="#deb887" stroke="black" points="375,-248.5 277,-248.5 277,-227.5 375,-227.5 375,-248.5"/>
<text text-anchor="middle" x="326" y="-235.5" font-family="Helvetica,sans-Serif" font-size="10.00">MakeDoubleTypes</text>
</g>
<!-- Format_conversion_2&#45;&gt;MakeDoubleTypes -->
<g id="edge60" class="edge"><title>Format_conversion_2&#45;&gt;MakeDoubleTypes</title>
<path fill="none" stroke="black" d="M329.581,-265.212C329.314,-263.19 329.028,-261.013 328.737,-258.804"/>
<polygon fill="black" stroke="black" points="332.18,-258.141 327.406,-248.683 325.24,-259.054 332.18,-258.141"/>
</g>
<!-- ascii_value_1 -->
<g id="node18" class="node"><title>ascii_value_1</title>
<polygon fill="#b0c4de" stroke="black" points="397,-324.5 321,-324.5 321,-303.5 397,-303.5 397,-324.5"/>
<text text-anchor="middle" x="359" y="-311.5" font-family="Helvetica,sans-Serif" font-size="10.00">ascii_value_1</text>
</g>
<!-- ascii_value_1&#45;&gt;Format_conversion_2 -->
<g id="edge48" class="edge"><title>ascii_value_1&#45;&gt;Format_conversion_2</title>
<path fill="none" stroke="black" d="M351.051,-303.212C349.143,-300.623 347.05,-297.782 344.958,-294.943"/>
<polygon fill="black" stroke="black" points="347.621,-292.657 338.872,-286.683 341.986,-296.81 347.621,-292.657"/>
</g>
<!-- votable_value_1 -->
<g id="node19" class="node"><title>votable_value_1</title>
<polygon fill="#b0c4de" stroke="black" points="487,-324.5 401,-324.5 401,-303.5 487,-303.5 487,-324.5"/>
<text text-anchor="middle" x="444" y="-311.5" font-family="Helvetica,sans-Serif" font-size="10.00">votable_value_1</text>
</g>
<!-- votable_value_1&#45;&gt;Format_conversion_2 -->
<g id="edge50" class="edge"><title>votable_value_1&#45;&gt;Format_conversion_2</title>
<path fill="none" stroke="black" d="M412.523,-303.415C399.911,-299.174 385.215,-294.232 371.801,-289.721"/>
<polygon fill="black" stroke="black" points="372.902,-286.398 362.308,-286.528 370.671,-293.033 372.902,-286.398"/>
</g>
<!-- Cat_n&#45;tables -->
<g id="node20" class="node"><title>Cat_n&#45;tables</title>
<polygon fill="white" stroke="black" points="342,-210.5 270,-210.5 270,-189.5 342,-189.5 342,-210.5"/>
<text text-anchor="middle" x="306" y="-197.5" font-family="Helvetica,sans-Serif" font-size="10.00">Cat_n&#45;tables</text>
</g>
<!-- Add_Column -->
<g id="node25" class="node"><title>Add_Column</title>
<polygon fill="white" stroke="black" points="373,-172.5 301,-172.5 301,-151.5 373,-151.5 373,-172.5"/>
<text text-anchor="middle" x="337" y="-159.5" font-family="Helvetica,sans-Serif" font-size="10.00">Add_Column</text>
</g>
<!-- Cat_n&#45;tables&#45;&gt;Add_Column -->
<g id="edge66" class="edge"><title>Cat_n&#45;tables&#45;&gt;Add_Column</title>
<path fill="none" stroke="black" d="M314.8,-189.212C316.979,-186.542 319.376,-183.604 321.764,-180.676"/>
<polygon fill="black" stroke="black" points="324.676,-182.644 328.285,-172.683 319.252,-178.219 324.676,-182.644"/>
</g>
<!-- tjoin -->
<g id="node21" class="node"><title>tjoin</title>
<polygon fill="white" stroke="black" points="121,-134.5 87,-134.5 87,-113.5 121,-113.5 121,-134.5"/>
<text text-anchor="middle" x="104" y="-121.5" font-family="Helvetica,sans-Serif" font-size="10.00">tjoin</text>
</g>
<!-- Select_Rows -->
<g id="node32" class="node"><title>Select_Rows</title>
<polygon fill="white" stroke="black" points="223,-96.5 149,-96.5 149,-75.5 223,-75.5 223,-96.5"/>
<text text-anchor="middle" x="186" y="-83.5" font-family="Helvetica,sans-Serif" font-size="10.00">Select_Rows</text>
</g>
<!-- tjoin&#45;&gt;Select_Rows -->
<g id="edge80" class="edge"><title>tjoin&#45;&gt;Select_Rows</title>
<path fill="none" stroke="black" d="M121.39,-115.941C130.939,-111.516 143.081,-105.889 154.255,-100.711"/>
<polygon fill="black" stroke="black" points="155.734,-103.883 163.335,-96.5031 152.791,-97.5322 155.734,-103.883"/>
</g>
<!-- WORKFLOWINTERNALSINK_VotableWithnewColumns -->
<g id="node41" class="node"><title>WORKFLOWINTERNALSINK_VotableWithnewColumns</title>
<polygon fill="#bcd2ee" stroke="black" points="142,-37.5 16,-37.5 16,-16.5 142,-16.5 142,-37.5"/>
<text text-anchor="middle" x="79" y="-24.5" font-family="Helvetica,sans-Serif" font-size="10.00">VotableWithnewColumns</text>
</g>
<!-- tjoin&#45;&gt;WORKFLOWINTERNALSINK_VotableWithnewColumns -->
<g id="edge84" class="edge"><title>tjoin&#45;&gt;WORKFLOWINTERNALSINK_VotableWithnewColumns</title>
<path fill="none" stroke="black" d="M101.229,-113.249C97.1341,-97.3602 89.3935,-67.3267 84.2151,-47.2346"/>
<polygon fill="black" stroke="black" points="87.5925,-46.3146 81.7074,-37.5046 80.814,-48.0617 87.5925,-46.3146"/>
</g>
<!-- MakeDoubleTypes&#45;&gt;Cat_n&#45;tables -->
<g id="edge54" class="edge"><title>MakeDoubleTypes&#45;&gt;Cat_n&#45;tables</title>
<path fill="none" stroke="black" d="M320.322,-227.212C319.087,-224.866 317.743,-222.313 316.39,-219.741"/>
<polygon fill="black" stroke="black" points="319.377,-217.902 311.623,-210.683 313.183,-221.162 319.377,-217.902"/>
</g>
<!-- List_from_column_6&#45;&gt;lists2ascii -->
<g id="edge46" class="edge"><title>List_from_column_6&#45;&gt;lists2ascii</title>
<path fill="none" stroke="black" d="M364.916,-341.415C352.979,-337.215 339.088,-332.327 326.369,-327.852"/>
<polygon fill="black" stroke="black" points="327.518,-324.546 316.923,-324.528 325.194,-331.149 327.518,-324.546"/>
</g>
<!-- PA_column -->
<g id="node24" class="node"><title>PA_column</title>
<polygon fill="#b0c4de" stroke="black" points="476,-400.5 410,-400.5 410,-379.5 476,-379.5 476,-400.5"/>
<text text-anchor="middle" x="443" y="-387.5" font-family="Helvetica,sans-Serif" font-size="10.00">PA_column</text>
</g>
<!-- PA_column&#45;&gt;List_from_column_6 -->
<g id="edge64" class="edge"><title>PA_column&#45;&gt;List_from_column_6</title>
<path fill="none" stroke="black" d="M429.629,-379.415C425.468,-376.121 420.773,-372.404 416.214,-368.794"/>
<polygon fill="black" stroke="black" points="418.312,-365.991 408.299,-362.528 413.967,-371.48 418.312,-365.991"/>
</g>
<!-- Add_Column&#45;&gt;tjoin -->
<g id="edge58" class="edge"><title>Add_Column&#45;&gt;tjoin</title>
<path fill="none" stroke="black" d="M300.943,-159.913C259.598,-156.909 190.046,-149.985 132,-135 131.668,-134.914 131.335,-134.826 131.001,-134.735"/>
<polygon fill="black" stroke="black" points="131.851,-131.33 121.258,-131.535 129.667,-137.981 131.851,-131.33"/>
</g>
<!-- WORKFLOWINTERNALSINK_EllipseVotable -->
<g id="node42" class="node"><title>WORKFLOWINTERNALSINK_EllipseVotable</title>
<polygon fill="#bcd2ee" stroke="black" points="376,-37.5 298,-37.5 298,-16.5 376,-16.5 376,-37.5"/>
<text text-anchor="middle" x="337" y="-24.5" font-family="Helvetica,sans-Serif" font-size="10.00">EllipseVotable</text>
</g>
<!-- Add_Column&#45;&gt;WORKFLOWINTERNALSINK_EllipseVotable -->
<g id="edge86" class="edge"><title>Add_Column&#45;&gt;WORKFLOWINTERNALSINK_EllipseVotable</title>
<path fill="none" stroke="black" d="M337,-151.407C337,-129.128 337,-77.0746 337,-47.8516"/>
<polygon fill="black" stroke="black" points="340.5,-47.544 337,-37.544 333.5,-47.544 340.5,-47.544"/>
</g>
<!-- ellip1_not0_value -->
<g id="node26" class="node"><title>ellip1_not0_value</title>
<polygon fill="#b0c4de" stroke="black" points="438,-210.5 346,-210.5 346,-189.5 438,-189.5 438,-210.5"/>
<text text-anchor="middle" x="392" y="-197.5" font-family="Helvetica,sans-Serif" font-size="10.00">ellip1_not0_value</text>
</g>
<!-- ellip1_not0_value&#45;&gt;Add_Column -->
<g id="edge68" class="edge"><title>ellip1_not0_value&#45;&gt;Add_Column</title>
<path fill="none" stroke="black" d="M376.679,-189.415C371.673,-185.956 365.992,-182.031 360.525,-178.254"/>
<polygon fill="black" stroke="black" points="362.455,-175.333 352.238,-172.528 358.476,-181.092 362.455,-175.333"/>
</g>
<!-- expression_value -->
<g id="node27" class="node"><title>expression_value</title>
<polygon fill="#b0c4de" stroke="black" points="534,-210.5 442,-210.5 442,-189.5 534,-189.5 534,-210.5"/>
<text text-anchor="middle" x="488" y="-197.5" font-family="Helvetica,sans-Serif" font-size="10.00">expression_value</text>
</g>
<!-- expression_value&#45;&gt;Add_Column -->
<g id="edge70" class="edge"><title>expression_value&#45;&gt;Add_Column</title>
<path fill="none" stroke="black" d="M445.938,-189.415C426.379,-184.493 403.068,-178.626 383.038,-173.586"/>
<polygon fill="black" stroke="black" points="383.753,-170.157 373.201,-171.11 382.045,-176.945 383.753,-170.157"/>
</g>
<!-- Read_File_1&#45;&gt;ellipseHeader2asciiHeader -->
<g id="edge8" class="edge"><title>Read_File_1&#45;&gt;ellipseHeader2asciiHeader</title>
<path fill="none" stroke="black" d="M347.309,-531.212C346.562,-529.028 345.753,-526.664 344.935,-524.273"/>
<polygon fill="black" stroke="black" points="348.203,-523.012 341.655,-514.683 341.58,-525.278 348.203,-523.012"/>
</g>
<!-- Read_File_2&#45;&gt;Concatenate_two_strings_2 -->
<g id="edge16" class="edge"><title>Read_File_2&#45;&gt;Concatenate_two_strings_2</title>
<path fill="none" stroke="black" d="M256,-531.433C256,-519.992 256,-501.448 256,-487.017"/>
<polygon fill="black" stroke="black" points="259.5,-486.97 256,-476.97 252.5,-486.97 259.5,-486.97"/>
</g>
<!-- defaultDataContent -->
<g id="node30" class="node"><title>defaultDataContent</title>
<polygon fill="#b0c4de" stroke="black" points="309,-590.5 209,-590.5 209,-569.5 309,-569.5 309,-590.5"/>
<text text-anchor="middle" x="259" y="-577.5" font-family="Helvetica,sans-Serif" font-size="10.00">defaultDataContent</text>
</g>
<!-- defaultDataContent&#45;&gt;Read_File_2 -->
<g id="edge78" class="edge"><title>defaultDataContent&#45;&gt;Read_File_2</title>
<path fill="none" stroke="black" d="M258.148,-569.212C257.989,-567.19 257.817,-565.013 257.642,-562.804"/>
<polygon fill="black" stroke="black" points="261.12,-562.377 256.843,-552.683 254.141,-562.928 261.12,-562.377"/>
</g>
<!-- defaultHeader -->
<g id="node31" class="node"><title>defaultHeader</title>
<polygon fill="#b0c4de" stroke="black" points="389,-590.5 313,-590.5 313,-569.5 389,-569.5 389,-590.5"/>
<text text-anchor="middle" x="351" y="-577.5" font-family="Helvetica,sans-Serif" font-size="10.00">defaultHeader</text>
</g>
<!-- defaultHeader&#45;&gt;Read_File_1 -->
<g id="edge74" class="edge"><title>defaultHeader&#45;&gt;Read_File_1</title>
<path fill="none" stroke="black" d="M351,-569.212C351,-567.19 351,-565.013 351,-562.804"/>
<polygon fill="black" stroke="black" points="354.5,-562.683 351,-552.683 347.5,-562.683 354.5,-562.683"/>
</g>
<!-- WORKFLOWINTERNALSINK_votable_without_ellipse_failure -->
<g id="node43" class="node"><title>WORKFLOWINTERNALSINK_votable_without_ellipse_failure</title>
<polygon fill="#bcd2ee" stroke="black" points="294,-37.5 146,-37.5 146,-16.5 294,-16.5 294,-37.5"/>
<text text-anchor="middle" x="220" y="-24.5" font-family="Helvetica,sans-Serif" font-size="10.00">votable_without_ellipse_failure</text>
</g>
<!-- Select_Rows&#45;&gt;WORKFLOWINTERNALSINK_votable_without_ellipse_failure -->
<g id="edge88" class="edge"><title>Select_Rows&#45;&gt;WORKFLOWINTERNALSINK_votable_without_ellipse_failure</title>
<path fill="none" stroke="black" d="M192.079,-75.452C196.663,-67.4971 203.084,-56.3537 208.613,-46.759"/>
<polygon fill="black" stroke="black" points="211.784,-48.2677 213.744,-37.8559 205.719,-44.7726 211.784,-48.2677"/>
</g>
<!-- no_error_expression -->
<g id="node33" class="node"><title>no_error_expression</title>
<polygon fill="#b0c4de" stroke="black" points="238,-134.5 134,-134.5 134,-113.5 238,-113.5 238,-134.5"/>
<text text-anchor="middle" x="186" y="-121.5" font-family="Helvetica,sans-Serif" font-size="10.00">no_error_expression</text>
</g>
<!-- no_error_expression&#45;&gt;Select_Rows -->
<g id="edge82" class="edge"><title>no_error_expression&#45;&gt;Select_Rows</title>
<path fill="none" stroke="black" d="M186,-113.212C186,-111.19 186,-109.013 186,-106.804"/>
<polygon fill="black" stroke="black" points="189.5,-106.683 186,-96.6831 182.5,-106.683 189.5,-106.683"/>
</g>
<!-- WORKFLOWINTERNALSOURCECONTROL -->
<g id="node35" class="node"><title>WORKFLOWINTERNALSOURCECONTROL</title>
<polygon fill="#ff4040" stroke="black" points="474,-625 467,-614.5 481,-614.5 474,-625"/>
</g>
<!-- WORKFLOWINTERNALSOURCE_ColumnNameWithHeaderFile -->
<g id="node36" class="node"><title>WORKFLOWINTERNALSOURCE_ColumnNameWithHeaderFile</title>
<polygon fill="skyblue" stroke="black" points="463,-628.5 319,-628.5 319,-607.5 463,-607.5 463,-628.5"/>
<text text-anchor="middle" x="391" y="-615.5" font-family="Helvetica,sans-Serif" font-size="10.00">ColumnNameWithHeaderFile</text>
</g>
<!-- WORKFLOWINTERNALSOURCE_ColumnNameWithHeaderFile&#45;&gt;List_from_column -->
<g id="edge4" class="edge"><title>WORKFLOWINTERNALSOURCE_ColumnNameWithHeaderFile&#45;&gt;List_from_column</title>
<path fill="none" stroke="black" d="M404.649,-607.415C408.897,-604.121 413.69,-600.404 418.344,-596.794"/>
<polygon fill="black" stroke="black" points="420.667,-599.422 426.424,-590.528 416.377,-593.891 420.667,-599.422"/>
</g>
<!-- WORKFLOWINTERNALSOURCE_votable -->
<g id="node37" class="node"><title>WORKFLOWINTERNALSOURCE_votable</title>
<polygon fill="skyblue" stroke="black" points="177,-628.5 129,-628.5 129,-607.5 177,-607.5 177,-628.5"/>
<text text-anchor="middle" x="153" y="-615.5" font-family="Helvetica,sans-Serif" font-size="10.00">votable</text>
</g>
<!-- WORKFLOWINTERNALSOURCE_votable&#45;&gt;List_from_column -->
<g id="edge6" class="edge"><title>WORKFLOWINTERNALSOURCE_votable&#45;&gt;List_from_column</title>
<path fill="none" stroke="black" d="M165.303,-607.475C169.925,-604.133 175.419,-600.833 181,-599 222.2,-585.469 328.627,-595.364 382.726,-591.456"/>
<polygon fill="black" stroke="black" points="383.198,-594.927 392.814,-590.48 382.523,-587.96 383.198,-594.927"/>
</g>
<!-- WORKFLOWINTERNALSOURCE_votable&#45;&gt;List_from_column_2 -->
<g id="edge10" class="edge"><title>WORKFLOWINTERNALSOURCE_votable&#45;&gt;List_from_column_2</title>
<path fill="none" stroke="black" d="M153,-607.212C153,-605.19 153,-603.013 153,-600.804"/>
<polygon fill="black" stroke="black" points="156.5,-600.683 153,-590.683 149.5,-600.683 156.5,-600.683"/>
</g>
<!-- WORKFLOWINTERNALSOURCE_votable&#45;&gt;tjoin -->
<g id="edge56" class="edge"><title>WORKFLOWINTERNALSOURCE_votable&#45;&gt;tjoin</title>
<path fill="none" stroke="black" d="M128.944,-611.025C118.754,-606.848 107.708,-600.459 101,-591 88.2736,-573.056 94,-563.999 94,-542 94,-542 94,-542 94,-200 94,-181.152 97.0606,-159.898 99.7953,-144.669"/>
<polygon fill="black" stroke="black" points="103.249,-145.243 101.681,-134.765 96.3723,-143.934 103.249,-145.243"/>
</g>
<!-- WORKFLOWINTERNALSOURCE_ColumnNameWithDataFile -->
<g id="node38" class="node"><title>WORKFLOWINTERNALSOURCE_ColumnNameWithDataFile</title>
<polygon fill="skyblue" stroke="black" points="315,-628.5 181,-628.5 181,-607.5 315,-607.5 315,-628.5"/>
<text text-anchor="middle" x="248" y="-615.5" font-family="Helvetica,sans-Serif" font-size="10.00">ColumnNameWithDataFile</text>
</g>
<!-- WORKFLOWINTERNALSOURCE_ColumnNameWithDataFile&#45;&gt;List_from_column_2 -->
<g id="edge12" class="edge"><title>WORKFLOWINTERNALSOURCE_ColumnNameWithDataFile&#45;&gt;List_from_column_2</title>
<path fill="none" stroke="black" d="M221.537,-607.415C211.346,-603.338 199.536,-598.614 188.62,-594.248"/>
<polygon fill="black" stroke="black" points="189.906,-590.993 179.321,-590.528 187.306,-597.492 189.906,-590.993"/>
</g>
<!-- WORKFLOWINTERNALSINKCONTROL -->
<g id="node40" class="node"><title>WORKFLOWINTERNALSINKCONTROL</title>
<polygon fill="#66cd00" stroke="black" points="387,-20 394,-30.5 380,-30.5 387,-20"/>
</g>
</g>
</svg>
