<?xml version="1.0" encoding="UTF-8" standalone="no"?>
<!DOCTYPE svg PUBLIC "-//W3C//DTD SVG 1.1//EN"
 "http://www.w3.org/Graphics/SVG/1.1/DTD/svg11.dtd">
<!-- Generated by graphviz version 2.26.0 (20091210.2329)
 -->
<!-- Title: t2flow_graph Pages: 1 -->
<svg width="206pt" height="370pt"
 viewBox="0.00 0.00 206.00 370.00" xmlns="http://www.w3.org/2000/svg" xmlns:xlink="http://www.w3.org/1999/xlink">
<g id="graph1" class="graph" transform="scale(1 1) rotate(0) translate(4 366)">
<title>t2flow_graph</title>
<polygon fill="white" stroke="white" points="-4,5 -4,-366 203,-366 203,5 -4,5"/>
<g id="graph2" class="cluster"><title>cluster_sources</title>
<polygon fill="none" stroke="black" stroke-dasharray="1,5" points="43,-295 43,-354 139,-354 139,-295 43,-295"/>
<text text-anchor="middle" x="87" y="-341" font-family="Helvetica,sans-Serif" font-size="10.00">Workflow Inputs</text>
</g>
<g id="graph3" class="cluster"><title>cluster_sinks</title>
<polygon fill="none" stroke="black" stroke-dasharray="1,5" points="8,-8 8,-67 190,-67 190,-8 8,-8"/>
<text text-anchor="middle" x="55.5" y="-54" font-family="Helvetica,sans-Serif" font-size="10.00">Workflow Outputs</text>
</g>
<!-- exClustalw -->
<g id="node1" class="node"><title>exClustalw</title>
<polygon fill="#a2cd5a" stroke="black" points="114,-248.5 50,-248.5 50,-227.5 114,-227.5 114,-248.5"/>
<text text-anchor="middle" x="82" y="-235.5" font-family="Helvetica,sans-Serif" font-size="10.00">exClustalw</text>
</g>
<!-- exClustalw_output -->
<g id="node3" class="node"><title>exClustalw_output</title>
<polygon fill="#ab92ea" stroke="black" points="131,-210.5 33,-210.5 33,-189.5 131,-189.5 131,-210.5"/>
<text text-anchor="middle" x="82" y="-197.5" font-family="Helvetica,sans-Serif" font-size="10.00">exClustalw_output</text>
</g>
<!-- exClustalw&#45;&gt;exClustalw_output -->
<g id="edge8" class="edge"><title>exClustalw&#45;&gt;exClustalw_output</title>
<path fill="none" stroke="black" d="M82,-227.212C82,-225.19 82,-223.013 82,-220.804"/>
<polygon fill="black" stroke="black" points="85.5001,-220.683 82,-210.683 78.5001,-220.683 85.5001,-220.683"/>
</g>
<!-- exClustalw_input -->
<g id="node2" class="node"><title>exClustalw_input</title>
<polygon fill="#ab92ea" stroke="black" points="128,-286.5 36,-286.5 36,-265.5 128,-265.5 128,-286.5"/>
<text text-anchor="middle" x="82" y="-273.5" font-family="Helvetica,sans-Serif" font-size="10.00">exClustalw_input</text>
</g>
<!-- exClustalw_input&#45;&gt;exClustalw -->
<g id="edge4" class="edge"><title>exClustalw_input&#45;&gt;exClustalw</title>
<path fill="none" stroke="black" d="M82,-265.212C82,-263.19 82,-261.013 82,-258.804"/>
<polygon fill="black" stroke="black" points="85.5001,-258.683 82,-248.683 78.5001,-258.683 85.5001,-258.683"/>
</g>
<!-- exPhylip_input -->
<g id="node5" class="node"><title>exPhylip_input</title>
<polygon fill="#ab92ea" stroke="black" points="97,-172.5 17,-172.5 17,-151.5 97,-151.5 97,-172.5"/>
<text text-anchor="middle" x="57" y="-159.5" font-family="Helvetica,sans-Serif" font-size="10.00">exPhylip_input</text>
</g>
<!-- exClustalw_output&#45;&gt;exPhylip_input -->
<g id="edge12" class="edge"><title>exClustalw_output&#45;&gt;exPhylip_input</title>
<path fill="none" stroke="black" d="M74.9029,-189.212C73.2527,-186.704 71.4469,-183.959 69.6374,-181.209"/>
<polygon fill="black" stroke="black" points="72.4485,-179.114 64.0283,-172.683 66.6006,-182.961 72.4485,-179.114"/>
</g>
<!-- WORKFLOWINTERNALSINK_saidaClustalw -->
<g id="node12" class="node"><title>WORKFLOWINTERNALSINK_saidaClustalw</title>
<polygon fill="#bcd2ee" stroke="black" points="164,-37.5 86,-37.5 86,-16.5 164,-16.5 164,-37.5"/>
<text text-anchor="middle" x="125" y="-24.5" font-family="Helvetica,sans-Serif" font-size="10.00">saidaClustalw</text>
</g>
<!-- exClustalw_output&#45;&gt;WORKFLOWINTERNALSINK_saidaClustalw -->
<g id="edge16" class="edge"><title>exClustalw_output&#45;&gt;WORKFLOWINTERNALSINK_saidaClustalw</title>
<path fill="none" stroke="black" d="M89.961,-189.474C93.2282,-184.677 96.7619,-178.786 99,-173 115.481,-130.391 121.606,-76.7049 123.814,-47.769"/>
<polygon fill="black" stroke="black" points="127.316,-47.852 124.501,-37.6381 120.332,-47.3784 127.316,-47.852"/>
</g>
<!-- exPhylip -->
<g id="node4" class="node"><title>exPhylip</title>
<polygon fill="#a2cd5a" stroke="black" points="83,-134.5 29,-134.5 29,-113.5 83,-113.5 83,-134.5"/>
<text text-anchor="middle" x="56" y="-121.5" font-family="Helvetica,sans-Serif" font-size="10.00">exPhylip</text>
</g>
<!-- exPhylip_output -->
<g id="node6" class="node"><title>exPhylip_output</title>
<polygon fill="#ab92ea" stroke="black" points="98,-96.5 12,-96.5 12,-75.5 98,-75.5 98,-96.5"/>
<text text-anchor="middle" x="55" y="-83.5" font-family="Helvetica,sans-Serif" font-size="10.00">exPhylip_output</text>
</g>
<!-- exPhylip&#45;&gt;exPhylip_output -->
<g id="edge14" class="edge"><title>exPhylip&#45;&gt;exPhylip_output</title>
<path fill="none" stroke="black" d="M55.7161,-113.212C55.6629,-111.19 55.6056,-109.013 55.5475,-106.804"/>
<polygon fill="black" stroke="black" points="59.0431,-106.588 55.2811,-96.6831 52.0455,-106.772 59.0431,-106.588"/>
</g>
<!-- exPhylip_input&#45;&gt;exPhylip -->
<g id="edge10" class="edge"><title>exPhylip_input&#45;&gt;exPhylip</title>
<path fill="none" stroke="black" d="M56.7161,-151.212C56.6629,-149.19 56.6056,-147.013 56.5475,-144.804"/>
<polygon fill="black" stroke="black" points="60.0431,-144.588 56.2811,-134.683 53.0455,-144.772 60.0431,-144.588"/>
</g>
<!-- WORKFLOWINTERNALSINK_saidaPhylip -->
<g id="node13" class="node"><title>WORKFLOWINTERNALSINK_saidaPhylip</title>
<polygon fill="#bcd2ee" stroke="black" points="82,-37.5 16,-37.5 16,-16.5 82,-16.5 82,-37.5"/>
<text text-anchor="middle" x="49" y="-24.5" font-family="Helvetica,sans-Serif" font-size="10.00">saidaPhylip</text>
</g>
<!-- exPhylip_output&#45;&gt;WORKFLOWINTERNALSINK_saidaPhylip -->
<g id="edge18" class="edge"><title>exPhylip_output&#45;&gt;WORKFLOWINTERNALSINK_saidaPhylip</title>
<path fill="none" stroke="black" d="M53.9273,-75.452C53.1521,-67.8285 52.079,-57.2768 51.1321,-47.966"/>
<polygon fill="black" stroke="black" points="54.5978,-47.4504 50.104,-37.8559 47.6338,-48.1587 54.5978,-47.4504"/>
</g>
<!-- WORKFLOWINTERNALSOURCECONTROL -->
<g id="node8" class="node"><title>WORKFLOWINTERNALSOURCECONTROL</title>
<polygon fill="#ff4040" stroke="black" points="124,-321 117,-310.5 131,-310.5 124,-321"/>
</g>
<!-- WORKFLOWINTERNALSOURCE_Sequencia -->
<g id="node9" class="node"><title>WORKFLOWINTERNALSOURCE_Sequencia</title>
<polygon fill="skyblue" stroke="black" points="113,-324.5 51,-324.5 51,-303.5 113,-303.5 113,-324.5"/>
<text text-anchor="middle" x="82" y="-311.5" font-family="Helvetica,sans-Serif" font-size="10.00">Sequencia</text>
</g>
<!-- WORKFLOWINTERNALSOURCE_Sequencia&#45;&gt;exClustalw_input -->
<g id="edge6" class="edge"><title>WORKFLOWINTERNALSOURCE_Sequencia&#45;&gt;exClustalw_input</title>
<path fill="none" stroke="black" d="M82,-303.212C82,-301.19 82,-299.013 82,-296.804"/>
<polygon fill="black" stroke="black" points="85.5001,-296.683 82,-286.683 78.5001,-296.683 85.5001,-296.683"/>
</g>
<!-- WORKFLOWINTERNALSINKCONTROL -->
<g id="node11" class="node"><title>WORKFLOWINTERNALSINKCONTROL</title>
<polygon fill="#66cd00" stroke="black" points="175,-20 182,-30.5 168,-30.5 175,-20"/>
</g>
</g>
</svg>
