<?xml version="1.0" encoding="UTF-8" standalone="no"?>
<!DOCTYPE svg PUBLIC "-//W3C//DTD SVG 1.1//EN"
 "http://www.w3.org/Graphics/SVG/1.1/DTD/svg11.dtd">
<!-- Generated by graphviz version 2.26.0 (20091210.2329)
 -->
<!-- Title: t2flow_graph Pages: 1 -->
<svg width="704pt" height="524pt"
 viewBox="0.00 0.00 704.00 524.00" xmlns="http://www.w3.org/2000/svg" xmlns:xlink="http://www.w3.org/1999/xlink">
<g id="graph1" class="graph" transform="scale(1 1) rotate(0) translate(4 520)">
<title>t2flow_graph</title>
<polygon fill="white" stroke="white" points="-4,5 -4,-520 701,-520 701,5 -4,5"/>
<g id="graph2" class="cluster"><title>cluster_ErrorHandlerErrorHandler</title>
<polygon fill="aliceblue" stroke="black" points="8,-180 8,-373 138,-373 138,-180 8,-180"/>
<text text-anchor="middle" x="43.5" y="-360" font-family="Helvetica,sans-Serif" font-size="10.00">ErrorHandler</text>
</g>
<g id="graph3" class="cluster"><title>cluster_ErrorHandlersources</title>
<polygon fill="none" stroke="black" stroke-dasharray="1,5" points="20,-285 20,-344 130,-344 130,-285 20,-285"/>
<text text-anchor="middle" x="64" y="-331" font-family="Helvetica,sans-Serif" font-size="10.00">Workflow Inputs</text>
</g>
<g id="graph4" class="cluster"><title>cluster_ErrorHandlersinks</title>
<polygon fill="none" stroke="black" stroke-dasharray="1,5" points="16,-188 16,-247 130,-247 130,-188 16,-188"/>
<text text-anchor="middle" x="63.5" y="-234" font-family="Helvetica,sans-Serif" font-size="10.00">Workflow Outputs</text>
</g>
<g id="graph5" class="cluster"><title>cluster_ParseJSONOutputParseJSONOutput</title>
<polygon fill="aliceblue" stroke="black" points="146,-105 146,-373 688,-373 688,-105 146,-105"/>
<text text-anchor="middle" x="195" y="-360" font-family="Helvetica,sans-Serif" font-size="10.00">ParseJSONOutput</text>
</g>
<g id="graph6" class="cluster"><title>cluster_ParseJSONOutputsources</title>
<polygon fill="none" stroke="black" stroke-dasharray="1,5" points="216,-285 216,-344 402,-344 402,-285 216,-285"/>
<text text-anchor="middle" x="260" y="-331" font-family="Helvetica,sans-Serif" font-size="10.00">Workflow Inputs</text>
</g>
<g id="graph7" class="cluster"><title>cluster_ParseJSONOutputsinks</title>
<polygon fill="none" stroke="black" stroke-dasharray="1,5" points="154,-113 154,-172 680,-172 680,-113 154,-113"/>
<text text-anchor="middle" x="201.5" y="-159" font-family="Helvetica,sans-Serif" font-size="10.00">Workflow Outputs</text>
</g>
<g id="graph8" class="cluster"><title>cluster_sources</title>
<polygon fill="none" stroke="black" stroke-dasharray="1,5" points="20,-449 20,-508 402,-508 402,-449 20,-449"/>
<text text-anchor="middle" x="64" y="-495" font-family="Helvetica,sans-Serif" font-size="10.00">Workflow Inputs</text>
</g>
<g id="graph9" class="cluster"><title>cluster_sinks</title>
<polygon fill="none" stroke="black" stroke-dasharray="1,5" points="175,-8 175,-67 565,-67 565,-8 175,-8"/>
<text text-anchor="middle" x="222.5" y="-54" font-family="Helvetica,sans-Serif" font-size="10.00">Workflow Outputs</text>
</g>
<!-- raster_upload_service -->
<g id="node1" class="node"><title>raster_upload_service</title>
<polygon fill="#7aafff" stroke="black" points="281,-440.5 169,-440.5 169,-419.5 281,-419.5 281,-440.5"/>
<text text-anchor="middle" x="225" y="-427.5" font-family="Helvetica,sans-Serif" font-size="10.00">raster_upload_service</text>
</g>
<!-- check_service_ok -->
<g id="node2" class="node"><title>check_service_ok</title>
<polygon fill="#deb887" stroke="black" points="272,-402.5 178,-402.5 178,-381.5 272,-381.5 272,-402.5"/>
<text text-anchor="middle" x="225" y="-389.5" font-family="Helvetica,sans-Serif" font-size="10.00">check_service_ok</text>
</g>
<!-- raster_upload_service&#45;&gt;check_service_ok -->
<g id="edge42" class="edge"><title>raster_upload_service&#45;&gt;check_service_ok</title>
<path fill="none" stroke="black" d="M225,-419.212C225,-417.19 225,-415.013 225,-412.804"/>
<polygon fill="black" stroke="black" points="228.5,-412.683 225,-402.683 221.5,-412.683 228.5,-412.683"/>
</g>
<!-- ParseJSONOutputWORKFLOWINTERNALSOURCE_json -->
<g id="node21" class="node"><title>ParseJSONOutputWORKFLOWINTERNALSOURCE_json</title>
<polygon fill="skyblue" stroke="black" points="312,-314.5 278,-314.5 278,-293.5 312,-293.5 312,-314.5"/>
<text text-anchor="middle" x="295" y="-301.5" font-family="Helvetica,sans-Serif" font-size="10.00">json</text>
</g>
<!-- raster_upload_service&#45;&gt;ParseJSONOutputWORKFLOWINTERNALSOURCE_json -->
<g id="edge52" class="edge"><title>raster_upload_service&#45;&gt;ParseJSONOutputWORKFLOWINTERNALSOURCE_json</title>
<path fill="none" stroke="black" d="M253.777,-419.386C261.359,-415.322 268.851,-409.944 274,-403 291.023,-380.046 294.892,-346.297 295.45,-324.735"/>
<polygon fill="black" stroke="black" points="298.95,-324.707 295.492,-314.693 291.95,-324.678 298.95,-324.707"/>
</g>
<!-- ErrorHandlerWORKFLOWINTERNALSOURCE_status -->
<g id="node7" class="node"><title>ErrorHandlerWORKFLOWINTERNALSOURCE_status</title>
<polygon fill="skyblue" stroke="black" points="104,-314.5 60,-314.5 60,-293.5 104,-293.5 104,-314.5"/>
<text text-anchor="middle" x="82" y="-301.5" font-family="Helvetica,sans-Serif" font-size="10.00">status</text>
</g>
<!-- check_service_ok&#45;&gt;ErrorHandlerWORKFLOWINTERNALSOURCE_status -->
<g id="edge44" class="edge"><title>check_service_ok&#45;&gt;ErrorHandlerWORKFLOWINTERNALSOURCE_status</title>
<path fill="none" stroke="black" d="M177.881,-389.116C150.227,-386.527 118.671,-381.731 108,-373 93.5694,-361.194 87.143,-340.487 84.2842,-324.829"/>
<polygon fill="black" stroke="black" points="87.686,-323.904 82.7696,-314.519 80.7603,-324.921 87.686,-323.904"/>
</g>
<!-- ParseJSONOutputWORKFLOWINTERNALSOURCE_sentinel -->
<g id="node20" class="node"><title>ParseJSONOutputWORKFLOWINTERNALSOURCE_sentinel</title>
<polygon fill="skyblue" stroke="black" points="274,-314.5 224,-314.5 224,-293.5 274,-293.5 274,-314.5"/>
<text text-anchor="middle" x="249" y="-301.5" font-family="Helvetica,sans-Serif" font-size="10.00">sentinel</text>
</g>
<!-- check_service_ok&#45;&gt;ParseJSONOutputWORKFLOWINTERNALSOURCE_sentinel -->
<g id="edge48" class="edge"><title>check_service_ok&#45;&gt;ParseJSONOutputWORKFLOWINTERNALSOURCE_sentinel</title>
<path fill="none" stroke="black" d="M227.943,-381.209C231.778,-367.147 238.564,-342.264 243.396,-324.548"/>
<polygon fill="black" stroke="black" points="246.853,-325.172 246.108,-314.604 240.1,-323.331 246.853,-325.172"/>
</g>
<!-- ErrorHandlercreate_error_message -->
<g id="node4" class="node"><title>ErrorHandlercreate_error_message</title>
<polygon fill="#d15fee" stroke="black" points="128,-276.5 16,-276.5 16,-255.5 128,-255.5 128,-276.5"/>
<text text-anchor="middle" x="72" y="-263.5" font-family="Helvetica,sans-Serif" font-size="10.00">create_error_message</text>
</g>
<!-- ErrorHandlerWORKFLOWINTERNALSINK_error_message -->
<g id="node11" class="node"><title>ErrorHandlerWORKFLOWINTERNALSINK_error_message</title>
<polygon fill="#bcd2ee" stroke="black" points="104,-217.5 24,-217.5 24,-196.5 104,-196.5 104,-217.5"/>
<text text-anchor="middle" x="64" y="-204.5" font-family="Helvetica,sans-Serif" font-size="10.00">error_message</text>
</g>
<!-- ErrorHandlercreate_error_message&#45;&gt;ErrorHandlerWORKFLOWINTERNALSINK_error_message -->
<g id="edge9" class="edge"><title>ErrorHandlercreate_error_message&#45;&gt;ErrorHandlerWORKFLOWINTERNALSINK_error_message</title>
<path fill="none" stroke="black" d="M70.5698,-255.452C69.5361,-247.829 68.1053,-237.277 66.8429,-227.966"/>
<polygon fill="black" stroke="black" points="70.284,-227.295 65.472,-217.856 63.3474,-228.235 70.284,-227.295"/>
</g>
<!-- ErrorHandlerWORKFLOWINTERNALSOURCECONTROL -->
<g id="node6" class="node"><title>ErrorHandlerWORKFLOWINTERNALSOURCECONTROL</title>
<polygon fill="#ff4040" stroke="black" points="115,-311 108,-300.5 122,-300.5 115,-311"/>
</g>
<!-- ErrorHandlerWORKFLOWINTERNALSOURCE_status&#45;&gt;ErrorHandlercreate_error_message -->
<g id="edge5" class="edge"><title>ErrorHandlerWORKFLOWINTERNALSOURCE_status&#45;&gt;ErrorHandlercreate_error_message</title>
<path fill="none" stroke="black" d="M79.1611,-293.212C78.6075,-291.109 78.0102,-288.839 77.4048,-286.538"/>
<polygon fill="black" stroke="black" points="80.7411,-285.463 74.8113,-276.683 73.9716,-287.245 80.7411,-285.463"/>
</g>
<!-- ErrorHandlerWORKFLOWINTERNALSOURCE_file -->
<g id="node8" class="node"><title>ErrorHandlerWORKFLOWINTERNALSOURCE_file</title>
<polygon fill="skyblue" stroke="black" points="56,-314.5 28,-314.5 28,-293.5 56,-293.5 56,-314.5"/>
<text text-anchor="middle" x="42" y="-301.5" font-family="Helvetica,sans-Serif" font-size="10.00">file</text>
</g>
<!-- ErrorHandlerWORKFLOWINTERNALSOURCE_file&#45;&gt;ErrorHandlercreate_error_message -->
<g id="edge7" class="edge"><title>ErrorHandlerWORKFLOWINTERNALSOURCE_file&#45;&gt;ErrorHandlercreate_error_message</title>
<path fill="none" stroke="black" d="M50.5166,-293.212C52.6245,-290.542 54.944,-287.604 57.2555,-284.676"/>
<polygon fill="black" stroke="black" points="60.1166,-286.701 63.566,-276.683 54.6224,-282.363 60.1166,-286.701"/>
</g>
<!-- ErrorHandlerWORKFLOWINTERNALSINKCONTROL -->
<g id="node10" class="node"><title>ErrorHandlerWORKFLOWINTERNALSINKCONTROL</title>
<polygon fill="#66cd00" stroke="black" points="115,-200 122,-210.5 108,-210.5 115,-200"/>
</g>
<!-- WORKFLOWINTERNALSINK_service_error -->
<g id="node50" class="node"><title>WORKFLOWINTERNALSINK_service_error</title>
<polygon fill="#bcd2ee" stroke="black" points="255,-37.5 183,-37.5 183,-16.5 255,-16.5 255,-37.5"/>
<text text-anchor="middle" x="219" y="-24.5" font-family="Helvetica,sans-Serif" font-size="10.00">service_error</text>
</g>
<!-- ErrorHandlerWORKFLOWINTERNALSINK_error_message&#45;&gt;WORKFLOWINTERNALSINK_service_error -->
<g id="edge64" class="edge"><title>ErrorHandlerWORKFLOWINTERNALSINK_error_message&#45;&gt;WORKFLOWINTERNALSINK_service_error</title>
<path fill="none" stroke="black" d="M64.4765,-196.289C66.1249,-171.732 73.4569,-110.742 106,-75 123.5,-55.7796 149.971,-43.9786 172.894,-36.8899"/>
<polygon fill="black" stroke="black" points="174.153,-40.1699 182.797,-34.0437 172.219,-33.4422 174.153,-40.1699"/>
</g>
<!-- ParseJSONOutputparse_json_raster_shim_results -->
<g id="node16" class="node"><title>ParseJSONOutputparse_json_raster_shim_results</title>
<polygon fill="#deb887" stroke="black" points="387,-276.5 233,-276.5 233,-255.5 387,-255.5 387,-276.5"/>
<text text-anchor="middle" x="310" y="-263.5" font-family="Helvetica,sans-Serif" font-size="10.00">parse_json_raster_shim_results</text>
</g>
<!-- ParseJSONOutputcreate_STIF_rasterlayer_parameter -->
<g id="node17" class="node"><title>ParseJSONOutputcreate_STIF_rasterlayer_parameter</title>
<polygon fill="#d15fee" stroke="black" points="494,-217.5 324,-217.5 324,-196.5 494,-196.5 494,-217.5"/>
<text text-anchor="middle" x="409" y="-204.5" font-family="Helvetica,sans-Serif" font-size="10.00">create_STIF_rasterlayer_parameter</text>
</g>
<!-- ParseJSONOutputparse_json_raster_shim_results&#45;&gt;ParseJSONOutputcreate_STIF_rasterlayer_parameter -->
<g id="edge18" class="edge"><title>ParseJSONOutputparse_json_raster_shim_results&#45;&gt;ParseJSONOutputcreate_STIF_rasterlayer_parameter</title>
<path fill="none" stroke="black" d="M327.699,-255.452C342.81,-246.447 364.776,-233.356 382.068,-223.05"/>
<polygon fill="black" stroke="black" points="384.322,-225.782 391.12,-217.656 380.738,-219.769 384.322,-225.782"/>
</g>
<!-- ParseJSONOutputWORKFLOWINTERNALSINK_raster_layername -->
<g id="node25" class="node"><title>ParseJSONOutputWORKFLOWINTERNALSINK_raster_layername</title>
<polygon fill="#bcd2ee" stroke="black" points="254,-142.5 162,-142.5 162,-121.5 254,-121.5 254,-142.5"/>
<text text-anchor="middle" x="208" y="-129.5" font-family="Helvetica,sans-Serif" font-size="10.00">raster_layername</text>
</g>
<!-- ParseJSONOutputparse_json_raster_shim_results&#45;&gt;ParseJSONOutputWORKFLOWINTERNALSINK_raster_layername -->
<g id="edge20" class="edge"><title>ParseJSONOutputparse_json_raster_shim_results&#45;&gt;ParseJSONOutputWORKFLOWINTERNALSINK_raster_layername</title>
<path fill="none" stroke="black" d="M301.996,-255.485C284.802,-232.896 244.133,-179.469 222.355,-150.859"/>
<polygon fill="black" stroke="black" points="225.092,-148.675 216.25,-142.838 219.522,-152.915 225.092,-148.675"/>
</g>
<!-- ParseJSONOutputWORKFLOWINTERNALSINK_rasterlayer_wmsurl -->
<g id="node26" class="node"><title>ParseJSONOutputWORKFLOWINTERNALSINK_rasterlayer_wmsurl</title>
<polygon fill="#bcd2ee" stroke="black" points="356,-142.5 258,-142.5 258,-121.5 356,-121.5 356,-142.5"/>
<text text-anchor="middle" x="307" y="-129.5" font-family="Helvetica,sans-Serif" font-size="10.00">rasterlayer_wmsurl</text>
</g>
<!-- ParseJSONOutputparse_json_raster_shim_results&#45;&gt;ParseJSONOutputWORKFLOWINTERNALSINK_rasterlayer_wmsurl -->
<g id="edge22" class="edge"><title>ParseJSONOutputparse_json_raster_shim_results&#45;&gt;ParseJSONOutputWORKFLOWINTERNALSINK_rasterlayer_wmsurl</title>
<path fill="none" stroke="black" d="M309.765,-255.485C309.272,-233.48 308.124,-182.212 307.473,-153.127"/>
<polygon fill="black" stroke="black" points="310.966,-152.757 307.243,-142.838 303.967,-152.914 310.966,-152.757"/>
</g>
<!-- ParseJSONOutputWORKFLOWINTERNALSINK_rasterlayer_wcsurl -->
<g id="node27" class="node"><title>ParseJSONOutputWORKFLOWINTERNALSINK_rasterlayer_wcsurl</title>
<polygon fill="#bcd2ee" stroke="black" points="456,-142.5 360,-142.5 360,-121.5 456,-121.5 456,-142.5"/>
<text text-anchor="middle" x="408" y="-129.5" font-family="Helvetica,sans-Serif" font-size="10.00">rasterlayer_wcsurl</text>
</g>
<!-- ParseJSONOutputparse_json_raster_shim_results&#45;&gt;ParseJSONOutputWORKFLOWINTERNALSINK_rasterlayer_wcsurl -->
<g id="edge24" class="edge"><title>ParseJSONOutputparse_json_raster_shim_results&#45;&gt;ParseJSONOutputWORKFLOWINTERNALSINK_rasterlayer_wcsurl</title>
<path fill="none" stroke="black" d="M309.477,-255.221C308.718,-234.647 308.322,-190.858 318,-180 329.484,-167.116 340.324,-179.22 356,-172 368.162,-166.399 380.12,-157.506 389.497,-149.527"/>
<polygon fill="black" stroke="black" points="391.857,-152.111 397.012,-142.855 387.21,-146.876 391.857,-152.111"/>
</g>
<!-- ParseJSONOutputWORKFLOWINTERNALSINK_raster_png_url -->
<g id="node28" class="node"><title>ParseJSONOutputWORKFLOWINTERNALSINK_raster_png_url</title>
<polygon fill="#bcd2ee" stroke="black" points="538,-142.5 460,-142.5 460,-121.5 538,-121.5 538,-142.5"/>
<text text-anchor="middle" x="499" y="-129.5" font-family="Helvetica,sans-Serif" font-size="10.00">raster_png_url</text>
</g>
<!-- ParseJSONOutputparse_json_raster_shim_results&#45;&gt;ParseJSONOutputWORKFLOWINTERNALSINK_raster_png_url -->
<g id="edge26" class="edge"><title>ParseJSONOutputparse_json_raster_shim_results&#45;&gt;ParseJSONOutputWORKFLOWINTERNALSINK_raster_png_url</title>
<path fill="none" stroke="black" d="M312.396,-255.17C312.953,-252.505 313.523,-249.654 314,-247 316.663,-232.184 312.899,-190.168 324,-180 334.835,-170.075 442.495,-177.788 456,-172 466.965,-167.301 476.889,-158.542 484.433,-150.416"/>
<polygon fill="black" stroke="black" points="487.236,-152.525 491.134,-142.674 481.943,-147.944 487.236,-152.525"/>
</g>
<!-- ParseJSONOutputWORKFLOWINTERNALSINK_STIF_layerdescription -->
<g id="node29" class="node"><title>ParseJSONOutputWORKFLOWINTERNALSINK_STIF_layerdescription</title>
<polygon fill="#bcd2ee" stroke="black" points="654,-142.5 542,-142.5 542,-121.5 654,-121.5 654,-142.5"/>
<text text-anchor="middle" x="598" y="-129.5" font-family="Helvetica,sans-Serif" font-size="10.00">STIF_layerdescription</text>
</g>
<!-- ParseJSONOutputcreate_STIF_rasterlayer_parameter&#45;&gt;ParseJSONOutputWORKFLOWINTERNALSINK_STIF_layerdescription -->
<g id="edge28" class="edge"><title>ParseJSONOutputcreate_STIF_rasterlayer_parameter&#45;&gt;ParseJSONOutputWORKFLOWINTERNALSINK_STIF_layerdescription</title>
<path fill="none" stroke="black" d="M463.07,-196.441C486.689,-190.794 514.338,-182.751 538,-172 551.67,-165.789 565.701,-156.618 576.754,-148.623"/>
<polygon fill="black" stroke="black" points="578.988,-151.324 584.916,-142.544 574.806,-145.71 578.988,-151.324"/>
</g>
<!-- ParseJSONOutputWORKFLOWINTERNALSOURCECONTROL -->
<g id="node19" class="node"><title>ParseJSONOutputWORKFLOWINTERNALSOURCECONTROL</title>
<polygon fill="#ff4040" stroke="black" points="387,-311 380,-300.5 394,-300.5 387,-311"/>
</g>
<!-- ParseJSONOutputWORKFLOWINTERNALSOURCE_json&#45;&gt;ParseJSONOutputparse_json_raster_shim_results -->
<g id="edge14" class="edge"><title>ParseJSONOutputWORKFLOWINTERNALSOURCE_json&#45;&gt;ParseJSONOutputparse_json_raster_shim_results</title>
<path fill="none" stroke="black" d="M299.258,-293.212C300.153,-290.947 301.123,-288.488 302.103,-286.007"/>
<polygon fill="black" stroke="black" points="305.367,-287.27 305.783,-276.683 298.856,-284.7 305.367,-287.27"/>
</g>
<!-- ParseJSONOutputWORKFLOWINTERNALSOURCE_layerLabel -->
<g id="node22" class="node"><title>ParseJSONOutputWORKFLOWINTERNALSOURCE_layerLabel</title>
<polygon fill="skyblue" stroke="black" points="376,-314.5 316,-314.5 316,-293.5 376,-293.5 376,-314.5"/>
<text text-anchor="middle" x="346" y="-301.5" font-family="Helvetica,sans-Serif" font-size="10.00">layerLabel</text>
</g>
<!-- ParseJSONOutputWORKFLOWINTERNALSOURCE_layerLabel&#45;&gt;ParseJSONOutputcreate_STIF_rasterlayer_parameter -->
<g id="edge16" class="edge"><title>ParseJSONOutputWORKFLOWINTERNALSOURCE_layerLabel&#45;&gt;ParseJSONOutputcreate_STIF_rasterlayer_parameter</title>
<path fill="none" stroke="black" d="M365.89,-293.353C375.527,-287.841 385.718,-281.37 389,-277 399.767,-262.665 404.742,-242.726 407.039,-227.793"/>
<polygon fill="black" stroke="black" points="410.555,-227.883 408.324,-217.525 403.609,-227.013 410.555,-227.883"/>
</g>
<!-- ParseJSONOutputWORKFLOWINTERNALSINKCONTROL -->
<g id="node24" class="node"><title>ParseJSONOutputWORKFLOWINTERNALSINKCONTROL</title>
<polygon fill="#66cd00" stroke="black" points="665,-125 672,-135.5 658,-135.5 665,-125"/>
</g>
<!-- flatten_outputs -->
<g id="node38" class="node"><title>flatten_outputs</title>
<polygon fill="#deb887" stroke="black" points="499,-96.5 419,-96.5 419,-75.5 499,-75.5 499,-96.5"/>
<text text-anchor="middle" x="459" y="-83.5" font-family="Helvetica,sans-Serif" font-size="10.00">flatten_outputs</text>
</g>
<!-- ParseJSONOutputWORKFLOWINTERNALSINK_raster_layername&#45;&gt;flatten_outputs -->
<g id="edge56" class="edge"><title>ParseJSONOutputWORKFLOWINTERNALSINK_raster_layername&#45;&gt;flatten_outputs</title>
<path fill="none" stroke="black" d="M223.938,-121.251C233.417,-115.418 245.917,-108.668 258,-105 285.221,-96.7377 358.729,-91.3144 408.884,-88.4516"/>
<polygon fill="black" stroke="black" points="409.105,-91.9449 418.895,-87.8963 408.717,-84.9557 409.105,-91.9449"/>
</g>
<!-- ParseJSONOutputWORKFLOWINTERNALSINK_raster_png_url&#45;&gt;flatten_outputs -->
<g id="edge58" class="edge"><title>ParseJSONOutputWORKFLOWINTERNALSINK_raster_png_url&#45;&gt;flatten_outputs</title>
<path fill="none" stroke="black" d="M489.723,-121.331C485.381,-116.338 480.082,-110.244 475.116,-104.533"/>
<polygon fill="black" stroke="black" points="477.43,-101.861 468.227,-96.6111 472.148,-106.454 477.43,-101.861"/>
</g>
<!-- ParseJSONOutputWORKFLOWINTERNALSINK_STIF_layerdescription&#45;&gt;flatten_outputs -->
<g id="edge54" class="edge"><title>ParseJSONOutputWORKFLOWINTERNALSINK_STIF_layerdescription&#45;&gt;flatten_outputs</title>
<path fill="none" stroke="black" d="M577.008,-121.39C565.665,-115.956 551.294,-109.545 538,-105 528.787,-101.85 518.799,-99.0175 509.124,-96.5601"/>
<polygon fill="black" stroke="black" points="509.745,-93.109 499.2,-94.1375 508.084,-99.9093 509.745,-93.109"/>
</g>
<!-- WORKFLOWINTERNALSINK_rasterlayer_pngurl -->
<g id="node48" class="node"><title>WORKFLOWINTERNALSINK_rasterlayer_pngurl</title>
<polygon fill="#bcd2ee" stroke="black" points="353,-37.5 259,-37.5 259,-16.5 353,-16.5 353,-37.5"/>
<text text-anchor="middle" x="306" y="-24.5" font-family="Helvetica,sans-Serif" font-size="10.00">rasterlayer_pngurl</text>
</g>
<!-- flatten_outputs&#45;&gt;WORKFLOWINTERNALSINK_rasterlayer_pngurl -->
<g id="edge60" class="edge"><title>flatten_outputs&#45;&gt;WORKFLOWINTERNALSINK_rasterlayer_pngurl</title>
<path fill="none" stroke="black" d="M418.92,-83.0229C399.552,-80.4778 376.368,-75.7569 357,-67 344.911,-61.5339 333.139,-52.6179 323.957,-44.5892"/>
<polygon fill="black" stroke="black" points="326.055,-41.7647 316.317,-37.5899 321.326,-46.926 326.055,-41.7647"/>
</g>
<!-- WORKFLOWINTERNALSINK_layer_name -->
<g id="node49" class="node"><title>WORKFLOWINTERNALSINK_layer_name</title>
<polygon fill="#bcd2ee" stroke="black" points="539,-37.5 473,-37.5 473,-16.5 539,-16.5 539,-37.5"/>
<text text-anchor="middle" x="506" y="-24.5" font-family="Helvetica,sans-Serif" font-size="10.00">layer_name</text>
</g>
<!-- flatten_outputs&#45;&gt;WORKFLOWINTERNALSINK_layer_name -->
<g id="edge62" class="edge"><title>flatten_outputs&#45;&gt;WORKFLOWINTERNALSINK_layer_name</title>
<path fill="none" stroke="black" d="M467.403,-75.452C473.938,-67.2485 483.174,-55.6541 490.973,-45.8641"/>
<polygon fill="black" stroke="black" points="493.859,-47.8583 497.352,-37.8559 488.384,-43.4967 493.859,-47.8583"/>
</g>
<!-- WORKFLOWINTERNALSINK_STIF_layerdescription -->
<g id="node51" class="node"><title>WORKFLOWINTERNALSINK_STIF_layerdescription</title>
<polygon fill="#bcd2ee" stroke="black" points="469,-37.5 357,-37.5 357,-16.5 469,-16.5 469,-37.5"/>
<text text-anchor="middle" x="413" y="-24.5" font-family="Helvetica,sans-Serif" font-size="10.00">STIF_layerdescription</text>
</g>
<!-- flatten_outputs&#45;&gt;WORKFLOWINTERNALSINK_STIF_layerdescription -->
<g id="edge66" class="edge"><title>flatten_outputs&#45;&gt;WORKFLOWINTERNALSINK_STIF_layerdescription</title>
<path fill="none" stroke="black" d="M450.776,-75.452C444.38,-67.2485 435.341,-55.6541 427.708,-45.8641"/>
<polygon fill="black" stroke="black" points="430.373,-43.5902 421.464,-37.8559 424.852,-47.8943 430.373,-43.5902"/>
</g>
<!-- WORKFLOWINTERNALSOURCECONTROL -->
<g id="node40" class="node"><title>WORKFLOWINTERNALSOURCECONTROL</title>
<polygon fill="#ff4040" stroke="black" points="387,-475 380,-464.5 394,-464.5 387,-475"/>
</g>
<!-- WORKFLOWINTERNALSOURCE_sourceURL -->
<g id="node41" class="node"><title>WORKFLOWINTERNALSOURCE_sourceURL</title>
<polygon fill="skyblue" stroke="black" points="94,-478.5 28,-478.5 28,-457.5 94,-457.5 94,-478.5"/>
<text text-anchor="middle" x="61" y="-465.5" font-family="Helvetica,sans-Serif" font-size="10.00">sourceURL</text>
</g>
<!-- WORKFLOWINTERNALSOURCE_sourceURL&#45;&gt;raster_upload_service -->
<g id="edge32" class="edge"><title>WORKFLOWINTERNALSOURCE_sourceURL&#45;&gt;raster_upload_service</title>
<path fill="none" stroke="black" d="M78.9355,-457.303C84.8339,-454.194 91.5388,-451.08 98,-449 117.246,-442.804 138.795,-438.614 158.599,-435.785"/>
<polygon fill="black" stroke="black" points="159.326,-439.219 168.775,-434.427 158.399,-432.281 159.326,-439.219"/>
</g>
<!-- WORKFLOWINTERNALSOURCE_sourceURL&#45;&gt;ErrorHandlerWORKFLOWINTERNALSOURCE_file -->
<g id="edge46" class="edge"><title>WORKFLOWINTERNALSOURCE_sourceURL&#45;&gt;ErrorHandlerWORKFLOWINTERNALSOURCE_file</title>
<path fill="none" stroke="black" d="M59.7534,-457.24C56.6394,-430.361 48.4788,-359.922 44.3969,-324.689"/>
<polygon fill="black" stroke="black" points="47.8542,-324.118 43.2265,-314.587 40.9007,-324.923 47.8542,-324.118"/>
</g>
<!-- WORKFLOWINTERNALSOURCE_layerLabel -->
<g id="node42" class="node"><title>WORKFLOWINTERNALSOURCE_layerLabel</title>
<polygon fill="skyblue" stroke="black" points="376,-478.5 316,-478.5 316,-457.5 376,-457.5 376,-478.5"/>
<text text-anchor="middle" x="346" y="-465.5" font-family="Helvetica,sans-Serif" font-size="10.00">layerLabel</text>
</g>
<!-- WORKFLOWINTERNALSOURCE_layerLabel&#45;&gt;raster_upload_service -->
<g id="edge38" class="edge"><title>WORKFLOWINTERNALSOURCE_layerLabel&#45;&gt;raster_upload_service</title>
<path fill="none" stroke="black" d="M329.179,-457.313C323.844,-454.279 317.817,-451.205 312,-449 305.341,-446.476 298.262,-444.245 291.129,-442.284"/>
<polygon fill="black" stroke="black" points="291.961,-438.884 281.404,-439.774 290.212,-445.662 291.961,-438.884"/>
</g>
<!-- WORKFLOWINTERNALSOURCE_layerLabel&#45;&gt;ParseJSONOutputWORKFLOWINTERNALSOURCE_layerLabel -->
<g id="edge50" class="edge"><title>WORKFLOWINTERNALSOURCE_layerLabel&#45;&gt;ParseJSONOutputWORKFLOWINTERNALSOURCE_layerLabel</title>
<path fill="none" stroke="black" d="M346,-457.24C346,-430.361 346,-359.922 346,-324.689"/>
<polygon fill="black" stroke="black" points="349.5,-324.587 346,-314.587 342.5,-324.587 349.5,-324.587"/>
</g>
<!-- WORKFLOWINTERNALSOURCE_workspace -->
<g id="node43" class="node"><title>WORKFLOWINTERNALSOURCE_workspace</title>
<polygon fill="skyblue" stroke="black" points="312,-478.5 248,-478.5 248,-457.5 312,-457.5 312,-478.5"/>
<text text-anchor="middle" x="280" y="-465.5" font-family="Helvetica,sans-Serif" font-size="10.00">workspace</text>
</g>
<!-- WORKFLOWINTERNALSOURCE_workspace&#45;&gt;raster_upload_service -->
<g id="edge40" class="edge"><title>WORKFLOWINTERNALSOURCE_workspace&#45;&gt;raster_upload_service</title>
<path fill="none" stroke="black" d="M264.679,-457.415C259.673,-453.956 253.992,-450.031 248.525,-446.254"/>
<polygon fill="black" stroke="black" points="250.455,-443.333 240.238,-440.528 246.476,-449.092 250.455,-443.333"/>
</g>
<!-- WORKFLOWINTERNALSOURCE_raster_style -->
<g id="node44" class="node"><title>WORKFLOWINTERNALSOURCE_raster_style</title>
<polygon fill="skyblue" stroke="black" points="244,-478.5 176,-478.5 176,-457.5 244,-457.5 244,-478.5"/>
<text text-anchor="middle" x="210" y="-465.5" font-family="Helvetica,sans-Serif" font-size="10.00">raster_style</text>
</g>
<!-- WORKFLOWINTERNALSOURCE_raster_style&#45;&gt;raster_upload_service -->
<g id="edge34" class="edge"><title>WORKFLOWINTERNALSOURCE_raster_style&#45;&gt;raster_upload_service</title>
<path fill="none" stroke="black" d="M214.258,-457.212C215.153,-454.947 216.123,-452.488 217.103,-450.007"/>
<polygon fill="black" stroke="black" points="220.367,-451.27 220.783,-440.683 213.856,-448.7 220.367,-451.27"/>
</g>
<!-- WORKFLOWINTERNALSOURCE_raster_format -->
<g id="node45" class="node"><title>WORKFLOWINTERNALSOURCE_raster_format</title>
<polygon fill="skyblue" stroke="black" points="172,-478.5 98,-478.5 98,-457.5 172,-457.5 172,-478.5"/>
<text text-anchor="middle" x="135" y="-465.5" font-family="Helvetica,sans-Serif" font-size="10.00">raster_format</text>
</g>
<!-- WORKFLOWINTERNALSOURCE_raster_format&#45;&gt;raster_upload_service -->
<g id="edge36" class="edge"><title>WORKFLOWINTERNALSOURCE_raster_format&#45;&gt;raster_upload_service</title>
<path fill="none" stroke="black" d="M157.013,-457.484C163.126,-454.65 169.791,-451.639 176,-449 179.674,-447.438 183.523,-445.856 187.38,-444.305"/>
<polygon fill="black" stroke="black" points="188.878,-447.476 196.89,-440.544 186.304,-440.967 188.878,-447.476"/>
</g>
<!-- WORKFLOWINTERNALSINKCONTROL -->
<g id="node47" class="node"><title>WORKFLOWINTERNALSINKCONTROL</title>
<polygon fill="#66cd00" stroke="black" points="550,-20 557,-30.5 543,-30.5 550,-20"/>
</g>
</g>
</svg>
