<?xml version="1.0" encoding="UTF-8" standalone="no"?>
<!DOCTYPE svg PUBLIC "-//W3C//DTD SVG 1.1//EN"
 "http://www.w3.org/Graphics/SVG/1.1/DTD/svg11.dtd">
<!-- Generated by graphviz version 2.26.0 (20091210.2329)
 -->
<!-- Title: t2flow_graph Pages: 1 -->
<svg width="524pt" height="257pt"
 viewBox="0.00 0.00 524.00 257.00" xmlns="http://www.w3.org/2000/svg" xmlns:xlink="http://www.w3.org/1999/xlink">
<g id="graph1" class="graph" transform="scale(1 1) rotate(0) translate(4 253)">
<title>t2flow_graph</title>
<polygon fill="white" stroke="white" points="-4,5 -4,-253 521,-253 521,5 -4,5"/>
<g id="graph2" class="cluster"><title>cluster_sources</title>
<polygon fill="none" stroke="black" stroke-dasharray="1,5" points="49,-182 49,-241 405,-241 405,-182 49,-182"/>
<text text-anchor="middle" x="93" y="-228" font-family="Helvetica,sans-Serif" font-size="10.00">Workflow Inputs</text>
</g>
<g id="graph3" class="cluster"><title>cluster_sinks</title>
<polygon fill="none" stroke="black" stroke-dasharray="1,5" points="413,-186 413,-237 508,-237 508,-186 413,-186"/>
<text text-anchor="middle" x="460.5" y="-224" font-family="Helvetica,sans-Serif" font-size="10.00">Workflow Outputs</text>
</g>
<!-- CSV_To_QSAR_Vector -->
<g id="node1" class="node"><title>CSV_To_QSAR_Vector</title>
<polygon fill="white" stroke="black" points="122,-173.5 5.68434e-14,-173.5 7.10543e-15,-152.5 122,-152.5 122,-173.5"/>
<text text-anchor="middle" x="61" y="-160.5" font-family="Helvetica,sans-Serif" font-size="10.00">CSV_To_QSAR_Vector</text>
</g>
<!-- Merge_QSAR_Vectors -->
<g id="node3" class="node"><title>Merge_QSAR_Vectors</title>
<polygon fill="white" stroke="black" points="250,-135.5 134,-135.5 134,-114.5 250,-114.5 250,-135.5"/>
<text text-anchor="middle" x="192" y="-122.5" font-family="Helvetica,sans-Serif" font-size="10.00">Merge_QSAR_Vectors</text>
</g>
<!-- CSV_To_QSAR_Vector&#45;&gt;Merge_QSAR_Vectors -->
<g id="edge10" class="edge"><title>CSV_To_QSAR_Vector&#45;&gt;Merge_QSAR_Vectors</title>
<path fill="none" stroke="black" d="M96.1301,-152.415C111.022,-148.05 128.603,-142.943 144.616,-138.328"/>
<polygon fill="black" stroke="black" points="145.704,-141.657 154.346,-135.528 143.768,-134.93 145.704,-141.657"/>
</g>
<!-- CSV_To_QSAR_Vector&#45;&gt;Merge_QSAR_Vectors -->
<g id="edge12" class="edge"><title>CSV_To_QSAR_Vector&#45;&gt;Merge_QSAR_Vectors</title>
<path fill="none" stroke="black" d="M98.8516,-152.415C113.909,-148.091 131.352,-143.039 147.046,-138.458"/>
<polygon fill="black" stroke="black" points="148.448,-141.695 157.064,-135.528 146.483,-134.976 148.448,-141.695"/>
</g>
<!-- CSV_To_QSAR_Vector_2 -->
<g id="node2" class="node"><title>CSV_To_QSAR_Vector_2</title>
<polygon fill="white" stroke="black" points="258,-173.5 126,-173.5 126,-152.5 258,-152.5 258,-173.5"/>
<text text-anchor="middle" x="192" y="-160.5" font-family="Helvetica,sans-Serif" font-size="10.00">CSV_To_QSAR_Vector_2</text>
</g>
<!-- CSV_To_QSAR_Vector_2&#45;&gt;Merge_QSAR_Vectors -->
<g id="edge8" class="edge"><title>CSV_To_QSAR_Vector_2&#45;&gt;Merge_QSAR_Vectors</title>
<path fill="none" stroke="black" d="M190.632,-152.212C190.563,-150.19 190.521,-148.013 190.506,-145.804"/>
<polygon fill="black" stroke="black" points="194.007,-145.727 190.636,-135.683 187.008,-145.637 194.007,-145.727"/>
</g>
<!-- CSV_To_QSAR_Vector_2&#45;&gt;Merge_QSAR_Vectors -->
<g id="edge14" class="edge"><title>CSV_To_QSAR_Vector_2&#45;&gt;Merge_QSAR_Vectors</title>
<path fill="none" stroke="black" d="M193.368,-152.212C193.437,-150.19 193.479,-148.013 193.494,-145.804"/>
<polygon fill="black" stroke="black" points="196.992,-145.637 193.364,-135.683 189.993,-145.727 196.992,-145.637"/>
</g>
<!-- Create_Fingerprint_Item_List_From_QSAR_Vector -->
<g id="node4" class="node"><title>Create_Fingerprint_Item_List_From_QSAR_Vector</title>
<polygon fill="white" stroke="black" points="317,-97.5 79,-97.5 79,-76.5 317,-76.5 317,-97.5"/>
<text text-anchor="middle" x="198" y="-84.5" font-family="Helvetica,sans-Serif" font-size="10.00">Create_Fingerprint_Item_List_From_QSAR_Vector</text>
</g>
<!-- Merge_QSAR_Vectors&#45;&gt;Create_Fingerprint_Item_List_From_QSAR_Vector -->
<g id="edge20" class="edge"><title>Merge_QSAR_Vectors&#45;&gt;Create_Fingerprint_Item_List_From_QSAR_Vector</title>
<path fill="none" stroke="black" d="M192.336,-114.212C192.586,-112.19 192.887,-110.013 193.221,-107.804"/>
<polygon fill="black" stroke="black" points="196.716,-108.129 194.949,-97.6831 189.816,-106.951 196.716,-108.129"/>
</g>
<!-- Merge_QSAR_Vectors&#45;&gt;Create_Fingerprint_Item_List_From_QSAR_Vector -->
<g id="edge22" class="edge"><title>Merge_QSAR_Vectors&#45;&gt;Create_Fingerprint_Item_List_From_QSAR_Vector</title>
<path fill="none" stroke="black" d="M195.071,-114.212C195.46,-112.19 195.846,-110.013 196.209,-107.804"/>
<polygon fill="black" stroke="black" points="199.705,-108.082 197.677,-97.6831 192.778,-107.077 199.705,-108.082"/>
</g>
<!-- ART&#45;2a_Result_Considering_Different_Origins_As_PDF -->
<g id="node6" class="node"><title>ART&#45;2a_Result_Considering_Different_Origins_As_PDF</title>
<polygon fill="white" stroke="black" points="266,-21.5 4,-21.5 4,-0.5 266,-0.5 266,-21.5"/>
<text text-anchor="middle" x="135" y="-8.5" font-family="Helvetica,sans-Serif" font-size="10.00">ART&#45;2a_Result_Considering_Different_Origins_As_PDF</text>
</g>
<!-- Merge_QSAR_Vectors&#45;&gt;ART&#45;2a_Result_Considering_Different_Origins_As_PDF -->
<g id="edge30" class="edge"><title>Merge_QSAR_Vectors&#45;&gt;ART&#45;2a_Result_Considering_Different_Origins_As_PDF</title>
<path fill="none" stroke="black" d="M133.771,-117.791C109.923,-113.533 86.2164,-107.144 79,-98 60.7637,-74.893 88.8222,-45.7188 111.378,-27.7138"/>
<polygon fill="black" stroke="black" points="113.53,-30.4748 119.344,-21.6177 109.275,-24.916 113.53,-30.4748"/>
</g>
<!-- ART&#45;2a_Classificator -->
<g id="node5" class="node"><title>ART&#45;2a_Classificator</title>
<polygon fill="white" stroke="black" points="253,-59.5 143,-59.5 143,-38.5 253,-38.5 253,-59.5"/>
<text text-anchor="middle" x="198" y="-46.5" font-family="Helvetica,sans-Serif" font-size="10.00">ART&#45;2a_Classificator</text>
</g>
<!-- Create_Fingerprint_Item_List_From_QSAR_Vector&#45;&gt;ART&#45;2a_Classificator -->
<g id="edge24" class="edge"><title>Create_Fingerprint_Item_List_From_QSAR_Vector&#45;&gt;ART&#45;2a_Classificator</title>
<path fill="none" stroke="black" d="M198,-76.2124C198,-74.1896 198,-72.013 198,-69.8036"/>
<polygon fill="black" stroke="black" points="201.5,-69.683 198,-59.6831 194.5,-69.6831 201.5,-69.683"/>
</g>
<!-- ART&#45;2a_Classificator&#45;&gt;ART&#45;2a_Result_Considering_Different_Origins_As_PDF -->
<g id="edge28" class="edge"><title>ART&#45;2a_Classificator&#45;&gt;ART&#45;2a_Result_Considering_Different_Origins_As_PDF</title>
<path fill="none" stroke="black" d="M180.451,-38.4149C174.444,-34.7914 167.588,-30.6561 161.054,-26.7153"/>
<polygon fill="black" stroke="black" points="162.826,-23.6963 152.455,-21.5284 159.21,-29.6904 162.826,-23.6963"/>
</g>
<!-- WORKFLOWINTERNALSOURCECONTROL -->
<g id="node8" class="node"><title>WORKFLOWINTERNALSOURCECONTROL</title>
<polygon fill="#ff4040" stroke="black" points="390,-208 383,-197.5 397,-197.5 390,-208"/>
</g>
<!-- WORKFLOWINTERNALSOURCE_IN_CSV_1 -->
<g id="node9" class="node"><title>WORKFLOWINTERNALSOURCE_IN_CSV_1</title>
<polygon fill="skyblue" stroke="black" points="121,-211.5 57,-211.5 57,-190.5 121,-190.5 121,-211.5"/>
<text text-anchor="middle" x="89" y="-198.5" font-family="Helvetica,sans-Serif" font-size="10.00">IN_CSV_1</text>
</g>
<!-- WORKFLOWINTERNALSOURCE_IN_CSV_1&#45;&gt;CSV_To_QSAR_Vector -->
<g id="edge4" class="edge"><title>WORKFLOWINTERNALSOURCE_IN_CSV_1&#45;&gt;CSV_To_QSAR_Vector</title>
<path fill="none" stroke="black" d="M81.0512,-190.212C79.1434,-187.623 77.0499,-184.782 74.9577,-181.943"/>
<polygon fill="black" stroke="black" points="77.6215,-179.657 68.8717,-173.683 71.9861,-183.81 77.6215,-179.657"/>
</g>
<!-- WORKFLOWINTERNALSOURCE_IN_CSV_2 -->
<g id="node10" class="node"><title>WORKFLOWINTERNALSOURCE_IN_CSV_2</title>
<polygon fill="skyblue" stroke="black" points="189,-211.5 125,-211.5 125,-190.5 189,-190.5 189,-211.5"/>
<text text-anchor="middle" x="157" y="-198.5" font-family="Helvetica,sans-Serif" font-size="10.00">IN_CSV_2</text>
</g>
<!-- WORKFLOWINTERNALSOURCE_IN_CSV_2&#45;&gt;CSV_To_QSAR_Vector_2 -->
<g id="edge6" class="edge"><title>WORKFLOWINTERNALSOURCE_IN_CSV_2&#45;&gt;CSV_To_QSAR_Vector_2</title>
<path fill="none" stroke="black" d="M166.936,-190.212C169.544,-187.38 172.43,-184.247 175.288,-181.144"/>
<polygon fill="black" stroke="black" points="177.96,-183.41 182.16,-173.683 172.811,-178.667 177.96,-183.41"/>
</g>
<!-- WORKFLOWINTERNALSOURCE_OUT_ART2a -->
<g id="node11" class="node"><title>WORKFLOWINTERNALSOURCE_OUT_ART2a</title>
<polygon fill="skyblue" stroke="black" points="379,-211.5 305,-211.5 305,-190.5 379,-190.5 379,-211.5"/>
<text text-anchor="middle" x="342" y="-198.5" font-family="Helvetica,sans-Serif" font-size="10.00">OUT_ART2a</text>
</g>
<!-- WORKFLOWINTERNALSOURCE_OUT_ART2a&#45;&gt;ART&#45;2a_Classificator -->
<g id="edge26" class="edge"><title>WORKFLOWINTERNALSOURCE_OUT_ART2a&#45;&gt;ART&#45;2a_Classificator</title>
<path fill="none" stroke="black" d="M343.575,-190.236C346.432,-166.2 349.614,-107.786 319,-76 310.798,-67.4841 287.351,-61.3048 263.255,-57.025"/>
<polygon fill="black" stroke="black" points="263.736,-53.5569 253.296,-55.363 262.583,-60.4614 263.736,-53.5569"/>
</g>
<!-- WORKFLOWINTERNALSOURCE_Name_1 -->
<g id="node12" class="node"><title>WORKFLOWINTERNALSOURCE_Name_1</title>
<polygon fill="skyblue" stroke="black" points="245,-211.5 193,-211.5 193,-190.5 245,-190.5 245,-211.5"/>
<text text-anchor="middle" x="219" y="-198.5" font-family="Helvetica,sans-Serif" font-size="10.00">Name_1</text>
</g>
<!-- WORKFLOWINTERNALSOURCE_Name_1&#45;&gt;Merge_QSAR_Vectors -->
<g id="edge16" class="edge"><title>WORKFLOWINTERNALSOURCE_Name_1&#45;&gt;Merge_QSAR_Vectors</title>
<path fill="none" stroke="black" d="M235.818,-190.399C245.775,-183.945 256.701,-176.48 258,-174 262.538,-165.339 263.45,-160.118 258,-152 255.056,-147.616 251.261,-143.943 246.98,-140.866"/>
<polygon fill="black" stroke="black" points="248.626,-137.772 238.245,-135.653 245.039,-143.783 248.626,-137.772"/>
</g>
<!-- WORKFLOWINTERNALSOURCE_Name_2 -->
<g id="node13" class="node"><title>WORKFLOWINTERNALSOURCE_Name_2</title>
<polygon fill="skyblue" stroke="black" points="301,-211.5 249,-211.5 249,-190.5 301,-190.5 301,-211.5"/>
<text text-anchor="middle" x="275" y="-198.5" font-family="Helvetica,sans-Serif" font-size="10.00">Name_2</text>
</g>
<!-- WORKFLOWINTERNALSOURCE_Name_2&#45;&gt;Merge_QSAR_Vectors -->
<g id="edge18" class="edge"><title>WORKFLOWINTERNALSOURCE_Name_2&#45;&gt;Merge_QSAR_Vectors</title>
<path fill="none" stroke="black" d="M275.392,-190.341C275.217,-179.445 273.275,-162.652 264,-152 259.858,-147.243 254.792,-143.322 249.284,-140.091"/>
<polygon fill="black" stroke="black" points="250.838,-136.954 240.335,-135.56 247.676,-143.2 250.838,-136.954"/>
</g>
<!-- WORKFLOWINTERNALSINKCONTROL -->
<g id="node15" class="node"><title>WORKFLOWINTERNALSINKCONTROL</title>
<polygon fill="#66cd00" stroke="black" points="460,-194 467,-204.5 453,-204.5 460,-194"/>
</g>
</g>
</svg>
