<?xml version="1.0" encoding="UTF-8" standalone="no"?>
<!DOCTYPE svg PUBLIC "-//W3C//DTD SVG 1.1//EN"
 "http://www.w3.org/Graphics/SVG/1.1/DTD/svg11.dtd">
<!-- Generated by graphviz version 2.26.0 (20091210.2329)
 -->
<!-- Title: t2flow_graph Pages: 1 -->
<svg width="950pt" height="753pt"
 viewBox="0.00 0.00 950.00 753.00" xmlns="http://www.w3.org/2000/svg" xmlns:xlink="http://www.w3.org/1999/xlink">
<g id="graph1" class="graph" transform="scale(1 1) rotate(0) translate(4 749)">
<title>t2flow_graph</title>
<polygon fill="white" stroke="white" points="-4,5 -4,-749 947,-749 947,5 -4,5"/>
<g id="graph2" class="cluster"><title>cluster_getStatusOfExecutiongetStatusOfExecution</title>
<polygon fill="aliceblue" stroke="black" points="431,-219 431,-488 701,-488 701,-219 431,-219"/>
<text text-anchor="middle" x="487.5" y="-475" font-family="Helvetica,sans-Serif" font-size="10.00">getStatusOfExecution</text>
</g>
<g id="graph3" class="cluster"><title>cluster_getStatusOfExecutionsources</title>
<polygon fill="none" stroke="black" stroke-dasharray="1,5" points="564,-400 564,-459 688,-459 688,-400 564,-400"/>
<text text-anchor="middle" x="608" y="-446" font-family="Helvetica,sans-Serif" font-size="10.00">Workflow Inputs</text>
</g>
<g id="graph4" class="cluster"><title>cluster_getStatusOfExecutionsinks</title>
<polygon fill="none" stroke="black" stroke-dasharray="1,5" points="439,-227 439,-286 693,-286 693,-227 439,-227"/>
<text text-anchor="middle" x="486.5" y="-273" font-family="Helvetica,sans-Serif" font-size="10.00">Workflow Outputs</text>
</g>
<g id="graph5" class="cluster"><title>cluster_sources</title>
<polygon fill="none" stroke="black" stroke-dasharray="1,5" points="406,-678 406,-737 710,-737 710,-678 406,-678"/>
<text text-anchor="middle" x="450" y="-724" font-family="Helvetica,sans-Serif" font-size="10.00">Workflow Inputs</text>
</g>
<g id="graph6" class="cluster"><title>cluster_sinks</title>
<polygon fill="none" stroke="black" stroke-dasharray="1,5" points="615,-8 615,-67 801,-67 801,-8 615,-8"/>
<text text-anchor="middle" x="662.5" y="-54" font-family="Helvetica,sans-Serif" font-size="10.00">Workflow Outputs</text>
</g>
<!-- executeApplication -->
<g id="node1" class="node"><title>executeApplication</title>
<polygon fill="#a2cd5a" stroke="black" points="807,-555.5 709,-555.5 709,-534.5 807,-534.5 807,-555.5"/>
<text text-anchor="middle" x="758" y="-542.5" font-family="Helvetica,sans-Serif" font-size="10.00">executeApplication</text>
</g>
<!-- executeApplication_output -->
<g id="node9" class="node"><title>executeApplication_output</title>
<polygon fill="#ab92ea" stroke="black" points="823,-517.5 693,-517.5 693,-496.5 823,-496.5 823,-517.5"/>
<text text-anchor="middle" x="758" y="-504.5" font-family="Helvetica,sans-Serif" font-size="10.00">executeApplication_output</text>
</g>
<!-- executeApplication&#45;&gt;executeApplication_output -->
<g id="edge37" class="edge"><title>executeApplication&#45;&gt;executeApplication_output</title>
<path fill="none" stroke="black" d="M758,-534.212C758,-532.19 758,-530.013 758,-527.804"/>
<polygon fill="black" stroke="black" points="761.5,-527.683 758,-517.683 754.5,-527.683 761.5,-527.683"/>
</g>
<!-- executeApplication_input -->
<g id="node2" class="node"><title>executeApplication_input</title>
<polygon fill="#ab92ea" stroke="black" points="820,-593.5 696,-593.5 696,-572.5 820,-572.5 820,-593.5"/>
<text text-anchor="middle" x="758" y="-580.5" font-family="Helvetica,sans-Serif" font-size="10.00">executeApplication_input</text>
</g>
<!-- executeApplication_input&#45;&gt;executeApplication -->
<g id="edge15" class="edge"><title>executeApplication_input&#45;&gt;executeApplication</title>
<path fill="none" stroke="black" d="M758,-572.212C758,-570.19 758,-568.013 758,-565.804"/>
<polygon fill="black" stroke="black" points="761.5,-565.683 758,-555.683 754.5,-565.683 761.5,-565.683"/>
</g>
<!-- executeApplication_selectedApplication -->
<g id="node3" class="node"><title>executeApplication_selectedApplication</title>
<polygon fill="#ab92ea" stroke="black" points="702,-631.5 514,-631.5 514,-610.5 702,-610.5 702,-631.5"/>
<text text-anchor="middle" x="608" y="-618.5" font-family="Helvetica,sans-Serif" font-size="10.00">executeApplication_selectedApplication</text>
</g>
<!-- executeApplication_selectedApplication&#45;&gt;executeApplication_input -->
<g id="edge17" class="edge"><title>executeApplication_selectedApplication&#45;&gt;executeApplication_input</title>
<path fill="none" stroke="black" d="M649.783,-610.415C667.419,-605.947 688.125,-600.702 706.677,-596.002"/>
<polygon fill="black" stroke="black" points="707.606,-599.377 716.441,-593.528 705.887,-592.591 707.606,-599.377"/>
</g>
<!-- time_input -->
<g id="node4" class="node"><title>time_input</title>
<polygon fill="#ab92ea" stroke="black" points="622,-669.5 560,-669.5 560,-648.5 622,-648.5 622,-669.5"/>
<text text-anchor="middle" x="591" y="-656.5" font-family="Helvetica,sans-Serif" font-size="10.00">time_input</text>
</g>
<!-- time_input&#45;&gt;executeApplication_selectedApplication -->
<g id="edge81" class="edge"><title>time_input&#45;&gt;executeApplication_selectedApplication</title>
<path fill="none" stroke="black" d="M595.826,-648.212C596.84,-645.947 597.939,-643.488 599.05,-641.007"/>
<polygon fill="black" stroke="black" points="602.332,-642.241 603.221,-631.683 595.942,-639.382 602.332,-642.241"/>
</g>
<!-- fastExecution_value -->
<g id="node5" class="node"><title>fastExecution_value</title>
<polygon fill="#b0c4de" stroke="black" points="810,-631.5 706,-631.5 706,-610.5 810,-610.5 810,-631.5"/>
<text text-anchor="middle" x="758" y="-618.5" font-family="Helvetica,sans-Serif" font-size="10.00">fastExecution_value</text>
</g>
<!-- fastExecution_value&#45;&gt;executeApplication_input -->
<g id="edge19" class="edge"><title>fastExecution_value&#45;&gt;executeApplication_input</title>
<path fill="none" stroke="black" d="M758,-610.212C758,-608.19 758,-606.013 758,-603.804"/>
<polygon fill="black" stroke="black" points="761.5,-603.683 758,-593.683 754.5,-603.683 761.5,-603.683"/>
</g>
<!-- numOfParallelJobs_value -->
<g id="node6" class="node"><title>numOfParallelJobs_value</title>
<polygon fill="#b0c4de" stroke="black" points="942,-631.5 814,-631.5 814,-610.5 942,-610.5 942,-631.5"/>
<text text-anchor="middle" x="878" y="-618.5" font-family="Helvetica,sans-Serif" font-size="10.00">numOfParallelJobs_value</text>
</g>
<!-- numOfParallelJobs_value&#45;&gt;executeApplication_input -->
<g id="edge21" class="edge"><title>numOfParallelJobs_value&#45;&gt;executeApplication_input</title>
<path fill="none" stroke="black" d="M844.573,-610.415C831.05,-606.133 815.27,-601.136 800.914,-596.589"/>
<polygon fill="black" stroke="black" points="801.837,-593.211 791.247,-593.528 799.724,-599.884 801.837,-593.211"/>
</g>
<!-- id_value -->
<g id="node7" class="node"><title>id_value</title>
<polygon fill="#b0c4de" stroke="black" points="740,-669.5 688,-669.5 688,-648.5 740,-648.5 740,-669.5"/>
<text text-anchor="middle" x="714" y="-656.5" font-family="Helvetica,sans-Serif" font-size="10.00">id_value</text>
</g>
<!-- id_value&#45;&gt;executeApplication_selectedApplication -->
<g id="edge23" class="edge"><title>id_value&#45;&gt;executeApplication_selectedApplication</title>
<path fill="none" stroke="black" d="M687.827,-649.386C686.533,-648.916 685.252,-648.452 684,-648 672.167,-643.729 659.279,-639.13 647.534,-634.96"/>
<polygon fill="black" stroke="black" points="648.58,-631.617 637.985,-631.574 646.24,-638.215 648.58,-631.617"/>
</g>
<!-- name_value -->
<g id="node8" class="node"><title>name_value</title>
<polygon fill="#b0c4de" stroke="black" points="786,-707.5 718,-707.5 718,-686.5 786,-686.5 786,-707.5"/>
<text text-anchor="middle" x="752" y="-694.5" font-family="Helvetica,sans-Serif" font-size="10.00">name_value</text>
</g>
<!-- name_value&#45;&gt;time_input -->
<g id="edge29" class="edge"><title>name_value&#45;&gt;time_input</title>
<path fill="none" stroke="black" d="M732.493,-686.314C725.854,-683.128 718.271,-679.965 711,-678 677.517,-668.953 665.303,-676.034 632.15,-670.947"/>
<polygon fill="black" stroke="black" points="632.669,-667.485 622.209,-669.166 631.435,-674.375 632.669,-667.485"/>
</g>
<!-- getStatusOfExecutionWORKFLOWINTERNALSOURCE_hps_checkstatus -->
<g id="node23" class="node"><title>getStatusOfExecutionWORKFLOWINTERNALSOURCE_hps_checkstatus</title>
<polygon fill="skyblue" stroke="black" points="662,-429.5 572,-429.5 572,-408.5 662,-408.5 662,-429.5"/>
<text text-anchor="middle" x="617" y="-416.5" font-family="Helvetica,sans-Serif" font-size="10.00">hps_checkstatus</text>
</g>
<!-- executeApplication_output&#45;&gt;getStatusOfExecutionWORKFLOWINTERNALSOURCE_hps_checkstatus -->
<g id="edge47" class="edge"><title>executeApplication_output&#45;&gt;getStatusOfExecutionWORKFLOWINTERNALSOURCE_hps_checkstatus</title>
<path fill="none" stroke="black" d="M692.742,-496.952C681.138,-494.359 671.121,-491.344 666,-488 647.734,-476.073 634.174,-454.77 626.004,-438.98"/>
<polygon fill="black" stroke="black" points="628.941,-437.015 621.419,-429.553 622.646,-440.077 628.941,-437.015"/>
</g>
<!-- getOutputOfExecution_input -->
<g id="node32" class="node"><title>getOutputOfExecution_input</title>
<polygon fill="#ab92ea" stroke="black" points="849,-256.5 709,-256.5 709,-235.5 849,-235.5 849,-256.5"/>
<text text-anchor="middle" x="779" y="-243.5" font-family="Helvetica,sans-Serif" font-size="10.00">getOutputOfExecution_input</text>
</g>
<!-- executeApplication_output&#45;&gt;getOutputOfExecution_input -->
<g id="edge51" class="edge"><title>executeApplication_output&#45;&gt;getOutputOfExecution_input</title>
<path fill="none" stroke="black" d="M758.43,-496.215C759.259,-474.441 761,-423.668 761,-381 761,-381 761,-381 761,-343 761,-316.245 767.702,-286.024 772.927,-266.53"/>
<polygon fill="black" stroke="black" points="776.369,-267.219 775.699,-256.645 769.629,-265.329 776.369,-267.219"/>
</g>
<!-- type_value_1 -->
<g id="node10" class="node"><title>type_value_1</title>
<polygon fill="#b0c4de" stroke="black" points="314,-707.5 240,-707.5 240,-686.5 314,-686.5 314,-707.5"/>
<text text-anchor="middle" x="277" y="-694.5" font-family="Helvetica,sans-Serif" font-size="10.00">type_value_1</text>
</g>
<!-- type_value_1&#45;&gt;time_input -->
<g id="edge31" class="edge"><title>type_value_1&#45;&gt;time_input</title>
<path fill="none" stroke="black" d="M296.049,-686.342C302.782,-683.075 310.539,-679.856 318,-678 350.178,-669.996 433.925,-672.354 467,-670 494.605,-668.035 525.619,-665.284 549.724,-663.024"/>
<polygon fill="black" stroke="black" points="550.313,-666.484 559.938,-662.058 549.653,-659.515 550.313,-666.484"/>
</g>
<!-- SEP_speed -->
<g id="node14" class="node"><title>SEP_speed</title>
<polygon fill="#ab92ea" stroke="black" points="269,-669.5 201,-669.5 201,-648.5 269,-648.5 269,-669.5"/>
<text text-anchor="middle" x="235" y="-656.5" font-family="Helvetica,sans-Serif" font-size="10.00">SEP_speed</text>
</g>
<!-- type_value_1&#45;&gt;SEP_speed -->
<g id="edge41" class="edge"><title>type_value_1&#45;&gt;SEP_speed</title>
<path fill="none" stroke="black" d="M265.077,-686.212C261.768,-683.219 258.087,-679.888 254.467,-676.613"/>
<polygon fill="black" stroke="black" points="256.571,-673.797 246.808,-669.683 251.875,-678.988 256.571,-673.797"/>
</g>
<!-- SEP_error_speed -->
<g id="node35" class="node"><title>SEP_error_speed</title>
<polygon fill="#ab92ea" stroke="black" points="365,-669.5 273,-669.5 273,-648.5 365,-648.5 365,-669.5"/>
<text text-anchor="middle" x="319" y="-656.5" font-family="Helvetica,sans-Serif" font-size="10.00">SEP_error_speed</text>
</g>
<!-- type_value_1&#45;&gt;SEP_error_speed -->
<g id="edge59" class="edge"><title>type_value_1&#45;&gt;SEP_error_speed</title>
<path fill="none" stroke="black" d="M288.923,-686.212C292.232,-683.219 295.913,-679.888 299.533,-676.613"/>
<polygon fill="black" stroke="black" points="302.125,-678.988 307.192,-669.683 297.429,-673.797 302.125,-678.988"/>
</g>
<!-- beta -->
<g id="node37" class="node"><title>beta</title>
<polygon fill="#ab92ea" stroke="black" points="465,-669.5 431,-669.5 431,-648.5 465,-648.5 465,-669.5"/>
<text text-anchor="middle" x="448" y="-656.5" font-family="Helvetica,sans-Serif" font-size="10.00">beta</text>
</g>
<!-- type_value_1&#45;&gt;beta -->
<g id="edge67" class="edge"><title>type_value_1&#45;&gt;beta</title>
<path fill="none" stroke="black" d="M296.985,-686.333C303.527,-683.226 310.932,-680.106 318,-678 322.874,-676.548 384.081,-667.893 420.745,-662.78"/>
<polygon fill="black" stroke="black" points="421.385,-666.224 430.807,-661.379 420.42,-659.291 421.385,-666.224"/>
</g>
<!-- def_value_1 -->
<g id="node11" class="node"><title>def_value_1</title>
<polygon fill="#b0c4de" stroke="black" points="858,-707.5 790,-707.5 790,-686.5 858,-686.5 858,-707.5"/>
<text text-anchor="middle" x="824" y="-694.5" font-family="Helvetica,sans-Serif" font-size="10.00">def_value_1</text>
</g>
<!-- def_value_1&#45;&gt;time_input -->
<g id="edge33" class="edge"><title>def_value_1&#45;&gt;time_input</title>
<path fill="none" stroke="black" d="M806.432,-686.319C800.199,-683.051 792.991,-679.836 786,-678 720.363,-660.764 698.163,-680.52 632.248,-670.88"/>
<polygon fill="black" stroke="black" points="632.629,-667.396 622.196,-669.236 631.5,-674.304 632.629,-667.396"/>
</g>
<!-- name_value_2 -->
<g id="node12" class="node"><title>name_value_2</title>
<polygon fill="#b0c4de" stroke="black" points="824,-669.5 744,-669.5 744,-648.5 824,-648.5 824,-669.5"/>
<text text-anchor="middle" x="784" y="-656.5" font-family="Helvetica,sans-Serif" font-size="10.00">name_value_2</text>
</g>
<!-- name_value_2&#45;&gt;executeApplication_selectedApplication -->
<g id="edge25" class="edge"><title>name_value_2&#45;&gt;executeApplication_selectedApplication</title>
<path fill="none" stroke="black" d="M743.733,-648.859C742.475,-648.566 741.229,-648.279 740,-648 717.946,-642.99 693.721,-637.913 672.112,-633.534"/>
<polygon fill="black" stroke="black" points="672.555,-630.053 662.061,-631.509 671.172,-636.915 672.555,-630.053"/>
</g>
<!-- description_value -->
<g id="node13" class="node"><title>description_value</title>
<polygon fill="#b0c4de" stroke="black" points="920,-669.5 828,-669.5 828,-648.5 920,-648.5 920,-669.5"/>
<text text-anchor="middle" x="874" y="-656.5" font-family="Helvetica,sans-Serif" font-size="10.00">description_value</text>
</g>
<!-- description_value&#45;&gt;executeApplication_selectedApplication -->
<g id="edge27" class="edge"><title>description_value&#45;&gt;executeApplication_selectedApplication</title>
<path fill="none" stroke="black" d="M827.988,-648.71C826.645,-648.464 825.314,-648.226 824,-648 801.97,-644.208 754.173,-638.155 709.128,-632.74"/>
<polygon fill="black" stroke="black" points="709.313,-629.237 698.968,-631.524 708.481,-636.188 709.313,-629.237"/>
</g>
<!-- SEP_speed&#45;&gt;executeApplication_selectedApplication -->
<g id="edge85" class="edge"><title>SEP_speed&#45;&gt;executeApplication_selectedApplication</title>
<path fill="none" stroke="black" d="M269.31,-648.733C270.551,-648.468 271.784,-648.223 273,-648 349.565,-633.981 437.302,-627.241 503.776,-624"/>
<polygon fill="black" stroke="black" points="504.016,-627.493 513.841,-623.528 503.688,-620.501 504.016,-627.493"/>
</g>
<!-- name_value_3 -->
<g id="node15" class="node"><title>name_value_3</title>
<polygon fill="#b0c4de" stroke="black" points="80,-707.5 3.55271e-14,-707.5 0,-686.5 80,-686.5 80,-707.5"/>
<text text-anchor="middle" x="40" y="-694.5" font-family="Helvetica,sans-Serif" font-size="10.00">name_value_3</text>
</g>
<!-- name_value_3&#45;&gt;SEP_speed -->
<g id="edge39" class="edge"><title>name_value_3&#45;&gt;SEP_speed</title>
<path fill="none" stroke="black" d="M61.0476,-686.476C68.1799,-683.3 76.2939,-680.103 84,-678 119.114,-668.418 160.162,-663.646 190.59,-661.283"/>
<polygon fill="black" stroke="black" points="191.159,-664.751 200.883,-660.544 190.658,-657.769 191.159,-664.751"/>
</g>
<!-- def_value_2 -->
<g id="node16" class="node"><title>def_value_2</title>
<polygon fill="#b0c4de" stroke="black" points="152,-707.5 84,-707.5 84,-686.5 152,-686.5 152,-707.5"/>
<text text-anchor="middle" x="118" y="-694.5" font-family="Helvetica,sans-Serif" font-size="10.00">def_value_2</text>
</g>
<!-- def_value_2&#45;&gt;SEP_speed -->
<g id="edge43" class="edge"><title>def_value_2&#45;&gt;SEP_speed</title>
<path fill="none" stroke="black" d="M136.956,-686.461C142.925,-683.434 149.625,-680.326 156,-678 167.07,-673.961 179.326,-670.535 190.817,-667.752"/>
<polygon fill="black" stroke="black" points="191.715,-671.137 200.668,-665.473 190.136,-664.317 191.715,-671.137"/>
</g>
<!-- def_value_2&#45;&gt;SEP_error_speed -->
<g id="edge61" class="edge"><title>def_value_2&#45;&gt;SEP_error_speed</title>
<path fill="none" stroke="black" d="M135.59,-686.402C141.825,-683.14 149.028,-679.908 156,-678 201.337,-665.591 217.08,-675.66 262.557,-670.722"/>
<polygon fill="black" stroke="black" points="263.256,-674.162 272.734,-669.427 262.372,-667.218 263.256,-674.162"/>
</g>
<!-- getStatusOfExecutiongetStatusOfExecution -->
<g id="node18" class="node"><title>getStatusOfExecutiongetStatusOfExecution</title>
<polygon fill="#a2cd5a" stroke="black" points="625,-353.5 513,-353.5 513,-332.5 625,-332.5 625,-353.5"/>
<text text-anchor="middle" x="569" y="-340.5" font-family="Helvetica,sans-Serif" font-size="10.00">getStatusOfExecution</text>
</g>
<!-- getStatusOfExecutiongetStatusOfExecution_output -->
<g id="node20" class="node"><title>getStatusOfExecutiongetStatusOfExecution_output</title>
<polygon fill="#ab92ea" stroke="black" points="633,-315.5 489,-315.5 489,-294.5 633,-294.5 633,-315.5"/>
<text text-anchor="middle" x="561" y="-302.5" font-family="Helvetica,sans-Serif" font-size="10.00">getStatusOfExecution_output</text>
</g>
<!-- getStatusOfExecutiongetStatusOfExecution&#45;&gt;getStatusOfExecutiongetStatusOfExecution_output -->
<g id="edge9" class="edge"><title>getStatusOfExecutiongetStatusOfExecution&#45;&gt;getStatusOfExecutiongetStatusOfExecution_output</title>
<path fill="none" stroke="black" d="M566.729,-332.212C566.286,-330.109 565.808,-327.839 565.324,-325.538"/>
<polygon fill="black" stroke="black" points="568.734,-324.748 563.249,-315.683 561.884,-326.19 568.734,-324.748"/>
</g>
<!-- getStatusOfExecutiongetStatusOfExecution_input -->
<g id="node19" class="node"><title>getStatusOfExecutiongetStatusOfExecution_input</title>
<polygon fill="#ab92ea" stroke="black" points="654,-391.5 516,-391.5 516,-370.5 654,-370.5 654,-391.5"/>
<text text-anchor="middle" x="585" y="-378.5" font-family="Helvetica,sans-Serif" font-size="10.00">getStatusOfExecution_input</text>
</g>
<!-- getStatusOfExecutiongetStatusOfExecution_input&#45;&gt;getStatusOfExecutiongetStatusOfExecution -->
<g id="edge5" class="edge"><title>getStatusOfExecutiongetStatusOfExecution_input&#45;&gt;getStatusOfExecutiongetStatusOfExecution</title>
<path fill="none" stroke="black" d="M580.458,-370.212C579.504,-367.947 578.469,-365.488 577.424,-363.007"/>
<polygon fill="black" stroke="black" points="580.604,-361.541 573.498,-353.683 574.153,-364.258 580.604,-361.541"/>
</g>
<!-- getStatusOfExecutionWORKFLOWINTERNALSINK_getStatusOfExecution_output_executionStatus -->
<g id="node26" class="node"><title>getStatusOfExecutionWORKFLOWINTERNALSINK_getStatusOfExecution_output_executionStatus</title>
<polygon fill="#bcd2ee" stroke="black" points="667,-256.5 447,-256.5 447,-235.5 667,-235.5 667,-256.5"/>
<text text-anchor="middle" x="557" y="-243.5" font-family="Helvetica,sans-Serif" font-size="10.00">getStatusOfExecution_output_executionStatus</text>
</g>
<!-- getStatusOfExecutiongetStatusOfExecution_output&#45;&gt;getStatusOfExecutionWORKFLOWINTERNALSINK_getStatusOfExecution_output_executionStatus -->
<g id="edge11" class="edge"><title>getStatusOfExecutiongetStatusOfExecution_output&#45;&gt;getStatusOfExecutionWORKFLOWINTERNALSINK_getStatusOfExecution_output_executionStatus</title>
<path fill="none" stroke="black" d="M560.285,-294.452C559.768,-286.829 559.053,-276.277 558.421,-266.966"/>
<polygon fill="black" stroke="black" points="561.904,-266.596 557.736,-256.856 554.921,-267.07 561.904,-266.596"/>
</g>
<!-- getStatusOfExecutionWORKFLOWINTERNALSOURCECONTROL -->
<g id="node22" class="node"><title>getStatusOfExecutionWORKFLOWINTERNALSOURCECONTROL</title>
<polygon fill="#ff4040" stroke="black" points="673,-426 666,-415.5 680,-415.5 673,-426"/>
</g>
<!-- getStatusOfExecutionWORKFLOWINTERNALSOURCE_hps_checkstatus&#45;&gt;getStatusOfExecutiongetStatusOfExecution_input -->
<g id="edge7" class="edge"><title>getStatusOfExecutionWORKFLOWINTERNALSOURCE_hps_checkstatus&#45;&gt;getStatusOfExecutiongetStatusOfExecution_input</title>
<path fill="none" stroke="black" d="M607.916,-408.212C605.599,-405.461 603.043,-402.426 600.503,-399.41"/>
<polygon fill="black" stroke="black" points="603.115,-397.078 593.996,-391.683 597.76,-401.587 603.115,-397.078"/>
</g>
<!-- getStatusOfExecutionWORKFLOWINTERNALSINKCONTROL -->
<g id="node25" class="node"><title>getStatusOfExecutionWORKFLOWINTERNALSINKCONTROL</title>
<polygon fill="#66cd00" stroke="black" points="678,-239 685,-249.5 671,-249.5 678,-239"/>
</g>
<!-- getOutputOfExecution -->
<g id="node31" class="node"><title>getOutputOfExecution</title>
<polygon fill="#a2cd5a" stroke="black" points="784,-210.5 672,-210.5 672,-189.5 784,-189.5 784,-210.5"/>
<text text-anchor="middle" x="728" y="-197.5" font-family="Helvetica,sans-Serif" font-size="10.00">getOutputOfExecution</text>
</g>
<!-- getStatusOfExecutionWORKFLOWINTERNALSINKCONTROL&#45;&gt;getOutputOfExecution -->
<g id="edge95" class="edge"><title>getStatusOfExecutionWORKFLOWINTERNALSINKCONTROL&#45;&gt;getOutputOfExecution</title>
<path fill="none" stroke="gray" d="M679.043,-240.394C680.409,-234.438 683.329,-225.061 689,-219 690.254,-217.659 691.623,-216.402 693.074,-215.224"/>
<ellipse fill="none" stroke="gray" cx="696.558" cy="-212.824" rx="4.00002" ry="4.00002"/>
</g>
<!-- Dummy -->
<g id="node34" class="node"><title>Dummy</title>
<polygon fill="#deb887" stroke="black" points="582,-210.5 532,-210.5 532,-189.5 582,-189.5 582,-210.5"/>
<text text-anchor="middle" x="557" y="-197.5" font-family="Helvetica,sans-Serif" font-size="10.00">Dummy</text>
</g>
<!-- getStatusOfExecutionWORKFLOWINTERNALSINK_getStatusOfExecution_output_executionStatus&#45;&gt;Dummy -->
<g id="edge55" class="edge"><title>getStatusOfExecutionWORKFLOWINTERNALSINK_getStatusOfExecution_output_executionStatus&#45;&gt;Dummy</title>
<path fill="none" stroke="black" d="M557,-235.331C557,-231.035 557,-225.923 557,-220.942"/>
<polygon fill="black" stroke="black" points="560.5,-220.611 557,-210.611 553.5,-220.611 560.5,-220.611"/>
</g>
<!-- getOutputOfExecution_output -->
<g id="node33" class="node"><title>getOutputOfExecution_output</title>
<polygon fill="#ab92ea" stroke="black" points="801,-172.5 655,-172.5 655,-151.5 801,-151.5 801,-172.5"/>
<text text-anchor="middle" x="728" y="-159.5" font-family="Helvetica,sans-Serif" font-size="10.00">getOutputOfExecution_output</text>
</g>
<!-- getOutputOfExecution&#45;&gt;getOutputOfExecution_output -->
<g id="edge53" class="edge"><title>getOutputOfExecution&#45;&gt;getOutputOfExecution_output</title>
<path fill="none" stroke="black" d="M728,-189.212C728,-187.19 728,-185.013 728,-182.804"/>
<polygon fill="black" stroke="black" points="731.5,-182.683 728,-172.683 724.5,-182.683 731.5,-182.683"/>
</g>
<!-- getOutputOfExecution_input&#45;&gt;getOutputOfExecution -->
<g id="edge49" class="edge"><title>getOutputOfExecution_input&#45;&gt;getOutputOfExecution</title>
<path fill="none" stroke="black" d="M767.171,-235.331C761.249,-229.99 753.931,-223.389 747.229,-217.344"/>
<polygon fill="black" stroke="black" points="749.534,-214.71 739.764,-210.611 744.846,-219.908 749.534,-214.71"/>
</g>
<!-- Concatenate_two_strings -->
<g id="node41" class="node"><title>Concatenate_two_strings</title>
<polygon fill="#d15fee" stroke="black" points="714,-134.5 586,-134.5 586,-113.5 714,-113.5 714,-134.5"/>
<text text-anchor="middle" x="650" y="-121.5" font-family="Helvetica,sans-Serif" font-size="10.00">Concatenate_two_strings</text>
</g>
<!-- getOutputOfExecution_output&#45;&gt;Concatenate_two_strings -->
<g id="edge75" class="edge"><title>getOutputOfExecution_output&#45;&gt;Concatenate_two_strings</title>
<path fill="none" stroke="black" d="M706.273,-151.415C698.328,-147.544 689.184,-143.09 680.609,-138.912"/>
<polygon fill="black" stroke="black" points="682.134,-135.762 671.611,-134.528 679.068,-142.055 682.134,-135.762"/>
</g>
<!-- WORKFLOWINTERNALSINK_Propagation_URL -->
<g id="node53" class="node"><title>WORKFLOWINTERNALSINK_Propagation_URL</title>
<polygon fill="#bcd2ee" stroke="black" points="775,-37.5 681,-37.5 681,-16.5 775,-16.5 775,-37.5"/>
<text text-anchor="middle" x="728" y="-24.5" font-family="Helvetica,sans-Serif" font-size="10.00">Propagation_URL</text>
</g>
<!-- getOutputOfExecution_output&#45;&gt;WORKFLOWINTERNALSINK_Propagation_URL -->
<g id="edge91" class="edge"><title>getOutputOfExecution_output&#45;&gt;WORKFLOWINTERNALSINK_Propagation_URL</title>
<path fill="none" stroke="black" d="M728,-151.407C728,-129.128 728,-77.0746 728,-47.8516"/>
<polygon fill="black" stroke="black" points="731.5,-47.544 728,-37.544 724.5,-47.544 731.5,-47.544"/>
</g>
<!-- SEP_error_speed&#45;&gt;executeApplication_selectedApplication -->
<g id="edge87" class="edge"><title>SEP_error_speed&#45;&gt;executeApplication_selectedApplication</title>
<path fill="none" stroke="black" d="M365.112,-652.937C406.123,-647.544 467.269,-639.504 517.948,-632.841"/>
<polygon fill="black" stroke="black" points="518.477,-636.301 527.935,-631.528 517.565,-629.361 518.477,-636.301"/>
</g>
<!-- name_value_4 -->
<g id="node36" class="node"><title>name_value_4</title>
<polygon fill="#b0c4de" stroke="black" points="236,-707.5 156,-707.5 156,-686.5 236,-686.5 236,-707.5"/>
<text text-anchor="middle" x="196" y="-694.5" font-family="Helvetica,sans-Serif" font-size="10.00">name_value_4</text>
</g>
<!-- name_value_4&#45;&gt;SEP_error_speed -->
<g id="edge57" class="edge"><title>name_value_4&#45;&gt;SEP_error_speed</title>
<path fill="none" stroke="black" d="M218.548,-686.382C225.349,-683.42 232.896,-680.369 240,-678 244.868,-676.377 253.349,-674.142 262.996,-671.774"/>
<polygon fill="black" stroke="black" points="264.039,-675.123 272.942,-669.379 262.401,-668.317 264.039,-675.123"/>
</g>
<!-- beta&#45;&gt;executeApplication_selectedApplication -->
<g id="edge89" class="edge"><title>beta&#45;&gt;executeApplication_selectedApplication</title>
<path fill="none" stroke="black" d="M465.123,-654.933C486.146,-649.94 522.818,-641.231 553.745,-633.886"/>
<polygon fill="black" stroke="black" points="554.637,-637.271 563.557,-631.555 553.019,-630.461 554.637,-637.271"/>
</g>
<!-- name_value_5 -->
<g id="node38" class="node"><title>name_value_5</title>
<polygon fill="#b0c4de" stroke="black" points="398,-707.5 318,-707.5 318,-686.5 398,-686.5 398,-707.5"/>
<text text-anchor="middle" x="358" y="-694.5" font-family="Helvetica,sans-Serif" font-size="10.00">name_value_5</text>
</g>
<!-- name_value_5&#45;&gt;beta -->
<g id="edge65" class="edge"><title>name_value_5&#45;&gt;beta</title>
<path fill="none" stroke="black" d="M383.07,-686.415C394.935,-681.405 409.117,-675.417 421.196,-670.317"/>
<polygon fill="black" stroke="black" points="422.899,-673.397 430.75,-666.283 420.176,-666.949 422.899,-673.397"/>
</g>
<!-- hit_object -->
<g id="node39" class="node"><title>hit_object</title>
<polygon fill="#ab92ea" stroke="black" points="684,-669.5 626,-669.5 626,-648.5 684,-648.5 684,-669.5"/>
<text text-anchor="middle" x="655" y="-656.5" font-family="Helvetica,sans-Serif" font-size="10.00">hit_object</text>
</g>
<!-- hit_object&#45;&gt;executeApplication_selectedApplication -->
<g id="edge83" class="edge"><title>hit_object&#45;&gt;executeApplication_selectedApplication</title>
<path fill="none" stroke="black" d="M641.908,-648.415C637.935,-645.203 633.466,-641.589 629.107,-638.065"/>
<polygon fill="black" stroke="black" points="630.999,-635.094 621.022,-631.528 626.598,-640.537 630.999,-635.094"/>
</g>
<!-- name_value_6 -->
<g id="node40" class="node"><title>name_value_6</title>
<polygon fill="#b0c4de" stroke="black" points="942,-707.5 862,-707.5 862,-686.5 942,-686.5 942,-707.5"/>
<text text-anchor="middle" x="902" y="-694.5" font-family="Helvetica,sans-Serif" font-size="10.00">name_value_6</text>
</g>
<!-- name_value_6&#45;&gt;hit_object -->
<g id="edge71" class="edge"><title>name_value_6&#45;&gt;hit_object</title>
<path fill="none" stroke="black" d="M881.486,-686.321C874.254,-683.053 865.944,-679.838 858,-678 787.617,-661.719 764.433,-681.89 694.26,-670.921"/>
<polygon fill="black" stroke="black" points="694.486,-667.409 684.037,-669.16 693.298,-674.307 694.486,-667.409"/>
</g>
<!-- Get_Web_Page_from_URL -->
<g id="node43" class="node"><title>Get_Web_Page_from_URL</title>
<polygon fill="#d15fee" stroke="black" points="718,-96.5 582,-96.5 582,-75.5 718,-75.5 718,-96.5"/>
<text text-anchor="middle" x="650" y="-83.5" font-family="Helvetica,sans-Serif" font-size="10.00">Get_Web_Page_from_URL</text>
</g>
<!-- Concatenate_two_strings&#45;&gt;Get_Web_Page_from_URL -->
<g id="edge79" class="edge"><title>Concatenate_two_strings&#45;&gt;Get_Web_Page_from_URL</title>
<path fill="none" stroke="black" d="M650,-113.212C650,-111.19 650,-109.013 650,-106.804"/>
<polygon fill="black" stroke="black" points="653.5,-106.683 650,-96.6831 646.5,-106.683 653.5,-106.683"/>
</g>
<!-- string2_value -->
<g id="node42" class="node"><title>string2_value</title>
<polygon fill="#b0c4de" stroke="black" points="651,-172.5 577,-172.5 577,-151.5 651,-151.5 651,-172.5"/>
<text text-anchor="middle" x="614" y="-159.5" font-family="Helvetica,sans-Serif" font-size="10.00">string2_value</text>
</g>
<!-- string2_value&#45;&gt;Concatenate_two_strings -->
<g id="edge77" class="edge"><title>string2_value&#45;&gt;Concatenate_two_strings</title>
<path fill="none" stroke="black" d="M624.22,-151.212C626.903,-148.38 629.871,-145.247 632.811,-142.144"/>
<polygon fill="black" stroke="black" points="635.543,-144.35 639.879,-134.683 630.461,-139.536 635.543,-144.35"/>
</g>
<!-- WORKFLOWINTERNALSINK_VOTable -->
<g id="node54" class="node"><title>WORKFLOWINTERNALSINK_VOTable</title>
<polygon fill="#bcd2ee" stroke="black" points="677,-37.5 623,-37.5 623,-16.5 677,-16.5 677,-37.5"/>
<text text-anchor="middle" x="650" y="-24.5" font-family="Helvetica,sans-Serif" font-size="10.00">VOTable</text>
</g>
<!-- Get_Web_Page_from_URL&#45;&gt;WORKFLOWINTERNALSINK_VOTable -->
<g id="edge93" class="edge"><title>Get_Web_Page_from_URL&#45;&gt;WORKFLOWINTERNALSINK_VOTable</title>
<path fill="none" stroke="black" d="M650,-75.452C650,-67.8285 650,-57.2768 650,-47.966"/>
<polygon fill="black" stroke="black" points="653.5,-47.8558 650,-37.8559 646.5,-47.8559 653.5,-47.8558"/>
</g>
<!-- WORKFLOWINTERNALSOURCECONTROL -->
<g id="node45" class="node"><title>WORKFLOWINTERNALSOURCECONTROL</title>
<polygon fill="#ff4040" stroke="black" points="695,-704 688,-693.5 702,-693.5 695,-704"/>
</g>
<!-- WORKFLOWINTERNALSOURCE_time -->
<g id="node46" class="node"><title>WORKFLOWINTERNALSOURCE_time</title>
<polygon fill="skyblue" stroke="black" points="622,-707.5 588,-707.5 588,-686.5 622,-686.5 622,-707.5"/>
<text text-anchor="middle" x="605" y="-694.5" font-family="Helvetica,sans-Serif" font-size="10.00">time</text>
</g>
<!-- WORKFLOWINTERNALSOURCE_time&#45;&gt;time_input -->
<g id="edge35" class="edge"><title>WORKFLOWINTERNALSOURCE_time&#45;&gt;time_input</title>
<path fill="none" stroke="black" d="M601.026,-686.212C600.221,-684.028 599.35,-681.664 598.469,-679.273"/>
<polygon fill="black" stroke="black" points="601.677,-677.857 594.936,-669.683 595.109,-680.277 601.677,-677.857"/>
</g>
<!-- WORKFLOWINTERNALSOURCE_sw_speed -->
<g id="node47" class="node"><title>WORKFLOWINTERNALSOURCE_sw_speed</title>
<polygon fill="skyblue" stroke="black" points="474,-707.5 414,-707.5 414,-686.5 474,-686.5 474,-707.5"/>
<text text-anchor="middle" x="444" y="-694.5" font-family="Helvetica,sans-Serif" font-size="10.00">sw_speed</text>
</g>
<!-- WORKFLOWINTERNALSOURCE_sw_speed&#45;&gt;SEP_speed -->
<g id="edge45" class="edge"><title>WORKFLOWINTERNALSOURCE_sw_speed&#45;&gt;SEP_speed</title>
<path fill="none" stroke="black" d="M428.402,-686.343C422.835,-683.076 416.361,-679.857 410,-678 354.652,-661.847 335.239,-678.308 279.378,-670.848"/>
<polygon fill="black" stroke="black" points="279.719,-667.359 269.304,-669.302 278.657,-674.278 279.719,-667.359"/>
</g>
<!-- WORKFLOWINTERNALSOURCE_error_speed -->
<g id="node48" class="node"><title>WORKFLOWINTERNALSOURCE_error_speed</title>
<polygon fill="skyblue" stroke="black" points="546,-707.5 478,-707.5 478,-686.5 546,-686.5 546,-707.5"/>
<text text-anchor="middle" x="512" y="-694.5" font-family="Helvetica,sans-Serif" font-size="10.00">error_speed</text>
</g>
<!-- WORKFLOWINTERNALSOURCE_error_speed&#45;&gt;SEP_error_speed -->
<g id="edge63" class="edge"><title>WORKFLOWINTERNALSOURCE_error_speed&#45;&gt;SEP_error_speed</title>
<path fill="none" stroke="black" d="M493.968,-686.407C487.818,-683.227 480.779,-680.044 474,-678 464.548,-675.15 415.674,-669.393 375.298,-664.959"/>
<polygon fill="black" stroke="black" points="375.566,-661.467 365.245,-663.862 374.807,-668.426 375.566,-661.467"/>
</g>
<!-- WORKFLOWINTERNALSOURCE_beta -->
<g id="node49" class="node"><title>WORKFLOWINTERNALSOURCE_beta</title>
<polygon fill="skyblue" stroke="black" points="584,-707.5 550,-707.5 550,-686.5 584,-686.5 584,-707.5"/>
<text text-anchor="middle" x="567" y="-694.5" font-family="Helvetica,sans-Serif" font-size="10.00">beta</text>
</g>
<!-- WORKFLOWINTERNALSOURCE_beta&#45;&gt;beta -->
<g id="edge69" class="edge"><title>WORKFLOWINTERNALSOURCE_beta&#45;&gt;beta</title>
<path fill="none" stroke="black" d="M557.592,-686.484C554.231,-683.309 550.222,-680.11 546,-678 533.846,-671.926 499.817,-666.165 475.268,-662.612"/>
<polygon fill="black" stroke="black" points="475.483,-659.108 465.094,-661.186 474.512,-666.04 475.483,-659.108"/>
</g>
<!-- WORKFLOWINTERNALSOURCE_hit_object -->
<g id="node50" class="node"><title>WORKFLOWINTERNALSOURCE_hit_object</title>
<polygon fill="skyblue" stroke="black" points="684,-707.5 626,-707.5 626,-686.5 684,-686.5 684,-707.5"/>
<text text-anchor="middle" x="655" y="-694.5" font-family="Helvetica,sans-Serif" font-size="10.00">hit_object</text>
</g>
<!-- WORKFLOWINTERNALSOURCE_hit_object&#45;&gt;hit_object -->
<g id="edge73" class="edge"><title>WORKFLOWINTERNALSOURCE_hit_object&#45;&gt;hit_object</title>
<path fill="none" stroke="black" d="M655,-686.212C655,-684.19 655,-682.013 655,-679.804"/>
<polygon fill="black" stroke="black" points="658.5,-679.683 655,-669.683 651.5,-679.683 658.5,-679.683"/>
</g>
<!-- WORKFLOWINTERNALSINKCONTROL -->
<g id="node52" class="node"><title>WORKFLOWINTERNALSINKCONTROL</title>
<polygon fill="#66cd00" stroke="black" points="786,-20 793,-30.5 779,-30.5 786,-20"/>
</g>
</g>
</svg>
