<?xml version="1.0" encoding="UTF-8" standalone="no"?>
<!DOCTYPE svg PUBLIC "-//W3C//DTD SVG 1.1//EN"
 "http://www.w3.org/Graphics/SVG/1.1/DTD/svg11.dtd">
<!-- Generated by graphviz version 2.26.0 (20091210.2329)
 -->
<!-- Title: t2flow_graph Pages: 1 -->
<svg width="201pt" height="256pt"
 viewBox="0.00 0.00 201.00 256.00" xmlns="http://www.w3.org/2000/svg" xmlns:xlink="http://www.w3.org/1999/xlink">
<g id="graph1" class="graph" transform="scale(1 1) rotate(0) translate(4 252)">
<title>t2flow_graph</title>
<polygon fill="white" stroke="white" points="-4,5 -4,-252 198,-252 198,5 -4,5"/>
<g id="graph2" class="cluster"><title>cluster_sources</title>
<polygon fill="none" stroke="black" stroke-dasharray="1,5" points="8,-181 8,-240 150,-240 150,-181 8,-181"/>
<text text-anchor="middle" x="52" y="-227" font-family="Helvetica,sans-Serif" font-size="10.00">Workflow Inputs</text>
</g>
<g id="graph3" class="cluster"><title>cluster_sinks</title>
<polygon fill="none" stroke="black" stroke-dasharray="1,5" points="9,-8 9,-67 105,-67 105,-8 9,-8"/>
<text text-anchor="middle" x="56.5" y="-54" font-family="Helvetica,sans-Serif" font-size="10.00">Workflow Outputs</text>
</g>
<!-- Extraction_of_info -->
<g id="node1" class="node"><title>Extraction_of_info</title>
<polygon fill="#deb887" stroke="black" points="154,-134.5 60,-134.5 60,-113.5 154,-113.5 154,-134.5"/>
<text text-anchor="middle" x="107" y="-121.5" font-family="Helvetica,sans-Serif" font-size="10.00">Extraction_of_info</text>
</g>
<!-- Write_Text_File -->
<g id="node2" class="node"><title>Write_Text_File</title>
<polygon fill="#d15fee" stroke="black" points="91,-96.5 5,-96.5 5,-75.5 91,-75.5 91,-96.5"/>
<text text-anchor="middle" x="48" y="-83.5" font-family="Helvetica,sans-Serif" font-size="10.00">Write_Text_File</text>
</g>
<!-- Extraction_of_info&#45;&gt;Write_Text_File -->
<g id="edge8" class="edge"><title>Extraction_of_info&#45;&gt;Write_Text_File</title>
<path fill="none" stroke="black" d="M90.5652,-113.415C85.0671,-109.874 78.8102,-105.844 72.8178,-101.984"/>
<polygon fill="black" stroke="black" points="74.649,-99.0007 64.3467,-96.5284 70.8586,-104.886 74.649,-99.0007"/>
</g>
<!-- WORKFLOWINTERNALSINK_file_output -->
<g id="node10" class="node"><title>WORKFLOWINTERNALSINK_file_output</title>
<polygon fill="#bcd2ee" stroke="black" points="79,-37.5 17,-37.5 17,-16.5 79,-16.5 79,-37.5"/>
<text text-anchor="middle" x="48" y="-24.5" font-family="Helvetica,sans-Serif" font-size="10.00">file_output</text>
</g>
<!-- Write_Text_File&#45;&gt;WORKFLOWINTERNALSINK_file_output -->
<g id="edge12" class="edge"><title>Write_Text_File&#45;&gt;WORKFLOWINTERNALSINK_file_output</title>
<path fill="none" stroke="black" d="M48,-75.452C48,-67.8285 48,-57.2768 48,-47.966"/>
<polygon fill="black" stroke="black" points="51.5001,-47.8558 48,-37.8559 44.5001,-47.8559 51.5001,-47.8558"/>
</g>
<!-- Get_Nucleotide_GBSeq_XML -->
<g id="node3" class="node"><title>Get_Nucleotide_GBSeq_XML</title>
<polygon fill="#d15fee" stroke="black" points="193,-172.5 47,-172.5 47,-151.5 193,-151.5 193,-172.5"/>
<text text-anchor="middle" x="120" y="-159.5" font-family="Helvetica,sans-Serif" font-size="10.00">Get_Nucleotide_GBSeq_XML</text>
</g>
<!-- Get_Nucleotide_GBSeq_XML&#45;&gt;Extraction_of_info -->
<g id="edge4" class="edge"><title>Get_Nucleotide_GBSeq_XML&#45;&gt;Extraction_of_info</title>
<path fill="none" stroke="black" d="M116.309,-151.212C115.562,-149.028 114.753,-146.664 113.935,-144.273"/>
<polygon fill="black" stroke="black" points="117.203,-143.012 110.655,-134.683 110.58,-145.278 117.203,-143.012"/>
</g>
<!-- WORKFLOWINTERNALSOURCECONTROL -->
<g id="node5" class="node"><title>WORKFLOWINTERNALSOURCECONTROL</title>
<polygon fill="#ff4040" stroke="black" points="135,-207 128,-196.5 142,-196.5 135,-207"/>
</g>
<!-- WORKFLOWINTERNALSOURCE_fasta_file_path -->
<g id="node6" class="node"><title>WORKFLOWINTERNALSOURCE_fasta_file_path</title>
<polygon fill="skyblue" stroke="black" points="96,-210.5 16,-210.5 16,-189.5 96,-189.5 96,-210.5"/>
<text text-anchor="middle" x="56" y="-197.5" font-family="Helvetica,sans-Serif" font-size="10.00">fasta_file_path</text>
</g>
<!-- WORKFLOWINTERNALSOURCE_fasta_file_path&#45;&gt;Write_Text_File -->
<g id="edge6" class="edge"><title>WORKFLOWINTERNALSOURCE_fasta_file_path&#45;&gt;Write_Text_File</title>
<path fill="none" stroke="black" d="M51.5975,-189.426C49.7857,-184.522 47.9023,-178.56 47,-173 43.3505,-150.511 44.3486,-124.321 45.7846,-106.598"/>
<polygon fill="black" stroke="black" points="49.2796,-106.814 46.7223,-96.5323 42.3098,-106.165 49.2796,-106.814"/>
</g>
<!-- WORKFLOWINTERNALSOURCE_id -->
<g id="node7" class="node"><title>WORKFLOWINTERNALSOURCE_id</title>
<polygon fill="skyblue" stroke="black" points="124,-210.5 100,-210.5 100,-189.5 124,-189.5 124,-210.5"/>
<text text-anchor="middle" x="112" y="-197.5" font-family="Helvetica,sans-Serif" font-size="10.00">id</text>
</g>
<!-- WORKFLOWINTERNALSOURCE_id&#45;&gt;Get_Nucleotide_GBSeq_XML -->
<g id="edge10" class="edge"><title>WORKFLOWINTERNALSOURCE_id&#45;&gt;Get_Nucleotide_GBSeq_XML</title>
<path fill="none" stroke="black" d="M114.271,-189.212C114.714,-187.109 115.192,-184.839 115.676,-182.538"/>
<polygon fill="black" stroke="black" points="119.116,-183.19 117.751,-172.683 112.266,-181.748 119.116,-183.19"/>
</g>
<!-- WORKFLOWINTERNALSINKCONTROL -->
<g id="node9" class="node"><title>WORKFLOWINTERNALSINKCONTROL</title>
<polygon fill="#66cd00" stroke="black" points="90,-20 97,-30.5 83,-30.5 90,-20"/>
</g>
</g>
</svg>
