<?xml version="1.0" encoding="UTF-8" standalone="no"?>
<!DOCTYPE svg PUBLIC "-//W3C//DTD SVG 1.1//EN"
 "http://www.w3.org/Graphics/SVG/1.1/DTD/svg11.dtd">
<!-- Generated by graphviz version 2.26.0 (20091210.2329)
 -->
<!-- Title: t2flow_graph Pages: 1 -->
<svg width="728pt" height="1573pt"
 viewBox="0.00 0.00 728.00 1573.00" xmlns="http://www.w3.org/2000/svg" xmlns:xlink="http://www.w3.org/1999/xlink">
<g id="graph1" class="graph" transform="scale(1 1) rotate(0) translate(4 1569)">
<title>t2flow_graph</title>
<polygon fill="white" stroke="white" points="-4,5 -4,-1569 725,-1569 725,5 -4,5"/>
<g id="graph2" class="cluster"><title>cluster_Workflow6Workflow6</title>
<polygon fill="aliceblue" stroke="black" points="219,-1259 219,-1490 461,-1490 461,-1259 219,-1259"/>
<text text-anchor="middle" x="250.5" y="-1477" font-family="Helvetica,sans-Serif" font-size="10.00">Workflow6</text>
</g>
<g id="graph3" class="cluster"><title>cluster_Workflow6sources</title>
<polygon fill="none" stroke="black" stroke-dasharray="1,5" points="321,-1402 321,-1461 453,-1461 453,-1402 321,-1402"/>
<text text-anchor="middle" x="365" y="-1448" font-family="Helvetica,sans-Serif" font-size="10.00">Workflow Inputs</text>
</g>
<g id="graph4" class="cluster"><title>cluster_Workflow6sinks</title>
<polygon fill="none" stroke="black" stroke-dasharray="1,5" points="319,-1267 319,-1326 453,-1326 453,-1267 319,-1267"/>
<text text-anchor="middle" x="366.5" y="-1313" font-family="Helvetica,sans-Serif" font-size="10.00">Workflow Outputs</text>
</g>
<g id="graph5" class="cluster"><title>cluster_Workflow7Workflow7</title>
<polygon fill="aliceblue" stroke="black" points="312,-944 312,-1251 488,-1251 488,-944 312,-944"/>
<text text-anchor="middle" x="343.5" y="-1238" font-family="Helvetica,sans-Serif" font-size="10.00">Workflow7</text>
</g>
<g id="graph6" class="cluster"><title>cluster_Workflow7sources</title>
<polygon fill="none" stroke="black" stroke-dasharray="1,5" points="332,-1163 332,-1222 460,-1222 460,-1163 332,-1163"/>
<text text-anchor="middle" x="376" y="-1209" font-family="Helvetica,sans-Serif" font-size="10.00">Workflow Inputs</text>
</g>
<g id="graph7" class="cluster"><title>cluster_Workflow7sinks</title>
<polygon fill="none" stroke="black" stroke-dasharray="1,5" points="341,-952 341,-1011 479,-1011 479,-952 341,-952"/>
<text text-anchor="middle" x="388.5" y="-998" font-family="Helvetica,sans-Serif" font-size="10.00">Workflow Outputs</text>
</g>
<g id="graph8" class="cluster"><title>cluster_Workflow18Workflow18</title>
<polygon fill="aliceblue" stroke="black" points="339,-629 339,-936 497,-936 497,-629 339,-629"/>
<text text-anchor="middle" x="373" y="-923" font-family="Helvetica,sans-Serif" font-size="10.00">Workflow18</text>
</g>
<g id="graph9" class="cluster"><title>cluster_Workflow18sources</title>
<polygon fill="none" stroke="black" stroke-dasharray="1,5" points="347,-848 347,-907 489,-907 489,-848 347,-848"/>
<text text-anchor="middle" x="391" y="-894" font-family="Helvetica,sans-Serif" font-size="10.00">Workflow Inputs</text>
</g>
<g id="graph10" class="cluster"><title>cluster_Workflow18sinks</title>
<polygon fill="none" stroke="black" stroke-dasharray="1,5" points="359,-637 359,-696 489,-696 489,-637 359,-637"/>
<text text-anchor="middle" x="406.5" y="-683" font-family="Helvetica,sans-Serif" font-size="10.00">Workflow Outputs</text>
</g>
<g id="graph11" class="cluster"><title>cluster_Workflow9Workflow9</title>
<polygon fill="aliceblue" stroke="black" points="358,-352 358,-621 504,-621 504,-352 358,-352"/>
<text text-anchor="middle" x="389.5" y="-608" font-family="Helvetica,sans-Serif" font-size="10.00">Workflow9</text>
</g>
<g id="graph12" class="cluster"><title>cluster_Workflow9sources</title>
<polygon fill="none" stroke="black" stroke-dasharray="1,5" points="386,-533 386,-592 476,-592 476,-533 386,-533"/>
<text text-anchor="middle" x="430" y="-579" font-family="Helvetica,sans-Serif" font-size="10.00">Workflow Inputs</text>
</g>
<g id="graph13" class="cluster"><title>cluster_Workflow9sinks</title>
<polygon fill="none" stroke="black" stroke-dasharray="1,5" points="385,-360 385,-419 495,-419 495,-360 385,-360"/>
<text text-anchor="middle" x="432.5" y="-406" font-family="Helvetica,sans-Serif" font-size="10.00">Workflow Outputs</text>
</g>
<g id="graph14" class="cluster"><title>cluster_Workflow10Workflow10</title>
<polygon fill="aliceblue" stroke="black" points="8,-75 8,-344 712,-344 712,-75 8,-75"/>
<text text-anchor="middle" x="42" y="-331" font-family="Helvetica,sans-Serif" font-size="10.00">Workflow10</text>
</g>
<g id="graph15" class="cluster"><title>cluster_Workflow10sources</title>
<polygon fill="none" stroke="black" stroke-dasharray="1,5" points="387,-256 387,-315 589,-315 589,-256 387,-256"/>
<text text-anchor="middle" x="431" y="-302" font-family="Helvetica,sans-Serif" font-size="10.00">Workflow Inputs</text>
</g>
<g id="graph16" class="cluster"><title>cluster_Workflow10sinks</title>
<polygon fill="none" stroke="black" stroke-dasharray="1,5" points="255,-83 255,-142 621,-142 621,-83 255,-83"/>
<text text-anchor="middle" x="302.5" y="-129" font-family="Helvetica,sans-Serif" font-size="10.00">Workflow Outputs</text>
</g>
<g id="graph17" class="cluster"><title>cluster_sources</title>
<polygon fill="none" stroke="black" stroke-dasharray="1,5" points="290,-1498 290,-1557 624,-1557 624,-1498 290,-1498"/>
<text text-anchor="middle" x="334" y="-1544" font-family="Helvetica,sans-Serif" font-size="10.00">Workflow Inputs</text>
</g>
<g id="graph18" class="cluster"><title>cluster_sinks</title>
<polygon fill="none" stroke="black" stroke-dasharray="1,5" points="199,-8 199,-67 603,-67 603,-8 199,-8"/>
<text text-anchor="middle" x="246.5" y="-54" font-family="Helvetica,sans-Serif" font-size="10.00">Workflow Outputs</text>
</g>
<!-- Workflow6List_Files_by_Extension -->
<g id="node2" class="node"><title>Workflow6List_Files_by_Extension</title>
<polygon fill="#d15fee" stroke="black" points="438,-1393.5 316,-1393.5 316,-1372.5 438,-1372.5 438,-1393.5"/>
<text text-anchor="middle" x="377" y="-1380.5" font-family="Helvetica,sans-Serif" font-size="10.00">List_Files_by_Extension</text>
</g>
<!-- Workflow6binaryFileReader -->
<g id="node4" class="node"><title>Workflow6binaryFileReader</title>
<polygon fill="#deb887" stroke="black" points="422,-1355.5 332,-1355.5 332,-1334.5 422,-1334.5 422,-1355.5"/>
<text text-anchor="middle" x="377" y="-1342.5" font-family="Helvetica,sans-Serif" font-size="10.00">binaryFileReader</text>
</g>
<!-- Workflow6List_Files_by_Extension&#45;&gt;Workflow6binaryFileReader -->
<g id="edge9" class="edge"><title>Workflow6List_Files_by_Extension&#45;&gt;Workflow6binaryFileReader</title>
<path fill="none" stroke="black" d="M377,-1372.21C377,-1370.19 377,-1368.01 377,-1365.8"/>
<polygon fill="black" stroke="black" points="380.5,-1365.68 377,-1355.68 373.5,-1365.68 380.5,-1365.68"/>
</g>
<!-- Workflow6extension_value -->
<g id="node3" class="node"><title>Workflow6extension_value</title>
<polygon fill="#b0c4de" stroke="black" points="313,-1431.5 227,-1431.5 227,-1410.5 313,-1410.5 313,-1431.5"/>
<text text-anchor="middle" x="270" y="-1418.5" font-family="Helvetica,sans-Serif" font-size="10.00">extension_value</text>
</g>
<!-- Workflow6extension_value&#45;&gt;Workflow6List_Files_by_Extension -->
<g id="edge7" class="edge"><title>Workflow6extension_value&#45;&gt;Workflow6List_Files_by_Extension</title>
<path fill="none" stroke="black" d="M297.172,-1410.44C304.555,-1407.64 312.565,-1404.65 320,-1402 324.85,-1400.27 329.948,-1398.5 335.02,-1396.77"/>
<polygon fill="black" stroke="black" points="336.309,-1400.03 344.665,-1393.52 334.071,-1393.4 336.309,-1400.03"/>
</g>
<!-- Workflow6WORKFLOWINTERNALSINK_pdfFileContentsOut -->
<g id="node10" class="node"><title>Workflow6WORKFLOWINTERNALSINK_pdfFileContentsOut</title>
<polygon fill="#bcd2ee" stroke="black" points="427,-1296.5 327,-1296.5 327,-1275.5 427,-1275.5 427,-1296.5"/>
<text text-anchor="middle" x="377" y="-1283.5" font-family="Helvetica,sans-Serif" font-size="10.00">pdfFileContentsOut</text>
</g>
<!-- Workflow6binaryFileReader&#45;&gt;Workflow6WORKFLOWINTERNALSINK_pdfFileContentsOut -->
<g id="edge11" class="edge"><title>Workflow6binaryFileReader&#45;&gt;Workflow6WORKFLOWINTERNALSINK_pdfFileContentsOut</title>
<path fill="none" stroke="black" d="M377,-1334.45C377,-1326.83 377,-1316.28 377,-1306.97"/>
<polygon fill="black" stroke="black" points="380.5,-1306.86 377,-1296.86 373.5,-1306.86 380.5,-1306.86"/>
</g>
<!-- Workflow6WORKFLOWINTERNALSOURCECONTROL -->
<g id="node6" class="node"><title>Workflow6WORKFLOWINTERNALSOURCECONTROL</title>
<polygon fill="#ff4040" stroke="black" points="438,-1428 431,-1417.5 445,-1417.5 438,-1428"/>
</g>
<!-- Workflow6WORKFLOWINTERNALSOURCE_pdfDirectoryPathIn -->
<g id="node7" class="node"><title>Workflow6WORKFLOWINTERNALSOURCE_pdfDirectoryPathIn</title>
<polygon fill="skyblue" stroke="black" points="427,-1431.5 329,-1431.5 329,-1410.5 427,-1410.5 427,-1431.5"/>
<text text-anchor="middle" x="378" y="-1418.5" font-family="Helvetica,sans-Serif" font-size="10.00">pdfDirectoryPathIn</text>
</g>
<!-- Workflow6WORKFLOWINTERNALSOURCE_pdfDirectoryPathIn&#45;&gt;Workflow6List_Files_by_Extension -->
<g id="edge5" class="edge"><title>Workflow6WORKFLOWINTERNALSOURCE_pdfDirectoryPathIn&#45;&gt;Workflow6List_Files_by_Extension</title>
<path fill="none" stroke="black" d="M377.716,-1410.21C377.663,-1408.19 377.606,-1406.01 377.547,-1403.8"/>
<polygon fill="black" stroke="black" points="381.043,-1403.59 377.281,-1393.68 374.046,-1403.77 381.043,-1403.59"/>
</g>
<!-- Workflow6WORKFLOWINTERNALSINKCONTROL -->
<g id="node9" class="node"><title>Workflow6WORKFLOWINTERNALSINKCONTROL</title>
<polygon fill="#66cd00" stroke="black" points="438,-1279 445,-1289.5 431,-1289.5 438,-1279"/>
</g>
<!-- Workflow7WORKFLOWINTERNALSOURCE_pdfFileContentsIn -->
<g id="node22" class="node"><title>Workflow7WORKFLOWINTERNALSOURCE_pdfFileContentsIn</title>
<polygon fill="skyblue" stroke="black" points="434,-1192.5 340,-1192.5 340,-1171.5 434,-1171.5 434,-1192.5"/>
<text text-anchor="middle" x="387" y="-1179.5" font-family="Helvetica,sans-Serif" font-size="10.00">pdfFileContentsIn</text>
</g>
<!-- Workflow6WORKFLOWINTERNALSINK_pdfFileContentsOut&#45;&gt;Workflow7WORKFLOWINTERNALSOURCE_pdfFileContentsIn -->
<g id="edge91" class="edge"><title>Workflow6WORKFLOWINTERNALSINK_pdfFileContentsOut&#45;&gt;Workflow7WORKFLOWINTERNALSOURCE_pdfFileContentsIn</title>
<path fill="none" stroke="black" d="M378.033,-1275.26C379.673,-1258.2 382.903,-1224.61 385.006,-1202.74"/>
<polygon fill="black" stroke="black" points="388.515,-1202.81 385.988,-1192.52 381.547,-1202.14 388.515,-1202.81"/>
</g>
<!-- Workflow7pdfToText -->
<g id="node16" class="node"><title>Workflow7pdfToText</title>
<polygon fill="#a2cd5a" stroke="black" points="430,-1078.5 370,-1078.5 370,-1057.5 430,-1057.5 430,-1078.5"/>
<text text-anchor="middle" x="400" y="-1065.5" font-family="Helvetica,sans-Serif" font-size="10.00">pdfToText</text>
</g>
<!-- Workflow7pdfToText_output -->
<g id="node18" class="node"><title>Workflow7pdfToText_output</title>
<polygon fill="#ab92ea" stroke="black" points="447,-1040.5 355,-1040.5 355,-1019.5 447,-1019.5 447,-1040.5"/>
<text text-anchor="middle" x="401" y="-1027.5" font-family="Helvetica,sans-Serif" font-size="10.00">pdfToText_output</text>
</g>
<!-- Workflow7pdfToText&#45;&gt;Workflow7pdfToText_output -->
<g id="edge20" class="edge"><title>Workflow7pdfToText&#45;&gt;Workflow7pdfToText_output</title>
<path fill="none" stroke="black" d="M400.284,-1057.21C400.337,-1055.19 400.394,-1053.01 400.453,-1050.8"/>
<polygon fill="black" stroke="black" points="403.954,-1050.77 400.719,-1040.68 396.957,-1050.59 403.954,-1050.77"/>
</g>
<!-- Workflow7pdfToText_input -->
<g id="node17" class="node"><title>Workflow7pdfToText_input</title>
<polygon fill="#ab92ea" stroke="black" points="443,-1116.5 357,-1116.5 357,-1095.5 443,-1095.5 443,-1116.5"/>
<text text-anchor="middle" x="400" y="-1103.5" font-family="Helvetica,sans-Serif" font-size="10.00">pdfToText_input</text>
</g>
<!-- Workflow7pdfToText_input&#45;&gt;Workflow7pdfToText -->
<g id="edge16" class="edge"><title>Workflow7pdfToText_input&#45;&gt;Workflow7pdfToText</title>
<path fill="none" stroke="black" d="M400,-1095.21C400,-1093.19 400,-1091.01 400,-1088.8"/>
<polygon fill="black" stroke="black" points="403.5,-1088.68 400,-1078.68 396.5,-1088.68 403.5,-1088.68"/>
</g>
<!-- Workflow7WORKFLOWINTERNALSINK_textFileContentsOut -->
<g id="node25" class="node"><title>Workflow7WORKFLOWINTERNALSINK_textFileContentsOut</title>
<polygon fill="#bcd2ee" stroke="black" points="453,-981.5 349,-981.5 349,-960.5 453,-960.5 453,-981.5"/>
<text text-anchor="middle" x="401" y="-968.5" font-family="Helvetica,sans-Serif" font-size="10.00">textFileContentsOut</text>
</g>
<!-- Workflow7pdfToText_output&#45;&gt;Workflow7WORKFLOWINTERNALSINK_textFileContentsOut -->
<g id="edge24" class="edge"><title>Workflow7pdfToText_output&#45;&gt;Workflow7WORKFLOWINTERNALSINK_textFileContentsOut</title>
<path fill="none" stroke="black" d="M401,-1019.45C401,-1011.83 401,-1001.28 401,-991.966"/>
<polygon fill="black" stroke="black" points="404.5,-991.856 401,-981.856 397.5,-991.856 404.5,-991.856"/>
</g>
<!-- Workflow7Encode_Byte_Array_to_Base_64 -->
<g id="node19" class="node"><title>Workflow7Encode_Byte_Array_to_Base_64</title>
<polygon fill="#d15fee" stroke="black" points="480,-1154.5 320,-1154.5 320,-1133.5 480,-1133.5 480,-1154.5"/>
<text text-anchor="middle" x="400" y="-1141.5" font-family="Helvetica,sans-Serif" font-size="10.00">Encode_Byte_Array_to_Base_64</text>
</g>
<!-- Workflow7Encode_Byte_Array_to_Base_64&#45;&gt;Workflow7pdfToText_input -->
<g id="edge18" class="edge"><title>Workflow7Encode_Byte_Array_to_Base_64&#45;&gt;Workflow7pdfToText_input</title>
<path fill="none" stroke="black" d="M400,-1133.21C400,-1131.19 400,-1129.01 400,-1126.8"/>
<polygon fill="black" stroke="black" points="403.5,-1126.68 400,-1116.68 396.5,-1126.68 403.5,-1126.68"/>
</g>
<!-- Workflow7WORKFLOWINTERNALSOURCECONTROL -->
<g id="node21" class="node"><title>Workflow7WORKFLOWINTERNALSOURCECONTROL</title>
<polygon fill="#ff4040" stroke="black" points="445,-1189 438,-1178.5 452,-1178.5 445,-1189"/>
</g>
<!-- Workflow7WORKFLOWINTERNALSOURCE_pdfFileContentsIn&#45;&gt;Workflow7Encode_Byte_Array_to_Base_64 -->
<g id="edge22" class="edge"><title>Workflow7WORKFLOWINTERNALSOURCE_pdfFileContentsIn&#45;&gt;Workflow7Encode_Byte_Array_to_Base_64</title>
<path fill="none" stroke="black" d="M390.691,-1171.21C391.438,-1169.03 392.247,-1166.66 393.065,-1164.27"/>
<polygon fill="black" stroke="black" points="396.42,-1165.28 396.345,-1154.68 389.797,-1163.01 396.42,-1165.28"/>
</g>
<!-- Workflow7WORKFLOWINTERNALSINKCONTROL -->
<g id="node24" class="node"><title>Workflow7WORKFLOWINTERNALSINKCONTROL</title>
<polygon fill="#66cd00" stroke="black" points="464,-964 471,-974.5 457,-974.5 464,-964"/>
</g>
<!-- Workflow18WORKFLOWINTERNALSOURCE_plainTextForCleaning -->
<g id="node38" class="node"><title>Workflow18WORKFLOWINTERNALSOURCE_plainTextForCleaning</title>
<polygon fill="skyblue" stroke="black" points="463,-877.5 355,-877.5 355,-856.5 463,-856.5 463,-877.5"/>
<text text-anchor="middle" x="409" y="-864.5" font-family="Helvetica,sans-Serif" font-size="10.00">plainTextForCleaning</text>
</g>
<!-- Workflow7WORKFLOWINTERNALSINK_textFileContentsOut&#45;&gt;Workflow18WORKFLOWINTERNALSOURCE_plainTextForCleaning -->
<g id="edge93" class="edge"><title>Workflow7WORKFLOWINTERNALSINK_textFileContentsOut&#45;&gt;Workflow18WORKFLOWINTERNALSOURCE_plainTextForCleaning</title>
<path fill="none" stroke="black" d="M401.826,-960.262C403.138,-943.203 405.722,-909.609 407.405,-887.741"/>
<polygon fill="black" stroke="black" points="410.913,-887.764 408.19,-877.525 403.934,-887.227 410.913,-887.764"/>
</g>
<!-- Workflow18cleanTextASCII -->
<g id="node32" class="node"><title>Workflow18cleanTextASCII</title>
<polygon fill="#a2cd5a" stroke="black" points="458,-763.5 372,-763.5 372,-742.5 458,-742.5 458,-763.5"/>
<text text-anchor="middle" x="415" y="-750.5" font-family="Helvetica,sans-Serif" font-size="10.00">cleanTextASCII</text>
</g>
<!-- Workflow18cleanTextASCII_output -->
<g id="node34" class="node"><title>Workflow18cleanTextASCII_output</title>
<polygon fill="#ab92ea" stroke="black" points="474,-725.5 356,-725.5 356,-704.5 474,-704.5 474,-725.5"/>
<text text-anchor="middle" x="415" y="-712.5" font-family="Helvetica,sans-Serif" font-size="10.00">cleanTextASCII_output</text>
</g>
<!-- Workflow18cleanTextASCII&#45;&gt;Workflow18cleanTextASCII_output -->
<g id="edge33" class="edge"><title>Workflow18cleanTextASCII&#45;&gt;Workflow18cleanTextASCII_output</title>
<path fill="none" stroke="black" d="M415,-742.212C415,-740.19 415,-738.013 415,-735.804"/>
<polygon fill="black" stroke="black" points="418.5,-735.683 415,-725.683 411.5,-735.683 418.5,-735.683"/>
</g>
<!-- Workflow18cleanTextASCII_input -->
<g id="node33" class="node"><title>Workflow18cleanTextASCII_input</title>
<polygon fill="#ab92ea" stroke="black" points="471,-801.5 359,-801.5 359,-780.5 471,-780.5 471,-801.5"/>
<text text-anchor="middle" x="415" y="-788.5" font-family="Helvetica,sans-Serif" font-size="10.00">cleanTextASCII_input</text>
</g>
<!-- Workflow18cleanTextASCII_input&#45;&gt;Workflow18cleanTextASCII -->
<g id="edge29" class="edge"><title>Workflow18cleanTextASCII_input&#45;&gt;Workflow18cleanTextASCII</title>
<path fill="none" stroke="black" d="M415,-780.212C415,-778.19 415,-776.013 415,-773.804"/>
<polygon fill="black" stroke="black" points="418.5,-773.683 415,-763.683 411.5,-773.683 418.5,-773.683"/>
</g>
<!-- Workflow18WORKFLOWINTERNALSINK_cleanedTextASCII -->
<g id="node41" class="node"><title>Workflow18WORKFLOWINTERNALSINK_cleanedTextASCII</title>
<polygon fill="#bcd2ee" stroke="black" points="463,-666.5 367,-666.5 367,-645.5 463,-645.5 463,-666.5"/>
<text text-anchor="middle" x="415" y="-653.5" font-family="Helvetica,sans-Serif" font-size="10.00">cleanedTextASCII</text>
</g>
<!-- Workflow18cleanTextASCII_output&#45;&gt;Workflow18WORKFLOWINTERNALSINK_cleanedTextASCII -->
<g id="edge37" class="edge"><title>Workflow18cleanTextASCII_output&#45;&gt;Workflow18WORKFLOWINTERNALSINK_cleanedTextASCII</title>
<path fill="none" stroke="black" d="M415,-704.452C415,-696.829 415,-686.277 415,-676.966"/>
<polygon fill="black" stroke="black" points="418.5,-676.856 415,-666.856 411.5,-676.856 418.5,-676.856"/>
</g>
<!-- Workflow18encodeByteArrayToBase64 -->
<g id="node35" class="node"><title>Workflow18encodeByteArrayToBase64</title>
<polygon fill="#d15fee" stroke="black" points="483,-839.5 347,-839.5 347,-818.5 483,-818.5 483,-839.5"/>
<text text-anchor="middle" x="415" y="-826.5" font-family="Helvetica,sans-Serif" font-size="10.00">encodeByteArrayToBase64</text>
</g>
<!-- Workflow18encodeByteArrayToBase64&#45;&gt;Workflow18cleanTextASCII_input -->
<g id="edge31" class="edge"><title>Workflow18encodeByteArrayToBase64&#45;&gt;Workflow18cleanTextASCII_input</title>
<path fill="none" stroke="black" d="M415,-818.212C415,-816.19 415,-814.013 415,-811.804"/>
<polygon fill="black" stroke="black" points="418.5,-811.683 415,-801.683 411.5,-811.683 418.5,-811.683"/>
</g>
<!-- Workflow18WORKFLOWINTERNALSOURCECONTROL -->
<g id="node37" class="node"><title>Workflow18WORKFLOWINTERNALSOURCECONTROL</title>
<polygon fill="#ff4040" stroke="black" points="474,-874 467,-863.5 481,-863.5 474,-874"/>
</g>
<!-- Workflow18WORKFLOWINTERNALSOURCE_plainTextForCleaning&#45;&gt;Workflow18encodeByteArrayToBase64 -->
<g id="edge35" class="edge"><title>Workflow18WORKFLOWINTERNALSOURCE_plainTextForCleaning&#45;&gt;Workflow18encodeByteArrayToBase64</title>
<path fill="none" stroke="black" d="M410.703,-856.212C411.023,-854.19 411.366,-852.013 411.715,-849.804"/>
<polygon fill="black" stroke="black" points="415.211,-850.107 413.313,-839.683 408.296,-849.015 415.211,-850.107"/>
</g>
<!-- Workflow18WORKFLOWINTERNALSINKCONTROL -->
<g id="node40" class="node"><title>Workflow18WORKFLOWINTERNALSINKCONTROL</title>
<polygon fill="#66cd00" stroke="black" points="474,-649 481,-659.5 467,-659.5 474,-649"/>
</g>
<!-- Workflow9WORKFLOWINTERNALSOURCE_plainText -->
<g id="node53" class="node"><title>Workflow9WORKFLOWINTERNALSOURCE_plainText</title>
<polygon fill="skyblue" stroke="black" points="450,-562.5 394,-562.5 394,-541.5 450,-541.5 450,-562.5"/>
<text text-anchor="middle" x="422" y="-549.5" font-family="Helvetica,sans-Serif" font-size="10.00">plainText</text>
</g>
<!-- Workflow18WORKFLOWINTERNALSINK_cleanedTextASCII&#45;&gt;Workflow9WORKFLOWINTERNALSOURCE_plainText -->
<g id="edge95" class="edge"><title>Workflow18WORKFLOWINTERNALSINK_cleanedTextASCII&#45;&gt;Workflow9WORKFLOWINTERNALSOURCE_plainText</title>
<path fill="none" stroke="black" d="M415.723,-645.262C416.871,-628.203 419.132,-594.609 420.604,-572.741"/>
<polygon fill="black" stroke="black" points="424.112,-572.737 421.292,-562.525 417.128,-572.267 424.112,-572.737"/>
</g>
<!-- Workflow9splitIntoSentences -->
<g id="node48" class="node"><title>Workflow9splitIntoSentences</title>
<polygon fill="#a2cd5a" stroke="black" points="479,-486.5 381,-486.5 381,-465.5 479,-465.5 479,-486.5"/>
<text text-anchor="middle" x="430" y="-473.5" font-family="Helvetica,sans-Serif" font-size="10.00">splitIntoSentences</text>
</g>
<!-- Workflow9splitIntoSentences_output -->
<g id="node50" class="node"><title>Workflow9splitIntoSentences_output</title>
<polygon fill="#ab92ea" stroke="black" points="496,-448.5 366,-448.5 366,-427.5 496,-427.5 496,-448.5"/>
<text text-anchor="middle" x="431" y="-435.5" font-family="Helvetica,sans-Serif" font-size="10.00">splitIntoSentences_output</text>
</g>
<!-- Workflow9splitIntoSentences&#45;&gt;Workflow9splitIntoSentences_output -->
<g id="edge46" class="edge"><title>Workflow9splitIntoSentences&#45;&gt;Workflow9splitIntoSentences_output</title>
<path fill="none" stroke="black" d="M430.284,-465.212C430.337,-463.19 430.394,-461.013 430.453,-458.804"/>
<polygon fill="black" stroke="black" points="433.954,-458.772 430.719,-448.683 426.957,-458.588 433.954,-458.772"/>
</g>
<!-- Workflow9splitIntoSentences_input -->
<g id="node49" class="node"><title>Workflow9splitIntoSentences_input</title>
<polygon fill="#ab92ea" stroke="black" points="491,-524.5 367,-524.5 367,-503.5 491,-503.5 491,-524.5"/>
<text text-anchor="middle" x="429" y="-511.5" font-family="Helvetica,sans-Serif" font-size="10.00">splitIntoSentences_input</text>
</g>
<!-- Workflow9splitIntoSentences_input&#45;&gt;Workflow9splitIntoSentences -->
<g id="edge42" class="edge"><title>Workflow9splitIntoSentences_input&#45;&gt;Workflow9splitIntoSentences</title>
<path fill="none" stroke="black" d="M429.284,-503.212C429.337,-501.19 429.394,-499.013 429.453,-496.804"/>
<polygon fill="black" stroke="black" points="432.954,-496.772 429.719,-486.683 425.957,-496.588 432.954,-496.772"/>
</g>
<!-- Workflow9WORKFLOWINTERNALSINK_sentencesList -->
<g id="node56" class="node"><title>Workflow9WORKFLOWINTERNALSINK_sentencesList</title>
<polygon fill="#bcd2ee" stroke="black" points="469,-389.5 393,-389.5 393,-368.5 469,-368.5 469,-389.5"/>
<text text-anchor="middle" x="431" y="-376.5" font-family="Helvetica,sans-Serif" font-size="10.00">sentencesList</text>
</g>
<!-- Workflow9splitIntoSentences_output&#45;&gt;Workflow9WORKFLOWINTERNALSINK_sentencesList -->
<g id="edge48" class="edge"><title>Workflow9splitIntoSentences_output&#45;&gt;Workflow9WORKFLOWINTERNALSINK_sentencesList</title>
<path fill="none" stroke="black" d="M431,-427.452C431,-419.829 431,-409.277 431,-399.966"/>
<polygon fill="black" stroke="black" points="434.5,-399.856 431,-389.856 427.5,-399.856 434.5,-399.856"/>
</g>
<!-- Workflow9WORKFLOWINTERNALSOURCECONTROL -->
<g id="node52" class="node"><title>Workflow9WORKFLOWINTERNALSOURCECONTROL</title>
<polygon fill="#ff4040" stroke="black" points="461,-559 454,-548.5 468,-548.5 461,-559"/>
</g>
<!-- Workflow9WORKFLOWINTERNALSOURCE_plainText&#45;&gt;Workflow9splitIntoSentences_input -->
<g id="edge44" class="edge"><title>Workflow9WORKFLOWINTERNALSOURCE_plainText&#45;&gt;Workflow9splitIntoSentences_input</title>
<path fill="none" stroke="black" d="M423.987,-541.212C424.375,-539.109 424.793,-536.839 425.217,-534.538"/>
<polygon fill="black" stroke="black" points="428.662,-535.152 427.032,-524.683 421.778,-533.884 428.662,-535.152"/>
</g>
<!-- Workflow9WORKFLOWINTERNALSINKCONTROL -->
<g id="node55" class="node"><title>Workflow9WORKFLOWINTERNALSINKCONTROL</title>
<polygon fill="#66cd00" stroke="black" points="480,-372 487,-382.5 473,-382.5 480,-372"/>
</g>
<!-- Workflow10WORKFLOWINTERNALSOURCE_sentencesList -->
<g id="node77" class="node"><title>Workflow10WORKFLOWINTERNALSOURCE_sentencesList</title>
<polygon fill="skyblue" stroke="black" points="471,-285.5 395,-285.5 395,-264.5 471,-264.5 471,-285.5"/>
<text text-anchor="middle" x="433" y="-272.5" font-family="Helvetica,sans-Serif" font-size="10.00">sentencesList</text>
</g>
<!-- Workflow9WORKFLOWINTERNALSINK_sentencesList&#45;&gt;Workflow10WORKFLOWINTERNALSOURCE_sentencesList -->
<g id="edge97" class="edge"><title>Workflow9WORKFLOWINTERNALSINK_sentencesList&#45;&gt;Workflow10WORKFLOWINTERNALSOURCE_sentencesList</title>
<path fill="none" stroke="black" d="M431.207,-368.262C431.535,-351.203 432.181,-317.609 432.601,-295.741"/>
<polygon fill="black" stroke="black" points="436.105,-295.59 432.798,-285.525 429.106,-295.456 436.105,-295.59"/>
</g>
<!-- Workflow10sentenceListNormaliser -->
<g id="node62" class="node"><title>Workflow10sentenceListNormaliser</title>
<polygon fill="#deb887" stroke="black" points="492,-247.5 374,-247.5 374,-226.5 492,-226.5 492,-247.5"/>
<text text-anchor="middle" x="433" y="-234.5" font-family="Helvetica,sans-Serif" font-size="10.00">sentenceListNormaliser</text>
</g>
<!-- Workflow10analyze -->
<g id="node63" class="node"><title>Workflow10analyze</title>
<polygon fill="#a2cd5a" stroke="black" points="350,-209.5 300,-209.5 300,-188.5 350,-188.5 350,-209.5"/>
<text text-anchor="middle" x="325" y="-196.5" font-family="Helvetica,sans-Serif" font-size="10.00">analyze</text>
</g>
<!-- Workflow10sentenceListNormaliser&#45;&gt;Workflow10analyze -->
<g id="edge63" class="edge"><title>Workflow10sentenceListNormaliser&#45;&gt;Workflow10analyze</title>
<path fill="none" stroke="black" d="M402.916,-226.415C389.556,-221.714 373.749,-216.153 359.876,-211.271"/>
<polygon fill="black" stroke="black" points="360.773,-207.877 350.179,-207.859 358.45,-214.48 360.773,-207.877"/>
</g>
<!-- Workflow10jamesXPath -->
<g id="node68" class="node"><title>Workflow10jamesXPath</title>
<polygon fill="#deb887" stroke="black" points="478,-171.5 408,-171.5 408,-150.5 478,-150.5 478,-171.5"/>
<text text-anchor="middle" x="443" y="-158.5" font-family="Helvetica,sans-Serif" font-size="10.00">jamesXPath</text>
</g>
<!-- Workflow10analyze&#45;&gt;Workflow10jamesXPath -->
<g id="edge65" class="edge"><title>Workflow10analyze&#45;&gt;Workflow10jamesXPath</title>
<path fill="none" stroke="black" d="M350.025,-190.941C364.729,-186.206 383.703,-180.096 400.673,-174.631"/>
<polygon fill="black" stroke="black" points="401.939,-177.9 410.385,-171.503 399.793,-171.237 401.939,-177.9"/>
</g>
<!-- Workflow10jamesXPath_2 -->
<g id="node73" class="node"><title>Workflow10jamesXPath_2</title>
<polygon fill="#deb887" stroke="black" points="352,-171.5 272,-171.5 272,-150.5 352,-150.5 352,-171.5"/>
<text text-anchor="middle" x="312" y="-158.5" font-family="Helvetica,sans-Serif" font-size="10.00">jamesXPath_2</text>
</g>
<!-- Workflow10analyze&#45;&gt;Workflow10jamesXPath_2 -->
<g id="edge77" class="edge"><title>Workflow10analyze&#45;&gt;Workflow10jamesXPath_2</title>
<path fill="none" stroke="black" d="M321.309,-188.212C320.562,-186.028 319.753,-183.664 318.935,-181.273"/>
<polygon fill="black" stroke="black" points="322.203,-180.012 315.655,-171.683 315.58,-182.278 322.203,-180.012"/>
</g>
<!-- Workflow10filter_value -->
<g id="node64" class="node"><title>Workflow10filter_value</title>
<polygon fill="#b0c4de" stroke="black" points="370,-247.5 306,-247.5 306,-226.5 370,-226.5 370,-247.5"/>
<text text-anchor="middle" x="338" y="-234.5" font-family="Helvetica,sans-Serif" font-size="10.00">filter_value</text>
</g>
<!-- Workflow10filter_value&#45;&gt;Workflow10analyze -->
<g id="edge55" class="edge"><title>Workflow10filter_value&#45;&gt;Workflow10analyze</title>
<path fill="none" stroke="black" d="M334.309,-226.212C333.562,-224.028 332.753,-221.664 331.935,-219.273"/>
<polygon fill="black" stroke="black" points="335.203,-218.012 328.655,-209.683 328.58,-220.278 335.203,-218.012"/>
</g>
<!-- Workflow10input_format_value -->
<g id="node65" class="node"><title>Workflow10input_format_value</title>
<polygon fill="#b0c4de" stroke="black" points="302,-247.5 204,-247.5 204,-226.5 302,-226.5 302,-247.5"/>
<text text-anchor="middle" x="253" y="-234.5" font-family="Helvetica,sans-Serif" font-size="10.00">input_format_value</text>
</g>
<!-- Workflow10input_format_value&#45;&gt;Workflow10analyze -->
<g id="edge57" class="edge"><title>Workflow10input_format_value&#45;&gt;Workflow10analyze</title>
<path fill="none" stroke="black" d="M273.056,-226.415C280.156,-222.668 288.292,-218.374 295.986,-214.313"/>
<polygon fill="black" stroke="black" points="297.841,-217.291 305.052,-209.528 294.574,-211.101 297.841,-217.291"/>
</g>
<!-- Workflow10output_format_value -->
<g id="node66" class="node"><title>Workflow10output_format_value</title>
<polygon fill="#b0c4de" stroke="black" points="200,-247.5 96,-247.5 96,-226.5 200,-226.5 200,-247.5"/>
<text text-anchor="middle" x="148" y="-234.5" font-family="Helvetica,sans-Serif" font-size="10.00">output_format_value</text>
</g>
<!-- Workflow10output_format_value&#45;&gt;Workflow10analyze -->
<g id="edge59" class="edge"><title>Workflow10output_format_value&#45;&gt;Workflow10analyze</title>
<path fill="none" stroke="black" d="M200.158,-226.716C201.451,-226.474 202.733,-226.234 204,-226 241.621,-219.035 254.047,-220.632 290.087,-211.462"/>
<polygon fill="black" stroke="black" points="291.021,-214.835 299.788,-208.887 289.225,-208.07 291.021,-214.835"/>
</g>
<!-- Workflow10stoplist_value -->
<g id="node67" class="node"><title>Workflow10stoplist_value</title>
<polygon fill="#b0c4de" stroke="black" points="92,-247.5 16,-247.5 16,-226.5 92,-226.5 92,-247.5"/>
<text text-anchor="middle" x="54" y="-234.5" font-family="Helvetica,sans-Serif" font-size="10.00">stoplist_value</text>
</g>
<!-- Workflow10stoplist_value&#45;&gt;Workflow10analyze -->
<g id="edge61" class="edge"><title>Workflow10stoplist_value&#45;&gt;Workflow10analyze</title>
<path fill="none" stroke="black" d="M92.3932,-226.655C93.6065,-226.421 94.811,-226.202 96,-226 180.655,-211.643 207.051,-228.238 289.977,-211.158"/>
<polygon fill="black" stroke="black" points="290.789,-214.564 299.823,-209.03 289.31,-207.722 290.789,-214.564"/>
</g>
<!-- Workflow10WORKFLOWINTERNALSINK_termCandidatesAboveThreshold -->
<g id="node81" class="node"><title>Workflow10WORKFLOWINTERNALSINK_termCandidatesAboveThreshold</title>
<polygon fill="#bcd2ee" stroke="black" points="521,-112.5 365,-112.5 365,-91.5 521,-91.5 521,-112.5"/>
<text text-anchor="middle" x="443" y="-99.5" font-family="Helvetica,sans-Serif" font-size="10.00">termCandidatesAboveThreshold</text>
</g>
<!-- Workflow10jamesXPath&#45;&gt;Workflow10WORKFLOWINTERNALSINK_termCandidatesAboveThreshold -->
<g id="edge81" class="edge"><title>Workflow10jamesXPath&#45;&gt;Workflow10WORKFLOWINTERNALSINK_termCandidatesAboveThreshold</title>
<path fill="none" stroke="black" d="M443,-150.452C443,-142.829 443,-132.277 443,-122.966"/>
<polygon fill="black" stroke="black" points="446.5,-122.856 443,-112.856 439.5,-122.856 446.5,-122.856"/>
</g>
<!-- Workflow10Concatenate_two_strings -->
<g id="node69" class="node"><title>Workflow10Concatenate_two_strings</title>
<polygon fill="#d15fee" stroke="black" points="624,-247.5 496,-247.5 496,-226.5 624,-226.5 624,-247.5"/>
<text text-anchor="middle" x="560" y="-234.5" font-family="Helvetica,sans-Serif" font-size="10.00">Concatenate_two_strings</text>
</g>
<!-- Workflow10Concatenate_two_strings_2 -->
<g id="node71" class="node"><title>Workflow10Concatenate_two_strings_2</title>
<polygon fill="#d15fee" stroke="black" points="629,-209.5 491,-209.5 491,-188.5 629,-188.5 629,-209.5"/>
<text text-anchor="middle" x="560" y="-196.5" font-family="Helvetica,sans-Serif" font-size="10.00">Concatenate_two_strings_2</text>
</g>
<!-- Workflow10Concatenate_two_strings&#45;&gt;Workflow10Concatenate_two_strings_2 -->
<g id="edge73" class="edge"><title>Workflow10Concatenate_two_strings&#45;&gt;Workflow10Concatenate_two_strings_2</title>
<path fill="none" stroke="black" d="M560,-226.212C560,-224.19 560,-222.013 560,-219.804"/>
<polygon fill="black" stroke="black" points="563.5,-219.683 560,-209.683 556.5,-219.683 563.5,-219.683"/>
</g>
<!-- Workflow10xpath_first_bit -->
<g id="node70" class="node"><title>Workflow10xpath_first_bit</title>
<polygon fill="#b0c4de" stroke="black" points="675,-285.5 597,-285.5 597,-264.5 675,-264.5 675,-285.5"/>
<text text-anchor="middle" x="636" y="-272.5" font-family="Helvetica,sans-Serif" font-size="10.00">xpath_first_bit</text>
</g>
<!-- Workflow10xpath_first_bit&#45;&gt;Workflow10Concatenate_two_strings -->
<g id="edge71" class="edge"><title>Workflow10xpath_first_bit&#45;&gt;Workflow10Concatenate_two_strings</title>
<path fill="none" stroke="black" d="M614.83,-264.415C607.171,-260.585 598.369,-256.185 590.091,-252.046"/>
<polygon fill="black" stroke="black" points="591.566,-248.87 581.057,-247.528 588.436,-255.131 591.566,-248.87"/>
</g>
<!-- Workflow10Concatenate_two_strings_2&#45;&gt;Workflow10jamesXPath -->
<g id="edge67" class="edge"><title>Workflow10Concatenate_two_strings_2&#45;&gt;Workflow10jamesXPath</title>
<path fill="none" stroke="black" d="M527.409,-188.415C514.351,-184.174 499.134,-179.232 485.245,-174.721"/>
<polygon fill="black" stroke="black" points="486.008,-171.289 475.416,-171.528 483.846,-177.946 486.008,-171.289"/>
</g>
<!-- Workflow10WORKFLOWINTERNALSINK_xpathOutput -->
<g id="node82" class="node"><title>Workflow10WORKFLOWINTERNALSINK_xpathOutput</title>
<polygon fill="#bcd2ee" stroke="black" points="595,-112.5 525,-112.5 525,-91.5 595,-91.5 595,-112.5"/>
<text text-anchor="middle" x="560" y="-99.5" font-family="Helvetica,sans-Serif" font-size="10.00">xpathOutput</text>
</g>
<!-- Workflow10Concatenate_two_strings_2&#45;&gt;Workflow10WORKFLOWINTERNALSINK_xpathOutput -->
<g id="edge83" class="edge"><title>Workflow10Concatenate_two_strings_2&#45;&gt;Workflow10WORKFLOWINTERNALSINK_xpathOutput</title>
<path fill="none" stroke="black" d="M560,-188.249C560,-172.433 560,-142.603 560,-122.513"/>
<polygon fill="black" stroke="black" points="563.5,-122.505 560,-112.505 556.5,-122.505 563.5,-122.505"/>
</g>
<!-- Workflow10xpath_last_bit -->
<g id="node72" class="node"><title>Workflow10xpath_last_bit</title>
<polygon fill="#b0c4de" stroke="black" points="704,-247.5 628,-247.5 628,-226.5 704,-226.5 704,-247.5"/>
<text text-anchor="middle" x="666" y="-234.5" font-family="Helvetica,sans-Serif" font-size="10.00">xpath_last_bit</text>
</g>
<!-- Workflow10xpath_last_bit&#45;&gt;Workflow10Concatenate_two_strings_2 -->
<g id="edge75" class="edge"><title>Workflow10xpath_last_bit&#45;&gt;Workflow10Concatenate_two_strings_2</title>
<path fill="none" stroke="black" d="M636.473,-226.415C624.872,-222.256 611.391,-217.423 599.008,-212.984"/>
<polygon fill="black" stroke="black" points="599.963,-209.608 589.369,-209.528 597.601,-216.198 599.963,-209.608"/>
</g>
<!-- Workflow10WORKFLOWINTERNALSINK_allTermCandidates -->
<g id="node83" class="node"><title>Workflow10WORKFLOWINTERNALSINK_allTermCandidates</title>
<polygon fill="#bcd2ee" stroke="black" points="361,-112.5 263,-112.5 263,-91.5 361,-91.5 361,-112.5"/>
<text text-anchor="middle" x="312" y="-99.5" font-family="Helvetica,sans-Serif" font-size="10.00">allTermCandidates</text>
</g>
<!-- Workflow10jamesXPath_2&#45;&gt;Workflow10WORKFLOWINTERNALSINK_allTermCandidates -->
<g id="edge85" class="edge"><title>Workflow10jamesXPath_2&#45;&gt;Workflow10WORKFLOWINTERNALSINK_allTermCandidates</title>
<path fill="none" stroke="black" d="M312,-150.452C312,-142.829 312,-132.277 312,-122.966"/>
<polygon fill="black" stroke="black" points="315.5,-122.856 312,-112.856 308.5,-122.856 315.5,-122.856"/>
</g>
<!-- Workflow10xPathString_value -->
<g id="node74" class="node"><title>Workflow10xPathString_value</title>
<polygon fill="#b0c4de" stroke="black" points="296,-209.5 200,-209.5 200,-188.5 296,-188.5 296,-209.5"/>
<text text-anchor="middle" x="248" y="-196.5" font-family="Helvetica,sans-Serif" font-size="10.00">xPathString_value</text>
</g>
<!-- Workflow10xPathString_value&#45;&gt;Workflow10jamesXPath_2 -->
<g id="edge79" class="edge"><title>Workflow10xPathString_value&#45;&gt;Workflow10jamesXPath_2</title>
<path fill="none" stroke="black" d="M265.828,-188.415C271.93,-184.791 278.895,-180.656 285.532,-176.715"/>
<polygon fill="black" stroke="black" points="287.456,-179.643 294.268,-171.528 283.883,-173.624 287.456,-179.643"/>
</g>
<!-- Workflow10WORKFLOWINTERNALSOURCECONTROL -->
<g id="node76" class="node"><title>Workflow10WORKFLOWINTERNALSOURCECONTROL</title>
<polygon fill="#ff4040" stroke="black" points="574,-282 567,-271.5 581,-271.5 574,-282"/>
</g>
<!-- Workflow10WORKFLOWINTERNALSOURCE_sentencesList&#45;&gt;Workflow10sentenceListNormaliser -->
<g id="edge53" class="edge"><title>Workflow10WORKFLOWINTERNALSOURCE_sentencesList&#45;&gt;Workflow10sentenceListNormaliser</title>
<path fill="none" stroke="black" d="M433,-264.212C433,-262.19 433,-260.013 433,-257.804"/>
<polygon fill="black" stroke="black" points="436.5,-257.683 433,-247.683 429.5,-257.683 436.5,-257.683"/>
</g>
<!-- Workflow10WORKFLOWINTERNALSOURCE_cValueThreshold -->
<g id="node78" class="node"><title>Workflow10WORKFLOWINTERNALSOURCE_cValueThreshold</title>
<polygon fill="skyblue" stroke="black" points="563,-285.5 475,-285.5 475,-264.5 563,-264.5 563,-285.5"/>
<text text-anchor="middle" x="519" y="-272.5" font-family="Helvetica,sans-Serif" font-size="10.00">cValueThreshold</text>
</g>
<!-- Workflow10WORKFLOWINTERNALSOURCE_cValueThreshold&#45;&gt;Workflow10Concatenate_two_strings -->
<g id="edge69" class="edge"><title>Workflow10WORKFLOWINTERNALSOURCE_cValueThreshold&#45;&gt;Workflow10Concatenate_two_strings</title>
<path fill="none" stroke="black" d="M530.639,-264.212C533.869,-261.219 537.463,-257.888 540.997,-254.613"/>
<polygon fill="black" stroke="black" points="543.518,-257.048 548.474,-247.683 538.76,-251.914 543.518,-257.048"/>
</g>
<!-- Workflow10WORKFLOWINTERNALSINKCONTROL -->
<g id="node80" class="node"><title>Workflow10WORKFLOWINTERNALSINKCONTROL</title>
<polygon fill="#66cd00" stroke="black" points="606,-95 613,-105.5 599,-105.5 606,-95"/>
</g>
<!-- WORKFLOWINTERNALSINK_Workflow10_termCandidatesAboveThreshold -->
<g id="node108" class="node"><title>WORKFLOWINTERNALSINK_Workflow10_termCandidatesAboveThreshold</title>
<polygon fill="#bcd2ee" stroke="black" points="577,-37.5 365,-37.5 365,-16.5 577,-16.5 577,-37.5"/>
<text text-anchor="middle" x="471" y="-24.5" font-family="Helvetica,sans-Serif" font-size="10.00">Workflow10_termCandidatesAboveThreshold</text>
</g>
<!-- Workflow10WORKFLOWINTERNALSINK_termCandidatesAboveThreshold&#45;&gt;WORKFLOWINTERNALSINK_Workflow10_termCandidatesAboveThreshold -->
<g id="edge103" class="edge"><title>Workflow10WORKFLOWINTERNALSINK_termCandidatesAboveThreshold&#45;&gt;WORKFLOWINTERNALSINK_Workflow10_termCandidatesAboveThreshold</title>
<path fill="none" stroke="black" d="M447.012,-91.2543C451.295,-79.7815 458.181,-61.3374 463.479,-47.1466"/>
<polygon fill="black" stroke="black" points="466.777,-48.3183 466.996,-37.7257 460.219,-45.87 466.777,-48.3183"/>
</g>
<!-- WORKFLOWINTERNALSINK_Workflow10_allTermCandidates -->
<g id="node107" class="node"><title>WORKFLOWINTERNALSINK_Workflow10_allTermCandidates</title>
<polygon fill="#bcd2ee" stroke="black" points="361,-37.5 207,-37.5 207,-16.5 361,-16.5 361,-37.5"/>
<text text-anchor="middle" x="284" y="-24.5" font-family="Helvetica,sans-Serif" font-size="10.00">Workflow10_allTermCandidates</text>
</g>
<!-- Workflow10WORKFLOWINTERNALSINK_allTermCandidates&#45;&gt;WORKFLOWINTERNALSINK_Workflow10_allTermCandidates -->
<g id="edge101" class="edge"><title>Workflow10WORKFLOWINTERNALSINK_allTermCandidates&#45;&gt;WORKFLOWINTERNALSINK_Workflow10_allTermCandidates</title>
<path fill="none" stroke="black" d="M307.988,-91.2543C303.705,-79.7815 296.819,-61.3374 291.521,-47.1466"/>
<polygon fill="black" stroke="black" points="294.781,-45.87 288.004,-37.7257 288.223,-48.3183 294.781,-45.87"/>
</g>
<!-- WORKFLOWINTERNALSOURCECONTROL -->
<g id="node102" class="node"><title>WORKFLOWINTERNALSOURCECONTROL</title>
<polygon fill="#ff4040" stroke="black" points="609,-1524 602,-1513.5 616,-1513.5 609,-1524"/>
</g>
<!-- WORKFLOWINTERNALSOURCE_Workflow6_pdfDirectoryPathIn -->
<g id="node103" class="node"><title>WORKFLOWINTERNALSOURCE_Workflow6_pdfDirectoryPathIn</title>
<polygon fill="skyblue" stroke="black" points="448,-1527.5 298,-1527.5 298,-1506.5 448,-1506.5 448,-1527.5"/>
<text text-anchor="middle" x="373" y="-1514.5" font-family="Helvetica,sans-Serif" font-size="10.00">Workflow6_pdfDirectoryPathIn</text>
</g>
<!-- WORKFLOWINTERNALSOURCE_Workflow6_pdfDirectoryPathIn&#45;&gt;Workflow6WORKFLOWINTERNALSOURCE_pdfDirectoryPathIn -->
<g id="edge89" class="edge"><title>WORKFLOWINTERNALSOURCE_Workflow6_pdfDirectoryPathIn&#45;&gt;Workflow6WORKFLOWINTERNALSOURCE_pdfDirectoryPathIn</title>
<path fill="none" stroke="black" d="M373.554,-1506.36C374.361,-1490.86 375.877,-1461.77 376.912,-1441.89"/>
<polygon fill="black" stroke="black" points="380.418,-1441.86 377.443,-1431.69 373.428,-1441.49 380.418,-1441.86"/>
</g>
<!-- WORKFLOWINTERNALSOURCE_Workflow10_cValueThreshold -->
<g id="node104" class="node"><title>WORKFLOWINTERNALSOURCE_Workflow10_cValueThreshold</title>
<polygon fill="skyblue" stroke="black" points="598,-1527.5 452,-1527.5 452,-1506.5 598,-1506.5 598,-1527.5"/>
<text text-anchor="middle" x="525" y="-1514.5" font-family="Helvetica,sans-Serif" font-size="10.00">Workflow10_cValueThreshold</text>
</g>
<!-- WORKFLOWINTERNALSOURCE_Workflow10_cValueThreshold&#45;&gt;Workflow10WORKFLOWINTERNALSOURCE_cValueThreshold -->
<g id="edge99" class="edge"><title>WORKFLOWINTERNALSOURCE_Workflow10_cValueThreshold&#45;&gt;Workflow10WORKFLOWINTERNALSOURCE_cValueThreshold</title>
<path fill="none" stroke="black" d="M524.326,-1506.24C522.961,-1483.49 520,-1428.86 520,-1383 520,-1383 520,-1383 520,-438 520,-386.836 519.501,-326.64 519.208,-295.689"/>
<polygon fill="black" stroke="black" points="522.708,-295.645 519.111,-285.68 515.708,-295.713 522.708,-295.645"/>
</g>
<!-- WORKFLOWINTERNALSINKCONTROL -->
<g id="node106" class="node"><title>WORKFLOWINTERNALSINKCONTROL</title>
<polygon fill="#66cd00" stroke="black" points="588,-20 595,-30.5 581,-30.5 588,-20"/>
</g>
</g>
</svg>
