<?xml version="1.0" encoding="UTF-8" standalone="no"?>
<!DOCTYPE svg PUBLIC "-//W3C//DTD SVG 1.1//EN"
 "http://www.w3.org/Graphics/SVG/1.1/DTD/svg11.dtd">
<!-- Generated by graphviz version 2.26.0 (20091210.2329)
 -->
<!-- Title: t2flow_graph Pages: 1 -->
<svg width="739pt" height="708pt"
 viewBox="0.00 0.00 739.00 708.00" xmlns="http://www.w3.org/2000/svg" xmlns:xlink="http://www.w3.org/1999/xlink">
<g id="graph1" class="graph" transform="scale(1 1) rotate(0) translate(4 704)">
<title>t2flow_graph</title>
<polygon fill="white" stroke="white" points="-4,5 -4,-704 736,-704 736,5 -4,5"/>
<g id="graph2" class="cluster"><title>cluster_sources</title>
<polygon fill="none" stroke="black" stroke-dasharray="1,5" points="376,-641 376,-692 464,-692 464,-641 376,-641"/>
<text text-anchor="middle" x="420" y="-679" font-family="Helvetica,sans-Serif" font-size="10.00">Workflow Inputs</text>
</g>
<g id="graph3" class="cluster"><title>cluster_sinks</title>
<polygon fill="none" stroke="black" stroke-dasharray="1,5" points="56,-8 56,-67 286,-67 286,-8 56,-8"/>
<text text-anchor="middle" x="103.5" y="-54" font-family="Helvetica,sans-Serif" font-size="10.00">Workflow Outputs</text>
</g>
<!-- XrefSearch -->
<g id="node1" class="node"><title>XrefSearch</title>
<polygon fill="#a2cd5a" stroke="black" points="343,-552.5 279,-552.5 279,-531.5 343,-531.5 343,-552.5"/>
<text text-anchor="middle" x="311" y="-539.5" font-family="Helvetica,sans-Serif" font-size="10.00">XrefSearch</text>
</g>
<!-- XrefSearch_launchJobBlockingOutput -->
<g id="node4" class="node"><title>XrefSearch_launchJobBlockingOutput</title>
<polygon fill="#ab92ea" stroke="black" points="402,-514.5 220,-514.5 220,-493.5 402,-493.5 402,-514.5"/>
<text text-anchor="middle" x="311" y="-501.5" font-family="Helvetica,sans-Serif" font-size="10.00">XrefSearch_launchJobBlockingOutput</text>
</g>
<!-- XrefSearch&#45;&gt;XrefSearch_launchJobBlockingOutput -->
<g id="edge14" class="edge"><title>XrefSearch&#45;&gt;XrefSearch_launchJobBlockingOutput</title>
<path fill="none" stroke="black" d="M311,-531.212C311,-529.19 311,-527.013 311,-524.804"/>
<polygon fill="black" stroke="black" points="314.5,-524.683 311,-514.683 307.5,-524.683 314.5,-524.683"/>
</g>
<!-- XrefSearch_launchJobBlockingInput -->
<g id="node2" class="node"><title>XrefSearch_launchJobBlockingInput</title>
<polygon fill="#ab92ea" stroke="black" points="398,-590.5 224,-590.5 224,-569.5 398,-569.5 398,-590.5"/>
<text text-anchor="middle" x="311" y="-577.5" font-family="Helvetica,sans-Serif" font-size="10.00">XrefSearch_launchJobBlockingInput</text>
</g>
<!-- XrefSearch_launchJobBlockingInput&#45;&gt;XrefSearch -->
<g id="edge4" class="edge"><title>XrefSearch_launchJobBlockingInput&#45;&gt;XrefSearch</title>
<path fill="none" stroke="black" d="M311,-569.212C311,-567.19 311,-565.013 311,-562.804"/>
<polygon fill="black" stroke="black" points="314.5,-562.683 311,-552.683 307.5,-562.683 314.5,-562.683"/>
</g>
<!-- launchJobBlockingInput_input -->
<g id="node3" class="node"><title>launchJobBlockingInput_input</title>
<polygon fill="#ab92ea" stroke="black" points="322,-628.5 176,-628.5 176,-607.5 322,-607.5 322,-628.5"/>
<text text-anchor="middle" x="249" y="-615.5" font-family="Helvetica,sans-Serif" font-size="10.00">launchJobBlockingInput_input</text>
</g>
<!-- launchJobBlockingInput_input&#45;&gt;XrefSearch_launchJobBlockingInput -->
<g id="edge6" class="edge"><title>launchJobBlockingInput_input&#45;&gt;XrefSearch_launchJobBlockingInput</title>
<path fill="none" stroke="black" d="M266.27,-607.415C272.048,-603.874 278.623,-599.844 284.92,-595.984"/>
<polygon fill="black" stroke="black" points="287.125,-598.738 293.822,-590.528 283.467,-592.77 287.125,-598.738"/>
</g>
<!-- launchJobBlockingOutput_jobOut -->
<g id="node5" class="node"><title>launchJobBlockingOutput_jobOut</title>
<polygon fill="#ab92ea" stroke="black" points="391,-476.5 231,-476.5 231,-455.5 391,-455.5 391,-476.5"/>
<text text-anchor="middle" x="311" y="-463.5" font-family="Helvetica,sans-Serif" font-size="10.00">launchJobBlockingOutput_jobOut</text>
</g>
<!-- XrefSearch_launchJobBlockingOutput&#45;&gt;launchJobBlockingOutput_jobOut -->
<g id="edge16" class="edge"><title>XrefSearch_launchJobBlockingOutput&#45;&gt;launchJobBlockingOutput_jobOut</title>
<path fill="none" stroke="black" d="M311,-493.212C311,-491.19 311,-489.013 311,-486.804"/>
<polygon fill="black" stroke="black" points="314.5,-486.683 311,-476.683 307.5,-486.683 314.5,-486.683"/>
</g>
<!-- jobOut_outputFile -->
<g id="node19" class="node"><title>jobOut_outputFile</title>
<polygon fill="#ab92ea" stroke="black" points="357,-438.5 265,-438.5 265,-417.5 357,-417.5 357,-438.5"/>
<text text-anchor="middle" x="311" y="-425.5" font-family="Helvetica,sans-Serif" font-size="10.00">jobOut_outputFile</text>
</g>
<!-- launchJobBlockingOutput_jobOut&#45;&gt;jobOut_outputFile -->
<g id="edge40" class="edge"><title>launchJobBlockingOutput_jobOut&#45;&gt;jobOut_outputFile</title>
<path fill="none" stroke="black" d="M311,-455.212C311,-453.19 311,-451.013 311,-448.804"/>
<polygon fill="black" stroke="black" points="314.5,-448.683 311,-438.683 307.5,-448.683 314.5,-448.683"/>
</g>
<!-- xrefSearch_Output_filter -->
<g id="node6" class="node"><title>xrefSearch_Output_filter</title>
<polygon fill="#d15fee" stroke="black" points="365,-400.5 243,-400.5 243,-379.5 365,-379.5 365,-400.5"/>
<text text-anchor="middle" x="304" y="-387.5" font-family="Helvetica,sans-Serif" font-size="10.00">xrefSearch_Output_filter</text>
</g>
<!-- launchJobBlockingInput_inputEnsids -->
<g id="node12" class="node"><title>launchJobBlockingInput_inputEnsids</title>
<polygon fill="#ab92ea" stroke="black" points="219,-362.5 43,-362.5 43,-341.5 219,-341.5 219,-362.5"/>
<text text-anchor="middle" x="131" y="-349.5" font-family="Helvetica,sans-Serif" font-size="10.00">launchJobBlockingInput_inputEnsids</text>
</g>
<!-- xrefSearch_Output_filter&#45;&gt;launchJobBlockingInput_inputEnsids -->
<g id="edge26" class="edge"><title>xrefSearch_Output_filter&#45;&gt;launchJobBlockingInput_inputEnsids</title>
<path fill="none" stroke="black" d="M255.81,-379.415C235.002,-374.844 210.487,-369.46 188.718,-364.678"/>
<polygon fill="black" stroke="black" points="189.45,-361.255 178.932,-362.528 187.948,-368.092 189.45,-361.255"/>
</g>
<!-- launchJobBlockingInput_input_2 -->
<g id="node23" class="node"><title>launchJobBlockingInput_input_2</title>
<polygon fill="#ab92ea" stroke="black" points="477,-362.5 321,-362.5 321,-341.5 477,-341.5 477,-362.5"/>
<text text-anchor="middle" x="399" y="-349.5" font-family="Helvetica,sans-Serif" font-size="10.00">launchJobBlockingInput_input_2</text>
</g>
<!-- xrefSearch_Output_filter&#45;&gt;launchJobBlockingInput_input_2 -->
<g id="edge54" class="edge"><title>xrefSearch_Output_filter&#45;&gt;launchJobBlockingInput_input_2</title>
<path fill="none" stroke="black" d="M330.463,-379.415C340.654,-375.338 352.464,-370.614 363.38,-366.248"/>
<polygon fill="black" stroke="black" points="364.694,-369.492 372.679,-362.528 362.094,-362.993 364.694,-369.492"/>
</g>
<!-- xrefSearch_mode -->
<g id="node7" class="node"><title>xrefSearch_mode</title>
<polygon fill="#b0c4de" stroke="black" points="418,-628.5 326,-628.5 326,-607.5 418,-607.5 418,-628.5"/>
<text text-anchor="middle" x="372" y="-615.5" font-family="Helvetica,sans-Serif" font-size="10.00">xrefSearch_mode</text>
</g>
<!-- xrefSearch_mode&#45;&gt;XrefSearch_launchJobBlockingInput -->
<g id="edge8" class="edge"><title>xrefSearch_mode&#45;&gt;XrefSearch_launchJobBlockingInput</title>
<path fill="none" stroke="black" d="M355.008,-607.415C349.324,-603.874 342.855,-599.844 336.659,-595.984"/>
<polygon fill="black" stroke="black" points="338.239,-592.845 327.901,-590.528 334.538,-598.787 338.239,-592.845"/>
</g>
<!-- xrefSearch_inputFileName -->
<g id="node8" class="node"><title>xrefSearch_inputFileName</title>
<polygon fill="#b0c4de" stroke="black" points="252,-666.5 120,-666.5 120,-645.5 252,-645.5 252,-666.5"/>
<text text-anchor="middle" x="186" y="-653.5" font-family="Helvetica,sans-Serif" font-size="10.00">xrefSearch_inputFileName</text>
</g>
<!-- xrefSearch_inputFileName&#45;&gt;launchJobBlockingInput_input -->
<g id="edge10" class="edge"><title>xrefSearch_inputFileName&#45;&gt;launchJobBlockingInput_input</title>
<path fill="none" stroke="black" d="M203.549,-645.415C209.556,-641.791 216.412,-637.656 222.946,-633.715"/>
<polygon fill="black" stroke="black" points="224.79,-636.69 231.545,-628.528 221.174,-630.696 224.79,-636.69"/>
</g>
<!-- regex_filter -->
<g id="node9" class="node"><title>regex_filter</title>
<polygon fill="#b0c4de" stroke="black" points="261,-438.5 197,-438.5 197,-417.5 261,-417.5 261,-438.5"/>
<text text-anchor="middle" x="229" y="-425.5" font-family="Helvetica,sans-Serif" font-size="10.00">regex_filter</text>
</g>
<!-- regex_filter&#45;&gt;xrefSearch_Output_filter -->
<g id="edge20" class="edge"><title>regex_filter&#45;&gt;xrefSearch_Output_filter</title>
<path fill="none" stroke="black" d="M249.892,-417.415C257.368,-413.627 265.949,-409.279 274.041,-405.179"/>
<polygon fill="black" stroke="black" points="275.882,-408.17 283.22,-400.528 272.718,-401.926 275.882,-408.17"/>
</g>
<!-- DGDFetch_Output_filter -->
<g id="node16" class="node"><title>DGDFetch_Output_filter</title>
<polygon fill="#d15fee" stroke="black" points="159,-134.5 37,-134.5 37,-113.5 159,-113.5 159,-134.5"/>
<text text-anchor="middle" x="98" y="-121.5" font-family="Helvetica,sans-Serif" font-size="10.00">DGDFetch_Output_filter</text>
</g>
<!-- regex_filter&#45;&gt;DGDFetch_Output_filter -->
<g id="edge34" class="edge"><title>regex_filter&#45;&gt;DGDFetch_Output_filter</title>
<path fill="none" stroke="black" d="M196.694,-424.668C155.392,-420.078 86.4193,-411.211 63,-401 30.4839,-386.823 0,-387.472 0,-352 0,-352 0,-352 0,-200 0,-170.278 28.497,-150.511 54.7573,-138.606"/>
<polygon fill="black" stroke="black" points="56.4332,-141.697 64.274,-134.571 53.701,-135.252 56.4332,-141.697"/>
</g>
<!-- XrefFetch_Output_filter -->
<g id="node28" class="node"><title>XrefFetch_Output_filter</title>
<polygon fill="#d15fee" stroke="black" points="302,-134.5 184,-134.5 184,-113.5 302,-113.5 302,-134.5"/>
<text text-anchor="middle" x="243" y="-121.5" font-family="Helvetica,sans-Serif" font-size="10.00">XrefFetch_Output_filter</text>
</g>
<!-- regex_filter&#45;&gt;XrefFetch_Output_filter -->
<g id="edge64" class="edge"><title>regex_filter&#45;&gt;XrefFetch_Output_filter</title>
<path fill="none" stroke="black" d="M230.624,-417.205C232.691,-402.497 236,-375.321 236,-352 236,-352 236,-352 236,-200 236,-181.234 238.142,-159.972 240.057,-144.718"/>
<polygon fill="black" stroke="black" points="243.527,-145.169 241.376,-134.795 236.589,-144.246 243.527,-145.169"/>
</g>
<!-- DGDFetchByEnsIds -->
<g id="node10" class="node"><title>DGDFetchByEnsIds</title>
<polygon fill="#a2cd5a" stroke="black" points="172,-286.5 66,-286.5 66,-265.5 172,-265.5 172,-286.5"/>
<text text-anchor="middle" x="119" y="-273.5" font-family="Helvetica,sans-Serif" font-size="10.00">DGDFetchByEnsIds</text>
</g>
<!-- DGDFetchByEnsIds_launchJobBlockingOutput -->
<g id="node13" class="node"><title>DGDFetchByEnsIds_launchJobBlockingOutput</title>
<polygon fill="#ab92ea" stroke="black" points="229,-248.5 7,-248.5 7,-227.5 229,-227.5 229,-248.5"/>
<text text-anchor="middle" x="118" y="-235.5" font-family="Helvetica,sans-Serif" font-size="10.00">DGDFetchByEnsIds_launchJobBlockingOutput</text>
</g>
<!-- DGDFetchByEnsIds&#45;&gt;DGDFetchByEnsIds_launchJobBlockingOutput -->
<g id="edge30" class="edge"><title>DGDFetchByEnsIds&#45;&gt;DGDFetchByEnsIds_launchJobBlockingOutput</title>
<path fill="none" stroke="black" d="M118.716,-265.212C118.663,-263.19 118.606,-261.013 118.547,-258.804"/>
<polygon fill="black" stroke="black" points="122.043,-258.588 118.281,-248.683 115.046,-258.772 122.043,-258.588"/>
</g>
<!-- DGDFetchByEnsIds_launchJobBlockingInput -->
<g id="node11" class="node"><title>DGDFetchByEnsIds_launchJobBlockingInput</title>
<polygon fill="#ab92ea" stroke="black" points="227,-324.5 13,-324.5 13,-303.5 227,-303.5 227,-324.5"/>
<text text-anchor="middle" x="120" y="-311.5" font-family="Helvetica,sans-Serif" font-size="10.00">DGDFetchByEnsIds_launchJobBlockingInput</text>
</g>
<!-- DGDFetchByEnsIds_launchJobBlockingInput&#45;&gt;DGDFetchByEnsIds -->
<g id="edge22" class="edge"><title>DGDFetchByEnsIds_launchJobBlockingInput&#45;&gt;DGDFetchByEnsIds</title>
<path fill="none" stroke="black" d="M119.716,-303.212C119.663,-301.19 119.606,-299.013 119.547,-296.804"/>
<polygon fill="black" stroke="black" points="123.043,-296.588 119.281,-286.683 116.046,-296.772 123.043,-296.588"/>
</g>
<!-- launchJobBlockingInput_inputEnsids&#45;&gt;DGDFetchByEnsIds_launchJobBlockingInput -->
<g id="edge24" class="edge"><title>launchJobBlockingInput_inputEnsids&#45;&gt;DGDFetchByEnsIds_launchJobBlockingInput</title>
<path fill="none" stroke="black" d="M127.877,-341.212C127.268,-339.109 126.611,-336.839 125.945,-334.538"/>
<polygon fill="black" stroke="black" points="129.235,-333.315 123.092,-324.683 122.511,-335.262 129.235,-333.315"/>
</g>
<!-- launchJobBlockingOutput_jobOut_2 -->
<g id="node14" class="node"><title>launchJobBlockingOutput_jobOut_2</title>
<polygon fill="#ab92ea" stroke="black" points="201,-210.5 29,-210.5 29,-189.5 201,-189.5 201,-210.5"/>
<text text-anchor="middle" x="115" y="-197.5" font-family="Helvetica,sans-Serif" font-size="10.00">launchJobBlockingOutput_jobOut_2</text>
</g>
<!-- DGDFetchByEnsIds_launchJobBlockingOutput&#45;&gt;launchJobBlockingOutput_jobOut_2 -->
<g id="edge32" class="edge"><title>DGDFetchByEnsIds_launchJobBlockingOutput&#45;&gt;launchJobBlockingOutput_jobOut_2</title>
<path fill="none" stroke="black" d="M117.148,-227.212C116.989,-225.19 116.817,-223.013 116.642,-220.804"/>
<polygon fill="black" stroke="black" points="120.12,-220.377 115.843,-210.683 113.141,-220.928 120.12,-220.377"/>
</g>
<!-- 2_outputFile -->
<g id="node20" class="node"><title>2_outputFile</title>
<polygon fill="#ab92ea" stroke="black" points="137,-172.5 67,-172.5 67,-151.5 137,-151.5 137,-172.5"/>
<text text-anchor="middle" x="102" y="-159.5" font-family="Helvetica,sans-Serif" font-size="10.00">2_outputFile</text>
</g>
<!-- launchJobBlockingOutput_jobOut_2&#45;&gt;2_outputFile -->
<g id="edge42" class="edge"><title>launchJobBlockingOutput_jobOut_2&#45;&gt;2_outputFile</title>
<path fill="none" stroke="black" d="M111.309,-189.212C110.562,-187.028 109.753,-184.664 108.935,-182.273"/>
<polygon fill="black" stroke="black" points="112.203,-181.012 105.655,-172.683 105.58,-183.278 112.203,-181.012"/>
</g>
<!-- DGDFetch_inputFileName -->
<g id="node15" class="node"><title>DGDFetch_inputFileName</title>
<polygon fill="#b0c4de" stroke="black" points="197,-400.5 65,-400.5 65,-379.5 197,-379.5 197,-400.5"/>
<text text-anchor="middle" x="131" y="-387.5" font-family="Helvetica,sans-Serif" font-size="10.00">DGDFetch_inputFileName</text>
</g>
<!-- DGDFetch_inputFileName&#45;&gt;launchJobBlockingInput_inputEnsids -->
<g id="edge28" class="edge"><title>DGDFetch_inputFileName&#45;&gt;launchJobBlockingInput_inputEnsids</title>
<path fill="none" stroke="black" d="M131,-379.212C131,-377.19 131,-375.013 131,-372.804"/>
<polygon fill="black" stroke="black" points="134.5,-372.683 131,-362.683 127.5,-372.683 134.5,-372.683"/>
</g>
<!-- Get_Web_Page_from_URL -->
<g id="node17" class="node"><title>Get_Web_Page_from_URL</title>
<polygon fill="#d15fee" stroke="black" points="166,-96.5 30,-96.5 30,-75.5 166,-75.5 166,-96.5"/>
<text text-anchor="middle" x="98" y="-83.5" font-family="Helvetica,sans-Serif" font-size="10.00">Get_Web_Page_from_URL</text>
</g>
<!-- DGDFetch_Output_filter&#45;&gt;Get_Web_Page_from_URL -->
<g id="edge38" class="edge"><title>DGDFetch_Output_filter&#45;&gt;Get_Web_Page_from_URL</title>
<path fill="none" stroke="black" d="M98,-113.212C98,-111.19 98,-109.013 98,-106.804"/>
<polygon fill="black" stroke="black" points="101.5,-106.683 98,-96.6831 94.5001,-106.683 101.5,-106.683"/>
</g>
<!-- WORKFLOWINTERNALSINK_Found_genes_by_xref -->
<g id="node38" class="node"><title>WORKFLOWINTERNALSINK_Found_genes_by_xref</title>
<polygon fill="#bcd2ee" stroke="black" points="176,-37.5 64,-37.5 64,-16.5 176,-16.5 176,-37.5"/>
<text text-anchor="middle" x="120" y="-24.5" font-family="Helvetica,sans-Serif" font-size="10.00">Found_genes_by_xref</text>
</g>
<!-- Get_Web_Page_from_URL&#45;&gt;WORKFLOWINTERNALSINK_Found_genes_by_xref -->
<g id="edge72" class="edge"><title>Get_Web_Page_from_URL&#45;&gt;WORKFLOWINTERNALSINK_Found_genes_by_xref</title>
<path fill="none" stroke="black" d="M101.933,-75.452C104.838,-67.6628 108.882,-56.8166 112.408,-47.3606"/>
<polygon fill="black" stroke="black" points="115.738,-48.4485 115.952,-37.8559 109.179,-46.0028 115.738,-48.4485"/>
</g>
<!-- location_searchTerms -->
<g id="node18" class="node"><title>location_searchTerms</title>
<polygon fill="#b0c4de" stroke="black" points="368,-666.5 256,-666.5 256,-645.5 368,-645.5 368,-666.5"/>
<text text-anchor="middle" x="312" y="-653.5" font-family="Helvetica,sans-Serif" font-size="10.00">location_searchTerms</text>
</g>
<!-- location_searchTerms&#45;&gt;launchJobBlockingInput_input -->
<g id="edge12" class="edge"><title>location_searchTerms&#45;&gt;launchJobBlockingInput_input</title>
<path fill="none" stroke="black" d="M294.451,-645.415C288.444,-641.791 281.588,-637.656 275.054,-633.715"/>
<polygon fill="black" stroke="black" points="276.826,-630.696 266.455,-628.528 273.21,-636.69 276.826,-630.696"/>
</g>
<!-- jobOut_outputFile&#45;&gt;xrefSearch_Output_filter -->
<g id="edge18" class="edge"><title>jobOut_outputFile&#45;&gt;xrefSearch_Output_filter</title>
<path fill="none" stroke="black" d="M309.013,-417.212C308.625,-415.109 308.207,-412.839 307.783,-410.538"/>
<polygon fill="black" stroke="black" points="311.222,-409.884 305.968,-400.683 304.338,-411.152 311.222,-409.884"/>
</g>
<!-- 2_outputFile&#45;&gt;DGDFetch_Output_filter -->
<g id="edge36" class="edge"><title>2_outputFile&#45;&gt;DGDFetch_Output_filter</title>
<path fill="none" stroke="black" d="M100.864,-151.212C100.652,-149.19 100.422,-147.013 100.19,-144.804"/>
<polygon fill="black" stroke="black" points="103.652,-144.262 99.1245,-134.683 96.6907,-144.995 103.652,-144.262"/>
</g>
<!-- XrefFetch -->
<g id="node21" class="node"><title>XrefFetch</title>
<polygon fill="#a2cd5a" stroke="black" points="471,-286.5 413,-286.5 413,-265.5 471,-265.5 471,-286.5"/>
<text text-anchor="middle" x="442" y="-273.5" font-family="Helvetica,sans-Serif" font-size="10.00">XrefFetch</text>
</g>
<!-- XrefFetch_launchJobBlockingOutput -->
<g id="node25" class="node"><title>XrefFetch_launchJobBlockingOutput</title>
<polygon fill="#ab92ea" stroke="black" points="511,-248.5 335,-248.5 335,-227.5 511,-227.5 511,-248.5"/>
<text text-anchor="middle" x="423" y="-235.5" font-family="Helvetica,sans-Serif" font-size="10.00">XrefFetch_launchJobBlockingOutput</text>
</g>
<!-- XrefFetch&#45;&gt;XrefFetch_launchJobBlockingOutput -->
<g id="edge56" class="edge"><title>XrefFetch&#45;&gt;XrefFetch_launchJobBlockingOutput</title>
<path fill="none" stroke="black" d="M436.606,-265.212C435.433,-262.866 434.156,-260.313 432.871,-257.741"/>
<polygon fill="black" stroke="black" points="435.944,-256.062 428.342,-248.683 429.683,-259.193 435.944,-256.062"/>
</g>
<!-- XrefFetch_launchJobBlockingInput -->
<g id="node22" class="node"><title>XrefFetch_launchJobBlockingInput</title>
<polygon fill="#ab92ea" stroke="black" points="564,-324.5 396,-324.5 396,-303.5 564,-303.5 564,-324.5"/>
<text text-anchor="middle" x="480" y="-311.5" font-family="Helvetica,sans-Serif" font-size="10.00">XrefFetch_launchJobBlockingInput</text>
</g>
<!-- XrefFetch_launchJobBlockingInput&#45;&gt;XrefFetch -->
<g id="edge44" class="edge"><title>XrefFetch_launchJobBlockingInput&#45;&gt;XrefFetch</title>
<path fill="none" stroke="black" d="M469.212,-303.212C466.3,-300.3 463.068,-297.068 459.878,-293.878"/>
<polygon fill="black" stroke="black" points="462.229,-291.279 452.683,-286.683 457.279,-296.229 462.229,-291.279"/>
</g>
<!-- launchJobBlockingInput_input_2&#45;&gt;XrefFetch_launchJobBlockingInput -->
<g id="edge46" class="edge"><title>launchJobBlockingInput_input_2&#45;&gt;XrefFetch_launchJobBlockingInput</title>
<path fill="none" stroke="black" d="M421.563,-341.415C429.901,-337.503 439.511,-332.995 448.497,-328.779"/>
<polygon fill="black" stroke="black" points="449.991,-331.944 457.558,-324.528 447.018,-325.607 449.991,-331.944"/>
</g>
<!-- xrefFetch_inputFileName -->
<g id="node24" class="node"><title>xrefFetch_inputFileName</title>
<polygon fill="#b0c4de" stroke="black" points="495,-400.5 369,-400.5 369,-379.5 495,-379.5 495,-400.5"/>
<text text-anchor="middle" x="432" y="-387.5" font-family="Helvetica,sans-Serif" font-size="10.00">xrefFetch_inputFileName</text>
</g>
<!-- xrefFetch_inputFileName&#45;&gt;launchJobBlockingInput_input_2 -->
<g id="edge52" class="edge"><title>xrefFetch_inputFileName&#45;&gt;launchJobBlockingInput_input_2</title>
<path fill="none" stroke="black" d="M422.632,-379.212C420.243,-376.461 417.607,-373.426 414.988,-370.41"/>
<polygon fill="black" stroke="black" points="417.477,-367.939 408.277,-362.683 412.192,-372.528 417.477,-367.939"/>
</g>
<!-- launchJobBlockingOutput_jobOut_3 -->
<g id="node26" class="node"><title>launchJobBlockingOutput_jobOut_3</title>
<polygon fill="#ab92ea" stroke="black" points="490,-210.5 318,-210.5 318,-189.5 490,-189.5 490,-210.5"/>
<text text-anchor="middle" x="404" y="-197.5" font-family="Helvetica,sans-Serif" font-size="10.00">launchJobBlockingOutput_jobOut_3</text>
</g>
<!-- XrefFetch_launchJobBlockingOutput&#45;&gt;launchJobBlockingOutput_jobOut_3 -->
<g id="edge58" class="edge"><title>XrefFetch_launchJobBlockingOutput&#45;&gt;launchJobBlockingOutput_jobOut_3</title>
<path fill="none" stroke="black" d="M417.606,-227.212C416.433,-224.866 415.156,-222.313 413.871,-219.741"/>
<polygon fill="black" stroke="black" points="416.944,-218.062 409.342,-210.683 410.683,-221.193 416.944,-218.062"/>
</g>
<!-- 3_outputFile -->
<g id="node27" class="node"><title>3_outputFile</title>
<polygon fill="#ab92ea" stroke="black" points="338,-172.5 268,-172.5 268,-151.5 338,-151.5 338,-172.5"/>
<text text-anchor="middle" x="303" y="-159.5" font-family="Helvetica,sans-Serif" font-size="10.00">3_outputFile</text>
</g>
<!-- launchJobBlockingOutput_jobOut_3&#45;&gt;3_outputFile -->
<g id="edge60" class="edge"><title>launchJobBlockingOutput_jobOut_3&#45;&gt;3_outputFile</title>
<path fill="none" stroke="black" d="M375.866,-189.415C364.922,-185.297 352.221,-180.519 340.518,-176.116"/>
<polygon fill="black" stroke="black" points="341.575,-172.774 330.983,-172.528 339.11,-179.326 341.575,-172.774"/>
</g>
<!-- 3_outputFile&#45;&gt;XrefFetch_Output_filter -->
<g id="edge62" class="edge"><title>3_outputFile&#45;&gt;XrefFetch_Output_filter</title>
<path fill="none" stroke="black" d="M286.287,-151.415C280.695,-147.874 274.332,-143.844 268.238,-139.984"/>
<polygon fill="black" stroke="black" points="269.945,-136.922 259.624,-134.528 266.199,-142.836 269.945,-136.922"/>
</g>
<!-- Get_Web_Page_from_URL_2 -->
<g id="node29" class="node"><title>Get_Web_Page_from_URL_2</title>
<polygon fill="#d15fee" stroke="black" points="316,-96.5 170,-96.5 170,-75.5 316,-75.5 316,-96.5"/>
<text text-anchor="middle" x="243" y="-83.5" font-family="Helvetica,sans-Serif" font-size="10.00">Get_Web_Page_from_URL_2</text>
</g>
<!-- XrefFetch_Output_filter&#45;&gt;Get_Web_Page_from_URL_2 -->
<g id="edge66" class="edge"><title>XrefFetch_Output_filter&#45;&gt;Get_Web_Page_from_URL_2</title>
<path fill="none" stroke="black" d="M243,-113.212C243,-111.19 243,-109.013 243,-106.804"/>
<polygon fill="black" stroke="black" points="246.5,-106.683 243,-96.6831 239.5,-106.683 246.5,-106.683"/>
</g>
<!-- WORKFLOWINTERNALSINK_Xrefs_Fetched -->
<g id="node39" class="node"><title>WORKFLOWINTERNALSINK_Xrefs_Fetched</title>
<polygon fill="#bcd2ee" stroke="black" points="260,-37.5 180,-37.5 180,-16.5 260,-16.5 260,-37.5"/>
<text text-anchor="middle" x="220" y="-24.5" font-family="Helvetica,sans-Serif" font-size="10.00">Xrefs_Fetched</text>
</g>
<!-- Get_Web_Page_from_URL_2&#45;&gt;WORKFLOWINTERNALSINK_Xrefs_Fetched -->
<g id="edge74" class="edge"><title>Get_Web_Page_from_URL_2&#45;&gt;WORKFLOWINTERNALSINK_Xrefs_Fetched</title>
<path fill="none" stroke="black" d="M238.888,-75.452C235.852,-67.6628 231.623,-56.8166 227.937,-47.3606"/>
<polygon fill="black" stroke="black" points="231.125,-45.9017 224.232,-37.8559 224.603,-48.4442 231.125,-45.9017"/>
</g>
<!-- launchJobBlockingInput_xrefsrcs -->
<g id="node30" class="node"><title>launchJobBlockingInput_xrefsrcs</title>
<polygon fill="#ab92ea" stroke="black" points="641,-362.5 481,-362.5 481,-341.5 641,-341.5 641,-362.5"/>
<text text-anchor="middle" x="561" y="-349.5" font-family="Helvetica,sans-Serif" font-size="10.00">launchJobBlockingInput_xrefsrcs</text>
</g>
<!-- launchJobBlockingInput_xrefsrcs&#45;&gt;XrefFetch_launchJobBlockingInput -->
<g id="edge48" class="edge"><title>launchJobBlockingInput_xrefsrcs&#45;&gt;XrefFetch_launchJobBlockingInput</title>
<path fill="none" stroke="black" d="M538.437,-341.415C530.099,-337.503 520.489,-332.995 511.503,-328.779"/>
<polygon fill="black" stroke="black" points="512.982,-325.607 502.442,-324.528 510.009,-331.944 512.982,-325.607"/>
</g>
<!-- location_askedXrefs -->
<g id="node31" class="node"><title>location_askedXrefs</title>
<polygon fill="#b0c4de" stroke="black" points="731,-400.5 627,-400.5 627,-379.5 731,-379.5 731,-400.5"/>
<text text-anchor="middle" x="679" y="-387.5" font-family="Helvetica,sans-Serif" font-size="10.00">location_askedXrefs</text>
</g>
<!-- location_askedXrefs&#45;&gt;launchJobBlockingInput_xrefsrcs -->
<g id="edge68" class="edge"><title>location_askedXrefs&#45;&gt;launchJobBlockingInput_xrefsrcs</title>
<path fill="none" stroke="black" d="M646.13,-379.415C632.96,-375.174 617.614,-370.232 603.606,-365.721"/>
<polygon fill="black" stroke="black" points="604.285,-362.262 593.693,-362.528 602.139,-368.925 604.285,-362.262"/>
</g>
<!-- xrefFetch_SrcsFileName -->
<g id="node32" class="node"><title>xrefFetch_SrcsFileName</title>
<polygon fill="#b0c4de" stroke="black" points="623,-400.5 499,-400.5 499,-379.5 623,-379.5 623,-400.5"/>
<text text-anchor="middle" x="561" y="-387.5" font-family="Helvetica,sans-Serif" font-size="10.00">xrefFetch_SrcsFileName</text>
</g>
<!-- xrefFetch_SrcsFileName&#45;&gt;launchJobBlockingInput_xrefsrcs -->
<g id="edge70" class="edge"><title>xrefFetch_SrcsFileName&#45;&gt;launchJobBlockingInput_xrefsrcs</title>
<path fill="none" stroke="black" d="M561,-379.212C561,-377.19 561,-375.013 561,-372.804"/>
<polygon fill="black" stroke="black" points="564.5,-372.683 561,-362.683 557.5,-372.683 564.5,-372.683"/>
</g>
<!-- xrefFetch_value -->
<g id="node33" class="node"><title>xrefFetch_value</title>
<polygon fill="#b0c4de" stroke="black" points="731,-362.5 645,-362.5 645,-341.5 731,-341.5 731,-362.5"/>
<text text-anchor="middle" x="688" y="-349.5" font-family="Helvetica,sans-Serif" font-size="10.00">xrefFetch_value</text>
</g>
<!-- xrefFetch_value&#45;&gt;XrefFetch_launchJobBlockingInput -->
<g id="edge50" class="edge"><title>xrefFetch_value&#45;&gt;XrefFetch_launchJobBlockingInput</title>
<path fill="none" stroke="black" d="M644.994,-341.819C643.649,-341.538 642.315,-341.264 641,-341 614.266,-335.635 584.886,-330.49 558.626,-326.156"/>
<polygon fill="black" stroke="black" points="559.16,-322.697 548.726,-324.536 558.03,-329.605 559.16,-322.697"/>
</g>
<!-- WORKFLOWINTERNALSOURCECONTROL -->
<g id="node35" class="node"><title>WORKFLOWINTERNALSOURCECONTROL</title>
<polygon fill="#ff4040" stroke="black" points="420,-663 413,-652.5 427,-652.5 420,-663"/>
</g>
<!-- WORKFLOWINTERNALSINKCONTROL -->
<g id="node37" class="node"><title>WORKFLOWINTERNALSINKCONTROL</title>
<polygon fill="#66cd00" stroke="black" points="271,-20 278,-30.5 264,-30.5 271,-20"/>
</g>
</g>
</svg>
