<?xml version="1.0" encoding="UTF-8" standalone="no"?>
<!DOCTYPE svg PUBLIC "-//W3C//DTD SVG 1.1//EN"
 "http://www.w3.org/Graphics/SVG/1.1/DTD/svg11.dtd">
<!-- Generated by graphviz version 2.26.0 (20091210.2329)
 -->
<!-- Title: t2flow_graph Pages: 1 -->
<svg width="278pt" height="180pt"
 viewBox="0.00 0.00 278.00 180.00" xmlns="http://www.w3.org/2000/svg" xmlns:xlink="http://www.w3.org/1999/xlink">
<g id="graph1" class="graph" transform="scale(1 1) rotate(0) translate(4 176)">
<title>t2flow_graph</title>
<polygon fill="white" stroke="white" points="-4,5 -4,-176 275,-176 275,5 -4,5"/>
<g id="graph2" class="cluster"><title>cluster_sources</title>
<polygon fill="none" stroke="black" stroke-dasharray="1,5" points="8,-105 8,-164 262,-164 262,-105 8,-105"/>
<text text-anchor="middle" x="52" y="-151" font-family="Helvetica,sans-Serif" font-size="10.00">Workflow Inputs</text>
</g>
<g id="graph3" class="cluster"><title>cluster_sinks</title>
<polygon fill="none" stroke="black" stroke-dasharray="1,5" points="78,-8 78,-67 192,-67 192,-8 78,-8"/>
<text text-anchor="middle" x="125.5" y="-54" font-family="Helvetica,sans-Serif" font-size="10.00">Workflow Outputs</text>
</g>
<!-- Add_n_concat_tables -->
<g id="node1" class="node"><title>Add_n_concat_tables</title>
<polygon fill="white" stroke="black" points="181,-96.5 71,-96.5 71,-75.5 181,-75.5 181,-96.5"/>
<text text-anchor="middle" x="126" y="-83.5" font-family="Helvetica,sans-Serif" font-size="10.00">Add_n_concat_tables</text>
</g>
<!-- WORKFLOWINTERNALSINK_VoTableResult -->
<g id="node10" class="node"><title>WORKFLOWINTERNALSINK_VoTableResult</title>
<polygon fill="#bcd2ee" stroke="black" points="166,-37.5 86,-37.5 86,-16.5 166,-16.5 166,-37.5"/>
<text text-anchor="middle" x="126" y="-24.5" font-family="Helvetica,sans-Serif" font-size="10.00">VoTableResult</text>
</g>
<!-- Add_n_concat_tables&#45;&gt;WORKFLOWINTERNALSINK_VoTableResult -->
<g id="edge12" class="edge"><title>Add_n_concat_tables&#45;&gt;WORKFLOWINTERNALSINK_VoTableResult</title>
<path fill="none" stroke="black" d="M126,-75.452C126,-67.8285 126,-57.2768 126,-47.966"/>
<polygon fill="black" stroke="black" points="129.5,-47.8558 126,-37.8559 122.5,-47.8559 129.5,-47.8558"/>
</g>
<!-- WORKFLOWINTERNALSOURCECONTROL -->
<g id="node3" class="node"><title>WORKFLOWINTERNALSOURCECONTROL</title>
<polygon fill="#ff4040" stroke="black" points="247,-131 240,-120.5 254,-120.5 247,-131"/>
</g>
<!-- WORKFLOWINTERNALSOURCE_votable4 -->
<g id="node4" class="node"><title>WORKFLOWINTERNALSOURCE_votable4</title>
<polygon fill="skyblue" stroke="black" points="236,-134.5 184,-134.5 184,-113.5 236,-113.5 236,-134.5"/>
<text text-anchor="middle" x="210" y="-121.5" font-family="Helvetica,sans-Serif" font-size="10.00">votable4</text>
</g>
<!-- WORKFLOWINTERNALSOURCE_votable4&#45;&gt;Add_n_concat_tables -->
<g id="edge10" class="edge"><title>WORKFLOWINTERNALSOURCE_votable4&#45;&gt;Add_n_concat_tables</title>
<path fill="none" stroke="black" d="M194.814,-113.447C190.183,-110.488 184.993,-107.421 180,-105 176.627,-103.365 173.076,-101.799 169.472,-100.317"/>
<polygon fill="black" stroke="black" points="170.485,-96.956 159.896,-96.6033 167.953,-103.482 170.485,-96.956"/>
</g>
<!-- WORKFLOWINTERNALSOURCE_votable3 -->
<g id="node5" class="node"><title>WORKFLOWINTERNALSOURCE_votable3</title>
<polygon fill="skyblue" stroke="black" points="180,-134.5 128,-134.5 128,-113.5 180,-113.5 180,-134.5"/>
<text text-anchor="middle" x="154" y="-121.5" font-family="Helvetica,sans-Serif" font-size="10.00">votable3</text>
</g>
<!-- WORKFLOWINTERNALSOURCE_votable3&#45;&gt;Add_n_concat_tables -->
<g id="edge8" class="edge"><title>WORKFLOWINTERNALSOURCE_votable3&#45;&gt;Add_n_concat_tables</title>
<path fill="none" stroke="black" d="M146.051,-113.212C144.143,-110.623 142.05,-107.782 139.958,-104.943"/>
<polygon fill="black" stroke="black" points="142.621,-102.657 133.872,-96.6831 136.986,-106.81 142.621,-102.657"/>
</g>
<!-- WORKFLOWINTERNALSOURCE_votable2 -->
<g id="node6" class="node"><title>WORKFLOWINTERNALSOURCE_votable2</title>
<polygon fill="skyblue" stroke="black" points="124,-134.5 72,-134.5 72,-113.5 124,-113.5 124,-134.5"/>
<text text-anchor="middle" x="98" y="-121.5" font-family="Helvetica,sans-Serif" font-size="10.00">votable2</text>
</g>
<!-- WORKFLOWINTERNALSOURCE_votable2&#45;&gt;Add_n_concat_tables -->
<g id="edge6" class="edge"><title>WORKFLOWINTERNALSOURCE_votable2&#45;&gt;Add_n_concat_tables</title>
<path fill="none" stroke="black" d="M105.949,-113.212C107.857,-110.623 109.95,-107.782 112.042,-104.943"/>
<polygon fill="black" stroke="black" points="115.014,-106.81 118.128,-96.6831 109.379,-102.657 115.014,-106.81"/>
</g>
<!-- WORKFLOWINTERNALSOURCE_votable1 -->
<g id="node7" class="node"><title>WORKFLOWINTERNALSOURCE_votable1</title>
<polygon fill="skyblue" stroke="black" points="68,-134.5 16,-134.5 16,-113.5 68,-113.5 68,-134.5"/>
<text text-anchor="middle" x="42" y="-121.5" font-family="Helvetica,sans-Serif" font-size="10.00">votable1</text>
</g>
<!-- WORKFLOWINTERNALSOURCE_votable1&#45;&gt;Add_n_concat_tables -->
<g id="edge4" class="edge"><title>WORKFLOWINTERNALSOURCE_votable1&#45;&gt;Add_n_concat_tables</title>
<path fill="none" stroke="black" d="M57.1856,-113.447C61.8173,-110.488 67.0073,-107.421 72,-105 75.3731,-103.365 78.9245,-101.799 82.5284,-100.317"/>
<polygon fill="black" stroke="black" points="84.0466,-103.482 92.1045,-96.6033 81.5155,-96.956 84.0466,-103.482"/>
</g>
<!-- WORKFLOWINTERNALSINKCONTROL -->
<g id="node9" class="node"><title>WORKFLOWINTERNALSINKCONTROL</title>
<polygon fill="#66cd00" stroke="black" points="177,-20 184,-30.5 170,-30.5 177,-20"/>
</g>
</g>
</svg>
