<?xml version="1.0" encoding="UTF-8" standalone="no"?>
<!DOCTYPE svg PUBLIC "-//W3C//DTD SVG 1.1//EN"
 "http://www.w3.org/Graphics/SVG/1.1/DTD/svg11.dtd">
<!-- Generated by graphviz version 2.26.0 (20091210.2329)
 -->
<!-- Title: t2flow_graph Pages: 1 -->
<svg width="512pt" height="180pt"
 viewBox="0.00 0.00 512.00 180.00" xmlns="http://www.w3.org/2000/svg" xmlns:xlink="http://www.w3.org/1999/xlink">
<g id="graph1" class="graph" transform="scale(1 1) rotate(0) translate(4 176)">
<title>t2flow_graph</title>
<polygon fill="white" stroke="white" points="-4,5 -4,-176 509,-176 509,5 -4,5"/>
<g id="graph2" class="cluster"><title>cluster_sources</title>
<polygon fill="none" stroke="black" stroke-dasharray="1,5" points="184,-105 184,-164 282,-164 282,-105 184,-105"/>
<text text-anchor="middle" x="228" y="-151" font-family="Helvetica,sans-Serif" font-size="10.00">Workflow Inputs</text>
</g>
<g id="graph3" class="cluster"><title>cluster_sinks</title>
<polygon fill="none" stroke="black" stroke-dasharray="1,5" points="8,-8 8,-67 496,-67 496,-8 8,-8"/>
<text text-anchor="middle" x="55.5" y="-54" font-family="Helvetica,sans-Serif" font-size="10.00">Workflow Outputs</text>
</g>
<!-- xstar -->
<g id="node1" class="node"><title>xstar</title>
<polygon fill="#fafad2" stroke="black" points="243,-96.5 205,-96.5 205,-75.5 243,-75.5 243,-96.5"/>
<text text-anchor="middle" x="224" y="-83.5" font-family="Helvetica,sans-Serif" font-size="10.00">xstar</text>
</g>
<!-- WORKFLOWINTERNALSINK_std_output -->
<g id="node7" class="node"><title>WORKFLOWINTERNALSINK_std_output</title>
<polygon fill="#bcd2ee" stroke="black" points="470,-37.5 408,-37.5 408,-16.5 470,-16.5 470,-37.5"/>
<text text-anchor="middle" x="439" y="-24.5" font-family="Helvetica,sans-Serif" font-size="10.00">std_output</text>
</g>
<!-- xstar&#45;&gt;WORKFLOWINTERNALSINK_std_output -->
<g id="edge6" class="edge"><title>xstar&#45;&gt;WORKFLOWINTERNALSINK_std_output</title>
<path fill="none" stroke="black" d="M243.279,-85.7222C283.81,-84.8574 376.386,-81.3261 404,-67 413.284,-62.1836 421.208,-53.7911 427.156,-45.9332"/>
<polygon fill="black" stroke="black" points="430.177,-47.7195 433,-37.5077 424.425,-43.7301 430.177,-47.7195"/>
</g>
<!-- WORKFLOWINTERNALSINK_std_errors -->
<g id="node8" class="node"><title>WORKFLOWINTERNALSINK_std_errors</title>
<polygon fill="#bcd2ee" stroke="black" points="404,-37.5 344,-37.5 344,-16.5 404,-16.5 404,-37.5"/>
<text text-anchor="middle" x="374" y="-24.5" font-family="Helvetica,sans-Serif" font-size="10.00">std_errors</text>
</g>
<!-- xstar&#45;&gt;WORKFLOWINTERNALSINK_std_errors -->
<g id="edge8" class="edge"><title>xstar&#45;&gt;WORKFLOWINTERNALSINK_std_errors</title>
<path fill="none" stroke="black" d="M243.421,-84.4451C272.023,-81.8848 323.832,-76.1358 340,-67 348.783,-62.0371 356.327,-53.888 362.062,-46.2357"/>
<polygon fill="black" stroke="black" points="365.148,-47.925 367.928,-37.7015 359.379,-43.9596 365.148,-47.925"/>
</g>
<!-- WORKFLOWINTERNALSINK_report -->
<g id="node9" class="node"><title>WORKFLOWINTERNALSINK_report</title>
<polygon fill="#bcd2ee" stroke="black" points="340,-37.5 300,-37.5 300,-16.5 340,-16.5 340,-37.5"/>
<text text-anchor="middle" x="320" y="-24.5" font-family="Helvetica,sans-Serif" font-size="10.00">report</text>
</g>
<!-- xstar&#45;&gt;WORKFLOWINTERNALSINK_report -->
<g id="edge10" class="edge"><title>xstar&#45;&gt;WORKFLOWINTERNALSINK_report</title>
<path fill="none" stroke="black" d="M243.293,-82.6086C261.673,-79.0802 287.73,-73.2111 296,-67 302.767,-61.9175 308.008,-54.3192 311.842,-47.1059"/>
<polygon fill="black" stroke="black" points="315.138,-48.3213 316.209,-37.7807 308.798,-45.3528 315.138,-48.3213"/>
</g>
<!-- WORKFLOWINTERNALSINK_abund1 -->
<g id="node10" class="node"><title>WORKFLOWINTERNALSINK_abund1</title>
<polygon fill="#bcd2ee" stroke="black" points="296,-37.5 248,-37.5 248,-16.5 296,-16.5 296,-37.5"/>
<text text-anchor="middle" x="272" y="-24.5" font-family="Helvetica,sans-Serif" font-size="10.00">abund1</text>
</g>
<!-- xstar&#45;&gt;WORKFLOWINTERNALSINK_abund1 -->
<g id="edge12" class="edge"><title>xstar&#45;&gt;WORKFLOWINTERNALSINK_abund1</title>
<path fill="none" stroke="black" d="M236.236,-75.1203C238.897,-72.5533 241.625,-69.7582 244,-67 249.552,-60.5523 255.055,-53.0114 259.693,-46.2258"/>
<polygon fill="black" stroke="black" points="262.795,-47.8822 265.407,-37.6144 256.962,-44.0122 262.795,-47.8822"/>
</g>
<!-- WORKFLOWINTERNALSINK_cont1 -->
<g id="node11" class="node"><title>WORKFLOWINTERNALSINK_cont1</title>
<polygon fill="#bcd2ee" stroke="black" points="244,-37.5 204,-37.5 204,-16.5 244,-16.5 244,-37.5"/>
<text text-anchor="middle" x="224" y="-24.5" font-family="Helvetica,sans-Serif" font-size="10.00">cont1</text>
</g>
<!-- xstar&#45;&gt;WORKFLOWINTERNALSINK_cont1 -->
<g id="edge14" class="edge"><title>xstar&#45;&gt;WORKFLOWINTERNALSINK_cont1</title>
<path fill="none" stroke="black" d="M224,-75.452C224,-67.8285 224,-57.2768 224,-47.966"/>
<polygon fill="black" stroke="black" points="227.5,-47.8558 224,-37.8559 220.5,-47.8559 227.5,-47.8558"/>
</g>
<!-- WORKFLOWINTERNALSINK_lines1 -->
<g id="node12" class="node"><title>WORKFLOWINTERNALSINK_lines1</title>
<polygon fill="#bcd2ee" stroke="black" points="200,-37.5 158,-37.5 158,-16.5 200,-16.5 200,-37.5"/>
<text text-anchor="middle" x="179" y="-24.5" font-family="Helvetica,sans-Serif" font-size="10.00">lines1</text>
</g>
<!-- xstar&#45;&gt;WORKFLOWINTERNALSINK_lines1 -->
<g id="edge16" class="edge"><title>xstar&#45;&gt;WORKFLOWINTERNALSINK_lines1</title>
<path fill="none" stroke="black" d="M211.656,-75.2107C209,-72.639 206.302,-69.8192 204,-67 198.919,-60.7781 194.061,-53.4513 190.001,-46.78"/>
<polygon fill="black" stroke="black" points="192.754,-44.5532 184.692,-37.6797 186.708,-48.0809 192.754,-44.5532"/>
</g>
<!-- WORKFLOWINTERNALSINK_rrc1 -->
<g id="node13" class="node"><title>WORKFLOWINTERNALSINK_rrc1</title>
<polygon fill="#bcd2ee" stroke="black" points="154,-37.5 122,-37.5 122,-16.5 154,-16.5 154,-37.5"/>
<text text-anchor="middle" x="138" y="-24.5" font-family="Helvetica,sans-Serif" font-size="10.00">rrc1</text>
</g>
<!-- xstar&#45;&gt;WORKFLOWINTERNALSINK_rrc1 -->
<g id="edge18" class="edge"><title>xstar&#45;&gt;WORKFLOWINTERNALSINK_rrc1</title>
<path fill="none" stroke="black" d="M204.929,-82.2897C188.095,-78.7013 165.151,-72.9468 158,-67 151.904,-61.9301 147.488,-54.5395 144.383,-47.4867"/>
<polygon fill="black" stroke="black" points="147.507,-45.847 140.728,-37.7048 140.95,-48.2973 147.507,-45.847"/>
</g>
<!-- WORKFLOWINTERNALSINK_spect1 -->
<g id="node14" class="node"><title>WORKFLOWINTERNALSINK_spect1</title>
<polygon fill="#bcd2ee" stroke="black" points="118,-37.5 72,-37.5 72,-16.5 118,-16.5 118,-37.5"/>
<text text-anchor="middle" x="95" y="-24.5" font-family="Helvetica,sans-Serif" font-size="10.00">spect1</text>
</g>
<!-- xstar&#45;&gt;WORKFLOWINTERNALSINK_spect1 -->
<g id="edge20" class="edge"><title>xstar&#45;&gt;WORKFLOWINTERNALSINK_spect1</title>
<path fill="none" stroke="black" d="M204.663,-84.1868C178.987,-81.4797 135.329,-75.7444 122,-67 114.414,-62.0236 108.415,-54.1007 104.018,-46.6142"/>
<polygon fill="black" stroke="black" points="107.046,-44.853 99.3052,-37.6193 100.846,-48.1016 107.046,-44.853"/>
</g>
<!-- WORKFLOWINTERNALSINK_step_log -->
<g id="node15" class="node"><title>WORKFLOWINTERNALSINK_step_log</title>
<polygon fill="#bcd2ee" stroke="black" points="68,-37.5 16,-37.5 16,-16.5 68,-16.5 68,-37.5"/>
<text text-anchor="middle" x="42" y="-24.5" font-family="Helvetica,sans-Serif" font-size="10.00">step_log</text>
</g>
<!-- xstar&#45;&gt;WORKFLOWINTERNALSINK_step_log -->
<g id="edge22" class="edge"><title>xstar&#45;&gt;WORKFLOWINTERNALSINK_step_log</title>
<path fill="none" stroke="black" d="M204.947,-85.4546C169.318,-84.1391 94.1966,-79.8812 72,-67 63.78,-62.2298 57.1038,-54.2236 52.1544,-46.6217"/>
<polygon fill="black" stroke="black" points="55.0591,-44.6556 46.986,-37.7945 49.0184,-48.1926 55.0591,-44.6556"/>
</g>
<!-- WORKFLOWINTERNALSOURCECONTROL -->
<g id="node3" class="node"><title>WORKFLOWINTERNALSOURCECONTROL</title>
<polygon fill="#ff4040" stroke="black" points="267,-131 260,-120.5 274,-120.5 267,-131"/>
</g>
<!-- WORKFLOWINTERNALSOURCE_xstar_input -->
<g id="node4" class="node"><title>WORKFLOWINTERNALSOURCE_xstar_input</title>
<polygon fill="skyblue" stroke="black" points="256,-134.5 192,-134.5 192,-113.5 256,-113.5 256,-134.5"/>
<text text-anchor="middle" x="224" y="-121.5" font-family="Helvetica,sans-Serif" font-size="10.00">xstar_input</text>
</g>
<!-- WORKFLOWINTERNALSOURCE_xstar_input&#45;&gt;xstar -->
<g id="edge4" class="edge"><title>WORKFLOWINTERNALSOURCE_xstar_input&#45;&gt;xstar</title>
<path fill="none" stroke="black" d="M224,-113.212C224,-111.19 224,-109.013 224,-106.804"/>
<polygon fill="black" stroke="black" points="227.5,-106.683 224,-96.6831 220.5,-106.683 227.5,-106.683"/>
</g>
<!-- WORKFLOWINTERNALSINKCONTROL -->
<g id="node6" class="node"><title>WORKFLOWINTERNALSINKCONTROL</title>
<polygon fill="#66cd00" stroke="black" points="481,-20 488,-30.5 474,-30.5 481,-20"/>
</g>
</g>
</svg>
