<?xml version="1.0" encoding="UTF-8" standalone="no"?>
<!DOCTYPE svg PUBLIC "-//W3C//DTD SVG 1.1//EN"
 "http://www.w3.org/Graphics/SVG/1.1/DTD/svg11.dtd">
<!-- Generated by graphviz version 2.26.0 (20091210.2329)
 -->
<!-- Title: t2flow_graph Pages: 1 -->
<svg width="145pt" height="256pt"
 viewBox="0.00 0.00 145.00 256.00" xmlns="http://www.w3.org/2000/svg" xmlns:xlink="http://www.w3.org/1999/xlink">
<g id="graph1" class="graph" transform="scale(1 1) rotate(0) translate(4 252)">
<title>t2flow_graph</title>
<polygon fill="white" stroke="white" points="-4,5 -4,-252 142,-252 142,5 -4,5"/>
<g id="graph2" class="cluster"><title>cluster_sources</title>
<polygon fill="none" stroke="black" stroke-dasharray="1,5" points="29,-181 29,-240 119,-240 119,-181 29,-181"/>
<text text-anchor="middle" x="73" y="-227" font-family="Helvetica,sans-Serif" font-size="10.00">Workflow Inputs</text>
</g>
<g id="graph3" class="cluster"><title>cluster_sinks</title>
<polygon fill="none" stroke="black" stroke-dasharray="1,5" points="19,-8 19,-67 129,-67 129,-8 19,-8"/>
<text text-anchor="middle" x="66.5" y="-54" font-family="Helvetica,sans-Serif" font-size="10.00">Workflow Outputs</text>
</g>
<!-- splitIntoSentences -->
<g id="node1" class="node"><title>splitIntoSentences</title>
<polygon fill="#a2cd5a" stroke="black" points="114,-134.5 16,-134.5 16,-113.5 114,-113.5 114,-134.5"/>
<text text-anchor="middle" x="65" y="-121.5" font-family="Helvetica,sans-Serif" font-size="10.00">splitIntoSentences</text>
</g>
<!-- splitIntoSentences_output -->
<g id="node3" class="node"><title>splitIntoSentences_output</title>
<polygon fill="#ab92ea" stroke="black" points="130,-96.5 5.68434e-14,-96.5 0,-75.5 130,-75.5 130,-96.5"/>
<text text-anchor="middle" x="65" y="-83.5" font-family="Helvetica,sans-Serif" font-size="10.00">splitIntoSentences_output</text>
</g>
<!-- splitIntoSentences&#45;&gt;splitIntoSentences_output -->
<g id="edge8" class="edge"><title>splitIntoSentences&#45;&gt;splitIntoSentences_output</title>
<path fill="none" stroke="black" d="M65,-113.212C65,-111.19 65,-109.013 65,-106.804"/>
<polygon fill="black" stroke="black" points="68.5001,-106.683 65,-96.6831 61.5001,-106.683 68.5001,-106.683"/>
</g>
<!-- splitIntoSentences_input -->
<g id="node2" class="node"><title>splitIntoSentences_input</title>
<polygon fill="#ab92ea" stroke="black" points="127,-172.5 3,-172.5 3,-151.5 127,-151.5 127,-172.5"/>
<text text-anchor="middle" x="65" y="-159.5" font-family="Helvetica,sans-Serif" font-size="10.00">splitIntoSentences_input</text>
</g>
<!-- splitIntoSentences_input&#45;&gt;splitIntoSentences -->
<g id="edge4" class="edge"><title>splitIntoSentences_input&#45;&gt;splitIntoSentences</title>
<path fill="none" stroke="black" d="M65,-151.212C65,-149.19 65,-147.013 65,-144.804"/>
<polygon fill="black" stroke="black" points="68.5001,-144.683 65,-134.683 61.5001,-144.683 68.5001,-144.683"/>
</g>
<!-- WORKFLOWINTERNALSINK_sentencesList -->
<g id="node9" class="node"><title>WORKFLOWINTERNALSINK_sentencesList</title>
<polygon fill="#bcd2ee" stroke="black" points="103,-37.5 27,-37.5 27,-16.5 103,-16.5 103,-37.5"/>
<text text-anchor="middle" x="65" y="-24.5" font-family="Helvetica,sans-Serif" font-size="10.00">sentencesList</text>
</g>
<!-- splitIntoSentences_output&#45;&gt;WORKFLOWINTERNALSINK_sentencesList -->
<g id="edge10" class="edge"><title>splitIntoSentences_output&#45;&gt;WORKFLOWINTERNALSINK_sentencesList</title>
<path fill="none" stroke="black" d="M65,-75.452C65,-67.8285 65,-57.2768 65,-47.966"/>
<polygon fill="black" stroke="black" points="68.5001,-47.8558 65,-37.8559 61.5001,-47.8559 68.5001,-47.8558"/>
</g>
<!-- WORKFLOWINTERNALSOURCECONTROL -->
<g id="node5" class="node"><title>WORKFLOWINTERNALSOURCECONTROL</title>
<polygon fill="#ff4040" stroke="black" points="104,-207 97,-196.5 111,-196.5 104,-207"/>
</g>
<!-- WORKFLOWINTERNALSOURCE_plainText -->
<g id="node6" class="node"><title>WORKFLOWINTERNALSOURCE_plainText</title>
<polygon fill="skyblue" stroke="black" points="93,-210.5 37,-210.5 37,-189.5 93,-189.5 93,-210.5"/>
<text text-anchor="middle" x="65" y="-197.5" font-family="Helvetica,sans-Serif" font-size="10.00">plainText</text>
</g>
<!-- WORKFLOWINTERNALSOURCE_plainText&#45;&gt;splitIntoSentences_input -->
<g id="edge6" class="edge"><title>WORKFLOWINTERNALSOURCE_plainText&#45;&gt;splitIntoSentences_input</title>
<path fill="none" stroke="black" d="M65,-189.212C65,-187.19 65,-185.013 65,-182.804"/>
<polygon fill="black" stroke="black" points="68.5001,-182.683 65,-172.683 61.5001,-182.683 68.5001,-182.683"/>
</g>
<!-- WORKFLOWINTERNALSINKCONTROL -->
<g id="node8" class="node"><title>WORKFLOWINTERNALSINKCONTROL</title>
<polygon fill="#66cd00" stroke="black" points="114,-20 121,-30.5 107,-30.5 114,-20"/>
</g>
</g>
</svg>
