<?xml version="1.0" encoding="UTF-8" standalone="no"?>
<!DOCTYPE svg PUBLIC "-//W3C//DTD SVG 1.1//EN"
 "http://www.w3.org/Graphics/SVG/1.1/DTD/svg11.dtd">
<!-- Generated by graphviz version 2.26.0 (20091210.2329)
 -->
<!-- Title: t2flow_graph Pages: 1 -->
<svg width="516pt" height="598pt"
 viewBox="0.00 0.00 516.00 598.00" xmlns="http://www.w3.org/2000/svg" xmlns:xlink="http://www.w3.org/1999/xlink">
<g id="graph1" class="graph" transform="scale(1 1) rotate(0) translate(4 594)">
<title>t2flow_graph</title>
<polygon fill="white" stroke="white" points="-4,5 -4,-594 513,-594 513,5 -4,5"/>
<g id="graph2" class="cluster"><title>cluster_sources</title>
<polygon fill="none" stroke="black" stroke-dasharray="1,5" points="250,-523 250,-582 462,-582 462,-523 250,-523"/>
<text text-anchor="middle" x="294" y="-569" font-family="Helvetica,sans-Serif" font-size="10.00">Workflow Inputs</text>
</g>
<g id="graph3" class="cluster"><title>cluster_sinks</title>
<polygon fill="none" stroke="black" stroke-dasharray="1,5" points="8,-8 8,-67 500,-67 500,-8 8,-8"/>
<text text-anchor="middle" x="55.5" y="-54" font-family="Helvetica,sans-Serif" font-size="10.00">Workflow Outputs</text>
</g>
<!-- merge_pathways -->
<g id="node1" class="node"><title>merge_pathways</title>
<polygon fill="#d15fee" stroke="black" points="320,-324.5 230,-324.5 230,-303.5 320,-303.5 320,-324.5"/>
<text text-anchor="middle" x="275" y="-311.5" font-family="Helvetica,sans-Serif" font-size="10.00">merge_pathways</text>
</g>
<!-- Remove_duplicate_pathways -->
<g id="node4" class="node"><title>Remove_duplicate_pathways</title>
<polygon fill="#d15fee" stroke="black" points="377,-286.5 233,-286.5 233,-265.5 377,-265.5 377,-286.5"/>
<text text-anchor="middle" x="305" y="-273.5" font-family="Helvetica,sans-Serif" font-size="10.00">Remove_duplicate_pathways</text>
</g>
<!-- merge_pathways&#45;&gt;Remove_duplicate_pathways -->
<g id="edge10" class="edge"><title>merge_pathways&#45;&gt;Remove_duplicate_pathways</title>
<path fill="none" stroke="black" d="M283.517,-303.212C285.625,-300.542 287.944,-297.604 290.255,-294.676"/>
<polygon fill="black" stroke="black" points="293.117,-296.701 296.566,-286.683 287.622,-292.363 293.117,-296.701"/>
</g>
<!-- btit1 -->
<g id="node7" class="node"><title>btit1</title>
<polygon fill="#a2cd5a" stroke="black" points="245,-96.5 211,-96.5 211,-75.5 245,-75.5 245,-96.5"/>
<text text-anchor="middle" x="228" y="-83.5" font-family="Helvetica,sans-Serif" font-size="10.00">btit1</text>
</g>
<!-- merge_pathways&#45;&gt;btit1 -->
<g id="edge16" class="edge"><title>merge_pathways&#45;&gt;btit1</title>
<path fill="none" stroke="black" d="M251.118,-303.485C244.234,-299.319 237.402,-293.857 233,-287 221.116,-268.487 226,-259.999 226,-238 226,-238 226,-238 226,-162 226,-143.488 226.6,-122.449 227.143,-107.208"/>
<polygon fill="black" stroke="black" points="230.655,-106.946 227.536,-96.8212 223.66,-106.682 230.655,-106.946"/>
</g>
<!-- merge_pathways_2 -->
<g id="node2" class="node"><title>merge_pathways_2</title>
<polygon fill="#d15fee" stroke="black" points="344,-248.5 244,-248.5 244,-227.5 344,-227.5 344,-248.5"/>
<text text-anchor="middle" x="294" y="-235.5" font-family="Helvetica,sans-Serif" font-size="10.00">merge_pathways_2</text>
</g>
<!-- remove_nulls_2 -->
<g id="node11" class="node"><title>remove_nulls_2</title>
<polygon fill="#deb887" stroke="black" points="329,-210.5 245,-210.5 245,-189.5 329,-189.5 329,-210.5"/>
<text text-anchor="middle" x="287" y="-197.5" font-family="Helvetica,sans-Serif" font-size="10.00">remove_nulls_2</text>
</g>
<!-- merge_pathways_2&#45;&gt;remove_nulls_2 -->
<g id="edge24" class="edge"><title>merge_pathways_2&#45;&gt;remove_nulls_2</title>
<path fill="none" stroke="black" d="M292.013,-227.212C291.625,-225.109 291.207,-222.839 290.783,-220.538"/>
<polygon fill="black" stroke="black" points="294.222,-219.884 288.968,-210.683 287.338,-221.152 294.222,-219.884"/>
</g>
<!-- merge_descriptions -->
<g id="node3" class="node"><title>merge_descriptions</title>
<polygon fill="#d15fee" stroke="black" points="199,-134.5 99,-134.5 99,-113.5 199,-113.5 199,-134.5"/>
<text text-anchor="middle" x="149" y="-121.5" font-family="Helvetica,sans-Serif" font-size="10.00">merge_descriptions</text>
</g>
<!-- remove_Nulls -->
<g id="node9" class="node"><title>remove_Nulls</title>
<polygon fill="#deb887" stroke="black" points="181,-96.5 105,-96.5 105,-75.5 181,-75.5 181,-96.5"/>
<text text-anchor="middle" x="143" y="-83.5" font-family="Helvetica,sans-Serif" font-size="10.00">remove_Nulls</text>
</g>
<!-- merge_descriptions&#45;&gt;remove_Nulls -->
<g id="edge20" class="edge"><title>merge_descriptions&#45;&gt;remove_Nulls</title>
<path fill="none" stroke="black" d="M147.297,-113.212C146.977,-111.19 146.634,-109.013 146.285,-106.804"/>
<polygon fill="black" stroke="black" points="149.704,-106.015 144.687,-96.6831 142.789,-107.107 149.704,-106.015"/>
</g>
<!-- Remove_duplicate_pathways&#45;&gt;merge_pathways_2 -->
<g id="edge6" class="edge"><title>Remove_duplicate_pathways&#45;&gt;merge_pathways_2</title>
<path fill="none" stroke="black" d="M301.877,-265.212C301.268,-263.109 300.611,-260.839 299.945,-258.538"/>
<polygon fill="black" stroke="black" points="303.235,-257.315 297.092,-248.683 296.511,-259.262 303.235,-257.315"/>
</g>
<!-- get_pathways_by_genes -->
<g id="node5" class="node"><title>get_pathways_by_genes</title>
<polygon fill="#a2cd5a" stroke="black" points="337,-362.5 213,-362.5 213,-341.5 337,-341.5 337,-362.5"/>
<text text-anchor="middle" x="275" y="-349.5" font-family="Helvetica,sans-Serif" font-size="10.00">get_pathways_by_genes</text>
</g>
<!-- get_pathways_by_genes&#45;&gt;merge_pathways -->
<g id="edge4" class="edge"><title>get_pathways_by_genes&#45;&gt;merge_pathways</title>
<path fill="none" stroke="black" d="M275,-341.212C275,-339.19 275,-337.013 275,-334.804"/>
<polygon fill="black" stroke="black" points="278.5,-334.683 275,-324.683 271.5,-334.683 278.5,-334.683"/>
</g>
<!-- btit -->
<g id="node6" class="node"><title>btit</title>
<polygon fill="#a2cd5a" stroke="black" points="191,-172.5 161,-172.5 161,-151.5 191,-151.5 191,-172.5"/>
<text text-anchor="middle" x="176" y="-159.5" font-family="Helvetica,sans-Serif" font-size="10.00">btit</text>
</g>
<!-- btit&#45;&gt;merge_descriptions -->
<g id="edge8" class="edge"><title>btit&#45;&gt;merge_descriptions</title>
<path fill="none" stroke="black" d="M168.335,-151.212C166.495,-148.623 164.477,-145.782 162.459,-142.943"/>
<polygon fill="black" stroke="black" points="165.236,-140.808 156.591,-134.683 159.53,-144.862 165.236,-140.808"/>
</g>
<!-- WORKFLOWINTERNALSINK_pathway_descriptions -->
<g id="node28" class="node"><title>WORKFLOWINTERNALSINK_pathway_descriptions</title>
<polygon fill="#bcd2ee" stroke="black" points="284,-37.5 174,-37.5 174,-16.5 284,-16.5 284,-37.5"/>
<text text-anchor="middle" x="229" y="-24.5" font-family="Helvetica,sans-Serif" font-size="10.00">pathway_descriptions</text>
</g>
<!-- btit1&#45;&gt;WORKFLOWINTERNALSINK_pathway_descriptions -->
<g id="edge50" class="edge"><title>btit1&#45;&gt;WORKFLOWINTERNALSINK_pathway_descriptions</title>
<path fill="none" stroke="black" d="M228.179,-75.452C228.308,-67.8285 228.487,-57.2768 228.645,-47.966"/>
<polygon fill="black" stroke="black" points="232.146,-47.9138 228.816,-37.8559 225.147,-47.7951 232.146,-47.9138"/>
</g>
<!-- bconv -->
<g id="node8" class="node"><title>bconv</title>
<polygon fill="#a2cd5a" stroke="black" points="269,-476.5 227,-476.5 227,-455.5 269,-455.5 269,-476.5"/>
<text text-anchor="middle" x="248" y="-463.5" font-family="Helvetica,sans-Serif" font-size="10.00">bconv</text>
</g>
<!-- extract_gene_ids -->
<g id="node10" class="node"><title>extract_gene_ids</title>
<polygon fill="#deb887" stroke="black" points="243,-438.5 153,-438.5 153,-417.5 243,-417.5 243,-438.5"/>
<text text-anchor="middle" x="198" y="-425.5" font-family="Helvetica,sans-Serif" font-size="10.00">extract_gene_ids</text>
</g>
<!-- bconv&#45;&gt;extract_gene_ids -->
<g id="edge22" class="edge"><title>bconv&#45;&gt;extract_gene_ids</title>
<path fill="none" stroke="black" d="M234.072,-455.415C229.738,-452.121 224.847,-448.404 220.098,-444.794"/>
<polygon fill="black" stroke="black" points="221.933,-441.793 211.853,-438.528 217.697,-447.366 221.933,-441.793"/>
</g>
<!-- WORKFLOWINTERNALSINK_kegg_descriptions -->
<g id="node29" class="node"><title>WORKFLOWINTERNALSINK_kegg_descriptions</title>
<polygon fill="#bcd2ee" stroke="black" points="170,-37.5 76,-37.5 76,-16.5 170,-16.5 170,-37.5"/>
<text text-anchor="middle" x="123" y="-24.5" font-family="Helvetica,sans-Serif" font-size="10.00">kegg_descriptions</text>
</g>
<!-- remove_Nulls&#45;&gt;WORKFLOWINTERNALSINK_kegg_descriptions -->
<g id="edge52" class="edge"><title>remove_Nulls&#45;&gt;WORKFLOWINTERNALSINK_kegg_descriptions</title>
<path fill="none" stroke="black" d="M139.424,-75.452C136.784,-67.6628 133.107,-56.8166 129.902,-47.3606"/>
<polygon fill="black" stroke="black" points="133.205,-46.2029 126.68,-37.8559 126.576,-48.4502 133.205,-46.2029"/>
</g>
<!-- extract_gene_ids&#45;&gt;btit -->
<g id="edge14" class="edge"><title>extract_gene_ids&#45;&gt;btit</title>
<path fill="none" stroke="black" d="M194.521,-417.308C190.09,-402.716 183,-375.67 183,-352 183,-352 183,-352 183,-238 183,-219.234 180.858,-197.972 178.943,-182.718"/>
<polygon fill="black" stroke="black" points="182.411,-182.246 177.624,-172.795 175.473,-183.169 182.411,-182.246"/>
</g>
<!-- split_by_regex -->
<g id="node17" class="node"><title>split_by_regex</title>
<polygon fill="#d15fee" stroke="black" points="315,-400.5 235,-400.5 235,-379.5 315,-379.5 315,-400.5"/>
<text text-anchor="middle" x="275" y="-387.5" font-family="Helvetica,sans-Serif" font-size="10.00">split_by_regex</text>
</g>
<!-- extract_gene_ids&#45;&gt;split_by_regex -->
<g id="edge44" class="edge"><title>extract_gene_ids&#45;&gt;split_by_regex</title>
<path fill="none" stroke="black" d="M219.449,-417.415C227.208,-413.585 236.126,-409.185 244.513,-405.046"/>
<polygon fill="black" stroke="black" points="246.248,-408.093 253.666,-400.528 243.15,-401.815 246.248,-408.093"/>
</g>
<!-- WORKFLOWINTERNALSINK_KEGGID -->
<g id="node26" class="node"><title>WORKFLOWINTERNALSINK_KEGGID</title>
<polygon fill="#bcd2ee" stroke="black" points="72,-37.5 16,-37.5 16,-16.5 72,-16.5 72,-37.5"/>
<text text-anchor="middle" x="44" y="-24.5" font-family="Helvetica,sans-Serif" font-size="10.00">KEGGID</text>
</g>
<!-- extract_gene_ids&#45;&gt;WORKFLOWINTERNALSINK_KEGGID -->
<g id="edge46" class="edge"><title>extract_gene_ids&#45;&gt;WORKFLOWINTERNALSINK_KEGGID</title>
<path fill="none" stroke="black" d="M152.897,-420.681C115.35,-411.711 68,-392.391 68,-352 68,-352 68,-352 68,-124 68,-96.7743 58.9805,-66.4754 52,-47.103"/>
<polygon fill="black" stroke="black" points="55.2031,-45.6773 48.402,-37.5536 48.6526,-48.1454 55.2031,-45.6773"/>
</g>
<!-- split_by_regex_2 -->
<g id="node15" class="node"><title>split_by_regex_2</title>
<polygon fill="#d15fee" stroke="black" points="383,-172.5 293,-172.5 293,-151.5 383,-151.5 383,-172.5"/>
<text text-anchor="middle" x="338" y="-159.5" font-family="Helvetica,sans-Serif" font-size="10.00">split_by_regex_2</text>
</g>
<!-- remove_nulls_2&#45;&gt;split_by_regex_2 -->
<g id="edge40" class="edge"><title>remove_nulls_2&#45;&gt;split_by_regex_2</title>
<path fill="none" stroke="black" d="M301.206,-189.415C305.738,-186.038 310.866,-182.218 315.823,-178.524"/>
<polygon fill="black" stroke="black" points="317.942,-181.31 323.87,-172.528 313.76,-175.697 317.942,-181.31"/>
</g>
<!-- WORKFLOWINTERNALSINK_pathway_by_genes -->
<g id="node27" class="node"><title>WORKFLOWINTERNALSINK_pathway_by_genes</title>
<polygon fill="#bcd2ee" stroke="black" points="388,-37.5 288,-37.5 288,-16.5 388,-16.5 388,-37.5"/>
<text text-anchor="middle" x="338" y="-24.5" font-family="Helvetica,sans-Serif" font-size="10.00">pathway_by_genes</text>
</g>
<!-- remove_nulls_2&#45;&gt;WORKFLOWINTERNALSINK_pathway_by_genes -->
<g id="edge48" class="edge"><title>remove_nulls_2&#45;&gt;WORKFLOWINTERNALSINK_pathway_by_genes</title>
<path fill="none" stroke="black" d="M287.606,-189.363C288.34,-179.354 289.887,-164.003 293,-151 302.011,-113.362 318.735,-71.3805 329.062,-47.1915"/>
<polygon fill="black" stroke="black" points="332.413,-48.2606 333.18,-37.6936 325.991,-45.4756 332.413,-48.2606"/>
</g>
<!-- add_ncbi_to_string -->
<g id="node12" class="node"><title>add_ncbi_to_string</title>
<polygon fill="#deb887" stroke="black" points="322,-514.5 224,-514.5 224,-493.5 322,-493.5 322,-514.5"/>
<text text-anchor="middle" x="273" y="-501.5" font-family="Helvetica,sans-Serif" font-size="10.00">add_ncbi_to_string</text>
</g>
<!-- add_ncbi_to_string&#45;&gt;bconv -->
<g id="edge18" class="edge"><title>add_ncbi_to_string&#45;&gt;bconv</title>
<path fill="none" stroke="black" d="M265.903,-493.212C264.253,-490.704 262.447,-487.959 260.637,-485.209"/>
<polygon fill="black" stroke="black" points="263.449,-483.114 255.028,-476.683 257.601,-486.961 263.449,-483.114"/>
</g>
<!-- Get_image_from_URL -->
<g id="node13" class="node"><title>Get_image_from_URL</title>
<polygon fill="#d15fee" stroke="black" points="450,-96.5 336,-96.5 336,-75.5 450,-75.5 450,-96.5"/>
<text text-anchor="middle" x="393" y="-83.5" font-family="Helvetica,sans-Serif" font-size="10.00">Get_image_from_URL</text>
</g>
<!-- WORKFLOWINTERNALSINK_image -->
<g id="node31" class="node"><title>WORKFLOWINTERNALSINK_image</title>
<polygon fill="#bcd2ee" stroke="black" points="434,-37.5 392,-37.5 392,-16.5 434,-16.5 434,-37.5"/>
<text text-anchor="middle" x="413" y="-24.5" font-family="Helvetica,sans-Serif" font-size="10.00">image</text>
</g>
<!-- Get_image_from_URL&#45;&gt;WORKFLOWINTERNALSINK_image -->
<g id="edge56" class="edge"><title>Get_image_from_URL&#45;&gt;WORKFLOWINTERNALSINK_image</title>
<path fill="none" stroke="black" d="M396.576,-75.452C399.216,-67.6628 402.893,-56.8166 406.098,-47.3606"/>
<polygon fill="black" stroke="black" points="409.424,-48.4502 409.32,-37.8559 402.795,-46.2029 409.424,-48.4502"/>
</g>
<!-- color_pathway_by_objects_2 -->
<g id="node14" class="node"><title>color_pathway_by_objects_2</title>
<polygon fill="#a2cd5a" stroke="black" points="471,-134.5 329,-134.5 329,-113.5 471,-113.5 471,-134.5"/>
<text text-anchor="middle" x="400" y="-121.5" font-family="Helvetica,sans-Serif" font-size="10.00">color_pathway_by_objects_2</text>
</g>
<!-- color_pathway_by_objects_2&#45;&gt;Get_image_from_URL -->
<g id="edge28" class="edge"><title>color_pathway_by_objects_2&#45;&gt;Get_image_from_URL</title>
<path fill="none" stroke="black" d="M398.013,-113.212C397.625,-111.109 397.207,-108.839 396.783,-106.538"/>
<polygon fill="black" stroke="black" points="400.222,-105.884 394.968,-96.6831 393.338,-107.152 400.222,-105.884"/>
</g>
<!-- WORKFLOWINTERNALSINK_URL -->
<g id="node30" class="node"><title>WORKFLOWINTERNALSINK_URL</title>
<polygon fill="#bcd2ee" stroke="black" points="474,-37.5 438,-37.5 438,-16.5 474,-16.5 474,-37.5"/>
<text text-anchor="middle" x="456" y="-24.5" font-family="Helvetica,sans-Serif" font-size="10.00">URL</text>
</g>
<!-- color_pathway_by_objects_2&#45;&gt;WORKFLOWINTERNALSINK_URL -->
<g id="edge54" class="edge"><title>color_pathway_by_objects_2&#45;&gt;WORKFLOWINTERNALSINK_URL</title>
<path fill="none" stroke="black" d="M430.707,-113.479C438.177,-109.469 445.346,-104.094 450,-97 459.383,-82.6963 460.286,-63.0553 459.184,-48.2183"/>
<polygon fill="black" stroke="black" points="462.63,-47.5342 458.058,-37.9766 455.672,-48.2993 462.63,-47.5342"/>
</g>
<!-- split_by_regex_2&#45;&gt;color_pathway_by_objects_2 -->
<g id="edge34" class="edge"><title>split_by_regex_2&#45;&gt;color_pathway_by_objects_2</title>
<path fill="none" stroke="black" d="M355.27,-151.415C361.048,-147.874 367.623,-143.844 373.92,-139.984"/>
<polygon fill="black" stroke="black" points="376.125,-142.738 382.822,-134.528 372.467,-136.77 376.125,-142.738"/>
</g>
<!-- regex_2 -->
<g id="node16" class="node"><title>regex_2</title>
<polygon fill="#b0c4de" stroke="black" points="383,-210.5 333,-210.5 333,-189.5 383,-189.5 383,-210.5"/>
<text text-anchor="middle" x="358" y="-197.5" font-family="Helvetica,sans-Serif" font-size="10.00">regex_2</text>
</g>
<!-- regex_2&#45;&gt;split_by_regex_2 -->
<g id="edge38" class="edge"><title>regex_2&#45;&gt;split_by_regex_2</title>
<path fill="none" stroke="black" d="M352.322,-189.212C351.087,-186.866 349.743,-184.313 348.39,-181.741"/>
<polygon fill="black" stroke="black" points="351.377,-179.902 343.623,-172.683 345.183,-183.162 351.377,-179.902"/>
</g>
<!-- split_by_regex&#45;&gt;get_pathways_by_genes -->
<g id="edge12" class="edge"><title>split_by_regex&#45;&gt;get_pathways_by_genes</title>
<path fill="none" stroke="black" d="M275,-379.212C275,-377.19 275,-375.013 275,-372.804"/>
<polygon fill="black" stroke="black" points="278.5,-372.683 275,-362.683 271.5,-372.683 278.5,-372.683"/>
</g>
<!-- split_by_regex&#45;&gt;color_pathway_by_objects_2 -->
<g id="edge36" class="edge"><title>split_by_regex&#45;&gt;color_pathway_by_objects_2</title>
<path fill="none" stroke="black" d="M315.221,-380.971C348.384,-370.871 390,-350.854 390,-314 390,-314 390,-314 390,-200 390,-181.152 393.061,-159.898 395.795,-144.669"/>
<polygon fill="black" stroke="black" points="399.249,-145.243 397.681,-134.765 392.372,-143.934 399.249,-145.243"/>
</g>
<!-- regex -->
<g id="node18" class="node"><title>regex</title>
<polygon fill="#b0c4de" stroke="black" points="295,-438.5 255,-438.5 255,-417.5 295,-417.5 295,-438.5"/>
<text text-anchor="middle" x="275" y="-425.5" font-family="Helvetica,sans-Serif" font-size="10.00">regex</text>
</g>
<!-- regex&#45;&gt;split_by_regex -->
<g id="edge42" class="edge"><title>regex&#45;&gt;split_by_regex</title>
<path fill="none" stroke="black" d="M275,-417.212C275,-415.19 275,-413.013 275,-410.804"/>
<polygon fill="black" stroke="black" points="278.5,-410.683 275,-400.683 271.5,-410.683 278.5,-410.683"/>
</g>
<!-- WORKFLOWINTERNALSOURCECONTROL -->
<g id="node20" class="node"><title>WORKFLOWINTERNALSOURCECONTROL</title>
<polygon fill="#ff4040" stroke="black" points="447,-549 440,-538.5 454,-538.5 447,-549"/>
</g>
<!-- WORKFLOWINTERNALSOURCE_Gi_numbers -->
<g id="node21" class="node"><title>WORKFLOWINTERNALSOURCE_Gi_numbers</title>
<polygon fill="skyblue" stroke="black" points="326,-552.5 258,-552.5 258,-531.5 326,-531.5 326,-552.5"/>
<text text-anchor="middle" x="292" y="-539.5" font-family="Helvetica,sans-Serif" font-size="10.00">Gi_numbers</text>
</g>
<!-- WORKFLOWINTERNALSOURCE_Gi_numbers&#45;&gt;add_ncbi_to_string -->
<g id="edge26" class="edge"><title>WORKFLOWINTERNALSOURCE_Gi_numbers&#45;&gt;add_ncbi_to_string</title>
<path fill="none" stroke="black" d="M286.606,-531.212C285.433,-528.866 284.156,-526.313 282.871,-523.741"/>
<polygon fill="black" stroke="black" points="285.944,-522.062 278.342,-514.683 279.683,-525.193 285.944,-522.062"/>
</g>
<!-- WORKFLOWINTERNALSOURCE_fg_color -->
<g id="node22" class="node"><title>WORKFLOWINTERNALSOURCE_fg_color</title>
<polygon fill="skyblue" stroke="black" points="380,-552.5 330,-552.5 330,-531.5 380,-531.5 380,-552.5"/>
<text text-anchor="middle" x="355" y="-539.5" font-family="Helvetica,sans-Serif" font-size="10.00">fg_color</text>
</g>
<!-- WORKFLOWINTERNALSOURCE_fg_color&#45;&gt;color_pathway_by_objects_2 -->
<g id="edge30" class="edge"><title>WORKFLOWINTERNALSOURCE_fg_color&#45;&gt;color_pathway_by_objects_2</title>
<path fill="none" stroke="black" d="M366.355,-531.341C379.686,-517.616 400,-492.374 400,-466 400,-466 400,-466 400,-200 400,-181.495 400,-160.455 400,-145.212"/>
<polygon fill="black" stroke="black" points="403.5,-144.824 400,-134.824 396.5,-144.824 403.5,-144.824"/>
</g>
<!-- WORKFLOWINTERNALSOURCE_bg_color -->
<g id="node23" class="node"><title>WORKFLOWINTERNALSOURCE_bg_color</title>
<polygon fill="skyblue" stroke="black" points="436,-552.5 384,-552.5 384,-531.5 436,-531.5 436,-552.5"/>
<text text-anchor="middle" x="410" y="-539.5" font-family="Helvetica,sans-Serif" font-size="10.00">bg_color</text>
</g>
<!-- WORKFLOWINTERNALSOURCE_bg_color&#45;&gt;color_pathway_by_objects_2 -->
<g id="edge32" class="edge"><title>WORKFLOWINTERNALSOURCE_bg_color&#45;&gt;color_pathway_by_objects_2</title>
<path fill="none" stroke="black" d="M410,-531.176C410,-516.436 410,-489.222 410,-466 410,-466 410,-466 410,-200 410,-181.152 406.939,-159.898 404.205,-144.669"/>
<polygon fill="black" stroke="black" points="407.628,-143.934 402.319,-134.765 400.751,-145.243 407.628,-143.934"/>
</g>
<!-- WORKFLOWINTERNALSINKCONTROL -->
<g id="node25" class="node"><title>WORKFLOWINTERNALSINKCONTROL</title>
<polygon fill="#66cd00" stroke="black" points="485,-20 492,-30.5 478,-30.5 485,-20"/>
</g>
</g>
</svg>
