<?xml version="1.0" encoding="UTF-8" standalone="no"?>
<!DOCTYPE svg PUBLIC "-//W3C//DTD SVG 1.1//EN"
 "http://www.w3.org/Graphics/SVG/1.1/DTD/svg11.dtd">
<!-- Generated by graphviz version 2.26.0 (20091210.2329)
 -->
<!-- Title: t2flow_graph Pages: 1 -->
<svg width="484pt" height="639pt"
 viewBox="0.00 0.00 484.00 639.00" xmlns="http://www.w3.org/2000/svg" xmlns:xlink="http://www.w3.org/1999/xlink">
<g id="graph1" class="graph" transform="scale(1 1) rotate(0) translate(4 635)">
<title>t2flow_graph</title>
<polygon fill="white" stroke="white" points="-4,5 -4,-635 481,-635 481,5 -4,5"/>
<g id="graph2" class="cluster"><title>cluster_Job_status_pollJob_status_poll</title>
<polygon fill="aliceblue" stroke="black" points="108,-143 108,-412 222,-412 222,-143 108,-143"/>
<text text-anchor="middle" x="150.5" y="-399" font-family="Helvetica,sans-Serif" font-size="10.00">Job_status_poll</text>
</g>
<g id="graph3" class="cluster"><title>cluster_Job_status_pollsources</title>
<polygon fill="none" stroke="black" stroke-dasharray="1,5" points="126,-324 126,-383 214,-383 214,-324 126,-324"/>
<text text-anchor="middle" x="170" y="-370" font-family="Helvetica,sans-Serif" font-size="10.00">Workflow Inputs</text>
</g>
<g id="graph4" class="cluster"><title>cluster_Job_status_pollsinks</title>
<polygon fill="none" stroke="black" stroke-dasharray="1,5" points="116,-151 116,-210 214,-210 214,-151 116,-151"/>
<text text-anchor="middle" x="163.5" y="-197" font-family="Helvetica,sans-Serif" font-size="10.00">Workflow Outputs</text>
</g>
<g id="graph5" class="cluster"><title>cluster_sources</title>
<polygon fill="none" stroke="black" stroke-dasharray="1,5" points="211,-564 211,-623 393,-623 393,-564 211,-564"/>
<text text-anchor="middle" x="255" y="-610" font-family="Helvetica,sans-Serif" font-size="10.00">Workflow Inputs</text>
</g>
<g id="graph6" class="cluster"><title>cluster_sinks</title>
<polygon fill="none" stroke="black" stroke-dasharray="1,5" points="8,-8 8,-67 468,-67 468,-8 8,-8"/>
<text text-anchor="middle" x="55.5" y="-54" font-family="Helvetica,sans-Serif" font-size="10.00">Workflow Outputs</text>
</g>
<!-- run -->
<g id="node1" class="node"><title>run</title>
<polygon fill="#a2cd5a" stroke="black" points="316,-479.5 286,-479.5 286,-458.5 316,-458.5 316,-479.5"/>
<text text-anchor="middle" x="301" y="-466.5" font-family="Helvetica,sans-Serif" font-size="10.00">run</text>
</g>
<!-- run_output -->
<g id="node3" class="node"><title>run_output</title>
<polygon fill="#ab92ea" stroke="black" points="332,-441.5 270,-441.5 270,-420.5 332,-420.5 332,-441.5"/>
<text text-anchor="middle" x="301" y="-428.5" font-family="Helvetica,sans-Serif" font-size="10.00">run_output</text>
</g>
<!-- run&#45;&gt;run_output -->
<g id="edge21" class="edge"><title>run&#45;&gt;run_output</title>
<path fill="none" stroke="black" d="M301,-458.212C301,-456.19 301,-454.013 301,-451.804"/>
<polygon fill="black" stroke="black" points="304.5,-451.683 301,-441.683 297.5,-451.683 304.5,-451.683"/>
</g>
<!-- run_input -->
<g id="node2" class="node"><title>run_input</title>
<polygon fill="#ab92ea" stroke="black" points="329,-517.5 273,-517.5 273,-496.5 329,-496.5 329,-517.5"/>
<text text-anchor="middle" x="301" y="-504.5" font-family="Helvetica,sans-Serif" font-size="10.00">run_input</text>
</g>
<!-- run_input&#45;&gt;run -->
<g id="edge15" class="edge"><title>run_input&#45;&gt;run</title>
<path fill="none" stroke="black" d="M301,-496.212C301,-494.19 301,-492.013 301,-489.804"/>
<polygon fill="black" stroke="black" points="304.5,-489.683 301,-479.683 297.5,-489.683 304.5,-489.683"/>
</g>
<!-- getResult_input -->
<g id="node6" class="node"><title>getResult_input</title>
<polygon fill="#ab92ea" stroke="black" points="314,-180.5 230,-180.5 230,-159.5 314,-159.5 314,-180.5"/>
<text text-anchor="middle" x="272" y="-167.5" font-family="Helvetica,sans-Serif" font-size="10.00">getResult_input</text>
</g>
<!-- run_output&#45;&gt;getResult_input -->
<g id="edge27" class="edge"><title>run_output&#45;&gt;getResult_input</title>
<path fill="none" stroke="black" d="M301,-420.213C301,-398.436 301,-347.656 301,-305 301,-305 301,-305 301,-267 301,-245.001 300.203,-239.106 294,-218 291.176,-208.391 286.756,-198.242 282.616,-189.763"/>
<polygon fill="black" stroke="black" points="285.66,-188.027 277.997,-180.71 279.424,-191.209 285.66,-188.027"/>
</g>
<!-- getResult_2_input -->
<g id="node10" class="node"><title>getResult_2_input</title>
<polygon fill="#ab92ea" stroke="black" points="100,-180.5 6,-180.5 6,-159.5 100,-159.5 100,-180.5"/>
<text text-anchor="middle" x="53" y="-167.5" font-family="Helvetica,sans-Serif" font-size="10.00">getResult_2_input</text>
</g>
<!-- run_output&#45;&gt;getResult_2_input -->
<g id="edge35" class="edge"><title>run_output&#45;&gt;getResult_2_input</title>
<path fill="none" stroke="black" d="M269.901,-430.13C226.381,-428.494 149.851,-423.968 125,-412 64.6895,-382.955 19,-371.94 19,-305 19,-305 19,-305 19,-267 19,-245.001 18.9309,-238.832 26,-218 29.3931,-208.001 34.8834,-197.696 40.03,-189.21"/>
<polygon fill="black" stroke="black" points="43.1474,-190.831 45.5646,-180.515 37.2422,-187.072 43.1474,-190.831"/>
</g>
<!-- getResult_3_input -->
<g id="node14" class="node"><title>getResult_3_input</title>
<polygon fill="#ab92ea" stroke="black" points="412,-180.5 318,-180.5 318,-159.5 412,-159.5 412,-180.5"/>
<text text-anchor="middle" x="365" y="-167.5" font-family="Helvetica,sans-Serif" font-size="10.00">getResult_3_input</text>
</g>
<!-- run_output&#45;&gt;getResult_3_input -->
<g id="edge43" class="edge"><title>run_output&#45;&gt;getResult_3_input</title>
<path fill="none" stroke="black" d="M315.531,-420.302C340.526,-400.546 389,-355.696 389,-305 389,-305 389,-305 389,-267 389,-245.001 387.254,-239.362 382,-218 379.719,-208.723 376.334,-198.725 373.184,-190.268"/>
<polygon fill="black" stroke="black" points="376.42,-188.932 369.549,-180.868 369.892,-191.458 376.42,-188.932"/>
</g>
<!-- Job_status_pollWORKFLOWINTERNALSOURCE_JobId -->
<g id="node23" class="node"><title>Job_status_pollWORKFLOWINTERNALSOURCE_JobId</title>
<polygon fill="skyblue" stroke="black" points="185,-353.5 145,-353.5 145,-332.5 185,-332.5 185,-353.5"/>
<text text-anchor="middle" x="165" y="-340.5" font-family="Helvetica,sans-Serif" font-size="10.00">JobId</text>
</g>
<!-- run_output&#45;&gt;Job_status_pollWORKFLOWINTERNALSOURCE_JobId -->
<g id="edge49" class="edge"><title>run_output&#45;&gt;Job_status_pollWORKFLOWINTERNALSOURCE_JobId</title>
<path fill="none" stroke="black" d="M269.83,-429.224C241.024,-426.972 200.934,-422.094 189,-412 174.974,-400.136 169.136,-379.609 166.712,-364.019"/>
<polygon fill="black" stroke="black" points="170.144,-363.248 165.481,-353.735 163.194,-364.08 170.144,-363.248"/>
</g>
<!-- WORKFLOWINTERNALSINK_Job_ID -->
<g id="node40" class="node"><title>WORKFLOWINTERNALSINK_Job_ID</title>
<polygon fill="#bcd2ee" stroke="black" points="442,-37.5 394,-37.5 394,-16.5 442,-16.5 442,-37.5"/>
<text text-anchor="middle" x="418" y="-24.5" font-family="Helvetica,sans-Serif" font-size="10.00">Job_ID</text>
</g>
<!-- run_output&#45;&gt;WORKFLOWINTERNALSINK_Job_ID -->
<g id="edge57" class="edge"><title>run_output&#45;&gt;WORKFLOWINTERNALSINK_Job_ID</title>
<path fill="none" stroke="black" d="M332.229,-425.927C342.235,-423.112 352.828,-418.75 361,-412 402.706,-377.552 419,-359.093 419,-305 419,-305 419,-305 419,-124 419,-97.8146 418.631,-67.6551 418.341,-48.0084"/>
<polygon fill="black" stroke="black" points="421.837,-47.7099 418.183,-37.7651 414.838,-47.8179 421.837,-47.7099"/>
</g>
<!-- run_input_2 -->
<g id="node4" class="node"><title>run_input_2</title>
<polygon fill="#ab92ea" stroke="black" points="359,-555.5 293,-555.5 293,-534.5 359,-534.5 359,-555.5"/>
<text text-anchor="middle" x="326" y="-542.5" font-family="Helvetica,sans-Serif" font-size="10.00">run_input_2</text>
</g>
<!-- run_input_2&#45;&gt;run_input -->
<g id="edge19" class="edge"><title>run_input_2&#45;&gt;run_input</title>
<path fill="none" stroke="black" d="M318.903,-534.212C317.253,-531.704 315.447,-528.959 313.637,-526.209"/>
<polygon fill="black" stroke="black" points="316.449,-524.114 308.028,-517.683 310.601,-527.961 316.449,-524.114"/>
</g>
<!-- getResult -->
<g id="node5" class="node"><title>getResult</title>
<polygon fill="#a2cd5a" stroke="black" points="267,-134.5 209,-134.5 209,-113.5 267,-113.5 267,-134.5"/>
<text text-anchor="middle" x="238" y="-121.5" font-family="Helvetica,sans-Serif" font-size="10.00">getResult</text>
</g>
<!-- getResult_output -->
<g id="node7" class="node"><title>getResult_output</title>
<polygon fill="#ab92ea" stroke="black" points="283,-96.5 193,-96.5 193,-75.5 283,-75.5 283,-96.5"/>
<text text-anchor="middle" x="238" y="-83.5" font-family="Helvetica,sans-Serif" font-size="10.00">getResult_output</text>
</g>
<!-- getResult&#45;&gt;getResult_output -->
<g id="edge31" class="edge"><title>getResult&#45;&gt;getResult_output</title>
<path fill="none" stroke="black" d="M238,-113.212C238,-111.19 238,-109.013 238,-106.804"/>
<polygon fill="black" stroke="black" points="241.5,-106.683 238,-96.6831 234.5,-106.683 241.5,-106.683"/>
</g>
<!-- getResult_input&#45;&gt;getResult -->
<g id="edge25" class="edge"><title>getResult_input&#45;&gt;getResult</title>
<path fill="none" stroke="black" d="M264.114,-159.331C260.51,-154.454 256.129,-148.527 251.993,-142.932"/>
<polygon fill="black" stroke="black" points="254.602,-140.572 245.843,-134.611 248.972,-144.733 254.602,-140.572"/>
</g>
<!-- WORKFLOWINTERNALSINK_ClustalW_output -->
<g id="node39" class="node"><title>WORKFLOWINTERNALSINK_ClustalW_output</title>
<polygon fill="#bcd2ee" stroke="black" points="282,-37.5 194,-37.5 194,-16.5 282,-16.5 282,-37.5"/>
<text text-anchor="middle" x="238" y="-24.5" font-family="Helvetica,sans-Serif" font-size="10.00">ClustalW_output</text>
</g>
<!-- getResult_output&#45;&gt;WORKFLOWINTERNALSINK_ClustalW_output -->
<g id="edge55" class="edge"><title>getResult_output&#45;&gt;WORKFLOWINTERNALSINK_ClustalW_output</title>
<path fill="none" stroke="black" d="M238,-75.452C238,-67.8285 238,-57.2768 238,-47.966"/>
<polygon fill="black" stroke="black" points="241.5,-47.8558 238,-37.8559 234.5,-47.8559 241.5,-47.8558"/>
</g>
<!-- type_value -->
<g id="node8" class="node"><title>type_value</title>
<polygon fill="#b0c4de" stroke="black" points="294,-239.5 230,-239.5 230,-218.5 294,-218.5 294,-239.5"/>
<text text-anchor="middle" x="262" y="-226.5" font-family="Helvetica,sans-Serif" font-size="10.00">type_value</text>
</g>
<!-- type_value&#45;&gt;getResult_input -->
<g id="edge29" class="edge"><title>type_value&#45;&gt;getResult_input</title>
<path fill="none" stroke="black" d="M263.788,-218.452C265.08,-210.829 266.868,-200.277 268.446,-190.966"/>
<polygon fill="black" stroke="black" points="271.94,-191.3 270.16,-180.856 265.038,-190.13 271.94,-191.3"/>
</g>
<!-- getResult_2 -->
<g id="node9" class="node"><title>getResult_2</title>
<polygon fill="#a2cd5a" stroke="black" points="103,-134.5 35,-134.5 35,-113.5 103,-113.5 103,-134.5"/>
<text text-anchor="middle" x="69" y="-121.5" font-family="Helvetica,sans-Serif" font-size="10.00">getResult_2</text>
</g>
<!-- getResult_2_output -->
<g id="node11" class="node"><title>getResult_2_output</title>
<polygon fill="#ab92ea" stroke="black" points="119,-96.5 19,-96.5 19,-75.5 119,-75.5 119,-96.5"/>
<text text-anchor="middle" x="69" y="-83.5" font-family="Helvetica,sans-Serif" font-size="10.00">getResult_2_output</text>
</g>
<!-- getResult_2&#45;&gt;getResult_2_output -->
<g id="edge39" class="edge"><title>getResult_2&#45;&gt;getResult_2_output</title>
<path fill="none" stroke="black" d="M69,-113.212C69,-111.19 69,-109.013 69,-106.804"/>
<polygon fill="black" stroke="black" points="72.5001,-106.683 69,-96.6831 65.5001,-106.683 72.5001,-106.683"/>
</g>
<!-- getResult_2_input&#45;&gt;getResult_2 -->
<g id="edge33" class="edge"><title>getResult_2_input&#45;&gt;getResult_2</title>
<path fill="none" stroke="black" d="M56.7109,-159.331C58.2861,-154.803 60.1762,-149.369 61.9964,-144.135"/>
<polygon fill="black" stroke="black" points="65.3297,-145.206 65.3092,-134.611 58.7182,-142.906 65.3297,-145.206"/>
</g>
<!-- WORKFLOWINTERNALSINK_ClustalW_guide_tree -->
<g id="node38" class="node"><title>WORKFLOWINTERNALSINK_ClustalW_guide_tree</title>
<polygon fill="#bcd2ee" stroke="black" points="122,-37.5 16,-37.5 16,-16.5 122,-16.5 122,-37.5"/>
<text text-anchor="middle" x="69" y="-24.5" font-family="Helvetica,sans-Serif" font-size="10.00">ClustalW_guide_tree</text>
</g>
<!-- getResult_2_output&#45;&gt;WORKFLOWINTERNALSINK_ClustalW_guide_tree -->
<g id="edge53" class="edge"><title>getResult_2_output&#45;&gt;WORKFLOWINTERNALSINK_ClustalW_guide_tree</title>
<path fill="none" stroke="black" d="M69,-75.452C69,-67.8285 69,-57.2768 69,-47.966"/>
<polygon fill="black" stroke="black" points="72.5001,-47.8558 69,-37.8559 65.5001,-47.8559 72.5001,-47.8558"/>
</g>
<!-- type_value_1 -->
<g id="node12" class="node"><title>type_value_1</title>
<polygon fill="#b0c4de" stroke="black" points="100,-239.5 26,-239.5 26,-218.5 100,-218.5 100,-239.5"/>
<text text-anchor="middle" x="63" y="-226.5" font-family="Helvetica,sans-Serif" font-size="10.00">type_value_1</text>
</g>
<!-- type_value_1&#45;&gt;getResult_2_input -->
<g id="edge37" class="edge"><title>type_value_1&#45;&gt;getResult_2_input</title>
<path fill="none" stroke="black" d="M61.2122,-218.452C59.9201,-210.829 58.1317,-200.277 56.5536,-190.966"/>
<polygon fill="black" stroke="black" points="59.9619,-190.13 54.84,-180.856 53.0604,-191.3 59.9619,-190.13"/>
</g>
<!-- getResult_3 -->
<g id="node13" class="node"><title>getResult_3</title>
<polygon fill="#a2cd5a" stroke="black" points="372,-134.5 304,-134.5 304,-113.5 372,-113.5 372,-134.5"/>
<text text-anchor="middle" x="338" y="-121.5" font-family="Helvetica,sans-Serif" font-size="10.00">getResult_3</text>
</g>
<!-- getResult_3_output -->
<g id="node15" class="node"><title>getResult_3_output</title>
<polygon fill="#ab92ea" stroke="black" points="388,-96.5 288,-96.5 288,-75.5 388,-75.5 388,-96.5"/>
<text text-anchor="middle" x="338" y="-83.5" font-family="Helvetica,sans-Serif" font-size="10.00">getResult_3_output</text>
</g>
<!-- getResult_3&#45;&gt;getResult_3_output -->
<g id="edge47" class="edge"><title>getResult_3&#45;&gt;getResult_3_output</title>
<path fill="none" stroke="black" d="M338,-113.212C338,-111.19 338,-109.013 338,-106.804"/>
<polygon fill="black" stroke="black" points="341.5,-106.683 338,-96.6831 334.5,-106.683 341.5,-106.683"/>
</g>
<!-- getResult_3_input&#45;&gt;getResult_3 -->
<g id="edge41" class="edge"><title>getResult_3_input&#45;&gt;getResult_3</title>
<path fill="none" stroke="black" d="M358.738,-159.331C355.943,-154.57 352.562,-148.809 349.347,-143.332"/>
<polygon fill="black" stroke="black" points="352.309,-141.464 344.228,-134.611 346.272,-145.007 352.309,-141.464"/>
</g>
<!-- WORKFLOWINTERNALSINK_ClustalW_alignment -->
<g id="node37" class="node"><title>WORKFLOWINTERNALSINK_ClustalW_alignment</title>
<polygon fill="#bcd2ee" stroke="black" points="390,-37.5 286,-37.5 286,-16.5 390,-16.5 390,-37.5"/>
<text text-anchor="middle" x="338" y="-24.5" font-family="Helvetica,sans-Serif" font-size="10.00">ClustalW_alignment</text>
</g>
<!-- getResult_3_output&#45;&gt;WORKFLOWINTERNALSINK_ClustalW_alignment -->
<g id="edge51" class="edge"><title>getResult_3_output&#45;&gt;WORKFLOWINTERNALSINK_ClustalW_alignment</title>
<path fill="none" stroke="black" d="M338,-75.452C338,-67.8285 338,-57.2768 338,-47.966"/>
<polygon fill="black" stroke="black" points="341.5,-47.8558 338,-37.8559 334.5,-47.8559 341.5,-47.8558"/>
</g>
<!-- type_value_2 -->
<g id="node16" class="node"><title>type_value_2</title>
<polygon fill="#b0c4de" stroke="black" points="382,-239.5 308,-239.5 308,-218.5 382,-218.5 382,-239.5"/>
<text text-anchor="middle" x="345" y="-226.5" font-family="Helvetica,sans-Serif" font-size="10.00">type_value_2</text>
</g>
<!-- type_value_2&#45;&gt;getResult_3_input -->
<g id="edge45" class="edge"><title>type_value_2&#45;&gt;getResult_3_input</title>
<path fill="none" stroke="black" d="M348.576,-218.452C351.216,-210.663 354.893,-199.817 358.098,-190.361"/>
<polygon fill="black" stroke="black" points="361.424,-191.45 361.32,-180.856 354.795,-189.203 361.424,-191.45"/>
</g>
<!-- Job_status_pollgetStatus -->
<g id="node18" class="node"><title>Job_status_pollgetStatus</title>
<polygon fill="#a2cd5a" stroke="black" points="193,-277.5 135,-277.5 135,-256.5 193,-256.5 193,-277.5"/>
<text text-anchor="middle" x="164" y="-264.5" font-family="Helvetica,sans-Serif" font-size="10.00">getStatus</text>
</g>
<!-- Job_status_pollgetStatus_output -->
<g id="node20" class="node"><title>Job_status_pollgetStatus_output</title>
<polygon fill="#ab92ea" stroke="black" points="207,-239.5 117,-239.5 117,-218.5 207,-218.5 207,-239.5"/>
<text text-anchor="middle" x="162" y="-226.5" font-family="Helvetica,sans-Serif" font-size="10.00">getStatus_output</text>
</g>
<!-- Job_status_pollgetStatus&#45;&gt;Job_status_pollgetStatus_output -->
<g id="edge9" class="edge"><title>Job_status_pollgetStatus&#45;&gt;Job_status_pollgetStatus_output</title>
<path fill="none" stroke="black" d="M163.432,-256.212C163.326,-254.19 163.211,-252.013 163.095,-249.804"/>
<polygon fill="black" stroke="black" points="166.583,-249.485 162.562,-239.683 159.593,-249.853 166.583,-249.485"/>
</g>
<!-- Job_status_pollgetStatus_input -->
<g id="node19" class="node"><title>Job_status_pollgetStatus_input</title>
<polygon fill="#ab92ea" stroke="black" points="207,-315.5 123,-315.5 123,-294.5 207,-294.5 207,-315.5"/>
<text text-anchor="middle" x="165" y="-302.5" font-family="Helvetica,sans-Serif" font-size="10.00">getStatus_input</text>
</g>
<!-- Job_status_pollgetStatus_input&#45;&gt;Job_status_pollgetStatus -->
<g id="edge5" class="edge"><title>Job_status_pollgetStatus_input&#45;&gt;Job_status_pollgetStatus</title>
<path fill="none" stroke="black" d="M164.716,-294.212C164.663,-292.19 164.606,-290.013 164.547,-287.804"/>
<polygon fill="black" stroke="black" points="168.043,-287.588 164.281,-277.683 161.046,-287.772 168.043,-287.588"/>
</g>
<!-- Job_status_pollWORKFLOWINTERNALSINK_Job_status -->
<g id="node26" class="node"><title>Job_status_pollWORKFLOWINTERNALSINK_Job_status</title>
<polygon fill="#bcd2ee" stroke="black" points="188,-180.5 124,-180.5 124,-159.5 188,-159.5 188,-180.5"/>
<text text-anchor="middle" x="156" y="-167.5" font-family="Helvetica,sans-Serif" font-size="10.00">Job_status</text>
</g>
<!-- Job_status_pollgetStatus_output&#45;&gt;Job_status_pollWORKFLOWINTERNALSINK_Job_status -->
<g id="edge11" class="edge"><title>Job_status_pollgetStatus_output&#45;&gt;Job_status_pollWORKFLOWINTERNALSINK_Job_status</title>
<path fill="none" stroke="black" d="M160.927,-218.452C160.152,-210.829 159.079,-200.277 158.132,-190.966"/>
<polygon fill="black" stroke="black" points="161.598,-190.45 157.104,-180.856 154.634,-191.159 161.598,-190.45"/>
</g>
<!-- Job_status_pollWORKFLOWINTERNALSOURCECONTROL -->
<g id="node22" class="node"><title>Job_status_pollWORKFLOWINTERNALSOURCECONTROL</title>
<polygon fill="#ff4040" stroke="black" points="196,-350 189,-339.5 203,-339.5 196,-350"/>
</g>
<!-- Job_status_pollWORKFLOWINTERNALSOURCE_JobId&#45;&gt;Job_status_pollgetStatus_input -->
<g id="edge7" class="edge"><title>Job_status_pollWORKFLOWINTERNALSOURCE_JobId&#45;&gt;Job_status_pollgetStatus_input</title>
<path fill="none" stroke="black" d="M165,-332.212C165,-330.19 165,-328.013 165,-325.804"/>
<polygon fill="black" stroke="black" points="168.5,-325.683 165,-315.683 161.5,-325.683 168.5,-325.683"/>
</g>
<!-- Job_status_pollWORKFLOWINTERNALSINKCONTROL -->
<g id="node25" class="node"><title>Job_status_pollWORKFLOWINTERNALSINKCONTROL</title>
<polygon fill="#66cd00" stroke="black" points="199,-163 206,-173.5 192,-173.5 199,-163"/>
</g>
<!-- Job_status_pollWORKFLOWINTERNALSINKCONTROL&#45;&gt;getResult -->
<g id="edge63" class="edge"><title>Job_status_pollWORKFLOWINTERNALSINKCONTROL&#45;&gt;getResult</title>
<path fill="none" stroke="gray" d="M200.217,-164.545C201.731,-158.717 204.776,-149.451 210,-143 210.864,-141.933 211.804,-140.902 212.799,-139.91"/>
<ellipse fill="none" stroke="gray" cx="215.902" cy="-137.264" rx="4.00002" ry="4.00002"/>
</g>
<!-- Job_status_pollWORKFLOWINTERNALSINKCONTROL&#45;&gt;getResult_2 -->
<g id="edge65" class="edge"><title>Job_status_pollWORKFLOWINTERNALSINKCONTROL&#45;&gt;getResult_2</title>
<path fill="none" stroke="gray" d="M198.278,-164.045C197.187,-157.791 194.501,-148.162 188,-143 176.281,-133.694 140.502,-128.856 111.21,-126.398"/>
<ellipse fill="none" stroke="gray" cx="107.134" cy="-126.078" rx="4" ry="4"/>
</g>
<!-- Job_status_pollWORKFLOWINTERNALSINKCONTROL&#45;&gt;getResult_3 -->
<g id="edge61" class="edge"><title>Job_status_pollWORKFLOWINTERNALSINKCONTROL&#45;&gt;getResult_3</title>
<path fill="none" stroke="gray" d="M199.699,-164.015C200.77,-157.736 203.439,-148.085 210,-143 220.458,-134.895 255.911,-136.931 269,-135 277.729,-133.713 287.067,-132.269 295.965,-130.861"/>
<ellipse fill="none" stroke="gray" cx="300.031" cy="-130.214" rx="4.00001" ry="4.00001"/>
</g>
<!-- WORKFLOWINTERNALSINK_Job_status -->
<g id="node41" class="node"><title>WORKFLOWINTERNALSINK_Job_status</title>
<polygon fill="#bcd2ee" stroke="black" points="190,-37.5 126,-37.5 126,-16.5 190,-16.5 190,-37.5"/>
<text text-anchor="middle" x="158" y="-24.5" font-family="Helvetica,sans-Serif" font-size="10.00">Job_status</text>
</g>
<!-- Job_status_pollWORKFLOWINTERNALSINK_Job_status&#45;&gt;WORKFLOWINTERNALSINK_Job_status -->
<g id="edge59" class="edge"><title>Job_status_pollWORKFLOWINTERNALSINK_Job_status&#45;&gt;WORKFLOWINTERNALSINK_Job_status</title>
<path fill="none" stroke="black" d="M156.15,-159.252C156.48,-135.649 157.274,-78.934 157.706,-47.9959"/>
<polygon fill="black" stroke="black" points="161.208,-47.921 157.848,-37.873 154.208,-47.823 161.208,-47.921"/>
</g>
<!-- WORKFLOWINTERNALSOURCECONTROL -->
<g id="node32" class="node"><title>WORKFLOWINTERNALSOURCECONTROL</title>
<polygon fill="#ff4040" stroke="black" points="378,-590 371,-579.5 385,-579.5 378,-590"/>
</g>
<!-- WORKFLOWINTERNALSOURCE_Email_address -->
<g id="node33" class="node"><title>WORKFLOWINTERNALSOURCE_Email_address</title>
<polygon fill="skyblue" stroke="black" points="299,-593.5 219,-593.5 219,-572.5 299,-572.5 299,-593.5"/>
<text text-anchor="middle" x="259" y="-580.5" font-family="Helvetica,sans-Serif" font-size="10.00">Email_address</text>
</g>
<!-- WORKFLOWINTERNALSOURCE_Email_address&#45;&gt;run_input -->
<g id="edge17" class="edge"><title>WORKFLOWINTERNALSOURCE_Email_address&#45;&gt;run_input</title>
<path fill="none" stroke="black" d="M264.84,-572.433C271.348,-560.655 282.017,-541.351 290.083,-526.755"/>
<polygon fill="black" stroke="black" points="293.164,-528.415 294.938,-517.97 287.037,-525.029 293.164,-528.415"/>
</g>
<!-- WORKFLOWINTERNALSOURCE_Sequences -->
<g id="node34" class="node"><title>WORKFLOWINTERNALSOURCE_Sequences</title>
<polygon fill="skyblue" stroke="black" points="367,-593.5 303,-593.5 303,-572.5 367,-572.5 367,-593.5"/>
<text text-anchor="middle" x="335" y="-580.5" font-family="Helvetica,sans-Serif" font-size="10.00">Sequences</text>
</g>
<!-- WORKFLOWINTERNALSOURCE_Sequences&#45;&gt;run_input_2 -->
<g id="edge23" class="edge"><title>WORKFLOWINTERNALSOURCE_Sequences&#45;&gt;run_input_2</title>
<path fill="none" stroke="black" d="M332.445,-572.212C331.947,-570.109 331.409,-567.839 330.864,-565.538"/>
<polygon fill="black" stroke="black" points="334.241,-564.607 328.53,-555.683 327.429,-566.221 334.241,-564.607"/>
</g>
<!-- WORKFLOWINTERNALSINKCONTROL -->
<g id="node36" class="node"><title>WORKFLOWINTERNALSINKCONTROL</title>
<polygon fill="#66cd00" stroke="black" points="453,-20 460,-30.5 446,-30.5 453,-20"/>
</g>
</g>
</svg>
