<?xml version="1.0" encoding="UTF-8" standalone="no"?>
<!DOCTYPE svg PUBLIC "-//W3C//DTD SVG 1.1//EN"
 "http://www.w3.org/Graphics/SVG/1.1/DTD/svg11.dtd">
<!-- Generated by graphviz version 2.26.0 (20091210.2329)
 -->
<!-- Title: t2flow_graph Pages: 1 -->
<svg width="404pt" height="180pt"
 viewBox="0.00 0.00 404.00 180.00" xmlns="http://www.w3.org/2000/svg" xmlns:xlink="http://www.w3.org/1999/xlink">
<g id="graph1" class="graph" transform="scale(1 1) rotate(0) translate(4 176)">
<title>t2flow_graph</title>
<polygon fill="white" stroke="white" points="-4,5 -4,-176 401,-176 401,5 -4,5"/>
<g id="graph2" class="cluster"><title>cluster_sources</title>
<polygon fill="none" stroke="black" stroke-dasharray="1,5" points="300,-105 300,-164 388,-164 388,-105 300,-105"/>
<text text-anchor="middle" x="344" y="-151" font-family="Helvetica,sans-Serif" font-size="10.00">Workflow Inputs</text>
</g>
<g id="graph3" class="cluster"><title>cluster_sinks</title>
<polygon fill="none" stroke="black" stroke-dasharray="1,5" points="166,-8 166,-67 261,-67 261,-8 166,-8"/>
<text text-anchor="middle" x="213.5" y="-54" font-family="Helvetica,sans-Serif" font-size="10.00">Workflow Outputs</text>
</g>
<!-- Execute_SQL_Update -->
<g id="node1" class="node"><title>Execute_SQL_Update</title>
<polygon fill="#d15fee" stroke="black" points="254,-96.5 140,-96.5 140,-75.5 254,-75.5 254,-96.5"/>
<text text-anchor="middle" x="197" y="-83.5" font-family="Helvetica,sans-Serif" font-size="10.00">Execute_SQL_Update</text>
</g>
<!-- WORKFLOWINTERNALSINK_test -->
<g id="node11" class="node"><title>WORKFLOWINTERNALSINK_test</title>
<polygon fill="#bcd2ee" stroke="black" points="213,-37.5 181,-37.5 181,-16.5 213,-16.5 213,-37.5"/>
<text text-anchor="middle" x="197" y="-24.5" font-family="Helvetica,sans-Serif" font-size="10.00">test</text>
</g>
<!-- Execute_SQL_Update&#45;&gt;WORKFLOWINTERNALSINK_test -->
<g id="edge14" class="edge"><title>Execute_SQL_Update&#45;&gt;WORKFLOWINTERNALSINK_test</title>
<path fill="none" stroke="black" d="M197,-75.452C197,-67.8285 197,-57.2768 197,-47.966"/>
<polygon fill="black" stroke="black" points="200.5,-47.8558 197,-37.8559 193.5,-47.8559 200.5,-47.8558"/>
</g>
<!-- driver_value -->
<g id="node2" class="node"><title>driver_value</title>
<polygon fill="#b0c4de" stroke="black" points="68,-134.5 3.55271e-14,-134.5 0,-113.5 68,-113.5 68,-134.5"/>
<text text-anchor="middle" x="34" y="-121.5" font-family="Helvetica,sans-Serif" font-size="10.00">driver_value</text>
</g>
<!-- driver_value&#45;&gt;Execute_SQL_Update -->
<g id="edge4" class="edge"><title>driver_value&#45;&gt;Execute_SQL_Update</title>
<path fill="none" stroke="black" d="M52.4529,-113.323C58.5125,-110.216 65.3913,-107.097 72,-105 90.356,-99.1758 110.811,-95.112 129.771,-92.2862"/>
<polygon fill="black" stroke="black" points="130.41,-95.731 139.828,-90.8795 129.44,-88.7985 130.41,-95.731"/>
</g>
<!-- password_value -->
<g id="node3" class="node"><title>password_value</title>
<polygon fill="#b0c4de" stroke="black" points="158,-134.5 72,-134.5 72,-113.5 158,-113.5 158,-134.5"/>
<text text-anchor="middle" x="115" y="-121.5" font-family="Helvetica,sans-Serif" font-size="10.00">password_value</text>
</g>
<!-- password_value&#45;&gt;Execute_SQL_Update -->
<g id="edge6" class="edge"><title>password_value&#45;&gt;Execute_SQL_Update</title>
<path fill="none" stroke="black" d="M137.842,-113.415C146.283,-109.503 156.011,-104.995 165.109,-100.779"/>
<polygon fill="black" stroke="black" points="166.679,-103.909 174.281,-96.5284 163.736,-97.5574 166.679,-103.909"/>
</g>
<!-- userid_value -->
<g id="node4" class="node"><title>userid_value</title>
<polygon fill="#b0c4de" stroke="black" points="232,-134.5 162,-134.5 162,-113.5 232,-113.5 232,-134.5"/>
<text text-anchor="middle" x="197" y="-121.5" font-family="Helvetica,sans-Serif" font-size="10.00">userid_value</text>
</g>
<!-- userid_value&#45;&gt;Execute_SQL_Update -->
<g id="edge8" class="edge"><title>userid_value&#45;&gt;Execute_SQL_Update</title>
<path fill="none" stroke="black" d="M197,-113.212C197,-111.19 197,-109.013 197,-106.804"/>
<polygon fill="black" stroke="black" points="200.5,-106.683 197,-96.6831 193.5,-106.683 200.5,-106.683"/>
</g>
<!-- url_value -->
<g id="node5" class="node"><title>url_value</title>
<polygon fill="#b0c4de" stroke="black" points="292,-134.5 236,-134.5 236,-113.5 292,-113.5 292,-134.5"/>
<text text-anchor="middle" x="264" y="-121.5" font-family="Helvetica,sans-Serif" font-size="10.00">url_value</text>
</g>
<!-- url_value&#45;&gt;Execute_SQL_Update -->
<g id="edge10" class="edge"><title>url_value&#45;&gt;Execute_SQL_Update</title>
<path fill="none" stroke="black" d="M246.466,-113.425C241.787,-110.648 236.719,-107.681 232,-105 229.997,-103.862 227.923,-102.699 225.83,-101.536"/>
<polygon fill="black" stroke="black" points="227.145,-98.2655 216.695,-96.5198 223.776,-104.401 227.145,-98.2655"/>
</g>
<!-- WORKFLOWINTERNALSOURCECONTROL -->
<g id="node7" class="node"><title>WORKFLOWINTERNALSOURCECONTROL</title>
<polygon fill="#ff4040" stroke="black" points="360,-131 353,-120.5 367,-120.5 360,-131"/>
</g>
<!-- WORKFLOWINTERNALSOURCE_sql -->
<g id="node8" class="node"><title>WORKFLOWINTERNALSOURCE_sql</title>
<polygon fill="skyblue" stroke="black" points="336,-134.5 308,-134.5 308,-113.5 336,-113.5 336,-134.5"/>
<text text-anchor="middle" x="322" y="-121.5" font-family="Helvetica,sans-Serif" font-size="10.00">sql</text>
</g>
<!-- WORKFLOWINTERNALSOURCE_sql&#45;&gt;Execute_SQL_Update -->
<g id="edge12" class="edge"><title>WORKFLOWINTERNALSOURCE_sql&#45;&gt;Execute_SQL_Update</title>
<path fill="none" stroke="black" d="M314.196,-113.436C311.332,-110.258 307.84,-107.069 304,-105 296.537,-100.98 281.128,-97.441 264.272,-94.5407"/>
<polygon fill="black" stroke="black" points="264.662,-91.0582 254.23,-92.9081 263.539,-97.9675 264.662,-91.0582"/>
</g>
<!-- WORKFLOWINTERNALSINKCONTROL -->
<g id="node10" class="node"><title>WORKFLOWINTERNALSINKCONTROL</title>
<polygon fill="#66cd00" stroke="black" points="238,-20 245,-30.5 231,-30.5 238,-20"/>
</g>
</g>
</svg>
