<?xml version="1.0" encoding="UTF-8" standalone="no"?>
<!DOCTYPE svg PUBLIC "-//W3C//DTD SVG 1.1//EN"
 "http://www.w3.org/Graphics/SVG/1.1/DTD/svg11.dtd">
<!-- Generated by graphviz version 2.26.0 (20091210.2329)
 -->
<!-- Title: t2flow_graph Pages: 1 -->
<svg width="809pt" height="447pt"
 viewBox="0.00 0.00 809.00 447.00" xmlns="http://www.w3.org/2000/svg" xmlns:xlink="http://www.w3.org/1999/xlink">
<g id="graph1" class="graph" transform="scale(1 1) rotate(0) translate(4 443)">
<title>t2flow_graph</title>
<polygon fill="white" stroke="white" points="-4,5 -4,-443 806,-443 806,5 -4,5"/>
<g id="graph2" class="cluster"><title>cluster_sources</title>
<polygon fill="none" stroke="black" stroke-dasharray="1,5" points="8,-372 8,-431 690,-431 690,-372 8,-372"/>
<text text-anchor="middle" x="52" y="-418" font-family="Helvetica,sans-Serif" font-size="10.00">Workflow Inputs</text>
</g>
<g id="graph3" class="cluster"><title>cluster_sinks</title>
<polygon fill="none" stroke="black" stroke-dasharray="1,5" points="698,-376 698,-427 793,-427 793,-376 698,-376"/>
<text text-anchor="middle" x="745.5" y="-414" font-family="Helvetica,sans-Serif" font-size="10.00">Workflow Outputs</text>
</g>
<!-- Iterative_SDfile_Reader -->
<g id="node1" class="node"><title>Iterative_SDfile_Reader</title>
<polygon fill="white" stroke="black" points="264,-363.5 144,-363.5 144,-342.5 264,-342.5 264,-363.5"/>
<text text-anchor="middle" x="204" y="-350.5" font-family="Helvetica,sans-Serif" font-size="10.00">Iterative_SDfile_Reader</text>
</g>
<!-- Atom_Type_Filter -->
<g id="node6" class="node"><title>Atom_Type_Filter</title>
<polygon fill="white" stroke="black" points="251,-325.5 157,-325.5 157,-304.5 251,-304.5 251,-325.5"/>
<text text-anchor="middle" x="204" y="-312.5" font-family="Helvetica,sans-Serif" font-size="10.00">Atom_Type_Filter</text>
</g>
<!-- Iterative_SDfile_Reader&#45;&gt;Atom_Type_Filter -->
<g id="edge16" class="edge"><title>Iterative_SDfile_Reader&#45;&gt;Atom_Type_Filter</title>
<path fill="none" stroke="black" d="M204,-342.212C204,-340.19 204,-338.013 204,-335.804"/>
<polygon fill="black" stroke="black" points="207.5,-335.683 204,-325.683 200.5,-335.683 207.5,-335.683"/>
</g>
<!-- Hueckel_Aromaticity_Detector -->
<g id="node2" class="node"><title>Hueckel_Aromaticity_Detector</title>
<polygon fill="white" stroke="black" points="275,-211.5 125,-211.5 125,-190.5 275,-190.5 275,-211.5"/>
<text text-anchor="middle" x="200" y="-198.5" font-family="Helvetica,sans-Serif" font-size="10.00">Hueckel_Aromaticity_Detector</text>
</g>
<!-- Tag_Molecules_With_UUID -->
<g id="node4" class="node"><title>Tag_Molecules_With_UUID</title>
<polygon fill="white" stroke="black" points="269,-173.5 131,-173.5 131,-152.5 269,-152.5 269,-173.5"/>
<text text-anchor="middle" x="200" y="-160.5" font-family="Helvetica,sans-Serif" font-size="10.00">Tag_Molecules_With_UUID</text>
</g>
<!-- Hueckel_Aromaticity_Detector&#45;&gt;Tag_Molecules_With_UUID -->
<g id="edge12" class="edge"><title>Hueckel_Aromaticity_Detector&#45;&gt;Tag_Molecules_With_UUID</title>
<path fill="none" stroke="black" d="M200,-190.212C200,-188.19 200,-186.013 200,-183.804"/>
<polygon fill="black" stroke="black" points="203.5,-183.683 200,-173.683 196.5,-183.683 203.5,-183.683"/>
</g>
<!-- Add_Explicit_Hydrogens -->
<g id="node3" class="node"><title>Add_Explicit_Hydrogens</title>
<polygon fill="white" stroke="black" points="262,-249.5 138,-249.5 138,-228.5 262,-228.5 262,-249.5"/>
<text text-anchor="middle" x="200" y="-236.5" font-family="Helvetica,sans-Serif" font-size="10.00">Add_Explicit_Hydrogens</text>
</g>
<!-- Add_Explicit_Hydrogens&#45;&gt;Hueckel_Aromaticity_Detector -->
<g id="edge8" class="edge"><title>Add_Explicit_Hydrogens&#45;&gt;Hueckel_Aromaticity_Detector</title>
<path fill="none" stroke="black" d="M200,-228.212C200,-226.19 200,-224.013 200,-221.804"/>
<polygon fill="black" stroke="black" points="203.5,-221.683 200,-211.683 196.5,-221.683 203.5,-221.683"/>
</g>
<!-- SDfile_Writer_3 -->
<g id="node10" class="node"><title>SDfile_Writer_3</title>
<polygon fill="white" stroke="black" points="190,-135.5 104,-135.5 104,-114.5 190,-114.5 190,-135.5"/>
<text text-anchor="middle" x="147" y="-122.5" font-family="Helvetica,sans-Serif" font-size="10.00">SDfile_Writer_3</text>
</g>
<!-- Tag_Molecules_With_UUID&#45;&gt;SDfile_Writer_3 -->
<g id="edge28" class="edge"><title>Tag_Molecules_With_UUID&#45;&gt;SDfile_Writer_3</title>
<path fill="none" stroke="black" d="M185.237,-152.415C180.527,-149.038 175.198,-145.218 170.046,-141.524"/>
<polygon fill="black" stroke="black" points="171.851,-138.511 161.684,-135.528 167.772,-144.2 171.851,-138.511"/>
</g>
<!-- QSAR_Descriptor_Threaded -->
<g id="node11" class="node"><title>QSAR_Descriptor_Threaded</title>
<polygon fill="white" stroke="black" points="474,-135.5 334,-135.5 334,-114.5 474,-114.5 474,-135.5"/>
<text text-anchor="middle" x="404" y="-122.5" font-family="Helvetica,sans-Serif" font-size="10.00">QSAR_Descriptor_Threaded</text>
</g>
<!-- Tag_Molecules_With_UUID&#45;&gt;QSAR_Descriptor_Threaded -->
<g id="edge32" class="edge"><title>Tag_Molecules_With_UUID&#45;&gt;QSAR_Descriptor_Threaded</title>
<path fill="none" stroke="black" d="M256.554,-152.465C281.538,-147.812 311.093,-142.306 337.159,-137.451"/>
<polygon fill="black" stroke="black" points="338.146,-140.827 347.336,-135.555 336.864,-133.946 338.146,-140.827"/>
</g>
<!-- Molecule_Connectivity_Checker -->
<g id="node5" class="node"><title>Molecule_Connectivity_Checker</title>
<polygon fill="white" stroke="black" points="279,-287.5 121,-287.5 121,-266.5 279,-266.5 279,-287.5"/>
<text text-anchor="middle" x="200" y="-274.5" font-family="Helvetica,sans-Serif" font-size="10.00">Molecule_Connectivity_Checker</text>
</g>
<!-- Molecule_Connectivity_Checker&#45;&gt;Add_Explicit_Hydrogens -->
<g id="edge10" class="edge"><title>Molecule_Connectivity_Checker&#45;&gt;Add_Explicit_Hydrogens</title>
<path fill="none" stroke="black" d="M200,-266.212C200,-264.19 200,-262.013 200,-259.804"/>
<polygon fill="black" stroke="black" points="203.5,-259.683 200,-249.683 196.5,-259.683 203.5,-259.683"/>
</g>
<!-- SDfile_Writer_2 -->
<g id="node8" class="node"><title>SDfile_Writer_2</title>
<polygon fill="white" stroke="black" points="380,-249.5 294,-249.5 294,-228.5 380,-228.5 380,-249.5"/>
<text text-anchor="middle" x="337" y="-236.5" font-family="Helvetica,sans-Serif" font-size="10.00">SDfile_Writer_2</text>
</g>
<!-- Molecule_Connectivity_Checker&#45;&gt;SDfile_Writer_2 -->
<g id="edge22" class="edge"><title>Molecule_Connectivity_Checker&#45;&gt;SDfile_Writer_2</title>
<path fill="none" stroke="black" d="M238.162,-266.415C253.898,-262.05 272.311,-256.943 288.951,-252.328"/>
<polygon fill="black" stroke="black" points="290.342,-255.574 299.043,-249.528 288.471,-248.829 290.342,-255.574"/>
</g>
<!-- Atom_Type_Filter&#45;&gt;Molecule_Connectivity_Checker -->
<g id="edge14" class="edge"><title>Atom_Type_Filter&#45;&gt;Molecule_Connectivity_Checker</title>
<path fill="none" stroke="black" d="M202.864,-304.212C202.652,-302.19 202.422,-300.013 202.19,-297.804"/>
<polygon fill="black" stroke="black" points="205.652,-297.262 201.125,-287.683 198.691,-297.995 205.652,-297.262"/>
</g>
<!-- SDfile_Writer -->
<g id="node7" class="node"><title>SDfile_Writer</title>
<polygon fill="white" stroke="black" points="357,-287.5 283,-287.5 283,-266.5 357,-266.5 357,-287.5"/>
<text text-anchor="middle" x="320" y="-274.5" font-family="Helvetica,sans-Serif" font-size="10.00">SDfile_Writer</text>
</g>
<!-- Atom_Type_Filter&#45;&gt;SDfile_Writer -->
<g id="edge18" class="edge"><title>Atom_Type_Filter&#45;&gt;SDfile_Writer</title>
<path fill="none" stroke="black" d="M236.312,-304.415C249.259,-300.174 264.346,-295.232 278.116,-290.721"/>
<polygon fill="black" stroke="black" points="279.447,-293.968 287.861,-287.528 277.268,-287.315 279.447,-293.968"/>
</g>
<!-- QSAR_Vector_Generator -->
<g id="node9" class="node"><title>QSAR_Vector_Generator</title>
<polygon fill="white" stroke="black" points="467,-97.5 341,-97.5 341,-76.5 467,-76.5 467,-97.5"/>
<text text-anchor="middle" x="404" y="-84.5" font-family="Helvetica,sans-Serif" font-size="10.00">QSAR_Vector_Generator</text>
</g>
<!-- QSAR_Vector_To_CSV -->
<g id="node12" class="node"><title>QSAR_Vector_To_CSV</title>
<polygon fill="white" stroke="black" points="465,-59.5 343,-59.5 343,-38.5 465,-38.5 465,-59.5"/>
<text text-anchor="middle" x="404" y="-46.5" font-family="Helvetica,sans-Serif" font-size="10.00">QSAR_Vector_To_CSV</text>
</g>
<!-- QSAR_Vector_Generator&#45;&gt;QSAR_Vector_To_CSV -->
<g id="edge34" class="edge"><title>QSAR_Vector_Generator&#45;&gt;QSAR_Vector_To_CSV</title>
<path fill="none" stroke="black" d="M402.632,-76.2124C402.563,-74.1896 402.521,-72.013 402.506,-69.8036"/>
<polygon fill="black" stroke="black" points="406.007,-69.7272 402.636,-59.6831 399.008,-69.6373 406.007,-69.7272"/>
</g>
<!-- QSAR_Vector_Generator&#45;&gt;QSAR_Vector_To_CSV -->
<g id="edge36" class="edge"><title>QSAR_Vector_Generator&#45;&gt;QSAR_Vector_To_CSV</title>
<path fill="none" stroke="black" d="M405.368,-76.2124C405.437,-74.1896 405.479,-72.013 405.494,-69.8036"/>
<polygon fill="black" stroke="black" points="408.992,-69.6373 405.364,-59.6831 401.993,-69.7272 408.992,-69.6373"/>
</g>
<!-- QSAR_Descriptor_Threaded&#45;&gt;QSAR_Vector_Generator -->
<g id="edge26" class="edge"><title>QSAR_Descriptor_Threaded&#45;&gt;QSAR_Vector_Generator</title>
<path fill="none" stroke="black" d="M404,-114.212C404,-112.19 404,-110.013 404,-107.804"/>
<polygon fill="black" stroke="black" points="407.5,-107.683 404,-97.6831 400.5,-107.683 407.5,-107.683"/>
</g>
<!-- CSV_File_Writer -->
<g id="node13" class="node"><title>CSV_File_Writer</title>
<polygon fill="white" stroke="black" points="561,-97.5 471,-97.5 471,-76.5 561,-76.5 561,-97.5"/>
<text text-anchor="middle" x="516" y="-84.5" font-family="Helvetica,sans-Serif" font-size="10.00">CSV_File_Writer</text>
</g>
<!-- QSAR_Descriptor_Threaded&#45;&gt;CSV_File_Writer -->
<g id="edge38" class="edge"><title>QSAR_Descriptor_Threaded&#45;&gt;CSV_File_Writer</title>
<path fill="none" stroke="black" d="M435.198,-114.415C447.577,-110.215 461.982,-105.327 475.173,-100.852"/>
<polygon fill="black" stroke="black" points="476.624,-104.056 484.969,-97.5284 474.375,-97.427 476.624,-104.056"/>
</g>
<!-- CSV_File_Writer_2 -->
<g id="node14" class="node"><title>CSV_File_Writer_2</title>
<polygon fill="white" stroke="black" points="547,-21.5 447,-21.5 447,-0.5 547,-0.5 547,-21.5"/>
<text text-anchor="middle" x="497" y="-8.5" font-family="Helvetica,sans-Serif" font-size="10.00">CSV_File_Writer_2</text>
</g>
<!-- QSAR_Vector_To_CSV&#45;&gt;CSV_File_Writer_2 -->
<g id="edge42" class="edge"><title>QSAR_Vector_To_CSV&#45;&gt;CSV_File_Writer_2</title>
<path fill="none" stroke="black" d="M429.906,-38.4149C439.782,-34.3796 451.21,-29.7097 461.806,-25.3805"/>
<polygon fill="black" stroke="black" points="463.3,-28.5508 471.233,-21.5284 460.652,-22.0709 463.3,-28.5508"/>
</g>
<!-- WORKFLOWINTERNALSOURCECONTROL -->
<g id="node16" class="node"><title>WORKFLOWINTERNALSOURCECONTROL</title>
<polygon fill="#ff4040" stroke="black" points="675,-398 668,-387.5 682,-387.5 675,-398"/>
</g>
<!-- WORKFLOWINTERNALSOURCE_OUT_TAGGED_SDF -->
<g id="node17" class="node"><title>WORKFLOWINTERNALSOURCE_OUT_TAGGED_SDF</title>
<polygon fill="skyblue" stroke="black" points="126,-401.5 16,-401.5 16,-380.5 126,-380.5 126,-401.5"/>
<text text-anchor="middle" x="71" y="-388.5" font-family="Helvetica,sans-Serif" font-size="10.00">OUT_TAGGED_SDF</text>
</g>
<!-- WORKFLOWINTERNALSOURCE_OUT_TAGGED_SDF&#45;&gt;SDfile_Writer_3 -->
<g id="edge30" class="edge"><title>WORKFLOWINTERNALSOURCE_OUT_TAGGED_SDF&#45;&gt;SDfile_Writer_3</title>
<path fill="none" stroke="black" d="M76.1025,-380.456C82.6016,-366.032 93,-339.176 93,-315 93,-315 93,-315 93,-201 93,-177.568 110.268,-156.334 125.274,-142.305"/>
<polygon fill="black" stroke="black" points="127.631,-144.894 132.812,-135.652 122.999,-139.646 127.631,-144.894"/>
</g>
<!-- WORKFLOWINTERNALSOURCE_IN_SDF -->
<g id="node18" class="node"><title>WORKFLOWINTERNALSOURCE_IN_SDF</title>
<polygon fill="skyblue" stroke="black" points="244,-401.5 192,-401.5 192,-380.5 244,-380.5 244,-401.5"/>
<text text-anchor="middle" x="218" y="-388.5" font-family="Helvetica,sans-Serif" font-size="10.00">IN_SDF</text>
</g>
<!-- WORKFLOWINTERNALSOURCE_IN_SDF&#45;&gt;Iterative_SDfile_Reader -->
<g id="edge6" class="edge"><title>WORKFLOWINTERNALSOURCE_IN_SDF&#45;&gt;Iterative_SDfile_Reader</title>
<path fill="none" stroke="black" d="M214.026,-380.212C213.221,-378.028 212.35,-375.664 211.469,-373.273"/>
<polygon fill="black" stroke="black" points="214.677,-371.857 207.936,-363.683 208.109,-374.277 214.677,-371.857"/>
</g>
<!-- WORKFLOWINTERNALSOURCE_Elements -->
<g id="node19" class="node"><title>WORKFLOWINTERNALSOURCE_Elements</title>
<polygon fill="skyblue" stroke="black" points="188,-401.5 130,-401.5 130,-380.5 188,-380.5 188,-401.5"/>
<text text-anchor="middle" x="159" y="-388.5" font-family="Helvetica,sans-Serif" font-size="10.00">Elements</text>
</g>
<!-- WORKFLOWINTERNALSOURCE_Elements&#45;&gt;Iterative_SDfile_Reader -->
<g id="edge4" class="edge"><title>WORKFLOWINTERNALSOURCE_Elements&#45;&gt;Iterative_SDfile_Reader</title>
<path fill="none" stroke="black" d="M171.775,-380.212C175.416,-377.138 179.478,-373.708 183.457,-370.347"/>
<polygon fill="black" stroke="black" points="185.967,-372.809 191.349,-363.683 181.451,-367.461 185.967,-372.809"/>
</g>
<!-- WORKFLOWINTERNALSOURCE_OUT_NOTTYPED_SDF -->
<g id="node20" class="node"><title>WORKFLOWINTERNALSOURCE_OUT_NOTTYPED_SDF</title>
<polygon fill="skyblue" stroke="black" points="370,-401.5 248,-401.5 248,-380.5 370,-380.5 370,-401.5"/>
<text text-anchor="middle" x="309" y="-388.5" font-family="Helvetica,sans-Serif" font-size="10.00">OUT_NOTTYPED_SDF</text>
</g>
<!-- WORKFLOWINTERNALSOURCE_OUT_NOTTYPED_SDF&#45;&gt;SDfile_Writer -->
<g id="edge20" class="edge"><title>WORKFLOWINTERNALSOURCE_OUT_NOTTYPED_SDF&#45;&gt;SDfile_Writer</title>
<path fill="none" stroke="black" d="M310.015,-380.479C311.823,-361.742 315.632,-322.27 317.988,-297.857"/>
<polygon fill="black" stroke="black" points="321.479,-298.118 318.955,-287.828 314.511,-297.445 321.479,-298.118"/>
</g>
<!-- WORKFLOWINTERNALSOURCE_OUT_SALT_SDF -->
<g id="node21" class="node"><title>WORKFLOWINTERNALSOURCE_OUT_SALT_SDF</title>
<polygon fill="skyblue" stroke="black" points="466,-401.5 374,-401.5 374,-380.5 466,-380.5 466,-401.5"/>
<text text-anchor="middle" x="420" y="-388.5" font-family="Helvetica,sans-Serif" font-size="10.00">OUT_SALT_SDF</text>
</g>
<!-- WORKFLOWINTERNALSOURCE_OUT_SALT_SDF&#45;&gt;SDfile_Writer_2 -->
<g id="edge24" class="edge"><title>WORKFLOWINTERNALSOURCE_OUT_SALT_SDF&#45;&gt;SDfile_Writer_2</title>
<path fill="none" stroke="black" d="M415.72,-380.191C406.708,-357.964 384.495,-305.876 359,-266 357.176,-263.147 355.097,-260.25 352.963,-257.466"/>
<polygon fill="black" stroke="black" points="355.605,-255.167 346.589,-249.602 350.167,-259.575 355.605,-255.167"/>
</g>
<!-- WORKFLOWINTERNALSOURCE_OUT_TIME_CSV -->
<g id="node22" class="node"><title>WORKFLOWINTERNALSOURCE_OUT_TIME_CSV</title>
<polygon fill="skyblue" stroke="black" points="562,-401.5 470,-401.5 470,-380.5 562,-380.5 562,-401.5"/>
<text text-anchor="middle" x="516" y="-388.5" font-family="Helvetica,sans-Serif" font-size="10.00">OUT_TIME_CSV</text>
</g>
<!-- WORKFLOWINTERNALSOURCE_OUT_TIME_CSV&#45;&gt;CSV_File_Writer -->
<g id="edge40" class="edge"><title>WORKFLOWINTERNALSOURCE_OUT_TIME_CSV&#45;&gt;CSV_File_Writer</title>
<path fill="none" stroke="black" d="M516,-380.176C516,-365.436 516,-338.222 516,-315 516,-315 516,-315 516,-163 516,-144.495 516,-123.455 516,-108.212"/>
<polygon fill="black" stroke="black" points="519.5,-107.824 516,-97.8236 512.5,-107.824 519.5,-107.824"/>
</g>
<!-- WORKFLOWINTERNALSOURCE_OUT_QSAR_CSV -->
<g id="node23" class="node"><title>WORKFLOWINTERNALSOURCE_OUT_QSAR_CSV</title>
<polygon fill="skyblue" stroke="black" points="664,-401.5 566,-401.5 566,-380.5 664,-380.5 664,-401.5"/>
<text text-anchor="middle" x="615" y="-388.5" font-family="Helvetica,sans-Serif" font-size="10.00">OUT_QSAR_CSV</text>
</g>
<!-- WORKFLOWINTERNALSOURCE_OUT_QSAR_CSV&#45;&gt;CSV_File_Writer_2 -->
<g id="edge44" class="edge"><title>WORKFLOWINTERNALSOURCE_OUT_QSAR_CSV&#45;&gt;CSV_File_Writer_2</title>
<path fill="none" stroke="black" d="M609.312,-380.262C602.215,-365.838 591,-339.214 591,-315 591,-315 591,-315 591,-87 591,-57.6555 562.956,-37.6934 537.504,-25.6189"/>
<polygon fill="black" stroke="black" points="538.86,-22.3916 528.301,-21.5245 536.015,-28.7872 538.86,-22.3916"/>
</g>
<!-- WORKFLOWINTERNALSINKCONTROL -->
<g id="node25" class="node"><title>WORKFLOWINTERNALSINKCONTROL</title>
<polygon fill="#66cd00" stroke="black" points="745,-384 752,-394.5 738,-394.5 745,-384"/>
</g>
</g>
</svg>
