<?xml version="1.0" encoding="UTF-8" standalone="no"?>
<!DOCTYPE svg PUBLIC "-//W3C//DTD SVG 1.1//EN"
 "http://www.w3.org/Graphics/SVG/1.1/DTD/svg11.dtd">
<!-- Generated by graphviz version 2.26.0 (20091210.2329)
 -->
<!-- Title: t2flow_graph Pages: 1 -->
<svg width="446pt" height="218pt"
 viewBox="0.00 0.00 446.00 218.00" xmlns="http://www.w3.org/2000/svg" xmlns:xlink="http://www.w3.org/1999/xlink">
<g id="graph1" class="graph" transform="scale(1 1) rotate(0) translate(4 214)">
<title>t2flow_graph</title>
<polygon fill="white" stroke="white" points="-4,5 -4,-214 443,-214 443,5 -4,5"/>
<g id="graph2" class="cluster"><title>cluster_sources</title>
<polygon fill="none" stroke="black" stroke-dasharray="1,5" points="314,-143 314,-202 430,-202 430,-143 314,-143"/>
<text text-anchor="middle" x="358" y="-189" font-family="Helvetica,sans-Serif" font-size="10.00">Workflow Inputs</text>
</g>
<g id="graph3" class="cluster"><title>cluster_sinks</title>
<polygon fill="none" stroke="black" stroke-dasharray="1,5" points="145,-8 145,-67 303,-67 303,-8 145,-8"/>
<text text-anchor="middle" x="192.5" y="-54" font-family="Helvetica,sans-Serif" font-size="10.00">Workflow Outputs</text>
</g>
<!-- Format_conversion -->
<g id="node1" class="node"><title>Format_conversion</title>
<polygon fill="white" stroke="black" points="264,-134.5 164,-134.5 164,-113.5 264,-113.5 264,-134.5"/>
<text text-anchor="middle" x="214" y="-121.5" font-family="Helvetica,sans-Serif" font-size="10.00">Format_conversion</text>
</g>
<!-- Extract_CDS_Information -->
<g id="node4" class="node"><title>Extract_CDS_Information</title>
<polygon fill="#deb887" stroke="black" points="223,-96.5 95,-96.5 95,-75.5 223,-75.5 223,-96.5"/>
<text text-anchor="middle" x="159" y="-83.5" font-family="Helvetica,sans-Serif" font-size="10.00">Extract_CDS_Information</text>
</g>
<!-- Format_conversion&#45;&gt;Extract_CDS_Information -->
<g id="edge12" class="edge"><title>Format_conversion&#45;&gt;Extract_CDS_Information</title>
<path fill="none" stroke="black" d="M198.679,-113.415C193.673,-109.956 187.992,-106.031 182.525,-102.254"/>
<polygon fill="black" stroke="black" points="184.455,-99.3332 174.238,-96.5284 180.476,-105.092 184.455,-99.3332"/>
</g>
<!-- Remove_Marks -->
<g id="node5" class="node"><title>Remove_Marks</title>
<polygon fill="#deb887" stroke="black" points="313,-96.5 227,-96.5 227,-75.5 313,-75.5 313,-96.5"/>
<text text-anchor="middle" x="270" y="-83.5" font-family="Helvetica,sans-Serif" font-size="10.00">Remove_Marks</text>
</g>
<!-- Format_conversion&#45;&gt;Remove_Marks -->
<g id="edge14" class="edge"><title>Format_conversion&#45;&gt;Remove_Marks</title>
<path fill="none" stroke="black" d="M229.599,-113.415C234.696,-109.956 240.481,-106.031 246.047,-102.254"/>
<polygon fill="black" stroke="black" points="248.175,-105.04 254.485,-96.5284 244.244,-99.2472 248.175,-105.04"/>
</g>
<!-- formatTableIn_value -->
<g id="node2" class="node"><title>formatTableIn_value</title>
<polygon fill="#b0c4de" stroke="black" points="104,-172.5 4.26326e-14,-172.5 0,-151.5 104,-151.5 104,-172.5"/>
<text text-anchor="middle" x="52" y="-159.5" font-family="Helvetica,sans-Serif" font-size="10.00">formatTableIn_value</text>
</g>
<!-- formatTableIn_value&#45;&gt;Format_conversion -->
<g id="edge4" class="edge"><title>formatTableIn_value&#45;&gt;Format_conversion</title>
<path fill="none" stroke="black" d="M80.5276,-151.401C89.2618,-148.406 98.953,-145.332 108,-143 122.636,-139.228 138.6,-135.943 153.592,-133.215"/>
<polygon fill="black" stroke="black" points="154.549,-136.6 163.788,-131.415 153.332,-129.707 154.549,-136.6"/>
</g>
<!-- formatTableOut_value -->
<g id="node3" class="node"><title>formatTableOut_value</title>
<polygon fill="#b0c4de" stroke="black" points="220,-172.5 108,-172.5 108,-151.5 220,-151.5 220,-172.5"/>
<text text-anchor="middle" x="164" y="-159.5" font-family="Helvetica,sans-Serif" font-size="10.00">formatTableOut_value</text>
</g>
<!-- formatTableOut_value&#45;&gt;Format_conversion -->
<g id="edge6" class="edge"><title>formatTableOut_value&#45;&gt;Format_conversion</title>
<path fill="none" stroke="black" d="M177.928,-151.415C182.262,-148.121 187.153,-144.404 191.902,-140.794"/>
<polygon fill="black" stroke="black" points="194.303,-143.366 200.147,-134.528 190.067,-137.793 194.303,-143.366"/>
</g>
<!-- WORKFLOWINTERNALSINK_CDS_info -->
<g id="node13" class="node"><title>WORKFLOWINTERNALSINK_CDS_info</title>
<polygon fill="#bcd2ee" stroke="black" points="211,-37.5 153,-37.5 153,-16.5 211,-16.5 211,-37.5"/>
<text text-anchor="middle" x="182" y="-24.5" font-family="Helvetica,sans-Serif" font-size="10.00">CDS_info</text>
</g>
<!-- Extract_CDS_Information&#45;&gt;WORKFLOWINTERNALSINK_CDS_info -->
<g id="edge18" class="edge"><title>Extract_CDS_Information&#45;&gt;WORKFLOWINTERNALSINK_CDS_info</title>
<path fill="none" stroke="black" d="M163.112,-75.452C166.148,-67.6628 170.377,-56.8166 174.063,-47.3606"/>
<polygon fill="black" stroke="black" points="177.397,-48.4442 177.768,-37.8559 170.875,-45.9017 177.397,-48.4442"/>
</g>
<!-- WORKFLOWINTERNALSINK_CDSTable -->
<g id="node12" class="node"><title>WORKFLOWINTERNALSINK_CDSTable</title>
<polygon fill="#bcd2ee" stroke="black" points="277,-37.5 215,-37.5 215,-16.5 277,-16.5 277,-37.5"/>
<text text-anchor="middle" x="246" y="-24.5" font-family="Helvetica,sans-Serif" font-size="10.00">CDSTable</text>
</g>
<!-- Remove_Marks&#45;&gt;WORKFLOWINTERNALSINK_CDSTable -->
<g id="edge16" class="edge"><title>Remove_Marks&#45;&gt;WORKFLOWINTERNALSINK_CDSTable</title>
<path fill="none" stroke="black" d="M265.709,-75.452C262.541,-67.6628 258.129,-56.8166 254.282,-47.3606"/>
<polygon fill="black" stroke="black" points="257.426,-45.8 250.416,-37.8559 250.942,-48.4376 257.426,-45.8"/>
</g>
<!-- New_Tmp_File -->
<g id="node6" class="node"><title>New_Tmp_File</title>
<polygon fill="#deb887" stroke="black" points="306,-172.5 224,-172.5 224,-151.5 306,-151.5 306,-172.5"/>
<text text-anchor="middle" x="265" y="-159.5" font-family="Helvetica,sans-Serif" font-size="10.00">New_Tmp_File</text>
</g>
<!-- New_Tmp_File&#45;&gt;Format_conversion -->
<g id="edge8" class="edge"><title>New_Tmp_File&#45;&gt;Format_conversion</title>
<path fill="none" stroke="black" d="M250.794,-151.415C246.262,-148.038 241.134,-144.218 236.177,-140.524"/>
<polygon fill="black" stroke="black" points="238.24,-137.697 228.13,-134.528 234.058,-143.31 238.24,-137.697"/>
</g>
<!-- WORKFLOWINTERNALSOURCECONTROL -->
<g id="node8" class="node"><title>WORKFLOWINTERNALSOURCECONTROL</title>
<polygon fill="#ff4040" stroke="black" points="415,-169 408,-158.5 422,-158.5 415,-169"/>
</g>
<!-- WORKFLOWINTERNALSOURCE_nameCSV_File -->
<g id="node9" class="node"><title>WORKFLOWINTERNALSOURCE_nameCSV_File</title>
<polygon fill="skyblue" stroke="black" points="404,-172.5 322,-172.5 322,-151.5 404,-151.5 404,-172.5"/>
<text text-anchor="middle" x="363" y="-159.5" font-family="Helvetica,sans-Serif" font-size="10.00">nameCSV_File</text>
</g>
<!-- WORKFLOWINTERNALSOURCE_nameCSV_File&#45;&gt;Format_conversion -->
<g id="edge10" class="edge"><title>WORKFLOWINTERNALSOURCE_nameCSV_File&#45;&gt;Format_conversion</title>
<path fill="none" stroke="black" d="M340.462,-151.346C333.39,-148.313 325.476,-145.232 318,-143 303.996,-138.819 288.642,-135.401 274.133,-132.676"/>
<polygon fill="black" stroke="black" points="274.712,-129.224 264.25,-130.899 273.473,-136.113 274.712,-129.224"/>
</g>
<!-- WORKFLOWINTERNALSINKCONTROL -->
<g id="node11" class="node"><title>WORKFLOWINTERNALSINKCONTROL</title>
<polygon fill="#66cd00" stroke="black" points="288,-20 295,-30.5 281,-30.5 288,-20"/>
</g>
</g>
</svg>
