<?xml version="1.0" encoding="UTF-8" standalone="no"?>
<!DOCTYPE svg PUBLIC "-//W3C//DTD SVG 1.1//EN"
 "http://www.w3.org/Graphics/SVG/1.1/DTD/svg11.dtd">
<!-- Generated by graphviz version 2.26.0 (20091210.2329)
 -->
<!-- Title: t2flow_graph Pages: 1 -->
<svg width="480pt" height="290pt"
 viewBox="0.00 0.00 480.00 290.00" xmlns="http://www.w3.org/2000/svg" xmlns:xlink="http://www.w3.org/1999/xlink">
<g id="graph1" class="graph" transform="scale(1 1) rotate(0) translate(4 286)">
<title>t2flow_graph</title>
<polygon fill="white" stroke="white" points="-4,5 -4,-286 477,-286 477,5 -4,5"/>
<g id="graph2" class="cluster"><title>cluster_sources</title>
<polygon fill="none" stroke="black" stroke-dasharray="1,5" points="376,-223 376,-274 464,-274 464,-223 376,-223"/>
<text text-anchor="middle" x="420" y="-261" font-family="Helvetica,sans-Serif" font-size="10.00">Workflow Inputs</text>
</g>
<g id="graph3" class="cluster"><title>cluster_sinks</title>
<polygon fill="none" stroke="black" stroke-dasharray="1,5" points="92,-8 92,-67 348,-67 348,-8 92,-8"/>
<text text-anchor="middle" x="139.5" y="-54" font-family="Helvetica,sans-Serif" font-size="10.00">Workflow Outputs</text>
</g>
<!-- query_seq -->
<g id="node1" class="node"><title>query_seq</title>
<polygon fill="#b0c4de" stroke="black" points="252,-248.5 190,-248.5 190,-227.5 252,-227.5 252,-248.5"/>
<text text-anchor="middle" x="221" y="-235.5" font-family="Helvetica,sans-Serif" font-size="10.00">query_seq</text>
</g>
<!-- blast_ddbj -->
<g id="node3" class="node"><title>blast_ddbj</title>
<polygon fill="#a2cd5a" stroke="black" points="314,-210.5 254,-210.5 254,-189.5 314,-189.5 314,-210.5"/>
<text text-anchor="middle" x="284" y="-197.5" font-family="Helvetica,sans-Serif" font-size="10.00">blast_ddbj</text>
</g>
<!-- query_seq&#45;&gt;blast_ddbj -->
<g id="edge8" class="edge"><title>query_seq&#45;&gt;blast_ddbj</title>
<path fill="none" stroke="black" d="M238.549,-227.415C244.556,-223.791 251.412,-219.656 257.946,-215.715"/>
<polygon fill="black" stroke="black" points="259.79,-218.69 266.545,-210.528 256.174,-212.696 259.79,-218.69"/>
</g>
<!-- gi_number -->
<g id="node2" class="node"><title>gi_number</title>
<polygon fill="#b0c4de" stroke="black" points="249,-210.5 187,-210.5 187,-189.5 249,-189.5 249,-210.5"/>
<text text-anchor="middle" x="218" y="-197.5" font-family="Helvetica,sans-Serif" font-size="10.00">gi_number</text>
</g>
<!-- blastsimplifier -->
<g id="node8" class="node"><title>blastsimplifier</title>
<polygon fill="#fafad2" stroke="black" points="256,-172.5 180,-172.5 180,-151.5 256,-151.5 256,-172.5"/>
<text text-anchor="middle" x="218" y="-159.5" font-family="Helvetica,sans-Serif" font-size="10.00">blastsimplifier</text>
</g>
<!-- gi_number&#45;&gt;blastsimplifier -->
<g id="edge18" class="edge"><title>gi_number&#45;&gt;blastsimplifier</title>
<path fill="none" stroke="black" d="M218,-189.212C218,-187.19 218,-185.013 218,-182.804"/>
<polygon fill="black" stroke="black" points="221.5,-182.683 218,-172.683 214.5,-182.683 221.5,-182.683"/>
</g>
<!-- blast_ddbj&#45;&gt;blastsimplifier -->
<g id="edge16" class="edge"><title>blast_ddbj&#45;&gt;blastsimplifier</title>
<path fill="none" stroke="black" d="M265.615,-189.415C259.322,-185.791 252.14,-181.656 245.295,-177.715"/>
<polygon fill="black" stroke="black" points="246.699,-174.485 236.286,-172.528 243.206,-180.551 246.699,-174.485"/>
</g>
<!-- WORKFLOWINTERNALSINK_blast_report -->
<g id="node14" class="node"><title>WORKFLOWINTERNALSINK_blast_report</title>
<polygon fill="#bcd2ee" stroke="black" points="322,-37.5 254,-37.5 254,-16.5 322,-16.5 322,-37.5"/>
<text text-anchor="middle" x="288" y="-24.5" font-family="Helvetica,sans-Serif" font-size="10.00">blast_report</text>
</g>
<!-- blast_ddbj&#45;&gt;WORKFLOWINTERNALSINK_blast_report -->
<g id="edge20" class="edge"><title>blast_ddbj&#45;&gt;WORKFLOWINTERNALSINK_blast_report</title>
<path fill="none" stroke="black" d="M284.244,-189.438C284.89,-161.515 286.651,-85.3363 287.513,-48.0808"/>
<polygon fill="black" stroke="black" points="291.017,-47.9432 287.749,-37.8649 284.018,-47.7813 291.017,-47.9432"/>
</g>
<!-- database -->
<g id="node4" class="node"><title>database</title>
<polygon fill="#b0c4de" stroke="black" points="312,-248.5 256,-248.5 256,-227.5 312,-227.5 312,-248.5"/>
<text text-anchor="middle" x="284" y="-235.5" font-family="Helvetica,sans-Serif" font-size="10.00">database</text>
</g>
<!-- database&#45;&gt;blast_ddbj -->
<g id="edge6" class="edge"><title>database&#45;&gt;blast_ddbj</title>
<path fill="none" stroke="black" d="M284,-227.212C284,-225.19 284,-223.013 284,-220.804"/>
<polygon fill="black" stroke="black" points="287.5,-220.683 284,-210.683 280.5,-220.683 287.5,-220.683"/>
</g>
<!-- program -->
<g id="node5" class="node"><title>program</title>
<polygon fill="#b0c4de" stroke="black" points="368,-248.5 316,-248.5 316,-227.5 368,-227.5 368,-248.5"/>
<text text-anchor="middle" x="342" y="-235.5" font-family="Helvetica,sans-Serif" font-size="10.00">program</text>
</g>
<!-- program&#45;&gt;blast_ddbj -->
<g id="edge4" class="edge"><title>program&#45;&gt;blast_ddbj</title>
<path fill="none" stroke="black" d="M325.844,-227.415C320.565,-223.956 314.574,-220.031 308.809,-216.254"/>
<polygon fill="black" stroke="black" points="310.352,-213.081 300.07,-210.528 306.516,-218.936 310.352,-213.081"/>
</g>
<!-- split_by_newline -->
<g id="node6" class="node"><title>split_by_newline</title>
<polygon fill="#d15fee" stroke="black" points="173,-134.5 85,-134.5 85,-113.5 173,-113.5 173,-134.5"/>
<text text-anchor="middle" x="129" y="-121.5" font-family="Helvetica,sans-Serif" font-size="10.00">split_by_newline</text>
</g>
<!-- Get_Protein_FASTA -->
<g id="node7" class="node"><title>Get_Protein_FASTA</title>
<polygon fill="#d15fee" stroke="black" points="182,-96.5 76,-96.5 76,-75.5 182,-75.5 182,-96.5"/>
<text text-anchor="middle" x="129" y="-83.5" font-family="Helvetica,sans-Serif" font-size="10.00">Get_Protein_FASTA</text>
</g>
<!-- split_by_newline&#45;&gt;Get_Protein_FASTA -->
<g id="edge14" class="edge"><title>split_by_newline&#45;&gt;Get_Protein_FASTA</title>
<path fill="none" stroke="black" d="M129,-113.212C129,-111.19 129,-109.013 129,-106.804"/>
<polygon fill="black" stroke="black" points="132.5,-106.683 129,-96.6831 125.5,-106.683 132.5,-106.683"/>
</g>
<!-- WORKFLOWINTERNALSINK_sequence -->
<g id="node16" class="node"><title>WORKFLOWINTERNALSINK_sequence</title>
<polygon fill="#bcd2ee" stroke="black" points="158,-37.5 100,-37.5 100,-16.5 158,-16.5 158,-37.5"/>
<text text-anchor="middle" x="129" y="-24.5" font-family="Helvetica,sans-Serif" font-size="10.00">sequence</text>
</g>
<!-- Get_Protein_FASTA&#45;&gt;WORKFLOWINTERNALSINK_sequence -->
<g id="edge24" class="edge"><title>Get_Protein_FASTA&#45;&gt;WORKFLOWINTERNALSINK_sequence</title>
<path fill="none" stroke="black" d="M129,-75.452C129,-67.8285 129,-57.2768 129,-47.966"/>
<polygon fill="black" stroke="black" points="132.5,-47.8558 129,-37.8559 125.5,-47.8559 132.5,-47.8558"/>
</g>
<!-- blastsimplifier&#45;&gt;split_by_newline -->
<g id="edge12" class="edge"><title>blastsimplifier&#45;&gt;split_by_newline</title>
<path fill="none" stroke="black" d="M193.209,-151.415C183.854,-147.421 173.043,-142.805 162.991,-138.513"/>
<polygon fill="black" stroke="black" points="164.23,-135.236 153.659,-134.528 161.481,-141.674 164.23,-135.236"/>
</g>
<!-- WORKFLOWINTERNALSINK_simplified_report -->
<g id="node15" class="node"><title>WORKFLOWINTERNALSINK_simplified_report</title>
<polygon fill="#bcd2ee" stroke="black" points="250,-37.5 162,-37.5 162,-16.5 250,-16.5 250,-37.5"/>
<text text-anchor="middle" x="206" y="-24.5" font-family="Helvetica,sans-Serif" font-size="10.00">simplified_report</text>
</g>
<!-- blastsimplifier&#45;&gt;WORKFLOWINTERNALSINK_simplified_report -->
<g id="edge22" class="edge"><title>blastsimplifier&#45;&gt;WORKFLOWINTERNALSINK_simplified_report</title>
<path fill="none" stroke="black" d="M217.058,-151.407C215.078,-129.128 210.451,-77.0746 207.853,-47.8516"/>
<polygon fill="black" stroke="black" points="211.309,-47.1948 206.937,-37.544 204.336,-47.8147 211.309,-47.1948"/>
</g>
<!-- split_by_newline_regex_defaultValue -->
<g id="node9" class="node"><title>split_by_newline_regex_defaultValue</title>
<polygon fill="#b0c4de" stroke="black" points="176,-172.5 8.52651e-14,-172.5 0,-151.5 176,-151.5 176,-172.5"/>
<text text-anchor="middle" x="88" y="-159.5" font-family="Helvetica,sans-Serif" font-size="10.00">split_by_newline_regex_defaultValue</text>
</g>
<!-- split_by_newline_regex_defaultValue&#45;&gt;split_by_newline -->
<g id="edge10" class="edge"><title>split_by_newline_regex_defaultValue&#45;&gt;split_by_newline</title>
<path fill="none" stroke="black" d="M99.6393,-151.212C102.869,-148.219 106.463,-144.888 109.997,-141.613"/>
<polygon fill="black" stroke="black" points="112.518,-144.048 117.474,-134.683 107.76,-138.914 112.518,-144.048"/>
</g>
<!-- WORKFLOWINTERNALSOURCECONTROL -->
<g id="node11" class="node"><title>WORKFLOWINTERNALSOURCECONTROL</title>
<polygon fill="#ff4040" stroke="black" points="420,-245 413,-234.5 427,-234.5 420,-245"/>
</g>
<!-- WORKFLOWINTERNALSINKCONTROL -->
<g id="node13" class="node"><title>WORKFLOWINTERNALSINKCONTROL</title>
<polygon fill="#66cd00" stroke="black" points="333,-20 340,-30.5 326,-30.5 333,-20"/>
</g>
</g>
</svg>
