<?xml version="1.0" encoding="UTF-8" standalone="no"?>
<!DOCTYPE svg PUBLIC "-//W3C//DTD SVG 1.1//EN"
 "http://www.w3.org/Graphics/SVG/1.1/DTD/svg11.dtd">
<!-- Generated by graphviz version 2.26.0 (20091210.2329)
 -->
<!-- Title: t2flow_graph Pages: 1 -->
<svg width="486pt" height="218pt"
 viewBox="0.00 0.00 486.00 218.00" xmlns="http://www.w3.org/2000/svg" xmlns:xlink="http://www.w3.org/1999/xlink">
<g id="graph1" class="graph" transform="scale(1 1) rotate(0) translate(4 214)">
<title>t2flow_graph</title>
<polygon fill="white" stroke="white" points="-4,5 -4,-214 483,-214 483,5 -4,5"/>
<g id="graph2" class="cluster"><title>cluster_sources</title>
<polygon fill="none" stroke="black" stroke-dasharray="1,5" points="8,-143 8,-202 470,-202 470,-143 8,-143"/>
<text text-anchor="middle" x="52" y="-189" font-family="Helvetica,sans-Serif" font-size="10.00">Workflow Inputs</text>
</g>
<g id="graph3" class="cluster"><title>cluster_sinks</title>
<polygon fill="none" stroke="black" stroke-dasharray="1,5" points="128,-8 128,-67 330,-67 330,-8 128,-8"/>
<text text-anchor="middle" x="175.5" y="-54" font-family="Helvetica,sans-Serif" font-size="10.00">Workflow Outputs</text>
</g>
<!-- Create_galfit_script -->
<g id="node1" class="node"><title>Create_galfit_script</title>
<polygon fill="#deb887" stroke="black" points="270,-134.5 170,-134.5 170,-113.5 270,-113.5 270,-134.5"/>
<text text-anchor="middle" x="220" y="-121.5" font-family="Helvetica,sans-Serif" font-size="10.00">Create_galfit_script</text>
</g>
<!-- RunGalfit -->
<g id="node2" class="node"><title>RunGalfit</title>
<polygon fill="#f28c55" stroke="black" points="249,-96.5 191,-96.5 191,-75.5 249,-75.5 249,-96.5"/>
<text text-anchor="middle" x="220" y="-83.5" font-family="Helvetica,sans-Serif" font-size="10.00">RunGalfit</text>
</g>
<!-- Create_galfit_script&#45;&gt;RunGalfit -->
<g id="edge10" class="edge"><title>Create_galfit_script&#45;&gt;RunGalfit</title>
<path fill="none" stroke="black" d="M220,-113.212C220,-111.19 220,-109.013 220,-106.804"/>
<polygon fill="black" stroke="black" points="223.5,-106.683 220,-96.6831 216.5,-106.683 223.5,-106.683"/>
</g>
<!-- WORKFLOWINTERNALSINK_Tool_STDOUT -->
<g id="node11" class="node"><title>WORKFLOWINTERNALSINK_Tool_STDOUT</title>
<polygon fill="#bcd2ee" stroke="black" points="304,-37.5 222,-37.5 222,-16.5 304,-16.5 304,-37.5"/>
<text text-anchor="middle" x="263" y="-24.5" font-family="Helvetica,sans-Serif" font-size="10.00">Tool_STDOUT</text>
</g>
<!-- RunGalfit&#45;&gt;WORKFLOWINTERNALSINK_Tool_STDOUT -->
<g id="edge12" class="edge"><title>RunGalfit&#45;&gt;WORKFLOWINTERNALSINK_Tool_STDOUT</title>
<path fill="none" stroke="black" d="M227.688,-75.452C233.606,-67.3313 241.946,-55.888 249.035,-46.1613"/>
<polygon fill="black" stroke="black" points="252.027,-47.9988 255.088,-37.8559 246.37,-43.8759 252.027,-47.9988"/>
</g>
<!-- WORKFLOWINTERNALSINK_Tool_STDERR -->
<g id="node12" class="node"><title>WORKFLOWINTERNALSINK_Tool_STDERR</title>
<polygon fill="#bcd2ee" stroke="black" points="218,-37.5 136,-37.5 136,-16.5 218,-16.5 218,-37.5"/>
<text text-anchor="middle" x="177" y="-24.5" font-family="Helvetica,sans-Serif" font-size="10.00">Tool_STDERR</text>
</g>
<!-- RunGalfit&#45;&gt;WORKFLOWINTERNALSINK_Tool_STDERR -->
<g id="edge14" class="edge"><title>RunGalfit&#45;&gt;WORKFLOWINTERNALSINK_Tool_STDERR</title>
<path fill="none" stroke="black" d="M212.312,-75.452C206.394,-67.3313 198.054,-55.888 190.965,-46.1613"/>
<polygon fill="black" stroke="black" points="193.63,-43.8759 184.912,-37.8559 187.973,-47.9988 193.63,-43.8759"/>
</g>
<!-- WORKFLOWINTERNALSOURCECONTROL -->
<g id="node4" class="node"><title>WORKFLOWINTERNALSOURCECONTROL</title>
<polygon fill="#ff4040" stroke="black" points="455,-169 448,-158.5 462,-158.5 455,-169"/>
</g>
<!-- WORKFLOWINTERNALSOURCE_ColumnNameWithConfigFile -->
<g id="node5" class="node"><title>WORKFLOWINTERNALSOURCE_ColumnNameWithConfigFile</title>
<polygon fill="skyblue" stroke="black" points="444,-172.5 304,-172.5 304,-151.5 444,-151.5 444,-172.5"/>
<text text-anchor="middle" x="374" y="-159.5" font-family="Helvetica,sans-Serif" font-size="10.00">ColumnNameWithConfigFile</text>
</g>
<!-- WORKFLOWINTERNALSOURCE_ColumnNameWithConfigFile&#45;&gt;Create_galfit_script -->
<g id="edge4" class="edge"><title>WORKFLOWINTERNALSOURCE_ColumnNameWithConfigFile&#45;&gt;Create_galfit_script</title>
<path fill="none" stroke="black" d="M333.321,-151.414C322.502,-148.637 310.816,-145.673 300,-143 291.832,-140.982 283.185,-138.886 274.712,-136.855"/>
<polygon fill="black" stroke="black" points="275.424,-133.426 264.885,-134.509 273.799,-140.235 275.424,-133.426"/>
</g>
<!-- WORKFLOWINTERNALSOURCE_ColumnNameWithNewConfigFile -->
<g id="node6" class="node"><title>WORKFLOWINTERNALSOURCE_ColumnNameWithNewConfigFile</title>
<polygon fill="skyblue" stroke="black" points="300,-172.5 140,-172.5 140,-151.5 300,-151.5 300,-172.5"/>
<text text-anchor="middle" x="220" y="-159.5" font-family="Helvetica,sans-Serif" font-size="10.00">ColumnNameWithNewConfigFile</text>
</g>
<!-- WORKFLOWINTERNALSOURCE_ColumnNameWithNewConfigFile&#45;&gt;Create_galfit_script -->
<g id="edge6" class="edge"><title>WORKFLOWINTERNALSOURCE_ColumnNameWithNewConfigFile&#45;&gt;Create_galfit_script</title>
<path fill="none" stroke="black" d="M220,-151.212C220,-149.19 220,-147.013 220,-144.804"/>
<polygon fill="black" stroke="black" points="223.5,-144.683 220,-134.683 216.5,-144.683 223.5,-144.683"/>
</g>
<!-- WORKFLOWINTERNALSOURCE_votable -->
<g id="node7" class="node"><title>WORKFLOWINTERNALSOURCE_votable</title>
<polygon fill="skyblue" stroke="black" points="136,-172.5 88,-172.5 88,-151.5 136,-151.5 136,-172.5"/>
<text text-anchor="middle" x="112" y="-159.5" font-family="Helvetica,sans-Serif" font-size="10.00">votable</text>
</g>
<!-- WORKFLOWINTERNALSOURCE_votable&#45;&gt;Create_galfit_script -->
<g id="edge8" class="edge"><title>WORKFLOWINTERNALSOURCE_votable&#45;&gt;Create_galfit_script</title>
<path fill="none" stroke="black" d="M125.375,-151.477C129.828,-148.378 134.946,-145.225 140,-143 146.233,-140.256 152.92,-137.875 159.677,-135.817"/>
<polygon fill="black" stroke="black" points="160.904,-139.108 169.581,-133.028 159.006,-132.37 160.904,-139.108"/>
</g>
<!-- WORKFLOWINTERNALSOURCE_Precedence -->
<g id="node8" class="node"><title>WORKFLOWINTERNALSOURCE_Precedence</title>
<polygon fill="skyblue" stroke="black" points="84,-172.5 16,-172.5 16,-151.5 84,-151.5 84,-172.5"/>
<text text-anchor="middle" x="50" y="-159.5" font-family="Helvetica,sans-Serif" font-size="10.00">Precedence</text>
</g>
<!-- WORKFLOWINTERNALSINKCONTROL -->
<g id="node10" class="node"><title>WORKFLOWINTERNALSINKCONTROL</title>
<polygon fill="#66cd00" stroke="black" points="315,-20 322,-30.5 308,-30.5 315,-20"/>
</g>
</g>
</svg>
