<?xml version="1.0" encoding="UTF-8" standalone="no"?>
<!DOCTYPE svg PUBLIC "-//W3C//DTD SVG 1.1//EN"
 "http://www.w3.org/Graphics/SVG/1.1/DTD/svg11.dtd">
<!-- Generated by graphviz version 2.26.0 (20091210.2329)
 -->
<!-- Title: t2flow_graph Pages: 1 -->
<svg width="558pt" height="404pt"
 viewBox="0.00 0.00 558.00 404.00" xmlns="http://www.w3.org/2000/svg" xmlns:xlink="http://www.w3.org/1999/xlink">
<g id="graph1" class="graph" transform="scale(1 1) rotate(0) translate(4 400)">
<title>t2flow_graph</title>
<polygon fill="white" stroke="white" points="-4,5 -4,-400 555,-400 555,5 -4,5"/>
<g id="graph2" class="cluster"><title>cluster_sources</title>
<polygon fill="none" stroke="black" stroke-dasharray="1,5" points="414,-337 414,-388 502,-388 502,-337 414,-337"/>
<text text-anchor="middle" x="458" y="-375" font-family="Helvetica,sans-Serif" font-size="10.00">Workflow Inputs</text>
</g>
<g id="graph3" class="cluster"><title>cluster_sinks</title>
<polygon fill="none" stroke="black" stroke-dasharray="1,5" points="116,-8 116,-67 542,-67 542,-8 116,-8"/>
<text text-anchor="middle" x="163.5" y="-54" font-family="Helvetica,sans-Serif" font-size="10.00">Workflow Outputs</text>
</g>
<!-- seqret -->
<g id="node1" class="node"><title>seqret</title>
<polygon fill="#fafad2" stroke="black" points="175,-210.5 131,-210.5 131,-189.5 175,-189.5 175,-210.5"/>
<text text-anchor="middle" x="153" y="-197.5" font-family="Helvetica,sans-Serif" font-size="10.00">seqret</text>
</g>
<!-- emma -->
<g id="node2" class="node"><title>emma</title>
<polygon fill="#fafad2" stroke="black" points="175,-172.5 131,-172.5 131,-151.5 175,-151.5 175,-172.5"/>
<text text-anchor="middle" x="153" y="-159.5" font-family="Helvetica,sans-Serif" font-size="10.00">emma</text>
</g>
<!-- seqret&#45;&gt;emma -->
<g id="edge6" class="edge"><title>seqret&#45;&gt;emma</title>
<path fill="none" stroke="black" d="M153,-189.212C153,-187.19 153,-185.013 153,-182.804"/>
<polygon fill="black" stroke="black" points="156.5,-182.683 153,-172.683 149.5,-182.683 156.5,-182.683"/>
</g>
<!-- plot -->
<g id="node3" class="node"><title>plot</title>
<polygon fill="#fafad2" stroke="black" points="169,-134.5 137,-134.5 137,-113.5 169,-113.5 169,-134.5"/>
<text text-anchor="middle" x="153" y="-121.5" font-family="Helvetica,sans-Serif" font-size="10.00">plot</text>
</g>
<!-- emma&#45;&gt;plot -->
<g id="edge8" class="edge"><title>emma&#45;&gt;plot</title>
<path fill="none" stroke="black" d="M153,-151.212C153,-149.19 153,-147.013 153,-144.804"/>
<polygon fill="black" stroke="black" points="156.5,-144.683 153,-134.683 149.5,-144.683 156.5,-144.683"/>
</g>
<!-- FlattenImageList -->
<g id="node10" class="node"><title>FlattenImageList</title>
<polygon fill="#d15fee" stroke="black" points="197,-96.5 109,-96.5 109,-75.5 197,-75.5 197,-96.5"/>
<text text-anchor="middle" x="153" y="-83.5" font-family="Helvetica,sans-Serif" font-size="10.00">FlattenImageList</text>
</g>
<!-- plot&#45;&gt;FlattenImageList -->
<g id="edge28" class="edge"><title>plot&#45;&gt;FlattenImageList</title>
<path fill="none" stroke="black" d="M153,-113.212C153,-111.19 153,-109.013 153,-106.804"/>
<polygon fill="black" stroke="black" points="156.5,-106.683 153,-96.6831 149.5,-106.683 156.5,-106.683"/>
</g>
<!-- GetUniqueHomolog -->
<g id="node4" class="node"><title>GetUniqueHomolog</title>
<polygon fill="#deb887" stroke="black" points="360,-324.5 258,-324.5 258,-303.5 360,-303.5 360,-324.5"/>
<text text-anchor="middle" x="309" y="-311.5" font-family="Helvetica,sans-Serif" font-size="10.00">GetUniqueHomolog</text>
</g>
<!-- getMMusSequence -->
<g id="node5" class="node"><title>getMMusSequence</title>
<polygon fill="#d1eeee" stroke="black" points="100,-286.5 3.55271e-14,-286.5 0,-265.5 100,-265.5 100,-286.5"/>
<text text-anchor="middle" x="50" y="-273.5" font-family="Helvetica,sans-Serif" font-size="10.00">getMMusSequence</text>
</g>
<!-- GetUniqueHomolog&#45;&gt;getMMusSequence -->
<g id="edge16" class="edge"><title>GetUniqueHomolog&#45;&gt;getMMusSequence</title>
<path fill="none" stroke="black" d="M257.883,-308.275C218.756,-303.665 163.201,-296.632 110.152,-287.994"/>
<polygon fill="black" stroke="black" points="110.717,-284.54 100.281,-286.362 109.576,-291.446 110.717,-284.54"/>
</g>
<!-- getHSapSequence -->
<g id="node6" class="node"><title>getHSapSequence</title>
<polygon fill="#d1eeee" stroke="black" points="202,-286.5 104,-286.5 104,-265.5 202,-265.5 202,-286.5"/>
<text text-anchor="middle" x="153" y="-273.5" font-family="Helvetica,sans-Serif" font-size="10.00">getHSapSequence</text>
</g>
<!-- GetUniqueHomolog&#45;&gt;getHSapSequence -->
<g id="edge18" class="edge"><title>GetUniqueHomolog&#45;&gt;getHSapSequence</title>
<path fill="none" stroke="black" d="M265.545,-303.415C247.12,-298.927 225.472,-293.653 206.109,-288.937"/>
<polygon fill="black" stroke="black" points="206.766,-285.495 196.222,-286.528 205.109,-292.296 206.766,-285.495"/>
</g>
<!-- getRNorSequence -->
<g id="node7" class="node"><title>getRNorSequence</title>
<polygon fill="#d1eeee" stroke="black" points="302,-286.5 206,-286.5 206,-265.5 302,-265.5 302,-286.5"/>
<text text-anchor="middle" x="254" y="-273.5" font-family="Helvetica,sans-Serif" font-size="10.00">getRNorSequence</text>
</g>
<!-- GetUniqueHomolog&#45;&gt;getRNorSequence -->
<g id="edge20" class="edge"><title>GetUniqueHomolog&#45;&gt;getRNorSequence</title>
<path fill="none" stroke="black" d="M293.679,-303.415C288.673,-299.956 282.992,-296.031 277.525,-292.254"/>
<polygon fill="black" stroke="black" points="279.455,-289.333 269.238,-286.528 275.476,-295.092 279.455,-289.333"/>
</g>
<!-- WORKFLOWINTERNALSINK_HSapIDs -->
<g id="node17" class="node"><title>WORKFLOWINTERNALSINK_HSapIDs</title>
<polygon fill="#bcd2ee" stroke="black" points="244,-37.5 188,-37.5 188,-16.5 244,-16.5 244,-37.5"/>
<text text-anchor="middle" x="216" y="-24.5" font-family="Helvetica,sans-Serif" font-size="10.00">HSapIDs</text>
</g>
<!-- GetUniqueHomolog&#45;&gt;WORKFLOWINTERNALSINK_HSapIDs -->
<g id="edge34" class="edge"><title>GetUniqueHomolog&#45;&gt;WORKFLOWINTERNALSINK_HSapIDs</title>
<path fill="none" stroke="black" d="M309,-303.176C309,-288.436 309,-261.222 309,-238 309,-238 309,-238 309,-124 309,-86.8949 273.211,-94.2249 248,-67 241.797,-60.3015 235.423,-52.5432 230.013,-45.6521"/>
<polygon fill="black" stroke="black" points="232.635,-43.3203 223.761,-37.5323 227.089,-47.5909 232.635,-43.3203"/>
</g>
<!-- WORKFLOWINTERNALSINK_MMusIDs -->
<g id="node18" class="node"><title>WORKFLOWINTERNALSINK_MMusIDs</title>
<polygon fill="#bcd2ee" stroke="black" points="306,-37.5 248,-37.5 248,-16.5 306,-16.5 306,-37.5"/>
<text text-anchor="middle" x="277" y="-24.5" font-family="Helvetica,sans-Serif" font-size="10.00">MMusIDs</text>
</g>
<!-- GetUniqueHomolog&#45;&gt;WORKFLOWINTERNALSINK_MMusIDs -->
<g id="edge36" class="edge"><title>GetUniqueHomolog&#45;&gt;WORKFLOWINTERNALSINK_MMusIDs</title>
<path fill="none" stroke="black" d="M311.319,-303.235C314.273,-288.561 319,-261.422 319,-238 319,-238 319,-238 319,-124 319,-102.001 320.282,-95.3805 312,-75 307.632,-64.2509 300.344,-53.6796 293.546,-45.2056"/>
<polygon fill="black" stroke="black" points="296.165,-42.8818 287.037,-37.5018 290.817,-47.3994 296.165,-42.8818"/>
</g>
<!-- WORKFLOWINTERNALSINK_RNorIDs -->
<g id="node19" class="node"><title>WORKFLOWINTERNALSINK_RNorIDs</title>
<polygon fill="#bcd2ee" stroke="black" points="366,-37.5 310,-37.5 310,-16.5 366,-16.5 366,-37.5"/>
<text text-anchor="middle" x="338" y="-24.5" font-family="Helvetica,sans-Serif" font-size="10.00">RNorIDs</text>
</g>
<!-- GetUniqueHomolog&#45;&gt;WORKFLOWINTERNALSINK_RNorIDs -->
<g id="edge38" class="edge"><title>GetUniqueHomolog&#45;&gt;WORKFLOWINTERNALSINK_RNorIDs</title>
<path fill="none" stroke="black" d="M315.103,-303.273C317.604,-298.439 320.304,-292.575 322,-287 328.402,-265.953 329,-259.999 329,-238 329,-238 329,-238 329,-124 329,-97.5807 332.351,-67.2862 334.964,-47.6828"/>
<polygon fill="black" stroke="black" points="338.436,-48.1225 336.349,-37.7353 331.503,-47.1567 338.436,-48.1225"/>
</g>
<!-- CreateFasta -->
<g id="node9" class="node"><title>CreateFasta</title>
<polygon fill="#deb887" stroke="black" points="188,-248.5 118,-248.5 118,-227.5 188,-227.5 188,-248.5"/>
<text text-anchor="middle" x="153" y="-235.5" font-family="Helvetica,sans-Serif" font-size="10.00">CreateFasta</text>
</g>
<!-- getMMusSequence&#45;&gt;CreateFasta -->
<g id="edge24" class="edge"><title>getMMusSequence&#45;&gt;CreateFasta</title>
<path fill="none" stroke="black" d="M78.6912,-265.415C89.8522,-261.297 102.804,-256.519 114.739,-252.116"/>
<polygon fill="black" stroke="black" points="116.292,-255.273 124.463,-248.528 113.869,-248.706 116.292,-255.273"/>
</g>
<!-- getHSapSequence&#45;&gt;CreateFasta -->
<g id="edge26" class="edge"><title>getHSapSequence&#45;&gt;CreateFasta</title>
<path fill="none" stroke="black" d="M153,-265.212C153,-263.19 153,-261.013 153,-258.804"/>
<polygon fill="black" stroke="black" points="156.5,-258.683 153,-248.683 149.5,-258.683 156.5,-258.683"/>
</g>
<!-- getRNorSequence&#45;&gt;CreateFasta -->
<g id="edge22" class="edge"><title>getRNorSequence&#45;&gt;CreateFasta</title>
<path fill="none" stroke="black" d="M225.866,-265.415C214.922,-261.297 202.221,-256.519 190.518,-252.116"/>
<polygon fill="black" stroke="black" points="191.575,-248.774 180.983,-248.528 189.11,-255.326 191.575,-248.774"/>
</g>
<!-- hsapiensGeneEnsembl -->
<g id="node8" class="node"><title>hsapiensGeneEnsembl</title>
<polygon fill="#d1eeee" stroke="black" points="367,-362.5 251,-362.5 251,-341.5 367,-341.5 367,-362.5"/>
<text text-anchor="middle" x="309" y="-349.5" font-family="Helvetica,sans-Serif" font-size="10.00">hsapiensGeneEnsembl</text>
</g>
<!-- hsapiensGeneEnsembl&#45;&gt;GetUniqueHomolog -->
<g id="edge10" class="edge"><title>hsapiensGeneEnsembl&#45;&gt;GetUniqueHomolog</title>
<path fill="none" stroke="black" d="M306.264,-341.212C306.126,-339.19 306.042,-337.013 306.012,-334.804"/>
<polygon fill="black" stroke="black" points="309.514,-334.77 306.272,-324.683 302.516,-334.59 309.514,-334.77"/>
</g>
<!-- hsapiensGeneEnsembl&#45;&gt;GetUniqueHomolog -->
<g id="edge12" class="edge"><title>hsapiensGeneEnsembl&#45;&gt;GetUniqueHomolog</title>
<path fill="none" stroke="black" d="M309,-341.212C309,-339.19 309,-337.013 309,-334.804"/>
<polygon fill="black" stroke="black" points="312.5,-334.683 309,-324.683 305.5,-334.683 312.5,-334.683"/>
</g>
<!-- hsapiensGeneEnsembl&#45;&gt;GetUniqueHomolog -->
<g id="edge14" class="edge"><title>hsapiensGeneEnsembl&#45;&gt;GetUniqueHomolog</title>
<path fill="none" stroke="black" d="M311.736,-341.212C311.874,-339.19 311.958,-337.013 311.988,-334.804"/>
<polygon fill="black" stroke="black" points="315.484,-334.59 311.728,-324.683 308.486,-334.77 315.484,-334.59"/>
</g>
<!-- hsapiens_gene_ensembl -->
<g id="node11" class="node"><title>hsapiens_gene_ensembl</title>
<polygon fill="#d1eeee" stroke="black" points="460,-96.5 336,-96.5 336,-75.5 460,-75.5 460,-96.5"/>
<text text-anchor="middle" x="398" y="-83.5" font-family="Helvetica,sans-Serif" font-size="10.00">hsapiens_gene_ensembl</text>
</g>
<!-- hsapiensGeneEnsembl&#45;&gt;hsapiens_gene_ensembl -->
<g id="edge30" class="edge"><title>hsapiensGeneEnsembl&#45;&gt;hsapiens_gene_ensembl</title>
<path fill="none" stroke="black" d="M338.742,-341.43C347.103,-337.328 355.639,-331.917 362,-325 377.923,-307.687 382,-299.522 382,-276 382,-276 382,-276 382,-162 382,-142.904 386.897,-121.676 391.273,-106.52"/>
<polygon fill="black" stroke="black" points="394.706,-107.261 394.289,-96.6744 388.013,-105.21 394.706,-107.261"/>
</g>
<!-- CreateFasta&#45;&gt;seqret -->
<g id="edge4" class="edge"><title>CreateFasta&#45;&gt;seqret</title>
<path fill="none" stroke="black" d="M153,-227.212C153,-225.19 153,-223.013 153,-220.804"/>
<polygon fill="black" stroke="black" points="156.5,-220.683 153,-210.683 149.5,-220.683 156.5,-220.683"/>
</g>
<!-- WORKFLOWINTERNALSINK_outputPlot -->
<g id="node16" class="node"><title>WORKFLOWINTERNALSINK_outputPlot</title>
<polygon fill="#bcd2ee" stroke="black" points="184,-37.5 124,-37.5 124,-16.5 184,-16.5 184,-37.5"/>
<text text-anchor="middle" x="154" y="-24.5" font-family="Helvetica,sans-Serif" font-size="10.00">outputPlot</text>
</g>
<!-- FlattenImageList&#45;&gt;WORKFLOWINTERNALSINK_outputPlot -->
<g id="edge32" class="edge"><title>FlattenImageList&#45;&gt;WORKFLOWINTERNALSINK_outputPlot</title>
<path fill="none" stroke="black" d="M153.179,-75.452C153.308,-67.8285 153.487,-57.2768 153.645,-47.966"/>
<polygon fill="black" stroke="black" points="157.146,-47.9138 153.816,-37.8559 150.147,-47.7951 157.146,-47.9138"/>
</g>
<!-- WORKFLOWINTERNALSINK_MFGOID -->
<g id="node20" class="node"><title>WORKFLOWINTERNALSINK_MFGOID</title>
<polygon fill="#bcd2ee" stroke="black" points="426,-37.5 370,-37.5 370,-16.5 426,-16.5 426,-37.5"/>
<text text-anchor="middle" x="398" y="-24.5" font-family="Helvetica,sans-Serif" font-size="10.00">MFGOID</text>
</g>
<!-- hsapiens_gene_ensembl&#45;&gt;WORKFLOWINTERNALSINK_MFGOID -->
<g id="edge40" class="edge"><title>hsapiens_gene_ensembl&#45;&gt;WORKFLOWINTERNALSINK_MFGOID</title>
<path fill="none" stroke="black" d="M398,-75.452C398,-67.8285 398,-57.2768 398,-47.966"/>
<polygon fill="black" stroke="black" points="401.5,-47.8558 398,-37.8559 394.5,-47.8559 401.5,-47.8558"/>
</g>
<!-- WORKFLOWINTERNALSINK_MF_Description -->
<g id="node21" class="node"><title>WORKFLOWINTERNALSINK_MF_Description</title>
<polygon fill="#bcd2ee" stroke="black" points="516,-37.5 430,-37.5 430,-16.5 516,-16.5 516,-37.5"/>
<text text-anchor="middle" x="473" y="-24.5" font-family="Helvetica,sans-Serif" font-size="10.00">MF_Description</text>
</g>
<!-- hsapiens_gene_ensembl&#45;&gt;WORKFLOWINTERNALSINK_MF_Description -->
<g id="edge42" class="edge"><title>hsapiens_gene_ensembl&#45;&gt;WORKFLOWINTERNALSINK_MF_Description</title>
<path fill="none" stroke="black" d="M414.203,-75.4432C418.124,-72.7696 422.261,-69.8466 426,-67 435.336,-59.8934 445.284,-51.548 453.613,-44.3238"/>
<polygon fill="black" stroke="black" points="456.111,-46.7875 461.319,-37.5607 451.494,-41.5262 456.111,-46.7875"/>
</g>
<!-- WORKFLOWINTERNALSOURCECONTROL -->
<g id="node13" class="node"><title>WORKFLOWINTERNALSOURCECONTROL</title>
<polygon fill="#ff4040" stroke="black" points="458,-359 451,-348.5 465,-348.5 458,-359"/>
</g>
<!-- WORKFLOWINTERNALSINKCONTROL -->
<g id="node15" class="node"><title>WORKFLOWINTERNALSINKCONTROL</title>
<polygon fill="#66cd00" stroke="black" points="527,-20 534,-30.5 520,-30.5 527,-20"/>
</g>
</g>
</svg>
