<?xml version="1.0" encoding="UTF-8" standalone="no"?>
<!DOCTYPE svg PUBLIC "-//W3C//DTD SVG 1.1//EN"
 "http://www.w3.org/Graphics/SVG/1.1/DTD/svg11.dtd">
<!-- Generated by graphviz version 2.26.0 (20091210.2329)
 -->
<!-- Title: t2flow_graph Pages: 1 -->
<svg width="1418pt" height="636pt"
 viewBox="0.00 0.00 1418.00 636.00" xmlns="http://www.w3.org/2000/svg" xmlns:xlink="http://www.w3.org/1999/xlink">
<g id="graph1" class="graph" transform="scale(1 1) rotate(0) translate(4 632)">
<title>t2flow_graph</title>
<polygon fill="white" stroke="white" points="-4,5 -4,-632 1415,-632 1415,5 -4,5"/>
<g id="graph2" class="cluster"><title>cluster_sources</title>
<polygon fill="none" stroke="black" stroke-dasharray="1,5" points="1314,-561 1314,-620 1402,-620 1402,-561 1314,-561"/>
<text text-anchor="middle" x="1358" y="-607" font-family="Helvetica,sans-Serif" font-size="10.00">Workflow Inputs</text>
</g>
<g id="graph3" class="cluster"><title>cluster_sinks</title>
<polygon fill="none" stroke="black" stroke-dasharray="1,5" points="78,-8 78,-67 176,-67 176,-8 78,-8"/>
<text text-anchor="middle" x="125.5" y="-54" font-family="Helvetica,sans-Serif" font-size="10.00">Workflow Outputs</text>
</g>
<!-- Add_Column -->
<g id="node1" class="node"><title>Add_Column</title>
<polygon fill="white" stroke="black" points="1286,-552.5 1214,-552.5 1214,-531.5 1286,-531.5 1286,-552.5"/>
<text text-anchor="middle" x="1250" y="-539.5" font-family="Helvetica,sans-Serif" font-size="10.00">Add_Column</text>
</g>
<!-- Add_Column_2 -->
<g id="node4" class="node"><title>Add_Column_2</title>
<polygon fill="white" stroke="black" points="1204,-514.5 1122,-514.5 1122,-493.5 1204,-493.5 1204,-514.5"/>
<text text-anchor="middle" x="1163" y="-501.5" font-family="Helvetica,sans-Serif" font-size="10.00">Add_Column_2</text>
</g>
<!-- Add_Column&#45;&gt;Add_Column_2 -->
<g id="edge10" class="edge"><title>Add_Column&#45;&gt;Add_Column_2</title>
<path fill="none" stroke="black" d="M1225.77,-531.415C1216.72,-527.462 1206.27,-522.9 1196.53,-518.646"/>
<polygon fill="black" stroke="black" points="1197.67,-515.324 1187.1,-514.528 1194.87,-521.738 1197.67,-515.324"/>
</g>
<!-- Axes_rate_columnName -->
<g id="node2" class="node"><title>Axes_rate_columnName</title>
<polygon fill="#b0c4de" stroke="black" points="1190,-590.5 1066,-590.5 1066,-569.5 1190,-569.5 1190,-590.5"/>
<text text-anchor="middle" x="1128" y="-577.5" font-family="Helvetica,sans-Serif" font-size="10.00">Axes_rate_columnName</text>
</g>
<!-- Axes_rate_columnName&#45;&gt;Add_Column -->
<g id="edge4" class="edge"><title>Axes_rate_columnName&#45;&gt;Add_Column</title>
<path fill="none" stroke="black" d="M1161.98,-569.415C1175.73,-565.133 1191.78,-560.136 1206.37,-555.589"/>
<polygon fill="black" stroke="black" points="1207.69,-558.844 1216.2,-552.528 1205.61,-552.161 1207.69,-558.844"/>
</g>
<!-- axes_rate_expression -->
<g id="node3" class="node"><title>axes_rate_expression</title>
<polygon fill="#b0c4de" stroke="black" points="1306,-590.5 1194,-590.5 1194,-569.5 1306,-569.5 1306,-590.5"/>
<text text-anchor="middle" x="1250" y="-577.5" font-family="Helvetica,sans-Serif" font-size="10.00">axes_rate_expression</text>
</g>
<!-- axes_rate_expression&#45;&gt;Add_Column -->
<g id="edge6" class="edge"><title>axes_rate_expression&#45;&gt;Add_Column</title>
<path fill="none" stroke="black" d="M1250,-569.212C1250,-567.19 1250,-565.013 1250,-562.804"/>
<polygon fill="black" stroke="black" points="1253.5,-562.683 1250,-552.683 1246.5,-562.683 1253.5,-562.683"/>
</g>
<!-- Add_Column_4 -->
<g id="node7" class="node"><title>Add_Column_4</title>
<polygon fill="white" stroke="black" points="1091,-476.5 1009,-476.5 1009,-455.5 1091,-455.5 1091,-476.5"/>
<text text-anchor="middle" x="1050" y="-463.5" font-family="Helvetica,sans-Serif" font-size="10.00">Add_Column_4</text>
</g>
<!-- Add_Column_2&#45;&gt;Add_Column_4 -->
<g id="edge20" class="edge"><title>Add_Column_2&#45;&gt;Add_Column_4</title>
<path fill="none" stroke="black" d="M1131.52,-493.415C1118.91,-489.174 1104.21,-484.232 1090.8,-479.721"/>
<polygon fill="black" stroke="black" points="1091.9,-476.398 1081.31,-476.528 1089.67,-483.033 1091.9,-476.398"/>
</g>
<!-- dist_expression -->
<g id="node5" class="node"><title>dist_expression</title>
<polygon fill="#b0c4de" stroke="black" points="1112,-552.5 1028,-552.5 1028,-531.5 1112,-531.5 1112,-552.5"/>
<text text-anchor="middle" x="1070" y="-539.5" font-family="Helvetica,sans-Serif" font-size="10.00">dist_expression</text>
</g>
<!-- dist_expression&#45;&gt;Add_Column_2 -->
<g id="edge12" class="edge"><title>dist_expression&#45;&gt;Add_Column_2</title>
<path fill="none" stroke="black" d="M1095.91,-531.415C1105.78,-527.38 1117.21,-522.71 1127.81,-518.38"/>
<polygon fill="black" stroke="black" points="1129.3,-521.551 1137.23,-514.528 1126.65,-515.071 1129.3,-521.551"/>
</g>
<!-- dist_columnName -->
<g id="node6" class="node"><title>dist_columnName</title>
<polygon fill="#b0c4de" stroke="black" points="1210,-552.5 1116,-552.5 1116,-531.5 1210,-531.5 1210,-552.5"/>
<text text-anchor="middle" x="1163" y="-539.5" font-family="Helvetica,sans-Serif" font-size="10.00">dist_columnName</text>
</g>
<!-- dist_columnName&#45;&gt;Add_Column_2 -->
<g id="edge14" class="edge"><title>dist_columnName&#45;&gt;Add_Column_2</title>
<path fill="none" stroke="black" d="M1163,-531.212C1163,-529.19 1163,-527.013 1163,-524.804"/>
<polygon fill="black" stroke="black" points="1166.5,-524.683 1163,-514.683 1159.5,-524.683 1166.5,-524.683"/>
</g>
<!-- Add_Column_5 -->
<g id="node10" class="node"><title>Add_Column_5</title>
<polygon fill="white" stroke="black" points="1012,-438.5 930,-438.5 930,-417.5 1012,-417.5 1012,-438.5"/>
<text text-anchor="middle" x="971" y="-425.5" font-family="Helvetica,sans-Serif" font-size="10.00">Add_Column_5</text>
</g>
<!-- Add_Column_4&#45;&gt;Add_Column_5 -->
<g id="edge22" class="edge"><title>Add_Column_4&#45;&gt;Add_Column_5</title>
<path fill="none" stroke="black" d="M1027.99,-455.415C1019.95,-451.544 1010.69,-447.09 1002,-442.912"/>
<polygon fill="black" stroke="black" points="1003.42,-439.709 992.888,-438.528 1000.38,-446.017 1003.42,-439.709"/>
</g>
<!-- rotate_theta_expression -->
<g id="node8" class="node"><title>rotate_theta_expression</title>
<polygon fill="#b0c4de" stroke="black" points="978,-514.5 858,-514.5 858,-493.5 978,-493.5 978,-514.5"/>
<text text-anchor="middle" x="918" y="-501.5" font-family="Helvetica,sans-Serif" font-size="10.00">rotate_theta_expression</text>
</g>
<!-- rotate_theta_expression&#45;&gt;Add_Column_4 -->
<g id="edge16" class="edge"><title>rotate_theta_expression&#45;&gt;Add_Column_4</title>
<path fill="none" stroke="black" d="M954.769,-493.415C969.931,-489.05 987.672,-483.943 1003.7,-479.328"/>
<polygon fill="black" stroke="black" points="1004.79,-482.658 1013.43,-476.528 1002.85,-475.931 1004.79,-482.658"/>
</g>
<!-- rotated_theta_columnName -->
<g id="node9" class="node"><title>rotated_theta_columnName</title>
<polygon fill="#b0c4de" stroke="black" points="1118,-514.5 982,-514.5 982,-493.5 1118,-493.5 1118,-514.5"/>
<text text-anchor="middle" x="1050" y="-501.5" font-family="Helvetica,sans-Serif" font-size="10.00">rotated_theta_columnName</text>
</g>
<!-- rotated_theta_columnName&#45;&gt;Add_Column_4 -->
<g id="edge18" class="edge"><title>rotated_theta_columnName&#45;&gt;Add_Column_4</title>
<path fill="none" stroke="black" d="M1050,-493.212C1050,-491.19 1050,-489.013 1050,-486.804"/>
<polygon fill="black" stroke="black" points="1053.5,-486.683 1050,-476.683 1046.5,-486.683 1053.5,-486.683"/>
</g>
<!-- Add_Column_6 -->
<g id="node13" class="node"><title>Add_Column_6</title>
<polygon fill="white" stroke="black" points="921,-400.5 839,-400.5 839,-379.5 921,-379.5 921,-400.5"/>
<text text-anchor="middle" x="880" y="-387.5" font-family="Helvetica,sans-Serif" font-size="10.00">Add_Column_6</text>
</g>
<!-- Add_Column_5&#45;&gt;Add_Column_6 -->
<g id="edge28" class="edge"><title>Add_Column_5&#45;&gt;Add_Column_6</title>
<path fill="none" stroke="black" d="M945.651,-417.415C936.087,-413.421 925.033,-408.805 914.755,-404.513"/>
<polygon fill="black" stroke="black" points="915.789,-401.152 905.213,-400.528 913.092,-407.611 915.789,-401.152"/>
</g>
<!-- a_pix_expression -->
<g id="node11" class="node"><title>a_pix_expression</title>
<polygon fill="#b0c4de" stroke="black" points="933,-476.5 841,-476.5 841,-455.5 933,-455.5 933,-476.5"/>
<text text-anchor="middle" x="887" y="-463.5" font-family="Helvetica,sans-Serif" font-size="10.00">a_pix_expression</text>
</g>
<!-- a_pix_expression&#45;&gt;Add_Column_5 -->
<g id="edge24" class="edge"><title>a_pix_expression&#45;&gt;Add_Column_5</title>
<path fill="none" stroke="black" d="M910.399,-455.415C919.046,-451.503 929.011,-446.995 938.331,-442.779"/>
<polygon fill="black" stroke="black" points="940.058,-445.839 947.727,-438.528 937.173,-439.461 940.058,-445.839"/>
</g>
<!-- a_pix_value -->
<g id="node12" class="node"><title>a_pix_value</title>
<polygon fill="#b0c4de" stroke="black" points="1005,-476.5 937,-476.5 937,-455.5 1005,-455.5 1005,-476.5"/>
<text text-anchor="middle" x="971" y="-463.5" font-family="Helvetica,sans-Serif" font-size="10.00">a_pix_value</text>
</g>
<!-- a_pix_value&#45;&gt;Add_Column_5 -->
<g id="edge26" class="edge"><title>a_pix_value&#45;&gt;Add_Column_5</title>
<path fill="none" stroke="black" d="M971,-455.212C971,-453.19 971,-451.013 971,-448.804"/>
<polygon fill="black" stroke="black" points="974.5,-448.683 971,-438.683 967.5,-448.683 974.5,-448.683"/>
</g>
<!-- Add_Column_7 -->
<g id="node14" class="node"><title>Add_Column_7</title>
<polygon fill="white" stroke="black" points="824,-362.5 742,-362.5 742,-341.5 824,-341.5 824,-362.5"/>
<text text-anchor="middle" x="783" y="-349.5" font-family="Helvetica,sans-Serif" font-size="10.00">Add_Column_7</text>
</g>
<!-- Add_Column_6&#45;&gt;Add_Column_7 -->
<g id="edge34" class="edge"><title>Add_Column_6&#45;&gt;Add_Column_7</title>
<path fill="none" stroke="black" d="M852.98,-379.415C842.574,-375.338 830.516,-370.614 819.37,-366.248"/>
<polygon fill="black" stroke="black" points="820.463,-362.917 809.875,-362.528 817.909,-369.435 820.463,-362.917"/>
</g>
<!-- Add_Column_8 -->
<g id="node15" class="node"><title>Add_Column_8</title>
<polygon fill="white" stroke="black" points="726,-324.5 644,-324.5 644,-303.5 726,-303.5 726,-324.5"/>
<text text-anchor="middle" x="685" y="-311.5" font-family="Helvetica,sans-Serif" font-size="10.00">Add_Column_8</text>
</g>
<!-- Add_Column_7&#45;&gt;Add_Column_8 -->
<g id="edge40" class="edge"><title>Add_Column_7&#45;&gt;Add_Column_8</title>
<path fill="none" stroke="black" d="M755.702,-341.415C745.189,-337.338 733.005,-332.614 721.745,-328.248"/>
<polygon fill="black" stroke="black" points="722.741,-324.88 712.152,-324.528 720.21,-331.407 722.741,-324.88"/>
</g>
<!-- Add_Column_9 -->
<g id="node16" class="node"><title>Add_Column_9</title>
<polygon fill="white" stroke="black" points="637,-286.5 555,-286.5 555,-265.5 637,-265.5 637,-286.5"/>
<text text-anchor="middle" x="596" y="-273.5" font-family="Helvetica,sans-Serif" font-size="10.00">Add_Column_9</text>
</g>
<!-- Add_Column_8&#45;&gt;Add_Column_9 -->
<g id="edge46" class="edge"><title>Add_Column_8&#45;&gt;Add_Column_9</title>
<path fill="none" stroke="black" d="M660.209,-303.415C650.854,-299.421 640.043,-294.805 629.991,-290.513"/>
<polygon fill="black" stroke="black" points="631.23,-287.236 620.659,-286.528 628.481,-293.674 631.23,-287.236"/>
</g>
<!-- Add_Column_10 -->
<g id="node17" class="node"><title>Add_Column_10</title>
<polygon fill="white" stroke="black" points="530,-248.5 442,-248.5 442,-227.5 530,-227.5 530,-248.5"/>
<text text-anchor="middle" x="486" y="-235.5" font-family="Helvetica,sans-Serif" font-size="10.00">Add_Column_10</text>
</g>
<!-- Add_Column_9&#45;&gt;Add_Column_10 -->
<g id="edge52" class="edge"><title>Add_Column_9&#45;&gt;Add_Column_10</title>
<path fill="none" stroke="black" d="M565.359,-265.415C553.201,-261.215 539.053,-256.327 526.098,-251.852"/>
<polygon fill="black" stroke="black" points="527.072,-248.485 516.477,-248.528 524.786,-255.102 527.072,-248.485"/>
</g>
<!-- Add_Column_3 -->
<g id="node28" class="node"><title>Add_Column_3</title>
<polygon fill="white" stroke="black" points="430,-210.5 348,-210.5 348,-189.5 430,-189.5 430,-210.5"/>
<text text-anchor="middle" x="389" y="-197.5" font-family="Helvetica,sans-Serif" font-size="10.00">Add_Column_3</text>
</g>
<!-- Add_Column_10&#45;&gt;Add_Column_3 -->
<g id="edge58" class="edge"><title>Add_Column_10&#45;&gt;Add_Column_3</title>
<path fill="none" stroke="black" d="M458.98,-227.415C448.574,-223.338 436.516,-218.614 425.37,-214.248"/>
<polygon fill="black" stroke="black" points="426.463,-210.917 415.875,-210.528 423.909,-217.435 426.463,-210.917"/>
</g>
<!-- ellipticity_not0_value -->
<g id="node18" class="node"><title>ellipticity_not0_value</title>
<polygon fill="#b0c4de" stroke="black" points="417,-286.5 311,-286.5 311,-265.5 417,-265.5 417,-286.5"/>
<text text-anchor="middle" x="364" y="-273.5" font-family="Helvetica,sans-Serif" font-size="10.00">ellipticity_not0_value</text>
</g>
<!-- ellipticity_not0_value&#45;&gt;Add_Column_10 -->
<g id="edge54" class="edge"><title>ellipticity_not0_value&#45;&gt;Add_Column_10</title>
<path fill="none" stroke="black" d="M397.984,-265.415C411.732,-261.133 427.775,-256.136 442.371,-251.589"/>
<polygon fill="black" stroke="black" points="443.692,-254.844 452.198,-248.528 441.61,-248.161 443.692,-254.844"/>
</g>
<!-- ellipticity_not0_expression -->
<g id="node19" class="node"><title>ellipticity_not0_expression</title>
<polygon fill="#b0c4de" stroke="black" points="551,-286.5 421,-286.5 421,-265.5 551,-265.5 551,-286.5"/>
<text text-anchor="middle" x="486" y="-273.5" font-family="Helvetica,sans-Serif" font-size="10.00">ellipticity_not0_expression</text>
</g>
<!-- ellipticity_not0_expression&#45;&gt;Add_Column_10 -->
<g id="edge56" class="edge"><title>ellipticity_not0_expression&#45;&gt;Add_Column_10</title>
<path fill="none" stroke="black" d="M486,-265.212C486,-263.19 486,-261.013 486,-258.804"/>
<polygon fill="black" stroke="black" points="489.5,-258.683 486,-248.683 482.5,-258.683 489.5,-258.683"/>
</g>
<!-- sma0_value -->
<g id="node20" class="node"><title>sma0_value</title>
<polygon fill="#b0c4de" stroke="black" points="830,-438.5 762,-438.5 762,-417.5 830,-417.5 830,-438.5"/>
<text text-anchor="middle" x="796" y="-425.5" font-family="Helvetica,sans-Serif" font-size="10.00">sma0_value</text>
</g>
<!-- sma0_value&#45;&gt;Add_Column_6 -->
<g id="edge30" class="edge"><title>sma0_value&#45;&gt;Add_Column_6</title>
<path fill="none" stroke="black" d="M819.399,-417.415C828.046,-413.503 838.011,-408.995 847.331,-404.779"/>
<polygon fill="black" stroke="black" points="849.058,-407.839 856.727,-400.528 846.173,-401.461 849.058,-407.839"/>
</g>
<!-- minsma_value -->
<g id="node21" class="node"><title>minsma_value</title>
<polygon fill="#b0c4de" stroke="black" points="727,-400.5 647,-400.5 647,-379.5 727,-379.5 727,-400.5"/>
<text text-anchor="middle" x="687" y="-387.5" font-family="Helvetica,sans-Serif" font-size="10.00">minsma_value</text>
</g>
<!-- minsma_value&#45;&gt;Add_Column_7 -->
<g id="edge36" class="edge"><title>minsma_value&#45;&gt;Add_Column_7</title>
<path fill="none" stroke="black" d="M713.741,-379.415C724.04,-375.338 735.974,-370.614 747.005,-366.248"/>
<polygon fill="black" stroke="black" points="748.392,-369.463 756.402,-362.528 745.816,-362.955 748.392,-369.463"/>
</g>
<!-- maxsma_value -->
<g id="node22" class="node"><title>maxsma_value</title>
<polygon fill="#b0c4de" stroke="black" points="628,-362.5 546,-362.5 546,-341.5 628,-341.5 628,-362.5"/>
<text text-anchor="middle" x="587" y="-349.5" font-family="Helvetica,sans-Serif" font-size="10.00">maxsma_value</text>
</g>
<!-- maxsma_value&#45;&gt;Add_Column_8 -->
<g id="edge42" class="edge"><title>maxsma_value&#45;&gt;Add_Column_8</title>
<path fill="none" stroke="black" d="M614.298,-341.415C624.811,-337.338 636.995,-332.614 648.255,-328.248"/>
<polygon fill="black" stroke="black" points="649.79,-331.407 657.848,-324.528 647.259,-324.88 649.79,-331.407"/>
</g>
<!-- step_value -->
<g id="node23" class="node"><title>step_value</title>
<polygon fill="#b0c4de" stroke="black" points="548,-324.5 484,-324.5 484,-303.5 548,-303.5 548,-324.5"/>
<text text-anchor="middle" x="516" y="-311.5" font-family="Helvetica,sans-Serif" font-size="10.00">step_value</text>
</g>
<!-- step_value&#45;&gt;Add_Column_9 -->
<g id="edge48" class="edge"><title>step_value&#45;&gt;Add_Column_9</title>
<path fill="none" stroke="black" d="M538.284,-303.415C546.433,-299.544 555.811,-295.09 564.606,-290.912"/>
<polygon fill="black" stroke="black" points="566.304,-293.98 573.835,-286.528 563.301,-287.658 566.304,-293.98"/>
</g>
<!-- sma0_expression -->
<g id="node24" class="node"><title>sma0_expression</title>
<polygon fill="#b0c4de" stroke="black" points="926,-438.5 834,-438.5 834,-417.5 926,-417.5 926,-438.5"/>
<text text-anchor="middle" x="880" y="-425.5" font-family="Helvetica,sans-Serif" font-size="10.00">sma0_expression</text>
</g>
<!-- sma0_expression&#45;&gt;Add_Column_6 -->
<g id="edge32" class="edge"><title>sma0_expression&#45;&gt;Add_Column_6</title>
<path fill="none" stroke="black" d="M880,-417.212C880,-415.19 880,-413.013 880,-410.804"/>
<polygon fill="black" stroke="black" points="883.5,-410.683 880,-400.683 876.5,-410.683 883.5,-410.683"/>
</g>
<!-- maxsma_expression -->
<g id="node25" class="node"><title>maxsma_expression</title>
<polygon fill="#b0c4de" stroke="black" points="738,-362.5 632,-362.5 632,-341.5 738,-341.5 738,-362.5"/>
<text text-anchor="middle" x="685" y="-349.5" font-family="Helvetica,sans-Serif" font-size="10.00">maxsma_expression</text>
</g>
<!-- maxsma_expression&#45;&gt;Add_Column_8 -->
<g id="edge44" class="edge"><title>maxsma_expression&#45;&gt;Add_Column_8</title>
<path fill="none" stroke="black" d="M685,-341.212C685,-339.19 685,-337.013 685,-334.804"/>
<polygon fill="black" stroke="black" points="688.5,-334.683 685,-324.683 681.5,-334.683 688.5,-334.683"/>
</g>
<!-- step_expression -->
<g id="node26" class="node"><title>step_expression</title>
<polygon fill="#b0c4de" stroke="black" points="640,-324.5 552,-324.5 552,-303.5 640,-303.5 640,-324.5"/>
<text text-anchor="middle" x="596" y="-311.5" font-family="Helvetica,sans-Serif" font-size="10.00">step_expression</text>
</g>
<!-- step_expression&#45;&gt;Add_Column_9 -->
<g id="edge50" class="edge"><title>step_expression&#45;&gt;Add_Column_9</title>
<path fill="none" stroke="black" d="M596,-303.212C596,-301.19 596,-299.013 596,-296.804"/>
<polygon fill="black" stroke="black" points="599.5,-296.683 596,-286.683 592.5,-296.683 599.5,-296.683"/>
</g>
<!-- minsma_expression -->
<g id="node27" class="node"><title>minsma_expression</title>
<polygon fill="#b0c4de" stroke="black" points="835,-400.5 731,-400.5 731,-379.5 835,-379.5 835,-400.5"/>
<text text-anchor="middle" x="783" y="-387.5" font-family="Helvetica,sans-Serif" font-size="10.00">minsma_expression</text>
</g>
<!-- minsma_expression&#45;&gt;Add_Column_7 -->
<g id="edge38" class="edge"><title>minsma_expression&#45;&gt;Add_Column_7</title>
<path fill="none" stroke="black" d="M783,-379.212C783,-377.19 783,-375.013 783,-372.804"/>
<polygon fill="black" stroke="black" points="786.5,-372.683 783,-362.683 779.5,-372.683 786.5,-372.683"/>
</g>
<!-- Add_Column_11 -->
<g id="node29" class="node"><title>Add_Column_11</title>
<polygon fill="white" stroke="black" points="360,-172.5 272,-172.5 272,-151.5 360,-151.5 360,-172.5"/>
<text text-anchor="middle" x="316" y="-159.5" font-family="Helvetica,sans-Serif" font-size="10.00">Add_Column_11</text>
</g>
<!-- Add_Column_3&#45;&gt;Add_Column_11 -->
<g id="edge64" class="edge"><title>Add_Column_3&#45;&gt;Add_Column_11</title>
<path fill="none" stroke="black" d="M368.665,-189.415C361.388,-185.627 353.036,-181.279 345.16,-177.179"/>
<polygon fill="black" stroke="black" points="346.712,-174.041 336.226,-172.528 343.48,-180.25 346.712,-174.041"/>
</g>
<!-- Add_Column_12 -->
<g id="node30" class="node"><title>Add_Column_12</title>
<polygon fill="white" stroke="black" points="256,-134.5 168,-134.5 168,-113.5 256,-113.5 256,-134.5"/>
<text text-anchor="middle" x="212" y="-121.5" font-family="Helvetica,sans-Serif" font-size="10.00">Add_Column_12</text>
</g>
<!-- Add_Column_11&#45;&gt;Add_Column_12 -->
<g id="edge70" class="edge"><title>Add_Column_11&#45;&gt;Add_Column_12</title>
<path fill="none" stroke="black" d="M287.03,-151.415C275.648,-147.256 262.421,-142.423 250.272,-137.984"/>
<polygon fill="black" stroke="black" points="251.408,-134.673 240.814,-134.528 249.006,-141.248 251.408,-134.673"/>
</g>
<!-- Add_Column_13 -->
<g id="node37" class="node"><title>Add_Column_13</title>
<polygon fill="white" stroke="black" points="162,-96.5 74,-96.5 74,-75.5 162,-75.5 162,-96.5"/>
<text text-anchor="middle" x="118" y="-83.5" font-family="Helvetica,sans-Serif" font-size="10.00">Add_Column_13</text>
</g>
<!-- Add_Column_12&#45;&gt;Add_Column_13 -->
<g id="edge76" class="edge"><title>Add_Column_12&#45;&gt;Add_Column_13</title>
<path fill="none" stroke="black" d="M185.816,-113.415C175.834,-109.38 164.282,-104.71 153.573,-100.38"/>
<polygon fill="black" stroke="black" points="154.627,-97.0314 144.044,-96.5284 152.003,-103.521 154.627,-97.0314"/>
</g>
<!-- sma02_value -->
<g id="node31" class="node"><title>sma02_value</title>
<polygon fill="#b0c4de" stroke="black" points="336,-248.5 262,-248.5 262,-227.5 336,-227.5 336,-248.5"/>
<text text-anchor="middle" x="299" y="-235.5" font-family="Helvetica,sans-Serif" font-size="10.00">sma02_value</text>
</g>
<!-- sma02_value&#45;&gt;Add_Column_3 -->
<g id="edge60" class="edge"><title>sma02_value&#45;&gt;Add_Column_3</title>
<path fill="none" stroke="black" d="M324.07,-227.415C333.53,-223.421 344.462,-218.805 354.627,-214.513"/>
<polygon fill="black" stroke="black" points="356.213,-217.643 364.064,-210.528 353.491,-211.194 356.213,-217.643"/>
</g>
<!-- sma02_expression -->
<g id="node32" class="node"><title>sma02_expression</title>
<polygon fill="#b0c4de" stroke="black" points="438,-248.5 340,-248.5 340,-227.5 438,-227.5 438,-248.5"/>
<text text-anchor="middle" x="389" y="-235.5" font-family="Helvetica,sans-Serif" font-size="10.00">sma02_expression</text>
</g>
<!-- sma02_expression&#45;&gt;Add_Column_3 -->
<g id="edge62" class="edge"><title>sma02_expression&#45;&gt;Add_Column_3</title>
<path fill="none" stroke="black" d="M389,-227.212C389,-225.19 389,-223.013 389,-220.804"/>
<polygon fill="black" stroke="black" points="392.5,-220.683 389,-210.683 385.5,-220.683 392.5,-220.683"/>
</g>
<!-- minsma2_value -->
<g id="node33" class="node"><title>minsma2_value</title>
<polygon fill="#b0c4de" stroke="black" points="284,-210.5 200,-210.5 200,-189.5 284,-189.5 284,-210.5"/>
<text text-anchor="middle" x="242" y="-197.5" font-family="Helvetica,sans-Serif" font-size="10.00">minsma2_value</text>
</g>
<!-- minsma2_value&#45;&gt;Add_Column_11 -->
<g id="edge66" class="edge"><title>minsma2_value&#45;&gt;Add_Column_11</title>
<path fill="none" stroke="black" d="M262.613,-189.415C269.99,-185.627 278.456,-181.279 286.44,-177.179"/>
<polygon fill="black" stroke="black" points="288.201,-180.21 295.497,-172.528 285.003,-173.983 288.201,-180.21"/>
</g>
<!-- minsma2 -->
<g id="node34" class="node"><title>minsma2</title>
<polygon fill="#b0c4de" stroke="black" points="344,-210.5 288,-210.5 288,-189.5 344,-189.5 344,-210.5"/>
<text text-anchor="middle" x="316" y="-197.5" font-family="Helvetica,sans-Serif" font-size="10.00">minsma2</text>
</g>
<!-- minsma2&#45;&gt;Add_Column_11 -->
<g id="edge68" class="edge"><title>minsma2&#45;&gt;Add_Column_11</title>
<path fill="none" stroke="black" d="M316,-189.212C316,-187.19 316,-185.013 316,-182.804"/>
<polygon fill="black" stroke="black" points="319.5,-182.683 316,-172.683 312.5,-182.683 319.5,-182.683"/>
</g>
<!-- maxsma2_value -->
<g id="node35" class="node"><title>maxsma2_value</title>
<polygon fill="#b0c4de" stroke="black" points="152,-172.5 64,-172.5 64,-151.5 152,-151.5 152,-172.5"/>
<text text-anchor="middle" x="108" y="-159.5" font-family="Helvetica,sans-Serif" font-size="10.00">maxsma2_value</text>
</g>
<!-- maxsma2_value&#45;&gt;Add_Column_12 -->
<g id="edge72" class="edge"><title>maxsma2_value&#45;&gt;Add_Column_12</title>
<path fill="none" stroke="black" d="M136.97,-151.415C148.352,-147.256 161.579,-142.423 173.728,-137.984"/>
<polygon fill="black" stroke="black" points="174.994,-141.248 183.186,-134.528 172.592,-134.673 174.994,-141.248"/>
</g>
<!-- maxsma2_expression -->
<g id="node36" class="node"><title>maxsma2_expression</title>
<polygon fill="#b0c4de" stroke="black" points="268,-172.5 156,-172.5 156,-151.5 268,-151.5 268,-172.5"/>
<text text-anchor="middle" x="212" y="-159.5" font-family="Helvetica,sans-Serif" font-size="10.00">maxsma2_expression</text>
</g>
<!-- maxsma2_expression&#45;&gt;Add_Column_12 -->
<g id="edge74" class="edge"><title>maxsma2_expression&#45;&gt;Add_Column_12</title>
<path fill="none" stroke="black" d="M212,-151.212C212,-149.19 212,-147.013 212,-144.804"/>
<polygon fill="black" stroke="black" points="215.5,-144.683 212,-134.683 208.5,-144.683 215.5,-144.683"/>
</g>
<!-- WORKFLOWINTERNALSINK_resultTable -->
<g id="node45" class="node"><title>WORKFLOWINTERNALSINK_resultTable</title>
<polygon fill="#bcd2ee" stroke="black" points="150,-37.5 86,-37.5 86,-16.5 150,-16.5 150,-37.5"/>
<text text-anchor="middle" x="118" y="-24.5" font-family="Helvetica,sans-Serif" font-size="10.00">resultTable</text>
</g>
<!-- Add_Column_13&#45;&gt;WORKFLOWINTERNALSINK_resultTable -->
<g id="edge82" class="edge"><title>Add_Column_13&#45;&gt;WORKFLOWINTERNALSINK_resultTable</title>
<path fill="none" stroke="black" d="M118,-75.452C118,-67.8285 118,-57.2768 118,-47.966"/>
<polygon fill="black" stroke="black" points="121.5,-47.8558 118,-37.8559 114.5,-47.8559 121.5,-47.8558"/>
</g>
<!-- step2_value -->
<g id="node38" class="node"><title>step2_value</title>
<polygon fill="#b0c4de" stroke="black" points="68,-134.5 3.55271e-14,-134.5 0,-113.5 68,-113.5 68,-134.5"/>
<text text-anchor="middle" x="34" y="-121.5" font-family="Helvetica,sans-Serif" font-size="10.00">step2_value</text>
</g>
<!-- step2_value&#45;&gt;Add_Column_13 -->
<g id="edge78" class="edge"><title>step2_value&#45;&gt;Add_Column_13</title>
<path fill="none" stroke="black" d="M57.3987,-113.415C66.0457,-109.503 76.011,-104.995 85.3307,-100.779"/>
<polygon fill="black" stroke="black" points="87.0583,-103.839 94.7268,-96.5284 84.1731,-97.4612 87.0583,-103.839"/>
</g>
<!-- step2_expression -->
<g id="node39" class="node"><title>step2_expression</title>
<polygon fill="#b0c4de" stroke="black" points="164,-134.5 72,-134.5 72,-113.5 164,-113.5 164,-134.5"/>
<text text-anchor="middle" x="118" y="-121.5" font-family="Helvetica,sans-Serif" font-size="10.00">step2_expression</text>
</g>
<!-- step2_expression&#45;&gt;Add_Column_13 -->
<g id="edge80" class="edge"><title>step2_expression&#45;&gt;Add_Column_13</title>
<path fill="none" stroke="black" d="M118,-113.212C118,-111.19 118,-109.013 118,-106.804"/>
<polygon fill="black" stroke="black" points="121.5,-106.683 118,-96.6831 114.5,-106.683 121.5,-106.683"/>
</g>
<!-- WORKFLOWINTERNALSOURCECONTROL -->
<g id="node41" class="node"><title>WORKFLOWINTERNALSOURCECONTROL</title>
<polygon fill="#ff4040" stroke="black" points="1384,-587 1377,-576.5 1391,-576.5 1384,-587"/>
</g>
<!-- WORKFLOWINTERNALSOURCE_votable -->
<g id="node42" class="node"><title>WORKFLOWINTERNALSOURCE_votable</title>
<polygon fill="skyblue" stroke="black" points="1370,-590.5 1322,-590.5 1322,-569.5 1370,-569.5 1370,-590.5"/>
<text text-anchor="middle" x="1346" y="-577.5" font-family="Helvetica,sans-Serif" font-size="10.00">votable</text>
</g>
<!-- WORKFLOWINTERNALSOURCE_votable&#45;&gt;Add_Column -->
<g id="edge8" class="edge"><title>WORKFLOWINTERNALSOURCE_votable&#45;&gt;Add_Column</title>
<path fill="none" stroke="black" d="M1332.29,-569.398C1327.9,-566.368 1322.9,-563.274 1318,-561 1311.04,-557.772 1303.42,-554.987 1295.88,-552.621"/>
<polygon fill="black" stroke="black" points="1296.65,-549.201 1286.07,-549.75 1294.69,-555.919 1296.65,-549.201"/>
</g>
<!-- WORKFLOWINTERNALSINKCONTROL -->
<g id="node44" class="node"><title>WORKFLOWINTERNALSINKCONTROL</title>
<polygon fill="#66cd00" stroke="black" points="161,-20 168,-30.5 154,-30.5 161,-20"/>
</g>
</g>
</svg>
