<?xml version="1.0" encoding="UTF-8" standalone="no"?>
<!DOCTYPE svg PUBLIC "-//W3C//DTD SVG 1.1//EN"
 "http://www.w3.org/Graphics/SVG/1.1/DTD/svg11.dtd">
<!-- Generated by graphviz version 2.26.0 (20091210.2329)
 -->
<!-- Title: t2flow_graph Pages: 1 -->
<svg width="698pt" height="176pt"
 viewBox="0.00 0.00 698.00 176.00" xmlns="http://www.w3.org/2000/svg" xmlns:xlink="http://www.w3.org/1999/xlink">
<g id="graph1" class="graph" transform="scale(1 1) rotate(0) translate(4 172)">
<title>t2flow_graph</title>
<polygon fill="white" stroke="white" points="-4,5 -4,-172 695,-172 695,5 -4,5"/>
<g id="graph2" class="cluster"><title>cluster_sources</title>
<polygon fill="none" stroke="black" stroke-dasharray="1,5" points="518,-109 518,-160 606,-160 606,-109 518,-109"/>
<text text-anchor="middle" x="562" y="-147" font-family="Helvetica,sans-Serif" font-size="10.00">Workflow Inputs</text>
</g>
<g id="graph3" class="cluster"><title>cluster_sinks</title>
<polygon fill="none" stroke="black" stroke-dasharray="1,5" points="8,-8 8,-67 682,-67 682,-8 8,-8"/>
<text text-anchor="middle" x="55.5" y="-54" font-family="Helvetica,sans-Serif" font-size="10.00">Workflow Outputs</text>
</g>
<!-- full_text_search_xml -->
<g id="node1" class="node"><title>full_text_search_xml</title>
<polygon fill="#7aafff" stroke="black" points="298,-96.5 192,-96.5 192,-75.5 298,-75.5 298,-96.5"/>
<text text-anchor="middle" x="245" y="-83.5" font-family="Helvetica,sans-Serif" font-size="10.00">full_text_search_xml</text>
</g>
<!-- WORKFLOWINTERNALSINK_full_text_search_xml_responseBody -->
<g id="node10" class="node"><title>WORKFLOWINTERNALSINK_full_text_search_xml_responseBody</title>
<polygon fill="#bcd2ee" stroke="black" points="332,-37.5 158,-37.5 158,-16.5 332,-16.5 332,-37.5"/>
<text text-anchor="middle" x="245" y="-24.5" font-family="Helvetica,sans-Serif" font-size="10.00">full_text_search_xml_responseBody</text>
</g>
<!-- full_text_search_xml&#45;&gt;WORKFLOWINTERNALSINK_full_text_search_xml_responseBody -->
<g id="edge12" class="edge"><title>full_text_search_xml&#45;&gt;WORKFLOWINTERNALSINK_full_text_search_xml_responseBody</title>
<path fill="none" stroke="black" d="M245,-75.452C245,-67.8285 245,-57.2768 245,-47.966"/>
<polygon fill="black" stroke="black" points="248.5,-47.8558 245,-37.8559 241.5,-47.8559 248.5,-47.8558"/>
</g>
<!-- WORKFLOWINTERNALSINK_full_text_search_xml_status -->
<g id="node11" class="node"><title>WORKFLOWINTERNALSINK_full_text_search_xml_status</title>
<polygon fill="#bcd2ee" stroke="black" points="154,-37.5 16,-37.5 16,-16.5 154,-16.5 154,-37.5"/>
<text text-anchor="middle" x="85" y="-24.5" font-family="Helvetica,sans-Serif" font-size="10.00">full_text_search_xml_status</text>
</g>
<!-- full_text_search_xml&#45;&gt;WORKFLOWINTERNALSINK_full_text_search_xml_status -->
<g id="edge14" class="edge"><title>full_text_search_xml&#45;&gt;WORKFLOWINTERNALSINK_full_text_search_xml_status</title>
<path fill="none" stroke="black" d="M191.852,-76.9257C180.504,-74.2897 168.715,-71.0103 158,-67 141.285,-60.7438 123.708,-51.2147 109.991,-43.0264"/>
<polygon fill="black" stroke="black" points="111.526,-39.8624 101.169,-37.6286 107.872,-45.8333 111.526,-39.8624"/>
</g>
<!-- species_value -->
<g id="node2" class="node"><title>species_value</title>
<polygon fill="#b0c4de" stroke="black" points="359,-134.5 281,-134.5 281,-113.5 359,-113.5 359,-134.5"/>
<text text-anchor="middle" x="320" y="-121.5" font-family="Helvetica,sans-Serif" font-size="10.00">species_value</text>
</g>
<!-- species_value&#45;&gt;full_text_search_xml -->
<g id="edge4" class="edge"><title>species_value&#45;&gt;full_text_search_xml</title>
<path fill="none" stroke="black" d="M299.108,-113.415C291.632,-109.627 283.051,-105.279 274.959,-101.179"/>
<polygon fill="black" stroke="black" points="276.282,-97.9259 265.78,-96.5284 273.118,-104.17 276.282,-97.9259"/>
</g>
<!-- full_text_search_json -->
<g id="node3" class="node"><title>full_text_search_json</title>
<polygon fill="#7aafff" stroke="black" points="460,-96.5 352,-96.5 352,-75.5 460,-75.5 460,-96.5"/>
<text text-anchor="middle" x="406" y="-83.5" font-family="Helvetica,sans-Serif" font-size="10.00">full_text_search_json</text>
</g>
<!-- species_value&#45;&gt;full_text_search_json -->
<g id="edge6" class="edge"><title>species_value&#45;&gt;full_text_search_json</title>
<path fill="none" stroke="black" d="M343.956,-113.415C352.902,-109.462 363.226,-104.9 372.854,-100.646"/>
<polygon fill="black" stroke="black" points="374.44,-103.771 382.173,-96.5284 371.611,-97.3686 374.44,-103.771"/>
</g>
<!-- WORKFLOWINTERNALSINK_full_text_search_json_responseBody -->
<g id="node8" class="node"><title>WORKFLOWINTERNALSINK_full_text_search_json_responseBody</title>
<polygon fill="#bcd2ee" stroke="black" points="656,-37.5 480,-37.5 480,-16.5 656,-16.5 656,-37.5"/>
<text text-anchor="middle" x="568" y="-24.5" font-family="Helvetica,sans-Serif" font-size="10.00">full_text_search_json_responseBody</text>
</g>
<!-- full_text_search_json&#45;&gt;WORKFLOWINTERNALSINK_full_text_search_json_responseBody -->
<g id="edge8" class="edge"><title>full_text_search_json&#45;&gt;WORKFLOWINTERNALSINK_full_text_search_json_responseBody</title>
<path fill="none" stroke="black" d="M448.873,-75.4213C457.907,-72.8979 467.326,-70.0446 476,-67 496.66,-59.7479 519.216,-49.9719 536.823,-41.8999"/>
<polygon fill="black" stroke="black" points="538.454,-45.0016 546.052,-37.6176 535.507,-38.6518 538.454,-45.0016"/>
</g>
<!-- WORKFLOWINTERNALSINK_full_text_search_json_status -->
<g id="node9" class="node"><title>WORKFLOWINTERNALSINK_full_text_search_json_status</title>
<polygon fill="#bcd2ee" stroke="black" points="476,-37.5 336,-37.5 336,-16.5 476,-16.5 476,-37.5"/>
<text text-anchor="middle" x="406" y="-24.5" font-family="Helvetica,sans-Serif" font-size="10.00">full_text_search_json_status</text>
</g>
<!-- full_text_search_json&#45;&gt;WORKFLOWINTERNALSINK_full_text_search_json_status -->
<g id="edge10" class="edge"><title>full_text_search_json&#45;&gt;WORKFLOWINTERNALSINK_full_text_search_json_status</title>
<path fill="none" stroke="black" d="M406,-75.452C406,-67.8285 406,-57.2768 406,-47.966"/>
<polygon fill="black" stroke="black" points="409.5,-47.8558 406,-37.8559 402.5,-47.8559 409.5,-47.8558"/>
</g>
<!-- WORKFLOWINTERNALSOURCECONTROL -->
<g id="node5" class="node"><title>WORKFLOWINTERNALSOURCECONTROL</title>
<polygon fill="#ff4040" stroke="black" points="562,-131 555,-120.5 569,-120.5 562,-131"/>
</g>
<!-- WORKFLOWINTERNALSINKCONTROL -->
<g id="node7" class="node"><title>WORKFLOWINTERNALSINKCONTROL</title>
<polygon fill="#66cd00" stroke="black" points="667,-20 674,-30.5 660,-30.5 667,-20"/>
</g>
</g>
</svg>
