<?xml version="1.0" encoding="UTF-8" standalone="no"?>
<!DOCTYPE svg PUBLIC "-//W3C//DTD SVG 1.1//EN"
 "http://www.w3.org/Graphics/SVG/1.1/DTD/svg11.dtd">
<!-- Generated by graphviz version 2.26.0 (20091210.2329)
 -->
<!-- Title: t2flow_graph Pages: 1 -->
<svg width="727pt" height="484pt"
 viewBox="0.00 0.00 727.00 484.00" xmlns="http://www.w3.org/2000/svg" xmlns:xlink="http://www.w3.org/1999/xlink">
<g id="graph1" class="graph" transform="scale(1 1) rotate(0) translate(4 480)">
<title>t2flow_graph</title>
<polygon fill="white" stroke="white" points="-4,5 -4,-480 724,-480 724,5 -4,5"/>
<g id="graph2" class="cluster"><title>cluster_sources</title>
<polygon fill="none" stroke="black" stroke-dasharray="1,5" points="228,-409 228,-468 356,-468 356,-409 228,-409"/>
<text text-anchor="middle" x="272" y="-455" font-family="Helvetica,sans-Serif" font-size="10.00">Workflow Inputs</text>
</g>
<g id="graph3" class="cluster"><title>cluster_sinks</title>
<polygon fill="none" stroke="black" stroke-dasharray="1,5" points="536,-8 536,-67 656,-67 656,-8 536,-8"/>
<text text-anchor="middle" x="583.5" y="-54" font-family="Helvetica,sans-Serif" font-size="10.00">Workflow Outputs</text>
</g>
<!-- NED_images_ -->
<g id="node1" class="node"><title>NED_images_</title>
<polygon fill="#7aafff" stroke="black" points="627,-134.5 547,-134.5 547,-113.5 627,-113.5 627,-134.5"/>
<text text-anchor="middle" x="587" y="-121.5" font-family="Helvetica,sans-Serif" font-size="10.00">NED_images_</text>
</g>
<!-- Cat_n&#45;tables -->
<g id="node23" class="node"><title>Cat_n&#45;tables</title>
<polygon fill="white" stroke="black" points="623,-96.5 551,-96.5 551,-75.5 623,-75.5 623,-96.5"/>
<text text-anchor="middle" x="587" y="-83.5" font-family="Helvetica,sans-Serif" font-size="10.00">Cat_n&#45;tables</text>
</g>
<!-- NED_images_&#45;&gt;Cat_n&#45;tables -->
<g id="edge50" class="edge"><title>NED_images_&#45;&gt;Cat_n&#45;tables</title>
<path fill="none" stroke="black" d="M587,-113.212C587,-111.19 587,-109.013 587,-106.804"/>
<polygon fill="black" stroke="black" points="590.5,-106.683 587,-96.6831 583.5,-106.683 590.5,-106.683"/>
</g>
<!-- ascii2votable -->
<g id="node2" class="node"><title>ascii2votable</title>
<polygon fill="white" stroke="black" points="201,-400.5 127,-400.5 127,-379.5 201,-379.5 201,-400.5"/>
<text text-anchor="middle" x="164" y="-387.5" font-family="Helvetica,sans-Serif" font-size="10.00">ascii2votable</text>
</g>
<!-- Names2Coordinates -->
<g id="node5" class="node"><title>Names2Coordinates</title>
<polygon fill="white" stroke="black" points="348,-362.5 242,-362.5 242,-341.5 348,-341.5 348,-362.5"/>
<text text-anchor="middle" x="295" y="-349.5" font-family="Helvetica,sans-Serif" font-size="10.00">Names2Coordinates</text>
</g>
<!-- ascii2votable&#45;&gt;Names2Coordinates -->
<g id="edge14" class="edge"><title>ascii2votable&#45;&gt;Names2Coordinates</title>
<path fill="none" stroke="black" d="M200.491,-379.415C215.538,-375.05 233.144,-369.943 249.055,-365.328"/>
<polygon fill="black" stroke="black" points="250.076,-368.676 258.705,-362.528 248.126,-361.953 250.076,-368.676"/>
</g>
<!-- formatTableIn_value -->
<g id="node3" class="node"><title>formatTableIn_value</title>
<polygon fill="#b0c4de" stroke="black" points="104,-438.5 4.26326e-14,-438.5 0,-417.5 104,-417.5 104,-438.5"/>
<text text-anchor="middle" x="52" y="-425.5" font-family="Helvetica,sans-Serif" font-size="10.00">formatTableIn_value</text>
</g>
<!-- formatTableIn_value&#45;&gt;ascii2votable -->
<g id="edge10" class="edge"><title>formatTableIn_value&#45;&gt;ascii2votable</title>
<path fill="none" stroke="black" d="M83.1982,-417.415C95.5772,-413.215 109.982,-408.327 123.173,-403.852"/>
<polygon fill="black" stroke="black" points="124.624,-407.056 132.969,-400.528 122.375,-400.427 124.624,-407.056"/>
</g>
<!-- formatTableOut_value -->
<g id="node4" class="node"><title>formatTableOut_value</title>
<polygon fill="#b0c4de" stroke="black" points="220,-438.5 108,-438.5 108,-417.5 220,-417.5 220,-438.5"/>
<text text-anchor="middle" x="164" y="-425.5" font-family="Helvetica,sans-Serif" font-size="10.00">formatTableOut_value</text>
</g>
<!-- formatTableOut_value&#45;&gt;ascii2votable -->
<g id="edge12" class="edge"><title>formatTableOut_value&#45;&gt;ascii2votable</title>
<path fill="none" stroke="black" d="M164,-417.212C164,-415.19 164,-413.013 164,-410.804"/>
<polygon fill="black" stroke="black" points="167.5,-410.683 164,-400.683 160.5,-410.683 167.5,-410.683"/>
</g>
<!-- Add_Column -->
<g id="node9" class="node"><title>Add_Column</title>
<polygon fill="white" stroke="black" points="440,-324.5 368,-324.5 368,-303.5 440,-303.5 440,-324.5"/>
<text text-anchor="middle" x="404" y="-311.5" font-family="Helvetica,sans-Serif" font-size="10.00">Add_Column</text>
</g>
<!-- Names2Coordinates&#45;&gt;Add_Column -->
<g id="edge22" class="edge"><title>Names2Coordinates&#45;&gt;Add_Column</title>
<path fill="none" stroke="black" d="M325.363,-341.415C337.41,-337.215 351.429,-332.327 364.266,-327.852"/>
<polygon fill="black" stroke="black" points="365.51,-331.125 373.8,-324.528 363.205,-324.515 365.51,-331.125"/>
</g>
<!-- nameDEC_value -->
<g id="node6" class="node"><title>nameDEC_value</title>
<polygon fill="#b0c4de" stroke="black" points="295,-400.5 205,-400.5 205,-379.5 295,-379.5 295,-400.5"/>
<text text-anchor="middle" x="250" y="-387.5" font-family="Helvetica,sans-Serif" font-size="10.00">nameDEC_value</text>
</g>
<!-- nameDEC_value&#45;&gt;Names2Coordinates -->
<g id="edge16" class="edge"><title>nameDEC_value&#45;&gt;Names2Coordinates</title>
<path fill="none" stroke="black" d="M262.775,-379.212C266.416,-376.138 270.478,-372.708 274.457,-369.347"/>
<polygon fill="black" stroke="black" points="276.967,-371.809 282.349,-362.683 272.451,-366.461 276.967,-371.809"/>
</g>
<!-- nameRA_value -->
<g id="node7" class="node"><title>nameRA_value</title>
<polygon fill="#b0c4de" stroke="black" points="381,-400.5 299,-400.5 299,-379.5 381,-379.5 381,-400.5"/>
<text text-anchor="middle" x="340" y="-387.5" font-family="Helvetica,sans-Serif" font-size="10.00">nameRA_value</text>
</g>
<!-- nameRA_value&#45;&gt;Names2Coordinates -->
<g id="edge18" class="edge"><title>nameRA_value&#45;&gt;Names2Coordinates</title>
<path fill="none" stroke="black" d="M327.225,-379.212C323.584,-376.138 319.522,-372.708 315.543,-369.347"/>
<polygon fill="black" stroke="black" points="317.549,-366.461 307.651,-362.683 313.033,-371.809 317.549,-366.461"/>
</g>
<!-- objectName_value -->
<g id="node8" class="node"><title>objectName_value</title>
<polygon fill="#b0c4de" stroke="black" points="483,-400.5 385,-400.5 385,-379.5 483,-379.5 483,-400.5"/>
<text text-anchor="middle" x="434" y="-387.5" font-family="Helvetica,sans-Serif" font-size="10.00">objectName_value</text>
</g>
<!-- objectName_value&#45;&gt;Names2Coordinates -->
<g id="edge20" class="edge"><title>objectName_value&#45;&gt;Names2Coordinates</title>
<path fill="none" stroke="black" d="M395.281,-379.415C379.165,-375.009 360.281,-369.847 343.274,-365.197"/>
<polygon fill="black" stroke="black" points="344.081,-361.789 333.512,-362.528 342.235,-368.542 344.081,-361.789"/>
</g>
<!-- votable2ascii -->
<g id="node13" class="node"><title>votable2ascii</title>
<polygon fill="white" stroke="black" points="539,-286.5 465,-286.5 465,-265.5 539,-265.5 539,-286.5"/>
<text text-anchor="middle" x="502" y="-273.5" font-family="Helvetica,sans-Serif" font-size="10.00">votable2ascii</text>
</g>
<!-- Add_Column&#45;&gt;votable2ascii -->
<g id="edge34" class="edge"><title>Add_Column&#45;&gt;votable2ascii</title>
<path fill="none" stroke="black" d="M431.298,-303.415C441.811,-299.338 453.995,-294.614 465.255,-290.248"/>
<polygon fill="black" stroke="black" points="466.79,-293.407 474.848,-286.528 464.259,-286.88 466.79,-293.407"/>
</g>
<!-- nameNewCol_value -->
<g id="node10" class="node"><title>nameNewCol_value</title>
<polygon fill="#b0c4de" stroke="black" points="456,-362.5 352,-362.5 352,-341.5 456,-341.5 456,-362.5"/>
<text text-anchor="middle" x="404" y="-349.5" font-family="Helvetica,sans-Serif" font-size="10.00">nameNewCol_value</text>
</g>
<!-- nameNewCol_value&#45;&gt;Add_Column -->
<g id="edge24" class="edge"><title>nameNewCol_value&#45;&gt;Add_Column</title>
<path fill="none" stroke="black" d="M404,-341.212C404,-339.19 404,-337.013 404,-334.804"/>
<polygon fill="black" stroke="black" points="407.5,-334.683 404,-324.683 400.5,-334.683 407.5,-334.683"/>
</g>
<!-- expression_value -->
<g id="node11" class="node"><title>expression_value</title>
<polygon fill="#b0c4de" stroke="black" points="552,-362.5 460,-362.5 460,-341.5 552,-341.5 552,-362.5"/>
<text text-anchor="middle" x="506" y="-349.5" font-family="Helvetica,sans-Serif" font-size="10.00">expression_value</text>
</g>
<!-- expression_value&#45;&gt;Add_Column -->
<g id="edge26" class="edge"><title>expression_value&#45;&gt;Add_Column</title>
<path fill="none" stroke="black" d="M477.587,-341.415C466.535,-337.297 453.708,-332.519 441.89,-328.116"/>
<polygon fill="black" stroke="black" points="442.853,-324.74 432.26,-324.528 440.409,-331.299 442.853,-324.74"/>
</g>
<!-- Write_Text_File -->
<g id="node12" class="node"><title>Write_Text_File</title>
<polygon fill="#d15fee" stroke="black" points="628,-248.5 542,-248.5 542,-227.5 628,-227.5 628,-248.5"/>
<text text-anchor="middle" x="585" y="-235.5" font-family="Helvetica,sans-Serif" font-size="10.00">Write_Text_File</text>
</g>
<!-- ExtractSizePos -->
<g id="node18" class="node"><title>ExtractSizePos</title>
<polygon fill="#f28c55" stroke="black" points="627,-210.5 543,-210.5 543,-189.5 627,-189.5 627,-210.5"/>
<text text-anchor="middle" x="585" y="-197.5" font-family="Helvetica,sans-Serif" font-size="10.00">ExtractSizePos</text>
</g>
<!-- Write_Text_File&#45;&gt;ExtractSizePos -->
<g id="edge40" class="edge"><title>Write_Text_File&#45;&gt;ExtractSizePos</title>
<path fill="none" stroke="black" d="M585,-227.212C585,-225.19 585,-223.013 585,-220.804"/>
<polygon fill="black" stroke="black" points="588.5,-220.683 585,-210.683 581.5,-220.683 588.5,-220.683"/>
</g>
<!-- votable2ascii&#45;&gt;Write_Text_File -->
<g id="edge28" class="edge"><title>votable2ascii&#45;&gt;Write_Text_File</title>
<path fill="none" stroke="black" d="M525.12,-265.415C533.664,-261.503 543.511,-256.995 552.72,-252.779"/>
<polygon fill="black" stroke="black" points="554.368,-255.874 562.004,-248.528 551.454,-249.509 554.368,-255.874"/>
</g>
<!-- formatTableIn_value_1 -->
<g id="node14" class="node"><title>formatTableIn_value_1</title>
<polygon fill="#b0c4de" stroke="black" points="560,-324.5 444,-324.5 444,-303.5 560,-303.5 560,-324.5"/>
<text text-anchor="middle" x="502" y="-311.5" font-family="Helvetica,sans-Serif" font-size="10.00">formatTableIn_value_1</text>
</g>
<!-- formatTableIn_value_1&#45;&gt;votable2ascii -->
<g id="edge36" class="edge"><title>formatTableIn_value_1&#45;&gt;votable2ascii</title>
<path fill="none" stroke="black" d="M502,-303.212C502,-301.19 502,-299.013 502,-296.804"/>
<polygon fill="black" stroke="black" points="505.5,-296.683 502,-286.683 498.5,-296.683 505.5,-296.683"/>
</g>
<!-- formatTableOut_value_1 -->
<g id="node15" class="node"><title>formatTableOut_value_1</title>
<polygon fill="#b0c4de" stroke="black" points="686,-324.5 564,-324.5 564,-303.5 686,-303.5 686,-324.5"/>
<text text-anchor="middle" x="625" y="-311.5" font-family="Helvetica,sans-Serif" font-size="10.00">formatTableOut_value_1</text>
</g>
<!-- formatTableOut_value_1&#45;&gt;votable2ascii -->
<g id="edge38" class="edge"><title>formatTableOut_value_1&#45;&gt;votable2ascii</title>
<path fill="none" stroke="black" d="M590.738,-303.415C576.876,-299.133 560.702,-294.136 545.987,-289.589"/>
<polygon fill="black" stroke="black" points="546.666,-286.136 536.079,-286.528 544.6,-292.824 546.666,-286.136"/>
</g>
<!-- encoding_value -->
<g id="node16" class="node"><title>encoding_value</title>
<polygon fill="#b0c4de" stroke="black" points="627,-286.5 543,-286.5 543,-265.5 627,-265.5 627,-286.5"/>
<text text-anchor="middle" x="585" y="-273.5" font-family="Helvetica,sans-Serif" font-size="10.00">encoding_value</text>
</g>
<!-- encoding_value&#45;&gt;Write_Text_File -->
<g id="edge30" class="edge"><title>encoding_value&#45;&gt;Write_Text_File</title>
<path fill="none" stroke="black" d="M585,-265.212C585,-263.19 585,-261.013 585,-258.804"/>
<polygon fill="black" stroke="black" points="588.5,-258.683 585,-248.683 581.5,-258.683 588.5,-258.683"/>
</g>
<!-- outputFile_value -->
<g id="node17" class="node"><title>outputFile_value</title>
<polygon fill="#b0c4de" stroke="black" points="719,-286.5 631,-286.5 631,-265.5 719,-265.5 719,-286.5"/>
<text text-anchor="middle" x="675" y="-273.5" font-family="Helvetica,sans-Serif" font-size="10.00">outputFile_value</text>
</g>
<!-- outputFile_value&#45;&gt;Write_Text_File -->
<g id="edge32" class="edge"><title>outputFile_value&#45;&gt;Write_Text_File</title>
<path fill="none" stroke="black" d="M649.93,-265.415C640.47,-261.421 629.538,-256.805 619.373,-252.513"/>
<polygon fill="black" stroke="black" points="620.509,-249.194 609.936,-248.528 617.787,-255.643 620.509,-249.194"/>
</g>
<!-- ConvertPosString2List -->
<g id="node19" class="node"><title>ConvertPosString2List</title>
<polygon fill="#d15fee" stroke="black" points="704,-172.5 590,-172.5 590,-151.5 704,-151.5 704,-172.5"/>
<text text-anchor="middle" x="647" y="-159.5" font-family="Helvetica,sans-Serif" font-size="10.00">ConvertPosString2List</text>
</g>
<!-- ExtractSizePos&#45;&gt;ConvertPosString2List -->
<g id="edge42" class="edge"><title>ExtractSizePos&#45;&gt;ConvertPosString2List</title>
<path fill="none" stroke="black" d="M602.27,-189.415C608.048,-185.874 614.623,-181.844 620.92,-177.984"/>
<polygon fill="black" stroke="black" points="623.125,-180.738 629.822,-172.528 619.467,-174.77 623.125,-180.738"/>
</g>
<!-- ConvertSizeString2List -->
<g id="node20" class="node"><title>ConvertSizeString2List</title>
<polygon fill="#d15fee" stroke="black" points="586,-172.5 470,-172.5 470,-151.5 586,-151.5 586,-172.5"/>
<text text-anchor="middle" x="528" y="-159.5" font-family="Helvetica,sans-Serif" font-size="10.00">ConvertSizeString2List</text>
</g>
<!-- ExtractSizePos&#45;&gt;ConvertSizeString2List -->
<g id="edge46" class="edge"><title>ExtractSizePos&#45;&gt;ConvertSizeString2List</title>
<path fill="none" stroke="black" d="M569.122,-189.415C563.934,-185.956 558.047,-182.031 552.381,-178.254"/>
<polygon fill="black" stroke="black" points="554.055,-175.163 543.793,-172.528 550.172,-180.988 554.055,-175.163"/>
</g>
<!-- ConvertPosString2List&#45;&gt;NED_images_ -->
<g id="edge6" class="edge"><title>ConvertPosString2List&#45;&gt;NED_images_</title>
<path fill="none" stroke="black" d="M630.287,-151.415C624.695,-147.874 618.332,-143.844 612.238,-139.984"/>
<polygon fill="black" stroke="black" points="613.945,-136.922 603.624,-134.528 610.199,-142.836 613.945,-136.922"/>
</g>
<!-- ConvertSizeString2List&#45;&gt;NED_images_ -->
<g id="edge4" class="edge"><title>ConvertSizeString2List&#45;&gt;NED_images_</title>
<path fill="none" stroke="black" d="M544.435,-151.415C549.933,-147.874 556.19,-143.844 562.182,-139.984"/>
<polygon fill="black" stroke="black" points="564.141,-142.886 570.653,-134.528 560.351,-137.001 564.141,-142.886"/>
</g>
<!-- regex_value -->
<g id="node21" class="node"><title>regex_value</title>
<polygon fill="#b0c4de" stroke="black" points="539,-210.5 471,-210.5 471,-189.5 539,-189.5 539,-210.5"/>
<text text-anchor="middle" x="505" y="-197.5" font-family="Helvetica,sans-Serif" font-size="10.00">regex_value</text>
</g>
<!-- regex_value&#45;&gt;ConvertSizeString2List -->
<g id="edge48" class="edge"><title>regex_value&#45;&gt;ConvertSizeString2List</title>
<path fill="none" stroke="black" d="M511.529,-189.212C512.999,-186.785 514.602,-184.136 516.213,-181.475"/>
<polygon fill="black" stroke="black" points="519.35,-183.05 521.534,-172.683 513.362,-179.426 519.35,-183.05"/>
</g>
<!-- regex_value_1 -->
<g id="node22" class="node"><title>regex_value_1</title>
<polygon fill="#b0c4de" stroke="black" points="711,-210.5 631,-210.5 631,-189.5 711,-189.5 711,-210.5"/>
<text text-anchor="middle" x="671" y="-197.5" font-family="Helvetica,sans-Serif" font-size="10.00">regex_value_1</text>
</g>
<!-- regex_value_1&#45;&gt;ConvertPosString2List -->
<g id="edge44" class="edge"><title>regex_value_1&#45;&gt;ConvertPosString2List</title>
<path fill="none" stroke="black" d="M664.187,-189.212C662.603,-186.704 660.869,-183.959 659.132,-181.209"/>
<polygon fill="black" stroke="black" points="662.046,-179.269 653.747,-172.683 656.128,-183.007 662.046,-179.269"/>
</g>
<!-- WORKFLOWINTERNALSINK_ImagesVOTable -->
<g id="node29" class="node"><title>WORKFLOWINTERNALSINK_ImagesVOTable</title>
<polygon fill="#bcd2ee" stroke="black" points="630,-37.5 544,-37.5 544,-16.5 630,-16.5 630,-37.5"/>
<text text-anchor="middle" x="587" y="-24.5" font-family="Helvetica,sans-Serif" font-size="10.00">ImagesVOTable</text>
</g>
<!-- Cat_n&#45;tables&#45;&gt;WORKFLOWINTERNALSINK_ImagesVOTable -->
<g id="edge52" class="edge"><title>Cat_n&#45;tables&#45;&gt;WORKFLOWINTERNALSINK_ImagesVOTable</title>
<path fill="none" stroke="black" d="M587,-75.452C587,-67.8285 587,-57.2768 587,-47.966"/>
<polygon fill="black" stroke="black" points="590.5,-47.8558 587,-37.8559 583.5,-47.8559 590.5,-47.8558"/>
</g>
<!-- WORKFLOWINTERNALSOURCECONTROL -->
<g id="node25" class="node"><title>WORKFLOWINTERNALSOURCECONTROL</title>
<polygon fill="#ff4040" stroke="black" points="341,-435 334,-424.5 348,-424.5 341,-435"/>
</g>
<!-- WORKFLOWINTERNALSOURCE_ListNamesWidths -->
<g id="node26" class="node"><title>WORKFLOWINTERNALSOURCE_ListNamesWidths</title>
<polygon fill="skyblue" stroke="black" points="330,-438.5 236,-438.5 236,-417.5 330,-417.5 330,-438.5"/>
<text text-anchor="middle" x="283" y="-425.5" font-family="Helvetica,sans-Serif" font-size="10.00">ListNamesWidths</text>
</g>
<!-- WORKFLOWINTERNALSOURCE_ListNamesWidths&#45;&gt;ascii2votable -->
<g id="edge8" class="edge"><title>WORKFLOWINTERNALSOURCE_ListNamesWidths&#45;&gt;ascii2votable</title>
<path fill="none" stroke="black" d="M255.887,-417.417C248.211,-414.552 239.817,-411.543 232,-409 227.549,-407.552 219.701,-405.277 210.88,-402.797"/>
<polygon fill="black" stroke="black" points="211.612,-399.368 201.04,-400.055 209.733,-406.111 211.612,-399.368"/>
</g>
<!-- WORKFLOWINTERNALSINKCONTROL -->
<g id="node28" class="node"><title>WORKFLOWINTERNALSINKCONTROL</title>
<polygon fill="#66cd00" stroke="black" points="641,-20 648,-30.5 634,-30.5 641,-20"/>
</g>
</g>
</svg>
