<?xml version="1.0" encoding="UTF-8" standalone="no"?>
<!DOCTYPE svg PUBLIC "-//W3C//DTD SVG 1.1//EN"
 "http://www.w3.org/Graphics/SVG/1.1/DTD/svg11.dtd">
<!-- Generated by graphviz version 2.26.0 (20091210.2329)
 -->
<!-- Title: t2flow_graph Pages: 1 -->
<svg width="224pt" height="180pt"
 viewBox="0.00 0.00 224.00 180.00" xmlns="http://www.w3.org/2000/svg" xmlns:xlink="http://www.w3.org/1999/xlink">
<g id="graph1" class="graph" transform="scale(1 1) rotate(0) translate(4 176)">
<title>t2flow_graph</title>
<polygon fill="white" stroke="white" points="-4,5 -4,-176 221,-176 221,5 -4,5"/>
<g id="graph2" class="cluster"><title>cluster_sources</title>
<polygon fill="none" stroke="black" stroke-dasharray="1,5" points="45,-105 45,-164 153,-164 153,-105 45,-105"/>
<text text-anchor="middle" x="89" y="-151" font-family="Helvetica,sans-Serif" font-size="10.00">Workflow Inputs</text>
</g>
<g id="graph3" class="cluster"><title>cluster_sinks</title>
<polygon fill="none" stroke="black" stroke-dasharray="1,5" points="8,-8 8,-67 208,-67 208,-8 8,-8"/>
<text text-anchor="middle" x="55.5" y="-54" font-family="Helvetica,sans-Serif" font-size="10.00">Workflow Outputs</text>
</g>
<!-- select3 -->
<g id="node1" class="node"><title>select3</title>
<polygon fill="#fafad2" stroke="black" points="114,-96.5 66,-96.5 66,-75.5 114,-75.5 114,-96.5"/>
<text text-anchor="middle" x="90" y="-83.5" font-family="Helvetica,sans-Serif" font-size="10.00">select3</text>
</g>
<!-- WORKFLOWINTERNALSINK_OUTPUT -->
<g id="node7" class="node"><title>WORKFLOWINTERNALSINK_OUTPUT</title>
<polygon fill="#bcd2ee" stroke="black" points="182,-37.5 124,-37.5 124,-16.5 182,-16.5 182,-37.5"/>
<text text-anchor="middle" x="153" y="-24.5" font-family="Helvetica,sans-Serif" font-size="10.00">OUTPUT</text>
</g>
<!-- select3&#45;&gt;WORKFLOWINTERNALSINK_OUTPUT -->
<g id="edge6" class="edge"><title>select3&#45;&gt;WORKFLOWINTERNALSINK_OUTPUT</title>
<path fill="none" stroke="black" d="M108.741,-75.4207C112.628,-72.8784 116.579,-70.0177 120,-67 127.026,-60.803 133.793,-53.0346 139.35,-45.9963"/>
<polygon fill="black" stroke="black" points="142.427,-47.7307 145.671,-37.6448 136.845,-43.5062 142.427,-47.7307"/>
</g>
<!-- WORKFLOWINTERNALSINK_std_errors -->
<g id="node8" class="node"><title>WORKFLOWINTERNALSINK_std_errors</title>
<polygon fill="#bcd2ee" stroke="black" points="120,-37.5 60,-37.5 60,-16.5 120,-16.5 120,-37.5"/>
<text text-anchor="middle" x="90" y="-24.5" font-family="Helvetica,sans-Serif" font-size="10.00">std_errors</text>
</g>
<!-- select3&#45;&gt;WORKFLOWINTERNALSINK_std_errors -->
<g id="edge8" class="edge"><title>select3&#45;&gt;WORKFLOWINTERNALSINK_std_errors</title>
<path fill="none" stroke="black" d="M90,-75.452C90,-67.8285 90,-57.2768 90,-47.966"/>
<polygon fill="black" stroke="black" points="93.5001,-47.8558 90,-37.8559 86.5001,-47.8559 93.5001,-47.8558"/>
</g>
<!-- WORKFLOWINTERNALSINK_report -->
<g id="node9" class="node"><title>WORKFLOWINTERNALSINK_report</title>
<polygon fill="#bcd2ee" stroke="black" points="56,-37.5 16,-37.5 16,-16.5 56,-16.5 56,-37.5"/>
<text text-anchor="middle" x="36" y="-24.5" font-family="Helvetica,sans-Serif" font-size="10.00">report</text>
</g>
<!-- select3&#45;&gt;WORKFLOWINTERNALSINK_report -->
<g id="edge10" class="edge"><title>select3&#45;&gt;WORKFLOWINTERNALSINK_report</title>
<path fill="none" stroke="black" d="M70.2764,-75.3755C66.6234,-72.9081 63.0145,-70.0882 60,-67 54.244,-61.1033 49.2722,-53.575 45.3705,-46.6437"/>
<polygon fill="black" stroke="black" points="48.4696,-45.0171 40.7401,-37.7711 42.2639,-48.2558 48.4696,-45.0171"/>
</g>
<!-- WORKFLOWINTERNALSOURCECONTROL -->
<g id="node3" class="node"><title>WORKFLOWINTERNALSOURCECONTROL</title>
<polygon fill="#ff4040" stroke="black" points="138,-131 131,-120.5 145,-120.5 138,-131"/>
</g>
<!-- WORKFLOWINTERNALSOURCE_select3_input -->
<g id="node4" class="node"><title>WORKFLOWINTERNALSOURCE_select3_input</title>
<polygon fill="skyblue" stroke="black" points="127,-134.5 53,-134.5 53,-113.5 127,-113.5 127,-134.5"/>
<text text-anchor="middle" x="90" y="-121.5" font-family="Helvetica,sans-Serif" font-size="10.00">select3_input</text>
</g>
<!-- WORKFLOWINTERNALSOURCE_select3_input&#45;&gt;select3 -->
<g id="edge4" class="edge"><title>WORKFLOWINTERNALSOURCE_select3_input&#45;&gt;select3</title>
<path fill="none" stroke="black" d="M90,-113.212C90,-111.19 90,-109.013 90,-106.804"/>
<polygon fill="black" stroke="black" points="93.5001,-106.683 90,-96.6831 86.5001,-106.683 93.5001,-106.683"/>
</g>
<!-- WORKFLOWINTERNALSINKCONTROL -->
<g id="node6" class="node"><title>WORKFLOWINTERNALSINKCONTROL</title>
<polygon fill="#66cd00" stroke="black" points="193,-20 200,-30.5 186,-30.5 193,-20"/>
</g>
</g>
</svg>
