<?xml version="1.0" encoding="UTF-8" standalone="no"?>
<!DOCTYPE svg PUBLIC "-//W3C//DTD SVG 1.1//EN"
 "http://www.w3.org/Graphics/SVG/1.1/DTD/svg11.dtd">
<!-- Generated by graphviz version 2.26.0 (20091210.2329)
 -->
<!-- Title: t2flow_graph Pages: 1 -->
<svg width="123pt" height="180pt"
 viewBox="0.00 0.00 123.00 180.00" xmlns="http://www.w3.org/2000/svg" xmlns:xlink="http://www.w3.org/1999/xlink">
<g id="graph1" class="graph" transform="scale(1 1) rotate(0) translate(4 176)">
<title>t2flow_graph</title>
<polygon fill="white" stroke="white" points="-4,5 -4,-176 120,-176 120,5 -4,5"/>
<g id="graph2" class="cluster"><title>cluster_sources</title>
<polygon fill="none" stroke="black" stroke-dasharray="1,5" points="8,-105 8,-164 96,-164 96,-105 8,-105"/>
<text text-anchor="middle" x="52" y="-151" font-family="Helvetica,sans-Serif" font-size="10.00">Workflow Inputs</text>
</g>
<g id="graph3" class="cluster"><title>cluster_sinks</title>
<polygon fill="none" stroke="black" stroke-dasharray="1,5" points="12,-8 12,-67 107,-67 107,-8 12,-8"/>
<text text-anchor="middle" x="59.5" y="-54" font-family="Helvetica,sans-Serif" font-size="10.00">Workflow Outputs</text>
</g>
<!-- Transcription -->
<g id="node1" class="node"><title>Transcription</title>
<polygon fill="#deb887" stroke="black" points="75,-96.5 3,-96.5 3,-75.5 75,-75.5 75,-96.5"/>
<text text-anchor="middle" x="39" y="-83.5" font-family="Helvetica,sans-Serif" font-size="10.00">Transcription</text>
</g>
<!-- WORKFLOWINTERNALSINK_RNA -->
<g id="node7" class="node"><title>WORKFLOWINTERNALSINK_RNA</title>
<polygon fill="#bcd2ee" stroke="black" points="58,-37.5 20,-37.5 20,-16.5 58,-16.5 58,-37.5"/>
<text text-anchor="middle" x="39" y="-24.5" font-family="Helvetica,sans-Serif" font-size="10.00">RNA</text>
</g>
<!-- Transcription&#45;&gt;WORKFLOWINTERNALSINK_RNA -->
<g id="edge6" class="edge"><title>Transcription&#45;&gt;WORKFLOWINTERNALSINK_RNA</title>
<path fill="none" stroke="black" d="M39,-75.452C39,-67.8285 39,-57.2768 39,-47.966"/>
<polygon fill="black" stroke="black" points="42.5001,-47.8558 39,-37.8559 35.5001,-47.8559 42.5001,-47.8558"/>
</g>
<!-- WORKFLOWINTERNALSOURCECONTROL -->
<g id="node3" class="node"><title>WORKFLOWINTERNALSOURCECONTROL</title>
<polygon fill="#ff4040" stroke="black" points="77,-131 70,-120.5 84,-120.5 77,-131"/>
</g>
<!-- WORKFLOWINTERNALSOURCE_DNA -->
<g id="node4" class="node"><title>WORKFLOWINTERNALSOURCE_DNA</title>
<polygon fill="skyblue" stroke="black" points="58,-134.5 20,-134.5 20,-113.5 58,-113.5 58,-134.5"/>
<text text-anchor="middle" x="39" y="-121.5" font-family="Helvetica,sans-Serif" font-size="10.00">DNA</text>
</g>
<!-- WORKFLOWINTERNALSOURCE_DNA&#45;&gt;Transcription -->
<g id="edge4" class="edge"><title>WORKFLOWINTERNALSOURCE_DNA&#45;&gt;Transcription</title>
<path fill="none" stroke="black" d="M39,-113.212C39,-111.19 39,-109.013 39,-106.804"/>
<polygon fill="black" stroke="black" points="42.5001,-106.683 39,-96.6831 35.5001,-106.683 42.5001,-106.683"/>
</g>
<!-- WORKFLOWINTERNALSINKCONTROL -->
<g id="node6" class="node"><title>WORKFLOWINTERNALSINKCONTROL</title>
<polygon fill="#66cd00" stroke="black" points="80,-20 87,-30.5 73,-30.5 80,-20"/>
</g>
</g>
</svg>
