<?xml version="1.0" encoding="UTF-8" standalone="no"?>
<!DOCTYPE svg PUBLIC "-//W3C//DTD SVG 1.1//EN"
 "http://www.w3.org/Graphics/SVG/1.1/DTD/svg11.dtd">
<!-- Generated by graphviz version 2.26.0 (20091210.2329)
 -->
<!-- Title: t2flow_graph Pages: 1 -->
<svg width="504pt" height="218pt"
 viewBox="0.00 0.00 504.00 218.00" xmlns="http://www.w3.org/2000/svg" xmlns:xlink="http://www.w3.org/1999/xlink">
<g id="graph1" class="graph" transform="scale(1 1) rotate(0) translate(4 214)">
<title>t2flow_graph</title>
<polygon fill="white" stroke="white" points="-4,5 -4,-214 501,-214 501,5 -4,5"/>
<g id="graph2" class="cluster"><title>cluster_sources</title>
<polygon fill="none" stroke="black" stroke-dasharray="1,5" points="228,-143 228,-202 322,-202 322,-143 228,-143"/>
<text text-anchor="middle" x="272" y="-189" font-family="Helvetica,sans-Serif" font-size="10.00">Workflow Inputs</text>
</g>
<g id="graph3" class="cluster"><title>cluster_sinks</title>
<polygon fill="none" stroke="black" stroke-dasharray="1,5" points="200,-8 200,-67 398,-67 398,-8 200,-8"/>
<text text-anchor="middle" x="247.5" y="-54" font-family="Helvetica,sans-Serif" font-size="10.00">Workflow Outputs</text>
</g>
<!-- Resolve_coordinates -->
<g id="node1" class="node"><title>Resolve_coordinates</title>
<polygon fill="white" stroke="black" points="344,-96.5 236,-96.5 236,-75.5 344,-75.5 344,-96.5"/>
<text text-anchor="middle" x="290" y="-83.5" font-family="Helvetica,sans-Serif" font-size="10.00">Resolve_coordinates</text>
</g>
<!-- WORKFLOWINTERNALSINK_Resolve_coordinates_outputTable -->
<g id="node13" class="node"><title>WORKFLOWINTERNALSINK_Resolve_coordinates_outputTable</title>
<polygon fill="#bcd2ee" stroke="black" points="372,-37.5 208,-37.5 208,-16.5 372,-16.5 372,-37.5"/>
<text text-anchor="middle" x="290" y="-24.5" font-family="Helvetica,sans-Serif" font-size="10.00">Resolve_coordinates_outputTable</text>
</g>
<!-- Resolve_coordinates&#45;&gt;WORKFLOWINTERNALSINK_Resolve_coordinates_outputTable -->
<g id="edge18" class="edge"><title>Resolve_coordinates&#45;&gt;WORKFLOWINTERNALSINK_Resolve_coordinates_outputTable</title>
<path fill="none" stroke="black" d="M290,-75.452C290,-67.8285 290,-57.2768 290,-47.966"/>
<polygon fill="black" stroke="black" points="293.5,-47.8558 290,-37.8559 286.5,-47.8559 293.5,-47.8558"/>
</g>
<!-- Format_conversion -->
<g id="node2" class="node"><title>Format_conversion</title>
<polygon fill="white" stroke="black" points="214,-134.5 114,-134.5 114,-113.5 214,-113.5 214,-134.5"/>
<text text-anchor="middle" x="164" y="-121.5" font-family="Helvetica,sans-Serif" font-size="10.00">Format_conversion</text>
</g>
<!-- Format_conversion&#45;&gt;Resolve_coordinates -->
<g id="edge4" class="edge"><title>Format_conversion&#45;&gt;Resolve_coordinates</title>
<path fill="none" stroke="black" d="M199.098,-113.415C213.434,-109.091 230.185,-104.039 245.375,-99.4583"/>
<polygon fill="black" stroke="black" points="246.527,-102.767 255.09,-96.5284 244.506,-96.0649 246.527,-102.767"/>
</g>
<!-- formatTableIn_value -->
<g id="node3" class="node"><title>formatTableIn_value</title>
<polygon fill="#b0c4de" stroke="black" points="104,-172.5 4.26326e-14,-172.5 0,-151.5 104,-151.5 104,-172.5"/>
<text text-anchor="middle" x="52" y="-159.5" font-family="Helvetica,sans-Serif" font-size="10.00">formatTableIn_value</text>
</g>
<!-- formatTableIn_value&#45;&gt;Format_conversion -->
<g id="edge12" class="edge"><title>formatTableIn_value&#45;&gt;Format_conversion</title>
<path fill="none" stroke="black" d="M83.1982,-151.415C95.5772,-147.215 109.982,-142.327 123.173,-137.852"/>
<polygon fill="black" stroke="black" points="124.624,-141.056 132.969,-134.528 122.375,-134.427 124.624,-141.056"/>
</g>
<!-- formatTableOut_value -->
<g id="node4" class="node"><title>formatTableOut_value</title>
<polygon fill="#b0c4de" stroke="black" points="220,-172.5 108,-172.5 108,-151.5 220,-151.5 220,-172.5"/>
<text text-anchor="middle" x="164" y="-159.5" font-family="Helvetica,sans-Serif" font-size="10.00">formatTableOut_value</text>
</g>
<!-- formatTableOut_value&#45;&gt;Format_conversion -->
<g id="edge14" class="edge"><title>formatTableOut_value&#45;&gt;Format_conversion</title>
<path fill="none" stroke="black" d="M164,-151.212C164,-149.19 164,-147.013 164,-144.804"/>
<polygon fill="black" stroke="black" points="167.5,-144.683 164,-134.683 160.5,-144.683 167.5,-144.683"/>
</g>
<!-- nameDEC_value -->
<g id="node5" class="node"><title>nameDEC_value</title>
<polygon fill="#b0c4de" stroke="black" points="308,-134.5 218,-134.5 218,-113.5 308,-113.5 308,-134.5"/>
<text text-anchor="middle" x="263" y="-121.5" font-family="Helvetica,sans-Serif" font-size="10.00">nameDEC_value</text>
</g>
<!-- nameDEC_value&#45;&gt;Resolve_coordinates -->
<g id="edge6" class="edge"><title>nameDEC_value&#45;&gt;Resolve_coordinates</title>
<path fill="none" stroke="black" d="M270.665,-113.212C272.505,-110.623 274.523,-107.782 276.541,-104.943"/>
<polygon fill="black" stroke="black" points="279.47,-106.862 282.409,-96.6831 273.764,-102.808 279.47,-106.862"/>
</g>
<!-- nameRA_value -->
<g id="node6" class="node"><title>nameRA_value</title>
<polygon fill="#b0c4de" stroke="black" points="394,-134.5 312,-134.5 312,-113.5 394,-113.5 394,-134.5"/>
<text text-anchor="middle" x="353" y="-121.5" font-family="Helvetica,sans-Serif" font-size="10.00">nameRA_value</text>
</g>
<!-- nameRA_value&#45;&gt;Resolve_coordinates -->
<g id="edge8" class="edge"><title>nameRA_value&#45;&gt;Resolve_coordinates</title>
<path fill="none" stroke="black" d="M335.451,-113.415C329.444,-109.791 322.588,-105.656 316.054,-101.715"/>
<polygon fill="black" stroke="black" points="317.826,-98.6963 307.455,-96.5284 314.21,-104.69 317.826,-98.6963"/>
</g>
<!-- objectName_value -->
<g id="node7" class="node"><title>objectName_value</title>
<polygon fill="#b0c4de" stroke="black" points="496,-134.5 398,-134.5 398,-113.5 496,-113.5 496,-134.5"/>
<text text-anchor="middle" x="447" y="-121.5" font-family="Helvetica,sans-Serif" font-size="10.00">objectName_value</text>
</g>
<!-- objectName_value&#45;&gt;Resolve_coordinates -->
<g id="edge10" class="edge"><title>objectName_value&#45;&gt;Resolve_coordinates</title>
<path fill="none" stroke="black" d="M403.267,-113.415C384.723,-108.927 362.936,-103.653 343.45,-98.9369"/>
<polygon fill="black" stroke="black" points="344.041,-95.4791 333.499,-96.5284 342.395,-102.283 344.041,-95.4791"/>
</g>
<!-- WORKFLOWINTERNALSOURCECONTROL -->
<g id="node9" class="node"><title>WORKFLOWINTERNALSOURCECONTROL</title>
<polygon fill="#ff4040" stroke="black" points="307,-169 300,-158.5 314,-158.5 307,-169"/>
</g>
<!-- WORKFLOWINTERNALSOURCE_ObjectList -->
<g id="node10" class="node"><title>WORKFLOWINTERNALSOURCE_ObjectList</title>
<polygon fill="skyblue" stroke="black" points="296,-172.5 236,-172.5 236,-151.5 296,-151.5 296,-172.5"/>
<text text-anchor="middle" x="266" y="-159.5" font-family="Helvetica,sans-Serif" font-size="10.00">ObjectList</text>
</g>
<!-- WORKFLOWINTERNALSOURCE_ObjectList&#45;&gt;Format_conversion -->
<g id="edge16" class="edge"><title>WORKFLOWINTERNALSOURCE_ObjectList&#45;&gt;Format_conversion</title>
<path fill="none" stroke="black" d="M248.749,-151.32C243.499,-148.356 237.626,-145.32 232,-143 227.304,-141.064 222.347,-139.257 217.336,-137.588"/>
<polygon fill="black" stroke="black" points="218.277,-134.215 207.687,-134.55 216.175,-140.892 218.277,-134.215"/>
</g>
<!-- WORKFLOWINTERNALSINKCONTROL -->
<g id="node12" class="node"><title>WORKFLOWINTERNALSINKCONTROL</title>
<polygon fill="#66cd00" stroke="black" points="383,-20 390,-30.5 376,-30.5 383,-20"/>
</g>
</g>
</svg>
