<?xml version="1.0" encoding="UTF-8" standalone="no"?>
<!DOCTYPE svg PUBLIC "-//W3C//DTD SVG 1.1//EN"
 "http://www.w3.org/Graphics/SVG/1.1/DTD/svg11.dtd">
<!-- Generated by graphviz version 2.26.0 (20091210.2329)
 -->
<!-- Title: t2flow_graph Pages: 1 -->
<svg width="488pt" height="316pt"
 viewBox="0.00 0.00 488.00 316.00" xmlns="http://www.w3.org/2000/svg" xmlns:xlink="http://www.w3.org/1999/xlink">
<g id="graph1" class="graph" transform="scale(1 1) rotate(0) translate(4 312)">
<title>t2flow_graph</title>
<polygon fill="white" stroke="white" points="-4,5 -4,-312 485,-312 485,5 -4,5"/>
<g id="graph2" class="cluster"><title>cluster_sources</title>
<polygon fill="none" stroke="black" stroke-dasharray="1,5" points="364,-219 364,-278 452,-278 452,-219 364,-219"/>
<text text-anchor="middle" x="408" y="-265" font-family="Helvetica,sans-Serif" font-size="10.00">Workflow Inputs</text>
</g>
<g id="graph3" class="cluster"><title>cluster_sinks</title>
<polygon fill="none" stroke="black" stroke-dasharray="1,5" points="277,-8 277,-67 393,-67 393,-8 277,-8"/>
<text text-anchor="middle" x="324.5" y="-54" font-family="Helvetica,sans-Serif" font-size="10.00">Workflow Outputs</text>
</g>
<!-- dataXML1 -->
<g id="node1" class="node"><title>dataXML1</title>
<polygon fill="#ab92ea" stroke="black" points="425,-210.5 365,-210.5 365,-189.5 425,-189.5 425,-210.5"/>
<text text-anchor="middle" x="395" y="-197.5" font-family="Helvetica,sans-Serif" font-size="10.00">dataXML1</text>
</g>
<!-- parametersXML13 -->
<g id="node4" class="node"><title>parametersXML13</title>
<polygon fill="#ab92ea" stroke="black" points="374,-172.5 278,-172.5 278,-151.5 374,-151.5 374,-172.5"/>
<text text-anchor="middle" x="326" y="-159.5" font-family="Helvetica,sans-Serif" font-size="10.00">parametersXML13</text>
</g>
<!-- dataXML1&#45;&gt;parametersXML13 -->
<g id="edge32" class="edge"><title>dataXML1&#45;&gt;parametersXML13</title>
<path fill="none" stroke="black" d="M375.78,-189.415C369.051,-185.709 361.35,-181.468 354.048,-177.447"/>
<polygon fill="black" stroke="black" points="355.565,-174.287 345.117,-172.528 352.188,-180.418 355.565,-174.287"/>
</g>
<!-- preprocessDatasetParameterSetXML2 -->
<g id="node2" class="node"><title>preprocessDatasetParameterSetXML2</title>
<polygon fill="#ab92ea" stroke="black" points="359,-210.5 175,-210.5 175,-189.5 359,-189.5 359,-210.5"/>
<text text-anchor="middle" x="267" y="-197.5" font-family="Helvetica,sans-Serif" font-size="10.00">preprocessDatasetParameterSetXML2</text>
</g>
<!-- preprocessDatasetParameterSetXML2&#45;&gt;parametersXML13 -->
<g id="edge34" class="edge"><title>preprocessDatasetParameterSetXML2&#45;&gt;parametersXML13</title>
<path fill="none" stroke="black" d="M283.435,-189.415C288.933,-185.874 295.19,-181.844 301.182,-177.984"/>
<polygon fill="black" stroke="black" points="303.141,-180.886 309.653,-172.528 299.351,-175.001 303.141,-180.886"/>
</g>
<!-- PreprocessDatasetParameterSetXML3 -->
<g id="node3" class="node"><title>PreprocessDatasetParameterSetXML3</title>
<polygon fill="#ab92ea" stroke="black" points="356,-248.5 170,-248.5 170,-227.5 356,-227.5 356,-248.5"/>
<text text-anchor="middle" x="263" y="-235.5" font-family="Helvetica,sans-Serif" font-size="10.00">PreprocessDatasetParameterSetXML3</text>
</g>
<!-- PreprocessDatasetParameterSetXML3&#45;&gt;preprocessDatasetParameterSetXML2 -->
<g id="edge6" class="edge"><title>PreprocessDatasetParameterSetXML3&#45;&gt;preprocessDatasetParameterSetXML2</title>
<path fill="none" stroke="black" d="M264.136,-227.212C264.348,-225.19 264.578,-223.013 264.81,-220.804"/>
<polygon fill="black" stroke="black" points="268.309,-220.995 265.875,-210.683 261.348,-220.262 268.309,-220.995"/>
</g>
<!-- preProcessTrainingData -->
<g id="node5" class="node"><title>preProcessTrainingData</title>
<polygon fill="#a2cd5a" stroke="black" points="387,-134.5 265,-134.5 265,-113.5 387,-113.5 387,-134.5"/>
<text text-anchor="middle" x="326" y="-121.5" font-family="Helvetica,sans-Serif" font-size="10.00">preProcessTrainingData</text>
</g>
<!-- parametersXML13&#45;&gt;preProcessTrainingData -->
<g id="edge36" class="edge"><title>parametersXML13&#45;&gt;preProcessTrainingData</title>
<path fill="none" stroke="black" d="M326,-151.212C326,-149.19 326,-147.013 326,-144.804"/>
<polygon fill="black" stroke="black" points="329.5,-144.683 326,-134.683 322.5,-144.683 329.5,-144.683"/>
</g>
<!-- parametersXML14 -->
<g id="node6" class="node"><title>parametersXML14</title>
<polygon fill="#ab92ea" stroke="black" points="374,-96.5 278,-96.5 278,-75.5 374,-75.5 374,-96.5"/>
<text text-anchor="middle" x="326" y="-83.5" font-family="Helvetica,sans-Serif" font-size="10.00">parametersXML14</text>
</g>
<!-- preProcessTrainingData&#45;&gt;parametersXML14 -->
<g id="edge38" class="edge"><title>preProcessTrainingData&#45;&gt;parametersXML14</title>
<path fill="none" stroke="black" d="M326,-113.212C326,-111.19 326,-109.013 326,-106.804"/>
<polygon fill="black" stroke="black" points="329.5,-106.683 326,-96.6831 322.5,-106.683 329.5,-106.683"/>
</g>
<!-- WORKFLOWINTERNALSINK_processedData -->
<g id="node24" class="node"><title>WORKFLOWINTERNALSINK_processedData</title>
<polygon fill="#bcd2ee" stroke="black" points="367,-37.5 285,-37.5 285,-16.5 367,-16.5 367,-37.5"/>
<text text-anchor="middle" x="326" y="-24.5" font-family="Helvetica,sans-Serif" font-size="10.00">processedData</text>
</g>
<!-- parametersXML14&#45;&gt;WORKFLOWINTERNALSINK_processedData -->
<g id="edge40" class="edge"><title>parametersXML14&#45;&gt;WORKFLOWINTERNALSINK_processedData</title>
<path fill="none" stroke="black" d="M326,-75.452C326,-67.8285 326,-57.2768 326,-47.966"/>
<polygon fill="black" stroke="black" points="329.5,-47.8558 326,-37.8559 322.5,-47.8559 329.5,-47.8558"/>
</g>
<!-- ceiling -->
<g id="node7" class="node"><title>ceiling</title>
<polygon fill="#b0c4de" stroke="black" points="44,-307.5 2.13163e-14,-307.5 0,-286.5 44,-286.5 44,-307.5"/>
<text text-anchor="middle" x="22" y="-294.5" font-family="Helvetica,sans-Serif" font-size="10.00">ceiling</text>
</g>
<!-- ceiling&#45;&gt;PreprocessDatasetParameterSetXML3 -->
<g id="edge26" class="edge"><title>ceiling&#45;&gt;PreprocessDatasetParameterSetXML3</title>
<path fill="none" stroke="black" d="M44.0248,-287.362C45.3609,-286.877 46.693,-286.419 48,-286 95.2075,-270.881 149.724,-258.767 192.048,-250.491"/>
<polygon fill="black" stroke="black" points="192.826,-253.906 201.982,-248.575 191.5,-247.033 192.826,-253.906"/>
</g>
<!-- ct -->
<g id="node8" class="node"><title>ct</title>
<polygon fill="#b0c4de" stroke="black" points="72,-307.5 48,-307.5 48,-286.5 72,-286.5 72,-307.5"/>
<text text-anchor="middle" x="60" y="-294.5" font-family="Helvetica,sans-Serif" font-size="10.00">ct</text>
</g>
<!-- ct&#45;&gt;PreprocessDatasetParameterSetXML3 -->
<g id="edge30" class="edge"><title>ct&#45;&gt;PreprocessDatasetParameterSetXML3</title>
<path fill="none" stroke="black" d="M72.3287,-287.914C73.5381,-287.21 74.7726,-286.558 76,-286 111.823,-269.71 154.122,-258.266 189.42,-250.649"/>
<polygon fill="black" stroke="black" points="190.586,-253.981 199.656,-248.504 189.151,-247.13 190.586,-253.981"/>
</g>
<!-- filterFlag -->
<g id="node9" class="node"><title>filterFlag</title>
<polygon fill="#b0c4de" stroke="black" points="130,-307.5 76,-307.5 76,-286.5 130,-286.5 130,-307.5"/>
<text text-anchor="middle" x="103" y="-294.5" font-family="Helvetica,sans-Serif" font-size="10.00">filterFlag</text>
</g>
<!-- filterFlag&#45;&gt;PreprocessDatasetParameterSetXML3 -->
<g id="edge28" class="edge"><title>filterFlag&#45;&gt;PreprocessDatasetParameterSetXML3</title>
<path fill="none" stroke="black" d="M130.142,-286.991C156.175,-277.392 195.726,-262.807 224.909,-252.046"/>
<polygon fill="black" stroke="black" points="226.202,-255.3 234.374,-248.556 223.78,-248.732 226.202,-255.3"/>
</g>
<!-- lbt -->
<g id="node10" class="node"><title>lbt</title>
<polygon fill="#b0c4de" stroke="black" points="160,-307.5 134,-307.5 134,-286.5 160,-286.5 160,-307.5"/>
<text text-anchor="middle" x="147" y="-294.5" font-family="Helvetica,sans-Serif" font-size="10.00">lbt</text>
</g>
<!-- lbt&#45;&gt;PreprocessDatasetParameterSetXML3 -->
<g id="edge12" class="edge"><title>lbt&#45;&gt;PreprocessDatasetParameterSetXML3</title>
<path fill="none" stroke="black" d="M160.268,-288.195C161.517,-287.433 162.775,-286.69 164,-286 185.357,-273.973 210.178,-261.943 229.624,-252.935"/>
<polygon fill="black" stroke="black" points="231.348,-255.994 238.977,-248.642 228.428,-249.632 231.348,-255.994"/>
</g>
<!-- msb -->
<g id="node11" class="node"><title>msb</title>
<polygon fill="#b0c4de" stroke="black" points="198,-307.5 164,-307.5 164,-286.5 198,-286.5 198,-307.5"/>
<text text-anchor="middle" x="181" y="-294.5" font-family="Helvetica,sans-Serif" font-size="10.00">msb</text>
</g>
<!-- msb&#45;&gt;PreprocessDatasetParameterSetXML3 -->
<g id="edge20" class="edge"><title>msb&#45;&gt;PreprocessDatasetParameterSetXML3</title>
<path fill="none" stroke="black" d="M195.66,-286.452C207.944,-277.614 225.698,-264.839 239.893,-254.626"/>
<polygon fill="black" stroke="black" points="242.117,-257.337 248.19,-248.656 238.029,-251.655 242.117,-257.337"/>
</g>
<!-- minChange -->
<g id="node12" class="node"><title>minChange</title>
<polygon fill="#b0c4de" stroke="black" points="268,-307.5 202,-307.5 202,-286.5 268,-286.5 268,-307.5"/>
<text text-anchor="middle" x="235" y="-294.5" font-family="Helvetica,sans-Serif" font-size="10.00">minChange</text>
</g>
<!-- minChange&#45;&gt;PreprocessDatasetParameterSetXML3 -->
<g id="edge22" class="edge"><title>minChange&#45;&gt;PreprocessDatasetParameterSetXML3</title>
<path fill="none" stroke="black" d="M240.006,-286.452C243.742,-278.58 248.959,-267.586 253.48,-258.059"/>
<polygon fill="black" stroke="black" points="256.723,-259.391 257.848,-248.856 250.399,-256.39 256.723,-259.391"/>
</g>
<!-- minD -->
<g id="node13" class="node"><title>minD</title>
<polygon fill="#b0c4de" stroke="black" points="312,-307.5 272,-307.5 272,-286.5 312,-286.5 312,-307.5"/>
<text text-anchor="middle" x="292" y="-294.5" font-family="Helvetica,sans-Serif" font-size="10.00">minD</text>
</g>
<!-- minD&#45;&gt;PreprocessDatasetParameterSetXML3 -->
<g id="edge24" class="edge"><title>minD&#45;&gt;PreprocessDatasetParameterSetXML3</title>
<path fill="none" stroke="black" d="M286.815,-286.452C282.946,-278.58 277.542,-267.586 272.86,-258.059"/>
<polygon fill="black" stroke="black" points="275.888,-256.286 268.336,-248.856 269.606,-259.374 275.888,-256.286"/>
</g>
<!-- n -->
<g id="node14" class="node"><title>n</title>
<polygon fill="#b0c4de" stroke="black" points="338,-307.5 316,-307.5 316,-286.5 338,-286.5 338,-307.5"/>
<text text-anchor="middle" x="327" y="-294.5" font-family="Helvetica,sans-Serif" font-size="10.00">n</text>
</g>
<!-- n&#45;&gt;PreprocessDatasetParameterSetXML3 -->
<g id="edge14" class="edge"><title>n&#45;&gt;PreprocessDatasetParameterSetXML3</title>
<path fill="none" stroke="black" d="M315.852,-286.723C306.515,-278.115 292.982,-265.64 281.948,-255.468"/>
<polygon fill="black" stroke="black" points="284.176,-252.761 274.451,-248.557 279.431,-257.908 284.176,-252.761"/>
</g>
<!-- numE -->
<g id="node15" class="node"><title>numE</title>
<polygon fill="#b0c4de" stroke="black" points="384,-307.5 342,-307.5 342,-286.5 384,-286.5 384,-307.5"/>
<text text-anchor="middle" x="363" y="-294.5" font-family="Helvetica,sans-Serif" font-size="10.00">numE</text>
</g>
<!-- numE&#45;&gt;PreprocessDatasetParameterSetXML3 -->
<g id="edge18" class="edge"><title>numE&#45;&gt;PreprocessDatasetParameterSetXML3</title>
<path fill="none" stroke="black" d="M345.122,-286.452C329.718,-277.363 307.259,-264.113 289.72,-253.765"/>
<polygon fill="black" stroke="black" points="291.452,-250.723 281.06,-248.656 287.895,-256.752 291.452,-250.723"/>
</g>
<!-- pFlag -->
<g id="node16" class="node"><title>pFlag</title>
<polygon fill="#b0c4de" stroke="black" points="428,-307.5 388,-307.5 388,-286.5 428,-286.5 428,-307.5"/>
<text text-anchor="middle" x="408" y="-294.5" font-family="Helvetica,sans-Serif" font-size="10.00">pFlag</text>
</g>
<!-- pFlag&#45;&gt;PreprocessDatasetParameterSetXML3 -->
<g id="edge8" class="edge"><title>pFlag&#45;&gt;PreprocessDatasetParameterSetXML3</title>
<path fill="none" stroke="black" d="M387.877,-287.66C386.569,-287.089 385.268,-286.531 384,-286 374.789,-282.139 372.304,-281.633 363,-278 341.641,-269.661 317.8,-260.133 298.755,-252.468"/>
<polygon fill="black" stroke="black" points="299.855,-249.138 289.271,-248.646 297.238,-255.63 299.855,-249.138"/>
</g>
<!-- pt -->
<g id="node17" class="node"><title>pt</title>
<polygon fill="#b0c4de" stroke="black" points="456,-307.5 432,-307.5 432,-286.5 456,-286.5 456,-307.5"/>
<text text-anchor="middle" x="444" y="-294.5" font-family="Helvetica,sans-Serif" font-size="10.00">pt</text>
</g>
<!-- pt&#45;&gt;PreprocessDatasetParameterSetXML3 -->
<g id="edge10" class="edge"><title>pt&#45;&gt;PreprocessDatasetParameterSetXML3</title>
<path fill="none" stroke="black" d="M431.743,-287.743C430.518,-287.075 429.261,-286.478 428,-286 400.783,-275.682 391.191,-285.243 363,-278 339.141,-271.87 313.355,-261.456 293.945,-252.791"/>
<polygon fill="black" stroke="black" points="295.244,-249.536 284.692,-248.577 292.343,-255.907 295.244,-249.536"/>
</g>
<!-- t -->
<g id="node18" class="node"><title>t</title>
<polygon fill="#b0c4de" stroke="black" points="480,-307.5 460,-307.5 460,-286.5 480,-286.5 480,-307.5"/>
<text text-anchor="middle" x="470" y="-294.5" font-family="Helvetica,sans-Serif" font-size="10.00">t</text>
</g>
<!-- t&#45;&gt;PreprocessDatasetParameterSetXML3 -->
<g id="edge16" class="edge"><title>t&#45;&gt;PreprocessDatasetParameterSetXML3</title>
<path fill="none" stroke="black" d="M459.701,-287.89C458.509,-287.152 457.265,-286.499 456,-286 417.411,-270.77 403.363,-287.585 363,-278 338.877,-272.271 312.915,-261.746 293.491,-252.93"/>
<polygon fill="black" stroke="black" points="294.791,-249.674 284.247,-248.639 291.844,-256.023 294.791,-249.674"/>
</g>
<!-- WORKFLOWINTERNALSOURCECONTROL -->
<g id="node20" class="node"><title>WORKFLOWINTERNALSOURCECONTROL</title>
<polygon fill="#ff4040" stroke="black" points="436,-245 429,-234.5 443,-234.5 436,-245"/>
</g>
<!-- WORKFLOWINTERNALSOURCE_rawData -->
<g id="node21" class="node"><title>WORKFLOWINTERNALSOURCE_rawData</title>
<polygon fill="skyblue" stroke="black" points="424,-248.5 372,-248.5 372,-227.5 424,-227.5 424,-248.5"/>
<text text-anchor="middle" x="398" y="-235.5" font-family="Helvetica,sans-Serif" font-size="10.00">rawData</text>
</g>
<!-- WORKFLOWINTERNALSOURCE_rawData&#45;&gt;dataXML1 -->
<g id="edge4" class="edge"><title>WORKFLOWINTERNALSOURCE_rawData&#45;&gt;dataXML1</title>
<path fill="none" stroke="black" d="M397.148,-227.212C396.989,-225.19 396.817,-223.013 396.642,-220.804"/>
<polygon fill="black" stroke="black" points="400.12,-220.377 395.843,-210.683 393.141,-220.928 400.12,-220.377"/>
</g>
<!-- WORKFLOWINTERNALSINKCONTROL -->
<g id="node23" class="node"><title>WORKFLOWINTERNALSINKCONTROL</title>
<polygon fill="#66cd00" stroke="black" points="378,-20 385,-30.5 371,-30.5 378,-20"/>
</g>
</g>
</svg>
