<?xml version="1.0" encoding="UTF-8" standalone="no"?>
<!DOCTYPE svg PUBLIC "-//W3C//DTD SVG 1.1//EN"
 "http://www.w3.org/Graphics/SVG/1.1/DTD/svg11.dtd">
<!-- Generated by graphviz version 2.26.0 (20091210.2329)
 -->
<!-- Title: t2flow_graph Pages: 1 -->
<svg width="357pt" height="218pt"
 viewBox="0.00 0.00 357.00 218.00" xmlns="http://www.w3.org/2000/svg" xmlns:xlink="http://www.w3.org/1999/xlink">
<g id="graph1" class="graph" transform="scale(1 1) rotate(0) translate(4 214)">
<title>t2flow_graph</title>
<polygon fill="white" stroke="white" points="-4,5 -4,-214 354,-214 354,5 -4,5"/>
<g id="graph2" class="cluster"><title>cluster_sources</title>
<polygon fill="none" stroke="black" stroke-dasharray="1,5" points="8,-143 8,-202 292,-202 292,-143 8,-143"/>
<text text-anchor="middle" x="52" y="-189" font-family="Helvetica,sans-Serif" font-size="10.00">Workflow Inputs</text>
</g>
<g id="graph3" class="cluster"><title>cluster_sinks</title>
<polygon fill="none" stroke="black" stroke-dasharray="1,5" points="139,-8 139,-67 341,-67 341,-8 139,-8"/>
<text text-anchor="middle" x="186.5" y="-54" font-family="Helvetica,sans-Serif" font-size="10.00">Workflow Outputs</text>
</g>
<!-- List_from_column -->
<g id="node1" class="node"><title>List_from_column</title>
<polygon fill="white" stroke="black" points="229,-134.5 135,-134.5 135,-113.5 229,-113.5 229,-134.5"/>
<text text-anchor="middle" x="182" y="-121.5" font-family="Helvetica,sans-Serif" font-size="10.00">List_from_column</text>
</g>
<!-- RunScript -->
<g id="node2" class="node"><title>RunScript</title>
<polygon fill="#f28c55" stroke="black" points="239,-96.5 179,-96.5 179,-75.5 239,-75.5 239,-96.5"/>
<text text-anchor="middle" x="209" y="-83.5" font-family="Helvetica,sans-Serif" font-size="10.00">RunScript</text>
</g>
<!-- List_from_column&#45;&gt;RunScript -->
<g id="edge8" class="edge"><title>List_from_column&#45;&gt;RunScript</title>
<path fill="none" stroke="black" d="M189.665,-113.212C191.505,-110.623 193.523,-107.782 195.541,-104.943"/>
<polygon fill="black" stroke="black" points="198.47,-106.862 201.409,-96.6831 192.764,-102.808 198.47,-106.862"/>
</g>
<!-- WORKFLOWINTERNALSINK_Tool_STDOUT -->
<g id="node10" class="node"><title>WORKFLOWINTERNALSINK_Tool_STDOUT</title>
<polygon fill="#bcd2ee" stroke="black" points="315,-37.5 233,-37.5 233,-16.5 315,-16.5 315,-37.5"/>
<text text-anchor="middle" x="274" y="-24.5" font-family="Helvetica,sans-Serif" font-size="10.00">Tool_STDOUT</text>
</g>
<!-- RunScript&#45;&gt;WORKFLOWINTERNALSINK_Tool_STDOUT -->
<g id="edge12" class="edge"><title>RunScript&#45;&gt;WORKFLOWINTERNALSINK_Tool_STDOUT</title>
<path fill="none" stroke="black" d="M220.621,-75.452C230.024,-66.917 243.47,-54.7117 254.515,-44.6866"/>
<polygon fill="black" stroke="black" points="256.988,-47.1686 262.04,-37.8559 252.283,-41.9854 256.988,-47.1686"/>
</g>
<!-- WORKFLOWINTERNALSINK_Tool_STDERR -->
<g id="node11" class="node"><title>WORKFLOWINTERNALSINK_Tool_STDERR</title>
<polygon fill="#bcd2ee" stroke="black" points="229,-37.5 147,-37.5 147,-16.5 229,-16.5 229,-37.5"/>
<text text-anchor="middle" x="188" y="-24.5" font-family="Helvetica,sans-Serif" font-size="10.00">Tool_STDERR</text>
</g>
<!-- RunScript&#45;&gt;WORKFLOWINTERNALSINK_Tool_STDERR -->
<g id="edge14" class="edge"><title>RunScript&#45;&gt;WORKFLOWINTERNALSINK_Tool_STDERR</title>
<path fill="none" stroke="black" d="M205.246,-75.452C202.473,-67.6628 198.613,-56.8166 195.247,-47.3606"/>
<polygon fill="black" stroke="black" points="198.515,-46.1032 191.864,-37.8559 191.92,-48.4506 198.515,-46.1032"/>
</g>
<!-- WORKFLOWINTERNALSOURCECONTROL -->
<g id="node4" class="node"><title>WORKFLOWINTERNALSOURCECONTROL</title>
<polygon fill="#ff4040" stroke="black" points="277,-169 270,-158.5 284,-158.5 277,-169"/>
</g>
<!-- WORKFLOWINTERNALSOURCE_ColumnNameWithScriptFile -->
<g id="node5" class="node"><title>WORKFLOWINTERNALSOURCE_ColumnNameWithScriptFile</title>
<polygon fill="skyblue" stroke="black" points="154,-172.5 16,-172.5 16,-151.5 154,-151.5 154,-172.5"/>
<text text-anchor="middle" x="85" y="-159.5" font-family="Helvetica,sans-Serif" font-size="10.00">ColumnNameWithScriptFile</text>
</g>
<!-- WORKFLOWINTERNALSOURCE_ColumnNameWithScriptFile&#45;&gt;List_from_column -->
<g id="edge6" class="edge"><title>WORKFLOWINTERNALSOURCE_ColumnNameWithScriptFile&#45;&gt;List_from_column</title>
<path fill="none" stroke="black" d="M112.02,-151.415C122.426,-147.338 134.484,-142.614 145.63,-138.248"/>
<polygon fill="black" stroke="black" points="147.091,-141.435 155.125,-134.528 144.537,-134.917 147.091,-141.435"/>
</g>
<!-- WORKFLOWINTERNALSOURCE_votable -->
<g id="node6" class="node"><title>WORKFLOWINTERNALSOURCE_votable</title>
<polygon fill="skyblue" stroke="black" points="206,-172.5 158,-172.5 158,-151.5 206,-151.5 206,-172.5"/>
<text text-anchor="middle" x="182" y="-159.5" font-family="Helvetica,sans-Serif" font-size="10.00">votable</text>
</g>
<!-- WORKFLOWINTERNALSOURCE_votable&#45;&gt;List_from_column -->
<g id="edge4" class="edge"><title>WORKFLOWINTERNALSOURCE_votable&#45;&gt;List_from_column</title>
<path fill="none" stroke="black" d="M182,-151.212C182,-149.19 182,-147.013 182,-144.804"/>
<polygon fill="black" stroke="black" points="185.5,-144.683 182,-134.683 178.5,-144.683 185.5,-144.683"/>
</g>
<!-- WORKFLOWINTERNALSOURCE_irafFolder -->
<g id="node7" class="node"><title>WORKFLOWINTERNALSOURCE_irafFolder</title>
<polygon fill="skyblue" stroke="black" points="266,-172.5 210,-172.5 210,-151.5 266,-151.5 266,-172.5"/>
<text text-anchor="middle" x="238" y="-159.5" font-family="Helvetica,sans-Serif" font-size="10.00">irafFolder</text>
</g>
<!-- WORKFLOWINTERNALSOURCE_irafFolder&#45;&gt;RunScript -->
<g id="edge10" class="edge"><title>WORKFLOWINTERNALSOURCE_irafFolder&#45;&gt;RunScript</title>
<path fill="none" stroke="black" d="M237.775,-151.443C237.217,-141.222 235.447,-125.482 230,-113 228.798,-110.245 227.25,-107.523 225.54,-104.93"/>
<polygon fill="black" stroke="black" points="228.184,-102.623 219.369,-96.7443 222.594,-106.836 228.184,-102.623"/>
</g>
<!-- WORKFLOWINTERNALSINKCONTROL -->
<g id="node9" class="node"><title>WORKFLOWINTERNALSINKCONTROL</title>
<polygon fill="#66cd00" stroke="black" points="326,-20 333,-30.5 319,-30.5 326,-20"/>
</g>
</g>
</svg>
