<?xml version="1.0" encoding="UTF-8" standalone="no"?>
<!DOCTYPE svg PUBLIC "-//W3C//DTD SVG 1.1//EN"
 "http://www.w3.org/Graphics/SVG/1.1/DTD/svg11.dtd">
<!-- Generated by graphviz version 2.26.0 (20091210.2329)
 -->
<!-- Title: t2flow_graph Pages: 1 -->
<svg width="548pt" height="775pt"
 viewBox="0.00 0.00 548.00 775.00" xmlns="http://www.w3.org/2000/svg" xmlns:xlink="http://www.w3.org/1999/xlink">
<g id="graph1" class="graph" transform="scale(1 1) rotate(0) translate(4 771)">
<title>t2flow_graph</title>
<polygon fill="white" stroke="white" points="-4,5 -4,-771 545,-771 545,5 -4,5"/>
<g id="graph2" class="cluster"><title>cluster_readLinesFilereadLinesFile</title>
<polygon fill="aliceblue" stroke="black" points="45,-468 45,-737 297,-737 297,-468 45,-468"/>
<text text-anchor="middle" x="82" y="-724" font-family="Helvetica,sans-Serif" font-size="10.00">readLinesFile</text>
</g>
<g id="graph3" class="cluster"><title>cluster_readLinesFilesources</title>
<polygon fill="none" stroke="black" stroke-dasharray="1,5" points="201,-649 201,-708 289,-708 289,-649 201,-649"/>
<text text-anchor="middle" x="245" y="-695" font-family="Helvetica,sans-Serif" font-size="10.00">Workflow Inputs</text>
</g>
<g id="graph4" class="cluster"><title>cluster_readLinesFilesinks</title>
<polygon fill="none" stroke="black" stroke-dasharray="1,5" points="133,-476 133,-535 228,-535 228,-476 133,-476"/>
<text text-anchor="middle" x="180.5" y="-522" font-family="Helvetica,sans-Serif" font-size="10.00">Workflow Outputs</text>
</g>
<g id="graph5" class="cluster"><title>cluster_sources</title>
<polygon fill="none" stroke="black" stroke-dasharray="1,5" points="260,-257 260,-316 348,-316 348,-257 260,-257"/>
<text text-anchor="middle" x="304" y="-303" font-family="Helvetica,sans-Serif" font-size="10.00">Workflow Inputs</text>
</g>
<g id="graph6" class="cluster"><title>cluster_sinks</title>
<polygon fill="none" stroke="black" stroke-dasharray="1,5" points="268,-8 268,-67 458,-67 458,-8 268,-8"/>
<text text-anchor="middle" x="315.5" y="-54" font-family="Helvetica,sans-Serif" font-size="10.00">Workflow Outputs</text>
</g>
<!-- REST_Service -->
<g id="node1" class="node"><title>REST_Service</title>
<polygon fill="#7aafff" stroke="black" points="212,-459.5 130,-459.5 130,-438.5 212,-438.5 212,-459.5"/>
<text text-anchor="middle" x="171" y="-446.5" font-family="Helvetica,sans-Serif" font-size="10.00">REST_Service</text>
</g>
<!-- Write_Text_File -->
<g id="node3" class="node"><title>Write_Text_File</title>
<polygon fill="#d15fee" stroke="black" points="214,-421.5 128,-421.5 128,-400.5 214,-400.5 214,-421.5"/>
<text text-anchor="middle" x="171" y="-408.5" font-family="Helvetica,sans-Serif" font-size="10.00">Write_Text_File</text>
</g>
<!-- REST_Service&#45;&gt;Write_Text_File -->
<g id="edge29" class="edge"><title>REST_Service&#45;&gt;Write_Text_File</title>
<path fill="none" stroke="black" d="M171,-438.212C171,-436.19 171,-434.013 171,-431.804"/>
<polygon fill="black" stroke="black" points="174.5,-431.683 171,-421.683 167.5,-431.683 174.5,-431.683"/>
</g>
<!-- extractSearchParam -->
<g id="node2" class="node"><title>extractSearchParam</title>
<polygon fill="#f28c55" stroke="black" points="224,-383.5 118,-383.5 118,-362.5 224,-362.5 224,-383.5"/>
<text text-anchor="middle" x="171" y="-370.5" font-family="Helvetica,sans-Serif" font-size="10.00">extractSearchParam</text>
</g>
<!-- REST_Service_2 -->
<g id="node6" class="node"><title>REST_Service_2</title>
<polygon fill="#7aafff" stroke="black" points="220,-345.5 128,-345.5 128,-324.5 220,-324.5 220,-345.5"/>
<text text-anchor="middle" x="174" y="-332.5" font-family="Helvetica,sans-Serif" font-size="10.00">REST_Service_2</text>
</g>
<!-- extractSearchParam&#45;&gt;REST_Service_2 -->
<g id="edge33" class="edge"><title>extractSearchParam&#45;&gt;REST_Service_2</title>
<path fill="none" stroke="black" d="M171.852,-362.212C172.011,-360.19 172.183,-358.013 172.358,-355.804"/>
<polygon fill="black" stroke="black" points="175.859,-355.928 173.157,-345.683 168.88,-355.377 175.859,-355.928"/>
</g>
<!-- Write_Text_File&#45;&gt;extractSearchParam -->
<g id="edge25" class="edge"><title>Write_Text_File&#45;&gt;extractSearchParam</title>
<path fill="none" stroke="black" d="M171,-400.212C171,-398.19 171,-396.013 171,-393.804"/>
<polygon fill="black" stroke="black" points="174.5,-393.683 171,-383.683 167.5,-393.683 174.5,-393.683"/>
</g>
<!-- encoding_value_1 -->
<g id="node4" class="node"><title>encoding_value_1</title>
<polygon fill="#b0c4de" stroke="black" points="310,-459.5 216,-459.5 216,-438.5 310,-438.5 310,-459.5"/>
<text text-anchor="middle" x="263" y="-446.5" font-family="Helvetica,sans-Serif" font-size="10.00">encoding_value_1</text>
</g>
<!-- encoding_value_1&#45;&gt;Write_Text_File -->
<g id="edge27" class="edge"><title>encoding_value_1&#45;&gt;Write_Text_File</title>
<path fill="none" stroke="black" d="M237.373,-438.415C227.603,-434.38 216.297,-429.71 205.816,-425.38"/>
<polygon fill="black" stroke="black" points="207.068,-422.111 196.49,-421.528 204.396,-428.581 207.068,-422.111"/>
</g>
<!-- Write_Text_File_2 -->
<g id="node7" class="node"><title>Write_Text_File_2</title>
<polygon fill="#d15fee" stroke="black" points="252,-286.5 156,-286.5 156,-265.5 252,-265.5 252,-286.5"/>
<text text-anchor="middle" x="204" y="-273.5" font-family="Helvetica,sans-Serif" font-size="10.00">Write_Text_File_2</text>
</g>
<!-- encoding_value_1&#45;&gt;Write_Text_File_2 -->
<g id="edge35" class="edge"><title>encoding_value_1&#45;&gt;Write_Text_File_2</title>
<path fill="none" stroke="black" d="M259.64,-438.248C252.824,-416.551 236.762,-366.018 222,-324 218.77,-314.807 215.011,-304.697 211.765,-296.137"/>
<polygon fill="black" stroke="black" points="214.971,-294.721 208.132,-286.63 208.432,-297.22 214.971,-294.721"/>
</g>
<!-- Write_Text_File_3 -->
<g id="node37" class="node"><title>Write_Text_File_3</title>
<polygon fill="#d15fee" stroke="black" points="442,-134.5 346,-134.5 346,-113.5 442,-113.5 442,-134.5"/>
<text text-anchor="middle" x="394" y="-121.5" font-family="Helvetica,sans-Serif" font-size="10.00">Write_Text_File_3</text>
</g>
<!-- encoding_value_1&#45;&gt;Write_Text_File_3 -->
<g id="edge57" class="edge"><title>encoding_value_1&#45;&gt;Write_Text_File_3</title>
<path fill="none" stroke="black" d="M308.191,-438.427C359.152,-425.158 435,-400.749 435,-373 435,-373 435,-373 435,-200 435,-178.001 438.946,-170.083 428,-151 425.949,-147.424 423.223,-144.144 420.203,-141.197"/>
<polygon fill="black" stroke="black" points="422.222,-138.321 412.311,-134.575 417.722,-143.684 422.222,-138.321"/>
</g>
<!-- outputFile_value -->
<g id="node5" class="node"><title>outputFile_value</title>
<polygon fill="#b0c4de" stroke="black" points="126,-459.5 38,-459.5 38,-438.5 126,-438.5 126,-459.5"/>
<text text-anchor="middle" x="82" y="-446.5" font-family="Helvetica,sans-Serif" font-size="10.00">outputFile_value</text>
</g>
<!-- outputFile_value&#45;&gt;Write_Text_File -->
<g id="edge31" class="edge"><title>outputFile_value&#45;&gt;Write_Text_File</title>
<path fill="none" stroke="black" d="M106.791,-438.415C116.146,-434.421 126.957,-429.805 137.009,-425.513"/>
<polygon fill="black" stroke="black" points="138.519,-428.674 146.341,-421.528 135.77,-422.236 138.519,-428.674"/>
</g>
<!-- REST_Service_2&#45;&gt;Write_Text_File_2 -->
<g id="edge37" class="edge"><title>REST_Service_2&#45;&gt;Write_Text_File_2</title>
<path fill="none" stroke="black" d="M179.363,-324.452C183.366,-316.58 188.957,-305.586 193.8,-296.059"/>
<polygon fill="black" stroke="black" points="197.067,-297.356 198.48,-286.856 190.828,-294.183 197.067,-297.356"/>
</g>
<!-- extractQuantity -->
<g id="node9" class="node"><title>extractQuantity</title>
<polygon fill="#f28c55" stroke="black" points="245,-248.5 163,-248.5 163,-227.5 245,-227.5 245,-248.5"/>
<text text-anchor="middle" x="204" y="-235.5" font-family="Helvetica,sans-Serif" font-size="10.00">extractQuantity</text>
</g>
<!-- Write_Text_File_2&#45;&gt;extractQuantity -->
<g id="edge41" class="edge"><title>Write_Text_File_2&#45;&gt;extractQuantity</title>
<path fill="none" stroke="black" d="M204,-265.212C204,-263.19 204,-261.013 204,-258.804"/>
<polygon fill="black" stroke="black" points="207.5,-258.683 204,-248.683 200.5,-258.683 207.5,-258.683"/>
</g>
<!-- outputFile_value_1 -->
<g id="node8" class="node"><title>outputFile_value_1</title>
<polygon fill="#b0c4de" stroke="black" points="336,-345.5 238,-345.5 238,-324.5 336,-324.5 336,-345.5"/>
<text text-anchor="middle" x="287" y="-332.5" font-family="Helvetica,sans-Serif" font-size="10.00">outputFile_value_1</text>
</g>
<!-- outputFile_value_1&#45;&gt;Write_Text_File_2 -->
<g id="edge39" class="edge"><title>outputFile_value_1&#45;&gt;Write_Text_File_2</title>
<path fill="none" stroke="black" d="M271.241,-324.438C267.231,-321.714 262.941,-318.769 259,-316 248.241,-308.44 236.433,-299.887 226.526,-292.636"/>
<polygon fill="black" stroke="black" points="228.515,-289.754 218.383,-286.657 224.372,-295.397 228.515,-289.754"/>
</g>
<!-- filtering_and_extract_only_float_number -->
<g id="node32" class="node"><title>filtering_and_extract_only_float_number</title>
<polygon fill="#d15fee" stroke="black" points="338,-210.5 150,-210.5 150,-189.5 338,-189.5 338,-210.5"/>
<text text-anchor="middle" x="244" y="-197.5" font-family="Helvetica,sans-Serif" font-size="10.00">filtering_and_extract_only_float_number</text>
</g>
<!-- extractQuantity&#45;&gt;filtering_and_extract_only_float_number -->
<g id="edge49" class="edge"><title>extractQuantity&#45;&gt;filtering_and_extract_only_float_number</title>
<path fill="none" stroke="black" d="M215.355,-227.212C218.507,-224.219 222.013,-220.888 225.46,-217.613"/>
<polygon fill="black" stroke="black" points="227.915,-220.108 232.755,-210.683 223.094,-215.033 227.915,-220.108"/>
</g>
<!-- readLinesFileSelect_File -->
<g id="node11" class="node"><title>readLinesFileSelect_File</title>
<polygon fill="#d15fee" stroke="black" points="205,-640.5 141,-640.5 141,-619.5 205,-619.5 205,-640.5"/>
<text text-anchor="middle" x="173" y="-627.5" font-family="Helvetica,sans-Serif" font-size="10.00">Select_File</text>
</g>
<!-- readLinesFileRead_Text_File -->
<g id="node13" class="node"><title>readLinesFileRead_Text_File</title>
<polygon fill="#d15fee" stroke="black" points="215,-602.5 129,-602.5 129,-581.5 215,-581.5 215,-602.5"/>
<text text-anchor="middle" x="172" y="-589.5" font-family="Helvetica,sans-Serif" font-size="10.00">Read_Text_File</text>
</g>
<!-- readLinesFileSelect_File&#45;&gt;readLinesFileRead_Text_File -->
<g id="edge13" class="edge"><title>readLinesFileSelect_File&#45;&gt;readLinesFileRead_Text_File</title>
<path fill="none" stroke="black" d="M172.716,-619.212C172.663,-617.19 172.606,-615.013 172.547,-612.804"/>
<polygon fill="black" stroke="black" points="176.043,-612.588 172.281,-602.683 169.046,-612.772 176.043,-612.588"/>
</g>
<!-- readLinesFilefileExtensions_value -->
<g id="node12" class="node"><title>readLinesFilefileExtensions_value</title>
<polygon fill="#b0c4de" stroke="black" points="193,-678.5 87,-678.5 87,-657.5 193,-657.5 193,-678.5"/>
<text text-anchor="middle" x="140" y="-665.5" font-family="Helvetica,sans-Serif" font-size="10.00">fileExtensions_value</text>
</g>
<!-- readLinesFilefileExtensions_value&#45;&gt;readLinesFileSelect_File -->
<g id="edge5" class="edge"><title>readLinesFilefileExtensions_value&#45;&gt;readLinesFileSelect_File</title>
<path fill="none" stroke="black" d="M148,-657.212C150.295,-654.461 152.887,-651.426 155.513,-648.41"/>
<polygon fill="black" stroke="black" points="158.347,-650.489 162.358,-640.683 153.107,-645.847 158.347,-650.489"/>
</g>
<!-- readLinesFilefileExtensions_value&#45;&gt;readLinesFileSelect_File -->
<g id="edge7" class="edge"><title>readLinesFilefileExtensions_value&#45;&gt;readLinesFileSelect_File</title>
<path fill="none" stroke="black" d="M150.736,-657.212C153.219,-654.461 155.899,-651.426 158.511,-648.41"/>
<polygon fill="black" stroke="black" points="161.272,-650.567 165.087,-640.683 155.941,-646.031 161.272,-650.567"/>
</g>
<!-- readLinesFileSplit_string_into_string_list_by_regular_expression -->
<g id="node15" class="node"><title>readLinesFileSplit_string_into_string_list_by_regular_expression</title>
<polygon fill="#d15fee" stroke="black" points="289,-564.5 53,-564.5 53,-543.5 289,-543.5 289,-564.5"/>
<text text-anchor="middle" x="171" y="-551.5" font-family="Helvetica,sans-Serif" font-size="10.00">Split_string_into_string_list_by_regular_expression</text>
</g>
<!-- readLinesFileRead_Text_File&#45;&gt;readLinesFileSplit_string_into_string_list_by_regular_expression -->
<g id="edge15" class="edge"><title>readLinesFileRead_Text_File&#45;&gt;readLinesFileSplit_string_into_string_list_by_regular_expression</title>
<path fill="none" stroke="black" d="M171.716,-581.212C171.663,-579.19 171.606,-577.013 171.547,-574.804"/>
<polygon fill="black" stroke="black" points="175.043,-574.588 171.281,-564.683 168.046,-574.772 175.043,-574.588"/>
</g>
<!-- readLinesFileencoding_value -->
<g id="node14" class="node"><title>readLinesFileencoding_value</title>
<polygon fill="#b0c4de" stroke="black" points="137,-640.5 53,-640.5 53,-619.5 137,-619.5 137,-640.5"/>
<text text-anchor="middle" x="95" y="-627.5" font-family="Helvetica,sans-Serif" font-size="10.00">encoding_value</text>
</g>
<!-- readLinesFileencoding_value&#45;&gt;readLinesFileRead_Text_File -->
<g id="edge11" class="edge"><title>readLinesFileencoding_value&#45;&gt;readLinesFileRead_Text_File</title>
<path fill="none" stroke="black" d="M116.449,-619.415C124.208,-615.585 133.126,-611.185 141.513,-607.046"/>
<polygon fill="black" stroke="black" points="143.248,-610.093 150.666,-602.528 140.15,-603.815 143.248,-610.093"/>
</g>
<!-- readLinesFileWORKFLOWINTERNALSINK_lines -->
<g id="node22" class="node"><title>readLinesFileWORKFLOWINTERNALSINK_lines</title>
<polygon fill="#bcd2ee" stroke="black" points="189,-505.5 153,-505.5 153,-484.5 189,-484.5 189,-505.5"/>
<text text-anchor="middle" x="171" y="-492.5" font-family="Helvetica,sans-Serif" font-size="10.00">lines</text>
</g>
<!-- readLinesFileSplit_string_into_string_list_by_regular_expression&#45;&gt;readLinesFileWORKFLOWINTERNALSINK_lines -->
<g id="edge19" class="edge"><title>readLinesFileSplit_string_into_string_list_by_regular_expression&#45;&gt;readLinesFileWORKFLOWINTERNALSINK_lines</title>
<path fill="none" stroke="black" d="M171,-543.452C171,-535.829 171,-525.277 171,-515.966"/>
<polygon fill="black" stroke="black" points="174.5,-515.856 171,-505.856 167.5,-515.856 174.5,-515.856"/>
</g>
<!-- readLinesFileregex_value -->
<g id="node16" class="node"><title>readLinesFileregex_value</title>
<polygon fill="#b0c4de" stroke="black" points="125,-602.5 57,-602.5 57,-581.5 125,-581.5 125,-602.5"/>
<text text-anchor="middle" x="91" y="-589.5" font-family="Helvetica,sans-Serif" font-size="10.00">regex_value</text>
</g>
<!-- readLinesFileregex_value&#45;&gt;readLinesFileSplit_string_into_string_list_by_regular_expression -->
<g id="edge17" class="edge"><title>readLinesFileregex_value&#45;&gt;readLinesFileSplit_string_into_string_list_by_regular_expression</title>
<path fill="none" stroke="black" d="M113.284,-581.415C121.433,-577.544 130.811,-573.09 139.606,-568.912"/>
<polygon fill="black" stroke="black" points="141.304,-571.98 148.835,-564.528 138.301,-565.658 141.304,-571.98"/>
</g>
<!-- readLinesFileWORKFLOWINTERNALSOURCECONTROL -->
<g id="node18" class="node"><title>readLinesFileWORKFLOWINTERNALSOURCECONTROL</title>
<polygon fill="#ff4040" stroke="black" points="263,-675 256,-664.5 270,-664.5 263,-675"/>
</g>
<!-- readLinesFileWORKFLOWINTERNALSOURCE_title -->
<g id="node19" class="node"><title>readLinesFileWORKFLOWINTERNALSOURCE_title</title>
<polygon fill="skyblue" stroke="black" points="241,-678.5 209,-678.5 209,-657.5 241,-657.5 241,-678.5"/>
<text text-anchor="middle" x="225" y="-665.5" font-family="Helvetica,sans-Serif" font-size="10.00">title</text>
</g>
<!-- readLinesFileWORKFLOWINTERNALSOURCE_title&#45;&gt;readLinesFileSelect_File -->
<g id="edge9" class="edge"><title>readLinesFileWORKFLOWINTERNALSOURCE_title&#45;&gt;readLinesFileSelect_File</title>
<path fill="none" stroke="black" d="M214.807,-657.478C211.774,-654.583 208.361,-651.543 205,-649 203.776,-648.074 202.504,-647.156 201.203,-646.253"/>
<polygon fill="black" stroke="black" points="202.706,-643.058 192.406,-640.576 198.91,-648.939 202.706,-643.058"/>
</g>
<!-- readLinesFileWORKFLOWINTERNALSINKCONTROL -->
<g id="node21" class="node"><title>readLinesFileWORKFLOWINTERNALSINKCONTROL</title>
<polygon fill="#66cd00" stroke="black" points="206,-488 213,-498.5 199,-498.5 206,-488"/>
</g>
<!-- readLinesFileWORKFLOWINTERNALSINK_lines&#45;&gt;REST_Service -->
<g id="edge23" class="edge"><title>readLinesFileWORKFLOWINTERNALSINK_lines&#45;&gt;REST_Service</title>
<path fill="none" stroke="black" d="M171,-484.331C171,-480.035 171,-474.923 171,-469.942"/>
<polygon fill="black" stroke="black" points="174.5,-469.611 171,-459.611 167.5,-469.611 174.5,-469.611"/>
</g>
<!-- Names_galaxies -->
<g id="node31" class="node"><title>Names_galaxies</title>
<polygon fill="#b0c4de" stroke="black" points="269,-766.5 181,-766.5 181,-745.5 269,-745.5 269,-766.5"/>
<text text-anchor="middle" x="225" y="-753.5" font-family="Helvetica,sans-Serif" font-size="10.00">Names_galaxies</text>
</g>
<!-- Names_galaxies&#45;&gt;readLinesFileWORKFLOWINTERNALSOURCE_title -->
<g id="edge45" class="edge"><title>Names_galaxies&#45;&gt;readLinesFileWORKFLOWINTERNALSOURCE_title</title>
<path fill="none" stroke="black" d="M225,-745.209C225,-731.213 225,-706.498 225,-688.799"/>
<polygon fill="black" stroke="black" points="228.5,-688.604 225,-678.604 221.5,-688.604 228.5,-688.604"/>
</g>
<!-- Merge_String_List_to_a_String -->
<g id="node35" class="node"><title>Merge_String_List_to_a_String</title>
<polygon fill="#d15fee" stroke="black" points="428,-172.5 278,-172.5 278,-151.5 428,-151.5 428,-172.5"/>
<text text-anchor="middle" x="353" y="-159.5" font-family="Helvetica,sans-Serif" font-size="10.00">Merge_String_List_to_a_String</text>
</g>
<!-- filtering_and_extract_only_float_number&#45;&gt;Merge_String_List_to_a_String -->
<g id="edge53" class="edge"><title>filtering_and_extract_only_float_number&#45;&gt;Merge_String_List_to_a_String</title>
<path fill="none" stroke="black" d="M274.363,-189.415C286.41,-185.215 300.429,-180.327 313.266,-175.852"/>
<polygon fill="black" stroke="black" points="314.51,-179.125 322.8,-172.528 312.205,-172.515 314.51,-179.125"/>
</g>
<!-- regex_value -->
<g id="node33" class="node"><title>regex_value</title>
<polygon fill="#b0c4de" stroke="black" points="317,-248.5 249,-248.5 249,-227.5 317,-227.5 317,-248.5"/>
<text text-anchor="middle" x="283" y="-235.5" font-family="Helvetica,sans-Serif" font-size="10.00">regex_value</text>
</g>
<!-- regex_value&#45;&gt;filtering_and_extract_only_float_number -->
<g id="edge47" class="edge"><title>regex_value&#45;&gt;filtering_and_extract_only_float_number</title>
<path fill="none" stroke="black" d="M271.928,-227.212C268.939,-224.3 265.622,-221.068 262.349,-217.878"/>
<polygon fill="black" stroke="black" points="264.569,-215.155 254.964,-210.683 259.684,-220.169 264.569,-215.155"/>
</g>
<!-- group_value -->
<g id="node34" class="node"><title>group_value</title>
<polygon fill="#b0c4de" stroke="black" points="389,-248.5 321,-248.5 321,-227.5 389,-227.5 389,-248.5"/>
<text text-anchor="middle" x="355" y="-235.5" font-family="Helvetica,sans-Serif" font-size="10.00">group_value</text>
</g>
<!-- group_value&#45;&gt;filtering_and_extract_only_float_number -->
<g id="edge51" class="edge"><title>group_value&#45;&gt;filtering_and_extract_only_float_number</title>
<path fill="none" stroke="black" d="M324.08,-227.415C311.812,-223.215 297.535,-218.327 284.463,-213.852"/>
<polygon fill="black" stroke="black" points="285.348,-210.456 274.754,-210.528 283.081,-217.079 285.348,-210.456"/>
</g>
<!-- Merge_String_List_to_a_String&#45;&gt;Write_Text_File_3 -->
<g id="edge59" class="edge"><title>Merge_String_List_to_a_String&#45;&gt;Write_Text_File_3</title>
<path fill="none" stroke="black" d="M364.639,-151.212C367.869,-148.219 371.463,-144.888 374.997,-141.613"/>
<polygon fill="black" stroke="black" points="377.518,-144.048 382.474,-134.683 372.76,-138.914 377.518,-144.048"/>
</g>
<!-- seperator_value -->
<g id="node36" class="node"><title>seperator_value</title>
<polygon fill="#b0c4de" stroke="black" points="428,-210.5 342,-210.5 342,-189.5 428,-189.5 428,-210.5"/>
<text text-anchor="middle" x="385" y="-197.5" font-family="Helvetica,sans-Serif" font-size="10.00">seperator_value</text>
</g>
<!-- seperator_value&#45;&gt;Merge_String_List_to_a_String -->
<g id="edge55" class="edge"><title>seperator_value&#45;&gt;Merge_String_List_to_a_String</title>
<path fill="none" stroke="black" d="M375.916,-189.212C373.599,-186.461 371.043,-183.426 368.503,-180.41"/>
<polygon fill="black" stroke="black" points="371.115,-178.078 361.996,-172.683 365.76,-182.587 371.115,-178.078"/>
</g>
<!-- Tool -->
<g id="node43" class="node"><title>Tool</title>
<polygon fill="#f28c55" stroke="black" points="331,-96.5 297,-96.5 297,-75.5 331,-75.5 331,-96.5"/>
<text text-anchor="middle" x="314" y="-83.5" font-family="Helvetica,sans-Serif" font-size="10.00">Tool</text>
</g>
<!-- Write_Text_File_3&#45;&gt;Tool -->
<g id="edge71" class="edge"><title>Write_Text_File_3&#45;&gt;Tool</title>
<path fill="none" stroke="black" d="M371.716,-113.415C361.976,-108.788 350.479,-103.328 340.321,-98.5026"/>
<polygon fill="black" stroke="black" points="341.627,-95.2483 331.093,-94.1192 338.624,-101.571 341.627,-95.2483"/>
</g>
<!-- WORKFLOWINTERNALSINK_remoteValues -->
<g id="node49" class="node"><title>WORKFLOWINTERNALSINK_remoteValues</title>
<polygon fill="#bcd2ee" stroke="black" points="432,-37.5 356,-37.5 356,-16.5 432,-16.5 432,-37.5"/>
<text text-anchor="middle" x="394" y="-24.5" font-family="Helvetica,sans-Serif" font-size="10.00">remoteValues</text>
</g>
<!-- Write_Text_File_3&#45;&gt;WORKFLOWINTERNALSINK_remoteValues -->
<g id="edge73" class="edge"><title>Write_Text_File_3&#45;&gt;WORKFLOWINTERNALSINK_remoteValues</title>
<path fill="none" stroke="black" d="M394,-113.249C394,-97.4334 394,-67.6032 394,-47.513"/>
<polygon fill="black" stroke="black" points="397.5,-47.5046 394,-37.5046 390.5,-47.5047 397.5,-47.5046"/>
</g>
<!-- outputFile_value_2 -->
<g id="node38" class="node"><title>outputFile_value_2</title>
<polygon fill="#b0c4de" stroke="black" points="540,-172.5 442,-172.5 442,-151.5 540,-151.5 540,-172.5"/>
<text text-anchor="middle" x="491" y="-159.5" font-family="Helvetica,sans-Serif" font-size="10.00">outputFile_value_2</text>
</g>
<!-- outputFile_value_2&#45;&gt;Write_Text_File_3 -->
<g id="edge61" class="edge"><title>outputFile_value_2&#45;&gt;Write_Text_File_3</title>
<path fill="none" stroke="black" d="M463.98,-151.415C453.574,-147.338 441.516,-142.614 430.37,-138.248"/>
<polygon fill="black" stroke="black" points="431.463,-134.917 420.875,-134.528 428.909,-141.435 431.463,-134.917"/>
</g>
<!-- Select_File -->
<g id="node39" class="node"><title>Select_File</title>
<polygon fill="#d15fee" stroke="black" points="234,-134.5 170,-134.5 170,-113.5 234,-113.5 234,-134.5"/>
<text text-anchor="middle" x="202" y="-121.5" font-family="Helvetica,sans-Serif" font-size="10.00">Select_File</text>
</g>
<!-- Select_File&#45;&gt;Tool -->
<g id="edge69" class="edge"><title>Select_File&#45;&gt;Tool</title>
<path fill="none" stroke="black" d="M233.198,-113.415C250.083,-107.686 270.737,-100.679 286.936,-95.1823"/>
<polygon fill="black" stroke="black" points="288.509,-98.3447 296.854,-91.8173 286.26,-91.7159 288.509,-98.3447"/>
</g>
<!-- fileExtensions_value -->
<g id="node40" class="node"><title>fileExtensions_value</title>
<polygon fill="#b0c4de" stroke="black" points="106,-172.5 5.68434e-14,-172.5 0,-151.5 106,-151.5 106,-172.5"/>
<text text-anchor="middle" x="53" y="-159.5" font-family="Helvetica,sans-Serif" font-size="10.00">fileExtensions_value</text>
</g>
<!-- fileExtensions_value&#45;&gt;Select_File -->
<g id="edge63" class="edge"><title>fileExtensions_value&#45;&gt;Select_File</title>
<path fill="none" stroke="black" d="M94.5048,-151.415C114.929,-146.206 139.499,-139.94 159.991,-134.714"/>
<polygon fill="black" stroke="black" points="160.862,-138.104 169.686,-132.241 159.132,-131.321 160.862,-138.104"/>
</g>
<!-- fileExtLabels_value -->
<g id="node41" class="node"><title>fileExtLabels_value</title>
<polygon fill="#b0c4de" stroke="black" points="210,-172.5 110,-172.5 110,-151.5 210,-151.5 210,-172.5"/>
<text text-anchor="middle" x="160" y="-159.5" font-family="Helvetica,sans-Serif" font-size="10.00">fileExtLabels_value</text>
</g>
<!-- fileExtLabels_value&#45;&gt;Select_File -->
<g id="edge65" class="edge"><title>fileExtLabels_value&#45;&gt;Select_File</title>
<path fill="none" stroke="black" d="M171.923,-151.212C175.232,-148.219 178.913,-144.888 182.533,-141.613"/>
<polygon fill="black" stroke="black" points="185.125,-143.988 190.192,-134.683 180.429,-138.797 185.125,-143.988"/>
</g>
<!-- title_value -->
<g id="node42" class="node"><title>title_value</title>
<polygon fill="#b0c4de" stroke="black" points="274,-172.5 214,-172.5 214,-151.5 274,-151.5 274,-172.5"/>
<text text-anchor="middle" x="244" y="-159.5" font-family="Helvetica,sans-Serif" font-size="10.00">title_value</text>
</g>
<!-- title_value&#45;&gt;Select_File -->
<g id="edge67" class="edge"><title>title_value&#45;&gt;Select_File</title>
<path fill="none" stroke="black" d="M232.077,-151.212C228.768,-148.219 225.087,-144.888 221.467,-141.613"/>
<polygon fill="black" stroke="black" points="223.571,-138.797 213.808,-134.683 218.875,-143.988 223.571,-138.797"/>
</g>
<!-- WORKFLOWINTERNALSINK_comparingFile -->
<g id="node50" class="node"><title>WORKFLOWINTERNALSINK_comparingFile</title>
<polygon fill="#bcd2ee" stroke="black" points="352,-37.5 276,-37.5 276,-16.5 352,-16.5 352,-37.5"/>
<text text-anchor="middle" x="314" y="-24.5" font-family="Helvetica,sans-Serif" font-size="10.00">comparingFile</text>
</g>
<!-- Tool&#45;&gt;WORKFLOWINTERNALSINK_comparingFile -->
<g id="edge75" class="edge"><title>Tool&#45;&gt;WORKFLOWINTERNALSINK_comparingFile</title>
<path fill="none" stroke="black" d="M314,-75.452C314,-67.8285 314,-57.2768 314,-47.966"/>
<polygon fill="black" stroke="black" points="317.5,-47.8558 314,-37.8559 310.5,-47.8559 317.5,-47.8558"/>
</g>
<!-- WORKFLOWINTERNALSOURCECONTROL -->
<g id="node45" class="node"><title>WORKFLOWINTERNALSOURCECONTROL</title>
<polygon fill="#ff4040" stroke="black" points="332,-283 325,-272.5 339,-272.5 332,-283"/>
</g>
<!-- WORKFLOWINTERNALSOURCE_property -->
<g id="node46" class="node"><title>WORKFLOWINTERNALSOURCE_property</title>
<polygon fill="skyblue" stroke="black" points="320,-286.5 268,-286.5 268,-265.5 320,-265.5 320,-286.5"/>
<text text-anchor="middle" x="294" y="-273.5" font-family="Helvetica,sans-Serif" font-size="10.00">property</text>
</g>
<!-- WORKFLOWINTERNALSOURCE_property&#45;&gt;extractQuantity -->
<g id="edge43" class="edge"><title>WORKFLOWINTERNALSOURCE_property&#45;&gt;extractQuantity</title>
<path fill="none" stroke="black" d="M278.862,-265.347C274.232,-262.385 269.03,-259.341 264,-257 260.155,-255.21 256.097,-253.527 251.979,-251.958"/>
<polygon fill="black" stroke="black" points="252.926,-248.58 242.332,-248.511 250.571,-255.172 252.926,-248.58"/>
</g>
<!-- WORKFLOWINTERNALSINKCONTROL -->
<g id="node48" class="node"><title>WORKFLOWINTERNALSINKCONTROL</title>
<polygon fill="#66cd00" stroke="black" points="443,-20 450,-30.5 436,-30.5 443,-20"/>
</g>
</g>
</svg>
