<?xml version="1.0" encoding="UTF-8" standalone="no"?>
<!DOCTYPE svg PUBLIC "-//W3C//DTD SVG 1.1//EN"
 "http://www.w3.org/Graphics/SVG/1.1/DTD/svg11.dtd">
<!-- Generated by graphviz version 2.26.0 (20091210.2329)
 -->
<!-- Title: t2flow_graph Pages: 1 -->
<svg width="166pt" height="294pt"
 viewBox="0.00 0.00 166.00 294.00" xmlns="http://www.w3.org/2000/svg" xmlns:xlink="http://www.w3.org/1999/xlink">
<g id="graph1" class="graph" transform="scale(1 1) rotate(0) translate(4 290)">
<title>t2flow_graph</title>
<polygon fill="white" stroke="white" points="-4,5 -4,-290 163,-290 163,5 -4,5"/>
<g id="graph2" class="cluster"><title>cluster_sources</title>
<polygon fill="none" stroke="black" stroke-dasharray="1,5" points="8,-219 8,-278 150,-278 150,-219 8,-219"/>
<text text-anchor="middle" x="52" y="-265" font-family="Helvetica,sans-Serif" font-size="10.00">Workflow Inputs</text>
</g>
<g id="graph3" class="cluster"><title>cluster_sinks</title>
<polygon fill="none" stroke="black" stroke-dasharray="1,5" points="14,-8 14,-67 144,-67 144,-8 14,-8"/>
<text text-anchor="middle" x="61.5" y="-54" font-family="Helvetica,sans-Serif" font-size="10.00">Workflow Outputs</text>
</g>
<!-- cleanTextASCII -->
<g id="node1" class="node"><title>cleanTextASCII</title>
<polygon fill="#a2cd5a" stroke="black" points="113,-134.5 27,-134.5 27,-113.5 113,-113.5 113,-134.5"/>
<text text-anchor="middle" x="70" y="-121.5" font-family="Helvetica,sans-Serif" font-size="10.00">cleanTextASCII</text>
</g>
<!-- cleanTextASCII_output -->
<g id="node3" class="node"><title>cleanTextASCII_output</title>
<polygon fill="#ab92ea" stroke="black" points="129,-96.5 11,-96.5 11,-75.5 129,-75.5 129,-96.5"/>
<text text-anchor="middle" x="70" y="-83.5" font-family="Helvetica,sans-Serif" font-size="10.00">cleanTextASCII_output</text>
</g>
<!-- cleanTextASCII&#45;&gt;cleanTextASCII_output -->
<g id="edge8" class="edge"><title>cleanTextASCII&#45;&gt;cleanTextASCII_output</title>
<path fill="none" stroke="black" d="M70,-113.212C70,-111.19 70,-109.013 70,-106.804"/>
<polygon fill="black" stroke="black" points="73.5001,-106.683 70,-96.6831 66.5001,-106.683 73.5001,-106.683"/>
</g>
<!-- cleanTextASCII_input -->
<g id="node2" class="node"><title>cleanTextASCII_input</title>
<polygon fill="#ab92ea" stroke="black" points="126,-172.5 14,-172.5 14,-151.5 126,-151.5 126,-172.5"/>
<text text-anchor="middle" x="70" y="-159.5" font-family="Helvetica,sans-Serif" font-size="10.00">cleanTextASCII_input</text>
</g>
<!-- cleanTextASCII_input&#45;&gt;cleanTextASCII -->
<g id="edge4" class="edge"><title>cleanTextASCII_input&#45;&gt;cleanTextASCII</title>
<path fill="none" stroke="black" d="M70,-151.212C70,-149.19 70,-147.013 70,-144.804"/>
<polygon fill="black" stroke="black" points="73.5001,-144.683 70,-134.683 66.5001,-144.683 73.5001,-144.683"/>
</g>
<!-- WORKFLOWINTERNALSINK_cleanedTextASCII -->
<g id="node10" class="node"><title>WORKFLOWINTERNALSINK_cleanedTextASCII</title>
<polygon fill="#bcd2ee" stroke="black" points="118,-37.5 22,-37.5 22,-16.5 118,-16.5 118,-37.5"/>
<text text-anchor="middle" x="70" y="-24.5" font-family="Helvetica,sans-Serif" font-size="10.00">cleanedTextASCII</text>
</g>
<!-- cleanTextASCII_output&#45;&gt;WORKFLOWINTERNALSINK_cleanedTextASCII -->
<g id="edge12" class="edge"><title>cleanTextASCII_output&#45;&gt;WORKFLOWINTERNALSINK_cleanedTextASCII</title>
<path fill="none" stroke="black" d="M70,-75.452C70,-67.8285 70,-57.2768 70,-47.966"/>
<polygon fill="black" stroke="black" points="73.5001,-47.8558 70,-37.8559 66.5001,-47.8559 73.5001,-47.8558"/>
</g>
<!-- encodeByteArrayToBase64 -->
<g id="node4" class="node"><title>encodeByteArrayToBase64</title>
<polygon fill="#d15fee" stroke="black" points="138,-210.5 2,-210.5 2,-189.5 138,-189.5 138,-210.5"/>
<text text-anchor="middle" x="70" y="-197.5" font-family="Helvetica,sans-Serif" font-size="10.00">encodeByteArrayToBase64</text>
</g>
<!-- encodeByteArrayToBase64&#45;&gt;cleanTextASCII_input -->
<g id="edge6" class="edge"><title>encodeByteArrayToBase64&#45;&gt;cleanTextASCII_input</title>
<path fill="none" stroke="black" d="M70,-189.212C70,-187.19 70,-185.013 70,-182.804"/>
<polygon fill="black" stroke="black" points="73.5001,-182.683 70,-172.683 66.5001,-182.683 73.5001,-182.683"/>
</g>
<!-- WORKFLOWINTERNALSOURCECONTROL -->
<g id="node6" class="node"><title>WORKFLOWINTERNALSOURCECONTROL</title>
<polygon fill="#ff4040" stroke="black" points="135,-245 128,-234.5 142,-234.5 135,-245"/>
</g>
<!-- WORKFLOWINTERNALSOURCE_plainTextForCleaning -->
<g id="node7" class="node"><title>WORKFLOWINTERNALSOURCE_plainTextForCleaning</title>
<polygon fill="skyblue" stroke="black" points="124,-248.5 16,-248.5 16,-227.5 124,-227.5 124,-248.5"/>
<text text-anchor="middle" x="70" y="-235.5" font-family="Helvetica,sans-Serif" font-size="10.00">plainTextForCleaning</text>
</g>
<!-- WORKFLOWINTERNALSOURCE_plainTextForCleaning&#45;&gt;encodeByteArrayToBase64 -->
<g id="edge10" class="edge"><title>WORKFLOWINTERNALSOURCE_plainTextForCleaning&#45;&gt;encodeByteArrayToBase64</title>
<path fill="none" stroke="black" d="M70,-227.212C70,-225.19 70,-223.013 70,-220.804"/>
<polygon fill="black" stroke="black" points="73.5001,-220.683 70,-210.683 66.5001,-220.683 73.5001,-220.683"/>
</g>
<!-- WORKFLOWINTERNALSINKCONTROL -->
<g id="node9" class="node"><title>WORKFLOWINTERNALSINKCONTROL</title>
<polygon fill="#66cd00" stroke="black" points="129,-20 136,-30.5 122,-30.5 129,-20"/>
</g>
</g>
</svg>
