<?xml version="1.0" encoding="UTF-8" standalone="no"?>
<!DOCTYPE svg PUBLIC "-//W3C//DTD SVG 1.1//EN"
 "http://www.w3.org/Graphics/SVG/1.1/DTD/svg11.dtd">
<!-- Generated by graphviz version 2.26.0 (20091210.2329)
 -->
<!-- Title: t2flow_graph Pages: 1 -->
<svg width="208pt" height="256pt"
 viewBox="0.00 0.00 208.00 256.00" xmlns="http://www.w3.org/2000/svg" xmlns:xlink="http://www.w3.org/1999/xlink">
<g id="graph1" class="graph" transform="scale(1 1) rotate(0) translate(4 252)">
<title>t2flow_graph</title>
<polygon fill="white" stroke="white" points="-4,5 -4,-252 205,-252 205,5 -4,5"/>
<g id="graph2" class="cluster"><title>cluster_sources</title>
<polygon fill="none" stroke="black" stroke-dasharray="1,5" points="51,-181 51,-240 171,-240 171,-181 51,-181"/>
<text text-anchor="middle" x="95" y="-227" font-family="Helvetica,sans-Serif" font-size="10.00">Workflow Inputs</text>
</g>
<g id="graph3" class="cluster"><title>cluster_sinks</title>
<polygon fill="none" stroke="black" stroke-dasharray="1,5" points="8,-8 8,-67 192,-67 192,-8 8,-8"/>
<text text-anchor="middle" x="55.5" y="-54" font-family="Helvetica,sans-Serif" font-size="10.00">Workflow Outputs</text>
</g>
<!-- getKEGGGenesByPathway -->
<g id="node1" class="node"><title>getKEGGGenesByPathway</title>
<polygon fill="white" stroke="black" points="170,-172.5 34,-172.5 34,-151.5 170,-151.5 170,-172.5"/>
<text text-anchor="middle" x="102" y="-159.5" font-family="Helvetica,sans-Serif" font-size="10.00">getKEGGGenesByPathway</text>
</g>
<!-- getUniprotByKeggGene -->
<g id="node2" class="node"><title>getUniprotByKeggGene</title>
<polygon fill="white" stroke="black" points="140,-134.5 22,-134.5 22,-113.5 140,-113.5 140,-134.5"/>
<text text-anchor="middle" x="81" y="-121.5" font-family="Helvetica,sans-Serif" font-size="10.00">getUniprotByKeggGene</text>
</g>
<!-- getKEGGGenesByPathway&#45;&gt;getUniprotByKeggGene -->
<g id="edge6" class="edge"><title>getKEGGGenesByPathway&#45;&gt;getUniprotByKeggGene</title>
<path fill="none" stroke="black" d="M96.0384,-151.212C94.697,-148.785 93.2332,-146.136 91.7625,-143.475"/>
<polygon fill="black" stroke="black" points="94.8041,-141.743 86.9038,-134.683 88.6774,-145.128 94.8041,-141.743"/>
</g>
<!-- WORKFLOWINTERNALSINK_gene -->
<g id="node9" class="node"><title>WORKFLOWINTERNALSINK_gene</title>
<polygon fill="#bcd2ee" stroke="black" points="166,-37.5 128,-37.5 128,-16.5 166,-16.5 166,-37.5"/>
<text text-anchor="middle" x="147" y="-24.5" font-family="Helvetica,sans-Serif" font-size="10.00">gene</text>
</g>
<!-- getKEGGGenesByPathway&#45;&gt;WORKFLOWINTERNALSINK_gene -->
<g id="edge10" class="edge"><title>getKEGGGenesByPathway&#45;&gt;WORKFLOWINTERNALSINK_gene</title>
<path fill="none" stroke="black" d="M123.541,-151.494C129.925,-147.278 136.215,-141.785 140,-135 155.183,-107.785 153.631,-70.5005 150.655,-47.6181"/>
<polygon fill="black" stroke="black" points="154.103,-47.0131 149.147,-37.6491 147.182,-48.0602 154.103,-47.0131"/>
</g>
<!-- UniProt info -->
<g id="node3" class="node"><title>UniProt info</title>
<polygon fill="white" stroke="black" points="83,-96.5 15,-96.5 15,-75.5 83,-75.5 83,-96.5"/>
<text text-anchor="middle" x="49" y="-83.5" font-family="Helvetica,sans-Serif" font-size="10.00">UniProt info</text>
</g>
<!-- getUniprotByKeggGene&#45;&gt;UniProt info -->
<g id="edge8" class="edge"><title>getUniprotByKeggGene&#45;&gt;UniProt info</title>
<path fill="none" stroke="black" d="M71.9157,-113.212C69.599,-110.461 67.0429,-107.426 64.5034,-104.41"/>
<polygon fill="black" stroke="black" points="67.1149,-102.078 57.9963,-96.6831 61.7605,-106.587 67.1149,-102.078"/>
</g>
<!-- WORKFLOWINTERNALSINK_protein -->
<g id="node10" class="node"><title>WORKFLOWINTERNALSINK_protein</title>
<polygon fill="#bcd2ee" stroke="black" points="124,-37.5 78,-37.5 78,-16.5 124,-16.5 124,-37.5"/>
<text text-anchor="middle" x="101" y="-24.5" font-family="Helvetica,sans-Serif" font-size="10.00">protein</text>
</g>
<!-- getUniprotByKeggGene&#45;&gt;WORKFLOWINTERNALSINK_protein -->
<g id="edge12" class="edge"><title>getUniprotByKeggGene&#45;&gt;WORKFLOWINTERNALSINK_protein</title>
<path fill="none" stroke="black" d="M83.2168,-113.249C86.4777,-97.4334 92.6282,-67.6032 96.7705,-47.513"/>
<polygon fill="black" stroke="black" points="100.243,-48.0054 98.8341,-37.5046 93.3867,-46.5918 100.243,-48.0054"/>
</g>
<!-- WORKFLOWINTERNALSINK_sequence -->
<g id="node11" class="node"><title>WORKFLOWINTERNALSINK_sequence</title>
<polygon fill="#bcd2ee" stroke="black" points="74,-37.5 16,-37.5 16,-16.5 74,-16.5 74,-37.5"/>
<text text-anchor="middle" x="45" y="-24.5" font-family="Helvetica,sans-Serif" font-size="10.00">sequence</text>
</g>
<!-- UniProt info&#45;&gt;WORKFLOWINTERNALSINK_sequence -->
<g id="edge14" class="edge"><title>UniProt info&#45;&gt;WORKFLOWINTERNALSINK_sequence</title>
<path fill="none" stroke="black" d="M48.2849,-75.452C47.768,-67.8285 47.0527,-57.2768 46.4214,-47.966"/>
<polygon fill="black" stroke="black" points="49.9045,-47.5962 45.736,-37.8559 42.9205,-48.0697 49.9045,-47.5962"/>
</g>
<!-- WORKFLOWINTERNALSOURCECONTROL -->
<g id="node5" class="node"><title>WORKFLOWINTERNALSOURCECONTROL</title>
<polygon fill="#ff4040" stroke="black" points="156,-207 149,-196.5 163,-196.5 156,-207"/>
</g>
<!-- WORKFLOWINTERNALSOURCE_KEGG_pathway -->
<g id="node6" class="node"><title>WORKFLOWINTERNALSOURCE_KEGG_pathway</title>
<polygon fill="skyblue" stroke="black" points="145,-210.5 59,-210.5 59,-189.5 145,-189.5 145,-210.5"/>
<text text-anchor="middle" x="102" y="-197.5" font-family="Helvetica,sans-Serif" font-size="10.00">KEGG_pathway</text>
</g>
<!-- WORKFLOWINTERNALSOURCE_KEGG_pathway&#45;&gt;getKEGGGenesByPathway -->
<g id="edge4" class="edge"><title>WORKFLOWINTERNALSOURCE_KEGG_pathway&#45;&gt;getKEGGGenesByPathway</title>
<path fill="none" stroke="black" d="M102,-189.212C102,-187.19 102,-185.013 102,-182.804"/>
<polygon fill="black" stroke="black" points="105.5,-182.683 102,-172.683 98.5001,-182.683 105.5,-182.683"/>
</g>
<!-- WORKFLOWINTERNALSINKCONTROL -->
<g id="node8" class="node"><title>WORKFLOWINTERNALSINKCONTROL</title>
<polygon fill="#66cd00" stroke="black" points="177,-20 184,-30.5 170,-30.5 177,-20"/>
</g>
</g>
</svg>
