<?xml version="1.0" encoding="UTF-8" standalone="no"?>
<!DOCTYPE svg PUBLIC "-//W3C//DTD SVG 1.1//EN"
 "http://www.w3.org/Graphics/SVG/1.1/DTD/svg11.dtd">
<!-- Generated by graphviz version 2.26.0 (20091210.2329)
 -->
<!-- Title: t2flow_graph Pages: 1 -->
<svg width="446pt" height="218pt"
 viewBox="0.00 0.00 446.00 218.00" xmlns="http://www.w3.org/2000/svg" xmlns:xlink="http://www.w3.org/1999/xlink">
<g id="graph1" class="graph" transform="scale(1 1) rotate(0) translate(4 214)">
<title>t2flow_graph</title>
<polygon fill="white" stroke="white" points="-4,5 -4,-214 443,-214 443,5 -4,5"/>
<g id="graph2" class="cluster"><title>cluster_sources</title>
<polygon fill="none" stroke="black" stroke-dasharray="1,5" points="8,-143 8,-202 430,-202 430,-143 8,-143"/>
<text text-anchor="middle" x="52" y="-189" font-family="Helvetica,sans-Serif" font-size="10.00">Workflow Inputs</text>
</g>
<g id="graph3" class="cluster"><title>cluster_sinks</title>
<polygon fill="none" stroke="black" stroke-dasharray="1,5" points="33,-8 33,-67 281,-67 281,-8 33,-8"/>
<text text-anchor="middle" x="80.5" y="-54" font-family="Helvetica,sans-Serif" font-size="10.00">Workflow Outputs</text>
</g>
<!-- Text_File_Writer -->
<g id="node1" class="node"><title>Text_File_Writer</title>
<polygon fill="white" stroke="black" points="134,-96.5 46,-96.5 46,-75.5 134,-75.5 134,-96.5"/>
<text text-anchor="middle" x="90" y="-83.5" font-family="Helvetica,sans-Serif" font-size="10.00">Text_File_Writer</text>
</g>
<!-- WORKFLOWINTERNALSINK_SDF_of_Fragments -->
<g id="node16" class="node"><title>WORKFLOWINTERNALSINK_SDF_of_Fragments</title>
<polygon fill="#bcd2ee" stroke="black" points="143,-37.5 41,-37.5 41,-16.5 143,-16.5 143,-37.5"/>
<text text-anchor="middle" x="92" y="-24.5" font-family="Helvetica,sans-Serif" font-size="10.00">SDF_of_Fragments</text>
</g>
<!-- Text_File_Writer&#45;&gt;WORKFLOWINTERNALSINK_SDF_of_Fragments -->
<g id="edge24" class="edge"><title>Text_File_Writer&#45;&gt;WORKFLOWINTERNALSINK_SDF_of_Fragments</title>
<path fill="none" stroke="black" d="M90.3576,-75.452C90.616,-67.8285 90.9737,-57.2768 91.2893,-47.966"/>
<polygon fill="black" stroke="black" points="94.7911,-47.9687 91.632,-37.8559 87.7951,-47.7315 94.7911,-47.9687"/>
</g>
<!-- SDFile_Writer -->
<g id="node2" class="node"><title>SDFile_Writer</title>
<polygon fill="white" stroke="black" points="216,-96.5 138,-96.5 138,-75.5 216,-75.5 216,-96.5"/>
<text text-anchor="middle" x="177" y="-83.5" font-family="Helvetica,sans-Serif" font-size="10.00">SDFile_Writer</text>
</g>
<!-- WORKFLOWINTERNALSINK_Score_file -->
<g id="node15" class="node"><title>WORKFLOWINTERNALSINK_Score_file</title>
<polygon fill="#bcd2ee" stroke="black" points="207,-37.5 147,-37.5 147,-16.5 207,-16.5 207,-37.5"/>
<text text-anchor="middle" x="177" y="-24.5" font-family="Helvetica,sans-Serif" font-size="10.00">Score_file</text>
</g>
<!-- SDFile_Writer&#45;&gt;WORKFLOWINTERNALSINK_Score_file -->
<g id="edge22" class="edge"><title>SDFile_Writer&#45;&gt;WORKFLOWINTERNALSINK_Score_file</title>
<path fill="none" stroke="black" d="M177,-75.452C177,-67.8285 177,-57.2768 177,-47.966"/>
<polygon fill="black" stroke="black" points="180.5,-47.8558 177,-37.8559 173.5,-47.8559 180.5,-47.8558"/>
</g>
<!-- Natural_product_likeness_calculator -->
<g id="node3" class="node"><title>Natural_product_likeness_calculator</title>
<polygon fill="white" stroke="black" points="264,-134.5 90,-134.5 90,-113.5 264,-113.5 264,-134.5"/>
<text text-anchor="middle" x="177" y="-121.5" font-family="Helvetica,sans-Serif" font-size="10.00">Natural_product_likeness_calculator</text>
</g>
<!-- Natural_product_likeness_calculator&#45;&gt;Text_File_Writer -->
<g id="edge6" class="edge"><title>Natural_product_likeness_calculator&#45;&gt;Text_File_Writer</title>
<path fill="none" stroke="black" d="M151.405,-113.415C142.215,-109.462 131.736,-104.9 122.067,-100.646"/>
<polygon fill="black" stroke="black" points="123.307,-97.3675 112.746,-96.5284 120.479,-103.771 123.307,-97.3675"/>
</g>
<!-- Natural_product_likeness_calculator&#45;&gt;Text_File_Writer -->
<g id="edge28" class="edge"><title>Natural_product_likeness_calculator&#45;&gt;Text_File_Writer</title>
<path fill="none" stroke="gray" d="M154.126,-113.415C144.566,-109.174 133.28,-104.232 122.86,-99.7206"/>
<ellipse fill="none" stroke="gray" cx="119.136" cy="-98.1133" rx="4.00002" ry="4.00002"/>
</g>
<!-- Natural_product_likeness_calculator&#45;&gt;SDFile_Writer -->
<g id="edge30" class="edge"><title>Natural_product_likeness_calculator&#45;&gt;SDFile_Writer</title>
<path fill="none" stroke="gray" d="M175.632,-113.212C175.543,-110.623 175.499,-107.782 175.5,-104.943"/>
<ellipse fill="none" stroke="gray" cx="175.57" cy="-100.683" rx="4" ry="4"/>
</g>
<!-- Natural_product_likeness_calculator&#45;&gt;SDFile_Writer -->
<g id="edge10" class="edge"><title>Natural_product_likeness_calculator&#45;&gt;SDFile_Writer</title>
<path fill="none" stroke="black" d="M178.368,-113.212C178.437,-111.19 178.479,-109.013 178.494,-106.804"/>
<polygon fill="black" stroke="black" points="181.992,-106.637 178.364,-96.6831 174.993,-106.727 181.992,-106.637"/>
</g>
<!-- SMILES_File_Writer -->
<g id="node4" class="node"><title>SMILES_File_Writer</title>
<polygon fill="white" stroke="black" points="326,-96.5 220,-96.5 220,-75.5 326,-75.5 326,-96.5"/>
<text text-anchor="middle" x="273" y="-83.5" font-family="Helvetica,sans-Serif" font-size="10.00">SMILES_File_Writer</text>
</g>
<!-- Natural_product_likeness_calculator&#45;&gt;SMILES_File_Writer -->
<g id="edge32" class="edge"><title>Natural_product_likeness_calculator&#45;&gt;SMILES_File_Writer</title>
<path fill="none" stroke="gray" d="M202.381,-113.415C213.15,-109.091 225.886,-104.039 237.558,-99.4583"/>
<ellipse fill="none" stroke="gray" cx="241.319" cy="-97.9864" rx="4.00001" ry="4.00001"/>
</g>
<!-- Natural_product_likeness_calculator&#45;&gt;SMILES_File_Writer -->
<g id="edge18" class="edge"><title>Natural_product_likeness_calculator&#45;&gt;SMILES_File_Writer</title>
<path fill="none" stroke="black" d="M205.102,-113.415C215.545,-109.338 227.511,-104.614 238.462,-100.248"/>
<polygon fill="black" stroke="black" points="239.776,-103.492 247.761,-96.5284 237.176,-96.993 239.776,-103.492"/>
</g>
<!-- WORKFLOWINTERNALSINK_smiles -->
<g id="node17" class="node"><title>WORKFLOWINTERNALSINK_smiles</title>
<polygon fill="#bcd2ee" stroke="black" points="255,-37.5 211,-37.5 211,-16.5 255,-16.5 255,-37.5"/>
<text text-anchor="middle" x="233" y="-24.5" font-family="Helvetica,sans-Serif" font-size="10.00">smiles</text>
</g>
<!-- SMILES_File_Writer&#45;&gt;WORKFLOWINTERNALSINK_smiles -->
<g id="edge26" class="edge"><title>SMILES_File_Writer&#45;&gt;WORKFLOWINTERNALSINK_smiles</title>
<path fill="none" stroke="black" d="M264.893,-75.2278C262.933,-72.5608 260.866,-69.6948 259,-67 254.332,-60.259 249.386,-52.7497 245.075,-46.0744"/>
<polygon fill="black" stroke="black" points="248.015,-44.1751 239.676,-37.6393 242.119,-47.9486 248.015,-44.1751"/>
</g>
<!-- WORKFLOWINTERNALSOURCECONTROL -->
<g id="node6" class="node"><title>WORKFLOWINTERNALSOURCECONTROL</title>
<polygon fill="#ff4040" stroke="black" points="415,-169 408,-158.5 422,-158.5 415,-169"/>
</g>
<!-- WORKFLOWINTERNALSOURCE_NP_file -->
<g id="node7" class="node"><title>WORKFLOWINTERNALSOURCE_NP_file</title>
<polygon fill="skyblue" stroke="black" points="246,-172.5 198,-172.5 198,-151.5 246,-151.5 246,-172.5"/>
<text text-anchor="middle" x="222" y="-159.5" font-family="Helvetica,sans-Serif" font-size="10.00">NP_file</text>
</g>
<!-- WORKFLOWINTERNALSOURCE_NP_file&#45;&gt;Natural_product_likeness_calculator -->
<g id="edge16" class="edge"><title>WORKFLOWINTERNALSOURCE_NP_file&#45;&gt;Natural_product_likeness_calculator</title>
<path fill="none" stroke="black" d="M209.225,-151.212C205.584,-148.138 201.522,-144.708 197.543,-141.347"/>
<polygon fill="black" stroke="black" points="199.549,-138.461 189.651,-134.683 195.033,-143.809 199.549,-138.461"/>
</g>
<!-- WORKFLOWINTERNALSOURCE_SM_file -->
<g id="node8" class="node"><title>WORKFLOWINTERNALSOURCE_SM_file</title>
<polygon fill="skyblue" stroke="black" points="194,-172.5 144,-172.5 144,-151.5 194,-151.5 194,-172.5"/>
<text text-anchor="middle" x="169" y="-159.5" font-family="Helvetica,sans-Serif" font-size="10.00">SM_file</text>
</g>
<!-- WORKFLOWINTERNALSOURCE_SM_file&#45;&gt;Natural_product_likeness_calculator -->
<g id="edge14" class="edge"><title>WORKFLOWINTERNALSOURCE_SM_file&#45;&gt;Natural_product_likeness_calculator</title>
<path fill="none" stroke="black" d="M171.271,-151.212C171.714,-149.109 172.192,-146.839 172.676,-144.538"/>
<polygon fill="black" stroke="black" points="176.116,-145.19 174.751,-134.683 169.266,-143.748 176.116,-145.19"/>
</g>
<!-- WORKFLOWINTERNALSOURCE_Query_file -->
<g id="node9" class="node"><title>WORKFLOWINTERNALSOURCE_Query_file</title>
<polygon fill="skyblue" stroke="black" points="140,-172.5 80,-172.5 80,-151.5 140,-151.5 140,-172.5"/>
<text text-anchor="middle" x="110" y="-159.5" font-family="Helvetica,sans-Serif" font-size="10.00">Query_file</text>
</g>
<!-- WORKFLOWINTERNALSOURCE_Query_file&#45;&gt;Natural_product_likeness_calculator -->
<g id="edge12" class="edge"><title>WORKFLOWINTERNALSOURCE_Query_file&#45;&gt;Natural_product_likeness_calculator</title>
<path fill="none" stroke="black" d="M128.663,-151.415C135.052,-147.791 142.343,-143.656 149.291,-139.715"/>
<polygon fill="black" stroke="black" points="151.465,-142.506 158.437,-134.528 148.012,-136.417 151.465,-142.506"/>
</g>
<!-- WORKFLOWINTERNALSOURCE_Score_file -->
<g id="node10" class="node"><title>WORKFLOWINTERNALSOURCE_Score_file</title>
<polygon fill="skyblue" stroke="black" points="76,-172.5 16,-172.5 16,-151.5 76,-151.5 76,-172.5"/>
<text text-anchor="middle" x="46" y="-159.5" font-family="Helvetica,sans-Serif" font-size="10.00">Score_file</text>
</g>
<!-- WORKFLOWINTERNALSOURCE_Score_file&#45;&gt;Text_File_Writer -->
<g id="edge4" class="edge"><title>WORKFLOWINTERNALSOURCE_Score_file&#45;&gt;Text_File_Writer</title>
<path fill="none" stroke="black" d="M52.118,-151.433C58.9363,-139.655 70.1127,-120.351 78.5629,-105.755"/>
<polygon fill="black" stroke="black" points="81.6676,-107.378 83.649,-96.9699 75.6096,-103.871 81.6676,-107.378"/>
</g>
<!-- WORKFLOWINTERNALSOURCE_Fragments_SDF -->
<g id="node11" class="node"><title>WORKFLOWINTERNALSOURCE_Fragments_SDF</title>
<polygon fill="skyblue" stroke="black" points="338,-172.5 250,-172.5 250,-151.5 338,-151.5 338,-172.5"/>
<text text-anchor="middle" x="294" y="-159.5" font-family="Helvetica,sans-Serif" font-size="10.00">Fragments_SDF</text>
</g>
<!-- WORKFLOWINTERNALSOURCE_Fragments_SDF&#45;&gt;SDFile_Writer -->
<g id="edge8" class="edge"><title>WORKFLOWINTERNALSOURCE_Fragments_SDF&#45;&gt;SDFile_Writer</title>
<path fill="none" stroke="black" d="M290.618,-151.445C286.522,-140.31 278.564,-123.017 266,-113 262.452,-110.171 244.861,-104.621 226.243,-99.2848"/>
<polygon fill="black" stroke="black" points="227.057,-95.8779 216.482,-96.5293 225.155,-102.615 227.057,-95.8779"/>
</g>
<!-- WORKFLOWINTERNALSOURCE_smilesFIle -->
<g id="node12" class="node"><title>WORKFLOWINTERNALSOURCE_smilesFIle</title>
<polygon fill="skyblue" stroke="black" points="404,-172.5 342,-172.5 342,-151.5 404,-151.5 404,-172.5"/>
<text text-anchor="middle" x="373" y="-159.5" font-family="Helvetica,sans-Serif" font-size="10.00">smilesFIle</text>
</g>
<!-- WORKFLOWINTERNALSOURCE_smilesFIle&#45;&gt;SMILES_File_Writer -->
<g id="edge20" class="edge"><title>WORKFLOWINTERNALSOURCE_smilesFIle&#45;&gt;SMILES_File_Writer</title>
<path fill="none" stroke="black" d="M359.095,-151.433C342.546,-138.855 314.701,-117.693 295.17,-102.849"/>
<polygon fill="black" stroke="black" points="297.188,-99.987 287.109,-96.7227 292.953,-105.56 297.188,-99.987"/>
</g>
<!-- WORKFLOWINTERNALSINKCONTROL -->
<g id="node14" class="node"><title>WORKFLOWINTERNALSINKCONTROL</title>
<polygon fill="#66cd00" stroke="black" points="266,-20 273,-30.5 259,-30.5 266,-20"/>
</g>
</g>
</svg>
