<?xml version="1.0" encoding="UTF-8" standalone="no"?>
<!DOCTYPE svg PUBLIC "-//W3C//DTD SVG 1.1//EN"
 "http://www.w3.org/Graphics/SVG/1.1/DTD/svg11.dtd">
<!-- Generated by graphviz version 2.26.0 (20091210.2329)
 -->
<!-- Title: t2flow_graph Pages: 1 -->
<svg width="525pt" height="408pt"
 viewBox="0.00 0.00 525.44 408.00" xmlns="http://www.w3.org/2000/svg" xmlns:xlink="http://www.w3.org/1999/xlink">
<g id="graph1" class="graph" transform="scale(1 1) rotate(0) translate(4 404)">
<title>t2flow_graph</title>
<polygon fill="white" stroke="white" points="-4,5 -4,-404 522.439,-404 522.439,5 -4,5"/>
<g id="graph2" class="cluster"><title>cluster_sources</title>
<polygon fill="none" stroke="black" stroke-dasharray="1,5" points="211,-333 211,-392 473,-392 473,-333 211,-333"/>
<text text-anchor="middle" x="255" y="-379" font-family="Helvetica,sans-Serif" font-size="10.00">Workflow Inputs</text>
</g>
<g id="graph3" class="cluster"><title>cluster_sinks</title>
<polygon fill="none" stroke="black" stroke-dasharray="1,5" points="275,-8 275,-67 379,-67 379,-8 275,-8"/>
<text text-anchor="middle" x="322.5" y="-54" font-family="Helvetica,sans-Serif" font-size="10.00">Workflow Outputs</text>
</g>
<!-- execute_Stranger -->
<g id="node1" class="node"><title>execute_Stranger</title>
<polygon fill="#a2cd5a" stroke="black" points="364,-134.5 272,-134.5 272,-113.5 364,-113.5 364,-134.5"/>
<text text-anchor="middle" x="318" y="-121.5" font-family="Helvetica,sans-Serif" font-size="10.00">execute_Stranger</text>
</g>
<!-- execute_Stranger_output -->
<g id="node6" class="node"><title>execute_Stranger_output</title>
<polygon fill="#ab92ea" stroke="black" points="380,-96.5 256,-96.5 256,-75.5 380,-75.5 380,-96.5"/>
<text text-anchor="middle" x="318" y="-83.5" font-family="Helvetica,sans-Serif" font-size="10.00">execute_Stranger_output</text>
</g>
<!-- execute_Stranger&#45;&gt;execute_Stranger_output -->
<g id="edge20" class="edge"><title>execute_Stranger&#45;&gt;execute_Stranger_output</title>
<path fill="none" stroke="black" d="M318,-113.212C318,-111.19 318,-109.013 318,-106.804"/>
<polygon fill="black" stroke="black" points="321.5,-106.683 318,-96.6831 314.5,-106.683 321.5,-106.683"/>
</g>
<!-- execute_Stranger_input -->
<g id="node2" class="node"><title>execute_Stranger_input</title>
<polygon fill="#ab92ea" stroke="black" points="377,-172.5 259,-172.5 259,-151.5 377,-151.5 377,-172.5"/>
<text text-anchor="middle" x="318" y="-159.5" font-family="Helvetica,sans-Serif" font-size="10.00">execute_Stranger_input</text>
</g>
<!-- execute_Stranger_input&#45;&gt;execute_Stranger -->
<g id="edge4" class="edge"><title>execute_Stranger_input&#45;&gt;execute_Stranger</title>
<path fill="none" stroke="black" d="M318,-151.212C318,-149.19 318,-147.013 318,-144.804"/>
<polygon fill="black" stroke="black" points="321.5,-144.683 318,-134.683 314.5,-144.683 321.5,-144.683"/>
</g>
<!-- uploadTermFile -->
<g id="node3" class="node"><title>uploadTermFile</title>
<polygon fill="#a2cd5a" stroke="black" points="170,-248.5 88,-248.5 88,-227.5 170,-227.5 170,-248.5"/>
<text text-anchor="middle" x="129" y="-235.5" font-family="Helvetica,sans-Serif" font-size="10.00">uploadTermFile</text>
</g>
<!-- uploadTermFile_output -->
<g id="node5" class="node"><title>uploadTermFile_output</title>
<polygon fill="#ab92ea" stroke="black" points="208,-210.5 92,-210.5 92,-189.5 208,-189.5 208,-210.5"/>
<text text-anchor="middle" x="150" y="-197.5" font-family="Helvetica,sans-Serif" font-size="10.00">uploadTermFile_output</text>
</g>
<!-- uploadTermFile&#45;&gt;uploadTermFile_output -->
<g id="edge18" class="edge"><title>uploadTermFile&#45;&gt;uploadTermFile_output</title>
<path fill="none" stroke="black" d="M134.962,-227.212C136.303,-224.785 137.767,-222.136 139.238,-219.475"/>
<polygon fill="black" stroke="black" points="142.323,-221.128 144.096,-210.683 136.196,-217.743 142.323,-221.128"/>
</g>
<!-- uploadTermFile_input -->
<g id="node4" class="node"><title>uploadTermFile_input</title>
<polygon fill="#ab92ea" stroke="black" points="146,-286.5 36,-286.5 36,-265.5 146,-265.5 146,-286.5"/>
<text text-anchor="middle" x="91" y="-273.5" font-family="Helvetica,sans-Serif" font-size="10.00">uploadTermFile_input</text>
</g>
<!-- uploadTermFile_input&#45;&gt;uploadTermFile -->
<g id="edge14" class="edge"><title>uploadTermFile_input&#45;&gt;uploadTermFile</title>
<path fill="none" stroke="black" d="M101.788,-265.212C104.7,-262.3 107.932,-259.068 111.122,-255.878"/>
<polygon fill="black" stroke="black" points="113.721,-258.229 118.317,-248.683 108.771,-253.279 113.721,-258.229"/>
</g>
<!-- uploadTermFile_output&#45;&gt;execute_Stranger_input -->
<g id="edge6" class="edge"><title>uploadTermFile_output&#45;&gt;execute_Stranger_input</title>
<path fill="none" stroke="black" d="M196.797,-189.415C216.913,-184.865 240.596,-179.508 261.665,-174.743"/>
<polygon fill="black" stroke="black" points="262.472,-178.148 271.454,-172.528 260.928,-171.321 262.472,-178.148"/>
</g>
<!-- WORKFLOWINTERNALSINK_stranger_out -->
<g id="node24" class="node"><title>WORKFLOWINTERNALSINK_stranger_out</title>
<polygon fill="#bcd2ee" stroke="black" points="353,-37.5 283,-37.5 283,-16.5 353,-16.5 353,-37.5"/>
<text text-anchor="middle" x="318" y="-24.5" font-family="Helvetica,sans-Serif" font-size="10.00">stranger_out</text>
</g>
<!-- execute_Stranger_output&#45;&gt;WORKFLOWINTERNALSINK_stranger_out -->
<g id="edge40" class="edge"><title>execute_Stranger_output&#45;&gt;WORKFLOWINTERNALSINK_stranger_out</title>
<path fill="none" stroke="black" d="M318,-75.452C318,-67.8285 318,-57.2768 318,-47.966"/>
<polygon fill="black" stroke="black" points="321.5,-47.8558 318,-37.8559 314.5,-47.8559 321.5,-47.8558"/>
</g>
<!-- Encode_Byte_Array_to_Base_64 -->
<g id="node7" class="node"><title>Encode_Byte_Array_to_Base_64</title>
<polygon fill="#d15fee" stroke="black" points="160,-324.5 8.52651e-14,-324.5 0,-303.5 160,-303.5 160,-324.5"/>
<text text-anchor="middle" x="80" y="-311.5" font-family="Helvetica,sans-Serif" font-size="10.00">Encode_Byte_Array_to_Base_64</text>
</g>
<!-- Encode_Byte_Array_to_Base_64&#45;&gt;uploadTermFile_input -->
<g id="edge16" class="edge"><title>Encode_Byte_Array_to_Base_64&#45;&gt;uploadTermFile_input</title>
<path fill="none" stroke="black" d="M83.1227,-303.212C83.7317,-301.109 84.3888,-298.839 85.0547,-296.538"/>
<polygon fill="black" stroke="black" points="88.4889,-297.262 87.9075,-286.683 81.7649,-295.315 88.4889,-297.262"/>
</g>
<!-- Encode_Byte_Array_to_Base_64_2 -->
<g id="node8" class="node"><title>Encode_Byte_Array_to_Base_64_2</title>
<polygon fill="#d15fee" stroke="black" points="508,-324.5 338,-324.5 338,-303.5 508,-303.5 508,-324.5"/>
<text text-anchor="middle" x="423" y="-311.5" font-family="Helvetica,sans-Serif" font-size="10.00">Encode_Byte_Array_to_Base_64_2</text>
</g>
<!-- uploadAnnotFile_input -->
<g id="node14" class="node"><title>uploadAnnotFile_input</title>
<polygon fill="#ab92ea" stroke="black" points="477,-286.5 365,-286.5 365,-265.5 477,-265.5 477,-286.5"/>
<text text-anchor="middle" x="421" y="-273.5" font-family="Helvetica,sans-Serif" font-size="10.00">uploadAnnotFile_input</text>
</g>
<!-- Encode_Byte_Array_to_Base_64_2&#45;&gt;uploadAnnotFile_input -->
<g id="edge36" class="edge"><title>Encode_Byte_Array_to_Base_64_2&#45;&gt;uploadAnnotFile_input</title>
<path fill="none" stroke="black" d="M422.432,-303.212C422.326,-301.19 422.211,-299.013 422.095,-296.804"/>
<polygon fill="black" stroke="black" points="425.583,-296.485 421.562,-286.683 418.593,-296.853 425.583,-296.485"/>
</g>
<!-- Encode_Byte_Array_to_Base_64_3 -->
<g id="node9" class="node"><title>Encode_Byte_Array_to_Base_64_3</title>
<polygon fill="#d15fee" stroke="black" points="334,-324.5 164,-324.5 164,-303.5 334,-303.5 334,-324.5"/>
<text text-anchor="middle" x="249" y="-311.5" font-family="Helvetica,sans-Serif" font-size="10.00">Encode_Byte_Array_to_Base_64_3</text>
</g>
<!-- uploadGeneFile_input -->
<g id="node11" class="node"><title>uploadGeneFile_input</title>
<polygon fill="#ab92ea" stroke="black" points="329,-286.5 219,-286.5 219,-265.5 329,-265.5 329,-286.5"/>
<text text-anchor="middle" x="274" y="-273.5" font-family="Helvetica,sans-Serif" font-size="10.00">uploadGeneFile_input</text>
</g>
<!-- Encode_Byte_Array_to_Base_64_3&#45;&gt;uploadGeneFile_input -->
<g id="edge30" class="edge"><title>Encode_Byte_Array_to_Base_64_3&#45;&gt;uploadGeneFile_input</title>
<path fill="none" stroke="black" d="M256.097,-303.212C257.747,-300.704 259.553,-297.959 261.363,-295.209"/>
<polygon fill="black" stroke="black" points="264.399,-296.961 266.972,-286.683 258.551,-293.114 264.399,-296.961"/>
</g>
<!-- uploadGeneFile -->
<g id="node10" class="node"><title>uploadGeneFile</title>
<polygon fill="#a2cd5a" stroke="black" points="319,-248.5 235,-248.5 235,-227.5 319,-227.5 319,-248.5"/>
<text text-anchor="middle" x="277" y="-235.5" font-family="Helvetica,sans-Serif" font-size="10.00">uploadGeneFile</text>
</g>
<!-- uploadGeneFile_output -->
<g id="node12" class="node"><title>uploadGeneFile_output</title>
<polygon fill="#ab92ea" stroke="black" points="338,-210.5 222,-210.5 222,-189.5 338,-189.5 338,-210.5"/>
<text text-anchor="middle" x="280" y="-197.5" font-family="Helvetica,sans-Serif" font-size="10.00">uploadGeneFile_output</text>
</g>
<!-- uploadGeneFile&#45;&gt;uploadGeneFile_output -->
<g id="edge32" class="edge"><title>uploadGeneFile&#45;&gt;uploadGeneFile_output</title>
<path fill="none" stroke="black" d="M277.852,-227.212C278.011,-225.19 278.183,-223.013 278.358,-220.804"/>
<polygon fill="black" stroke="black" points="281.859,-220.928 279.157,-210.683 274.88,-220.377 281.859,-220.928"/>
</g>
<!-- uploadGeneFile_input&#45;&gt;uploadGeneFile -->
<g id="edge28" class="edge"><title>uploadGeneFile_input&#45;&gt;uploadGeneFile</title>
<path fill="none" stroke="black" d="M274.852,-265.212C275.011,-263.19 275.183,-261.013 275.358,-258.804"/>
<polygon fill="black" stroke="black" points="278.859,-258.928 276.157,-248.683 271.88,-258.377 278.859,-258.928"/>
</g>
<!-- uploadGeneFile_output&#45;&gt;execute_Stranger_input -->
<g id="edge8" class="edge"><title>uploadGeneFile_output&#45;&gt;execute_Stranger_input</title>
<path fill="none" stroke="black" d="M290.788,-189.212C293.7,-186.3 296.932,-183.068 300.122,-179.878"/>
<polygon fill="black" stroke="black" points="302.721,-182.229 307.317,-172.683 297.771,-177.279 302.721,-182.229"/>
</g>
<!-- uploadAnnotFile -->
<g id="node13" class="node"><title>uploadAnnotFile</title>
<polygon fill="#a2cd5a" stroke="black" points="452,-248.5 366,-248.5 366,-227.5 452,-227.5 452,-248.5"/>
<text text-anchor="middle" x="409" y="-235.5" font-family="Helvetica,sans-Serif" font-size="10.00">uploadAnnotFile</text>
</g>
<!-- uploadAnnotFile_output -->
<g id="node15" class="node"><title>uploadAnnotFile_output</title>
<polygon fill="#ab92ea" stroke="black" points="462,-210.5 344,-210.5 344,-189.5 462,-189.5 462,-210.5"/>
<text text-anchor="middle" x="403" y="-197.5" font-family="Helvetica,sans-Serif" font-size="10.00">uploadAnnotFile_output</text>
</g>
<!-- uploadAnnotFile&#45;&gt;uploadAnnotFile_output -->
<g id="edge38" class="edge"><title>uploadAnnotFile&#45;&gt;uploadAnnotFile_output</title>
<path fill="none" stroke="black" d="M407.297,-227.212C406.977,-225.19 406.634,-223.013 406.285,-220.804"/>
<polygon fill="black" stroke="black" points="409.704,-220.015 404.687,-210.683 402.789,-221.107 409.704,-220.015"/>
</g>
<!-- uploadAnnotFile_input&#45;&gt;uploadAnnotFile -->
<g id="edge34" class="edge"><title>uploadAnnotFile_input&#45;&gt;uploadAnnotFile</title>
<path fill="none" stroke="black" d="M417.593,-265.212C416.903,-263.028 416.157,-260.664 415.402,-258.273"/>
<polygon fill="black" stroke="black" points="418.723,-257.165 412.374,-248.683 412.047,-259.273 418.723,-257.165"/>
</g>
<!-- uploadAnnotFile_output&#45;&gt;execute_Stranger_input -->
<g id="edge10" class="edge"><title>uploadAnnotFile_output&#45;&gt;execute_Stranger_input</title>
<path fill="none" stroke="black" d="M379.323,-189.415C370.481,-185.462 360.276,-180.9 350.761,-176.646"/>
<polygon fill="black" stroke="black" points="352.108,-173.414 341.55,-172.528 349.251,-179.805 352.108,-173.414"/>
</g>
<!-- WORKFLOWINTERNALSOURCECONTROL -->
<g id="node17" class="node"><title>WORKFLOWINTERNALSOURCECONTROL</title>
<polygon fill="#ff4040" stroke="black" points="458,-359 451,-348.5 465,-348.5 458,-359"/>
</g>
<!-- WORKFLOWINTERNALSOURCE_TermFile -->
<g id="node18" class="node"><title>WORKFLOWINTERNALSOURCE_TermFile</title>
<polygon fill="skyblue" stroke="black" points="273,-362.5 219,-362.5 219,-341.5 273,-341.5 273,-362.5"/>
<text text-anchor="middle" x="246" y="-349.5" font-family="Helvetica,sans-Serif" font-size="10.00">TermFile</text>
</g>
<!-- WORKFLOWINTERNALSOURCE_TermFile&#45;&gt;Encode_Byte_Array_to_Base_64 -->
<g id="edge22" class="edge"><title>WORKFLOWINTERNALSOURCE_TermFile&#45;&gt;Encode_Byte_Array_to_Base_64</title>
<path fill="none" stroke="black" d="M218.96,-345.81C196.622,-340.697 164.163,-333.266 136.232,-326.872"/>
<polygon fill="black" stroke="black" points="136.703,-323.39 126.174,-324.57 135.141,-330.213 136.703,-323.39"/>
</g>
<!-- WORKFLOWINTERNALSOURCE_GeneFile -->
<g id="node19" class="node"><title>WORKFLOWINTERNALSOURCE_GeneFile</title>
<polygon fill="skyblue" stroke="black" points="333,-362.5 277,-362.5 277,-341.5 333,-341.5 333,-362.5"/>
<text text-anchor="middle" x="305" y="-349.5" font-family="Helvetica,sans-Serif" font-size="10.00">GeneFile</text>
</g>
<!-- WORKFLOWINTERNALSOURCE_GeneFile&#45;&gt;Encode_Byte_Array_to_Base_64_3 -->
<g id="edge26" class="edge"><title>WORKFLOWINTERNALSOURCE_GeneFile&#45;&gt;Encode_Byte_Array_to_Base_64_3</title>
<path fill="none" stroke="black" d="M289.401,-341.415C284.304,-337.956 278.519,-334.031 272.953,-330.254"/>
<polygon fill="black" stroke="black" points="274.756,-327.247 264.515,-324.528 270.825,-333.04 274.756,-327.247"/>
</g>
<!-- WORKFLOWINTERNALSOURCE_AnnotFile -->
<g id="node20" class="node"><title>WORKFLOWINTERNALSOURCE_AnnotFile</title>
<polygon fill="skyblue" stroke="black" points="395,-362.5 337,-362.5 337,-341.5 395,-341.5 395,-362.5"/>
<text text-anchor="middle" x="366" y="-349.5" font-family="Helvetica,sans-Serif" font-size="10.00">AnnotFile</text>
</g>
<!-- WORKFLOWINTERNALSOURCE_AnnotFile&#45;&gt;Encode_Byte_Array_to_Base_64_2 -->
<g id="edge24" class="edge"><title>WORKFLOWINTERNALSOURCE_AnnotFile&#45;&gt;Encode_Byte_Array_to_Base_64_2</title>
<path fill="none" stroke="black" d="M381.878,-341.415C387.066,-337.956 392.953,-334.031 398.619,-330.254"/>
<polygon fill="black" stroke="black" points="400.828,-332.988 407.207,-324.528 396.945,-327.163 400.828,-332.988"/>
</g>
<!-- WORKFLOWINTERNALSOURCE_options -->
<g id="node21" class="node"><title>WORKFLOWINTERNALSOURCE_options</title>
<polygon fill="skyblue" stroke="black" points="447,-362.5 399,-362.5 399,-341.5 447,-341.5 447,-362.5"/>
<text text-anchor="middle" x="423" y="-349.5" font-family="Helvetica,sans-Serif" font-size="10.00">options</text>
</g>
<!-- WORKFLOWINTERNALSOURCE_options&#45;&gt;execute_Stranger_input -->
<g id="edge12" class="edge"><title>WORKFLOWINTERNALSOURCE_options&#45;&gt;execute_Stranger_input</title>
<path fill="none" stroke="black" d="M435.974,-341.388C440.484,-338.207 445.738,-335.028 451,-333 462.935,-328.401 498.944,-334.033 508,-325 523.575,-309.464 515,-297.999 515,-276 515,-276 515,-276 515,-238 515,-206.567 491.966,-203.351 464,-189 450.394,-182.018 418.034,-175.707 387.229,-170.946"/>
<polygon fill="black" stroke="black" points="387.717,-167.48 377.308,-169.456 386.677,-174.403 387.717,-167.48"/>
</g>
<!-- WORKFLOWINTERNALSINKCONTROL -->
<g id="node23" class="node"><title>WORKFLOWINTERNALSINKCONTROL</title>
<polygon fill="#66cd00" stroke="black" points="364,-20 371,-30.5 357,-30.5 364,-20"/>
</g>
</g>
</svg>
