<?xml version="1.0" encoding="UTF-8" standalone="no"?>
<!DOCTYPE svg PUBLIC "-//W3C//DTD SVG 1.1//EN"
 "http://www.w3.org/Graphics/SVG/1.1/DTD/svg11.dtd">
<!-- Generated by graphviz version 2.26.0 (20091210.2329)
 -->
<!-- Title: t2flow_graph Pages: 1 -->
<svg width="206pt" height="294pt"
 viewBox="0.00 0.00 206.00 294.00" xmlns="http://www.w3.org/2000/svg" xmlns:xlink="http://www.w3.org/1999/xlink">
<g id="graph1" class="graph" transform="scale(1 1) rotate(0) translate(4 290)">
<title>t2flow_graph</title>
<polygon fill="white" stroke="white" points="-4,5 -4,-290 203,-290 203,5 -4,5"/>
<g id="graph2" class="cluster"><title>cluster_sources</title>
<polygon fill="none" stroke="black" stroke-dasharray="1,5" points="8,-219 8,-278 190,-278 190,-219 8,-219"/>
<text text-anchor="middle" x="52" y="-265" font-family="Helvetica,sans-Serif" font-size="10.00">Workflow Inputs</text>
</g>
<g id="graph3" class="cluster"><title>cluster_sinks</title>
<polygon fill="none" stroke="black" stroke-dasharray="1,5" points="36,-8 36,-67 162,-67 162,-8 36,-8"/>
<text text-anchor="middle" x="83.5" y="-54" font-family="Helvetica,sans-Serif" font-size="10.00">Workflow Outputs</text>
</g>
<!-- cleanText -->
<g id="node1" class="node"><title>cleanText</title>
<polygon fill="#a2cd5a" stroke="black" points="119,-134.5 61,-134.5 61,-113.5 119,-113.5 119,-134.5"/>
<text text-anchor="middle" x="90" y="-121.5" font-family="Helvetica,sans-Serif" font-size="10.00">cleanText</text>
</g>
<!-- cleanText_output -->
<g id="node3" class="node"><title>cleanText_output</title>
<polygon fill="#ab92ea" stroke="black" points="136,-96.5 44,-96.5 44,-75.5 136,-75.5 136,-96.5"/>
<text text-anchor="middle" x="90" y="-83.5" font-family="Helvetica,sans-Serif" font-size="10.00">cleanText_output</text>
</g>
<!-- cleanText&#45;&gt;cleanText_output -->
<g id="edge8" class="edge"><title>cleanText&#45;&gt;cleanText_output</title>
<path fill="none" stroke="black" d="M90,-113.212C90,-111.19 90,-109.013 90,-106.804"/>
<polygon fill="black" stroke="black" points="93.5001,-106.683 90,-96.6831 86.5001,-106.683 93.5001,-106.683"/>
</g>
<!-- cleanText_input -->
<g id="node2" class="node"><title>cleanText_input</title>
<polygon fill="#ab92ea" stroke="black" points="133,-172.5 47,-172.5 47,-151.5 133,-151.5 133,-172.5"/>
<text text-anchor="middle" x="90" y="-159.5" font-family="Helvetica,sans-Serif" font-size="10.00">cleanText_input</text>
</g>
<!-- cleanText_input&#45;&gt;cleanText -->
<g id="edge4" class="edge"><title>cleanText_input&#45;&gt;cleanText</title>
<path fill="none" stroke="black" d="M90,-151.212C90,-149.19 90,-147.013 90,-144.804"/>
<polygon fill="black" stroke="black" points="93.5001,-144.683 90,-134.683 86.5001,-144.683 93.5001,-144.683"/>
</g>
<!-- WORKFLOWINTERNALSINK_cleanedPlainText -->
<g id="node10" class="node"><title>WORKFLOWINTERNALSINK_cleanedPlainText</title>
<polygon fill="#bcd2ee" stroke="black" points="136,-37.5 44,-37.5 44,-16.5 136,-16.5 136,-37.5"/>
<text text-anchor="middle" x="90" y="-24.5" font-family="Helvetica,sans-Serif" font-size="10.00">cleanedPlainText</text>
</g>
<!-- cleanText_output&#45;&gt;WORKFLOWINTERNALSINK_cleanedPlainText -->
<g id="edge12" class="edge"><title>cleanText_output&#45;&gt;WORKFLOWINTERNALSINK_cleanedPlainText</title>
<path fill="none" stroke="black" d="M90,-75.452C90,-67.8285 90,-57.2768 90,-47.966"/>
<polygon fill="black" stroke="black" points="93.5001,-47.8558 90,-37.8559 86.5001,-47.8559 93.5001,-47.8558"/>
</g>
<!-- Encode_Byte_Array_to_Base_64 -->
<g id="node4" class="node"><title>Encode_Byte_Array_to_Base_64</title>
<polygon fill="#d15fee" stroke="black" points="170,-210.5 10,-210.5 10,-189.5 170,-189.5 170,-210.5"/>
<text text-anchor="middle" x="90" y="-197.5" font-family="Helvetica,sans-Serif" font-size="10.00">Encode_Byte_Array_to_Base_64</text>
</g>
<!-- Encode_Byte_Array_to_Base_64&#45;&gt;cleanText_input -->
<g id="edge6" class="edge"><title>Encode_Byte_Array_to_Base_64&#45;&gt;cleanText_input</title>
<path fill="none" stroke="black" d="M90,-189.212C90,-187.19 90,-185.013 90,-182.804"/>
<polygon fill="black" stroke="black" points="93.5001,-182.683 90,-172.683 86.5001,-182.683 93.5001,-182.683"/>
</g>
<!-- WORKFLOWINTERNALSOURCECONTROL -->
<g id="node6" class="node"><title>WORKFLOWINTERNALSOURCECONTROL</title>
<polygon fill="#ff4040" stroke="black" points="175,-245 168,-234.5 182,-234.5 175,-245"/>
</g>
<!-- WORKFLOWINTERNALSOURCE_plainTextContentsForCleaning -->
<g id="node7" class="node"><title>WORKFLOWINTERNALSOURCE_plainTextContentsForCleaning</title>
<polygon fill="skyblue" stroke="black" points="164,-248.5 16,-248.5 16,-227.5 164,-227.5 164,-248.5"/>
<text text-anchor="middle" x="90" y="-235.5" font-family="Helvetica,sans-Serif" font-size="10.00">plainTextContentsForCleaning</text>
</g>
<!-- WORKFLOWINTERNALSOURCE_plainTextContentsForCleaning&#45;&gt;Encode_Byte_Array_to_Base_64 -->
<g id="edge10" class="edge"><title>WORKFLOWINTERNALSOURCE_plainTextContentsForCleaning&#45;&gt;Encode_Byte_Array_to_Base_64</title>
<path fill="none" stroke="black" d="M90,-227.212C90,-225.19 90,-223.013 90,-220.804"/>
<polygon fill="black" stroke="black" points="93.5001,-220.683 90,-210.683 86.5001,-220.683 93.5001,-220.683"/>
</g>
<!-- WORKFLOWINTERNALSINKCONTROL -->
<g id="node9" class="node"><title>WORKFLOWINTERNALSINKCONTROL</title>
<polygon fill="#66cd00" stroke="black" points="147,-20 154,-30.5 140,-30.5 147,-20"/>
</g>
</g>
</svg>
