<?xml version="1.0" encoding="UTF-8" standalone="no"?>
<!DOCTYPE svg PUBLIC "-//W3C//DTD SVG 1.1//EN"
 "http://www.w3.org/Graphics/SVG/1.1/DTD/svg11.dtd">
<!-- Generated by graphviz version 2.26.0 (20091210.2329)
 -->
<!-- Title: t2flow_graph Pages: 1 -->
<svg width="119pt" height="294pt"
 viewBox="0.00 0.00 119.00 294.00" xmlns="http://www.w3.org/2000/svg" xmlns:xlink="http://www.w3.org/1999/xlink">
<g id="graph1" class="graph" transform="scale(1 1) rotate(0) translate(4 290)">
<title>t2flow_graph</title>
<polygon fill="white" stroke="white" points="-4,5 -4,-290 116,-290 116,5 -4,5"/>
<g id="graph2" class="cluster"><title>cluster_sources</title>
<polygon fill="none" stroke="black" stroke-dasharray="1,5" points="8,-219 8,-278 100,-278 100,-219 8,-219"/>
<text text-anchor="middle" x="52" y="-265" font-family="Helvetica,sans-Serif" font-size="10.00">Workflow Inputs</text>
</g>
<g id="graph3" class="cluster"><title>cluster_sinks</title>
<polygon fill="none" stroke="black" stroke-dasharray="1,5" points="8,-8 8,-67 103,-67 103,-8 8,-8"/>
<text text-anchor="middle" x="55.5" y="-54" font-family="Helvetica,sans-Serif" font-size="10.00">Workflow Outputs</text>
</g>
<!-- blastSequence -->
<g id="node1" class="node"><title>blastSequence</title>
<polygon fill="#a2cd5a" stroke="black" points="85,-172.5 5,-172.5 5,-151.5 85,-151.5 85,-172.5"/>
<text text-anchor="middle" x="45" y="-159.5" font-family="Helvetica,sans-Serif" font-size="10.00">blastSequence</text>
</g>
<!-- output -->
<g id="node3" class="node"><title>output</title>
<polygon fill="#ab92ea" stroke="black" points="67,-134.5 23,-134.5 23,-113.5 67,-113.5 67,-134.5"/>
<text text-anchor="middle" x="45" y="-121.5" font-family="Helvetica,sans-Serif" font-size="10.00">output</text>
</g>
<!-- blastSequence&#45;&gt;output -->
<g id="edge8" class="edge"><title>blastSequence&#45;&gt;output</title>
<path fill="none" stroke="black" d="M45,-151.212C45,-149.19 45,-147.013 45,-144.804"/>
<polygon fill="black" stroke="black" points="48.5001,-144.683 45,-134.683 41.5001,-144.683 48.5001,-144.683"/>
</g>
<!-- input -->
<g id="node2" class="node"><title>input</title>
<polygon fill="#ab92ea" stroke="black" points="64,-210.5 26,-210.5 26,-189.5 64,-189.5 64,-210.5"/>
<text text-anchor="middle" x="45" y="-197.5" font-family="Helvetica,sans-Serif" font-size="10.00">input</text>
</g>
<!-- input&#45;&gt;blastSequence -->
<g id="edge4" class="edge"><title>input&#45;&gt;blastSequence</title>
<path fill="none" stroke="black" d="M45,-189.212C45,-187.19 45,-185.013 45,-182.804"/>
<polygon fill="black" stroke="black" points="48.5001,-182.683 45,-172.683 41.5001,-182.683 48.5001,-182.683"/>
</g>
<!-- return -->
<g id="node4" class="node"><title>return</title>
<polygon fill="#ab92ea" stroke="black" points="65,-96.5 25,-96.5 25,-75.5 65,-75.5 65,-96.5"/>
<text text-anchor="middle" x="45" y="-83.5" font-family="Helvetica,sans-Serif" font-size="10.00">return</text>
</g>
<!-- output&#45;&gt;return -->
<g id="edge10" class="edge"><title>output&#45;&gt;return</title>
<path fill="none" stroke="black" d="M45,-113.212C45,-111.19 45,-109.013 45,-106.804"/>
<polygon fill="black" stroke="black" points="48.5001,-106.683 45,-96.6831 41.5001,-106.683 48.5001,-106.683"/>
</g>
<!-- WORKFLOWINTERNALSINK_results -->
<g id="node10" class="node"><title>WORKFLOWINTERNALSINK_results</title>
<polygon fill="#bcd2ee" stroke="black" points="68,-37.5 22,-37.5 22,-16.5 68,-16.5 68,-37.5"/>
<text text-anchor="middle" x="45" y="-24.5" font-family="Helvetica,sans-Serif" font-size="10.00">results</text>
</g>
<!-- return&#45;&gt;WORKFLOWINTERNALSINK_results -->
<g id="edge12" class="edge"><title>return&#45;&gt;WORKFLOWINTERNALSINK_results</title>
<path fill="none" stroke="black" d="M45,-75.452C45,-67.8285 45,-57.2768 45,-47.966"/>
<polygon fill="black" stroke="black" points="48.5001,-47.8558 45,-37.8559 41.5001,-47.8559 48.5001,-47.8558"/>
</g>
<!-- WORKFLOWINTERNALSOURCECONTROL -->
<g id="node6" class="node"><title>WORKFLOWINTERNALSOURCECONTROL</title>
<polygon fill="#ff4040" stroke="black" points="85,-245 78,-234.5 92,-234.5 85,-245"/>
</g>
<!-- WORKFLOWINTERNALSOURCE_sequence -->
<g id="node7" class="node"><title>WORKFLOWINTERNALSOURCE_sequence</title>
<polygon fill="skyblue" stroke="black" points="74,-248.5 16,-248.5 16,-227.5 74,-227.5 74,-248.5"/>
<text text-anchor="middle" x="45" y="-235.5" font-family="Helvetica,sans-Serif" font-size="10.00">sequence</text>
</g>
<!-- WORKFLOWINTERNALSOURCE_sequence&#45;&gt;input -->
<g id="edge6" class="edge"><title>WORKFLOWINTERNALSOURCE_sequence&#45;&gt;input</title>
<path fill="none" stroke="black" d="M45,-227.212C45,-225.19 45,-223.013 45,-220.804"/>
<polygon fill="black" stroke="black" points="48.5001,-220.683 45,-210.683 41.5001,-220.683 48.5001,-220.683"/>
</g>
<!-- WORKFLOWINTERNALSINKCONTROL -->
<g id="node9" class="node"><title>WORKFLOWINTERNALSINKCONTROL</title>
<polygon fill="#66cd00" stroke="black" points="83,-20 90,-30.5 76,-30.5 83,-20"/>
</g>
</g>
</svg>
