<?xml version="1.0" encoding="UTF-8" standalone="no"?>
<!DOCTYPE svg PUBLIC "-//W3C//DTD SVG 1.1//EN"
 "http://www.w3.org/Graphics/SVG/1.1/DTD/svg11.dtd">
<!-- Generated by graphviz version 2.26.0 (20091210.2329)
 -->
<!-- Title: t2flow_graph Pages: 1 -->
<svg width="257pt" height="256pt"
 viewBox="0.00 0.00 257.00 256.00" xmlns="http://www.w3.org/2000/svg" xmlns:xlink="http://www.w3.org/1999/xlink">
<g id="graph1" class="graph" transform="scale(1 1) rotate(0) translate(4 252)">
<title>t2flow_graph</title>
<polygon fill="white" stroke="white" points="-4,5 -4,-252 254,-252 254,5 -4,5"/>
<g id="graph2" class="cluster"><title>cluster_sources</title>
<polygon fill="none" stroke="black" stroke-dasharray="1,5" points="149,-181 149,-240 239,-240 239,-181 149,-181"/>
<text text-anchor="middle" x="193" y="-227" font-family="Helvetica,sans-Serif" font-size="10.00">Workflow Inputs</text>
</g>
<g id="graph3" class="cluster"><title>cluster_sinks</title>
<polygon fill="none" stroke="black" stroke-dasharray="1,5" points="143,-8 143,-67 241,-67 241,-8 143,-8"/>
<text text-anchor="middle" x="190.5" y="-54" font-family="Helvetica,sans-Serif" font-size="10.00">Workflow Outputs</text>
</g>
<!-- REST_Service -->
<g id="node1" class="node"><title>REST_Service</title>
<polygon fill="#7aafff" stroke="black" points="226,-134.5 144,-134.5 144,-113.5 226,-113.5 226,-134.5"/>
<text text-anchor="middle" x="185" y="-121.5" font-family="Helvetica,sans-Serif" font-size="10.00">REST_Service</text>
</g>
<!-- Transform_XML_String -->
<g id="node3" class="node"><title>Transform_XML_String</title>
<polygon fill="#d15fee" stroke="black" points="241,-96.5 125,-96.5 125,-75.5 241,-75.5 241,-96.5"/>
<text text-anchor="middle" x="183" y="-83.5" font-family="Helvetica,sans-Serif" font-size="10.00">Transform_XML_String</text>
</g>
<!-- REST_Service&#45;&gt;Transform_XML_String -->
<g id="edge8" class="edge"><title>REST_Service&#45;&gt;Transform_XML_String</title>
<path fill="none" stroke="black" d="M184.432,-113.212C184.326,-111.19 184.211,-109.013 184.095,-106.804"/>
<polygon fill="black" stroke="black" points="187.583,-106.485 183.562,-96.6831 180.593,-106.853 187.583,-106.485"/>
</g>
<!-- Beanshell -->
<g id="node2" class="node"><title>Beanshell</title>
<polygon fill="#deb887" stroke="black" points="214,-172.5 156,-172.5 156,-151.5 214,-151.5 214,-172.5"/>
<text text-anchor="middle" x="185" y="-159.5" font-family="Helvetica,sans-Serif" font-size="10.00">Beanshell</text>
</g>
<!-- Beanshell&#45;&gt;REST_Service -->
<g id="edge4" class="edge"><title>Beanshell&#45;&gt;REST_Service</title>
<path fill="none" stroke="black" d="M185,-151.212C185,-149.19 185,-147.013 185,-144.804"/>
<polygon fill="black" stroke="black" points="188.5,-144.683 185,-134.683 181.5,-144.683 188.5,-144.683"/>
</g>
<!-- WORKFLOWINTERNALSINK_csv_output -->
<g id="node10" class="node"><title>WORKFLOWINTERNALSINK_csv_output</title>
<polygon fill="#bcd2ee" stroke="black" points="215,-37.5 151,-37.5 151,-16.5 215,-16.5 215,-37.5"/>
<text text-anchor="middle" x="183" y="-24.5" font-family="Helvetica,sans-Serif" font-size="10.00">csv_output</text>
</g>
<!-- Transform_XML_String&#45;&gt;WORKFLOWINTERNALSINK_csv_output -->
<g id="edge12" class="edge"><title>Transform_XML_String&#45;&gt;WORKFLOWINTERNALSINK_csv_output</title>
<path fill="none" stroke="black" d="M183,-75.452C183,-67.8285 183,-57.2768 183,-47.966"/>
<polygon fill="black" stroke="black" points="186.5,-47.8558 183,-37.8559 179.5,-47.8559 186.5,-47.8558"/>
</g>
<!-- slwArtDataBank_to_csv_xsl -->
<g id="node4" class="node"><title>slwArtDataBank_to_csv_xsl</title>
<polygon fill="#b0c4de" stroke="black" points="140,-134.5 7.10543e-14,-134.5 0,-113.5 140,-113.5 140,-134.5"/>
<text text-anchor="middle" x="70" y="-121.5" font-family="Helvetica,sans-Serif" font-size="10.00">slwArtDataBank_to_csv_xsl</text>
</g>
<!-- slwArtDataBank_to_csv_xsl&#45;&gt;Transform_XML_String -->
<g id="edge10" class="edge"><title>slwArtDataBank_to_csv_xsl&#45;&gt;Transform_XML_String</title>
<path fill="none" stroke="black" d="M101.477,-113.415C114.089,-109.174 128.785,-104.232 142.199,-99.7206"/>
<polygon fill="black" stroke="black" points="143.329,-103.033 151.692,-96.5284 141.098,-96.3984 143.329,-103.033"/>
</g>
<!-- WORKFLOWINTERNALSOURCECONTROL -->
<g id="node6" class="node"><title>WORKFLOWINTERNALSOURCECONTROL</title>
<polygon fill="#ff4040" stroke="black" points="224,-207 217,-196.5 231,-196.5 224,-207"/>
</g>
<!-- WORKFLOWINTERNALSOURCE_sciName -->
<g id="node7" class="node"><title>WORKFLOWINTERNALSOURCE_sciName</title>
<polygon fill="skyblue" stroke="black" points="213,-210.5 157,-210.5 157,-189.5 213,-189.5 213,-210.5"/>
<text text-anchor="middle" x="185" y="-197.5" font-family="Helvetica,sans-Serif" font-size="10.00">sciName</text>
</g>
<!-- WORKFLOWINTERNALSOURCE_sciName&#45;&gt;Beanshell -->
<g id="edge6" class="edge"><title>WORKFLOWINTERNALSOURCE_sciName&#45;&gt;Beanshell</title>
<path fill="none" stroke="black" d="M185,-189.212C185,-187.19 185,-185.013 185,-182.804"/>
<polygon fill="black" stroke="black" points="188.5,-182.683 185,-172.683 181.5,-182.683 188.5,-182.683"/>
</g>
<!-- WORKFLOWINTERNALSINKCONTROL -->
<g id="node9" class="node"><title>WORKFLOWINTERNALSINKCONTROL</title>
<polygon fill="#66cd00" stroke="black" points="226,-20 233,-30.5 219,-30.5 226,-20"/>
</g>
</g>
</svg>
