<?xml version="1.0" encoding="UTF-8" standalone="no"?>
<!DOCTYPE svg PUBLIC "-//W3C//DTD SVG 1.1//EN"
 "http://www.w3.org/Graphics/SVG/1.1/DTD/svg11.dtd">
<!-- Generated by graphviz version 2.26.0 (20091210.2329)
 -->
<!-- Title: t2flow_graph Pages: 1 -->
<svg width="444pt" height="218pt"
 viewBox="0.00 0.00 444.00 218.00" xmlns="http://www.w3.org/2000/svg" xmlns:xlink="http://www.w3.org/1999/xlink">
<g id="graph1" class="graph" transform="scale(1 1) rotate(0) translate(4 214)">
<title>t2flow_graph</title>
<polygon fill="white" stroke="white" points="-4,5 -4,-214 441,-214 441,5 -4,5"/>
<g id="graph2" class="cluster"><title>cluster_sources</title>
<polygon fill="none" stroke="black" stroke-dasharray="1,5" points="8,-143 8,-202 428,-202 428,-143 8,-143"/>
<text text-anchor="middle" x="52" y="-189" font-family="Helvetica,sans-Serif" font-size="10.00">Workflow Inputs</text>
</g>
<g id="graph3" class="cluster"><title>cluster_sinks</title>
<polygon fill="none" stroke="black" stroke-dasharray="1,5" points="118,-8 118,-67 320,-67 320,-8 118,-8"/>
<text text-anchor="middle" x="165.5" y="-54" font-family="Helvetica,sans-Serif" font-size="10.00">Workflow Outputs</text>
</g>
<!-- Create_sextractor_script -->
<g id="node1" class="node"><title>Create_sextractor_script</title>
<polygon fill="#deb887" stroke="black" points="272,-134.5 148,-134.5 148,-113.5 272,-113.5 272,-134.5"/>
<text text-anchor="middle" x="210" y="-121.5" font-family="Helvetica,sans-Serif" font-size="10.00">Create_sextractor_script</text>
</g>
<!-- RunSextractor -->
<g id="node2" class="node"><title>RunSextractor</title>
<polygon fill="#f28c55" stroke="black" points="250,-96.5 170,-96.5 170,-75.5 250,-75.5 250,-96.5"/>
<text text-anchor="middle" x="210" y="-83.5" font-family="Helvetica,sans-Serif" font-size="10.00">RunSextractor</text>
</g>
<!-- Create_sextractor_script&#45;&gt;RunSextractor -->
<g id="edge10" class="edge"><title>Create_sextractor_script&#45;&gt;RunSextractor</title>
<path fill="none" stroke="black" d="M210,-113.212C210,-111.19 210,-109.013 210,-106.804"/>
<polygon fill="black" stroke="black" points="213.5,-106.683 210,-96.6831 206.5,-106.683 213.5,-106.683"/>
</g>
<!-- WORKFLOWINTERNALSINK_Tool_STDOUT -->
<g id="node11" class="node"><title>WORKFLOWINTERNALSINK_Tool_STDOUT</title>
<polygon fill="#bcd2ee" stroke="black" points="294,-37.5 212,-37.5 212,-16.5 294,-16.5 294,-37.5"/>
<text text-anchor="middle" x="253" y="-24.5" font-family="Helvetica,sans-Serif" font-size="10.00">Tool_STDOUT</text>
</g>
<!-- RunSextractor&#45;&gt;WORKFLOWINTERNALSINK_Tool_STDOUT -->
<g id="edge12" class="edge"><title>RunSextractor&#45;&gt;WORKFLOWINTERNALSINK_Tool_STDOUT</title>
<path fill="none" stroke="black" d="M217.688,-75.452C223.606,-67.3313 231.946,-55.888 239.035,-46.1613"/>
<polygon fill="black" stroke="black" points="242.027,-47.9988 245.088,-37.8559 236.37,-43.8759 242.027,-47.9988"/>
</g>
<!-- WORKFLOWINTERNALSINK_Tool_STDERR -->
<g id="node12" class="node"><title>WORKFLOWINTERNALSINK_Tool_STDERR</title>
<polygon fill="#bcd2ee" stroke="black" points="208,-37.5 126,-37.5 126,-16.5 208,-16.5 208,-37.5"/>
<text text-anchor="middle" x="167" y="-24.5" font-family="Helvetica,sans-Serif" font-size="10.00">Tool_STDERR</text>
</g>
<!-- RunSextractor&#45;&gt;WORKFLOWINTERNALSINK_Tool_STDERR -->
<g id="edge14" class="edge"><title>RunSextractor&#45;&gt;WORKFLOWINTERNALSINK_Tool_STDERR</title>
<path fill="none" stroke="black" d="M202.312,-75.452C196.394,-67.3313 188.054,-55.888 180.965,-46.1613"/>
<polygon fill="black" stroke="black" points="183.63,-43.8759 174.912,-37.8559 177.973,-47.9988 183.63,-43.8759"/>
</g>
<!-- WORKFLOWINTERNALSOURCECONTROL -->
<g id="node4" class="node"><title>WORKFLOWINTERNALSOURCECONTROL</title>
<polygon fill="#ff4040" stroke="black" points="413,-169 406,-158.5 420,-158.5 413,-169"/>
</g>
<!-- WORKFLOWINTERNALSOURCE_ColumnNameImageFile -->
<g id="node5" class="node"><title>WORKFLOWINTERNALSOURCE_ColumnNameImageFile</title>
<polygon fill="skyblue" stroke="black" points="402,-172.5 284,-172.5 284,-151.5 402,-151.5 402,-172.5"/>
<text text-anchor="middle" x="343" y="-159.5" font-family="Helvetica,sans-Serif" font-size="10.00">ColumnNameImageFile</text>
</g>
<!-- WORKFLOWINTERNALSOURCE_ColumnNameImageFile&#45;&gt;Create_sextractor_script -->
<g id="edge6" class="edge"><title>WORKFLOWINTERNALSOURCE_ColumnNameImageFile&#45;&gt;Create_sextractor_script</title>
<path fill="none" stroke="black" d="M308.719,-151.472C299.416,-148.667 289.335,-145.674 280,-143 273.412,-141.113 266.461,-139.169 259.6,-137.279"/>
<polygon fill="black" stroke="black" points="260.234,-133.824 249.665,-134.56 258.386,-140.575 260.234,-133.824"/>
</g>
<!-- WORKFLOWINTERNALSOURCE_ColumnNameWithConfigFile -->
<g id="node6" class="node"><title>WORKFLOWINTERNALSOURCE_ColumnNameWithConfigFile</title>
<polygon fill="skyblue" stroke="black" points="280,-172.5 140,-172.5 140,-151.5 280,-151.5 280,-172.5"/>
<text text-anchor="middle" x="210" y="-159.5" font-family="Helvetica,sans-Serif" font-size="10.00">ColumnNameWithConfigFile</text>
</g>
<!-- WORKFLOWINTERNALSOURCE_ColumnNameWithConfigFile&#45;&gt;Create_sextractor_script -->
<g id="edge8" class="edge"><title>WORKFLOWINTERNALSOURCE_ColumnNameWithConfigFile&#45;&gt;Create_sextractor_script</title>
<path fill="none" stroke="black" d="M210,-151.212C210,-149.19 210,-147.013 210,-144.804"/>
<polygon fill="black" stroke="black" points="213.5,-144.683 210,-134.683 206.5,-144.683 213.5,-144.683"/>
</g>
<!-- WORKFLOWINTERNALSOURCE_votable -->
<g id="node7" class="node"><title>WORKFLOWINTERNALSOURCE_votable</title>
<polygon fill="skyblue" stroke="black" points="136,-172.5 88,-172.5 88,-151.5 136,-151.5 136,-172.5"/>
<text text-anchor="middle" x="112" y="-159.5" font-family="Helvetica,sans-Serif" font-size="10.00">votable</text>
</g>
<!-- WORKFLOWINTERNALSOURCE_votable&#45;&gt;Create_sextractor_script -->
<g id="edge4" class="edge"><title>WORKFLOWINTERNALSOURCE_votable&#45;&gt;Create_sextractor_script</title>
<path fill="none" stroke="black" d="M125.704,-151.376C130.091,-148.344 135.089,-145.256 140,-143 144.102,-141.116 148.427,-139.387 152.833,-137.806"/>
<polygon fill="black" stroke="black" points="154.163,-141.053 162.552,-134.582 151.958,-134.409 154.163,-141.053"/>
</g>
<!-- WORKFLOWINTERNALSOURCE_Precedence -->
<g id="node8" class="node"><title>WORKFLOWINTERNALSOURCE_Precedence</title>
<polygon fill="skyblue" stroke="black" points="84,-172.5 16,-172.5 16,-151.5 84,-151.5 84,-172.5"/>
<text text-anchor="middle" x="50" y="-159.5" font-family="Helvetica,sans-Serif" font-size="10.00">Precedence</text>
</g>
<!-- WORKFLOWINTERNALSINKCONTROL -->
<g id="node10" class="node"><title>WORKFLOWINTERNALSINKCONTROL</title>
<polygon fill="#66cd00" stroke="black" points="305,-20 312,-30.5 298,-30.5 305,-20"/>
</g>
</g>
</svg>
