<?xml version="1.0" encoding="UTF-8" standalone="no"?>
<!DOCTYPE svg PUBLIC "-//W3C//DTD SVG 1.1//EN"
 "http://www.w3.org/Graphics/SVG/1.1/DTD/svg11.dtd">
<!-- Generated by graphviz version 2.26.0 (20091210.2329)
 -->
<!-- Title: t2flow_graph Pages: 1 -->
<svg width="537pt" height="366pt"
 viewBox="0.00 0.00 537.00 366.00" xmlns="http://www.w3.org/2000/svg" xmlns:xlink="http://www.w3.org/1999/xlink">
<g id="graph1" class="graph" transform="scale(1 1) rotate(0) translate(4 362)">
<title>t2flow_graph</title>
<polygon fill="white" stroke="white" points="-4,5 -4,-362 534,-362 534,5 -4,5"/>
<g id="graph2" class="cluster"><title>cluster_sources</title>
<polygon fill="none" stroke="black" stroke-dasharray="1,5" points="433,-299 433,-350 521,-350 521,-299 433,-299"/>
<text text-anchor="middle" x="477" y="-337" font-family="Helvetica,sans-Serif" font-size="10.00">Workflow Inputs</text>
</g>
<g id="graph3" class="cluster"><title>cluster_sinks</title>
<polygon fill="none" stroke="black" stroke-dasharray="1,5" points="120,-8 120,-67 266,-67 266,-8 120,-8"/>
<text text-anchor="middle" x="167.5" y="-54" font-family="Helvetica,sans-Serif" font-size="10.00">Workflow Outputs</text>
</g>
<!-- Read_Text_File -->
<g id="node1" class="node"><title>Read_Text_File</title>
<polygon fill="#d15fee" stroke="black" points="315,-248.5 229,-248.5 229,-227.5 315,-227.5 315,-248.5"/>
<text text-anchor="middle" x="272" y="-235.5" font-family="Helvetica,sans-Serif" font-size="10.00">Read_Text_File</text>
</g>
<!-- Split_string_into_string_list_by_regular_expression -->
<g id="node8" class="node"><title>Split_string_into_string_list_by_regular_expression</title>
<polygon fill="#d15fee" stroke="black" points="349,-210.5 113,-210.5 113,-189.5 349,-189.5 349,-210.5"/>
<text text-anchor="middle" x="231" y="-197.5" font-family="Helvetica,sans-Serif" font-size="10.00">Split_string_into_string_list_by_regular_expression</text>
</g>
<!-- Read_Text_File&#45;&gt;Split_string_into_string_list_by_regular_expression -->
<g id="edge16" class="edge"><title>Read_Text_File&#45;&gt;Split_string_into_string_list_by_regular_expression</title>
<path fill="none" stroke="black" d="M260.361,-227.212C257.131,-224.219 253.537,-220.888 250.003,-217.613"/>
<polygon fill="black" stroke="black" points="252.24,-214.914 242.526,-210.683 247.482,-220.048 252.24,-214.914"/>
</g>
<!-- encoding_value -->
<g id="node2" class="node"><title>encoding_value</title>
<polygon fill="#b0c4de" stroke="black" points="275,-286.5 191,-286.5 191,-265.5 275,-265.5 275,-286.5"/>
<text text-anchor="middle" x="233" y="-273.5" font-family="Helvetica,sans-Serif" font-size="10.00">encoding_value</text>
</g>
<!-- encoding_value&#45;&gt;Read_Text_File -->
<g id="edge4" class="edge"><title>encoding_value&#45;&gt;Read_Text_File</title>
<path fill="none" stroke="black" d="M244.072,-265.212C247.061,-262.3 250.378,-259.068 253.651,-255.878"/>
<polygon fill="black" stroke="black" points="256.316,-258.169 261.036,-248.683 251.431,-253.155 256.316,-258.169"/>
</g>
<!-- Select_File -->
<g id="node3" class="node"><title>Select_File</title>
<polygon fill="#d15fee" stroke="black" points="343,-286.5 279,-286.5 279,-265.5 343,-265.5 343,-286.5"/>
<text text-anchor="middle" x="311" y="-273.5" font-family="Helvetica,sans-Serif" font-size="10.00">Select_File</text>
</g>
<!-- Select_File&#45;&gt;Read_Text_File -->
<g id="edge6" class="edge"><title>Select_File&#45;&gt;Read_Text_File</title>
<path fill="none" stroke="black" d="M299.928,-265.212C296.939,-262.3 293.622,-259.068 290.349,-255.878"/>
<polygon fill="black" stroke="black" points="292.569,-253.155 282.964,-248.683 287.684,-258.169 292.569,-253.155"/>
</g>
<!-- fileExtensions_value -->
<g id="node4" class="node"><title>fileExtensions_value</title>
<polygon fill="#b0c4de" stroke="black" points="257,-324.5 151,-324.5 151,-303.5 257,-303.5 257,-324.5"/>
<text text-anchor="middle" x="204" y="-311.5" font-family="Helvetica,sans-Serif" font-size="10.00">fileExtensions_value</text>
</g>
<!-- fileExtensions_value&#45;&gt;Select_File -->
<g id="edge8" class="edge"><title>fileExtensions_value&#45;&gt;Select_File</title>
<path fill="none" stroke="black" d="M233.805,-303.415C245.516,-299.256 259.124,-294.423 271.624,-289.984"/>
<polygon fill="black" stroke="black" points="273.102,-293.173 281.354,-286.528 270.76,-286.577 273.102,-293.173"/>
</g>
<!-- fileExtLabels_value -->
<g id="node5" class="node"><title>fileExtLabels_value</title>
<polygon fill="#b0c4de" stroke="black" points="361,-324.5 261,-324.5 261,-303.5 361,-303.5 361,-324.5"/>
<text text-anchor="middle" x="311" y="-311.5" font-family="Helvetica,sans-Serif" font-size="10.00">fileExtLabels_value</text>
</g>
<!-- fileExtLabels_value&#45;&gt;Select_File -->
<g id="edge10" class="edge"><title>fileExtLabels_value&#45;&gt;Select_File</title>
<path fill="none" stroke="black" d="M311,-303.212C311,-301.19 311,-299.013 311,-296.804"/>
<polygon fill="black" stroke="black" points="314.5,-296.683 311,-286.683 307.5,-296.683 314.5,-296.683"/>
</g>
<!-- title_value -->
<g id="node6" class="node"><title>title_value</title>
<polygon fill="#b0c4de" stroke="black" points="425,-324.5 365,-324.5 365,-303.5 425,-303.5 425,-324.5"/>
<text text-anchor="middle" x="395" y="-311.5" font-family="Helvetica,sans-Serif" font-size="10.00">title_value</text>
</g>
<!-- title_value&#45;&gt;Select_File -->
<g id="edge12" class="edge"><title>title_value&#45;&gt;Select_File</title>
<path fill="none" stroke="black" d="M371.601,-303.415C362.954,-299.503 352.989,-294.995 343.669,-290.779"/>
<polygon fill="black" stroke="black" points="344.827,-287.461 334.273,-286.528 341.942,-293.839 344.827,-287.461"/>
</g>
<!-- REST_Service -->
<g id="node7" class="node"><title>REST_Service</title>
<polygon fill="#7aafff" stroke="black" points="272,-172.5 190,-172.5 190,-151.5 272,-151.5 272,-172.5"/>
<text text-anchor="middle" x="231" y="-159.5" font-family="Helvetica,sans-Serif" font-size="10.00">REST_Service</text>
</g>
<!-- Write_Text_File -->
<g id="node11" class="node"><title>Write_Text_File</title>
<polygon fill="#d15fee" stroke="black" points="187,-134.5 101,-134.5 101,-113.5 187,-113.5 187,-134.5"/>
<text text-anchor="middle" x="144" y="-121.5" font-family="Helvetica,sans-Serif" font-size="10.00">Write_Text_File</text>
</g>
<!-- REST_Service&#45;&gt;Write_Text_File -->
<g id="edge24" class="edge"><title>REST_Service&#45;&gt;Write_Text_File</title>
<path fill="none" stroke="black" d="M206.766,-151.415C197.716,-147.462 187.271,-142.9 177.531,-138.646"/>
<polygon fill="black" stroke="black" points="178.669,-135.324 168.104,-134.528 175.867,-141.738 178.669,-135.324"/>
</g>
<!-- WORKFLOWINTERNALSINK_test2 -->
<g id="node19" class="node"><title>WORKFLOWINTERNALSINK_test2</title>
<polygon fill="#bcd2ee" stroke="black" points="240,-37.5 202,-37.5 202,-16.5 240,-16.5 240,-37.5"/>
<text text-anchor="middle" x="221" y="-24.5" font-family="Helvetica,sans-Serif" font-size="10.00">test2</text>
</g>
<!-- REST_Service&#45;&gt;WORKFLOWINTERNALSINK_test2 -->
<g id="edge30" class="edge"><title>REST_Service&#45;&gt;WORKFLOWINTERNALSINK_test2</title>
<path fill="none" stroke="black" d="M230.215,-151.407C228.565,-129.128 224.709,-77.0746 222.545,-47.8516"/>
<polygon fill="black" stroke="black" points="226.01,-47.2581 221.781,-37.544 219.029,-47.7753 226.01,-47.2581"/>
</g>
<!-- Split_string_into_string_list_by_regular_expression&#45;&gt;REST_Service -->
<g id="edge14" class="edge"><title>Split_string_into_string_list_by_regular_expression&#45;&gt;REST_Service</title>
<path fill="none" stroke="black" d="M231,-189.212C231,-187.19 231,-185.013 231,-182.804"/>
<polygon fill="black" stroke="black" points="234.5,-182.683 231,-172.683 227.5,-182.683 234.5,-182.683"/>
</g>
<!-- regex_value -->
<g id="node9" class="node"><title>regex_value</title>
<polygon fill="#b0c4de" stroke="black" points="225,-248.5 157,-248.5 157,-227.5 225,-227.5 225,-248.5"/>
<text text-anchor="middle" x="191" y="-235.5" font-family="Helvetica,sans-Serif" font-size="10.00">regex_value</text>
</g>
<!-- regex_value&#45;&gt;Split_string_into_string_list_by_regular_expression -->
<g id="edge18" class="edge"><title>regex_value&#45;&gt;Split_string_into_string_list_by_regular_expression</title>
<path fill="none" stroke="black" d="M202.355,-227.212C205.507,-224.219 209.013,-220.888 212.46,-217.613"/>
<polygon fill="black" stroke="black" points="214.915,-220.108 219.755,-210.683 210.094,-215.033 214.915,-220.108"/>
</g>
<!-- Tool -->
<g id="node10" class="node"><title>Tool</title>
<polygon fill="#f28c55" stroke="black" points="176,-96.5 142,-96.5 142,-75.5 176,-75.5 176,-96.5"/>
<text text-anchor="middle" x="159" y="-83.5" font-family="Helvetica,sans-Serif" font-size="10.00">Tool</text>
</g>
<!-- WORKFLOWINTERNALSINK_listRA_DEC -->
<g id="node18" class="node"><title>WORKFLOWINTERNALSINK_listRA_DEC</title>
<polygon fill="#bcd2ee" stroke="black" points="198,-37.5 128,-37.5 128,-16.5 198,-16.5 198,-37.5"/>
<text text-anchor="middle" x="163" y="-24.5" font-family="Helvetica,sans-Serif" font-size="10.00">listRA_DEC</text>
</g>
<!-- Tool&#45;&gt;WORKFLOWINTERNALSINK_listRA_DEC -->
<g id="edge28" class="edge"><title>Tool&#45;&gt;WORKFLOWINTERNALSINK_listRA_DEC</title>
<path fill="none" stroke="black" d="M159.715,-75.452C160.232,-67.8285 160.947,-57.2768 161.579,-47.966"/>
<polygon fill="black" stroke="black" points="165.079,-48.0697 162.264,-37.8559 158.096,-47.5962 165.079,-48.0697"/>
</g>
<!-- Write_Text_File&#45;&gt;Tool -->
<g id="edge20" class="edge"><title>Write_Text_File&#45;&gt;Tool</title>
<path fill="none" stroke="black" d="M148.258,-113.212C149.153,-110.947 150.123,-108.488 151.103,-106.007"/>
<polygon fill="black" stroke="black" points="154.367,-107.27 154.783,-96.6831 147.856,-104.7 154.367,-107.27"/>
</g>
<!-- encoding_value_1 -->
<g id="node12" class="node"><title>encoding_value_1</title>
<polygon fill="#b0c4de" stroke="black" points="94,-172.5 4.9738e-14,-172.5 0,-151.5 94,-151.5 94,-172.5"/>
<text text-anchor="middle" x="47" y="-159.5" font-family="Helvetica,sans-Serif" font-size="10.00">encoding_value_1</text>
</g>
<!-- encoding_value_1&#45;&gt;Write_Text_File -->
<g id="edge22" class="edge"><title>encoding_value_1&#45;&gt;Write_Text_File</title>
<path fill="none" stroke="black" d="M74.0199,-151.415C84.4256,-147.338 96.4845,-142.614 107.63,-138.248"/>
<polygon fill="black" stroke="black" points="109.091,-141.435 117.125,-134.528 106.537,-134.917 109.091,-141.435"/>
</g>
<!-- outputFile_value -->
<g id="node13" class="node"><title>outputFile_value</title>
<polygon fill="#b0c4de" stroke="black" points="186,-172.5 98,-172.5 98,-151.5 186,-151.5 186,-172.5"/>
<text text-anchor="middle" x="142" y="-159.5" font-family="Helvetica,sans-Serif" font-size="10.00">outputFile_value</text>
</g>
<!-- outputFile_value&#45;&gt;Write_Text_File -->
<g id="edge26" class="edge"><title>outputFile_value&#45;&gt;Write_Text_File</title>
<path fill="none" stroke="black" d="M142.568,-151.212C142.674,-149.19 142.789,-147.013 142.905,-144.804"/>
<polygon fill="black" stroke="black" points="146.407,-144.853 143.438,-134.683 139.417,-144.485 146.407,-144.853"/>
</g>
<!-- WORKFLOWINTERNALSOURCECONTROL -->
<g id="node15" class="node"><title>WORKFLOWINTERNALSOURCECONTROL</title>
<polygon fill="#ff4040" stroke="black" points="477,-321 470,-310.5 484,-310.5 477,-321"/>
</g>
<!-- WORKFLOWINTERNALSINKCONTROL -->
<g id="node17" class="node"><title>WORKFLOWINTERNALSINKCONTROL</title>
<polygon fill="#66cd00" stroke="black" points="251,-20 258,-30.5 244,-30.5 251,-20"/>
</g>
</g>
</svg>
