<?xml version="1.0" encoding="UTF-8" standalone="no"?>
<!DOCTYPE svg PUBLIC "-//W3C//DTD SVG 1.1//EN"
 "http://www.w3.org/Graphics/SVG/1.1/DTD/svg11.dtd">
<!-- Generated by graphviz version 2.26.0 (20091210.2329)
 -->
<!-- Title: t2flow_graph Pages: 1 -->
<svg width="340pt" height="294pt"
 viewBox="0.00 0.00 340.00 294.00" xmlns="http://www.w3.org/2000/svg" xmlns:xlink="http://www.w3.org/1999/xlink">
<g id="graph1" class="graph" transform="scale(1 1) rotate(0) translate(4 290)">
<title>t2flow_graph</title>
<polygon fill="white" stroke="white" points="-4,5 -4,-290 337,-290 337,5 -4,5"/>
<g id="graph2" class="cluster"><title>cluster_sources</title>
<polygon fill="none" stroke="black" stroke-dasharray="1,5" points="8,-219 8,-278 282,-278 282,-219 8,-219"/>
<text text-anchor="middle" x="52" y="-265" font-family="Helvetica,sans-Serif" font-size="10.00">Workflow Inputs</text>
</g>
<g id="graph3" class="cluster"><title>cluster_sinks</title>
<polygon fill="none" stroke="black" stroke-dasharray="1,5" points="100,-8 100,-67 324,-67 324,-8 100,-8"/>
<text text-anchor="middle" x="147.5" y="-54" font-family="Helvetica,sans-Serif" font-size="10.00">Workflow Outputs</text>
</g>
<!-- Cat_n&#45;tables -->
<g id="node1" class="node"><title>Cat_n&#45;tables</title>
<polygon fill="white" stroke="black" points="198,-134.5 126,-134.5 126,-113.5 198,-113.5 198,-134.5"/>
<text text-anchor="middle" x="162" y="-121.5" font-family="Helvetica,sans-Serif" font-size="10.00">Cat_n&#45;tables</text>
</g>
<!-- tjoin -->
<g id="node4" class="node"><title>tjoin</title>
<polygon fill="white" stroke="black" points="249,-96.5 215,-96.5 215,-75.5 249,-75.5 249,-96.5"/>
<text text-anchor="middle" x="232" y="-83.5" font-family="Helvetica,sans-Serif" font-size="10.00">tjoin</text>
</g>
<!-- Cat_n&#45;tables&#45;&gt;tjoin -->
<g id="edge14" class="edge"><title>Cat_n&#45;tables&#45;&gt;tjoin</title>
<path fill="none" stroke="black" d="M181.499,-113.415C189.141,-109.266 198.018,-104.447 206.18,-100.017"/>
<polygon fill="black" stroke="black" points="207.866,-103.084 214.985,-95.2366 204.527,-96.9316 207.866,-103.084"/>
</g>
<!-- WORKFLOWINTERNALSINK_sextractorVotable -->
<g id="node12" class="node"><title>WORKFLOWINTERNALSINK_sextractorVotable</title>
<polygon fill="#bcd2ee" stroke="black" points="200,-37.5 108,-37.5 108,-16.5 200,-16.5 200,-37.5"/>
<text text-anchor="middle" x="154" y="-24.5" font-family="Helvetica,sans-Serif" font-size="10.00">sextractorVotable</text>
</g>
<!-- Cat_n&#45;tables&#45;&gt;WORKFLOWINTERNALSINK_sextractorVotable -->
<g id="edge16" class="edge"><title>Cat_n&#45;tables&#45;&gt;WORKFLOWINTERNALSINK_sextractorVotable</title>
<path fill="none" stroke="black" d="M161.113,-113.249C159.809,-97.4334 157.349,-67.6032 155.692,-47.513"/>
<polygon fill="black" stroke="black" points="159.177,-47.1831 154.866,-37.5046 152.2,-47.7585 159.177,-47.1831"/>
</g>
<!-- List_from_column -->
<g id="node2" class="node"><title>List_from_column</title>
<polygon fill="white" stroke="black" points="209,-210.5 115,-210.5 115,-189.5 209,-189.5 209,-210.5"/>
<text text-anchor="middle" x="162" y="-197.5" font-family="Helvetica,sans-Serif" font-size="10.00">List_from_column</text>
</g>
<!-- Read_File_2 -->
<g id="node3" class="node"><title>Read_File_2</title>
<polygon fill="#deb887" stroke="black" points="197,-172.5 127,-172.5 127,-151.5 197,-151.5 197,-172.5"/>
<text text-anchor="middle" x="162" y="-159.5" font-family="Helvetica,sans-Serif" font-size="10.00">Read_File_2</text>
</g>
<!-- List_from_column&#45;&gt;Read_File_2 -->
<g id="edge10" class="edge"><title>List_from_column&#45;&gt;Read_File_2</title>
<path fill="none" stroke="black" d="M162,-189.212C162,-187.19 162,-185.013 162,-182.804"/>
<polygon fill="black" stroke="black" points="165.5,-182.683 162,-172.683 158.5,-182.683 165.5,-182.683"/>
</g>
<!-- Read_File_2&#45;&gt;Cat_n&#45;tables -->
<g id="edge4" class="edge"><title>Read_File_2&#45;&gt;Cat_n&#45;tables</title>
<path fill="none" stroke="black" d="M162,-151.212C162,-149.19 162,-147.013 162,-144.804"/>
<polygon fill="black" stroke="black" points="165.5,-144.683 162,-134.683 158.5,-144.683 165.5,-144.683"/>
</g>
<!-- WORKFLOWINTERNALSINK_joinedResultTable -->
<g id="node13" class="node"><title>WORKFLOWINTERNALSINK_joinedResultTable</title>
<polygon fill="#bcd2ee" stroke="black" points="298,-37.5 204,-37.5 204,-16.5 298,-16.5 298,-37.5"/>
<text text-anchor="middle" x="251" y="-24.5" font-family="Helvetica,sans-Serif" font-size="10.00">joinedResultTable</text>
</g>
<!-- tjoin&#45;&gt;WORKFLOWINTERNALSINK_joinedResultTable -->
<g id="edge18" class="edge"><title>tjoin&#45;&gt;WORKFLOWINTERNALSINK_joinedResultTable</title>
<path fill="none" stroke="black" d="M235.397,-75.452C237.879,-67.7457 241.324,-57.047 244.346,-47.6629"/>
<polygon fill="black" stroke="black" points="247.77,-48.4474 247.504,-37.8559 241.107,-46.3016 247.77,-48.4474"/>
</g>
<!-- WORKFLOWINTERNALSOURCECONTROL -->
<g id="node6" class="node"><title>WORKFLOWINTERNALSOURCECONTROL</title>
<polygon fill="#ff4040" stroke="black" points="267,-245 260,-234.5 274,-234.5 267,-245"/>
</g>
<!-- WORKFLOWINTERNALSOURCE_ConlumnName_catFile -->
<g id="node7" class="node"><title>WORKFLOWINTERNALSOURCE_ConlumnName_catFile</title>
<polygon fill="skyblue" stroke="black" points="204,-248.5 88,-248.5 88,-227.5 204,-227.5 204,-248.5"/>
<text text-anchor="middle" x="146" y="-235.5" font-family="Helvetica,sans-Serif" font-size="10.00">ConlumnName_catFile</text>
</g>
<!-- WORKFLOWINTERNALSOURCE_ConlumnName_catFile&#45;&gt;List_from_column -->
<g id="edge6" class="edge"><title>WORKFLOWINTERNALSOURCE_ConlumnName_catFile&#45;&gt;List_from_column</title>
<path fill="none" stroke="black" d="M150.542,-227.212C151.496,-224.947 152.531,-222.488 153.576,-220.007"/>
<polygon fill="black" stroke="black" points="156.847,-221.258 157.502,-210.683 150.396,-218.541 156.847,-221.258"/>
</g>
<!-- WORKFLOWINTERNALSOURCE_votable -->
<g id="node8" class="node"><title>WORKFLOWINTERNALSOURCE_votable</title>
<polygon fill="skyblue" stroke="black" points="256,-248.5 208,-248.5 208,-227.5 256,-227.5 256,-248.5"/>
<text text-anchor="middle" x="232" y="-235.5" font-family="Helvetica,sans-Serif" font-size="10.00">votable</text>
</g>
<!-- WORKFLOWINTERNALSOURCE_votable&#45;&gt;List_from_column -->
<g id="edge8" class="edge"><title>WORKFLOWINTERNALSOURCE_votable&#45;&gt;List_from_column</title>
<path fill="none" stroke="black" d="M217.479,-227.455C213.229,-224.561 208.511,-221.526 204,-219 201.512,-217.607 198.904,-216.234 196.256,-214.901"/>
<polygon fill="black" stroke="black" points="197.752,-211.737 187.222,-210.563 194.721,-218.047 197.752,-211.737"/>
</g>
<!-- WORKFLOWINTERNALSOURCE_votable&#45;&gt;tjoin -->
<g id="edge12" class="edge"><title>WORKFLOWINTERNALSOURCE_votable&#45;&gt;tjoin</title>
<path fill="none" stroke="black" d="M232,-227.069C232,-201.981 232,-139.918 232,-107.109"/>
<polygon fill="black" stroke="black" points="235.5,-106.832 232,-96.8324 228.5,-106.832 235.5,-106.832"/>
</g>
<!-- WORKFLOWINTERNALSOURCE_Precedence -->
<g id="node9" class="node"><title>WORKFLOWINTERNALSOURCE_Precedence</title>
<polygon fill="skyblue" stroke="black" points="84,-248.5 16,-248.5 16,-227.5 84,-227.5 84,-248.5"/>
<text text-anchor="middle" x="50" y="-235.5" font-family="Helvetica,sans-Serif" font-size="10.00">Precedence</text>
</g>
<!-- WORKFLOWINTERNALSINKCONTROL -->
<g id="node11" class="node"><title>WORKFLOWINTERNALSINKCONTROL</title>
<polygon fill="#66cd00" stroke="black" points="309,-20 316,-30.5 302,-30.5 309,-20"/>
</g>
</g>
</svg>
