<?xml version="1.0" encoding="UTF-8" standalone="no"?>
<!DOCTYPE svg PUBLIC "-//W3C//DTD SVG 1.1//EN"
 "http://www.w3.org/Graphics/SVG/1.1/DTD/svg11.dtd">
<!-- Generated by graphviz version 2.26.0 (20091210.2329)
 -->
<!-- Title: t2flow_graph Pages: 1 -->
<svg width="728pt" height="1296pt"
 viewBox="0.00 0.00 728.00 1296.00" xmlns="http://www.w3.org/2000/svg" xmlns:xlink="http://www.w3.org/1999/xlink">
<g id="graph1" class="graph" transform="scale(1 1) rotate(0) translate(4 1292)">
<title>t2flow_graph</title>
<polygon fill="white" stroke="white" points="-4,5 -4,-1292 725,-1292 725,5 -4,5"/>
<g id="graph2" class="cluster"><title>cluster_Workflow5Workflow5</title>
<polygon fill="aliceblue" stroke="black" points="265,-944 265,-1213 503,-1213 503,-944 265,-944"/>
<text text-anchor="middle" x="296.5" y="-1200" font-family="Helvetica,sans-Serif" font-size="10.00">Workflow5</text>
</g>
<g id="graph3" class="cluster"><title>cluster_Workflow5sources</title>
<polygon fill="none" stroke="black" stroke-dasharray="1,5" points="353,-1125 353,-1184 495,-1184 495,-1125 353,-1125"/>
<text text-anchor="middle" x="397" y="-1171" font-family="Helvetica,sans-Serif" font-size="10.00">Workflow Inputs</text>
</g>
<g id="graph4" class="cluster"><title>cluster_Workflow5sinks</title>
<polygon fill="none" stroke="black" stroke-dasharray="1,5" points="348,-952 348,-1011 470,-1011 470,-952 348,-952"/>
<text text-anchor="middle" x="395.5" y="-998" font-family="Helvetica,sans-Serif" font-size="10.00">Workflow Outputs</text>
</g>
<g id="graph5" class="cluster"><title>cluster_Workflow18Workflow18</title>
<polygon fill="aliceblue" stroke="black" points="334,-629 334,-936 492,-936 492,-629 334,-629"/>
<text text-anchor="middle" x="368" y="-923" font-family="Helvetica,sans-Serif" font-size="10.00">Workflow18</text>
</g>
<g id="graph6" class="cluster"><title>cluster_Workflow18sources</title>
<polygon fill="none" stroke="black" stroke-dasharray="1,5" points="342,-848 342,-907 484,-907 484,-848 342,-848"/>
<text text-anchor="middle" x="386" y="-894" font-family="Helvetica,sans-Serif" font-size="10.00">Workflow Inputs</text>
</g>
<g id="graph7" class="cluster"><title>cluster_Workflow18sinks</title>
<polygon fill="none" stroke="black" stroke-dasharray="1,5" points="354,-637 354,-696 484,-696 484,-637 354,-637"/>
<text text-anchor="middle" x="401.5" y="-683" font-family="Helvetica,sans-Serif" font-size="10.00">Workflow Outputs</text>
</g>
<g id="graph8" class="cluster"><title>cluster_Workflow9Workflow9</title>
<polygon fill="aliceblue" stroke="black" points="350,-352 350,-621 496,-621 496,-352 350,-352"/>
<text text-anchor="middle" x="381.5" y="-608" font-family="Helvetica,sans-Serif" font-size="10.00">Workflow9</text>
</g>
<g id="graph9" class="cluster"><title>cluster_Workflow9sources</title>
<polygon fill="none" stroke="black" stroke-dasharray="1,5" points="382,-533 382,-592 472,-592 472,-533 382,-533"/>
<text text-anchor="middle" x="426" y="-579" font-family="Helvetica,sans-Serif" font-size="10.00">Workflow Inputs</text>
</g>
<g id="graph10" class="cluster"><title>cluster_Workflow9sinks</title>
<polygon fill="none" stroke="black" stroke-dasharray="1,5" points="377,-360 377,-419 487,-419 487,-360 377,-360"/>
<text text-anchor="middle" x="424.5" y="-406" font-family="Helvetica,sans-Serif" font-size="10.00">Workflow Outputs</text>
</g>
<g id="graph11" class="cluster"><title>cluster_Workflow10Workflow10</title>
<polygon fill="aliceblue" stroke="black" points="8,-75 8,-344 712,-344 712,-75 8,-75"/>
<text text-anchor="middle" x="42" y="-331" font-family="Helvetica,sans-Serif" font-size="10.00">Workflow10</text>
</g>
<g id="graph12" class="cluster"><title>cluster_Workflow10sources</title>
<polygon fill="none" stroke="black" stroke-dasharray="1,5" points="387,-256 387,-315 589,-315 589,-256 387,-256"/>
<text text-anchor="middle" x="431" y="-302" font-family="Helvetica,sans-Serif" font-size="10.00">Workflow Inputs</text>
</g>
<g id="graph13" class="cluster"><title>cluster_Workflow10sinks</title>
<polygon fill="none" stroke="black" stroke-dasharray="1,5" points="255,-83 255,-142 621,-142 621,-83 255,-83"/>
<text text-anchor="middle" x="302.5" y="-129" font-family="Helvetica,sans-Serif" font-size="10.00">Workflow Outputs</text>
</g>
<g id="graph14" class="cluster"><title>cluster_sources</title>
<polygon fill="none" stroke="black" stroke-dasharray="1,5" points="303,-1221 303,-1280 647,-1280 647,-1221 303,-1221"/>
<text text-anchor="middle" x="347" y="-1267" font-family="Helvetica,sans-Serif" font-size="10.00">Workflow Inputs</text>
</g>
<g id="graph15" class="cluster"><title>cluster_sinks</title>
<polygon fill="none" stroke="black" stroke-dasharray="1,5" points="199,-8 199,-67 603,-67 603,-8 199,-8"/>
<text text-anchor="middle" x="246.5" y="-54" font-family="Helvetica,sans-Serif" font-size="10.00">Workflow Outputs</text>
</g>
<!-- Workflow5listFilesByExtension -->
<g id="node2" class="node"><title>Workflow5listFilesByExtension</title>
<polygon fill="#d15fee" stroke="black" points="451,-1116.5 345,-1116.5 345,-1095.5 451,-1095.5 451,-1116.5"/>
<text text-anchor="middle" x="398" y="-1103.5" font-family="Helvetica,sans-Serif" font-size="10.00">listFilesByExtension</text>
</g>
<!-- Workflow5binaryFileReader -->
<g id="node4" class="node"><title>Workflow5binaryFileReader</title>
<polygon fill="#deb887" stroke="black" points="443,-1078.5 353,-1078.5 353,-1057.5 443,-1057.5 443,-1078.5"/>
<text text-anchor="middle" x="398" y="-1065.5" font-family="Helvetica,sans-Serif" font-size="10.00">binaryFileReader</text>
</g>
<!-- Workflow5listFilesByExtension&#45;&gt;Workflow5binaryFileReader -->
<g id="edge9" class="edge"><title>Workflow5listFilesByExtension&#45;&gt;Workflow5binaryFileReader</title>
<path fill="none" stroke="black" d="M398,-1095.21C398,-1093.19 398,-1091.01 398,-1088.8"/>
<polygon fill="black" stroke="black" points="401.5,-1088.68 398,-1078.68 394.5,-1088.68 401.5,-1088.68"/>
</g>
<!-- Workflow5fileExtension -->
<g id="node3" class="node"><title>Workflow5fileExtension</title>
<polygon fill="#b0c4de" stroke="black" points="345,-1154.5 273,-1154.5 273,-1133.5 345,-1133.5 345,-1154.5"/>
<text text-anchor="middle" x="309" y="-1141.5" font-family="Helvetica,sans-Serif" font-size="10.00">fileExtension</text>
</g>
<!-- Workflow5fileExtension&#45;&gt;Workflow5listFilesByExtension -->
<g id="edge7" class="edge"><title>Workflow5fileExtension&#45;&gt;Workflow5listFilesByExtension</title>
<path fill="none" stroke="black" d="M332.612,-1133.44C338.899,-1130.67 345.696,-1127.69 352,-1125 355.461,-1123.52 359.076,-1121.99 362.693,-1120.48"/>
<polygon fill="black" stroke="black" points="364.276,-1123.61 372.165,-1116.54 361.588,-1117.15 364.276,-1123.61"/>
</g>
<!-- Workflow5byteArrayToDefaultSystemCharsetString -->
<g id="node5" class="node"><title>Workflow5byteArrayToDefaultSystemCharsetString</title>
<polygon fill="#d15fee" stroke="black" points="495,-1040.5 301,-1040.5 301,-1019.5 495,-1019.5 495,-1040.5"/>
<text text-anchor="middle" x="398" y="-1027.5" font-family="Helvetica,sans-Serif" font-size="10.00">byteArrayToDefaultSystemCharsetString</text>
</g>
<!-- Workflow5binaryFileReader&#45;&gt;Workflow5byteArrayToDefaultSystemCharsetString -->
<g id="edge11" class="edge"><title>Workflow5binaryFileReader&#45;&gt;Workflow5byteArrayToDefaultSystemCharsetString</title>
<path fill="none" stroke="black" d="M398,-1057.21C398,-1055.19 398,-1053.01 398,-1050.8"/>
<polygon fill="black" stroke="black" points="401.5,-1050.68 398,-1040.68 394.5,-1050.68 401.5,-1050.68"/>
</g>
<!-- Workflow5WORKFLOWINTERNALSINK_textFileContents -->
<g id="node11" class="node"><title>Workflow5WORKFLOWINTERNALSINK_textFileContents</title>
<polygon fill="#bcd2ee" stroke="black" points="444,-981.5 356,-981.5 356,-960.5 444,-960.5 444,-981.5"/>
<text text-anchor="middle" x="400" y="-968.5" font-family="Helvetica,sans-Serif" font-size="10.00">textFileContents</text>
</g>
<!-- Workflow5byteArrayToDefaultSystemCharsetString&#45;&gt;Workflow5WORKFLOWINTERNALSINK_textFileContents -->
<g id="edge13" class="edge"><title>Workflow5byteArrayToDefaultSystemCharsetString&#45;&gt;Workflow5WORKFLOWINTERNALSINK_textFileContents</title>
<path fill="none" stroke="black" d="M398.358,-1019.45C398.616,-1011.83 398.974,-1001.28 399.289,-991.966"/>
<polygon fill="black" stroke="black" points="402.791,-991.969 399.632,-981.856 395.795,-991.732 402.791,-991.969"/>
</g>
<!-- Workflow5WORKFLOWINTERNALSOURCECONTROL -->
<g id="node7" class="node"><title>Workflow5WORKFLOWINTERNALSOURCECONTROL</title>
<polygon fill="#ff4040" stroke="black" points="480,-1151 473,-1140.5 487,-1140.5 480,-1151"/>
</g>
<!-- Workflow5WORKFLOWINTERNALSOURCE_textFileDirectoryPath -->
<g id="node8" class="node"><title>Workflow5WORKFLOWINTERNALSOURCE_textFileDirectoryPath</title>
<polygon fill="skyblue" stroke="black" points="469,-1154.5 361,-1154.5 361,-1133.5 469,-1133.5 469,-1154.5"/>
<text text-anchor="middle" x="415" y="-1141.5" font-family="Helvetica,sans-Serif" font-size="10.00">textFileDirectoryPath</text>
</g>
<!-- Workflow5WORKFLOWINTERNALSOURCE_textFileDirectoryPath&#45;&gt;Workflow5listFilesByExtension -->
<g id="edge5" class="edge"><title>Workflow5WORKFLOWINTERNALSOURCE_textFileDirectoryPath&#45;&gt;Workflow5listFilesByExtension</title>
<path fill="none" stroke="black" d="M410.174,-1133.21C409.16,-1130.95 408.061,-1128.49 406.95,-1126.01"/>
<polygon fill="black" stroke="black" points="410.058,-1124.38 402.779,-1116.68 403.668,-1127.24 410.058,-1124.38"/>
</g>
<!-- Workflow5WORKFLOWINTERNALSINKCONTROL -->
<g id="node10" class="node"><title>Workflow5WORKFLOWINTERNALSINKCONTROL</title>
<polygon fill="#66cd00" stroke="black" points="455,-964 462,-974.5 448,-974.5 455,-964"/>
</g>
<!-- Workflow18WORKFLOWINTERNALSOURCE_plainTextForCleaning -->
<g id="node24" class="node"><title>Workflow18WORKFLOWINTERNALSOURCE_plainTextForCleaning</title>
<polygon fill="skyblue" stroke="black" points="458,-877.5 350,-877.5 350,-856.5 458,-856.5 458,-877.5"/>
<text text-anchor="middle" x="404" y="-864.5" font-family="Helvetica,sans-Serif" font-size="10.00">plainTextForCleaning</text>
</g>
<!-- Workflow5WORKFLOWINTERNALSINK_textFileContents&#45;&gt;Workflow18WORKFLOWINTERNALSOURCE_plainTextForCleaning -->
<g id="edge80" class="edge"><title>Workflow5WORKFLOWINTERNALSINK_textFileContents&#45;&gt;Workflow18WORKFLOWINTERNALSOURCE_plainTextForCleaning</title>
<path fill="none" stroke="black" d="M400.413,-960.262C401.069,-943.203 402.361,-909.609 403.202,-887.741"/>
<polygon fill="black" stroke="black" points="406.708,-887.652 403.595,-877.525 399.713,-887.383 406.708,-887.652"/>
</g>
<!-- Workflow18cleanTextASCII -->
<g id="node18" class="node"><title>Workflow18cleanTextASCII</title>
<polygon fill="#a2cd5a" stroke="black" points="453,-763.5 367,-763.5 367,-742.5 453,-742.5 453,-763.5"/>
<text text-anchor="middle" x="410" y="-750.5" font-family="Helvetica,sans-Serif" font-size="10.00">cleanTextASCII</text>
</g>
<!-- Workflow18cleanTextASCII_output -->
<g id="node20" class="node"><title>Workflow18cleanTextASCII_output</title>
<polygon fill="#ab92ea" stroke="black" points="469,-725.5 351,-725.5 351,-704.5 469,-704.5 469,-725.5"/>
<text text-anchor="middle" x="410" y="-712.5" font-family="Helvetica,sans-Serif" font-size="10.00">cleanTextASCII_output</text>
</g>
<!-- Workflow18cleanTextASCII&#45;&gt;Workflow18cleanTextASCII_output -->
<g id="edge22" class="edge"><title>Workflow18cleanTextASCII&#45;&gt;Workflow18cleanTextASCII_output</title>
<path fill="none" stroke="black" d="M410,-742.212C410,-740.19 410,-738.013 410,-735.804"/>
<polygon fill="black" stroke="black" points="413.5,-735.683 410,-725.683 406.5,-735.683 413.5,-735.683"/>
</g>
<!-- Workflow18cleanTextASCII_input -->
<g id="node19" class="node"><title>Workflow18cleanTextASCII_input</title>
<polygon fill="#ab92ea" stroke="black" points="466,-801.5 354,-801.5 354,-780.5 466,-780.5 466,-801.5"/>
<text text-anchor="middle" x="410" y="-788.5" font-family="Helvetica,sans-Serif" font-size="10.00">cleanTextASCII_input</text>
</g>
<!-- Workflow18cleanTextASCII_input&#45;&gt;Workflow18cleanTextASCII -->
<g id="edge18" class="edge"><title>Workflow18cleanTextASCII_input&#45;&gt;Workflow18cleanTextASCII</title>
<path fill="none" stroke="black" d="M410,-780.212C410,-778.19 410,-776.013 410,-773.804"/>
<polygon fill="black" stroke="black" points="413.5,-773.683 410,-763.683 406.5,-773.683 413.5,-773.683"/>
</g>
<!-- Workflow18WORKFLOWINTERNALSINK_cleanedTextASCII -->
<g id="node27" class="node"><title>Workflow18WORKFLOWINTERNALSINK_cleanedTextASCII</title>
<polygon fill="#bcd2ee" stroke="black" points="458,-666.5 362,-666.5 362,-645.5 458,-645.5 458,-666.5"/>
<text text-anchor="middle" x="410" y="-653.5" font-family="Helvetica,sans-Serif" font-size="10.00">cleanedTextASCII</text>
</g>
<!-- Workflow18cleanTextASCII_output&#45;&gt;Workflow18WORKFLOWINTERNALSINK_cleanedTextASCII -->
<g id="edge26" class="edge"><title>Workflow18cleanTextASCII_output&#45;&gt;Workflow18WORKFLOWINTERNALSINK_cleanedTextASCII</title>
<path fill="none" stroke="black" d="M410,-704.452C410,-696.829 410,-686.277 410,-676.966"/>
<polygon fill="black" stroke="black" points="413.5,-676.856 410,-666.856 406.5,-676.856 413.5,-676.856"/>
</g>
<!-- Workflow18encodeByteArrayToBase64 -->
<g id="node21" class="node"><title>Workflow18encodeByteArrayToBase64</title>
<polygon fill="#d15fee" stroke="black" points="478,-839.5 342,-839.5 342,-818.5 478,-818.5 478,-839.5"/>
<text text-anchor="middle" x="410" y="-826.5" font-family="Helvetica,sans-Serif" font-size="10.00">encodeByteArrayToBase64</text>
</g>
<!-- Workflow18encodeByteArrayToBase64&#45;&gt;Workflow18cleanTextASCII_input -->
<g id="edge20" class="edge"><title>Workflow18encodeByteArrayToBase64&#45;&gt;Workflow18cleanTextASCII_input</title>
<path fill="none" stroke="black" d="M410,-818.212C410,-816.19 410,-814.013 410,-811.804"/>
<polygon fill="black" stroke="black" points="413.5,-811.683 410,-801.683 406.5,-811.683 413.5,-811.683"/>
</g>
<!-- Workflow18WORKFLOWINTERNALSOURCECONTROL -->
<g id="node23" class="node"><title>Workflow18WORKFLOWINTERNALSOURCECONTROL</title>
<polygon fill="#ff4040" stroke="black" points="469,-874 462,-863.5 476,-863.5 469,-874"/>
</g>
<!-- Workflow18WORKFLOWINTERNALSOURCE_plainTextForCleaning&#45;&gt;Workflow18encodeByteArrayToBase64 -->
<g id="edge24" class="edge"><title>Workflow18WORKFLOWINTERNALSOURCE_plainTextForCleaning&#45;&gt;Workflow18encodeByteArrayToBase64</title>
<path fill="none" stroke="black" d="M405.703,-856.212C406.023,-854.19 406.366,-852.013 406.715,-849.804"/>
<polygon fill="black" stroke="black" points="410.211,-850.107 408.313,-839.683 403.296,-849.015 410.211,-850.107"/>
</g>
<!-- Workflow18WORKFLOWINTERNALSINKCONTROL -->
<g id="node26" class="node"><title>Workflow18WORKFLOWINTERNALSINKCONTROL</title>
<polygon fill="#66cd00" stroke="black" points="469,-649 476,-659.5 462,-659.5 469,-649"/>
</g>
<!-- Workflow9WORKFLOWINTERNALSOURCE_plainText -->
<g id="node39" class="node"><title>Workflow9WORKFLOWINTERNALSOURCE_plainText</title>
<polygon fill="skyblue" stroke="black" points="446,-562.5 390,-562.5 390,-541.5 446,-541.5 446,-562.5"/>
<text text-anchor="middle" x="418" y="-549.5" font-family="Helvetica,sans-Serif" font-size="10.00">plainText</text>
</g>
<!-- Workflow18WORKFLOWINTERNALSINK_cleanedTextASCII&#45;&gt;Workflow9WORKFLOWINTERNALSOURCE_plainText -->
<g id="edge82" class="edge"><title>Workflow18WORKFLOWINTERNALSINK_cleanedTextASCII&#45;&gt;Workflow9WORKFLOWINTERNALSOURCE_plainText</title>
<path fill="none" stroke="black" d="M410.826,-645.262C412.138,-628.203 414.722,-594.609 416.405,-572.741"/>
<polygon fill="black" stroke="black" points="419.913,-572.764 417.19,-562.525 412.934,-572.227 419.913,-572.764"/>
</g>
<!-- Workflow9splitIntoSentences -->
<g id="node34" class="node"><title>Workflow9splitIntoSentences</title>
<polygon fill="#a2cd5a" stroke="black" points="471,-486.5 373,-486.5 373,-465.5 471,-465.5 471,-486.5"/>
<text text-anchor="middle" x="422" y="-473.5" font-family="Helvetica,sans-Serif" font-size="10.00">splitIntoSentences</text>
</g>
<!-- Workflow9splitIntoSentences_output -->
<g id="node36" class="node"><title>Workflow9splitIntoSentences_output</title>
<polygon fill="#ab92ea" stroke="black" points="488,-448.5 358,-448.5 358,-427.5 488,-427.5 488,-448.5"/>
<text text-anchor="middle" x="423" y="-435.5" font-family="Helvetica,sans-Serif" font-size="10.00">splitIntoSentences_output</text>
</g>
<!-- Workflow9splitIntoSentences&#45;&gt;Workflow9splitIntoSentences_output -->
<g id="edge35" class="edge"><title>Workflow9splitIntoSentences&#45;&gt;Workflow9splitIntoSentences_output</title>
<path fill="none" stroke="black" d="M422.284,-465.212C422.337,-463.19 422.394,-461.013 422.453,-458.804"/>
<polygon fill="black" stroke="black" points="425.954,-458.772 422.719,-448.683 418.957,-458.588 425.954,-458.772"/>
</g>
<!-- Workflow9splitIntoSentences_input -->
<g id="node35" class="node"><title>Workflow9splitIntoSentences_input</title>
<polygon fill="#ab92ea" stroke="black" points="483,-524.5 359,-524.5 359,-503.5 483,-503.5 483,-524.5"/>
<text text-anchor="middle" x="421" y="-511.5" font-family="Helvetica,sans-Serif" font-size="10.00">splitIntoSentences_input</text>
</g>
<!-- Workflow9splitIntoSentences_input&#45;&gt;Workflow9splitIntoSentences -->
<g id="edge31" class="edge"><title>Workflow9splitIntoSentences_input&#45;&gt;Workflow9splitIntoSentences</title>
<path fill="none" stroke="black" d="M421.284,-503.212C421.337,-501.19 421.394,-499.013 421.453,-496.804"/>
<polygon fill="black" stroke="black" points="424.954,-496.772 421.719,-486.683 417.957,-496.588 424.954,-496.772"/>
</g>
<!-- Workflow9WORKFLOWINTERNALSINK_sentencesList -->
<g id="node42" class="node"><title>Workflow9WORKFLOWINTERNALSINK_sentencesList</title>
<polygon fill="#bcd2ee" stroke="black" points="461,-389.5 385,-389.5 385,-368.5 461,-368.5 461,-389.5"/>
<text text-anchor="middle" x="423" y="-376.5" font-family="Helvetica,sans-Serif" font-size="10.00">sentencesList</text>
</g>
<!-- Workflow9splitIntoSentences_output&#45;&gt;Workflow9WORKFLOWINTERNALSINK_sentencesList -->
<g id="edge37" class="edge"><title>Workflow9splitIntoSentences_output&#45;&gt;Workflow9WORKFLOWINTERNALSINK_sentencesList</title>
<path fill="none" stroke="black" d="M423,-427.452C423,-419.829 423,-409.277 423,-399.966"/>
<polygon fill="black" stroke="black" points="426.5,-399.856 423,-389.856 419.5,-399.856 426.5,-399.856"/>
</g>
<!-- Workflow9WORKFLOWINTERNALSOURCECONTROL -->
<g id="node38" class="node"><title>Workflow9WORKFLOWINTERNALSOURCECONTROL</title>
<polygon fill="#ff4040" stroke="black" points="457,-559 450,-548.5 464,-548.5 457,-559"/>
</g>
<!-- Workflow9WORKFLOWINTERNALSOURCE_plainText&#45;&gt;Workflow9splitIntoSentences_input -->
<g id="edge33" class="edge"><title>Workflow9WORKFLOWINTERNALSOURCE_plainText&#45;&gt;Workflow9splitIntoSentences_input</title>
<path fill="none" stroke="black" d="M418.852,-541.212C419.011,-539.19 419.183,-537.013 419.358,-534.804"/>
<polygon fill="black" stroke="black" points="422.859,-534.928 420.157,-524.683 415.88,-534.377 422.859,-534.928"/>
</g>
<!-- Workflow9WORKFLOWINTERNALSINKCONTROL -->
<g id="node41" class="node"><title>Workflow9WORKFLOWINTERNALSINKCONTROL</title>
<polygon fill="#66cd00" stroke="black" points="472,-372 479,-382.5 465,-382.5 472,-372"/>
</g>
<!-- Workflow10WORKFLOWINTERNALSOURCE_sentencesList -->
<g id="node63" class="node"><title>Workflow10WORKFLOWINTERNALSOURCE_sentencesList</title>
<polygon fill="skyblue" stroke="black" points="471,-285.5 395,-285.5 395,-264.5 471,-264.5 471,-285.5"/>
<text text-anchor="middle" x="433" y="-272.5" font-family="Helvetica,sans-Serif" font-size="10.00">sentencesList</text>
</g>
<!-- Workflow9WORKFLOWINTERNALSINK_sentencesList&#45;&gt;Workflow10WORKFLOWINTERNALSOURCE_sentencesList -->
<g id="edge84" class="edge"><title>Workflow9WORKFLOWINTERNALSINK_sentencesList&#45;&gt;Workflow10WORKFLOWINTERNALSOURCE_sentencesList</title>
<path fill="none" stroke="black" d="M424.033,-368.262C425.673,-351.203 428.903,-317.609 431.006,-295.741"/>
<polygon fill="black" stroke="black" points="434.515,-295.814 431.988,-285.525 427.547,-295.144 434.515,-295.814"/>
</g>
<!-- Workflow10sentenceListNormaliser -->
<g id="node48" class="node"><title>Workflow10sentenceListNormaliser</title>
<polygon fill="#deb887" stroke="black" points="492,-247.5 374,-247.5 374,-226.5 492,-226.5 492,-247.5"/>
<text text-anchor="middle" x="433" y="-234.5" font-family="Helvetica,sans-Serif" font-size="10.00">sentenceListNormaliser</text>
</g>
<!-- Workflow10analyze -->
<g id="node49" class="node"><title>Workflow10analyze</title>
<polygon fill="#a2cd5a" stroke="black" points="350,-209.5 300,-209.5 300,-188.5 350,-188.5 350,-209.5"/>
<text text-anchor="middle" x="325" y="-196.5" font-family="Helvetica,sans-Serif" font-size="10.00">analyze</text>
</g>
<!-- Workflow10sentenceListNormaliser&#45;&gt;Workflow10analyze -->
<g id="edge52" class="edge"><title>Workflow10sentenceListNormaliser&#45;&gt;Workflow10analyze</title>
<path fill="none" stroke="black" d="M402.916,-226.415C389.556,-221.714 373.749,-216.153 359.876,-211.271"/>
<polygon fill="black" stroke="black" points="360.773,-207.877 350.179,-207.859 358.45,-214.48 360.773,-207.877"/>
</g>
<!-- Workflow10jamesXPath -->
<g id="node54" class="node"><title>Workflow10jamesXPath</title>
<polygon fill="#deb887" stroke="black" points="478,-171.5 408,-171.5 408,-150.5 478,-150.5 478,-171.5"/>
<text text-anchor="middle" x="443" y="-158.5" font-family="Helvetica,sans-Serif" font-size="10.00">jamesXPath</text>
</g>
<!-- Workflow10analyze&#45;&gt;Workflow10jamesXPath -->
<g id="edge54" class="edge"><title>Workflow10analyze&#45;&gt;Workflow10jamesXPath</title>
<path fill="none" stroke="black" d="M350.025,-190.941C364.729,-186.206 383.703,-180.096 400.673,-174.631"/>
<polygon fill="black" stroke="black" points="401.939,-177.9 410.385,-171.503 399.793,-171.237 401.939,-177.9"/>
</g>
<!-- Workflow10jamesXPath_2 -->
<g id="node59" class="node"><title>Workflow10jamesXPath_2</title>
<polygon fill="#deb887" stroke="black" points="352,-171.5 272,-171.5 272,-150.5 352,-150.5 352,-171.5"/>
<text text-anchor="middle" x="312" y="-158.5" font-family="Helvetica,sans-Serif" font-size="10.00">jamesXPath_2</text>
</g>
<!-- Workflow10analyze&#45;&gt;Workflow10jamesXPath_2 -->
<g id="edge66" class="edge"><title>Workflow10analyze&#45;&gt;Workflow10jamesXPath_2</title>
<path fill="none" stroke="black" d="M321.309,-188.212C320.562,-186.028 319.753,-183.664 318.935,-181.273"/>
<polygon fill="black" stroke="black" points="322.203,-180.012 315.655,-171.683 315.58,-182.278 322.203,-180.012"/>
</g>
<!-- Workflow10filter_value -->
<g id="node50" class="node"><title>Workflow10filter_value</title>
<polygon fill="#b0c4de" stroke="black" points="370,-247.5 306,-247.5 306,-226.5 370,-226.5 370,-247.5"/>
<text text-anchor="middle" x="338" y="-234.5" font-family="Helvetica,sans-Serif" font-size="10.00">filter_value</text>
</g>
<!-- Workflow10filter_value&#45;&gt;Workflow10analyze -->
<g id="edge44" class="edge"><title>Workflow10filter_value&#45;&gt;Workflow10analyze</title>
<path fill="none" stroke="black" d="M334.309,-226.212C333.562,-224.028 332.753,-221.664 331.935,-219.273"/>
<polygon fill="black" stroke="black" points="335.203,-218.012 328.655,-209.683 328.58,-220.278 335.203,-218.012"/>
</g>
<!-- Workflow10input_format_value -->
<g id="node51" class="node"><title>Workflow10input_format_value</title>
<polygon fill="#b0c4de" stroke="black" points="302,-247.5 204,-247.5 204,-226.5 302,-226.5 302,-247.5"/>
<text text-anchor="middle" x="253" y="-234.5" font-family="Helvetica,sans-Serif" font-size="10.00">input_format_value</text>
</g>
<!-- Workflow10input_format_value&#45;&gt;Workflow10analyze -->
<g id="edge46" class="edge"><title>Workflow10input_format_value&#45;&gt;Workflow10analyze</title>
<path fill="none" stroke="black" d="M273.056,-226.415C280.156,-222.668 288.292,-218.374 295.986,-214.313"/>
<polygon fill="black" stroke="black" points="297.841,-217.291 305.052,-209.528 294.574,-211.101 297.841,-217.291"/>
</g>
<!-- Workflow10output_format_value -->
<g id="node52" class="node"><title>Workflow10output_format_value</title>
<polygon fill="#b0c4de" stroke="black" points="200,-247.5 96,-247.5 96,-226.5 200,-226.5 200,-247.5"/>
<text text-anchor="middle" x="148" y="-234.5" font-family="Helvetica,sans-Serif" font-size="10.00">output_format_value</text>
</g>
<!-- Workflow10output_format_value&#45;&gt;Workflow10analyze -->
<g id="edge48" class="edge"><title>Workflow10output_format_value&#45;&gt;Workflow10analyze</title>
<path fill="none" stroke="black" d="M200.158,-226.716C201.451,-226.474 202.733,-226.234 204,-226 241.621,-219.035 254.047,-220.632 290.087,-211.462"/>
<polygon fill="black" stroke="black" points="291.021,-214.835 299.788,-208.887 289.225,-208.07 291.021,-214.835"/>
</g>
<!-- Workflow10stoplist_value -->
<g id="node53" class="node"><title>Workflow10stoplist_value</title>
<polygon fill="#b0c4de" stroke="black" points="92,-247.5 16,-247.5 16,-226.5 92,-226.5 92,-247.5"/>
<text text-anchor="middle" x="54" y="-234.5" font-family="Helvetica,sans-Serif" font-size="10.00">stoplist_value</text>
</g>
<!-- Workflow10stoplist_value&#45;&gt;Workflow10analyze -->
<g id="edge50" class="edge"><title>Workflow10stoplist_value&#45;&gt;Workflow10analyze</title>
<path fill="none" stroke="black" d="M92.3932,-226.655C93.6065,-226.421 94.811,-226.202 96,-226 180.655,-211.643 207.051,-228.238 289.977,-211.158"/>
<polygon fill="black" stroke="black" points="290.789,-214.564 299.823,-209.03 289.31,-207.722 290.789,-214.564"/>
</g>
<!-- Workflow10WORKFLOWINTERNALSINK_termCandidatesAboveThreshold -->
<g id="node67" class="node"><title>Workflow10WORKFLOWINTERNALSINK_termCandidatesAboveThreshold</title>
<polygon fill="#bcd2ee" stroke="black" points="521,-112.5 365,-112.5 365,-91.5 521,-91.5 521,-112.5"/>
<text text-anchor="middle" x="443" y="-99.5" font-family="Helvetica,sans-Serif" font-size="10.00">termCandidatesAboveThreshold</text>
</g>
<!-- Workflow10jamesXPath&#45;&gt;Workflow10WORKFLOWINTERNALSINK_termCandidatesAboveThreshold -->
<g id="edge70" class="edge"><title>Workflow10jamesXPath&#45;&gt;Workflow10WORKFLOWINTERNALSINK_termCandidatesAboveThreshold</title>
<path fill="none" stroke="black" d="M443,-150.452C443,-142.829 443,-132.277 443,-122.966"/>
<polygon fill="black" stroke="black" points="446.5,-122.856 443,-112.856 439.5,-122.856 446.5,-122.856"/>
</g>
<!-- Workflow10Concatenate_two_strings -->
<g id="node55" class="node"><title>Workflow10Concatenate_two_strings</title>
<polygon fill="#d15fee" stroke="black" points="624,-247.5 496,-247.5 496,-226.5 624,-226.5 624,-247.5"/>
<text text-anchor="middle" x="560" y="-234.5" font-family="Helvetica,sans-Serif" font-size="10.00">Concatenate_two_strings</text>
</g>
<!-- Workflow10Concatenate_two_strings_2 -->
<g id="node57" class="node"><title>Workflow10Concatenate_two_strings_2</title>
<polygon fill="#d15fee" stroke="black" points="629,-209.5 491,-209.5 491,-188.5 629,-188.5 629,-209.5"/>
<text text-anchor="middle" x="560" y="-196.5" font-family="Helvetica,sans-Serif" font-size="10.00">Concatenate_two_strings_2</text>
</g>
<!-- Workflow10Concatenate_two_strings&#45;&gt;Workflow10Concatenate_two_strings_2 -->
<g id="edge62" class="edge"><title>Workflow10Concatenate_two_strings&#45;&gt;Workflow10Concatenate_two_strings_2</title>
<path fill="none" stroke="black" d="M560,-226.212C560,-224.19 560,-222.013 560,-219.804"/>
<polygon fill="black" stroke="black" points="563.5,-219.683 560,-209.683 556.5,-219.683 563.5,-219.683"/>
</g>
<!-- Workflow10xpath_first_bit -->
<g id="node56" class="node"><title>Workflow10xpath_first_bit</title>
<polygon fill="#b0c4de" stroke="black" points="675,-285.5 597,-285.5 597,-264.5 675,-264.5 675,-285.5"/>
<text text-anchor="middle" x="636" y="-272.5" font-family="Helvetica,sans-Serif" font-size="10.00">xpath_first_bit</text>
</g>
<!-- Workflow10xpath_first_bit&#45;&gt;Workflow10Concatenate_two_strings -->
<g id="edge60" class="edge"><title>Workflow10xpath_first_bit&#45;&gt;Workflow10Concatenate_two_strings</title>
<path fill="none" stroke="black" d="M614.83,-264.415C607.171,-260.585 598.369,-256.185 590.091,-252.046"/>
<polygon fill="black" stroke="black" points="591.566,-248.87 581.057,-247.528 588.436,-255.131 591.566,-248.87"/>
</g>
<!-- Workflow10Concatenate_two_strings_2&#45;&gt;Workflow10jamesXPath -->
<g id="edge56" class="edge"><title>Workflow10Concatenate_two_strings_2&#45;&gt;Workflow10jamesXPath</title>
<path fill="none" stroke="black" d="M527.409,-188.415C514.351,-184.174 499.134,-179.232 485.245,-174.721"/>
<polygon fill="black" stroke="black" points="486.008,-171.289 475.416,-171.528 483.846,-177.946 486.008,-171.289"/>
</g>
<!-- Workflow10WORKFLOWINTERNALSINK_xpathOutput -->
<g id="node68" class="node"><title>Workflow10WORKFLOWINTERNALSINK_xpathOutput</title>
<polygon fill="#bcd2ee" stroke="black" points="595,-112.5 525,-112.5 525,-91.5 595,-91.5 595,-112.5"/>
<text text-anchor="middle" x="560" y="-99.5" font-family="Helvetica,sans-Serif" font-size="10.00">xpathOutput</text>
</g>
<!-- Workflow10Concatenate_two_strings_2&#45;&gt;Workflow10WORKFLOWINTERNALSINK_xpathOutput -->
<g id="edge72" class="edge"><title>Workflow10Concatenate_two_strings_2&#45;&gt;Workflow10WORKFLOWINTERNALSINK_xpathOutput</title>
<path fill="none" stroke="black" d="M560,-188.249C560,-172.433 560,-142.603 560,-122.513"/>
<polygon fill="black" stroke="black" points="563.5,-122.505 560,-112.505 556.5,-122.505 563.5,-122.505"/>
</g>
<!-- Workflow10xpath_last_bit -->
<g id="node58" class="node"><title>Workflow10xpath_last_bit</title>
<polygon fill="#b0c4de" stroke="black" points="704,-247.5 628,-247.5 628,-226.5 704,-226.5 704,-247.5"/>
<text text-anchor="middle" x="666" y="-234.5" font-family="Helvetica,sans-Serif" font-size="10.00">xpath_last_bit</text>
</g>
<!-- Workflow10xpath_last_bit&#45;&gt;Workflow10Concatenate_two_strings_2 -->
<g id="edge64" class="edge"><title>Workflow10xpath_last_bit&#45;&gt;Workflow10Concatenate_two_strings_2</title>
<path fill="none" stroke="black" d="M636.473,-226.415C624.872,-222.256 611.391,-217.423 599.008,-212.984"/>
<polygon fill="black" stroke="black" points="599.963,-209.608 589.369,-209.528 597.601,-216.198 599.963,-209.608"/>
</g>
<!-- Workflow10WORKFLOWINTERNALSINK_allTermCandidates -->
<g id="node69" class="node"><title>Workflow10WORKFLOWINTERNALSINK_allTermCandidates</title>
<polygon fill="#bcd2ee" stroke="black" points="361,-112.5 263,-112.5 263,-91.5 361,-91.5 361,-112.5"/>
<text text-anchor="middle" x="312" y="-99.5" font-family="Helvetica,sans-Serif" font-size="10.00">allTermCandidates</text>
</g>
<!-- Workflow10jamesXPath_2&#45;&gt;Workflow10WORKFLOWINTERNALSINK_allTermCandidates -->
<g id="edge74" class="edge"><title>Workflow10jamesXPath_2&#45;&gt;Workflow10WORKFLOWINTERNALSINK_allTermCandidates</title>
<path fill="none" stroke="black" d="M312,-150.452C312,-142.829 312,-132.277 312,-122.966"/>
<polygon fill="black" stroke="black" points="315.5,-122.856 312,-112.856 308.5,-122.856 315.5,-122.856"/>
</g>
<!-- Workflow10xPathString_value -->
<g id="node60" class="node"><title>Workflow10xPathString_value</title>
<polygon fill="#b0c4de" stroke="black" points="296,-209.5 200,-209.5 200,-188.5 296,-188.5 296,-209.5"/>
<text text-anchor="middle" x="248" y="-196.5" font-family="Helvetica,sans-Serif" font-size="10.00">xPathString_value</text>
</g>
<!-- Workflow10xPathString_value&#45;&gt;Workflow10jamesXPath_2 -->
<g id="edge68" class="edge"><title>Workflow10xPathString_value&#45;&gt;Workflow10jamesXPath_2</title>
<path fill="none" stroke="black" d="M265.828,-188.415C271.93,-184.791 278.895,-180.656 285.532,-176.715"/>
<polygon fill="black" stroke="black" points="287.456,-179.643 294.268,-171.528 283.883,-173.624 287.456,-179.643"/>
</g>
<!-- Workflow10WORKFLOWINTERNALSOURCECONTROL -->
<g id="node62" class="node"><title>Workflow10WORKFLOWINTERNALSOURCECONTROL</title>
<polygon fill="#ff4040" stroke="black" points="574,-282 567,-271.5 581,-271.5 574,-282"/>
</g>
<!-- Workflow10WORKFLOWINTERNALSOURCE_sentencesList&#45;&gt;Workflow10sentenceListNormaliser -->
<g id="edge42" class="edge"><title>Workflow10WORKFLOWINTERNALSOURCE_sentencesList&#45;&gt;Workflow10sentenceListNormaliser</title>
<path fill="none" stroke="black" d="M433,-264.212C433,-262.19 433,-260.013 433,-257.804"/>
<polygon fill="black" stroke="black" points="436.5,-257.683 433,-247.683 429.5,-257.683 436.5,-257.683"/>
</g>
<!-- Workflow10WORKFLOWINTERNALSOURCE_cValueThreshold -->
<g id="node64" class="node"><title>Workflow10WORKFLOWINTERNALSOURCE_cValueThreshold</title>
<polygon fill="skyblue" stroke="black" points="563,-285.5 475,-285.5 475,-264.5 563,-264.5 563,-285.5"/>
<text text-anchor="middle" x="519" y="-272.5" font-family="Helvetica,sans-Serif" font-size="10.00">cValueThreshold</text>
</g>
<!-- Workflow10WORKFLOWINTERNALSOURCE_cValueThreshold&#45;&gt;Workflow10Concatenate_two_strings -->
<g id="edge58" class="edge"><title>Workflow10WORKFLOWINTERNALSOURCE_cValueThreshold&#45;&gt;Workflow10Concatenate_two_strings</title>
<path fill="none" stroke="black" d="M530.639,-264.212C533.869,-261.219 537.463,-257.888 540.997,-254.613"/>
<polygon fill="black" stroke="black" points="543.518,-257.048 548.474,-247.683 538.76,-251.914 543.518,-257.048"/>
</g>
<!-- Workflow10WORKFLOWINTERNALSINKCONTROL -->
<g id="node66" class="node"><title>Workflow10WORKFLOWINTERNALSINKCONTROL</title>
<polygon fill="#66cd00" stroke="black" points="606,-95 613,-105.5 599,-105.5 606,-95"/>
</g>
<!-- WORKFLOWINTERNALSINK_Workflow10_termCandidatesAboveThreshold -->
<g id="node93" class="node"><title>WORKFLOWINTERNALSINK_Workflow10_termCandidatesAboveThreshold</title>
<polygon fill="#bcd2ee" stroke="black" points="577,-37.5 365,-37.5 365,-16.5 577,-16.5 577,-37.5"/>
<text text-anchor="middle" x="471" y="-24.5" font-family="Helvetica,sans-Serif" font-size="10.00">Workflow10_termCandidatesAboveThreshold</text>
</g>
<!-- Workflow10WORKFLOWINTERNALSINK_termCandidatesAboveThreshold&#45;&gt;WORKFLOWINTERNALSINK_Workflow10_termCandidatesAboveThreshold -->
<g id="edge88" class="edge"><title>Workflow10WORKFLOWINTERNALSINK_termCandidatesAboveThreshold&#45;&gt;WORKFLOWINTERNALSINK_Workflow10_termCandidatesAboveThreshold</title>
<path fill="none" stroke="black" d="M447.012,-91.2543C451.295,-79.7815 458.181,-61.3374 463.479,-47.1466"/>
<polygon fill="black" stroke="black" points="466.777,-48.3183 466.996,-37.7257 460.219,-45.87 466.777,-48.3183"/>
</g>
<!-- WORKFLOWINTERNALSINK_Workflow10_allTermCandidates -->
<g id="node94" class="node"><title>WORKFLOWINTERNALSINK_Workflow10_allTermCandidates</title>
<polygon fill="#bcd2ee" stroke="black" points="361,-37.5 207,-37.5 207,-16.5 361,-16.5 361,-37.5"/>
<text text-anchor="middle" x="284" y="-24.5" font-family="Helvetica,sans-Serif" font-size="10.00">Workflow10_allTermCandidates</text>
</g>
<!-- Workflow10WORKFLOWINTERNALSINK_allTermCandidates&#45;&gt;WORKFLOWINTERNALSINK_Workflow10_allTermCandidates -->
<g id="edge90" class="edge"><title>Workflow10WORKFLOWINTERNALSINK_allTermCandidates&#45;&gt;WORKFLOWINTERNALSINK_Workflow10_allTermCandidates</title>
<path fill="none" stroke="black" d="M307.988,-91.2543C303.705,-79.7815 296.819,-61.3374 291.521,-47.1466"/>
<polygon fill="black" stroke="black" points="294.781,-45.87 288.004,-37.7257 288.223,-48.3183 294.781,-45.87"/>
</g>
<!-- WORKFLOWINTERNALSOURCECONTROL -->
<g id="node88" class="node"><title>WORKFLOWINTERNALSOURCECONTROL</title>
<polygon fill="#ff4040" stroke="black" points="632,-1247 625,-1236.5 639,-1236.5 632,-1247"/>
</g>
<!-- WORKFLOWINTERNALSOURCE_Workflow5_textFileDirectoryPath -->
<g id="node89" class="node"><title>WORKFLOWINTERNALSOURCE_Workflow5_textFileDirectoryPath</title>
<polygon fill="skyblue" stroke="black" points="471,-1250.5 311,-1250.5 311,-1229.5 471,-1229.5 471,-1250.5"/>
<text text-anchor="middle" x="391" y="-1237.5" font-family="Helvetica,sans-Serif" font-size="10.00">Workflow5_textFileDirectoryPath</text>
</g>
<!-- WORKFLOWINTERNALSOURCE_Workflow5_textFileDirectoryPath&#45;&gt;Workflow5WORKFLOWINTERNALSOURCE_textFileDirectoryPath -->
<g id="edge78" class="edge"><title>WORKFLOWINTERNALSOURCE_Workflow5_textFileDirectoryPath&#45;&gt;Workflow5WORKFLOWINTERNALSOURCE_textFileDirectoryPath</title>
<path fill="none" stroke="black" d="M393.66,-1229.36C397.553,-1213.79 404.876,-1184.49 409.846,-1164.62"/>
<polygon fill="black" stroke="black" points="413.298,-1165.24 412.328,-1154.69 406.507,-1163.54 413.298,-1165.24"/>
</g>
<!-- WORKFLOWINTERNALSOURCE_Workflow10_cValueThreshold -->
<g id="node90" class="node"><title>WORKFLOWINTERNALSOURCE_Workflow10_cValueThreshold</title>
<polygon fill="skyblue" stroke="black" points="621,-1250.5 475,-1250.5 475,-1229.5 621,-1229.5 621,-1250.5"/>
<text text-anchor="middle" x="548" y="-1237.5" font-family="Helvetica,sans-Serif" font-size="10.00">Workflow10_cValueThreshold</text>
</g>
<!-- WORKFLOWINTERNALSOURCE_Workflow10_cValueThreshold&#45;&gt;Workflow10WORKFLOWINTERNALSOURCE_cValueThreshold -->
<g id="edge86" class="edge"><title>WORKFLOWINTERNALSOURCE_Workflow10_cValueThreshold&#45;&gt;Workflow10WORKFLOWINTERNALSOURCE_cValueThreshold</title>
<path fill="none" stroke="black" d="M544.763,-1229.35C538.212,-1206.81 524,-1152.56 524,-1106 524,-1106 524,-1106 524,-438 524,-386.813 521.506,-326.627 520.041,-295.683"/>
<polygon fill="black" stroke="black" points="523.536,-295.495 519.554,-285.676 516.544,-295.835 523.536,-295.495"/>
</g>
<!-- WORKFLOWINTERNALSINKCONTROL -->
<g id="node92" class="node"><title>WORKFLOWINTERNALSINKCONTROL</title>
<polygon fill="#66cd00" stroke="black" points="588,-20 595,-30.5 581,-30.5 588,-20"/>
</g>
</g>
</svg>
