<?xml version="1.0" encoding="UTF-8" standalone="no"?>
<!DOCTYPE svg PUBLIC "-//W3C//DTD SVG 1.1//EN"
 "http://www.w3.org/Graphics/SVG/1.1/DTD/svg11.dtd">
<!-- Generated by graphviz version 2.26.0 (20091210.2329)
 -->
<!-- Title: t2flow_graph Pages: 1 -->
<svg width="576pt" height="294pt"
 viewBox="0.00 0.00 576.00 294.00" xmlns="http://www.w3.org/2000/svg" xmlns:xlink="http://www.w3.org/1999/xlink">
<g id="graph1" class="graph" transform="scale(1 1) rotate(0) translate(4 290)">
<title>t2flow_graph</title>
<polygon fill="white" stroke="white" points="-4,5 -4,-290 573,-290 573,5 -4,5"/>
<g id="graph2" class="cluster"><title>cluster_sources</title>
<polygon fill="none" stroke="black" stroke-dasharray="1,5" points="204,-219 204,-278 560,-278 560,-219 204,-219"/>
<text text-anchor="middle" x="248" y="-265" font-family="Helvetica,sans-Serif" font-size="10.00">Workflow Inputs</text>
</g>
<g id="graph3" class="cluster"><title>cluster_sinks</title>
<polygon fill="none" stroke="black" stroke-dasharray="1,5" points="438,-8 438,-67 533,-67 533,-8 438,-8"/>
<text text-anchor="middle" x="485.5" y="-54" font-family="Helvetica,sans-Serif" font-size="10.00">Workflow Outputs</text>
</g>
<!-- create_blastall_cmdArgs -->
<g id="node1" class="node"><title>create_blastall_cmdArgs</title>
<polygon fill="#deb887" stroke="black" points="501,-210.5 377,-210.5 377,-189.5 501,-189.5 501,-210.5"/>
<text text-anchor="middle" x="439" y="-197.5" font-family="Helvetica,sans-Serif" font-size="10.00">create_blastall_cmdArgs</text>
</g>
<!-- runBlastSearch -->
<g id="node3" class="node"><title>runBlastSearch</title>
<polygon fill="#d15fee" stroke="black" points="434,-134.5 352,-134.5 352,-113.5 434,-113.5 434,-134.5"/>
<text text-anchor="middle" x="393" y="-121.5" font-family="Helvetica,sans-Serif" font-size="10.00">runBlastSearch</text>
</g>
<!-- create_blastall_cmdArgs&#45;&gt;runBlastSearch -->
<g id="edge16" class="edge"><title>create_blastall_cmdArgs&#45;&gt;runBlastSearch</title>
<path fill="none" stroke="black" d="M449.842,-189.315C458.956,-178.998 469.276,-163.19 461,-151 456.684,-144.642 450.61,-139.781 443.85,-136.065"/>
<polygon fill="black" stroke="black" points="444.855,-132.675 434.307,-131.674 441.928,-139.034 444.855,-132.675"/>
</g>
<!-- create_formatdb_cmdArgs -->
<g id="node2" class="node"><title>create_formatdb_cmdArgs</title>
<polygon fill="#deb887" stroke="black" points="346,-210.5 216,-210.5 216,-189.5 346,-189.5 346,-210.5"/>
<text text-anchor="middle" x="281" y="-197.5" font-family="Helvetica,sans-Serif" font-size="10.00">create_formatdb_cmdArgs</text>
</g>
<!-- local_create_blastdb -->
<g id="node4" class="node"><title>local_create_blastdb</title>
<polygon fill="#d15fee" stroke="black" points="267,-172.5 161,-172.5 161,-151.5 267,-151.5 267,-172.5"/>
<text text-anchor="middle" x="214" y="-159.5" font-family="Helvetica,sans-Serif" font-size="10.00">local_create_blastdb</text>
</g>
<!-- create_formatdb_cmdArgs&#45;&gt;local_create_blastdb -->
<g id="edge20" class="edge"><title>create_formatdb_cmdArgs&#45;&gt;local_create_blastdb</title>
<path fill="none" stroke="black" d="M262.337,-189.415C255.948,-185.791 248.657,-181.656 241.709,-177.715"/>
<polygon fill="black" stroke="black" points="242.988,-174.417 232.563,-172.528 239.535,-180.506 242.988,-174.417"/>
</g>
<!-- Read_Text_File -->
<g id="node7" class="node"><title>Read_Text_File</title>
<polygon fill="#d15fee" stroke="black" points="519,-96.5 433,-96.5 433,-75.5 519,-75.5 519,-96.5"/>
<text text-anchor="middle" x="476" y="-83.5" font-family="Helvetica,sans-Serif" font-size="10.00">Read_Text_File</text>
</g>
<!-- runBlastSearch&#45;&gt;Read_Text_File -->
<g id="edge28" class="edge"><title>runBlastSearch&#45;&gt;Read_Text_File</title>
<path fill="none" stroke="gray" d="M416.12,-113.415C425.204,-109.256 435.76,-104.423 445.456,-99.9839"/>
<ellipse fill="none" stroke="gray" cx="449.367" cy="-98.1935" rx="4.00002" ry="4.00002"/>
</g>
<!-- local_create_blastdb&#45;&gt;runBlastSearch -->
<g id="edge30" class="edge"><title>local_create_blastdb&#45;&gt;runBlastSearch</title>
<path fill="none" stroke="gray" d="M263.861,-151.415C288.878,-146.104 319.072,-139.694 343.972,-134.408"/>
<ellipse fill="none" stroke="gray" cx="347.944" cy="-133.565" rx="4.00001" ry="4.00001"/>
</g>
<!-- runBlastSearch_command_defaultValue -->
<g id="node5" class="node"><title>runBlastSearch_command_defaultValue</title>
<polygon fill="#b0c4de" stroke="black" points="461,-172.5 271,-172.5 271,-151.5 461,-151.5 461,-172.5"/>
<text text-anchor="middle" x="366" y="-159.5" font-family="Helvetica,sans-Serif" font-size="10.00">runBlastSearch_command_defaultValue</text>
</g>
<!-- runBlastSearch_command_defaultValue&#45;&gt;runBlastSearch -->
<g id="edge18" class="edge"><title>runBlastSearch_command_defaultValue&#45;&gt;runBlastSearch</title>
<path fill="none" stroke="black" d="M373.665,-151.212C375.505,-148.623 377.523,-145.782 379.541,-142.943"/>
<polygon fill="black" stroke="black" points="382.47,-144.862 385.409,-134.683 376.764,-140.808 382.47,-144.862"/>
</g>
<!-- local_create_blastdb_command_defaultValue -->
<g id="node6" class="node"><title>local_create_blastdb_command_defaultValue</title>
<polygon fill="#b0c4de" stroke="black" points="212,-210.5 7.10543e-14,-210.5 0,-189.5 212,-189.5 212,-210.5"/>
<text text-anchor="middle" x="106" y="-197.5" font-family="Helvetica,sans-Serif" font-size="10.00">local_create_blastdb_command_defaultValue</text>
</g>
<!-- local_create_blastdb_command_defaultValue&#45;&gt;local_create_blastdb -->
<g id="edge22" class="edge"><title>local_create_blastdb_command_defaultValue&#45;&gt;local_create_blastdb</title>
<path fill="none" stroke="black" d="M136.084,-189.415C148.021,-185.215 161.912,-180.327 174.631,-175.852"/>
<polygon fill="black" stroke="black" points="175.806,-179.149 184.077,-172.528 173.482,-172.546 175.806,-179.149"/>
</g>
<!-- WORKFLOWINTERNALSINK_Result -->
<g id="node17" class="node"><title>WORKFLOWINTERNALSINK_Result</title>
<polygon fill="#bcd2ee" stroke="black" points="498,-37.5 454,-37.5 454,-16.5 498,-16.5 498,-37.5"/>
<text text-anchor="middle" x="476" y="-24.5" font-family="Helvetica,sans-Serif" font-size="10.00">Result</text>
</g>
<!-- Read_Text_File&#45;&gt;WORKFLOWINTERNALSINK_Result -->
<g id="edge26" class="edge"><title>Read_Text_File&#45;&gt;WORKFLOWINTERNALSINK_Result</title>
<path fill="none" stroke="black" d="M476,-75.452C476,-67.8285 476,-57.2768 476,-47.966"/>
<polygon fill="black" stroke="black" points="479.5,-47.8558 476,-37.8559 472.5,-47.8559 479.5,-47.8558"/>
</g>
<!-- WORKFLOWINTERNALSOURCECONTROL -->
<g id="node9" class="node"><title>WORKFLOWINTERNALSOURCECONTROL</title>
<polygon fill="#ff4040" stroke="black" points="545,-245 538,-234.5 552,-234.5 545,-245"/>
</g>
<!-- WORKFLOWINTERNALSOURCE_targetProteins -->
<g id="node10" class="node"><title>WORKFLOWINTERNALSOURCE_targetProteins</title>
<polygon fill="skyblue" stroke="black" points="428,-248.5 352,-248.5 352,-227.5 428,-227.5 428,-248.5"/>
<text text-anchor="middle" x="390" y="-235.5" font-family="Helvetica,sans-Serif" font-size="10.00">targetProteins</text>
</g>
<!-- WORKFLOWINTERNALSOURCE_targetProteins&#45;&gt;create_blastall_cmdArgs -->
<g id="edge8" class="edge"><title>WORKFLOWINTERNALSOURCE_targetProteins&#45;&gt;create_blastall_cmdArgs</title>
<path fill="none" stroke="black" d="M403.649,-227.415C407.897,-224.121 412.69,-220.404 417.344,-216.794"/>
<polygon fill="black" stroke="black" points="419.667,-219.422 425.424,-210.528 415.377,-213.891 419.667,-219.422"/>
</g>
<!-- WORKFLOWINTERNALSOURCE_sourceProteins -->
<g id="node11" class="node"><title>WORKFLOWINTERNALSOURCE_sourceProteins</title>
<polygon fill="skyblue" stroke="black" points="294,-248.5 212,-248.5 212,-227.5 294,-227.5 294,-248.5"/>
<text text-anchor="middle" x="253" y="-235.5" font-family="Helvetica,sans-Serif" font-size="10.00">sourceProteins</text>
</g>
<!-- WORKFLOWINTERNALSOURCE_sourceProteins&#45;&gt;create_formatdb_cmdArgs -->
<g id="edge12" class="edge"><title>WORKFLOWINTERNALSOURCE_sourceProteins&#45;&gt;create_formatdb_cmdArgs</title>
<path fill="none" stroke="black" d="M260.949,-227.212C262.857,-224.623 264.95,-221.782 267.042,-218.943"/>
<polygon fill="black" stroke="black" points="270.014,-220.81 273.128,-210.683 264.379,-216.657 270.014,-220.81"/>
</g>
<!-- WORKFLOWINTERNALSOURCE_dbSave -->
<g id="node12" class="node"><title>WORKFLOWINTERNALSOURCE_dbSave</title>
<polygon fill="skyblue" stroke="black" points="348,-248.5 298,-248.5 298,-227.5 348,-227.5 348,-248.5"/>
<text text-anchor="middle" x="323" y="-235.5" font-family="Helvetica,sans-Serif" font-size="10.00">dbSave</text>
</g>
<!-- WORKFLOWINTERNALSOURCE_dbSave&#45;&gt;create_blastall_cmdArgs -->
<g id="edge6" class="edge"><title>WORKFLOWINTERNALSOURCE_dbSave&#45;&gt;create_blastall_cmdArgs</title>
<path fill="none" stroke="black" d="M336.874,-227.435C341.488,-224.334 346.783,-221.19 352,-219 356.989,-216.905 362.24,-215.028 367.589,-213.348"/>
<polygon fill="black" stroke="black" points="368.657,-216.683 377.285,-210.533 366.705,-209.96 368.657,-216.683"/>
</g>
<!-- WORKFLOWINTERNALSOURCE_dbSave&#45;&gt;create_formatdb_cmdArgs -->
<g id="edge14" class="edge"><title>WORKFLOWINTERNALSOURCE_dbSave&#45;&gt;create_formatdb_cmdArgs</title>
<path fill="none" stroke="black" d="M311.077,-227.212C307.768,-224.219 304.087,-220.888 300.467,-217.613"/>
<polygon fill="black" stroke="black" points="302.571,-214.797 292.808,-210.683 297.875,-219.988 302.571,-214.797"/>
</g>
<!-- WORKFLOWINTERNALSOURCE_eValue -->
<g id="node13" class="node"><title>WORKFLOWINTERNALSOURCE_eValue</title>
<polygon fill="skyblue" stroke="black" points="478,-248.5 432,-248.5 432,-227.5 478,-227.5 478,-248.5"/>
<text text-anchor="middle" x="455" y="-235.5" font-family="Helvetica,sans-Serif" font-size="10.00">eValue</text>
</g>
<!-- WORKFLOWINTERNALSOURCE_eValue&#45;&gt;create_blastall_cmdArgs -->
<g id="edge4" class="edge"><title>WORKFLOWINTERNALSOURCE_eValue&#45;&gt;create_blastall_cmdArgs</title>
<path fill="none" stroke="black" d="M450.458,-227.212C449.504,-224.947 448.469,-222.488 447.424,-220.007"/>
<polygon fill="black" stroke="black" points="450.604,-218.541 443.498,-210.683 444.153,-221.258 450.604,-218.541"/>
</g>
<!-- WORKFLOWINTERNALSOURCE_blastFile -->
<g id="node14" class="node"><title>WORKFLOWINTERNALSOURCE_blastFile</title>
<polygon fill="skyblue" stroke="black" points="534,-248.5 482,-248.5 482,-227.5 534,-227.5 534,-248.5"/>
<text text-anchor="middle" x="508" y="-235.5" font-family="Helvetica,sans-Serif" font-size="10.00">blastFile</text>
</g>
<!-- WORKFLOWINTERNALSOURCE_blastFile&#45;&gt;create_blastall_cmdArgs -->
<g id="edge10" class="edge"><title>WORKFLOWINTERNALSOURCE_blastFile&#45;&gt;create_blastall_cmdArgs</title>
<path fill="none" stroke="black" d="M492.007,-227.41C487.535,-224.575 482.63,-221.583 478,-219 475.756,-217.748 473.417,-216.492 471.048,-215.255"/>
<polygon fill="black" stroke="black" points="472.408,-212.02 461.904,-210.632 469.249,-218.267 472.408,-212.02"/>
</g>
<!-- WORKFLOWINTERNALSOURCE_blastFile&#45;&gt;Read_Text_File -->
<g id="edge24" class="edge"><title>WORKFLOWINTERNALSOURCE_blastFile&#45;&gt;Read_Text_File</title>
<path fill="none" stroke="black" d="M506.789,-227.437C505.577,-217.48 503.532,-202.164 501,-189 495.462,-160.204 487.131,-127.346 481.631,-106.642"/>
<polygon fill="black" stroke="black" points="484.948,-105.499 478.972,-96.7505 478.188,-107.316 484.948,-105.499"/>
</g>
<!-- WORKFLOWINTERNALSINKCONTROL -->
<g id="node16" class="node"><title>WORKFLOWINTERNALSINKCONTROL</title>
<polygon fill="#66cd00" stroke="black" points="513,-20 520,-30.5 506,-30.5 513,-20"/>
</g>
</g>
</svg>
