<?xml version="1.0" encoding="UTF-8" standalone="no"?>
<!DOCTYPE svg PUBLIC "-//W3C//DTD SVG 1.1//EN"
 "http://www.w3.org/Graphics/SVG/1.1/DTD/svg11.dtd">
<!-- Generated by graphviz version 2.26.0 (20091210.2329)
 -->
<!-- Title: t2flow_graph Pages: 1 -->
<svg width="1006pt" height="252pt"
 viewBox="0.00 0.00 1006.00 252.00" xmlns="http://www.w3.org/2000/svg" xmlns:xlink="http://www.w3.org/1999/xlink">
<g id="graph1" class="graph" transform="scale(1 1) rotate(0) translate(4 248)">
<title>t2flow_graph</title>
<polygon fill="white" stroke="white" points="-4,5 -4,-248 1003,-248 1003,5 -4,5"/>
<g id="graph2" class="cluster"><title>cluster_sources</title>
<polygon fill="none" stroke="black" stroke-dasharray="1,5" points="902,-185 902,-236 990,-236 990,-185 902,-185"/>
<text text-anchor="middle" x="946" y="-223" font-family="Helvetica,sans-Serif" font-size="10.00">Workflow Inputs</text>
</g>
<g id="graph3" class="cluster"><title>cluster_sinks</title>
<polygon fill="none" stroke="black" stroke-dasharray="1,5" points="8,-8 8,-67 928,-67 928,-8 8,-8"/>
<text text-anchor="middle" x="55.5" y="-54" font-family="Helvetica,sans-Serif" font-size="10.00">Workflow Outputs</text>
</g>
<!-- codon_usage -->
<g id="node1" class="node"><title>codon_usage</title>
<polygon fill="#a2cd5a" stroke="black" points="90,-134.5 16,-134.5 16,-113.5 90,-113.5 90,-134.5"/>
<text text-anchor="middle" x="53" y="-121.5" font-family="Helvetica,sans-Serif" font-size="10.00">codon_usage</text>
</g>
<!-- getImage0 -->
<g id="node2" class="node"><title>getImage0</title>
<polygon fill="#d15fee" stroke="black" points="71,-96.5 9,-96.5 9,-75.5 71,-75.5 71,-96.5"/>
<text text-anchor="middle" x="40" y="-83.5" font-family="Helvetica,sans-Serif" font-size="10.00">getImage0</text>
</g>
<!-- codon_usage&#45;&gt;getImage0 -->
<g id="edge8" class="edge"><title>codon_usage&#45;&gt;getImage0</title>
<path fill="none" stroke="black" d="M49.3095,-113.212C48.5621,-111.028 47.7534,-108.664 46.9354,-106.273"/>
<polygon fill="black" stroke="black" points="50.2033,-105.012 43.6547,-96.6831 43.5801,-107.278 50.2033,-105.012"/>
</g>
<!-- WORKFLOWINTERNALSINK_codon_usage -->
<g id="node29" class="node"><title>WORKFLOWINTERNALSINK_codon_usage</title>
<polygon fill="#bcd2ee" stroke="black" points="90,-37.5 16,-37.5 16,-16.5 90,-16.5 90,-37.5"/>
<text text-anchor="middle" x="53" y="-24.5" font-family="Helvetica,sans-Serif" font-size="10.00">codon_usage</text>
</g>
<!-- getImage0&#45;&gt;WORKFLOWINTERNALSINK_codon_usage -->
<g id="edge74" class="edge"><title>getImage0&#45;&gt;WORKFLOWINTERNALSINK_codon_usage</title>
<path fill="none" stroke="black" d="M42.3241,-75.452C44.0221,-67.7457 46.3795,-57.047 48.4472,-47.6629"/>
<polygon fill="black" stroke="black" points="51.8742,-48.3748 50.608,-37.8559 45.0382,-46.8685 51.8742,-48.3748"/>
</g>
<!-- gcskew -->
<g id="node3" class="node"><title>gcskew</title>
<polygon fill="#a2cd5a" stroke="black" points="144,-134.5 94,-134.5 94,-113.5 144,-113.5 144,-134.5"/>
<text text-anchor="middle" x="119" y="-121.5" font-family="Helvetica,sans-Serif" font-size="10.00">gcskew</text>
</g>
<!-- getImage1 -->
<g id="node4" class="node"><title>getImage1</title>
<polygon fill="#d15fee" stroke="black" points="137,-96.5 75,-96.5 75,-75.5 137,-75.5 137,-96.5"/>
<text text-anchor="middle" x="106" y="-83.5" font-family="Helvetica,sans-Serif" font-size="10.00">getImage1</text>
</g>
<!-- gcskew&#45;&gt;getImage1 -->
<g id="edge14" class="edge"><title>gcskew&#45;&gt;getImage1</title>
<path fill="none" stroke="black" d="M115.309,-113.212C114.562,-111.028 113.753,-108.664 112.935,-106.273"/>
<polygon fill="black" stroke="black" points="116.203,-105.012 109.655,-96.6831 109.58,-107.278 116.203,-105.012"/>
</g>
<!-- WORKFLOWINTERNALSINK_gcskew -->
<g id="node30" class="node"><title>WORKFLOWINTERNALSINK_gcskew</title>
<polygon fill="#bcd2ee" stroke="black" points="144,-37.5 94,-37.5 94,-16.5 144,-16.5 144,-37.5"/>
<text text-anchor="middle" x="119" y="-24.5" font-family="Helvetica,sans-Serif" font-size="10.00">gcskew</text>
</g>
<!-- getImage1&#45;&gt;WORKFLOWINTERNALSINK_gcskew -->
<g id="edge76" class="edge"><title>getImage1&#45;&gt;WORKFLOWINTERNALSINK_gcskew</title>
<path fill="none" stroke="black" d="M108.324,-75.452C110.022,-67.7457 112.379,-57.047 114.447,-47.6629"/>
<polygon fill="black" stroke="black" points="117.874,-48.3748 116.608,-37.8559 111.038,-46.8685 117.874,-48.3748"/>
</g>
<!-- genomicskew -->
<g id="node5" class="node"><title>genomicskew</title>
<polygon fill="#a2cd5a" stroke="black" points="224,-134.5 148,-134.5 148,-113.5 224,-113.5 224,-134.5"/>
<text text-anchor="middle" x="186" y="-121.5" font-family="Helvetica,sans-Serif" font-size="10.00">genomicskew</text>
</g>
<!-- getImage2 -->
<g id="node6" class="node"><title>getImage2</title>
<polygon fill="#d15fee" stroke="black" points="203,-96.5 141,-96.5 141,-75.5 203,-75.5 203,-96.5"/>
<text text-anchor="middle" x="172" y="-83.5" font-family="Helvetica,sans-Serif" font-size="10.00">getImage2</text>
</g>
<!-- genomicskew&#45;&gt;getImage2 -->
<g id="edge20" class="edge"><title>genomicskew&#45;&gt;getImage2</title>
<path fill="none" stroke="black" d="M182.026,-113.212C181.221,-111.028 180.35,-108.664 179.469,-106.273"/>
<polygon fill="black" stroke="black" points="182.677,-104.857 175.936,-96.6831 176.109,-107.277 182.677,-104.857"/>
</g>
<!-- WORKFLOWINTERNALSINK_genomicskew -->
<g id="node31" class="node"><title>WORKFLOWINTERNALSINK_genomicskew</title>
<polygon fill="#bcd2ee" stroke="black" points="224,-37.5 148,-37.5 148,-16.5 224,-16.5 224,-37.5"/>
<text text-anchor="middle" x="186" y="-24.5" font-family="Helvetica,sans-Serif" font-size="10.00">genomicskew</text>
</g>
<!-- getImage2&#45;&gt;WORKFLOWINTERNALSINK_genomicskew -->
<g id="edge78" class="edge"><title>getImage2&#45;&gt;WORKFLOWINTERNALSINK_genomicskew</title>
<path fill="none" stroke="black" d="M174.503,-75.452C176.332,-67.7457 178.87,-57.047 181.097,-47.6629"/>
<polygon fill="black" stroke="black" points="184.521,-48.3938 183.424,-37.8559 177.71,-46.7776 184.521,-48.3938"/>
</g>
<!-- view_cds -->
<g id="node7" class="node"><title>view_cds</title>
<polygon fill="#a2cd5a" stroke="black" points="286,-134.5 228,-134.5 228,-113.5 286,-113.5 286,-134.5"/>
<text text-anchor="middle" x="257" y="-121.5" font-family="Helvetica,sans-Serif" font-size="10.00">view_cds</text>
</g>
<!-- getImage3 -->
<g id="node8" class="node"><title>getImage3</title>
<polygon fill="#d15fee" stroke="black" points="269,-96.5 207,-96.5 207,-75.5 269,-75.5 269,-96.5"/>
<text text-anchor="middle" x="238" y="-83.5" font-family="Helvetica,sans-Serif" font-size="10.00">getImage3</text>
</g>
<!-- view_cds&#45;&gt;getImage3 -->
<g id="edge26" class="edge"><title>view_cds&#45;&gt;getImage3</title>
<path fill="none" stroke="black" d="M251.606,-113.212C250.433,-110.866 249.156,-108.313 247.871,-105.741"/>
<polygon fill="black" stroke="black" points="250.944,-104.062 243.342,-96.6831 244.683,-107.193 250.944,-104.062"/>
</g>
<!-- WORKFLOWINTERNALSINK_view_cds -->
<g id="node32" class="node"><title>WORKFLOWINTERNALSINK_view_cds</title>
<polygon fill="#bcd2ee" stroke="black" points="286,-37.5 228,-37.5 228,-16.5 286,-16.5 286,-37.5"/>
<text text-anchor="middle" x="257" y="-24.5" font-family="Helvetica,sans-Serif" font-size="10.00">view_cds</text>
</g>
<!-- getImage3&#45;&gt;WORKFLOWINTERNALSINK_view_cds -->
<g id="edge80" class="edge"><title>getImage3&#45;&gt;WORKFLOWINTERNALSINK_view_cds</title>
<path fill="none" stroke="black" d="M241.397,-75.452C243.879,-67.7457 247.324,-57.047 250.346,-47.6629"/>
<polygon fill="black" stroke="black" points="253.77,-48.4474 253.504,-37.8559 247.107,-46.3016 253.77,-48.4474"/>
</g>
<!-- cai -->
<g id="node9" class="node"><title>cai</title>
<polygon fill="#a2cd5a" stroke="black" points="318,-134.5 290,-134.5 290,-113.5 318,-113.5 318,-134.5"/>
<text text-anchor="middle" x="304" y="-121.5" font-family="Helvetica,sans-Serif" font-size="10.00">cai</text>
</g>
<!-- getImage4 -->
<g id="node16" class="node"><title>getImage4</title>
<polygon fill="#d15fee" stroke="black" points="335,-96.5 273,-96.5 273,-75.5 335,-75.5 335,-96.5"/>
<text text-anchor="middle" x="304" y="-83.5" font-family="Helvetica,sans-Serif" font-size="10.00">getImage4</text>
</g>
<!-- cai&#45;&gt;getImage4 -->
<g id="edge48" class="edge"><title>cai&#45;&gt;getImage4</title>
<path fill="none" stroke="black" d="M304,-113.212C304,-111.19 304,-109.013 304,-106.804"/>
<polygon fill="black" stroke="black" points="307.5,-106.683 304,-96.6831 300.5,-106.683 307.5,-106.683"/>
</g>
<!-- gcwin -->
<g id="node10" class="node"><title>gcwin</title>
<polygon fill="#a2cd5a" stroke="black" points="364,-134.5 322,-134.5 322,-113.5 364,-113.5 364,-134.5"/>
<text text-anchor="middle" x="343" y="-121.5" font-family="Helvetica,sans-Serif" font-size="10.00">gcwin</text>
</g>
<!-- getImage5 -->
<g id="node15" class="node"><title>getImage5</title>
<polygon fill="#d15fee" stroke="black" points="401,-96.5 339,-96.5 339,-75.5 401,-75.5 401,-96.5"/>
<text text-anchor="middle" x="370" y="-83.5" font-family="Helvetica,sans-Serif" font-size="10.00">getImage5</text>
</g>
<!-- gcwin&#45;&gt;getImage5 -->
<g id="edge46" class="edge"><title>gcwin&#45;&gt;getImage5</title>
<path fill="none" stroke="black" d="M350.665,-113.212C352.505,-110.623 354.523,-107.782 356.541,-104.943"/>
<polygon fill="black" stroke="black" points="359.47,-106.862 362.409,-96.6831 353.764,-102.808 359.47,-106.862"/>
</g>
<!-- gcskew_cumulative -->
<g id="node11" class="node"><title>gcskew_cumulative</title>
<polygon fill="#a2cd5a" stroke="black" points="902,-134.5 800,-134.5 800,-113.5 902,-113.5 902,-134.5"/>
<text text-anchor="middle" x="851" y="-121.5" font-family="Helvetica,sans-Serif" font-size="10.00">gcskew_cumulative</text>
</g>
<!-- getImage6 -->
<g id="node14" class="node"><title>getImage6</title>
<polygon fill="#d15fee" stroke="black" points="882,-96.5 820,-96.5 820,-75.5 882,-75.5 882,-96.5"/>
<text text-anchor="middle" x="851" y="-83.5" font-family="Helvetica,sans-Serif" font-size="10.00">getImage6</text>
</g>
<!-- gcskew_cumulative&#45;&gt;getImage6 -->
<g id="edge44" class="edge"><title>gcskew_cumulative&#45;&gt;getImage6</title>
<path fill="none" stroke="black" d="M851,-113.212C851,-111.19 851,-109.013 851,-106.804"/>
<polygon fill="black" stroke="black" points="854.5,-106.683 851,-96.6831 847.5,-106.683 854.5,-106.683"/>
</g>
<!-- gcskew_cumulative_params -->
<g id="node12" class="node"><title>gcskew_cumulative_params</title>
<polygon fill="#ab92ea" stroke="black" points="921,-172.5 781,-172.5 781,-151.5 921,-151.5 921,-172.5"/>
<text text-anchor="middle" x="851" y="-159.5" font-family="Helvetica,sans-Serif" font-size="10.00">gcskew_cumulative_params</text>
</g>
<!-- gcskew_cumulative_params&#45;&gt;gcskew_cumulative -->
<g id="edge36" class="edge"><title>gcskew_cumulative_params&#45;&gt;gcskew_cumulative</title>
<path fill="none" stroke="black" d="M851,-151.212C851,-149.19 851,-147.013 851,-144.804"/>
<polygon fill="black" stroke="black" points="854.5,-144.683 851,-134.683 847.5,-144.683 854.5,-144.683"/>
</g>
<!-- String_Constant -->
<g id="node13" class="node"><title>String_Constant</title>
<polygon fill="#b0c4de" stroke="black" points="894,-210.5 808,-210.5 808,-189.5 894,-189.5 894,-210.5"/>
<text text-anchor="middle" x="851" y="-197.5" font-family="Helvetica,sans-Serif" font-size="10.00">String_Constant</text>
</g>
<!-- String_Constant&#45;&gt;gcskew_cumulative_params -->
<g id="edge42" class="edge"><title>String_Constant&#45;&gt;gcskew_cumulative_params</title>
<path fill="none" stroke="black" d="M851,-189.212C851,-187.19 851,-185.013 851,-182.804"/>
<polygon fill="black" stroke="black" points="854.5,-182.683 851,-172.683 847.5,-182.683 854.5,-182.683"/>
</g>
<!-- WORKFLOWINTERNALSINK_gcskew_cumulative -->
<g id="node37" class="node"><title>WORKFLOWINTERNALSINK_gcskew_cumulative</title>
<polygon fill="#bcd2ee" stroke="black" points="902,-37.5 800,-37.5 800,-16.5 902,-16.5 902,-37.5"/>
<text text-anchor="middle" x="851" y="-24.5" font-family="Helvetica,sans-Serif" font-size="10.00">gcskew_cumulative</text>
</g>
<!-- getImage6&#45;&gt;WORKFLOWINTERNALSINK_gcskew_cumulative -->
<g id="edge90" class="edge"><title>getImage6&#45;&gt;WORKFLOWINTERNALSINK_gcskew_cumulative</title>
<path fill="none" stroke="black" d="M851,-75.452C851,-67.8285 851,-57.2768 851,-47.966"/>
<polygon fill="black" stroke="black" points="854.5,-47.8558 851,-37.8559 847.5,-47.8559 854.5,-47.8558"/>
</g>
<!-- WORKFLOWINTERNALSINK_gcwin -->
<g id="node36" class="node"><title>WORKFLOWINTERNALSINK_gcwin</title>
<polygon fill="#bcd2ee" stroke="black" points="364,-37.5 322,-37.5 322,-16.5 364,-16.5 364,-37.5"/>
<text text-anchor="middle" x="343" y="-24.5" font-family="Helvetica,sans-Serif" font-size="10.00">gcwin</text>
</g>
<!-- getImage5&#45;&gt;WORKFLOWINTERNALSINK_gcwin -->
<g id="edge88" class="edge"><title>getImage5&#45;&gt;WORKFLOWINTERNALSINK_gcwin</title>
<path fill="none" stroke="black" d="M365.173,-75.452C361.57,-67.5799 356.539,-56.5855 352.18,-47.0593"/>
<polygon fill="black" stroke="black" points="355.312,-45.4925 347.968,-37.8559 348.947,-48.4054 355.312,-45.4925"/>
</g>
<!-- WORKFLOWINTERNALSINK_cai -->
<g id="node33" class="node"><title>WORKFLOWINTERNALSINK_cai</title>
<polygon fill="#bcd2ee" stroke="black" points="318,-37.5 290,-37.5 290,-16.5 318,-16.5 318,-37.5"/>
<text text-anchor="middle" x="304" y="-24.5" font-family="Helvetica,sans-Serif" font-size="10.00">cai</text>
</g>
<!-- getImage4&#45;&gt;WORKFLOWINTERNALSINK_cai -->
<g id="edge82" class="edge"><title>getImage4&#45;&gt;WORKFLOWINTERNALSINK_cai</title>
<path fill="none" stroke="black" d="M304,-75.452C304,-67.8285 304,-57.2768 304,-47.966"/>
<polygon fill="black" stroke="black" points="307.5,-47.8558 304,-37.8559 300.5,-47.8559 307.5,-47.8558"/>
</g>
<!-- gcsi -->
<g id="node17" class="node"><title>gcsi</title>
<polygon fill="#a2cd5a" stroke="black" points="402,-134.5 368,-134.5 368,-113.5 402,-113.5 402,-134.5"/>
<text text-anchor="middle" x="385" y="-121.5" font-family="Helvetica,sans-Serif" font-size="10.00">gcsi</text>
</g>
<!-- gcsi_result -->
<g id="node18" class="node"><title>gcsi_result</title>
<polygon fill="#ab92ea" stroke="black" points="469,-96.5 405,-96.5 405,-75.5 469,-75.5 469,-96.5"/>
<text text-anchor="middle" x="437" y="-83.5" font-family="Helvetica,sans-Serif" font-size="10.00">gcsi_result</text>
</g>
<!-- gcsi&#45;&gt;gcsi_result -->
<g id="edge54" class="edge"><title>gcsi&#45;&gt;gcsi_result</title>
<path fill="none" stroke="black" d="M399.485,-113.415C404.105,-110.038 409.334,-106.218 414.388,-102.524"/>
<polygon fill="black" stroke="black" points="416.584,-105.254 422.593,-96.5284 412.454,-99.6027 416.584,-105.254"/>
</g>
<!-- WORKFLOWINTERNALSINK_gcsi -->
<g id="node34" class="node"><title>WORKFLOWINTERNALSINK_gcsi</title>
<polygon fill="#bcd2ee" stroke="black" points="402,-37.5 368,-37.5 368,-16.5 402,-16.5 402,-37.5"/>
<text text-anchor="middle" x="385" y="-24.5" font-family="Helvetica,sans-Serif" font-size="10.00">gcsi</text>
</g>
<!-- gcsi_result&#45;&gt;WORKFLOWINTERNALSINK_gcsi -->
<g id="edge84" class="edge"><title>gcsi_result&#45;&gt;WORKFLOWINTERNALSINK_gcsi</title>
<path fill="none" stroke="black" d="M416.145,-75.3806C412.495,-72.9441 408.933,-70.1343 406,-67 400.671,-61.3051 396.314,-53.9993 392.977,-47.1932"/>
<polygon fill="black" stroke="black" points="396.077,-45.5487 388.824,-37.8249 389.677,-48.3854 396.077,-45.5487"/>
</g>
<!-- find_ori_ter -->
<g id="node19" class="node"><title>find_ori_ter</title>
<polygon fill="#a2cd5a" stroke="black" points="470,-134.5 406,-134.5 406,-113.5 470,-113.5 470,-134.5"/>
<text text-anchor="middle" x="438" y="-121.5" font-family="Helvetica,sans-Serif" font-size="10.00">find_ori_ter</text>
</g>
<!-- find_ori_ter_result -->
<g id="node20" class="node"><title>find_ori_ter_result</title>
<polygon fill="#ab92ea" stroke="black" points="567,-96.5 473,-96.5 473,-75.5 567,-75.5 567,-96.5"/>
<text text-anchor="middle" x="520" y="-83.5" font-family="Helvetica,sans-Serif" font-size="10.00">find_ori_ter_result</text>
</g>
<!-- find_ori_ter&#45;&gt;find_ori_ter_result -->
<g id="edge60" class="edge"><title>find_ori_ter&#45;&gt;find_ori_ter_result</title>
<path fill="none" stroke="black" d="M460.842,-113.415C469.283,-109.503 479.011,-104.995 488.109,-100.779"/>
<polygon fill="black" stroke="black" points="489.679,-103.909 497.281,-96.5284 486.736,-97.5574 489.679,-103.909"/>
</g>
<!-- WORKFLOWINTERNALSINK_find_ori_ter -->
<g id="node35" class="node"><title>WORKFLOWINTERNALSINK_find_ori_ter</title>
<polygon fill="#bcd2ee" stroke="black" points="470,-37.5 406,-37.5 406,-16.5 470,-16.5 470,-37.5"/>
<text text-anchor="middle" x="438" y="-24.5" font-family="Helvetica,sans-Serif" font-size="10.00">find_ori_ter</text>
</g>
<!-- find_ori_ter_result&#45;&gt;WORKFLOWINTERNALSINK_find_ori_ter -->
<g id="edge86" class="edge"><title>find_ori_ter_result&#45;&gt;WORKFLOWINTERNALSINK_find_ori_ter</title>
<path fill="none" stroke="black" d="M488.81,-75.3516C483.651,-72.9722 478.517,-70.1898 474,-67 465.772,-61.1898 458.089,-53.179 451.952,-45.8516"/>
<polygon fill="black" stroke="black" points="454.473,-43.3975 445.517,-37.7367 448.988,-47.7469 454.473,-43.3975"/>
</g>
<!-- sequence -->
<g id="node21" class="node"><title>sequence</title>
<polygon fill="#b0c4de" stroke="black" points="393,-172.5 335,-172.5 335,-151.5 393,-151.5 393,-172.5"/>
<text text-anchor="middle" x="364" y="-159.5" font-family="Helvetica,sans-Serif" font-size="10.00">sequence</text>
</g>
<!-- sequence&#45;&gt;codon_usage -->
<g id="edge4" class="edge"><title>sequence&#45;&gt;codon_usage</title>
<path fill="none" stroke="black" d="M334.602,-160.691C286.313,-158.161 187.076,-151.496 99.8383,-136.37"/>
<polygon fill="black" stroke="black" points="100.268,-132.892 89.8091,-134.584 99.0401,-139.783 100.268,-132.892"/>
</g>
<!-- sequence&#45;&gt;codon_usage -->
<g id="edge6" class="edge"><title>sequence&#45;&gt;codon_usage</title>
<path fill="none" stroke="black" d="M334.645,-160.562C286.901,-157.934 189.345,-151.23 100.234,-135.639"/>
<polygon fill="black" stroke="black" points="100.712,-132.169 90.2507,-133.848 99.4754,-139.059 100.712,-132.169"/>
</g>
<!-- sequence&#45;&gt;gcskew -->
<g id="edge10" class="edge"><title>sequence&#45;&gt;gcskew</title>
<path fill="none" stroke="black" d="M334.695,-160.631C294.494,-158.244 219.947,-152.085 154.162,-136.914"/>
<polygon fill="black" stroke="black" points="154.646,-133.431 144.106,-134.505 153.016,-140.238 154.646,-133.431"/>
</g>
<!-- sequence&#45;&gt;gcskew -->
<g id="edge12" class="edge"><title>sequence&#45;&gt;gcskew</title>
<path fill="none" stroke="black" d="M334.872,-160.48C295.272,-157.982 222.189,-151.747 154.249,-135.798"/>
<polygon fill="black" stroke="black" points="154.811,-132.332 144.267,-133.373 153.158,-139.135 154.811,-132.332"/>
</g>
<!-- sequence&#45;&gt;genomicskew -->
<g id="edge16" class="edge"><title>sequence&#45;&gt;genomicskew</title>
<path fill="none" stroke="black" d="M334.765,-157.003C309.139,-152.354 270.651,-144.988 234.383,-136.89"/>
<polygon fill="black" stroke="black" points="234.751,-133.385 224.225,-134.588 233.204,-140.211 234.751,-133.385"/>
</g>
<!-- sequence&#45;&gt;genomicskew -->
<g id="edge18" class="edge"><title>sequence&#45;&gt;genomicskew</title>
<path fill="none" stroke="black" d="M334.939,-156.464C309.858,-151.74 272.441,-144.523 233.96,-135.854"/>
<polygon fill="black" stroke="black" points="234.689,-132.43 224.161,-133.619 233.133,-139.255 234.689,-132.43"/>
</g>
<!-- sequence&#45;&gt;view_cds -->
<g id="edge24" class="edge"><title>sequence&#45;&gt;view_cds</title>
<path fill="none" stroke="black" d="M334.832,-152.115C322.524,-147.804 308.036,-142.673 294.916,-137.981"/>
<polygon fill="black" stroke="black" points="295.804,-134.581 285.209,-134.5 293.441,-141.171 295.804,-134.581"/>
</g>
<!-- sequence&#45;&gt;view_cds -->
<g id="edge22" class="edge"><title>sequence&#45;&gt;view_cds</title>
<path fill="none" stroke="black" d="M335.555,-151.415C323.391,-147.04 308.997,-141.919 295.874,-137.295"/>
<polygon fill="black" stroke="black" points="296.739,-133.889 286.144,-133.876 294.418,-140.493 296.739,-133.889"/>
</g>
<!-- sequence&#45;&gt;cai -->
<g id="edge28" class="edge"><title>sequence&#45;&gt;cai</title>
<path fill="none" stroke="black" d="M345.926,-151.415C339.924,-147.697 333.164,-143.44 326.851,-139.407"/>
<polygon fill="black" stroke="black" points="328.364,-136.219 318.061,-133.747 324.574,-142.104 328.364,-136.219"/>
</g>
<!-- sequence&#45;&gt;cai -->
<g id="edge30" class="edge"><title>sequence&#45;&gt;cai</title>
<path fill="none" stroke="black" d="M348.647,-151.415C342.069,-147.153 334.251,-142.184 327.006,-137.655"/>
<polygon fill="black" stroke="black" points="328.617,-134.536 318.274,-132.241 324.929,-140.485 328.617,-134.536"/>
</g>
<!-- sequence&#45;&gt;gcwin -->
<g id="edge32" class="edge"><title>sequence&#45;&gt;gcwin</title>
<path fill="none" stroke="black" d="M356.671,-151.212C355.293,-148.866 353.839,-146.313 352.411,-143.741"/>
<polygon fill="black" stroke="black" points="355.358,-141.833 347.54,-134.683 349.193,-145.148 355.358,-141.833"/>
</g>
<!-- sequence&#45;&gt;gcwin -->
<g id="edge34" class="edge"><title>sequence&#45;&gt;gcwin</title>
<path fill="none" stroke="black" d="M359.406,-151.212C358.148,-148.785 356.728,-146.136 355.262,-143.475"/>
<polygon fill="black" stroke="black" points="358.25,-141.65 350.268,-134.683 352.164,-145.107 358.25,-141.65"/>
</g>
<!-- sequence&#45;&gt;gcskew_cumulative -->
<g id="edge38" class="edge"><title>sequence&#45;&gt;gcskew_cumulative</title>
<path fill="none" stroke="black" d="M393.221,-161.512C461.383,-160.097 636.309,-154.824 789.801,-135.462"/>
<polygon fill="black" stroke="black" points="790.407,-138.913 799.879,-134.166 789.514,-131.97 790.407,-138.913"/>
</g>
<!-- sequence&#45;&gt;gcskew_cumulative -->
<g id="edge40" class="edge"><title>sequence&#45;&gt;gcskew_cumulative</title>
<path fill="none" stroke="black" d="M393.176,-161.553C461.77,-160.203 638.729,-155.015 791.484,-135.803"/>
<polygon fill="black" stroke="black" points="792.035,-139.261 801.509,-134.517 791.145,-132.318 792.035,-139.261"/>
</g>
<!-- sequence&#45;&gt;gcsi -->
<g id="edge50" class="edge"><title>sequence&#45;&gt;gcsi</title>
<path fill="none" stroke="black" d="M368.594,-151.212C369.852,-148.785 371.272,-146.136 372.738,-143.475"/>
<polygon fill="black" stroke="black" points="375.836,-145.107 377.732,-134.683 369.75,-141.65 375.836,-145.107"/>
</g>
<!-- sequence&#45;&gt;gcsi -->
<g id="edge52" class="edge"><title>sequence&#45;&gt;gcsi</title>
<path fill="none" stroke="black" d="M371.329,-151.212C372.707,-148.866 374.161,-146.313 375.589,-143.741"/>
<polygon fill="black" stroke="black" points="378.807,-145.148 380.46,-134.683 372.642,-141.833 378.807,-145.148"/>
</g>
<!-- sequence&#45;&gt;find_ori_ter -->
<g id="edge56" class="edge"><title>sequence&#45;&gt;find_ori_ter</title>
<path fill="none" stroke="black" d="M383.252,-151.415C390.496,-147.627 398.924,-143.279 406.968,-139.179"/>
<polygon fill="black" stroke="black" points="408.803,-142.173 416.139,-134.528 405.637,-135.93 408.803,-142.173"/>
</g>
<!-- sequence&#45;&gt;find_ori_ter -->
<g id="edge58" class="edge"><title>sequence&#45;&gt;find_ori_ter</title>
<path fill="none" stroke="black" d="M385.974,-151.415C393.485,-147.627 401.988,-143.279 409.913,-139.179"/>
<polygon fill="black" stroke="black" points="411.599,-142.248 418.856,-134.528 408.369,-136.037 411.599,-142.248"/>
</g>
<!-- base_information_content -->
<g id="node22" class="node"><title>base_information_content</title>
<polygon fill="#a2cd5a" stroke="black" points="602,-134.5 474,-134.5 474,-113.5 602,-113.5 602,-134.5"/>
<text text-anchor="middle" x="538" y="-121.5" font-family="Helvetica,sans-Serif" font-size="10.00">base_information_content</text>
</g>
<!-- sequence&#45;&gt;base_information_content -->
<g id="edge62" class="edge"><title>sequence&#45;&gt;base_information_content</title>
<path fill="none" stroke="black" d="M393.138,-155.381C416.33,-150.245 449.55,-142.972 478.33,-136.72"/>
<polygon fill="black" stroke="black" points="479.271,-140.098 488.302,-134.557 477.787,-133.257 479.271,-140.098"/>
</g>
<!-- sequence&#45;&gt;base_information_content -->
<g id="edge64" class="edge"><title>sequence&#45;&gt;base_information_content</title>
<path fill="none" stroke="black" d="M393.093,-155.895C416.99,-150.752 451.558,-143.224 480.939,-136.773"/>
<polygon fill="black" stroke="black" points="482.074,-140.107 491.089,-134.542 480.571,-133.27 482.074,-140.107"/>
</g>
<!-- base_entropy -->
<g id="node23" class="node"><title>base_entropy</title>
<polygon fill="#a2cd5a" stroke="black" points="680,-134.5 606,-134.5 606,-113.5 680,-113.5 680,-134.5"/>
<text text-anchor="middle" x="643" y="-121.5" font-family="Helvetica,sans-Serif" font-size="10.00">base_entropy</text>
</g>
<!-- sequence&#45;&gt;base_entropy -->
<g id="edge66" class="edge"><title>sequence&#45;&gt;base_entropy</title>
<path fill="none" stroke="black" d="M393.351,-159.992C436.258,-156.82 518.767,-149.647 595.454,-135.733"/>
<polygon fill="black" stroke="black" points="596.553,-139.088 605.744,-133.818 595.272,-132.206 596.553,-139.088"/>
</g>
<!-- sequence&#45;&gt;base_entropy -->
<g id="edge68" class="edge"><title>sequence&#45;&gt;base_entropy</title>
<path fill="none" stroke="black" d="M393.307,-160.179C436.81,-157.111 521.169,-149.92 596.15,-136.426"/>
<polygon fill="black" stroke="black" points="596.991,-139.83 606.188,-134.57 595.719,-132.947 596.991,-139.83"/>
</g>
<!-- base_relative_entropy -->
<g id="node24" class="node"><title>base_relative_entropy</title>
<polygon fill="#a2cd5a" stroke="black" points="796,-134.5 684,-134.5 684,-113.5 796,-113.5 796,-134.5"/>
<text text-anchor="middle" x="740" y="-121.5" font-family="Helvetica,sans-Serif" font-size="10.00">base_relative_entropy</text>
</g>
<!-- sequence&#45;&gt;base_relative_entropy -->
<g id="edge70" class="edge"><title>sequence&#45;&gt;base_relative_entropy</title>
<path fill="none" stroke="black" d="M393.006,-160.39C446.833,-157.266 565.99,-149.501 673.696,-135.516"/>
<polygon fill="black" stroke="black" points="674.292,-138.967 683.748,-134.188 673.376,-132.028 674.292,-138.967"/>
</g>
<!-- sequence&#45;&gt;base_relative_entropy -->
<g id="edge72" class="edge"><title>sequence&#45;&gt;base_relative_entropy</title>
<path fill="none" stroke="black" d="M393.127,-160.514C447.547,-157.476 568.511,-149.685 675.517,-135.831"/>
<polygon fill="black" stroke="black" points="676.038,-139.292 685.495,-134.515 675.124,-132.352 676.038,-139.292"/>
</g>
<!-- WORKFLOWINTERNALSINK_base_information_content -->
<g id="node38" class="node"><title>WORKFLOWINTERNALSINK_base_information_content</title>
<polygon fill="#bcd2ee" stroke="black" points="602,-37.5 474,-37.5 474,-16.5 602,-16.5 602,-37.5"/>
<text text-anchor="middle" x="538" y="-24.5" font-family="Helvetica,sans-Serif" font-size="10.00">base_information_content</text>
</g>
<!-- base_information_content&#45;&gt;WORKFLOWINTERNALSINK_base_information_content -->
<g id="edge92" class="edge"><title>base_information_content&#45;&gt;WORKFLOWINTERNALSINK_base_information_content</title>
<path fill="none" stroke="black" d="M553.817,-113.428C559.027,-109.027 564.2,-103.434 567,-97 570.902,-88.0347 569.624,-84.419 567,-75 564.121,-64.6686 558.351,-54.3408 552.71,-45.9265"/>
<polygon fill="black" stroke="black" points="555.446,-43.736 546.782,-37.6375 549.752,-47.8077 555.446,-43.736"/>
</g>
<!-- WORKFLOWINTERNALSINK_base_entropy -->
<g id="node39" class="node"><title>WORKFLOWINTERNALSINK_base_entropy</title>
<polygon fill="#bcd2ee" stroke="black" points="680,-37.5 606,-37.5 606,-16.5 680,-16.5 680,-37.5"/>
<text text-anchor="middle" x="643" y="-24.5" font-family="Helvetica,sans-Serif" font-size="10.00">base_entropy</text>
</g>
<!-- base_entropy&#45;&gt;WORKFLOWINTERNALSINK_base_entropy -->
<g id="edge94" class="edge"><title>base_entropy&#45;&gt;WORKFLOWINTERNALSINK_base_entropy</title>
<path fill="none" stroke="black" d="M643,-113.249C643,-97.4334 643,-67.6032 643,-47.513"/>
<polygon fill="black" stroke="black" points="646.5,-47.5046 643,-37.5046 639.5,-47.5047 646.5,-47.5046"/>
</g>
<!-- WORKFLOWINTERNALSINK_base_relative_entropy -->
<g id="node40" class="node"><title>WORKFLOWINTERNALSINK_base_relative_entropy</title>
<polygon fill="#bcd2ee" stroke="black" points="796,-37.5 684,-37.5 684,-16.5 796,-16.5 796,-37.5"/>
<text text-anchor="middle" x="740" y="-24.5" font-family="Helvetica,sans-Serif" font-size="10.00">base_relative_entropy</text>
</g>
<!-- base_relative_entropy&#45;&gt;WORKFLOWINTERNALSINK_base_relative_entropy -->
<g id="edge96" class="edge"><title>base_relative_entropy&#45;&gt;WORKFLOWINTERNALSINK_base_relative_entropy</title>
<path fill="none" stroke="black" d="M740,-113.249C740,-97.4334 740,-67.6032 740,-47.513"/>
<polygon fill="black" stroke="black" points="743.5,-47.5046 740,-37.5046 736.5,-47.5047 743.5,-47.5046"/>
</g>
<!-- WORKFLOWINTERNALSOURCECONTROL -->
<g id="node26" class="node"><title>WORKFLOWINTERNALSOURCECONTROL</title>
<polygon fill="#ff4040" stroke="black" points="946,-207 939,-196.5 953,-196.5 946,-207"/>
</g>
<!-- WORKFLOWINTERNALSINKCONTROL -->
<g id="node28" class="node"><title>WORKFLOWINTERNALSINKCONTROL</title>
<polygon fill="#66cd00" stroke="black" points="913,-20 920,-30.5 906,-30.5 913,-20"/>
</g>
</g>
</svg>
