<?xml version="1.0" encoding="UTF-8" standalone="no"?>
<!DOCTYPE svg PUBLIC "-//W3C//DTD SVG 1.1//EN"
 "http://www.w3.org/Graphics/SVG/1.1/DTD/svg11.dtd">
<!-- Generated by graphviz version 2.26.0 (20091210.2329)
 -->
<!-- Title: t2flow_graph Pages: 1 -->
<svg width="382pt" height="487pt"
 viewBox="0.00 0.00 382.00 487.00" xmlns="http://www.w3.org/2000/svg" xmlns:xlink="http://www.w3.org/1999/xlink">
<g id="graph1" class="graph" transform="scale(1 1) rotate(0) translate(4 483)">
<title>t2flow_graph</title>
<polygon fill="white" stroke="white" points="-4,5 -4,-483 379,-483 379,5 -4,5"/>
<g id="graph2" class="cluster"><title>cluster_Workflow1Workflow1</title>
<polygon fill="aliceblue" stroke="black" points="8,-143 8,-374 232,-374 232,-143 8,-143"/>
<text text-anchor="middle" x="39.5" y="-361" font-family="Helvetica,sans-Serif" font-size="10.00">Workflow1</text>
</g>
<g id="graph3" class="cluster"><title>cluster_Workflow1sources</title>
<polygon fill="none" stroke="black" stroke-dasharray="1,5" points="136,-286 136,-345 224,-345 224,-286 136,-286"/>
<text text-anchor="middle" x="180" y="-332" font-family="Helvetica,sans-Serif" font-size="10.00">Workflow Inputs</text>
</g>
<g id="graph4" class="cluster"><title>cluster_Workflow1sinks</title>
<polygon fill="none" stroke="black" stroke-dasharray="1,5" points="70,-151 70,-210 224,-210 224,-151 70,-151"/>
<text text-anchor="middle" x="117.5" y="-197" font-family="Helvetica,sans-Serif" font-size="10.00">Workflow Outputs</text>
</g>
<g id="graph5" class="cluster"><title>cluster_sources</title>
<polygon fill="none" stroke="black" stroke-dasharray="1,5" points="208,-412 208,-471 298,-471 298,-412 208,-412"/>
<text text-anchor="middle" x="252" y="-458" font-family="Helvetica,sans-Serif" font-size="10.00">Workflow Inputs</text>
</g>
<g id="graph6" class="cluster"><title>cluster_sinks</title>
<polygon fill="none" stroke="black" stroke-dasharray="1,5" points="250,-8 250,-67 352,-67 352,-8 250,-8"/>
<text text-anchor="middle" x="297.5" y="-54" font-family="Helvetica,sans-Serif" font-size="10.00">Workflow Outputs</text>
</g>
<!-- Workflow1hsapiens_genes -->
<g id="node2" class="node"><title>Workflow1hsapiens_genes</title>
<polygon fill="#d1eeee" stroke="black" points="217,-277.5 131,-277.5 131,-256.5 217,-256.5 217,-277.5"/>
<text text-anchor="middle" x="174" y="-264.5" font-family="Helvetica,sans-Serif" font-size="10.00">hsapiens_genes</text>
</g>
<!-- Workflow1Merge_GOfunction_list -->
<g id="node3" class="node"><title>Workflow1Merge_GOfunction_list</title>
<polygon fill="#d15fee" stroke="black" points="132,-239.5 16,-239.5 16,-218.5 132,-218.5 132,-239.5"/>
<text text-anchor="middle" x="74" y="-226.5" font-family="Helvetica,sans-Serif" font-size="10.00">Merge_GOfunction_list</text>
</g>
<!-- Workflow1hsapiens_genes&#45;&gt;Workflow1Merge_GOfunction_list -->
<g id="edge7" class="edge"><title>Workflow1hsapiens_genes&#45;&gt;Workflow1Merge_GOfunction_list</title>
<path fill="none" stroke="black" d="M146.144,-256.415C135.309,-252.297 122.734,-247.519 111.147,-243.116"/>
<polygon fill="black" stroke="black" points="112.297,-239.809 101.706,-239.528 109.811,-246.352 112.297,-239.809"/>
</g>
<!-- Workflow1Merge_GOid_list -->
<g id="node4" class="node"><title>Workflow1Merge_GOid_list</title>
<polygon fill="#d15fee" stroke="black" points="224,-239.5 136,-239.5 136,-218.5 224,-218.5 224,-239.5"/>
<text text-anchor="middle" x="180" y="-226.5" font-family="Helvetica,sans-Serif" font-size="10.00">Merge_GOid_list</text>
</g>
<!-- Workflow1hsapiens_genes&#45;&gt;Workflow1Merge_GOid_list -->
<g id="edge9" class="edge"><title>Workflow1hsapiens_genes&#45;&gt;Workflow1Merge_GOid_list</title>
<path fill="none" stroke="black" d="M175.703,-256.212C176.023,-254.19 176.366,-252.013 176.715,-249.804"/>
<polygon fill="black" stroke="black" points="180.211,-250.107 178.313,-239.683 173.296,-249.015 180.211,-250.107"/>
</g>
<!-- Workflow1WORKFLOWINTERNALSINK_GO_function -->
<g id="node11" class="node"><title>Workflow1WORKFLOWINTERNALSINK_GO_function</title>
<polygon fill="#bcd2ee" stroke="black" points="148,-180.5 78,-180.5 78,-159.5 148,-159.5 148,-180.5"/>
<text text-anchor="middle" x="113" y="-167.5" font-family="Helvetica,sans-Serif" font-size="10.00">GO_function</text>
</g>
<!-- Workflow1Merge_GOfunction_list&#45;&gt;Workflow1WORKFLOWINTERNALSINK_GO_function -->
<g id="edge13" class="edge"><title>Workflow1Merge_GOfunction_list&#45;&gt;Workflow1WORKFLOWINTERNALSINK_GO_function</title>
<path fill="none" stroke="black" d="M80.9724,-218.452C86.2855,-210.414 93.7504,-199.121 100.137,-189.46"/>
<polygon fill="black" stroke="black" points="103.229,-191.128 105.824,-180.856 97.3899,-187.268 103.229,-191.128"/>
</g>
<!-- Workflow1WORKFLOWINTERNALSINK_GO_ID -->
<g id="node10" class="node"><title>Workflow1WORKFLOWINTERNALSINK_GO_ID</title>
<polygon fill="#bcd2ee" stroke="black" points="198,-180.5 152,-180.5 152,-159.5 198,-159.5 198,-180.5"/>
<text text-anchor="middle" x="175" y="-167.5" font-family="Helvetica,sans-Serif" font-size="10.00">GO_ID</text>
</g>
<!-- Workflow1Merge_GOid_list&#45;&gt;Workflow1WORKFLOWINTERNALSINK_GO_ID -->
<g id="edge11" class="edge"><title>Workflow1Merge_GOid_list&#45;&gt;Workflow1WORKFLOWINTERNALSINK_GO_ID</title>
<path fill="none" stroke="black" d="M179.106,-218.452C178.46,-210.829 177.566,-200.277 176.777,-190.966"/>
<polygon fill="black" stroke="black" points="180.252,-190.525 175.92,-180.856 173.277,-191.116 180.252,-190.525"/>
</g>
<!-- Workflow1WORKFLOWINTERNALSOURCECONTROL -->
<g id="node6" class="node"><title>Workflow1WORKFLOWINTERNALSOURCECONTROL</title>
<polygon fill="#ff4040" stroke="black" points="209,-312 202,-301.5 216,-301.5 209,-312"/>
</g>
<!-- Workflow1WORKFLOWINTERNALSOURCE_geneID -->
<g id="node7" class="node"><title>Workflow1WORKFLOWINTERNALSOURCE_geneID</title>
<polygon fill="skyblue" stroke="black" points="198,-315.5 150,-315.5 150,-294.5 198,-294.5 198,-315.5"/>
<text text-anchor="middle" x="174" y="-302.5" font-family="Helvetica,sans-Serif" font-size="10.00">geneID</text>
</g>
<!-- Workflow1WORKFLOWINTERNALSOURCE_geneID&#45;&gt;Workflow1hsapiens_genes -->
<g id="edge5" class="edge"><title>Workflow1WORKFLOWINTERNALSOURCE_geneID&#45;&gt;Workflow1hsapiens_genes</title>
<path fill="none" stroke="black" d="M174,-294.212C174,-292.19 174,-290.013 174,-287.804"/>
<polygon fill="black" stroke="black" points="177.5,-287.683 174,-277.683 170.5,-287.683 177.5,-287.683"/>
</g>
<!-- Workflow1WORKFLOWINTERNALSINKCONTROL -->
<g id="node9" class="node"><title>Workflow1WORKFLOWINTERNALSINKCONTROL</title>
<polygon fill="#66cd00" stroke="black" points="209,-163 216,-173.5 202,-173.5 209,-163"/>
</g>
<!-- Split_Function -->
<g id="node19" class="node"><title>Split_Function</title>
<polygon fill="#d15fee" stroke="black" points="308,-134.5 230,-134.5 230,-113.5 308,-113.5 308,-134.5"/>
<text text-anchor="middle" x="269" y="-121.5" font-family="Helvetica,sans-Serif" font-size="10.00">Split_Function</text>
</g>
<!-- Workflow1WORKFLOWINTERNALSINK_GO_function&#45;&gt;Split_Function -->
<g id="edge23" class="edge"><title>Workflow1WORKFLOWINTERNALSINK_GO_function&#45;&gt;Split_Function</title>
<path fill="none" stroke="black" d="M125.168,-159.456C132.474,-153.692 142.224,-146.942 152,-143 164.216,-138.075 193.468,-133.324 219.666,-129.806"/>
<polygon fill="black" stroke="black" points="220.427,-133.236 229.89,-128.472 219.521,-126.295 220.427,-133.236"/>
</g>
<!-- Split_Genelist -->
<g id="node17" class="node"><title>Split_Genelist</title>
<polygon fill="#d15fee" stroke="black" points="243,-403.5 167,-403.5 167,-382.5 243,-382.5 243,-403.5"/>
<text text-anchor="middle" x="205" y="-390.5" font-family="Helvetica,sans-Serif" font-size="10.00">Split_Genelist</text>
</g>
<!-- Split_Genelist&#45;&gt;Workflow1WORKFLOWINTERNALSOURCE_geneID -->
<g id="edge17" class="edge"><title>Split_Genelist&#45;&gt;Workflow1WORKFLOWINTERNALSOURCE_geneID</title>
<path fill="none" stroke="black" d="M201.199,-382.209C196.198,-368.014 187.314,-342.793 181.062,-325.048"/>
<polygon fill="black" stroke="black" points="184.359,-323.873 177.735,-315.604 177.757,-326.199 184.359,-323.873"/>
</g>
<!-- concatenate_geneID_GOFunction -->
<g id="node21" class="node"><title>concatenate_geneID_GOFunction</title>
<polygon fill="#deb887" stroke="black" points="374,-96.5 210,-96.5 210,-75.5 374,-75.5 374,-96.5"/>
<text text-anchor="middle" x="292" y="-83.5" font-family="Helvetica,sans-Serif" font-size="10.00">concatenate_geneID_GOFunction</text>
</g>
<!-- Split_Genelist&#45;&gt;concatenate_geneID_GOFunction -->
<g id="edge27" class="edge"><title>Split_Genelist&#45;&gt;concatenate_geneID_GOFunction</title>
<path fill="none" stroke="black" d="M224.413,-382.459C255.991,-363.729 315,-321.447 315,-267 315,-267 315,-267 315,-170 315,-144.476 316.236,-137.158 308,-113 307.108,-110.383 305.94,-107.742 304.642,-105.19"/>
<polygon fill="black" stroke="black" points="307.667,-103.43 299.623,-96.5353 301.612,-106.942 307.667,-103.43"/>
</g>
<!-- string_value -->
<g id="node18" class="node"><title>string_value</title>
<polygon fill="#b0c4de" stroke="black" points="200,-441.5 132,-441.5 132,-420.5 200,-420.5 200,-441.5"/>
<text text-anchor="middle" x="166" y="-428.5" font-family="Helvetica,sans-Serif" font-size="10.00">string_value</text>
</g>
<!-- string_value&#45;&gt;Split_Genelist -->
<g id="edge19" class="edge"><title>string_value&#45;&gt;Split_Genelist</title>
<path fill="none" stroke="black" d="M177.072,-420.212C180.061,-417.3 183.378,-414.068 186.651,-410.878"/>
<polygon fill="black" stroke="black" points="189.316,-413.169 194.036,-403.683 184.431,-408.155 189.316,-413.169"/>
</g>
<!-- Split_Function&#45;&gt;concatenate_geneID_GOFunction -->
<g id="edge29" class="edge"><title>Split_Function&#45;&gt;concatenate_geneID_GOFunction</title>
<path fill="none" stroke="black" d="M275.529,-113.212C276.999,-110.785 278.602,-108.136 280.213,-105.475"/>
<polygon fill="black" stroke="black" points="283.35,-107.05 285.534,-96.6831 277.362,-103.426 283.35,-107.05"/>
</g>
<!-- regex_value -->
<g id="node20" class="node"><title>regex_value</title>
<polygon fill="#b0c4de" stroke="black" points="308,-180.5 240,-180.5 240,-159.5 308,-159.5 308,-180.5"/>
<text text-anchor="middle" x="274" y="-167.5" font-family="Helvetica,sans-Serif" font-size="10.00">regex_value</text>
</g>
<!-- regex_value&#45;&gt;Split_Function -->
<g id="edge25" class="edge"><title>regex_value&#45;&gt;Split_Function</title>
<path fill="none" stroke="black" d="M272.84,-159.331C272.373,-155.035 271.818,-149.923 271.276,-144.942"/>
<polygon fill="black" stroke="black" points="274.714,-144.174 270.153,-134.611 267.755,-144.931 274.714,-144.174"/>
</g>
<!-- WORKFLOWINTERNALSINK_GOFunction -->
<g id="node27" class="node"><title>WORKFLOWINTERNALSINK_GOFunction</title>
<polygon fill="#bcd2ee" stroke="black" points="326,-37.5 258,-37.5 258,-16.5 326,-16.5 326,-37.5"/>
<text text-anchor="middle" x="292" y="-24.5" font-family="Helvetica,sans-Serif" font-size="10.00">GOFunction</text>
</g>
<!-- concatenate_geneID_GOFunction&#45;&gt;WORKFLOWINTERNALSINK_GOFunction -->
<g id="edge31" class="edge"><title>concatenate_geneID_GOFunction&#45;&gt;WORKFLOWINTERNALSINK_GOFunction</title>
<path fill="none" stroke="black" d="M292,-75.452C292,-67.8285 292,-57.2768 292,-47.966"/>
<polygon fill="black" stroke="black" points="295.5,-47.8558 292,-37.8559 288.5,-47.8559 295.5,-47.8558"/>
</g>
<!-- WORKFLOWINTERNALSOURCECONTROL -->
<g id="node23" class="node"><title>WORKFLOWINTERNALSOURCECONTROL</title>
<polygon fill="#ff4040" stroke="black" points="283,-438 276,-427.5 290,-427.5 283,-438"/>
</g>
<!-- WORKFLOWINTERNALSOURCE_GeneList -->
<g id="node24" class="node"><title>WORKFLOWINTERNALSOURCE_GeneList</title>
<polygon fill="skyblue" stroke="black" points="272,-441.5 216,-441.5 216,-420.5 272,-420.5 272,-441.5"/>
<text text-anchor="middle" x="244" y="-428.5" font-family="Helvetica,sans-Serif" font-size="10.00">GeneList</text>
</g>
<!-- WORKFLOWINTERNALSOURCE_GeneList&#45;&gt;Split_Genelist -->
<g id="edge21" class="edge"><title>WORKFLOWINTERNALSOURCE_GeneList&#45;&gt;Split_Genelist</title>
<path fill="none" stroke="black" d="M232.928,-420.212C229.939,-417.3 226.622,-414.068 223.349,-410.878"/>
<polygon fill="black" stroke="black" points="225.569,-408.155 215.964,-403.683 220.684,-413.169 225.569,-408.155"/>
</g>
<!-- WORKFLOWINTERNALSINKCONTROL -->
<g id="node26" class="node"><title>WORKFLOWINTERNALSINKCONTROL</title>
<polygon fill="#66cd00" stroke="black" points="337,-20 344,-30.5 330,-30.5 337,-20"/>
</g>
</g>
</svg>
