<?xml version="1.0" encoding="UTF-8" standalone="no"?>
<!DOCTYPE svg PUBLIC "-//W3C//DTD SVG 1.1//EN"
 "http://www.w3.org/Graphics/SVG/1.1/DTD/svg11.dtd">
<!-- Generated by graphviz version 2.26.0 (20091210.2329)
 -->
<!-- Title: t2flow_graph Pages: 1 -->
<svg width="584pt" height="544pt"
 viewBox="0.00 0.00 583.72 544.00" xmlns="http://www.w3.org/2000/svg" xmlns:xlink="http://www.w3.org/1999/xlink">
<g id="graph1" class="graph" transform="scale(1 1) rotate(0) translate(4 540)">
<title>t2flow_graph</title>
<polygon fill="white" stroke="white" points="-4,5 -4,-540 580.724,-540 580.724,5 -4,5"/>
<g id="graph2" class="cluster"><title>cluster_sources</title>
<polygon fill="none" stroke="black" stroke-dasharray="1,5" points="398,-409 398,-468 564,-468 564,-409 398,-409"/>
<text text-anchor="middle" x="442" y="-455" font-family="Helvetica,sans-Serif" font-size="10.00">Workflow Inputs</text>
</g>
<g id="graph3" class="cluster"><title>cluster_sinks</title>
<polygon fill="none" stroke="black" stroke-dasharray="1,5" points="130,-8 130,-67 225,-67 225,-8 130,-8"/>
<text text-anchor="middle" x="177.5" y="-54" font-family="Helvetica,sans-Serif" font-size="10.00">Workflow Outputs</text>
</g>
<!-- runMGCAT -->
<g id="node1" class="node"><title>runMGCAT</title>
<polygon fill="#d15fee" stroke="black" points="436,-248.5 370,-248.5 370,-227.5 436,-227.5 436,-248.5"/>
<text text-anchor="middle" x="403" y="-235.5" font-family="Helvetica,sans-Serif" font-size="10.00">runMGCAT</text>
</g>
<!-- Read_Text_File_2 -->
<g id="node14" class="node"><title>Read_Text_File_2</title>
<polygon fill="#d15fee" stroke="black" points="477,-210.5 381,-210.5 381,-189.5 477,-189.5 477,-210.5"/>
<text text-anchor="middle" x="429" y="-197.5" font-family="Helvetica,sans-Serif" font-size="10.00">Read_Text_File_2</text>
</g>
<!-- runMGCAT&#45;&gt;Read_Text_File_2 -->
<g id="edge58" class="edge"><title>runMGCAT&#45;&gt;Read_Text_File_2</title>
<path fill="none" stroke="gray" d="M410.381,-227.212C412.485,-224.138 414.832,-220.708 417.131,-217.347"/>
<ellipse fill="none" stroke="gray" cx="419.432" cy="-213.984" rx="4.00002" ry="4.00002"/>
</g>
<!-- MGCAT_Path -->
<g id="node2" class="node"><title>MGCAT_Path</title>
<polygon fill="#b0c4de" stroke="black" points="374,-286.5 296,-286.5 296,-265.5 374,-265.5 374,-286.5"/>
<text text-anchor="middle" x="335" y="-273.5" font-family="Helvetica,sans-Serif" font-size="10.00">MGCAT_Path</text>
</g>
<!-- MGCAT_Path&#45;&gt;runMGCAT -->
<g id="edge4" class="edge"><title>MGCAT_Path&#45;&gt;runMGCAT</title>
<path fill="none" stroke="black" d="M353.942,-265.415C360.573,-261.709 368.163,-257.468 375.358,-253.447"/>
<polygon fill="black" stroke="black" points="377.138,-256.462 384.16,-248.528 373.723,-250.351 377.138,-256.462"/>
</g>
<!-- Working_Dir -->
<g id="node3" class="node"><title>Working_Dir</title>
<polygon fill="#b0c4de" stroke="black" points="502,-286.5 432,-286.5 432,-265.5 502,-265.5 502,-286.5"/>
<text text-anchor="middle" x="467" y="-273.5" font-family="Helvetica,sans-Serif" font-size="10.00">Working_Dir</text>
</g>
<!-- Working_Dir&#45;&gt;runMGCAT -->
<g id="edge6" class="edge"><title>Working_Dir&#45;&gt;runMGCAT</title>
<path fill="none" stroke="black" d="M449.172,-265.415C443.07,-261.791 436.105,-257.656 429.468,-253.715"/>
<polygon fill="black" stroke="black" points="431.117,-250.624 420.732,-248.528 427.544,-256.643 431.117,-250.624"/>
</g>
<!-- Working_Dir&#45;&gt;Read_Text_File_2 -->
<g id="edge34" class="edge"><title>Working_Dir&#45;&gt;Read_Text_File_2</title>
<path fill="none" stroke="black" d="M461.716,-265.433C455.884,-253.768 446.359,-234.718 439.087,-220.173"/>
<polygon fill="black" stroke="black" points="442.088,-218.349 434.485,-210.97 435.827,-221.479 442.088,-218.349"/>
</g>
<!-- Read_Text_File -->
<g id="node4" class="node"><title>Read_Text_File</title>
<polygon fill="#d15fee" stroke="black" points="161,-497.5 75,-497.5 75,-476.5 161,-476.5 161,-497.5"/>
<text text-anchor="middle" x="118" y="-484.5" font-family="Helvetica,sans-Serif" font-size="10.00">Read_Text_File</text>
</g>
<!-- Split_string_into_string_list_by_regular_expression -->
<g id="node5" class="node"><title>Split_string_into_string_list_by_regular_expression</title>
<polygon fill="#d15fee" stroke="black" points="236,-438.5 8.52651e-14,-438.5 0,-417.5 236,-417.5 236,-438.5"/>
<text text-anchor="middle" x="118" y="-425.5" font-family="Helvetica,sans-Serif" font-size="10.00">Split_string_into_string_list_by_regular_expression</text>
</g>
<!-- Read_Text_File&#45;&gt;Split_string_into_string_list_by_regular_expression -->
<g id="edge12" class="edge"><title>Read_Text_File&#45;&gt;Split_string_into_string_list_by_regular_expression</title>
<path fill="none" stroke="black" d="M118,-476.452C118,-468.829 118,-458.277 118,-448.966"/>
<polygon fill="black" stroke="black" points="121.5,-448.856 118,-438.856 114.5,-448.856 121.5,-448.856"/>
</g>
<!-- Filter_List_of_Strings_by_regex -->
<g id="node7" class="node"><title>Filter_List_of_Strings_by_regex</title>
<polygon fill="#d15fee" stroke="black" points="446,-400.5 292,-400.5 292,-379.5 446,-379.5 446,-400.5"/>
<text text-anchor="middle" x="369" y="-387.5" font-family="Helvetica,sans-Serif" font-size="10.00">Filter_List_of_Strings_by_regex</text>
</g>
<!-- Split_string_into_string_list_by_regular_expression&#45;&gt;Filter_List_of_Strings_by_regex -->
<g id="edge16" class="edge"><title>Split_string_into_string_list_by_regular_expression&#45;&gt;Filter_List_of_Strings_by_regex</title>
<path fill="none" stroke="black" d="M184.786,-417.497C202.713,-414.706 222.091,-411.713 240,-409 255.055,-406.719 271.105,-404.325 286.588,-402.035"/>
<polygon fill="black" stroke="black" points="287.282,-405.47 296.664,-400.547 286.26,-398.545 287.282,-405.47"/>
</g>
<!-- Regex1 -->
<g id="node6" class="node"><title>Regex1</title>
<polygon fill="#b0c4de" stroke="black" points="215,-497.5 165,-497.5 165,-476.5 215,-476.5 215,-497.5"/>
<text text-anchor="middle" x="190" y="-484.5" font-family="Helvetica,sans-Serif" font-size="10.00">Regex1</text>
</g>
<!-- Regex1&#45;&gt;Split_string_into_string_list_by_regular_expression -->
<g id="edge14" class="edge"><title>Regex1&#45;&gt;Split_string_into_string_list_by_regular_expression</title>
<path fill="none" stroke="black" d="M177.128,-476.452C166.611,-467.834 151.528,-455.474 139.228,-445.395"/>
<polygon fill="black" stroke="black" points="141.201,-442.487 131.248,-438.856 136.764,-447.901 141.201,-442.487"/>
</g>
<!-- Concatenate_strings -->
<g id="node11" class="node"><title>Concatenate_strings</title>
<polygon fill="#d15fee" stroke="black" points="422,-362.5 316,-362.5 316,-341.5 422,-341.5 422,-362.5"/>
<text text-anchor="middle" x="369" y="-349.5" font-family="Helvetica,sans-Serif" font-size="10.00">Concatenate_strings</text>
</g>
<!-- Filter_List_of_Strings_by_regex&#45;&gt;Concatenate_strings -->
<g id="edge32" class="edge"><title>Filter_List_of_Strings_by_regex&#45;&gt;Concatenate_strings</title>
<path fill="none" stroke="black" d="M367.632,-379.212C367.563,-377.19 367.521,-375.013 367.506,-372.804"/>
<polygon fill="black" stroke="black" points="371.007,-372.727 367.636,-362.683 364.008,-372.637 371.007,-372.727"/>
</g>
<!-- Filter_List_of_Strings_by_regex&#45;&gt;Concatenate_strings -->
<g id="edge68" class="edge"><title>Filter_List_of_Strings_by_regex&#45;&gt;Concatenate_strings</title>
<path fill="none" stroke="gray" d="M370.368,-379.212C370.457,-376.623 370.501,-373.782 370.5,-370.943"/>
<ellipse fill="none" stroke="gray" cx="370.43" cy="-366.683" rx="4" ry="4"/>
</g>
<!-- Regex2 -->
<g id="node8" class="node"><title>Regex2</title>
<polygon fill="#b0c4de" stroke="black" points="290,-438.5 240,-438.5 240,-417.5 290,-417.5 290,-438.5"/>
<text text-anchor="middle" x="265" y="-425.5" font-family="Helvetica,sans-Serif" font-size="10.00">Regex2</text>
</g>
<!-- Regex2&#45;&gt;Filter_List_of_Strings_by_regex -->
<g id="edge18" class="edge"><title>Regex2&#45;&gt;Filter_List_of_Strings_by_regex</title>
<path fill="none" stroke="black" d="M279.214,-417.341C283.759,-414.308 288.93,-411.228 294,-409 298.454,-407.043 303.149,-405.259 307.927,-403.639"/>
<polygon fill="black" stroke="black" points="309.309,-406.873 317.803,-400.54 307.213,-400.194 309.309,-406.873"/>
</g>
<!-- Regex3 -->
<g id="node9" class="node"><title>Regex3</title>
<polygon fill="#b0c4de" stroke="black" points="344,-438.5 294,-438.5 294,-417.5 344,-417.5 344,-438.5"/>
<text text-anchor="middle" x="319" y="-425.5" font-family="Helvetica,sans-Serif" font-size="10.00">Regex3</text>
</g>
<!-- Regex3&#45;&gt;Filter_List_of_Strings_by_regex -->
<g id="edge20" class="edge"><title>Regex3&#45;&gt;Filter_List_of_Strings_by_regex</title>
<path fill="none" stroke="black" d="M332.928,-417.415C337.262,-414.121 342.153,-410.404 346.902,-406.794"/>
<polygon fill="black" stroke="black" points="349.303,-409.366 355.147,-400.528 345.067,-403.793 349.303,-409.366"/>
</g>
<!-- Write_Text_File -->
<g id="node10" class="node"><title>Write_Text_File</title>
<polygon fill="#d15fee" stroke="black" points="412,-324.5 326,-324.5 326,-303.5 412,-303.5 412,-324.5"/>
<text text-anchor="middle" x="369" y="-311.5" font-family="Helvetica,sans-Serif" font-size="10.00">Write_Text_File</text>
</g>
<!-- Write_Text_File&#45;&gt;runMGCAT -->
<g id="edge56" class="edge"><title>Write_Text_File&#45;&gt;runMGCAT</title>
<path fill="none" stroke="gray" d="M328.596,-303.494C314.067,-298.835 300.208,-293.044 296,-287 290.413,-278.976 289.991,-272.714 296,-265 304.216,-254.453 335.275,-247.381 361.828,-243.13"/>
<ellipse fill="none" stroke="gray" cx="365.94" cy="-242.504" rx="4.00001" ry="4.00001"/>
</g>
<!-- Write_Text_File&#45;&gt;MGCAT_Path -->
<g id="edge66" class="edge"><title>Write_Text_File&#45;&gt;MGCAT_Path</title>
<path fill="none" stroke="gray" d="M359.348,-303.212C356.452,-299.976 353.204,-296.346 350.047,-292.817"/>
<ellipse fill="none" stroke="gray" cx="347.226" cy="-289.664" rx="4.00002" ry="4.00002"/>
</g>
<!-- Write_Text_File&#45;&gt;Working_Dir -->
<g id="edge60" class="edge"><title>Write_Text_File&#45;&gt;Working_Dir</title>
<path fill="none" stroke="gray" d="M396.298,-303.415C407.449,-299.091 420.477,-294.039 432.292,-289.458"/>
<ellipse fill="none" stroke="gray" cx="436.118" cy="-287.974" rx="4.00001" ry="4.00001"/>
</g>
<!-- INI_File -->
<g id="node13" class="node"><title>INI_File</title>
<polygon fill="#b0c4de" stroke="black" points="428,-286.5 378,-286.5 378,-265.5 428,-265.5 428,-286.5"/>
<text text-anchor="middle" x="403" y="-273.5" font-family="Helvetica,sans-Serif" font-size="10.00">INI_File</text>
</g>
<!-- Write_Text_File&#45;&gt;INI_File -->
<g id="edge64" class="edge"><title>Write_Text_File&#45;&gt;INI_File</title>
<path fill="none" stroke="gray" d="M378.652,-303.212C381.548,-299.976 384.796,-296.346 387.953,-292.817"/>
<ellipse fill="none" stroke="gray" cx="390.774" cy="-289.664" rx="4.00002" ry="4.00002"/>
</g>
<!-- Concatenate_strings&#45;&gt;Write_Text_File -->
<g id="edge28" class="edge"><title>Concatenate_strings&#45;&gt;Write_Text_File</title>
<path fill="none" stroke="black" d="M367.632,-341.212C367.563,-339.19 367.521,-337.013 367.506,-334.804"/>
<polygon fill="black" stroke="black" points="371.007,-334.727 367.636,-324.683 364.008,-334.637 371.007,-334.727"/>
</g>
<!-- Concatenate_strings&#45;&gt;Write_Text_File -->
<g id="edge62" class="edge"><title>Concatenate_strings&#45;&gt;Write_Text_File</title>
<path fill="none" stroke="gray" d="M370.368,-341.212C370.457,-338.623 370.501,-335.782 370.5,-332.943"/>
<ellipse fill="none" stroke="gray" cx="370.43" cy="-328.683" rx="4" ry="4"/>
</g>
<!-- Group -->
<g id="node12" class="node"><title>Group</title>
<polygon fill="#b0c4de" stroke="black" points="390,-438.5 348,-438.5 348,-417.5 390,-417.5 390,-438.5"/>
<text text-anchor="middle" x="369" y="-425.5" font-family="Helvetica,sans-Serif" font-size="10.00">Group</text>
</g>
<!-- Group&#45;&gt;Filter_List_of_Strings_by_regex -->
<g id="edge24" class="edge"><title>Group&#45;&gt;Filter_List_of_Strings_by_regex</title>
<path fill="none" stroke="black" d="M369,-417.212C369,-415.19 369,-413.013 369,-410.804"/>
<polygon fill="black" stroke="black" points="372.5,-410.683 369,-400.683 365.5,-410.683 372.5,-410.683"/>
</g>
<!-- INI_File&#45;&gt;runMGCAT -->
<g id="edge8" class="edge"><title>INI_File&#45;&gt;runMGCAT</title>
<path fill="none" stroke="black" d="M403,-265.212C403,-263.19 403,-261.013 403,-258.804"/>
<polygon fill="black" stroke="black" points="406.5,-258.683 403,-248.683 399.5,-258.683 406.5,-258.683"/>
</g>
<!-- Split_string_into_string_list_by_regular_expression_2 -->
<g id="node15" class="node"><title>Split_string_into_string_list_by_regular_expression_2</title>
<polygon fill="#d15fee" stroke="black" points="511,-172.5 265,-172.5 265,-151.5 511,-151.5 511,-172.5"/>
<text text-anchor="middle" x="388" y="-159.5" font-family="Helvetica,sans-Serif" font-size="10.00">Split_string_into_string_list_by_regular_expression_2</text>
</g>
<!-- Read_Text_File_2&#45;&gt;Split_string_into_string_list_by_regular_expression_2 -->
<g id="edge36" class="edge"><title>Read_Text_File_2&#45;&gt;Split_string_into_string_list_by_regular_expression_2</title>
<path fill="none" stroke="black" d="M417.361,-189.212C414.131,-186.219 410.537,-182.888 407.003,-179.613"/>
<polygon fill="black" stroke="black" points="409.24,-176.914 399.526,-172.683 404.482,-182.048 409.24,-176.914"/>
</g>
<!-- Filter_list_of_strings_extracting_match_to_a_regex -->
<g id="node17" class="node"><title>Filter_list_of_strings_extracting_match_to_a_regex</title>
<polygon fill="#d15fee" stroke="black" points="357,-134.5 119,-134.5 119,-113.5 357,-113.5 357,-134.5"/>
<text text-anchor="middle" x="238" y="-121.5" font-family="Helvetica,sans-Serif" font-size="10.00">Filter_list_of_strings_extracting_match_to_a_regex</text>
</g>
<!-- Split_string_into_string_list_by_regular_expression_2&#45;&gt;Filter_list_of_strings_extracting_match_to_a_regex -->
<g id="edge40" class="edge"><title>Split_string_into_string_list_by_regular_expression_2&#45;&gt;Filter_list_of_strings_extracting_match_to_a_regex</title>
<path fill="none" stroke="black" d="M346.217,-151.415C328.581,-146.947 307.875,-141.702 289.323,-137.002"/>
<polygon fill="black" stroke="black" points="290.113,-133.591 279.559,-134.528 288.394,-140.377 290.113,-133.591"/>
</g>
<!-- Regex1_2 -->
<g id="node16" class="node"><title>Regex1_2</title>
<polygon fill="#b0c4de" stroke="black" points="377,-210.5 317,-210.5 317,-189.5 377,-189.5 377,-210.5"/>
<text text-anchor="middle" x="347" y="-197.5" font-family="Helvetica,sans-Serif" font-size="10.00">Regex1_2</text>
</g>
<!-- Regex1_2&#45;&gt;Split_string_into_string_list_by_regular_expression_2 -->
<g id="edge38" class="edge"><title>Regex1_2&#45;&gt;Split_string_into_string_list_by_regular_expression_2</title>
<path fill="none" stroke="black" d="M358.639,-189.212C361.869,-186.219 365.463,-182.888 368.997,-179.613"/>
<polygon fill="black" stroke="black" points="371.518,-182.048 376.474,-172.683 366.76,-176.914 371.518,-182.048"/>
</g>
<!-- Thresholder -->
<g id="node20" class="node"><title>Thresholder</title>
<polygon fill="#deb887" stroke="black" points="202,-96.5 134,-96.5 134,-75.5 202,-75.5 202,-96.5"/>
<text text-anchor="middle" x="168" y="-83.5" font-family="Helvetica,sans-Serif" font-size="10.00">Thresholder</text>
</g>
<!-- Filter_list_of_strings_extracting_match_to_a_regex&#45;&gt;Thresholder -->
<g id="edge46" class="edge"><title>Filter_list_of_strings_extracting_match_to_a_regex&#45;&gt;Thresholder</title>
<path fill="none" stroke="black" d="M218.501,-113.415C211.674,-109.709 203.862,-105.468 196.455,-101.447"/>
<polygon fill="black" stroke="black" points="197.853,-98.2233 187.394,-96.5284 194.513,-104.375 197.853,-98.2233"/>
</g>
<!-- Group1 -->
<g id="node18" class="node"><title>Group1</title>
<polygon fill="#b0c4de" stroke="black" points="211,-172.5 163,-172.5 163,-151.5 211,-151.5 211,-172.5"/>
<text text-anchor="middle" x="187" y="-159.5" font-family="Helvetica,sans-Serif" font-size="10.00">Group1</text>
</g>
<!-- Group1&#45;&gt;Filter_list_of_strings_extracting_match_to_a_regex -->
<g id="edge42" class="edge"><title>Group1&#45;&gt;Filter_list_of_strings_extracting_match_to_a_regex</title>
<path fill="none" stroke="black" d="M201.206,-151.415C205.738,-148.038 210.866,-144.218 215.823,-140.524"/>
<polygon fill="black" stroke="black" points="217.942,-143.31 223.87,-134.528 213.76,-137.697 217.942,-143.31"/>
</g>
<!-- regex2 -->
<g id="node19" class="node"><title>regex2</title>
<polygon fill="#b0c4de" stroke="black" points="261,-172.5 215,-172.5 215,-151.5 261,-151.5 261,-172.5"/>
<text text-anchor="middle" x="238" y="-159.5" font-family="Helvetica,sans-Serif" font-size="10.00">regex2</text>
</g>
<!-- regex2&#45;&gt;Filter_list_of_strings_extracting_match_to_a_regex -->
<g id="edge44" class="edge"><title>regex2&#45;&gt;Filter_list_of_strings_extracting_match_to_a_regex</title>
<path fill="none" stroke="black" d="M238,-151.212C238,-149.19 238,-147.013 238,-144.804"/>
<polygon fill="black" stroke="black" points="241.5,-144.683 238,-134.683 234.5,-144.683 241.5,-144.683"/>
</g>
<!-- WORKFLOWINTERNALSINK_continue -->
<g id="node31" class="node"><title>WORKFLOWINTERNALSINK_continue</title>
<polygon fill="#bcd2ee" stroke="black" points="194,-37.5 142,-37.5 142,-16.5 194,-16.5 194,-37.5"/>
<text text-anchor="middle" x="168" y="-24.5" font-family="Helvetica,sans-Serif" font-size="10.00">continue</text>
</g>
<!-- Thresholder&#45;&gt;WORKFLOWINTERNALSINK_continue -->
<g id="edge54" class="edge"><title>Thresholder&#45;&gt;WORKFLOWINTERNALSINK_continue</title>
<path fill="none" stroke="black" d="M168,-75.452C168,-67.8285 168,-57.2768 168,-47.966"/>
<polygon fill="black" stroke="black" points="171.5,-47.8558 168,-37.8559 164.5,-47.8559 171.5,-47.8558"/>
</g>
<!-- Ask -->
<g id="node21" class="node"><title>Ask</title>
<polygon fill="#d15fee" stroke="black" points="115,-134.5 81,-134.5 81,-113.5 115,-113.5 115,-134.5"/>
<text text-anchor="middle" x="98" y="-121.5" font-family="Helvetica,sans-Serif" font-size="10.00">Ask</text>
</g>
<!-- Ask&#45;&gt;Thresholder -->
<g id="edge48" class="edge"><title>Ask&#45;&gt;Thresholder</title>
<path fill="none" stroke="black" d="M115.303,-114.607C122.599,-110.647 131.286,-105.931 139.481,-101.482"/>
<polygon fill="black" stroke="black" points="141.307,-104.473 148.425,-96.6262 137.967,-98.3211 141.307,-104.473"/>
</g>
<!-- Message -->
<g id="node22" class="node"><title>Message</title>
<polygon fill="#b0c4de" stroke="black" points="99,-172.5 43,-172.5 43,-151.5 99,-151.5 99,-172.5"/>
<text text-anchor="middle" x="71" y="-159.5" font-family="Helvetica,sans-Serif" font-size="10.00">Message</text>
</g>
<!-- Message&#45;&gt;Ask -->
<g id="edge50" class="edge"><title>Message&#45;&gt;Ask</title>
<path fill="none" stroke="black" d="M78.6649,-151.212C80.5046,-148.623 82.5233,-145.782 84.5408,-142.943"/>
<polygon fill="black" stroke="black" points="87.4704,-144.862 90.4094,-134.683 81.7641,-140.808 87.4704,-144.862"/>
</g>
<!-- Title -->
<g id="node23" class="node"><title>Title</title>
<polygon fill="#b0c4de" stroke="black" points="137,-172.5 103,-172.5 103,-151.5 137,-151.5 137,-172.5"/>
<text text-anchor="middle" x="120" y="-159.5" font-family="Helvetica,sans-Serif" font-size="10.00">Title</text>
</g>
<!-- Title&#45;&gt;Ask -->
<g id="edge52" class="edge"><title>Title&#45;&gt;Ask</title>
<path fill="none" stroke="black" d="M113.755,-151.212C112.349,-148.785 110.816,-146.136 109.275,-143.475"/>
<polygon fill="black" stroke="black" points="112.224,-141.584 104.185,-134.683 106.166,-145.091 112.224,-141.584"/>
</g>
<!-- INI_Path -->
<g id="node24" class="node"><title>INI_Path</title>
<polygon fill="#b0c4de" stroke="black" points="374,-535.5 318,-535.5 318,-514.5 374,-514.5 374,-535.5"/>
<text text-anchor="middle" x="346" y="-522.5" font-family="Helvetica,sans-Serif" font-size="10.00">INI_Path</text>
</g>
<!-- INI_Path&#45;&gt;Read_Text_File -->
<g id="edge10" class="edge"><title>INI_Path&#45;&gt;Read_Text_File</title>
<path fill="none" stroke="black" d="M317.973,-521.543C284.318,-517.235 225.93,-509.266 171.086,-499.115"/>
<polygon fill="black" stroke="black" points="171.727,-495.674 161.252,-497.263 170.432,-502.553 171.727,-495.674"/>
</g>
<!-- INI_Path&#45;&gt;Write_Text_File -->
<g id="edge30" class="edge"><title>INI_Path&#45;&gt;Write_Text_File</title>
<path fill="none" stroke="black" d="M374.004,-521.296C426.82,-513.752 538.252,-495.007 565,-468 577.895,-454.98 575,-446.325 575,-428 575,-428 575,-428 575,-390 575,-357.411 483.106,-334.451 422.07,-322.796"/>
<polygon fill="black" stroke="black" points="422.656,-319.345 412.184,-320.955 421.374,-326.227 422.656,-319.345"/>
</g>
<!-- WORKFLOWINTERNALSOURCECONTROL -->
<g id="node26" class="node"><title>WORKFLOWINTERNALSOURCECONTROL</title>
<polygon fill="#ff4040" stroke="black" points="549,-435 542,-424.5 556,-424.5 549,-435"/>
</g>
<!-- WORKFLOWINTERNALSOURCE_Sequence1 -->
<g id="node27" class="node"><title>WORKFLOWINTERNALSOURCE_Sequence1</title>
<polygon fill="skyblue" stroke="black" points="538,-438.5 474,-438.5 474,-417.5 538,-417.5 538,-438.5"/>
<text text-anchor="middle" x="506" y="-425.5" font-family="Helvetica,sans-Serif" font-size="10.00">Sequence1</text>
</g>
<!-- WORKFLOWINTERNALSOURCE_Sequence1&#45;&gt;Filter_List_of_Strings_by_regex -->
<g id="edge26" class="edge"><title>WORKFLOWINTERNALSOURCE_Sequence1&#45;&gt;Filter_List_of_Strings_by_regex</title>
<path fill="none" stroke="black" d="M488.532,-417.434C482.792,-414.332 476.272,-411.189 470,-409 463.549,-406.748 456.767,-404.745 449.899,-402.967"/>
<polygon fill="black" stroke="black" points="450.345,-399.474 439.802,-400.519 448.695,-406.276 450.345,-399.474"/>
</g>
<!-- WORKFLOWINTERNALSOURCE_Sequence2 -->
<g id="node28" class="node"><title>WORKFLOWINTERNALSOURCE_Sequence2</title>
<polygon fill="skyblue" stroke="black" points="470,-438.5 406,-438.5 406,-417.5 470,-417.5 470,-438.5"/>
<text text-anchor="middle" x="438" y="-425.5" font-family="Helvetica,sans-Serif" font-size="10.00">Sequence2</text>
</g>
<!-- WORKFLOWINTERNALSOURCE_Sequence2&#45;&gt;Filter_List_of_Strings_by_regex -->
<g id="edge22" class="edge"><title>WORKFLOWINTERNALSOURCE_Sequence2&#45;&gt;Filter_List_of_Strings_by_regex</title>
<path fill="none" stroke="black" d="M418.78,-417.415C412.051,-413.709 404.35,-409.468 397.048,-405.447"/>
<polygon fill="black" stroke="black" points="398.565,-402.287 388.117,-400.528 395.188,-408.418 398.565,-402.287"/>
</g>
<!-- WORKFLOWINTERNALSINKCONTROL -->
<g id="node30" class="node"><title>WORKFLOWINTERNALSINKCONTROL</title>
<polygon fill="#66cd00" stroke="black" points="207,-20 214,-30.5 200,-30.5 207,-20"/>
</g>
</g>
</svg>
