<?xml version="1.0" encoding="UTF-8" standalone="no"?>
<!DOCTYPE svg PUBLIC "-//W3C//DTD SVG 1.1//EN"
 "http://www.w3.org/Graphics/SVG/1.1/DTD/svg11.dtd">
<!-- Generated by graphviz version 2.26.0 (20091210.2329)
 -->
<!-- Title: t2flow_graph Pages: 1 -->
<svg width="546pt" height="598pt"
 viewBox="0.00 0.00 546.00 598.00" xmlns="http://www.w3.org/2000/svg" xmlns:xlink="http://www.w3.org/1999/xlink">
<g id="graph1" class="graph" transform="scale(1 1) rotate(0) translate(4 594)">
<title>t2flow_graph</title>
<polygon fill="white" stroke="white" points="-4,5 -4,-594 543,-594 543,5 -4,5"/>
<g id="graph2" class="cluster"><title>cluster_sources</title>
<polygon fill="none" stroke="black" stroke-dasharray="1,5" points="355,-523 355,-582 457,-582 457,-523 355,-523"/>
<text text-anchor="middle" x="399" y="-569" font-family="Helvetica,sans-Serif" font-size="10.00">Workflow Inputs</text>
</g>
<g id="graph3" class="cluster"><title>cluster_sinks</title>
<polygon fill="none" stroke="black" stroke-dasharray="1,5" points="38,-8 38,-67 530,-67 530,-8 38,-8"/>
<text text-anchor="middle" x="85.5" y="-54" font-family="Helvetica,sans-Serif" font-size="10.00">Workflow Outputs</text>
</g>
<!-- merge_pathways -->
<g id="node1" class="node"><title>merge_pathways</title>
<polygon fill="#d15fee" stroke="black" points="297,-324.5 207,-324.5 207,-303.5 297,-303.5 297,-324.5"/>
<text text-anchor="middle" x="252" y="-311.5" font-family="Helvetica,sans-Serif" font-size="10.00">merge_pathways</text>
</g>
<!-- Remove_duplicate_pathways -->
<g id="node4" class="node"><title>Remove_duplicate_pathways</title>
<polygon fill="#d15fee" stroke="black" points="284,-286.5 140,-286.5 140,-265.5 284,-265.5 284,-286.5"/>
<text text-anchor="middle" x="212" y="-273.5" font-family="Helvetica,sans-Serif" font-size="10.00">Remove_duplicate_pathways</text>
</g>
<!-- merge_pathways&#45;&gt;Remove_duplicate_pathways -->
<g id="edge10" class="edge"><title>merge_pathways&#45;&gt;Remove_duplicate_pathways</title>
<path fill="none" stroke="black" d="M240.645,-303.212C237.493,-300.219 233.987,-296.888 230.54,-293.613"/>
<polygon fill="black" stroke="black" points="232.906,-291.033 223.245,-286.683 228.085,-296.108 232.906,-291.033"/>
</g>
<!-- btit1 -->
<g id="node6" class="node"><title>btit1</title>
<polygon fill="#a2cd5a" stroke="black" points="308,-96.5 274,-96.5 274,-75.5 308,-75.5 308,-96.5"/>
<text text-anchor="middle" x="291" y="-83.5" font-family="Helvetica,sans-Serif" font-size="10.00">btit1</text>
</g>
<!-- merge_pathways&#45;&gt;btit1 -->
<g id="edge14" class="edge"><title>merge_pathways&#45;&gt;btit1</title>
<path fill="none" stroke="black" d="M268.907,-303.484C274.597,-299.089 280.407,-293.485 284,-287 294.661,-267.757 291,-259.999 291,-238 291,-238 291,-238 291,-162 291,-143.495 291,-122.455 291,-107.212"/>
<polygon fill="black" stroke="black" points="294.5,-106.824 291,-96.8236 287.5,-106.824 294.5,-106.824"/>
</g>
<!-- merge_pathways_2 -->
<g id="node2" class="node"><title>merge_pathways_2</title>
<polygon fill="#d15fee" stroke="black" points="262,-248.5 162,-248.5 162,-227.5 262,-227.5 262,-248.5"/>
<text text-anchor="middle" x="212" y="-235.5" font-family="Helvetica,sans-Serif" font-size="10.00">merge_pathways_2</text>
</g>
<!-- remove_nulls_2 -->
<g id="node10" class="node"><title>remove_nulls_2</title>
<polygon fill="#deb887" stroke="black" points="254,-210.5 170,-210.5 170,-189.5 254,-189.5 254,-210.5"/>
<text text-anchor="middle" x="212" y="-197.5" font-family="Helvetica,sans-Serif" font-size="10.00">remove_nulls_2</text>
</g>
<!-- merge_pathways_2&#45;&gt;remove_nulls_2 -->
<g id="edge22" class="edge"><title>merge_pathways_2&#45;&gt;remove_nulls_2</title>
<path fill="none" stroke="black" d="M212,-227.212C212,-225.19 212,-223.013 212,-220.804"/>
<polygon fill="black" stroke="black" points="215.5,-220.683 212,-210.683 208.5,-220.683 215.5,-220.683"/>
</g>
<!-- merge_descriptions -->
<g id="node3" class="node"><title>merge_descriptions</title>
<polygon fill="#d15fee" stroke="black" points="447,-134.5 347,-134.5 347,-113.5 447,-113.5 447,-134.5"/>
<text text-anchor="middle" x="397" y="-121.5" font-family="Helvetica,sans-Serif" font-size="10.00">merge_descriptions</text>
</g>
<!-- remove_Nulls -->
<g id="node8" class="node"><title>remove_Nulls</title>
<polygon fill="#deb887" stroke="black" points="435,-96.5 359,-96.5 359,-75.5 435,-75.5 435,-96.5"/>
<text text-anchor="middle" x="397" y="-83.5" font-family="Helvetica,sans-Serif" font-size="10.00">remove_Nulls</text>
</g>
<!-- merge_descriptions&#45;&gt;remove_Nulls -->
<g id="edge18" class="edge"><title>merge_descriptions&#45;&gt;remove_Nulls</title>
<path fill="none" stroke="black" d="M397,-113.212C397,-111.19 397,-109.013 397,-106.804"/>
<polygon fill="black" stroke="black" points="400.5,-106.683 397,-96.6831 393.5,-106.683 400.5,-106.683"/>
</g>
<!-- Remove_duplicate_pathways&#45;&gt;merge_pathways_2 -->
<g id="edge6" class="edge"><title>Remove_duplicate_pathways&#45;&gt;merge_pathways_2</title>
<path fill="none" stroke="black" d="M212,-265.212C212,-263.19 212,-261.013 212,-258.804"/>
<polygon fill="black" stroke="black" points="215.5,-258.683 212,-248.683 208.5,-258.683 215.5,-258.683"/>
</g>
<!-- btit -->
<g id="node5" class="node"><title>btit</title>
<polygon fill="#a2cd5a" stroke="black" points="412,-172.5 382,-172.5 382,-151.5 412,-151.5 412,-172.5"/>
<text text-anchor="middle" x="397" y="-159.5" font-family="Helvetica,sans-Serif" font-size="10.00">btit</text>
</g>
<!-- btit&#45;&gt;merge_descriptions -->
<g id="edge8" class="edge"><title>btit&#45;&gt;merge_descriptions</title>
<path fill="none" stroke="black" d="M397,-151.212C397,-149.19 397,-147.013 397,-144.804"/>
<polygon fill="black" stroke="black" points="400.5,-144.683 397,-134.683 393.5,-144.683 400.5,-144.683"/>
</g>
<!-- WORKFLOWINTERNALSINK_pathway_descriptions -->
<g id="node26" class="node"><title>WORKFLOWINTERNALSINK_pathway_descriptions</title>
<polygon fill="#bcd2ee" stroke="black" points="346,-37.5 236,-37.5 236,-16.5 346,-16.5 346,-37.5"/>
<text text-anchor="middle" x="291" y="-24.5" font-family="Helvetica,sans-Serif" font-size="10.00">pathway_descriptions</text>
</g>
<!-- btit1&#45;&gt;WORKFLOWINTERNALSINK_pathway_descriptions -->
<g id="edge46" class="edge"><title>btit1&#45;&gt;WORKFLOWINTERNALSINK_pathway_descriptions</title>
<path fill="none" stroke="black" d="M291,-75.452C291,-67.8285 291,-57.2768 291,-47.966"/>
<polygon fill="black" stroke="black" points="294.5,-47.8558 291,-37.8559 287.5,-47.8559 294.5,-47.8558"/>
</g>
<!-- bconv -->
<g id="node7" class="node"><title>bconv</title>
<polygon fill="#a2cd5a" stroke="black" points="418,-476.5 376,-476.5 376,-455.5 418,-455.5 418,-476.5"/>
<text text-anchor="middle" x="397" y="-463.5" font-family="Helvetica,sans-Serif" font-size="10.00">bconv</text>
</g>
<!-- extract_gene_ids -->
<g id="node9" class="node"><title>extract_gene_ids</title>
<polygon fill="#deb887" stroke="black" points="442,-438.5 352,-438.5 352,-417.5 442,-417.5 442,-438.5"/>
<text text-anchor="middle" x="397" y="-425.5" font-family="Helvetica,sans-Serif" font-size="10.00">extract_gene_ids</text>
</g>
<!-- bconv&#45;&gt;extract_gene_ids -->
<g id="edge20" class="edge"><title>bconv&#45;&gt;extract_gene_ids</title>
<path fill="none" stroke="black" d="M397,-455.212C397,-453.19 397,-451.013 397,-448.804"/>
<polygon fill="black" stroke="black" points="400.5,-448.683 397,-438.683 393.5,-448.683 400.5,-448.683"/>
</g>
<!-- WORKFLOWINTERNALSINK_kegg_descriptions -->
<g id="node27" class="node"><title>WORKFLOWINTERNALSINK_kegg_descriptions</title>
<polygon fill="#bcd2ee" stroke="black" points="444,-37.5 350,-37.5 350,-16.5 444,-16.5 444,-37.5"/>
<text text-anchor="middle" x="397" y="-24.5" font-family="Helvetica,sans-Serif" font-size="10.00">kegg_descriptions</text>
</g>
<!-- remove_Nulls&#45;&gt;WORKFLOWINTERNALSINK_kegg_descriptions -->
<g id="edge48" class="edge"><title>remove_Nulls&#45;&gt;WORKFLOWINTERNALSINK_kegg_descriptions</title>
<path fill="none" stroke="black" d="M397,-75.452C397,-67.8285 397,-57.2768 397,-47.966"/>
<polygon fill="black" stroke="black" points="400.5,-47.8558 397,-37.8559 393.5,-47.8559 400.5,-47.8558"/>
</g>
<!-- extract_gene_ids&#45;&gt;btit -->
<g id="edge12" class="edge"><title>extract_gene_ids&#45;&gt;btit</title>
<path fill="none" stroke="black" d="M397,-417.176C397,-402.436 397,-375.222 397,-352 397,-352 397,-352 397,-238 397,-219.495 397,-198.455 397,-183.212"/>
<polygon fill="black" stroke="black" points="400.5,-182.824 397,-172.824 393.5,-182.824 400.5,-182.824"/>
</g>
<!-- split_by_regex -->
<g id="node16" class="node"><title>split_by_regex</title>
<polygon fill="#d15fee" stroke="black" points="292,-400.5 212,-400.5 212,-379.5 292,-379.5 292,-400.5"/>
<text text-anchor="middle" x="252" y="-387.5" font-family="Helvetica,sans-Serif" font-size="10.00">split_by_regex</text>
</g>
<!-- extract_gene_ids&#45;&gt;split_by_regex -->
<g id="edge38" class="edge"><title>extract_gene_ids&#45;&gt;split_by_regex</title>
<path fill="none" stroke="black" d="M356.609,-417.415C339.64,-412.968 319.73,-407.75 301.86,-403.067"/>
<polygon fill="black" stroke="black" points="302.735,-399.678 292.174,-400.528 300.96,-406.449 302.735,-399.678"/>
</g>
<!-- WORKFLOWINTERNALSINK_KEGGID -->
<g id="node24" class="node"><title>WORKFLOWINTERNALSINK_KEGGID</title>
<polygon fill="#bcd2ee" stroke="black" points="504,-37.5 448,-37.5 448,-16.5 504,-16.5 504,-37.5"/>
<text text-anchor="middle" x="476" y="-24.5" font-family="Helvetica,sans-Serif" font-size="10.00">KEGGID</text>
</g>
<!-- extract_gene_ids&#45;&gt;WORKFLOWINTERNALSINK_KEGGID -->
<g id="edge42" class="edge"><title>extract_gene_ids&#45;&gt;WORKFLOWINTERNALSINK_KEGGID</title>
<path fill="none" stroke="black" d="M416.304,-417.322C436.408,-404.621 465,-381.39 465,-352 465,-352 465,-352 465,-124 465,-97.525 469.096,-67.2428 472.289,-47.6575"/>
<polygon fill="black" stroke="black" points="475.753,-48.1663 473.982,-37.7204 468.852,-46.9902 475.753,-48.1663"/>
</g>
<!-- split_by_regex_2 -->
<g id="node14" class="node"><title>split_by_regex_2</title>
<polygon fill="#d15fee" stroke="black" points="205,-172.5 115,-172.5 115,-151.5 205,-151.5 205,-172.5"/>
<text text-anchor="middle" x="160" y="-159.5" font-family="Helvetica,sans-Serif" font-size="10.00">split_by_regex_2</text>
</g>
<!-- remove_nulls_2&#45;&gt;split_by_regex_2 -->
<g id="edge34" class="edge"><title>remove_nulls_2&#45;&gt;split_by_regex_2</title>
<path fill="none" stroke="black" d="M197.515,-189.415C192.895,-186.038 187.666,-182.218 182.612,-178.524"/>
<polygon fill="black" stroke="black" points="184.546,-175.603 174.407,-172.528 180.416,-181.254 184.546,-175.603"/>
</g>
<!-- WORKFLOWINTERNALSINK_pathway_by_genes -->
<g id="node25" class="node"><title>WORKFLOWINTERNALSINK_pathway_by_genes</title>
<polygon fill="#bcd2ee" stroke="black" points="232,-37.5 132,-37.5 132,-16.5 232,-16.5 232,-37.5"/>
<text text-anchor="middle" x="182" y="-24.5" font-family="Helvetica,sans-Serif" font-size="10.00">pathway_by_genes</text>
</g>
<!-- remove_nulls_2&#45;&gt;WORKFLOWINTERNALSINK_pathway_by_genes -->
<g id="edge44" class="edge"><title>remove_nulls_2&#45;&gt;WORKFLOWINTERNALSINK_pathway_by_genes</title>
<path fill="none" stroke="black" d="M210.624,-189.466C209.295,-179.53 207.171,-164.229 205,-151 199.005,-114.464 190.894,-72.0909 186.079,-47.534"/>
<polygon fill="black" stroke="black" points="189.486,-46.7235 184.118,-37.5897 182.619,-48.078 189.486,-46.7235"/>
</g>
<!-- add_ncbi_to_string -->
<g id="node11" class="node"><title>add_ncbi_to_string</title>
<polygon fill="#deb887" stroke="black" points="446,-514.5 348,-514.5 348,-493.5 446,-493.5 446,-514.5"/>
<text text-anchor="middle" x="397" y="-501.5" font-family="Helvetica,sans-Serif" font-size="10.00">add_ncbi_to_string</text>
</g>
<!-- add_ncbi_to_string&#45;&gt;bconv -->
<g id="edge16" class="edge"><title>add_ncbi_to_string&#45;&gt;bconv</title>
<path fill="none" stroke="black" d="M397,-493.212C397,-491.19 397,-489.013 397,-486.804"/>
<polygon fill="black" stroke="black" points="400.5,-486.683 397,-476.683 393.5,-486.683 400.5,-486.683"/>
</g>
<!-- Get_image_from_URL -->
<g id="node12" class="node"><title>Get_image_from_URL</title>
<polygon fill="#d15fee" stroke="black" points="114,-96.5 4.9738e-14,-96.5 0,-75.5 114,-75.5 114,-96.5"/>
<text text-anchor="middle" x="57" y="-83.5" font-family="Helvetica,sans-Serif" font-size="10.00">Get_image_from_URL</text>
</g>
<!-- WORKFLOWINTERNALSINK_image -->
<g id="node29" class="node"><title>WORKFLOWINTERNALSINK_image</title>
<polygon fill="#bcd2ee" stroke="black" points="88,-37.5 46,-37.5 46,-16.5 88,-16.5 88,-37.5"/>
<text text-anchor="middle" x="67" y="-24.5" font-family="Helvetica,sans-Serif" font-size="10.00">image</text>
</g>
<!-- Get_image_from_URL&#45;&gt;WORKFLOWINTERNALSINK_image -->
<g id="edge52" class="edge"><title>Get_image_from_URL&#45;&gt;WORKFLOWINTERNALSINK_image</title>
<path fill="none" stroke="black" d="M58.7878,-75.452C60.0799,-67.8285 61.8683,-57.2768 63.4464,-47.966"/>
<polygon fill="black" stroke="black" points="66.9396,-48.3002 65.16,-37.8559 60.0381,-47.1303 66.9396,-48.3002"/>
</g>
<!-- color_pathway_by_objects_2 -->
<g id="node13" class="node"><title>color_pathway_by_objects_2</title>
<polygon fill="#a2cd5a" stroke="black" points="185,-134.5 43,-134.5 43,-113.5 185,-113.5 185,-134.5"/>
<text text-anchor="middle" x="114" y="-121.5" font-family="Helvetica,sans-Serif" font-size="10.00">color_pathway_by_objects_2</text>
</g>
<!-- color_pathway_by_objects_2&#45;&gt;Get_image_from_URL -->
<g id="edge26" class="edge"><title>color_pathway_by_objects_2&#45;&gt;Get_image_from_URL</title>
<path fill="none" stroke="black" d="M98.1223,-113.415C92.9341,-109.956 87.0465,-106.031 81.3808,-102.254"/>
<polygon fill="black" stroke="black" points="83.0545,-99.1632 72.7925,-96.5284 79.1716,-104.988 83.0545,-99.1632"/>
</g>
<!-- WORKFLOWINTERNALSINK_URL -->
<g id="node28" class="node"><title>WORKFLOWINTERNALSINK_URL</title>
<polygon fill="#bcd2ee" stroke="black" points="128,-37.5 92,-37.5 92,-16.5 128,-16.5 128,-37.5"/>
<text text-anchor="middle" x="110" y="-24.5" font-family="Helvetica,sans-Serif" font-size="10.00">URL</text>
</g>
<!-- color_pathway_by_objects_2&#45;&gt;WORKFLOWINTERNALSINK_URL -->
<g id="edge50" class="edge"><title>color_pathway_by_objects_2&#45;&gt;WORKFLOWINTERNALSINK_URL</title>
<path fill="none" stroke="black" d="M114.252,-113.48C114.431,-103.554 114.552,-88.2594 114,-75 113.628,-66.0536 112.867,-56.1936 112.108,-47.7494"/>
<polygon fill="black" stroke="black" points="115.58,-47.2819 111.144,-37.6602 108.611,-47.9478 115.58,-47.2819"/>
</g>
<!-- split_by_regex_2&#45;&gt;color_pathway_by_objects_2 -->
<g id="edge28" class="edge"><title>split_by_regex_2&#45;&gt;color_pathway_by_objects_2</title>
<path fill="none" stroke="black" d="M146.941,-151.212C143.121,-148.057 138.848,-144.527 134.678,-141.082"/>
<polygon fill="black" stroke="black" points="136.871,-138.354 126.932,-134.683 132.413,-143.75 136.871,-138.354"/>
</g>
<!-- regex_2 -->
<g id="node15" class="node"><title>regex_2</title>
<polygon fill="#b0c4de" stroke="black" points="166,-210.5 116,-210.5 116,-189.5 166,-189.5 166,-210.5"/>
<text text-anchor="middle" x="141" y="-197.5" font-family="Helvetica,sans-Serif" font-size="10.00">regex_2</text>
</g>
<!-- regex_2&#45;&gt;split_by_regex_2 -->
<g id="edge32" class="edge"><title>regex_2&#45;&gt;split_by_regex_2</title>
<path fill="none" stroke="black" d="M146.394,-189.212C147.567,-186.866 148.844,-184.313 150.129,-181.741"/>
<polygon fill="black" stroke="black" points="153.317,-183.193 154.658,-172.683 147.056,-180.062 153.317,-183.193"/>
</g>
<!-- split_by_regex&#45;&gt;color_pathway_by_objects_2 -->
<g id="edge30" class="edge"><title>split_by_regex&#45;&gt;color_pathway_by_objects_2</title>
<path fill="none" stroke="black" d="M211.888,-385.947C169.28,-379.166 108,-361.208 108,-314 108,-314 108,-314 108,-200 108,-181.437 109.801,-160.403 111.429,-145.177"/>
<polygon fill="black" stroke="black" points="114.957,-145.134 112.608,-134.802 108.001,-144.343 114.957,-145.134"/>
</g>
<!-- get_pathways_by_genes -->
<g id="node18" class="node"><title>get_pathways_by_genes</title>
<polygon fill="#a2cd5a" stroke="black" points="314,-362.5 190,-362.5 190,-341.5 314,-341.5 314,-362.5"/>
<text text-anchor="middle" x="252" y="-349.5" font-family="Helvetica,sans-Serif" font-size="10.00">get_pathways_by_genes</text>
</g>
<!-- split_by_regex&#45;&gt;get_pathways_by_genes -->
<g id="edge40" class="edge"><title>split_by_regex&#45;&gt;get_pathways_by_genes</title>
<path fill="none" stroke="black" d="M252,-379.212C252,-377.19 252,-375.013 252,-372.804"/>
<polygon fill="black" stroke="black" points="255.5,-372.683 252,-362.683 248.5,-372.683 255.5,-372.683"/>
</g>
<!-- regex -->
<g id="node17" class="node"><title>regex</title>
<polygon fill="#b0c4de" stroke="black" points="272,-438.5 232,-438.5 232,-417.5 272,-417.5 272,-438.5"/>
<text text-anchor="middle" x="252" y="-425.5" font-family="Helvetica,sans-Serif" font-size="10.00">regex</text>
</g>
<!-- regex&#45;&gt;split_by_regex -->
<g id="edge36" class="edge"><title>regex&#45;&gt;split_by_regex</title>
<path fill="none" stroke="black" d="M252,-417.212C252,-415.19 252,-413.013 252,-410.804"/>
<polygon fill="black" stroke="black" points="255.5,-410.683 252,-400.683 248.5,-410.683 255.5,-410.683"/>
</g>
<!-- get_pathways_by_genes&#45;&gt;merge_pathways -->
<g id="edge4" class="edge"><title>get_pathways_by_genes&#45;&gt;merge_pathways</title>
<path fill="none" stroke="black" d="M252,-341.212C252,-339.19 252,-337.013 252,-334.804"/>
<polygon fill="black" stroke="black" points="255.5,-334.683 252,-324.683 248.5,-334.683 255.5,-334.683"/>
</g>
<!-- WORKFLOWINTERNALSOURCECONTROL -->
<g id="node20" class="node"><title>WORKFLOWINTERNALSOURCECONTROL</title>
<polygon fill="#ff4040" stroke="black" points="442,-549 435,-538.5 449,-538.5 442,-549"/>
</g>
<!-- WORKFLOWINTERNALSOURCE_Gi_numbers -->
<g id="node21" class="node"><title>WORKFLOWINTERNALSOURCE_Gi_numbers</title>
<polygon fill="skyblue" stroke="black" points="431,-552.5 363,-552.5 363,-531.5 431,-531.5 431,-552.5"/>
<text text-anchor="middle" x="397" y="-539.5" font-family="Helvetica,sans-Serif" font-size="10.00">Gi_numbers</text>
</g>
<!-- WORKFLOWINTERNALSOURCE_Gi_numbers&#45;&gt;add_ncbi_to_string -->
<g id="edge24" class="edge"><title>WORKFLOWINTERNALSOURCE_Gi_numbers&#45;&gt;add_ncbi_to_string</title>
<path fill="none" stroke="black" d="M397,-531.212C397,-529.19 397,-527.013 397,-524.804"/>
<polygon fill="black" stroke="black" points="400.5,-524.683 397,-514.683 393.5,-524.683 400.5,-524.683"/>
</g>
<!-- WORKFLOWINTERNALSINKCONTROL -->
<g id="node23" class="node"><title>WORKFLOWINTERNALSINKCONTROL</title>
<polygon fill="#66cd00" stroke="black" points="515,-20 522,-30.5 508,-30.5 515,-20"/>
</g>
</g>
</svg>
