<?xml version="1.0" encoding="UTF-8" standalone="no"?>
<!DOCTYPE svg PUBLIC "-//W3C//DTD SVG 1.1//EN"
 "http://www.w3.org/Graphics/SVG/1.1/DTD/svg11.dtd">
<!-- Generated by graphviz version 2.26.0 (20091210.2329)
 -->
<!-- Title: t2flow_graph Pages: 1 -->
<svg width="229pt" height="240pt"
 viewBox="0.00 0.00 229.00 240.00" xmlns="http://www.w3.org/2000/svg" xmlns:xlink="http://www.w3.org/1999/xlink">
<g id="graph1" class="graph" transform="scale(1 1) rotate(0) translate(4 236)">
<title>t2flow_graph</title>
<polygon fill="white" stroke="white" points="-4,5 -4,-236 226,-236 226,5 -4,5"/>
<g id="graph2" class="cluster"><title>cluster_sources</title>
<polygon fill="none" stroke="black" stroke-dasharray="1,5" points="83,-143 83,-202 213,-202 213,-143 83,-143"/>
<text text-anchor="middle" x="127" y="-189" font-family="Helvetica,sans-Serif" font-size="10.00">Workflow Inputs</text>
</g>
<g id="graph3" class="cluster"><title>cluster_sinks</title>
<polygon fill="none" stroke="black" stroke-dasharray="1,5" points="29,-8 29,-67 167,-67 167,-8 29,-8"/>
<text text-anchor="middle" x="76.5" y="-54" font-family="Helvetica,sans-Serif" font-size="10.00">Workflow Outputs</text>
</g>
<!-- cgr -->
<g id="node1" class="node"><title>cgr</title>
<polygon fill="#a2cd5a" stroke="black" points="104,-134.5 74,-134.5 74,-113.5 104,-113.5 104,-134.5"/>
<text text-anchor="middle" x="89" y="-121.5" font-family="Helvetica,sans-Serif" font-size="10.00">cgr</text>
</g>
<!-- Get_Image_From_URL -->
<g id="node2" class="node"><title>Get_Image_From_URL</title>
<polygon fill="#d15fee" stroke="black" points="148,-96.5 30,-96.5 30,-75.5 148,-75.5 148,-96.5"/>
<text text-anchor="middle" x="89" y="-83.5" font-family="Helvetica,sans-Serif" font-size="10.00">Get_Image_From_URL</text>
</g>
<!-- cgr&#45;&gt;Get_Image_From_URL -->
<g id="edge8" class="edge"><title>cgr&#45;&gt;Get_Image_From_URL</title>
<path fill="none" stroke="black" d="M89,-113.212C89,-111.19 89,-109.013 89,-106.804"/>
<polygon fill="black" stroke="black" points="92.5001,-106.683 89,-96.6831 85.5001,-106.683 92.5001,-106.683"/>
</g>
<!-- WORKFLOWINTERNALSINK_List_of_CGR_image -->
<g id="node11" class="node"><title>WORKFLOWINTERNALSINK_List_of_CGR_image</title>
<polygon fill="#bcd2ee" stroke="black" points="141,-37.5 37,-37.5 37,-16.5 141,-16.5 141,-37.5"/>
<text text-anchor="middle" x="89" y="-24.5" font-family="Helvetica,sans-Serif" font-size="10.00">List_of_CGR_image</text>
</g>
<!-- Get_Image_From_URL&#45;&gt;WORKFLOWINTERNALSINK_List_of_CGR_image -->
<g id="edge14" class="edge"><title>Get_Image_From_URL&#45;&gt;WORKFLOWINTERNALSINK_List_of_CGR_image</title>
<path fill="none" stroke="black" d="M89,-75.452C89,-67.8285 89,-57.2768 89,-47.966"/>
<polygon fill="black" stroke="black" points="92.5001,-47.8558 89,-37.8559 85.5001,-47.8559 92.5001,-47.8558"/>
</g>
<!-- cgr_params -->
<g id="node3" class="node"><title>cgr_params</title>
<polygon fill="#ab92ea" stroke="black" points="75,-172.5 7,-172.5 7,-151.5 75,-151.5 75,-172.5"/>
<text text-anchor="middle" x="41" y="-159.5" font-family="Helvetica,sans-Serif" font-size="10.00">cgr_params</text>
</g>
<!-- cgr_params&#45;&gt;cgr -->
<g id="edge4" class="edge"><title>cgr_params&#45;&gt;cgr</title>
<path fill="none" stroke="black" d="M54.3707,-151.415C58.5317,-148.121 63.2268,-144.404 67.786,-140.794"/>
<polygon fill="black" stroke="black" points="70.033,-143.48 75.701,-134.528 65.6881,-137.991 70.033,-143.48"/>
</g>
<!-- width -->
<g id="node4" class="node"><title>width</title>
<polygon fill="#b0c4de" stroke="black" points="40,-231.5 1.77636e-14,-231.5 0,-210.5 40,-210.5 40,-231.5"/>
<text text-anchor="middle" x="20" y="-218.5" font-family="Helvetica,sans-Serif" font-size="10.00">width</text>
</g>
<!-- width&#45;&gt;cgr_params -->
<g id="edge10" class="edge"><title>width&#45;&gt;cgr_params</title>
<path fill="none" stroke="black" d="M23.7544,-210.452C26.5268,-202.663 30.3873,-191.817 33.753,-182.361"/>
<polygon fill="black" stroke="black" points="37.0801,-183.451 37.136,-172.856 30.4854,-181.103 37.0801,-183.451"/>
</g>
<!-- level -->
<g id="node5" class="node"><title>level</title>
<polygon fill="#b0c4de" stroke="black" points="80,-231.5 44,-231.5 44,-210.5 80,-210.5 80,-231.5"/>
<text text-anchor="middle" x="62" y="-218.5" font-family="Helvetica,sans-Serif" font-size="10.00">level</text>
</g>
<!-- level&#45;&gt;cgr_params -->
<g id="edge12" class="edge"><title>level&#45;&gt;cgr_params</title>
<path fill="none" stroke="black" d="M58.2456,-210.452C55.4732,-202.663 51.6127,-191.817 48.247,-182.361"/>
<polygon fill="black" stroke="black" points="51.5146,-181.103 44.864,-172.856 44.9199,-183.451 51.5146,-181.103"/>
</g>
<!-- WORKFLOWINTERNALSOURCECONTROL -->
<g id="node7" class="node"><title>WORKFLOWINTERNALSOURCECONTROL</title>
<polygon fill="#ff4040" stroke="black" points="198,-169 191,-158.5 205,-158.5 198,-169"/>
</g>
<!-- WORKFLOWINTERNALSOURCE_List_of_fasta_files -->
<g id="node8" class="node"><title>WORKFLOWINTERNALSOURCE_List_of_fasta_files</title>
<polygon fill="skyblue" stroke="black" points="187,-172.5 91,-172.5 91,-151.5 187,-151.5 187,-172.5"/>
<text text-anchor="middle" x="139" y="-159.5" font-family="Helvetica,sans-Serif" font-size="10.00">List_of_fasta_files</text>
</g>
<!-- WORKFLOWINTERNALSOURCE_List_of_fasta_files&#45;&gt;cgr -->
<g id="edge6" class="edge"><title>WORKFLOWINTERNALSOURCE_List_of_fasta_files&#45;&gt;cgr</title>
<path fill="none" stroke="black" d="M125.072,-151.415C120.738,-148.121 115.847,-144.404 111.098,-140.794"/>
<polygon fill="black" stroke="black" points="112.933,-137.793 102.853,-134.528 108.697,-143.366 112.933,-137.793"/>
</g>
<!-- WORKFLOWINTERNALSINKCONTROL -->
<g id="node10" class="node"><title>WORKFLOWINTERNALSINKCONTROL</title>
<polygon fill="#66cd00" stroke="black" points="152,-20 159,-30.5 145,-30.5 152,-20"/>
</g>
</g>
</svg>
