<?xml version="1.0" encoding="UTF-8" standalone="no"?>
<!DOCTYPE svg PUBLIC "-//W3C//DTD SVG 1.1//EN"
 "http://www.w3.org/Graphics/SVG/1.1/DTD/svg11.dtd">
<!-- Generated by graphviz version 2.26.0 (20091210.2329)
 -->
<!-- Title: t2flow_graph Pages: 1 -->
<svg width="362pt" height="218pt"
 viewBox="0.00 0.00 362.00 218.00" xmlns="http://www.w3.org/2000/svg" xmlns:xlink="http://www.w3.org/1999/xlink">
<g id="graph1" class="graph" transform="scale(1 1) rotate(0) translate(4 214)">
<title>t2flow_graph</title>
<polygon fill="white" stroke="white" points="-4,5 -4,-214 359,-214 359,5 -4,5"/>
<g id="graph2" class="cluster"><title>cluster_sources</title>
<polygon fill="none" stroke="black" stroke-dasharray="1,5" points="10,-143 10,-202 346,-202 346,-143 10,-143"/>
<text text-anchor="middle" x="54" y="-189" font-family="Helvetica,sans-Serif" font-size="10.00">Workflow Inputs</text>
</g>
<g id="graph3" class="cluster"><title>cluster_sinks</title>
<polygon fill="none" stroke="black" stroke-dasharray="1,5" points="8,-8 8,-67 244,-67 244,-8 8,-8"/>
<text text-anchor="middle" x="55.5" y="-54" font-family="Helvetica,sans-Serif" font-size="10.00">Workflow Outputs</text>
</g>
<!-- CreateVotableFromGalfitConfigFiles -->
<g id="node1" class="node"><title>CreateVotableFromGalfitConfigFiles</title>
<polygon fill="#deb887" stroke="black" points="269,-134.5 95,-134.5 95,-113.5 269,-113.5 269,-134.5"/>
<text text-anchor="middle" x="182" y="-121.5" font-family="Helvetica,sans-Serif" font-size="10.00">CreateVotableFromGalfitConfigFiles</text>
</g>
<!-- tjoin -->
<g id="node2" class="node"><title>tjoin</title>
<polygon fill="white" stroke="black" points="96,-96.5 62,-96.5 62,-75.5 96,-75.5 96,-96.5"/>
<text text-anchor="middle" x="79" y="-83.5" font-family="Helvetica,sans-Serif" font-size="10.00">tjoin</text>
</g>
<!-- CreateVotableFromGalfitConfigFiles&#45;&gt;tjoin -->
<g id="edge10" class="edge"><title>CreateVotableFromGalfitConfigFiles&#45;&gt;tjoin</title>
<path fill="none" stroke="black" d="M153.309,-113.415C138.413,-107.919 120.326,-101.246 105.726,-95.8602"/>
<polygon fill="black" stroke="black" points="106.851,-92.5447 96.258,-92.367 104.428,-99.112 106.851,-92.5447"/>
</g>
<!-- WORKFLOWINTERNALSINK_GalfitVotable -->
<g id="node12" class="node"><title>WORKFLOWINTERNALSINK_GalfitVotable</title>
<polygon fill="#bcd2ee" stroke="black" points="218,-37.5 146,-37.5 146,-16.5 218,-16.5 218,-37.5"/>
<text text-anchor="middle" x="182" y="-24.5" font-family="Helvetica,sans-Serif" font-size="10.00">GalfitVotable</text>
</g>
<!-- CreateVotableFromGalfitConfigFiles&#45;&gt;WORKFLOWINTERNALSINK_GalfitVotable -->
<g id="edge16" class="edge"><title>CreateVotableFromGalfitConfigFiles&#45;&gt;WORKFLOWINTERNALSINK_GalfitVotable</title>
<path fill="none" stroke="black" d="M182,-113.249C182,-97.4334 182,-67.6032 182,-47.513"/>
<polygon fill="black" stroke="black" points="185.5,-47.5046 182,-37.5046 178.5,-47.5047 185.5,-47.5046"/>
</g>
<!-- WORKFLOWINTERNALSINK_VotableWithnewColumns -->
<g id="node11" class="node"><title>WORKFLOWINTERNALSINK_VotableWithnewColumns</title>
<polygon fill="#bcd2ee" stroke="black" points="142,-37.5 16,-37.5 16,-16.5 142,-16.5 142,-37.5"/>
<text text-anchor="middle" x="79" y="-24.5" font-family="Helvetica,sans-Serif" font-size="10.00">VotableWithnewColumns</text>
</g>
<!-- tjoin&#45;&gt;WORKFLOWINTERNALSINK_VotableWithnewColumns -->
<g id="edge14" class="edge"><title>tjoin&#45;&gt;WORKFLOWINTERNALSINK_VotableWithnewColumns</title>
<path fill="none" stroke="black" d="M79,-75.452C79,-67.8285 79,-57.2768 79,-47.966"/>
<polygon fill="black" stroke="black" points="82.5001,-47.8558 79,-37.8559 75.5001,-47.8559 82.5001,-47.8558"/>
</g>
<!-- Read_File -->
<g id="node3" class="node"><title>Read_File</title>
<polygon fill="#deb887" stroke="black" points="91,-134.5 31,-134.5 31,-113.5 91,-113.5 91,-134.5"/>
<text text-anchor="middle" x="61" y="-121.5" font-family="Helvetica,sans-Serif" font-size="10.00">Read_File</text>
</g>
<!-- Read_File&#45;&gt;tjoin -->
<g id="edge8" class="edge"><title>Read_File&#45;&gt;tjoin</title>
<path fill="none" stroke="black" d="M66.1099,-113.212C67.2214,-110.866 68.4309,-108.313 69.649,-105.741"/>
<polygon fill="black" stroke="black" points="72.8218,-107.219 73.9396,-96.6831 66.4956,-104.222 72.8218,-107.219"/>
</g>
<!-- WORKFLOWINTERNALSOURCECONTROL -->
<g id="node5" class="node"><title>WORKFLOWINTERNALSOURCECONTROL</title>
<polygon fill="#ff4040" stroke="black" points="331,-169 324,-158.5 338,-158.5 331,-169"/>
</g>
<!-- WORKFLOWINTERNALSOURCE_FileVotablePath -->
<g id="node6" class="node"><title>WORKFLOWINTERNALSOURCE_FileVotablePath</title>
<polygon fill="skyblue" stroke="black" points="104,-172.5 18,-172.5 18,-151.5 104,-151.5 104,-172.5"/>
<text text-anchor="middle" x="61" y="-159.5" font-family="Helvetica,sans-Serif" font-size="10.00">FileVotablePath</text>
</g>
<!-- WORKFLOWINTERNALSOURCE_FileVotablePath&#45;&gt;CreateVotableFromGalfitConfigFiles -->
<g id="edge6" class="edge"><title>WORKFLOWINTERNALSOURCE_FileVotablePath&#45;&gt;CreateVotableFromGalfitConfigFiles</title>
<path fill="none" stroke="black" d="M85.6514,-151.318C92.7897,-148.421 100.643,-145.42 108,-143 114.119,-140.988 120.579,-139.055 127.031,-137.244"/>
<polygon fill="black" stroke="black" points="128.38,-140.505 137.113,-134.505 126.545,-133.749 128.38,-140.505"/>
</g>
<!-- WORKFLOWINTERNALSOURCE_FileVotablePath&#45;&gt;Read_File -->
<g id="edge12" class="edge"><title>WORKFLOWINTERNALSOURCE_FileVotablePath&#45;&gt;Read_File</title>
<path fill="none" stroke="black" d="M61,-151.212C61,-149.19 61,-147.013 61,-144.804"/>
<polygon fill="black" stroke="black" points="64.5001,-144.683 61,-134.683 57.5001,-144.683 64.5001,-144.683"/>
</g>
<!-- WORKFLOWINTERNALSOURCE_Precedence -->
<g id="node7" class="node"><title>WORKFLOWINTERNALSOURCE_Precedence</title>
<polygon fill="skyblue" stroke="black" points="176,-172.5 108,-172.5 108,-151.5 176,-151.5 176,-172.5"/>
<text text-anchor="middle" x="142" y="-159.5" font-family="Helvetica,sans-Serif" font-size="10.00">Precedence</text>
</g>
<!-- WORKFLOWINTERNALSOURCE_ColumnNameWithConfigFile -->
<g id="node8" class="node"><title>WORKFLOWINTERNALSOURCE_ColumnNameWithConfigFile</title>
<polygon fill="skyblue" stroke="black" points="320,-172.5 180,-172.5 180,-151.5 320,-151.5 320,-172.5"/>
<text text-anchor="middle" x="250" y="-159.5" font-family="Helvetica,sans-Serif" font-size="10.00">ColumnNameWithConfigFile</text>
</g>
<!-- WORKFLOWINTERNALSOURCE_ColumnNameWithConfigFile&#45;&gt;CreateVotableFromGalfitConfigFiles -->
<g id="edge4" class="edge"><title>WORKFLOWINTERNALSOURCE_ColumnNameWithConfigFile&#45;&gt;CreateVotableFromGalfitConfigFiles</title>
<path fill="none" stroke="black" d="M231.058,-151.415C224.427,-147.709 216.837,-143.468 209.642,-139.447"/>
<polygon fill="black" stroke="black" points="211.277,-136.351 200.84,-134.528 207.862,-142.462 211.277,-136.351"/>
</g>
<!-- WORKFLOWINTERNALSINKCONTROL -->
<g id="node10" class="node"><title>WORKFLOWINTERNALSINKCONTROL</title>
<polygon fill="#66cd00" stroke="black" points="229,-20 236,-30.5 222,-30.5 229,-20"/>
</g>
</g>
</svg>
