<?xml version="1.0" encoding="UTF-8" standalone="no"?>
<!DOCTYPE svg PUBLIC "-//W3C//DTD SVG 1.1//EN"
 "http://www.w3.org/Graphics/SVG/1.1/DTD/svg11.dtd">
<!-- Generated by graphviz version 2.26.0 (20091210.2329)
 -->
<!-- Title: t2flow_graph Pages: 1 -->
<svg width="526pt" height="518pt"
 viewBox="0.00 0.00 526.00 518.00" xmlns="http://www.w3.org/2000/svg" xmlns:xlink="http://www.w3.org/1999/xlink">
<g id="graph1" class="graph" transform="scale(1 1) rotate(0) translate(4 514)">
<title>t2flow_graph</title>
<polygon fill="white" stroke="white" points="-4,5 -4,-514 523,-514 523,5 -4,5"/>
<g id="graph2" class="cluster"><title>cluster_sources</title>
<polygon fill="none" stroke="black" stroke-dasharray="1,5" points="422,-451 422,-502 510,-502 510,-451 422,-451"/>
<text text-anchor="middle" x="466" y="-489" font-family="Helvetica,sans-Serif" font-size="10.00">Workflow Inputs</text>
</g>
<g id="graph3" class="cluster"><title>cluster_sinks</title>
<polygon fill="none" stroke="black" stroke-dasharray="1,5" points="124,-8 124,-67 300,-67 300,-8 124,-8"/>
<text text-anchor="middle" x="171.5" y="-54" font-family="Helvetica,sans-Serif" font-size="10.00">Workflow Outputs</text>
</g>
<!-- SRTM -->
<g id="node1" class="node"><title>SRTM</title>
<polygon fill="#b0c4de" stroke="black" points="304,-476.5 260,-476.5 260,-455.5 304,-455.5 304,-476.5"/>
<text text-anchor="middle" x="282" y="-463.5" font-family="Helvetica,sans-Serif" font-size="10.00">SRTM</text>
</g>
<!-- ExecuteProcess_r.watershed_DataInputs -->
<g id="node3" class="node"><title>ExecuteProcess_r.watershed_DataInputs</title>
<polygon fill="#ab92ea" stroke="black" points="421,-438.5 223,-438.5 223,-417.5 421,-417.5 421,-438.5"/>
<text text-anchor="middle" x="322" y="-425.5" font-family="Helvetica,sans-Serif" font-size="10.00">ExecuteProcess_r.watershed_DataInputs</text>
</g>
<!-- SRTM&#45;&gt;ExecuteProcess_r.watershed_DataInputs -->
<g id="edge6" class="edge"><title>SRTM&#45;&gt;ExecuteProcess_r.watershed_DataInputs</title>
<path fill="none" stroke="black" d="M293.355,-455.212C296.507,-452.219 300.013,-448.888 303.46,-445.613"/>
<polygon fill="black" stroke="black" points="305.915,-448.108 310.755,-438.683 301.094,-443.033 305.915,-448.108"/>
</g>
<!-- ExecuteProcess_r.watershed -->
<g id="node2" class="node"><title>ExecuteProcess_r.watershed</title>
<polygon fill="#a2cd5a" stroke="black" points="394,-400.5 250,-400.5 250,-379.5 394,-379.5 394,-400.5"/>
<text text-anchor="middle" x="322" y="-387.5" font-family="Helvetica,sans-Serif" font-size="10.00">ExecuteProcess_r.watershed</text>
</g>
<!-- ExecuteProcess_r.watershed_ProcessOutputs -->
<g id="node5" class="node"><title>ExecuteProcess_r.watershed_ProcessOutputs</title>
<polygon fill="#ab92ea" stroke="black" points="432,-362.5 212,-362.5 212,-341.5 432,-341.5 432,-362.5"/>
<text text-anchor="middle" x="322" y="-349.5" font-family="Helvetica,sans-Serif" font-size="10.00">ExecuteProcess_r.watershed_ProcessOutputs</text>
</g>
<!-- ExecuteProcess_r.watershed&#45;&gt;ExecuteProcess_r.watershed_ProcessOutputs -->
<g id="edge10" class="edge"><title>ExecuteProcess_r.watershed&#45;&gt;ExecuteProcess_r.watershed_ProcessOutputs</title>
<path fill="none" stroke="black" d="M322,-379.212C322,-377.19 322,-375.013 322,-372.804"/>
<polygon fill="black" stroke="black" points="325.5,-372.683 322,-362.683 318.5,-372.683 325.5,-372.683"/>
</g>
<!-- ExecuteProcess_r.watershed_DataInputs&#45;&gt;ExecuteProcess_r.watershed -->
<g id="edge4" class="edge"><title>ExecuteProcess_r.watershed_DataInputs&#45;&gt;ExecuteProcess_r.watershed</title>
<path fill="none" stroke="black" d="M322,-417.212C322,-415.19 322,-413.013 322,-410.804"/>
<polygon fill="black" stroke="black" points="325.5,-410.683 322,-400.683 318.5,-410.683 325.5,-410.683"/>
</g>
<!-- threshold_value_100 -->
<g id="node4" class="node"><title>threshold_value_100</title>
<polygon fill="#b0c4de" stroke="black" points="414,-476.5 308,-476.5 308,-455.5 414,-455.5 414,-476.5"/>
<text text-anchor="middle" x="361" y="-463.5" font-family="Helvetica,sans-Serif" font-size="10.00">threshold_value_100</text>
</g>
<!-- threshold_value_100&#45;&gt;ExecuteProcess_r.watershed_DataInputs -->
<g id="edge8" class="edge"><title>threshold_value_100&#45;&gt;ExecuteProcess_r.watershed_DataInputs</title>
<path fill="none" stroke="black" d="M349.928,-455.212C346.939,-452.3 343.622,-449.068 340.349,-445.878"/>
<polygon fill="black" stroke="black" points="342.569,-443.155 332.964,-438.683 337.684,-448.169 342.569,-443.155"/>
</g>
<!-- ExecuteProcess_r.math_DataInputs -->
<g id="node7" class="node"><title>ExecuteProcess_r.math_DataInputs</title>
<polygon fill="#ab92ea" stroke="black" points="259,-324.5 85,-324.5 85,-303.5 259,-303.5 259,-324.5"/>
<text text-anchor="middle" x="172" y="-311.5" font-family="Helvetica,sans-Serif" font-size="10.00">ExecuteProcess_r.math_DataInputs</text>
</g>
<!-- ExecuteProcess_r.watershed_ProcessOutputs&#45;&gt;ExecuteProcess_r.math_DataInputs -->
<g id="edge16" class="edge"><title>ExecuteProcess_r.watershed_ProcessOutputs&#45;&gt;ExecuteProcess_r.math_DataInputs</title>
<path fill="none" stroke="black" d="M280.217,-341.415C262.581,-336.947 241.875,-331.702 223.323,-327.002"/>
<polygon fill="black" stroke="black" points="224.113,-323.591 213.559,-324.528 222.394,-330.377 224.113,-323.591"/>
</g>
<!-- ExecuteProcess_geotiff2png_2_DataInputs -->
<g id="node17" class="node"><title>ExecuteProcess_geotiff2png_2_DataInputs</title>
<polygon fill="#ab92ea" stroke="black" points="431,-210.5 225,-210.5 225,-189.5 431,-189.5 431,-210.5"/>
<text text-anchor="middle" x="328" y="-197.5" font-family="Helvetica,sans-Serif" font-size="10.00">ExecuteProcess_geotiff2png_2_DataInputs</text>
</g>
<!-- ExecuteProcess_r.watershed_ProcessOutputs&#45;&gt;ExecuteProcess_geotiff2png_2_DataInputs -->
<g id="edge34" class="edge"><title>ExecuteProcess_r.watershed_ProcessOutputs&#45;&gt;ExecuteProcess_geotiff2png_2_DataInputs</title>
<path fill="none" stroke="black" d="M322.432,-341.069C323.422,-315.981 325.872,-253.918 327.167,-221.109"/>
<polygon fill="black" stroke="black" points="330.675,-220.963 327.572,-210.832 323.681,-220.687 330.675,-220.963"/>
</g>
<!-- ExecuteProcess_r.math -->
<g id="node6" class="node"><title>ExecuteProcess_r.math</title>
<polygon fill="#a2cd5a" stroke="black" points="226,-286.5 104,-286.5 104,-265.5 226,-265.5 226,-286.5"/>
<text text-anchor="middle" x="165" y="-273.5" font-family="Helvetica,sans-Serif" font-size="10.00">ExecuteProcess_r.math</text>
</g>
<!-- ExecuteProcess_r.math_ProcessOutputs -->
<g id="node9" class="node"><title>ExecuteProcess_r.math_ProcessOutputs</title>
<polygon fill="#ab92ea" stroke="black" points="249,-248.5 53,-248.5 53,-227.5 249,-227.5 249,-248.5"/>
<text text-anchor="middle" x="151" y="-235.5" font-family="Helvetica,sans-Serif" font-size="10.00">ExecuteProcess_r.math_ProcessOutputs</text>
</g>
<!-- ExecuteProcess_r.math&#45;&gt;ExecuteProcess_r.math_ProcessOutputs -->
<g id="edge18" class="edge"><title>ExecuteProcess_r.math&#45;&gt;ExecuteProcess_r.math_ProcessOutputs</title>
<path fill="none" stroke="black" d="M161.026,-265.212C160.221,-263.028 159.35,-260.664 158.469,-258.273"/>
<polygon fill="black" stroke="black" points="161.677,-256.857 154.936,-248.683 155.109,-259.277 161.677,-256.857"/>
</g>
<!-- ExecuteProcess_r.math_DataInputs&#45;&gt;ExecuteProcess_r.math -->
<g id="edge12" class="edge"><title>ExecuteProcess_r.math_DataInputs&#45;&gt;ExecuteProcess_r.math</title>
<path fill="none" stroke="black" d="M170.013,-303.212C169.625,-301.109 169.207,-298.839 168.783,-296.538"/>
<polygon fill="black" stroke="black" points="172.222,-295.884 166.968,-286.683 165.338,-297.152 172.222,-295.884"/>
</g>
<!-- math_gt_10 -->
<g id="node8" class="node"><title>math_gt_10</title>
<polygon fill="#b0c4de" stroke="black" points="206,-362.5 138,-362.5 138,-341.5 206,-341.5 206,-362.5"/>
<text text-anchor="middle" x="172" y="-349.5" font-family="Helvetica,sans-Serif" font-size="10.00">math_gt_10</text>
</g>
<!-- math_gt_10&#45;&gt;ExecuteProcess_r.math_DataInputs -->
<g id="edge14" class="edge"><title>math_gt_10&#45;&gt;ExecuteProcess_r.math_DataInputs</title>
<path fill="none" stroke="black" d="M172,-341.212C172,-339.19 172,-337.013 172,-334.804"/>
<polygon fill="black" stroke="black" points="175.5,-334.683 172,-324.683 168.5,-334.683 175.5,-334.683"/>
</g>
<!-- ExecuteProcess_geotiff2png_DataInputs -->
<g id="node12" class="node"><title>ExecuteProcess_geotiff2png_DataInputs</title>
<polygon fill="#ab92ea" stroke="black" points="220,-210.5 26,-210.5 26,-189.5 220,-189.5 220,-210.5"/>
<text text-anchor="middle" x="123" y="-197.5" font-family="Helvetica,sans-Serif" font-size="10.00">ExecuteProcess_geotiff2png_DataInputs</text>
</g>
<!-- ExecuteProcess_r.math_ProcessOutputs&#45;&gt;ExecuteProcess_geotiff2png_DataInputs -->
<g id="edge24" class="edge"><title>ExecuteProcess_r.math_ProcessOutputs&#45;&gt;ExecuteProcess_geotiff2png_DataInputs</title>
<path fill="none" stroke="black" d="M143.051,-227.212C141.143,-224.623 139.05,-221.782 136.958,-218.943"/>
<polygon fill="black" stroke="black" points="139.621,-216.657 130.872,-210.683 133.986,-220.81 139.621,-216.657"/>
</g>
<!-- Decode_Base_64_to_byte_Array_2 -->
<g id="node10" class="node"><title>Decode_Base_64_to_byte_Array_2</title>
<polygon fill="#d15fee" stroke="black" points="208,-96.5 38,-96.5 38,-75.5 208,-75.5 208,-96.5"/>
<text text-anchor="middle" x="123" y="-83.5" font-family="Helvetica,sans-Serif" font-size="10.00">Decode_Base_64_to_byte_Array_2</text>
</g>
<!-- WORKFLOWINTERNALSINK_outAccumNull -->
<g id="node23" class="node"><title>WORKFLOWINTERNALSINK_outAccumNull</title>
<polygon fill="#bcd2ee" stroke="black" points="210,-37.5 132,-37.5 132,-16.5 210,-16.5 210,-37.5"/>
<text text-anchor="middle" x="171" y="-24.5" font-family="Helvetica,sans-Serif" font-size="10.00">outAccumNull</text>
</g>
<!-- Decode_Base_64_to_byte_Array_2&#45;&gt;WORKFLOWINTERNALSINK_outAccumNull -->
<g id="edge38" class="edge"><title>Decode_Base_64_to_byte_Array_2&#45;&gt;WORKFLOWINTERNALSINK_outAccumNull</title>
<path fill="none" stroke="black" d="M131.581,-75.452C138.255,-67.2485 147.688,-55.6541 155.653,-45.8641"/>
<polygon fill="black" stroke="black" points="158.572,-47.8218 162.168,-37.8559 153.142,-43.4042 158.572,-47.8218"/>
</g>
<!-- ExecuteProcess_geotiff2png -->
<g id="node11" class="node"><title>ExecuteProcess_geotiff2png</title>
<polygon fill="#a2cd5a" stroke="black" points="191,-172.5 49,-172.5 49,-151.5 191,-151.5 191,-172.5"/>
<text text-anchor="middle" x="120" y="-159.5" font-family="Helvetica,sans-Serif" font-size="10.00">ExecuteProcess_geotiff2png</text>
</g>
<!-- ExecuteProcess_geotiff2png_ProcessOutputs -->
<g id="node13" class="node"><title>ExecuteProcess_geotiff2png_ProcessOutputs</title>
<polygon fill="#ab92ea" stroke="black" points="218,-134.5 9.9476e-14,-134.5 0,-113.5 218,-113.5 218,-134.5"/>
<text text-anchor="middle" x="109" y="-121.5" font-family="Helvetica,sans-Serif" font-size="10.00">ExecuteProcess_geotiff2png_ProcessOutputs</text>
</g>
<!-- ExecuteProcess_geotiff2png&#45;&gt;ExecuteProcess_geotiff2png_ProcessOutputs -->
<g id="edge26" class="edge"><title>ExecuteProcess_geotiff2png&#45;&gt;ExecuteProcess_geotiff2png_ProcessOutputs</title>
<path fill="none" stroke="black" d="M116.877,-151.212C116.268,-149.109 115.611,-146.839 114.945,-144.538"/>
<polygon fill="black" stroke="black" points="118.235,-143.315 112.092,-134.683 111.511,-145.262 118.235,-143.315"/>
</g>
<!-- ExecuteProcess_geotiff2png_DataInputs&#45;&gt;ExecuteProcess_geotiff2png -->
<g id="edge22" class="edge"><title>ExecuteProcess_geotiff2png_DataInputs&#45;&gt;ExecuteProcess_geotiff2png</title>
<path fill="none" stroke="black" d="M122.148,-189.212C121.989,-187.19 121.817,-185.013 121.642,-182.804"/>
<polygon fill="black" stroke="black" points="125.12,-182.377 120.843,-172.683 118.141,-182.928 125.12,-182.377"/>
</g>
<!-- ExecuteProcess_geotiff2png_ProcessOutputs&#45;&gt;Decode_Base_64_to_byte_Array_2 -->
<g id="edge20" class="edge"><title>ExecuteProcess_geotiff2png_ProcessOutputs&#45;&gt;Decode_Base_64_to_byte_Array_2</title>
<path fill="none" stroke="black" d="M112.974,-113.212C113.779,-111.028 114.65,-108.664 115.531,-106.273"/>
<polygon fill="black" stroke="black" points="118.891,-107.277 119.064,-96.6831 112.323,-104.857 118.891,-107.277"/>
</g>
<!-- ExecuteProcess_geotiff2png_2 -->
<g id="node14" class="node"><title>ExecuteProcess_geotiff2png_2</title>
<polygon fill="#a2cd5a" stroke="black" points="410,-172.5 258,-172.5 258,-151.5 410,-151.5 410,-172.5"/>
<text text-anchor="middle" x="334" y="-159.5" font-family="Helvetica,sans-Serif" font-size="10.00">ExecuteProcess_geotiff2png_2</text>
</g>
<!-- ExecuteProcess_geotiff2png_2_ProcessOutputs -->
<g id="node15" class="node"><title>ExecuteProcess_geotiff2png_2_ProcessOutputs</title>
<polygon fill="#ab92ea" stroke="black" points="450,-134.5 222,-134.5 222,-113.5 450,-113.5 450,-134.5"/>
<text text-anchor="middle" x="336" y="-121.5" font-family="Helvetica,sans-Serif" font-size="10.00">ExecuteProcess_geotiff2png_2_ProcessOutputs</text>
</g>
<!-- ExecuteProcess_geotiff2png_2&#45;&gt;ExecuteProcess_geotiff2png_2_ProcessOutputs -->
<g id="edge30" class="edge"><title>ExecuteProcess_geotiff2png_2&#45;&gt;ExecuteProcess_geotiff2png_2_ProcessOutputs</title>
<path fill="none" stroke="black" d="M334.568,-151.212C334.674,-149.19 334.789,-147.013 334.905,-144.804"/>
<polygon fill="black" stroke="black" points="338.407,-144.853 335.438,-134.683 331.417,-144.485 338.407,-144.853"/>
</g>
<!-- Decode_Base_64_to_byte_Array -->
<g id="node16" class="node"><title>Decode_Base_64_to_byte_Array</title>
<polygon fill="#d15fee" stroke="black" points="401,-96.5 241,-96.5 241,-75.5 401,-75.5 401,-96.5"/>
<text text-anchor="middle" x="321" y="-83.5" font-family="Helvetica,sans-Serif" font-size="10.00">Decode_Base_64_to_byte_Array</text>
</g>
<!-- ExecuteProcess_geotiff2png_2_ProcessOutputs&#45;&gt;Decode_Base_64_to_byte_Array -->
<g id="edge32" class="edge"><title>ExecuteProcess_geotiff2png_2_ProcessOutputs&#45;&gt;Decode_Base_64_to_byte_Array</title>
<path fill="none" stroke="black" d="M331.742,-113.212C330.847,-110.947 329.877,-108.488 328.897,-106.007"/>
<polygon fill="black" stroke="black" points="332.144,-104.7 325.217,-96.6831 325.633,-107.27 332.144,-104.7"/>
</g>
<!-- WORKFLOWINTERNALSINK_outAccum -->
<g id="node22" class="node"><title>WORKFLOWINTERNALSINK_outAccum</title>
<polygon fill="#bcd2ee" stroke="black" points="274,-37.5 214,-37.5 214,-16.5 274,-16.5 274,-37.5"/>
<text text-anchor="middle" x="244" y="-24.5" font-family="Helvetica,sans-Serif" font-size="10.00">outAccum</text>
</g>
<!-- Decode_Base_64_to_byte_Array&#45;&gt;WORKFLOWINTERNALSINK_outAccum -->
<g id="edge36" class="edge"><title>Decode_Base_64_to_byte_Array&#45;&gt;WORKFLOWINTERNALSINK_outAccum</title>
<path fill="none" stroke="black" d="M292.234,-75.4619C287.266,-73.0455 282.317,-70.222 278,-67 270.125,-61.1225 262.853,-53.1011 257.073,-45.784"/>
<polygon fill="black" stroke="black" points="259.814,-43.6054 251.025,-37.6885 254.206,-47.7947 259.814,-43.6054"/>
</g>
<!-- ExecuteProcess_geotiff2png_2_DataInputs&#45;&gt;ExecuteProcess_geotiff2png_2 -->
<g id="edge28" class="edge"><title>ExecuteProcess_geotiff2png_2_DataInputs&#45;&gt;ExecuteProcess_geotiff2png_2</title>
<path fill="none" stroke="black" d="M329.703,-189.212C330.023,-187.19 330.366,-185.013 330.715,-182.804"/>
<polygon fill="black" stroke="black" points="334.211,-183.107 332.313,-172.683 327.296,-182.015 334.211,-183.107"/>
</g>
<!-- WORKFLOWINTERNALSOURCECONTROL -->
<g id="node19" class="node"><title>WORKFLOWINTERNALSOURCECONTROL</title>
<polygon fill="#ff4040" stroke="black" points="466,-473 459,-462.5 473,-462.5 466,-473"/>
</g>
<!-- WORKFLOWINTERNALSINKCONTROL -->
<g id="node21" class="node"><title>WORKFLOWINTERNALSINKCONTROL</title>
<polygon fill="#66cd00" stroke="black" points="285,-20 292,-30.5 278,-30.5 285,-20"/>
</g>
</g>
</svg>
