<?xml version="1.0" encoding="UTF-8" standalone="no"?>
<!DOCTYPE svg PUBLIC "-//W3C//DTD SVG 1.1//EN"
 "http://www.w3.org/Graphics/SVG/1.1/DTD/svg11.dtd">
<!-- Generated by graphviz version 2.26.0 (20091210.2329)
 -->
<!-- Title: t2flow_graph Pages: 1 -->
<svg width="554pt" height="799pt"
 viewBox="0.00 0.00 554.00 799.00" xmlns="http://www.w3.org/2000/svg" xmlns:xlink="http://www.w3.org/1999/xlink">
<g id="graph1" class="graph" transform="scale(1 1) rotate(0) translate(4 795)">
<title>t2flow_graph</title>
<polygon fill="white" stroke="white" points="-4,5 -4,-795 551,-795 551,5 -4,5"/>
<g id="graph2" class="cluster"><title>cluster_Workflow89Workflow89</title>
<polygon fill="aliceblue" stroke="black" points="92,-485 92,-716 304,-716 304,-485 92,-485"/>
<text text-anchor="middle" x="126" y="-703" font-family="Helvetica,sans-Serif" font-size="10.00">Workflow89</text>
</g>
<g id="graph3" class="cluster"><title>cluster_Workflow89sources</title>
<polygon fill="none" stroke="black" stroke-dasharray="1,5" points="182,-628 182,-687 296,-687 296,-628 182,-628"/>
<text text-anchor="middle" x="226" y="-674" font-family="Helvetica,sans-Serif" font-size="10.00">Workflow Inputs</text>
</g>
<g id="graph4" class="cluster"><title>cluster_Workflow89sinks</title>
<polygon fill="none" stroke="black" stroke-dasharray="1,5" points="131,-493 131,-552 226,-552 226,-493 131,-493"/>
<text text-anchor="middle" x="178.5" y="-539" font-family="Helvetica,sans-Serif" font-size="10.00">Workflow Outputs</text>
</g>
<g id="graph5" class="cluster"><title>cluster_sources</title>
<polygon fill="none" stroke="black" stroke-dasharray="1,5" points="194,-724 194,-783 450,-783 450,-724 194,-724"/>
<text text-anchor="middle" x="238" y="-770" font-family="Helvetica,sans-Serif" font-size="10.00">Workflow Inputs</text>
</g>
<g id="graph6" class="cluster"><title>cluster_sinks</title>
<polygon fill="none" stroke="black" stroke-dasharray="1,5" points="8,-8 8,-67 538,-67 538,-8 8,-8"/>
<text text-anchor="middle" x="55.5" y="-54" font-family="Helvetica,sans-Serif" font-size="10.00">Workflow Outputs</text>
</g>
<!-- Workflow89Concatenate_two_strings -->
<g id="node2" class="node"><title>Workflow89Concatenate_two_strings</title>
<polygon fill="#d15fee" stroke="black" points="296,-619.5 168,-619.5 168,-598.5 296,-598.5 296,-619.5"/>
<text text-anchor="middle" x="232" y="-606.5" font-family="Helvetica,sans-Serif" font-size="10.00">Concatenate_two_strings</text>
</g>
<!-- Workflow89Concatenate_two_strings_2 -->
<g id="node3" class="node"><title>Workflow89Concatenate_two_strings_2</title>
<polygon fill="#d15fee" stroke="black" points="238,-581.5 100,-581.5 100,-560.5 238,-560.5 238,-581.5"/>
<text text-anchor="middle" x="169" y="-568.5" font-family="Helvetica,sans-Serif" font-size="10.00">Concatenate_two_strings_2</text>
</g>
<!-- Workflow89Concatenate_two_strings&#45;&gt;Workflow89Concatenate_two_strings_2 -->
<g id="edge9" class="edge"><title>Workflow89Concatenate_two_strings&#45;&gt;Workflow89Concatenate_two_strings_2</title>
<path fill="none" stroke="black" d="M214.451,-598.415C208.444,-594.791 201.588,-590.656 195.054,-586.715"/>
<polygon fill="black" stroke="black" points="196.826,-583.696 186.455,-581.528 193.21,-589.69 196.826,-583.696"/>
</g>
<!-- Workflow89WORKFLOWINTERNALSINK_string -->
<g id="node11" class="node"><title>Workflow89WORKFLOWINTERNALSINK_string</title>
<polygon fill="#bcd2ee" stroke="black" points="189,-522.5 149,-522.5 149,-501.5 189,-501.5 189,-522.5"/>
<text text-anchor="middle" x="169" y="-509.5" font-family="Helvetica,sans-Serif" font-size="10.00">string</text>
</g>
<!-- Workflow89Concatenate_two_strings_2&#45;&gt;Workflow89WORKFLOWINTERNALSINK_string -->
<g id="edge13" class="edge"><title>Workflow89Concatenate_two_strings_2&#45;&gt;Workflow89WORKFLOWINTERNALSINK_string</title>
<path fill="none" stroke="black" d="M169,-560.452C169,-552.829 169,-542.277 169,-532.966"/>
<polygon fill="black" stroke="black" points="172.5,-532.856 169,-522.856 165.5,-532.856 172.5,-532.856"/>
</g>
<!-- Workflow89string2_value -->
<g id="node4" class="node"><title>Workflow89string2_value</title>
<polygon fill="#b0c4de" stroke="black" points="174,-657.5 100,-657.5 100,-636.5 174,-636.5 174,-657.5"/>
<text text-anchor="middle" x="137" y="-644.5" font-family="Helvetica,sans-Serif" font-size="10.00">string2_value</text>
</g>
<!-- Workflow89string2_value&#45;&gt;Workflow89Concatenate_two_strings -->
<g id="edge7" class="edge"><title>Workflow89string2_value&#45;&gt;Workflow89Concatenate_two_strings</title>
<path fill="none" stroke="black" d="M161.114,-636.324C167.548,-633.548 174.515,-630.606 181,-628 184.945,-626.414 189.079,-624.799 193.214,-623.214"/>
<polygon fill="black" stroke="black" points="194.66,-626.409 202.774,-619.596 192.182,-619.862 194.66,-626.409"/>
</g>
<!-- Workflow89WORKFLOWINTERNALSOURCECONTROL -->
<g id="node6" class="node"><title>Workflow89WORKFLOWINTERNALSOURCECONTROL</title>
<polygon fill="#ff4040" stroke="black" points="281,-654 274,-643.5 288,-643.5 281,-654"/>
</g>
<!-- Workflow89WORKFLOWINTERNALSOURCE_part1 -->
<g id="node7" class="node"><title>Workflow89WORKFLOWINTERNALSOURCE_part1</title>
<polygon fill="skyblue" stroke="black" points="270,-657.5 232,-657.5 232,-636.5 270,-636.5 270,-657.5"/>
<text text-anchor="middle" x="251" y="-644.5" font-family="Helvetica,sans-Serif" font-size="10.00">part1</text>
</g>
<!-- Workflow89WORKFLOWINTERNALSOURCE_part1&#45;&gt;Workflow89Concatenate_two_strings -->
<g id="edge5" class="edge"><title>Workflow89WORKFLOWINTERNALSOURCE_part1&#45;&gt;Workflow89Concatenate_two_strings</title>
<path fill="none" stroke="black" d="M245.606,-636.212C244.433,-633.866 243.156,-631.313 241.871,-628.741"/>
<polygon fill="black" stroke="black" points="244.944,-627.062 237.342,-619.683 238.683,-630.193 244.944,-627.062"/>
</g>
<!-- Workflow89WORKFLOWINTERNALSOURCE_part2 -->
<g id="node8" class="node"><title>Workflow89WORKFLOWINTERNALSOURCE_part2</title>
<polygon fill="skyblue" stroke="black" points="228,-657.5 190,-657.5 190,-636.5 228,-636.5 228,-657.5"/>
<text text-anchor="middle" x="209" y="-644.5" font-family="Helvetica,sans-Serif" font-size="10.00">part2</text>
</g>
<!-- Workflow89WORKFLOWINTERNALSOURCE_part2&#45;&gt;Workflow89Concatenate_two_strings_2 -->
<g id="edge11" class="edge"><title>Workflow89WORKFLOWINTERNALSOURCE_part2&#45;&gt;Workflow89Concatenate_two_strings_2</title>
<path fill="none" stroke="black" d="M197.292,-636.291C193.804,-633.394 189.875,-630.399 186,-628 178.556,-623.392 172.77,-627.341 168,-620 162.668,-611.795 162.328,-601.074 163.572,-591.753"/>
<polygon fill="black" stroke="black" points="167.055,-592.176 165.554,-581.688 160.187,-590.823 167.055,-592.176"/>
</g>
<!-- Workflow89WORKFLOWINTERNALSINKCONTROL -->
<g id="node10" class="node"><title>Workflow89WORKFLOWINTERNALSINKCONTROL</title>
<polygon fill="#66cd00" stroke="black" points="205,-505 212,-515.5 198,-515.5 205,-505"/>
</g>
<!-- get_enzymes_by_gene -->
<g id="node19" class="node"><title>get_enzymes_by_gene</title>
<polygon fill="#a2cd5a" stroke="black" points="295,-476.5 179,-476.5 179,-455.5 295,-455.5 295,-476.5"/>
<text text-anchor="middle" x="237" y="-463.5" font-family="Helvetica,sans-Serif" font-size="10.00">get_enzymes_by_gene</text>
</g>
<!-- Workflow89WORKFLOWINTERNALSINK_string&#45;&gt;get_enzymes_by_gene -->
<g id="edge31" class="edge"><title>Workflow89WORKFLOWINTERNALSINK_string&#45;&gt;get_enzymes_by_gene</title>
<path fill="none" stroke="black" d="M177.999,-501.358C182.927,-495.98 189.37,-489.631 196,-485 197.829,-483.723 199.758,-482.494 201.741,-481.32"/>
<polygon fill="black" stroke="black" points="203.497,-484.35 210.65,-476.535 200.184,-478.184 203.497,-484.35"/>
</g>
<!-- get_pathways_by_genes -->
<g id="node21" class="node"><title>get_pathways_by_genes</title>
<polygon fill="#a2cd5a" stroke="black" points="231,-172.5 107,-172.5 107,-151.5 231,-151.5 231,-172.5"/>
<text text-anchor="middle" x="169" y="-159.5" font-family="Helvetica,sans-Serif" font-size="10.00">get_pathways_by_genes</text>
</g>
<!-- Workflow89WORKFLOWINTERNALSINK_string&#45;&gt;get_pathways_by_genes -->
<g id="edge37" class="edge"><title>Workflow89WORKFLOWINTERNALSINK_string&#45;&gt;get_pathways_by_genes</title>
<path fill="none" stroke="black" d="M169,-501.392C169,-485.457 169,-454.396 169,-428 169,-428 169,-428 169,-238 169,-219.495 169,-198.455 169,-183.212"/>
<polygon fill="black" stroke="black" points="172.5,-182.824 169,-172.824 165.5,-182.824 172.5,-182.824"/>
</g>
<!-- WORKFLOWINTERNALSINK_keggGeneNames -->
<g id="node42" class="node"><title>WORKFLOWINTERNALSINK_keggGeneNames</title>
<polygon fill="#bcd2ee" stroke="black" points="108,-37.5 16,-37.5 16,-16.5 108,-16.5 108,-37.5"/>
<text text-anchor="middle" x="62" y="-24.5" font-family="Helvetica,sans-Serif" font-size="10.00">keggGeneNames</text>
</g>
<!-- Workflow89WORKFLOWINTERNALSINK_string&#45;&gt;WORKFLOWINTERNALSINK_keggGeneNames -->
<g id="edge67" class="edge"><title>Workflow89WORKFLOWINTERNALSINK_string&#45;&gt;WORKFLOWINTERNALSINK_keggGeneNames</title>
<path fill="none" stroke="black" d="M148.719,-508.693C130.368,-504.575 104.122,-495.66 90,-477 76.7248,-459.458 83,-449.999 83,-428 83,-428 83,-428 83,-124 83,-96.959 75.1079,-66.6183 69,-47.1859"/>
<polygon fill="black" stroke="black" points="72.298,-46.0107 65.8517,-37.6027 65.6477,-48.1955 72.298,-46.0107"/>
</g>
<!-- Get_Image_From_URL_2 -->
<g id="node17" class="node"><title>Get_Image_From_URL_2</title>
<polygon fill="#d15fee" stroke="black" points="452,-96.5 324,-96.5 324,-75.5 452,-75.5 452,-96.5"/>
<text text-anchor="middle" x="388" y="-83.5" font-family="Helvetica,sans-Serif" font-size="10.00">Get_Image_From_URL_2</text>
</g>
<!-- WORKFLOWINTERNALSINK_coloured_images -->
<g id="node43" class="node"><title>WORKFLOWINTERNALSINK_coloured_images</title>
<polygon fill="#bcd2ee" stroke="black" points="434,-37.5 344,-37.5 344,-16.5 434,-16.5 434,-37.5"/>
<text text-anchor="middle" x="389" y="-24.5" font-family="Helvetica,sans-Serif" font-size="10.00">coloured_images</text>
</g>
<!-- Get_Image_From_URL_2&#45;&gt;WORKFLOWINTERNALSINK_coloured_images -->
<g id="edge69" class="edge"><title>Get_Image_From_URL_2&#45;&gt;WORKFLOWINTERNALSINK_coloured_images</title>
<path fill="none" stroke="black" d="M388.179,-75.452C388.308,-67.8285 388.487,-57.2768 388.645,-47.966"/>
<polygon fill="black" stroke="black" points="392.146,-47.9138 388.816,-37.8559 385.147,-47.7951 392.146,-47.9138"/>
</g>
<!-- color_pathway_by_objects -->
<g id="node18" class="node"><title>color_pathway_by_objects</title>
<polygon fill="#a2cd5a" stroke="black" points="452,-134.5 320,-134.5 320,-113.5 452,-113.5 452,-134.5"/>
<text text-anchor="middle" x="386" y="-121.5" font-family="Helvetica,sans-Serif" font-size="10.00">color_pathway_by_objects</text>
</g>
<!-- color_pathway_by_objects&#45;&gt;Get_Image_From_URL_2 -->
<g id="edge21" class="edge"><title>color_pathway_by_objects&#45;&gt;Get_Image_From_URL_2</title>
<path fill="none" stroke="black" d="M386.568,-113.212C386.674,-111.19 386.789,-109.013 386.905,-106.804"/>
<polygon fill="black" stroke="black" points="390.407,-106.853 387.438,-96.6831 383.417,-106.485 390.407,-106.853"/>
</g>
<!-- WORKFLOWINTERNALSINK_keggimageurl -->
<g id="node41" class="node"><title>WORKFLOWINTERNALSINK_keggimageurl</title>
<polygon fill="#bcd2ee" stroke="black" points="512,-37.5 438,-37.5 438,-16.5 512,-16.5 512,-37.5"/>
<text text-anchor="middle" x="475" y="-24.5" font-family="Helvetica,sans-Serif" font-size="10.00">keggimageurl</text>
</g>
<!-- color_pathway_by_objects&#45;&gt;WORKFLOWINTERNALSINK_keggimageurl -->
<g id="edge65" class="edge"><title>color_pathway_by_objects&#45;&gt;WORKFLOWINTERNALSINK_keggimageurl</title>
<path fill="none" stroke="black" d="M429.549,-113.432C438.604,-109.523 447.39,-104.209 454,-97 466.352,-83.5306 471.452,-63.0579 473.551,-47.7269"/>
<polygon fill="black" stroke="black" points="477.046,-47.9568 474.609,-37.6459 470.084,-47.2258 477.046,-47.9568"/>
</g>
<!-- Flatten_List -->
<g id="node22" class="node"><title>Flatten_List</title>
<polygon fill="#d15fee" stroke="black" points="273,-438.5 205,-438.5 205,-417.5 273,-417.5 273,-438.5"/>
<text text-anchor="middle" x="239" y="-425.5" font-family="Helvetica,sans-Serif" font-size="10.00">Flatten_List</text>
</g>
<!-- get_enzymes_by_gene&#45;&gt;Flatten_List -->
<g id="edge39" class="edge"><title>get_enzymes_by_gene&#45;&gt;Flatten_List</title>
<path fill="none" stroke="black" d="M237.568,-455.212C237.674,-453.19 237.789,-451.013 237.905,-448.804"/>
<polygon fill="black" stroke="black" points="241.407,-448.853 238.438,-438.683 234.417,-448.485 241.407,-448.853"/>
</g>
<!-- get_genes_by_enzyme -->
<g id="node20" class="node"><title>get_genes_by_enzyme</title>
<polygon fill="#a2cd5a" stroke="black" points="372,-400.5 256,-400.5 256,-379.5 372,-379.5 372,-400.5"/>
<text text-anchor="middle" x="314" y="-387.5" font-family="Helvetica,sans-Serif" font-size="10.00">get_genes_by_enzyme</text>
</g>
<!-- Flatten_List_2 -->
<g id="node23" class="node"><title>Flatten_List_2</title>
<polygon fill="#d15fee" stroke="black" points="353,-362.5 275,-362.5 275,-341.5 353,-341.5 353,-362.5"/>
<text text-anchor="middle" x="314" y="-349.5" font-family="Helvetica,sans-Serif" font-size="10.00">Flatten_List_2</text>
</g>
<!-- get_genes_by_enzyme&#45;&gt;Flatten_List_2 -->
<g id="edge41" class="edge"><title>get_genes_by_enzyme&#45;&gt;Flatten_List_2</title>
<path fill="none" stroke="black" d="M314,-379.212C314,-377.19 314,-375.013 314,-372.804"/>
<polygon fill="black" stroke="black" points="317.5,-372.683 314,-362.683 310.5,-372.683 317.5,-372.683"/>
</g>
<!-- get_pathways_by_genes&#45;&gt;color_pathway_by_objects -->
<g id="edge23" class="edge"><title>get_pathways_by_genes&#45;&gt;color_pathway_by_objects</title>
<path fill="none" stroke="black" d="M229.158,-151.465C255.969,-146.77 287.73,-141.209 315.635,-136.322"/>
<polygon fill="black" stroke="black" points="316.478,-139.728 325.725,-134.555 315.271,-132.833 316.478,-139.728"/>
</g>
<!-- WORKFLOWINTERNALSINK_KeggPathwayIDs -->
<g id="node40" class="node"><title>WORKFLOWINTERNALSINK_KeggPathwayIDs</title>
<polygon fill="#bcd2ee" stroke="black" points="204,-37.5 112,-37.5 112,-16.5 204,-16.5 204,-37.5"/>
<text text-anchor="middle" x="158" y="-24.5" font-family="Helvetica,sans-Serif" font-size="10.00">KeggPathwayIDs</text>
</g>
<!-- get_pathways_by_genes&#45;&gt;WORKFLOWINTERNALSINK_KeggPathwayIDs -->
<g id="edge63" class="edge"><title>get_pathways_by_genes&#45;&gt;WORKFLOWINTERNALSINK_KeggPathwayIDs</title>
<path fill="none" stroke="black" d="M168.137,-151.407C166.322,-129.128 162.08,-77.0746 159.699,-47.8516"/>
<polygon fill="black" stroke="black" points="163.16,-47.2267 158.859,-37.544 156.183,-47.7953 163.16,-47.2267"/>
</g>
<!-- Flatten_List&#45;&gt;get_genes_by_enzyme -->
<g id="edge35" class="edge"><title>Flatten_List&#45;&gt;get_genes_by_enzyme</title>
<path fill="none" stroke="black" d="M259.892,-417.415C267.368,-413.627 275.949,-409.279 284.041,-405.179"/>
<polygon fill="black" stroke="black" points="285.882,-408.17 293.22,-400.528 282.718,-401.926 285.882,-408.17"/>
</g>
<!-- WORKFLOWINTERNALSINK_enzyme_list -->
<g id="node44" class="node"><title>WORKFLOWINTERNALSINK_enzyme_list</title>
<polygon fill="#bcd2ee" stroke="black" points="276,-37.5 208,-37.5 208,-16.5 276,-16.5 276,-37.5"/>
<text text-anchor="middle" x="242" y="-24.5" font-family="Helvetica,sans-Serif" font-size="10.00">enzyme_list</text>
</g>
<!-- Flatten_List&#45;&gt;WORKFLOWINTERNALSINK_enzyme_list -->
<g id="edge71" class="edge"><title>Flatten_List&#45;&gt;WORKFLOWINTERNALSINK_enzyme_list</title>
<path fill="none" stroke="black" d="M239,-417.176C239,-402.436 239,-375.222 239,-352 239,-352 239,-352 239,-124 239,-97.8035 240.107,-67.6464 240.976,-48.0033"/>
<polygon fill="black" stroke="black" points="244.484,-47.9132 241.45,-37.7621 237.491,-47.5895 244.484,-47.9132"/>
</g>
<!-- Remove_String_Duplicates -->
<g id="node24" class="node"><title>Remove_String_Duplicates</title>
<polygon fill="#d15fee" stroke="black" points="382,-324.5 246,-324.5 246,-303.5 382,-303.5 382,-324.5"/>
<text text-anchor="middle" x="314" y="-311.5" font-family="Helvetica,sans-Serif" font-size="10.00">Remove_String_Duplicates</text>
</g>
<!-- Flatten_List_2&#45;&gt;Remove_String_Duplicates -->
<g id="edge43" class="edge"><title>Flatten_List_2&#45;&gt;Remove_String_Duplicates</title>
<path fill="none" stroke="black" d="M314,-341.212C314,-339.19 314,-337.013 314,-334.804"/>
<polygon fill="black" stroke="black" points="317.5,-334.683 314,-324.683 310.5,-334.683 317.5,-334.683"/>
</g>
<!-- Remove_String_Duplicates&#45;&gt;color_pathway_by_objects -->
<g id="edge25" class="edge"><title>Remove_String_Duplicates&#45;&gt;color_pathway_by_objects</title>
<path fill="none" stroke="black" d="M317.943,-303.345C322.965,-288.794 331,-261.796 331,-238 331,-238 331,-238 331,-200 331,-178.001 325.576,-169.155 338,-151 340.929,-146.721 344.771,-143.043 349.008,-139.903"/>
<polygon fill="black" stroke="black" points="350.936,-142.825 357.506,-134.514 347.187,-136.914 350.936,-142.825"/>
</g>
<!-- Beanshell -->
<g id="node25" class="node"><title>Beanshell</title>
<polygon fill="#deb887" stroke="black" points="418,-286.5 360,-286.5 360,-265.5 418,-265.5 418,-286.5"/>
<text text-anchor="middle" x="389" y="-273.5" font-family="Helvetica,sans-Serif" font-size="10.00">Beanshell</text>
</g>
<!-- Remove_String_Duplicates&#45;&gt;Beanshell -->
<g id="edge45" class="edge"><title>Remove_String_Duplicates&#45;&gt;Beanshell</title>
<path fill="none" stroke="black" d="M334.892,-303.415C342.368,-299.627 350.949,-295.279 359.041,-291.179"/>
<polygon fill="black" stroke="black" points="360.882,-294.17 368.22,-286.528 357.718,-287.926 360.882,-294.17"/>
</g>
<!-- WORKFLOWINTERNALSINK_genes_list -->
<g id="node45" class="node"><title>WORKFLOWINTERNALSINK_genes_list</title>
<polygon fill="#bcd2ee" stroke="black" points="340,-37.5 280,-37.5 280,-16.5 340,-16.5 340,-37.5"/>
<text text-anchor="middle" x="310" y="-24.5" font-family="Helvetica,sans-Serif" font-size="10.00">genes_list</text>
</g>
<!-- Remove_String_Duplicates&#45;&gt;WORKFLOWINTERNALSINK_genes_list -->
<g id="edge73" class="edge"><title>Remove_String_Duplicates&#45;&gt;WORKFLOWINTERNALSINK_genes_list</title>
<path fill="none" stroke="black" d="M313.304,-303.182C312.418,-288.447 311,-261.24 311,-238 311,-238 311,-238 311,-124 311,-97.8146 310.631,-67.6551 310.341,-48.0084"/>
<polygon fill="black" stroke="black" points="313.837,-47.7099 310.183,-37.7651 306.838,-47.8179 313.837,-47.7099"/>
</g>
<!-- Flatten_List_3 -->
<g id="node26" class="node"><title>Flatten_List_3</title>
<polygon fill="#d15fee" stroke="black" points="498,-248.5 420,-248.5 420,-227.5 498,-227.5 498,-248.5"/>
<text text-anchor="middle" x="459" y="-235.5" font-family="Helvetica,sans-Serif" font-size="10.00">Flatten_List_3</text>
</g>
<!-- Beanshell&#45;&gt;Flatten_List_3 -->
<g id="edge51" class="edge"><title>Beanshell&#45;&gt;Flatten_List_3</title>
<path fill="none" stroke="black" d="M408.499,-265.415C415.326,-261.709 423.138,-257.468 430.545,-253.447"/>
<polygon fill="black" stroke="black" points="432.487,-256.375 439.606,-248.528 429.147,-250.223 432.487,-256.375"/>
</g>
<!-- Flatten_List_4 -->
<g id="node27" class="node"><title>Flatten_List_4</title>
<polygon fill="#d15fee" stroke="black" points="416,-248.5 338,-248.5 338,-227.5 416,-227.5 416,-248.5"/>
<text text-anchor="middle" x="377" y="-235.5" font-family="Helvetica,sans-Serif" font-size="10.00">Flatten_List_4</text>
</g>
<!-- Beanshell&#45;&gt;Flatten_List_4 -->
<g id="edge53" class="edge"><title>Beanshell&#45;&gt;Flatten_List_4</title>
<path fill="none" stroke="black" d="M385.593,-265.212C384.903,-263.028 384.157,-260.664 383.402,-258.273"/>
<polygon fill="black" stroke="black" points="386.723,-257.165 380.374,-248.683 380.047,-259.273 386.723,-257.165"/>
</g>
<!-- Flatten_List_5 -->
<g id="node28" class="node"><title>Flatten_List_5</title>
<polygon fill="#d15fee" stroke="black" points="498,-210.5 420,-210.5 420,-189.5 498,-189.5 498,-210.5"/>
<text text-anchor="middle" x="459" y="-197.5" font-family="Helvetica,sans-Serif" font-size="10.00">Flatten_List_5</text>
</g>
<!-- Flatten_List_3&#45;&gt;Flatten_List_5 -->
<g id="edge55" class="edge"><title>Flatten_List_3&#45;&gt;Flatten_List_5</title>
<path fill="none" stroke="black" d="M459,-227.212C459,-225.19 459,-223.013 459,-220.804"/>
<polygon fill="black" stroke="black" points="462.5,-220.683 459,-210.683 455.5,-220.683 462.5,-220.683"/>
</g>
<!-- Flatten_List_7 -->
<g id="node30" class="node"><title>Flatten_List_7</title>
<polygon fill="#d15fee" stroke="black" points="416,-210.5 338,-210.5 338,-189.5 416,-189.5 416,-210.5"/>
<text text-anchor="middle" x="377" y="-197.5" font-family="Helvetica,sans-Serif" font-size="10.00">Flatten_List_7</text>
</g>
<!-- Flatten_List_4&#45;&gt;Flatten_List_7 -->
<g id="edge59" class="edge"><title>Flatten_List_4&#45;&gt;Flatten_List_7</title>
<path fill="none" stroke="black" d="M377,-227.212C377,-225.19 377,-223.013 377,-220.804"/>
<polygon fill="black" stroke="black" points="380.5,-220.683 377,-210.683 373.5,-220.683 380.5,-220.683"/>
</g>
<!-- Flatten_List_6 -->
<g id="node29" class="node"><title>Flatten_List_6</title>
<polygon fill="#d15fee" stroke="black" points="498,-172.5 420,-172.5 420,-151.5 498,-151.5 498,-172.5"/>
<text text-anchor="middle" x="459" y="-159.5" font-family="Helvetica,sans-Serif" font-size="10.00">Flatten_List_6</text>
</g>
<!-- Flatten_List_5&#45;&gt;Flatten_List_6 -->
<g id="edge57" class="edge"><title>Flatten_List_5&#45;&gt;Flatten_List_6</title>
<path fill="none" stroke="black" d="M459,-189.212C459,-187.19 459,-185.013 459,-182.804"/>
<polygon fill="black" stroke="black" points="462.5,-182.683 459,-172.683 455.5,-182.683 462.5,-182.683"/>
</g>
<!-- Flatten_List_6&#45;&gt;color_pathway_by_objects -->
<g id="edge27" class="edge"><title>Flatten_List_6&#45;&gt;color_pathway_by_objects</title>
<path fill="none" stroke="black" d="M438.665,-151.415C431.388,-147.627 423.036,-143.279 415.16,-139.179"/>
<polygon fill="black" stroke="black" points="416.712,-136.041 406.226,-134.528 413.48,-142.25 416.712,-136.041"/>
</g>
<!-- Flatten_List_8 -->
<g id="node31" class="node"><title>Flatten_List_8</title>
<polygon fill="#d15fee" stroke="black" points="416,-172.5 338,-172.5 338,-151.5 416,-151.5 416,-172.5"/>
<text text-anchor="middle" x="377" y="-159.5" font-family="Helvetica,sans-Serif" font-size="10.00">Flatten_List_8</text>
</g>
<!-- Flatten_List_7&#45;&gt;Flatten_List_8 -->
<g id="edge61" class="edge"><title>Flatten_List_7&#45;&gt;Flatten_List_8</title>
<path fill="none" stroke="black" d="M377,-189.212C377,-187.19 377,-185.013 377,-182.804"/>
<polygon fill="black" stroke="black" points="380.5,-182.683 377,-172.683 373.5,-182.683 380.5,-182.683"/>
</g>
<!-- Flatten_List_8&#45;&gt;color_pathway_by_objects -->
<g id="edge29" class="edge"><title>Flatten_List_8&#45;&gt;color_pathway_by_objects</title>
<path fill="none" stroke="black" d="M379.555,-151.212C380.053,-149.109 380.591,-146.839 381.136,-144.538"/>
<polygon fill="black" stroke="black" points="384.571,-145.221 383.47,-134.683 377.759,-143.607 384.571,-145.221"/>
</g>
<!-- WORKFLOWINTERNALSOURCECONTROL -->
<g id="node33" class="node"><title>WORKFLOWINTERNALSOURCECONTROL</title>
<polygon fill="#ff4040" stroke="black" points="435,-750 428,-739.5 442,-739.5 435,-750"/>
</g>
<!-- WORKFLOWINTERNALSOURCE_gene_ids -->
<g id="node34" class="node"><title>WORKFLOWINTERNALSOURCE_gene_ids</title>
<polygon fill="skyblue" stroke="black" points="258,-753.5 202,-753.5 202,-732.5 258,-732.5 258,-753.5"/>
<text text-anchor="middle" x="230" y="-740.5" font-family="Helvetica,sans-Serif" font-size="10.00">gene_ids</text>
</g>
<!-- WORKFLOWINTERNALSOURCE_gene_ids&#45;&gt;Workflow89WORKFLOWINTERNALSOURCE_part2 -->
<g id="edge19" class="edge"><title>WORKFLOWINTERNALSOURCE_gene_ids&#45;&gt;Workflow89WORKFLOWINTERNALSOURCE_part2</title>
<path fill="none" stroke="black" d="M227.672,-732.36C224.266,-716.79 217.858,-687.495 213.51,-667.616"/>
<polygon fill="black" stroke="black" points="216.894,-666.709 211.338,-657.688 210.056,-668.205 216.894,-666.709"/>
</g>
<!-- WORKFLOWINTERNALSOURCE_Species -->
<g id="node35" class="node"><title>WORKFLOWINTERNALSOURCE_Species</title>
<polygon fill="skyblue" stroke="black" points="314,-753.5 262,-753.5 262,-732.5 314,-732.5 314,-753.5"/>
<text text-anchor="middle" x="288" y="-740.5" font-family="Helvetica,sans-Serif" font-size="10.00">Species</text>
</g>
<!-- WORKFLOWINTERNALSOURCE_Species&#45;&gt;Workflow89WORKFLOWINTERNALSOURCE_part1 -->
<g id="edge17" class="edge"><title>WORKFLOWINTERNALSOURCE_Species&#45;&gt;Workflow89WORKFLOWINTERNALSOURCE_part1</title>
<path fill="none" stroke="black" d="M282.02,-732.411C279.377,-727.505 276.344,-721.544 274,-716 267.326,-700.216 261.264,-681.774 257.041,-667.93"/>
<polygon fill="black" stroke="black" points="260.278,-666.537 254.072,-657.95 253.569,-668.533 260.278,-666.537"/>
</g>
<!-- WORKFLOWINTERNALSOURCE_Species&#45;&gt;get_genes_by_enzyme -->
<g id="edge33" class="edge"><title>WORKFLOWINTERNALSOURCE_Species&#45;&gt;get_genes_by_enzyme</title>
<path fill="none" stroke="black" d="M291.978,-732.339C293.704,-727.418 295.638,-721.466 297,-716 308.66,-669.207 315,-657.224 315,-609 315,-609 315,-609 315,-466 315,-447.493 314.7,-426.454 314.428,-411.211"/>
<polygon fill="black" stroke="black" points="317.921,-410.755 314.232,-400.823 310.922,-410.887 317.921,-410.755"/>
</g>
<!-- WORKFLOWINTERNALSOURCE_bg_color -->
<g id="node36" class="node"><title>WORKFLOWINTERNALSOURCE_bg_color</title>
<polygon fill="skyblue" stroke="black" points="370,-753.5 318,-753.5 318,-732.5 370,-732.5 370,-753.5"/>
<text text-anchor="middle" x="344" y="-740.5" font-family="Helvetica,sans-Serif" font-size="10.00">bg_color</text>
</g>
<!-- WORKFLOWINTERNALSOURCE_bg_color&#45;&gt;Beanshell -->
<g id="edge47" class="edge"><title>WORKFLOWINTERNALSOURCE_bg_color&#45;&gt;Beanshell</title>
<path fill="none" stroke="black" d="M350.257,-732.294C362.622,-710.095 389,-657.1 389,-609 389,-609 389,-609 389,-352 389,-333.495 389,-312.455 389,-297.212"/>
<polygon fill="black" stroke="black" points="392.5,-296.824 389,-286.824 385.5,-296.824 392.5,-296.824"/>
</g>
<!-- WORKFLOWINTERNALSOURCE_fg_color -->
<g id="node37" class="node"><title>WORKFLOWINTERNALSOURCE_fg_color</title>
<polygon fill="skyblue" stroke="black" points="424,-753.5 374,-753.5 374,-732.5 424,-732.5 424,-753.5"/>
<text text-anchor="middle" x="399" y="-740.5" font-family="Helvetica,sans-Serif" font-size="10.00">fg_color</text>
</g>
<!-- WORKFLOWINTERNALSOURCE_fg_color&#45;&gt;Beanshell -->
<g id="edge49" class="edge"><title>WORKFLOWINTERNALSOURCE_fg_color&#45;&gt;Beanshell</title>
<path fill="none" stroke="black" d="M399,-732.231C399,-709.477 399,-654.83 399,-609 399,-609 399,-609 399,-352 399,-333.152 395.939,-311.898 393.205,-296.669"/>
<polygon fill="black" stroke="black" points="396.628,-295.934 391.319,-286.765 389.751,-297.243 396.628,-295.934"/>
</g>
<!-- WORKFLOWINTERNALSINKCONTROL -->
<g id="node39" class="node"><title>WORKFLOWINTERNALSINKCONTROL</title>
<polygon fill="#66cd00" stroke="black" points="523,-20 530,-30.5 516,-30.5 523,-20"/>
</g>
</g>
</svg>
