<?xml version="1.0" encoding="UTF-8" standalone="no"?>
<!DOCTYPE svg PUBLIC "-//W3C//DTD SVG 1.1//EN"
 "http://www.w3.org/Graphics/SVG/1.1/DTD/svg11.dtd">
<!-- Generated by graphviz version 2.26.0 (20091210.2329)
 -->
<!-- Title: t2flow_graph Pages: 1 -->
<svg width="446pt" height="366pt"
 viewBox="0.00 0.00 446.00 366.00" xmlns="http://www.w3.org/2000/svg" xmlns:xlink="http://www.w3.org/1999/xlink">
<g id="graph1" class="graph" transform="scale(1 1) rotate(0) translate(4 362)">
<title>t2flow_graph</title>
<polygon fill="white" stroke="white" points="-4,5 -4,-362 443,-362 443,5 -4,5"/>
<g id="graph2" class="cluster"><title>cluster_sources</title>
<polygon fill="none" stroke="black" stroke-dasharray="1,5" points="342,-299 342,-350 430,-350 430,-299 342,-299"/>
<text text-anchor="middle" x="386" y="-337" font-family="Helvetica,sans-Serif" font-size="10.00">Workflow Inputs</text>
</g>
<g id="graph3" class="cluster"><title>cluster_sinks</title>
<polygon fill="none" stroke="black" stroke-dasharray="1,5" points="139,-8 139,-67 295,-67 295,-8 139,-8"/>
<text text-anchor="middle" x="186.5" y="-54" font-family="Helvetica,sans-Serif" font-size="10.00">Workflow Outputs</text>
</g>
<!-- ExecuteProcess_gdalinfo -->
<g id="node1" class="node"><title>ExecuteProcess_gdalinfo</title>
<polygon fill="#a2cd5a" stroke="black" points="166,-248.5 38,-248.5 38,-227.5 166,-227.5 166,-248.5"/>
<text text-anchor="middle" x="102" y="-235.5" font-family="Helvetica,sans-Serif" font-size="10.00">ExecuteProcess_gdalinfo</text>
</g>
<!-- ExecuteProcess_gdalinfo_ProcessOutputs -->
<g id="node8" class="node"><title>ExecuteProcess_gdalinfo_ProcessOutputs</title>
<polygon fill="#ab92ea" stroke="black" points="202,-96.5 7.10543e-14,-96.5 0,-75.5 202,-75.5 202,-96.5"/>
<text text-anchor="middle" x="101" y="-83.5" font-family="Helvetica,sans-Serif" font-size="10.00">ExecuteProcess_gdalinfo_ProcessOutputs</text>
</g>
<!-- ExecuteProcess_gdalinfo&#45;&gt;ExecuteProcess_gdalinfo_ProcessOutputs -->
<g id="edge16" class="edge"><title>ExecuteProcess_gdalinfo&#45;&gt;ExecuteProcess_gdalinfo_ProcessOutputs</title>
<path fill="none" stroke="black" d="M101.928,-227.069C101.763,-201.981 101.355,-139.918 101.139,-107.109"/>
<polygon fill="black" stroke="black" points="104.637,-106.809 101.071,-96.8324 97.6372,-106.855 104.637,-106.809"/>
</g>
<!-- ExecuteProcess_gdalinfo_DataInputs -->
<g id="node2" class="node"><title>ExecuteProcess_gdalinfo_DataInputs</title>
<polygon fill="#ab92ea" stroke="black" points="195,-286.5 15,-286.5 15,-265.5 195,-265.5 195,-286.5"/>
<text text-anchor="middle" x="105" y="-273.5" font-family="Helvetica,sans-Serif" font-size="10.00">ExecuteProcess_gdalinfo_DataInputs</text>
</g>
<!-- ExecuteProcess_gdalinfo_DataInputs&#45;&gt;ExecuteProcess_gdalinfo -->
<g id="edge4" class="edge"><title>ExecuteProcess_gdalinfo_DataInputs&#45;&gt;ExecuteProcess_gdalinfo</title>
<path fill="none" stroke="black" d="M104.148,-265.212C103.989,-263.19 103.817,-261.013 103.642,-258.804"/>
<polygon fill="black" stroke="black" points="107.12,-258.377 102.843,-248.683 100.141,-258.928 107.12,-258.377"/>
</g>
<!-- ExecuteProcess_reprojectImage -->
<g id="node3" class="node"><title>ExecuteProcess_reprojectImage</title>
<polygon fill="#a2cd5a" stroke="black" points="391,-248.5 233,-248.5 233,-227.5 391,-227.5 391,-248.5"/>
<text text-anchor="middle" x="312" y="-235.5" font-family="Helvetica,sans-Serif" font-size="10.00">ExecuteProcess_reprojectImage</text>
</g>
<!-- ExecuteProcess_reprojectImage_ProcessOutputs -->
<g id="node7" class="node"><title>ExecuteProcess_reprojectImage_ProcessOutputs</title>
<polygon fill="#ab92ea" stroke="black" points="429,-210.5 195,-210.5 195,-189.5 429,-189.5 429,-210.5"/>
<text text-anchor="middle" x="312" y="-197.5" font-family="Helvetica,sans-Serif" font-size="10.00">ExecuteProcess_reprojectImage_ProcessOutputs</text>
</g>
<!-- ExecuteProcess_reprojectImage&#45;&gt;ExecuteProcess_reprojectImage_ProcessOutputs -->
<g id="edge14" class="edge"><title>ExecuteProcess_reprojectImage&#45;&gt;ExecuteProcess_reprojectImage_ProcessOutputs</title>
<path fill="none" stroke="black" d="M312,-227.212C312,-225.19 312,-223.013 312,-220.804"/>
<polygon fill="black" stroke="black" points="315.5,-220.683 312,-210.683 308.5,-220.683 315.5,-220.683"/>
</g>
<!-- ExecuteProcess_reprojectImage_DataInputs -->
<g id="node4" class="node"><title>ExecuteProcess_reprojectImage_DataInputs</title>
<polygon fill="#ab92ea" stroke="black" points="417,-286.5 205,-286.5 205,-265.5 417,-265.5 417,-286.5"/>
<text text-anchor="middle" x="311" y="-273.5" font-family="Helvetica,sans-Serif" font-size="10.00">ExecuteProcess_reprojectImage_DataInputs</text>
</g>
<!-- ExecuteProcess_reprojectImage_DataInputs&#45;&gt;ExecuteProcess_reprojectImage -->
<g id="edge8" class="edge"><title>ExecuteProcess_reprojectImage_DataInputs&#45;&gt;ExecuteProcess_reprojectImage</title>
<path fill="none" stroke="black" d="M311.284,-265.212C311.337,-263.19 311.394,-261.013 311.453,-258.804"/>
<polygon fill="black" stroke="black" points="314.954,-258.772 311.719,-248.683 307.957,-258.588 314.954,-258.772"/>
</g>
<!-- srtm_EPSG32119 -->
<g id="node5" class="node"><title>srtm_EPSG32119</title>
<polygon fill="#b0c4de" stroke="black" points="215,-324.5 121,-324.5 121,-303.5 215,-303.5 215,-324.5"/>
<text text-anchor="middle" x="168" y="-311.5" font-family="Helvetica,sans-Serif" font-size="10.00">srtm_EPSG32119</text>
</g>
<!-- srtm_EPSG32119&#45;&gt;ExecuteProcess_gdalinfo_DataInputs -->
<g id="edge6" class="edge"><title>srtm_EPSG32119&#45;&gt;ExecuteProcess_gdalinfo_DataInputs</title>
<path fill="none" stroke="black" d="M150.451,-303.415C144.444,-299.791 137.588,-295.656 131.054,-291.715"/>
<polygon fill="black" stroke="black" points="132.826,-288.696 122.455,-286.528 129.21,-294.69 132.826,-288.696"/>
</g>
<!-- srtm_EPSG32119&#45;&gt;ExecuteProcess_reprojectImage_DataInputs -->
<g id="edge10" class="edge"><title>srtm_EPSG32119&#45;&gt;ExecuteProcess_reprojectImage_DataInputs</title>
<path fill="none" stroke="black" d="M207.833,-303.415C224.413,-299.009 243.84,-293.847 261.337,-289.197"/>
<polygon fill="black" stroke="black" points="262.614,-292.479 271.38,-286.528 260.817,-285.714 262.614,-292.479"/>
</g>
<!-- to4326 -->
<g id="node6" class="node"><title>to4326</title>
<polygon fill="#b0c4de" stroke="black" points="334,-324.5 288,-324.5 288,-303.5 334,-303.5 334,-324.5"/>
<text text-anchor="middle" x="311" y="-311.5" font-family="Helvetica,sans-Serif" font-size="10.00">to4326</text>
</g>
<!-- to4326&#45;&gt;ExecuteProcess_reprojectImage_DataInputs -->
<g id="edge12" class="edge"><title>to4326&#45;&gt;ExecuteProcess_reprojectImage_DataInputs</title>
<path fill="none" stroke="black" d="M311,-303.212C311,-301.19 311,-299.013 311,-296.804"/>
<polygon fill="black" stroke="black" points="314.5,-296.683 311,-286.683 307.5,-296.683 314.5,-296.683"/>
</g>
<!-- ExecuteProcess_gdalinfo_2_DataInputs -->
<g id="node10" class="node"><title>ExecuteProcess_gdalinfo_2_DataInputs</title>
<polygon fill="#ab92ea" stroke="black" points="407,-172.5 217,-172.5 217,-151.5 407,-151.5 407,-172.5"/>
<text text-anchor="middle" x="312" y="-159.5" font-family="Helvetica,sans-Serif" font-size="10.00">ExecuteProcess_gdalinfo_2_DataInputs</text>
</g>
<!-- ExecuteProcess_reprojectImage_ProcessOutputs&#45;&gt;ExecuteProcess_gdalinfo_2_DataInputs -->
<g id="edge20" class="edge"><title>ExecuteProcess_reprojectImage_ProcessOutputs&#45;&gt;ExecuteProcess_gdalinfo_2_DataInputs</title>
<path fill="none" stroke="black" d="M312,-189.212C312,-187.19 312,-185.013 312,-182.804"/>
<polygon fill="black" stroke="black" points="315.5,-182.683 312,-172.683 308.5,-182.683 315.5,-182.683"/>
</g>
<!-- WORKFLOWINTERNALSINK_noProject -->
<g id="node16" class="node"><title>WORKFLOWINTERNALSINK_noProject</title>
<polygon fill="#bcd2ee" stroke="black" points="205,-37.5 147,-37.5 147,-16.5 205,-16.5 205,-37.5"/>
<text text-anchor="middle" x="176" y="-24.5" font-family="Helvetica,sans-Serif" font-size="10.00">noProject</text>
</g>
<!-- ExecuteProcess_gdalinfo_ProcessOutputs&#45;&gt;WORKFLOWINTERNALSINK_noProject -->
<g id="edge24" class="edge"><title>ExecuteProcess_gdalinfo_ProcessOutputs&#45;&gt;WORKFLOWINTERNALSINK_noProject</title>
<path fill="none" stroke="black" d="M114.408,-75.452C125.538,-66.6969 141.577,-54.0797 154.497,-43.9155"/>
<polygon fill="black" stroke="black" points="156.759,-46.5894 162.455,-37.6556 152.431,-41.0877 156.759,-46.5894"/>
</g>
<!-- ExecuteProcess_gdalinfo_2 -->
<g id="node9" class="node"><title>ExecuteProcess_gdalinfo_2</title>
<polygon fill="#a2cd5a" stroke="black" points="381,-134.5 243,-134.5 243,-113.5 381,-113.5 381,-134.5"/>
<text text-anchor="middle" x="312" y="-121.5" font-family="Helvetica,sans-Serif" font-size="10.00">ExecuteProcess_gdalinfo_2</text>
</g>
<!-- ExecuteProcess_gdalinfo_2_ProcessOutputs -->
<g id="node11" class="node"><title>ExecuteProcess_gdalinfo_2_ProcessOutputs</title>
<polygon fill="#ab92ea" stroke="black" points="420,-96.5 206,-96.5 206,-75.5 420,-75.5 420,-96.5"/>
<text text-anchor="middle" x="313" y="-83.5" font-family="Helvetica,sans-Serif" font-size="10.00">ExecuteProcess_gdalinfo_2_ProcessOutputs</text>
</g>
<!-- ExecuteProcess_gdalinfo_2&#45;&gt;ExecuteProcess_gdalinfo_2_ProcessOutputs -->
<g id="edge22" class="edge"><title>ExecuteProcess_gdalinfo_2&#45;&gt;ExecuteProcess_gdalinfo_2_ProcessOutputs</title>
<path fill="none" stroke="black" d="M312.284,-113.212C312.337,-111.19 312.394,-109.013 312.453,-106.804"/>
<polygon fill="black" stroke="black" points="315.954,-106.772 312.719,-96.6831 308.957,-106.588 315.954,-106.772"/>
</g>
<!-- ExecuteProcess_gdalinfo_2_DataInputs&#45;&gt;ExecuteProcess_gdalinfo_2 -->
<g id="edge18" class="edge"><title>ExecuteProcess_gdalinfo_2_DataInputs&#45;&gt;ExecuteProcess_gdalinfo_2</title>
<path fill="none" stroke="black" d="M312,-151.212C312,-149.19 312,-147.013 312,-144.804"/>
<polygon fill="black" stroke="black" points="315.5,-144.683 312,-134.683 308.5,-144.683 315.5,-144.683"/>
</g>
<!-- WORKFLOWINTERNALSINK_didProject -->
<g id="node17" class="node"><title>WORKFLOWINTERNALSINK_didProject</title>
<polygon fill="#bcd2ee" stroke="black" points="269,-37.5 209,-37.5 209,-16.5 269,-16.5 269,-37.5"/>
<text text-anchor="middle" x="239" y="-24.5" font-family="Helvetica,sans-Serif" font-size="10.00">didProject</text>
</g>
<!-- ExecuteProcess_gdalinfo_2_ProcessOutputs&#45;&gt;WORKFLOWINTERNALSINK_didProject -->
<g id="edge26" class="edge"><title>ExecuteProcess_gdalinfo_2_ProcessOutputs&#45;&gt;WORKFLOWINTERNALSINK_didProject</title>
<path fill="none" stroke="black" d="M286.676,-75.4612C281.912,-73.0172 277.146,-70.1841 273,-67 265.207,-61.0152 257.947,-52.9769 252.154,-45.6762"/>
<polygon fill="black" stroke="black" points="254.894,-43.496 246.083,-37.6118 249.301,-47.7061 254.894,-43.496"/>
</g>
<!-- WORKFLOWINTERNALSOURCECONTROL -->
<g id="node13" class="node"><title>WORKFLOWINTERNALSOURCECONTROL</title>
<polygon fill="#ff4040" stroke="black" points="386,-321 379,-310.5 393,-310.5 386,-321"/>
</g>
<!-- WORKFLOWINTERNALSINKCONTROL -->
<g id="node15" class="node"><title>WORKFLOWINTERNALSINKCONTROL</title>
<polygon fill="#66cd00" stroke="black" points="280,-20 287,-30.5 273,-30.5 280,-20"/>
</g>
</g>
</svg>
