<?xml version="1.0" encoding="UTF-8" standalone="no"?>
<!DOCTYPE svg PUBLIC "-//W3C//DTD SVG 1.1//EN"
 "http://www.w3.org/Graphics/SVG/1.1/DTD/svg11.dtd">
<!-- Generated by graphviz version 2.26.0 (20091210.2329)
 -->
<!-- Title: t2flow_graph Pages: 1 -->
<svg width="303pt" height="332pt"
 viewBox="0.00 0.00 303.00 332.00" xmlns="http://www.w3.org/2000/svg" xmlns:xlink="http://www.w3.org/1999/xlink">
<g id="graph1" class="graph" transform="scale(1 1) rotate(0) translate(4 328)">
<title>t2flow_graph</title>
<polygon fill="white" stroke="white" points="-4,5 -4,-328 300,-328 300,5 -4,5"/>
<g id="graph2" class="cluster"><title>cluster_sources</title>
<polygon fill="none" stroke="black" stroke-dasharray="1,5" points="70,-257 70,-316 180,-316 180,-257 70,-257"/>
<text text-anchor="middle" x="114" y="-303" font-family="Helvetica,sans-Serif" font-size="10.00">Workflow Inputs</text>
</g>
<g id="graph3" class="cluster"><title>cluster_sinks</title>
<polygon fill="none" stroke="black" stroke-dasharray="1,5" points="23,-8 23,-67 287,-67 287,-8 23,-8"/>
<text text-anchor="middle" x="70.5" y="-54" font-family="Helvetica,sans-Serif" font-size="10.00">Workflow Outputs</text>
</g>
<!-- XPath_From_Text -->
<g id="node1" class="node"><title>XPath_From_Text</title>
<polygon fill="#d15fee" stroke="black" points="96,-210.5 3.55271e-14,-210.5 0,-189.5 96,-189.5 96,-210.5"/>
<text text-anchor="middle" x="48" y="-197.5" font-family="Helvetica,sans-Serif" font-size="10.00">XPath_From_Text</text>
</g>
<!-- Flatten_List -->
<g id="node6" class="node"><title>Flatten_List</title>
<polygon fill="#d15fee" stroke="black" points="82,-172.5 14,-172.5 14,-151.5 82,-151.5 82,-172.5"/>
<text text-anchor="middle" x="48" y="-159.5" font-family="Helvetica,sans-Serif" font-size="10.00">Flatten_List</text>
</g>
<!-- XPath_From_Text&#45;&gt;Flatten_List -->
<g id="edge14" class="edge"><title>XPath_From_Text&#45;&gt;Flatten_List</title>
<path fill="none" stroke="black" d="M48,-189.212C48,-187.19 48,-185.013 48,-182.804"/>
<polygon fill="black" stroke="black" points="51.5001,-182.683 48,-172.683 44.5001,-182.683 51.5001,-182.683"/>
</g>
<!-- SesameXML -->
<g id="node2" class="node"><title>SesameXML</title>
<polygon fill="#a2cd5a" stroke="black" points="152,-248.5 80,-248.5 80,-227.5 152,-227.5 152,-248.5"/>
<text text-anchor="middle" x="116" y="-235.5" font-family="Helvetica,sans-Serif" font-size="10.00">SesameXML</text>
</g>
<!-- SesameXML&#45;&gt;XPath_From_Text -->
<g id="edge4" class="edge"><title>SesameXML&#45;&gt;XPath_From_Text</title>
<path fill="none" stroke="black" d="M97.0582,-227.415C90.4266,-223.709 82.8373,-219.468 75.6419,-215.447"/>
<polygon fill="black" stroke="black" points="77.277,-212.351 66.8402,-210.528 73.8623,-218.462 77.277,-212.351"/>
</g>
<!-- XPath_From_Text_2 -->
<g id="node4" class="node"><title>XPath_From_Text_2</title>
<polygon fill="#d15fee" stroke="black" points="259,-210.5 153,-210.5 153,-189.5 259,-189.5 259,-210.5"/>
<text text-anchor="middle" x="206" y="-197.5" font-family="Helvetica,sans-Serif" font-size="10.00">XPath_From_Text_2</text>
</g>
<!-- SesameXML&#45;&gt;XPath_From_Text_2 -->
<g id="edge12" class="edge"><title>SesameXML&#45;&gt;XPath_From_Text_2</title>
<path fill="none" stroke="black" d="M141.07,-227.415C150.53,-223.421 161.462,-218.805 171.627,-214.513"/>
<polygon fill="black" stroke="black" points="173.213,-217.643 181.064,-210.528 170.491,-211.194 173.213,-217.643"/>
</g>
<!-- WORKFLOWINTERNALSINK_sesame -->
<g id="node17" class="node"><title>WORKFLOWINTERNALSINK_sesame</title>
<polygon fill="#bcd2ee" stroke="black" points="109,-37.5 59,-37.5 59,-16.5 109,-16.5 109,-37.5"/>
<text text-anchor="middle" x="84" y="-24.5" font-family="Helvetica,sans-Serif" font-size="10.00">sesame</text>
</g>
<!-- SesameXML&#45;&gt;WORKFLOWINTERNALSINK_sesame -->
<g id="edge28" class="edge"><title>SesameXML&#45;&gt;WORKFLOWINTERNALSINK_sesame</title>
<path fill="none" stroke="black" d="M113.681,-227.235C110.727,-212.561 106,-185.422 106,-162 106,-162 106,-162 106,-124 106,-96.9001 97.7321,-66.5727 91.3333,-47.1594"/>
<polygon fill="black" stroke="black" points="94.6019,-45.9014 88.0351,-37.587 87.9837,-48.1817 94.6019,-45.9014"/>
</g>
<!-- xpath_for_RA -->
<g id="node3" class="node"><title>xpath_for_RA</title>
<polygon fill="#b0c4de" stroke="black" points="76,-248.5 4.26326e-14,-248.5 0,-227.5 76,-227.5 76,-248.5"/>
<text text-anchor="middle" x="38" y="-235.5" font-family="Helvetica,sans-Serif" font-size="10.00">xpath_for_RA</text>
</g>
<!-- xpath_for_RA&#45;&gt;XPath_From_Text -->
<g id="edge6" class="edge"><title>xpath_for_RA&#45;&gt;XPath_From_Text</title>
<path fill="none" stroke="black" d="M40.8389,-227.212C41.3925,-225.109 41.9898,-222.839 42.5952,-220.538"/>
<polygon fill="black" stroke="black" points="46.0284,-221.245 45.1887,-210.683 39.2589,-219.463 46.0284,-221.245"/>
</g>
<!-- Flatten_List_2 -->
<g id="node7" class="node"><title>Flatten_List_2</title>
<polygon fill="#d15fee" stroke="black" points="253,-172.5 175,-172.5 175,-151.5 253,-151.5 253,-172.5"/>
<text text-anchor="middle" x="214" y="-159.5" font-family="Helvetica,sans-Serif" font-size="10.00">Flatten_List_2</text>
</g>
<!-- XPath_From_Text_2&#45;&gt;Flatten_List_2 -->
<g id="edge16" class="edge"><title>XPath_From_Text_2&#45;&gt;Flatten_List_2</title>
<path fill="none" stroke="black" d="M208.271,-189.212C208.714,-187.109 209.192,-184.839 209.676,-182.538"/>
<polygon fill="black" stroke="black" points="213.116,-183.19 211.751,-172.683 206.266,-181.748 213.116,-183.19"/>
</g>
<!-- xpath_for_DEC -->
<g id="node5" class="node"><title>xpath_for_DEC</title>
<polygon fill="#b0c4de" stroke="black" points="248,-248.5 164,-248.5 164,-227.5 248,-227.5 248,-248.5"/>
<text text-anchor="middle" x="206" y="-235.5" font-family="Helvetica,sans-Serif" font-size="10.00">xpath_for_DEC</text>
</g>
<!-- xpath_for_DEC&#45;&gt;XPath_From_Text_2 -->
<g id="edge10" class="edge"><title>xpath_for_DEC&#45;&gt;XPath_From_Text_2</title>
<path fill="none" stroke="black" d="M206,-227.212C206,-225.19 206,-223.013 206,-220.804"/>
<polygon fill="black" stroke="black" points="209.5,-220.683 206,-210.683 202.5,-220.683 209.5,-220.683"/>
</g>
<!-- VII_237 -->
<g id="node8" class="node"><title>VII_237</title>
<polygon fill="#7aafff" stroke="black" points="168,-134.5 118,-134.5 118,-113.5 168,-113.5 168,-134.5"/>
<text text-anchor="middle" x="143" y="-121.5" font-family="Helvetica,sans-Serif" font-size="10.00">VII_237</text>
</g>
<!-- Flatten_List&#45;&gt;VII_237 -->
<g id="edge18" class="edge"><title>Flatten_List&#45;&gt;VII_237</title>
<path fill="none" stroke="black" d="M74.4628,-151.415C84.9937,-147.203 97.2533,-142.299 108.468,-137.813"/>
<polygon fill="black" stroke="black" points="110.001,-140.969 117.986,-134.006 107.401,-134.47 110.001,-140.969"/>
</g>
<!-- WORKFLOWINTERNALSINK_ra -->
<g id="node18" class="node"><title>WORKFLOWINTERNALSINK_ra</title>
<polygon fill="#bcd2ee" stroke="black" points="55,-37.5 31,-37.5 31,-16.5 55,-16.5 55,-37.5"/>
<text text-anchor="middle" x="43" y="-24.5" font-family="Helvetica,sans-Serif" font-size="10.00">ra</text>
</g>
<!-- Flatten_List&#45;&gt;WORKFLOWINTERNALSINK_ra -->
<g id="edge30" class="edge"><title>Flatten_List&#45;&gt;WORKFLOWINTERNALSINK_ra</title>
<path fill="none" stroke="black" d="M47.6077,-151.407C46.7825,-129.128 44.8546,-77.0746 43.7723,-47.8516"/>
<polygon fill="black" stroke="black" points="47.2583,-47.4076 43.3905,-37.544 40.2631,-47.6667 47.2583,-47.4076"/>
</g>
<!-- Flatten_List_2&#45;&gt;VII_237 -->
<g id="edge20" class="edge"><title>Flatten_List_2&#45;&gt;VII_237</title>
<path fill="none" stroke="black" d="M194.223,-151.415C187.221,-147.668 179.198,-143.374 171.611,-139.313"/>
<polygon fill="black" stroke="black" points="173.14,-136.161 162.671,-134.528 169.836,-142.333 173.14,-136.161"/>
</g>
<!-- WORKFLOWINTERNALSINK_dec -->
<g id="node19" class="node"><title>WORKFLOWINTERNALSINK_dec</title>
<polygon fill="#bcd2ee" stroke="black" points="261,-37.5 229,-37.5 229,-16.5 261,-16.5 261,-37.5"/>
<text text-anchor="middle" x="245" y="-24.5" font-family="Helvetica,sans-Serif" font-size="10.00">dec</text>
</g>
<!-- Flatten_List_2&#45;&gt;WORKFLOWINTERNALSINK_dec -->
<g id="edge32" class="edge"><title>Flatten_List_2&#45;&gt;WORKFLOWINTERNALSINK_dec</title>
<path fill="none" stroke="black" d="M226.424,-151.372C230.882,-146.818 235.438,-141.134 238,-135 249.895,-106.523 249.408,-70.1293 247.531,-47.7003"/>
<polygon fill="black" stroke="black" points="251.001,-47.2308 246.513,-37.6335 244.037,-47.9348 251.001,-47.2308"/>
</g>
<!-- Select_columns -->
<g id="node11" class="node"><title>Select_columns</title>
<polygon fill="white" stroke="black" points="238,-96.5 152,-96.5 152,-75.5 238,-75.5 238,-96.5"/>
<text text-anchor="middle" x="195" y="-83.5" font-family="Helvetica,sans-Serif" font-size="10.00">Select_columns</text>
</g>
<!-- VII_237&#45;&gt;Select_columns -->
<g id="edge26" class="edge"><title>VII_237&#45;&gt;Select_columns</title>
<path fill="none" stroke="black" d="M157.485,-113.415C162.105,-110.038 167.334,-106.218 172.388,-102.524"/>
<polygon fill="black" stroke="black" points="174.584,-105.254 180.593,-96.5284 170.454,-99.6027 174.584,-105.254"/>
</g>
<!-- WORKFLOWINTERNALSINK_leda_output -->
<g id="node20" class="node"><title>WORKFLOWINTERNALSINK_leda_output</title>
<polygon fill="#bcd2ee" stroke="black" points="179,-37.5 113,-37.5 113,-16.5 179,-16.5 179,-37.5"/>
<text text-anchor="middle" x="146" y="-24.5" font-family="Helvetica,sans-Serif" font-size="10.00">leda_output</text>
</g>
<!-- VII_237&#45;&gt;WORKFLOWINTERNALSINK_leda_output -->
<g id="edge34" class="edge"><title>VII_237&#45;&gt;WORKFLOWINTERNALSINK_leda_output</title>
<path fill="none" stroke="black" d="M143.333,-113.249C143.822,-97.4334 144.744,-67.6032 145.366,-47.513"/>
<polygon fill="black" stroke="black" points="148.864,-47.6081 145.675,-37.5046 141.868,-47.3916 148.864,-47.6081"/>
</g>
<!-- SR_value -->
<g id="node9" class="node"><title>SR_value</title>
<polygon fill="#b0c4de" stroke="black" points="171,-172.5 113,-172.5 113,-151.5 171,-151.5 171,-172.5"/>
<text text-anchor="middle" x="142" y="-159.5" font-family="Helvetica,sans-Serif" font-size="10.00">SR_value</text>
</g>
<!-- SR_value&#45;&gt;VII_237 -->
<g id="edge22" class="edge"><title>SR_value&#45;&gt;VII_237</title>
<path fill="none" stroke="black" d="M142.284,-151.212C142.337,-149.19 142.394,-147.013 142.453,-144.804"/>
<polygon fill="black" stroke="black" points="145.954,-144.772 142.719,-134.683 138.957,-144.588 145.954,-144.772"/>
</g>
<!-- filter_value -->
<g id="node10" class="node"><title>filter_value</title>
<polygon fill="#b0c4de" stroke="black" points="236,-134.5 172,-134.5 172,-113.5 236,-113.5 236,-134.5"/>
<text text-anchor="middle" x="204" y="-121.5" font-family="Helvetica,sans-Serif" font-size="10.00">filter_value</text>
</g>
<!-- filter_value&#45;&gt;Select_columns -->
<g id="edge24" class="edge"><title>filter_value&#45;&gt;Select_columns</title>
<path fill="none" stroke="black" d="M201.445,-113.212C200.947,-111.109 200.409,-108.839 199.864,-106.538"/>
<polygon fill="black" stroke="black" points="203.241,-105.607 197.53,-96.6831 196.429,-107.221 203.241,-105.607"/>
</g>
<!-- WORKFLOWINTERNALSINK_logr25 -->
<g id="node21" class="node"><title>WORKFLOWINTERNALSINK_logr25</title>
<polygon fill="#bcd2ee" stroke="black" points="225,-37.5 183,-37.5 183,-16.5 225,-16.5 225,-37.5"/>
<text text-anchor="middle" x="204" y="-24.5" font-family="Helvetica,sans-Serif" font-size="10.00">logr25</text>
</g>
<!-- Select_columns&#45;&gt;WORKFLOWINTERNALSINK_logr25 -->
<g id="edge36" class="edge"><title>Select_columns&#45;&gt;WORKFLOWINTERNALSINK_logr25</title>
<path fill="none" stroke="black" d="M196.609,-75.452C197.772,-67.8285 199.382,-57.2768 200.802,-47.966"/>
<polygon fill="black" stroke="black" points="204.296,-48.2693 202.344,-37.8559 197.376,-47.2137 204.296,-48.2693"/>
</g>
<!-- WORKFLOWINTERNALSOURCECONTROL -->
<g id="node13" class="node"><title>WORKFLOWINTERNALSOURCECONTROL</title>
<polygon fill="#ff4040" stroke="black" points="165,-283 158,-272.5 172,-272.5 165,-283"/>
</g>
<!-- WORKFLOWINTERNALSOURCE_list_cig_name -->
<g id="node14" class="node"><title>WORKFLOWINTERNALSOURCE_list_cig_name</title>
<polygon fill="skyblue" stroke="black" points="154,-286.5 78,-286.5 78,-265.5 154,-265.5 154,-286.5"/>
<text text-anchor="middle" x="116" y="-273.5" font-family="Helvetica,sans-Serif" font-size="10.00">list_cig_name</text>
</g>
<!-- WORKFLOWINTERNALSOURCE_list_cig_name&#45;&gt;SesameXML -->
<g id="edge8" class="edge"><title>WORKFLOWINTERNALSOURCE_list_cig_name&#45;&gt;SesameXML</title>
<path fill="none" stroke="black" d="M116,-265.212C116,-263.19 116,-261.013 116,-258.804"/>
<polygon fill="black" stroke="black" points="119.5,-258.683 116,-248.683 112.5,-258.683 119.5,-258.683"/>
</g>
<!-- WORKFLOWINTERNALSINKCONTROL -->
<g id="node16" class="node"><title>WORKFLOWINTERNALSINKCONTROL</title>
<polygon fill="#66cd00" stroke="black" points="272,-20 279,-30.5 265,-30.5 272,-20"/>
</g>
</g>
</svg>
