<?xml version="1.0" encoding="UTF-8" standalone="no"?>
<!DOCTYPE svg PUBLIC "-//W3C//DTD SVG 1.1//EN"
 "http://www.w3.org/Graphics/SVG/1.1/DTD/svg11.dtd">
<!-- Generated by graphviz version 2.26.0 (20091210.2329)
 -->
<!-- Title: t2flow_graph Pages: 1 -->
<svg width="285pt" height="294pt"
 viewBox="0.00 0.00 285.00 294.00" xmlns="http://www.w3.org/2000/svg" xmlns:xlink="http://www.w3.org/1999/xlink">
<g id="graph1" class="graph" transform="scale(1 1) rotate(0) translate(4 290)">
<title>t2flow_graph</title>
<polygon fill="white" stroke="white" points="-4,5 -4,-290 282,-290 282,5 -4,5"/>
<g id="graph2" class="cluster"><title>cluster_sources</title>
<polygon fill="none" stroke="black" stroke-dasharray="1,5" points="68,-219 68,-278 178,-278 178,-219 68,-219"/>
<text text-anchor="middle" x="112" y="-265" font-family="Helvetica,sans-Serif" font-size="10.00">Workflow Inputs</text>
</g>
<g id="graph3" class="cluster"><title>cluster_sinks</title>
<polygon fill="none" stroke="black" stroke-dasharray="1,5" points="13,-8 13,-67 269,-67 269,-8 13,-8"/>
<text text-anchor="middle" x="60.5" y="-54" font-family="Helvetica,sans-Serif" font-size="10.00">Workflow Outputs</text>
</g>
<!-- SesameXML -->
<g id="node1" class="node"><title>SesameXML</title>
<polygon fill="#a2cd5a" stroke="black" points="150,-210.5 78,-210.5 78,-189.5 150,-189.5 150,-210.5"/>
<text text-anchor="middle" x="114" y="-197.5" font-family="Helvetica,sans-Serif" font-size="10.00">SesameXML</text>
</g>
<!-- XPath_From_Text -->
<g id="node2" class="node"><title>XPath_From_Text</title>
<polygon fill="#d15fee" stroke="black" points="96,-172.5 3.55271e-14,-172.5 0,-151.5 96,-151.5 96,-172.5"/>
<text text-anchor="middle" x="48" y="-159.5" font-family="Helvetica,sans-Serif" font-size="10.00">XPath_From_Text</text>
</g>
<!-- SesameXML&#45;&gt;XPath_From_Text -->
<g id="edge6" class="edge"><title>SesameXML&#45;&gt;XPath_From_Text</title>
<path fill="none" stroke="black" d="M95.6153,-189.415C89.3218,-185.791 82.1396,-181.656 75.2951,-177.715"/>
<polygon fill="black" stroke="black" points="76.6987,-174.485 66.2861,-172.528 73.2059,-180.551 76.6987,-174.485"/>
</g>
<!-- XPath_From_Text_2 -->
<g id="node4" class="node"><title>XPath_From_Text_2</title>
<polygon fill="#d15fee" stroke="black" points="253,-172.5 147,-172.5 147,-151.5 253,-151.5 253,-172.5"/>
<text text-anchor="middle" x="200" y="-159.5" font-family="Helvetica,sans-Serif" font-size="10.00">XPath_From_Text_2</text>
</g>
<!-- SesameXML&#45;&gt;XPath_From_Text_2 -->
<g id="edge10" class="edge"><title>SesameXML&#45;&gt;XPath_From_Text_2</title>
<path fill="none" stroke="black" d="M137.956,-189.415C146.902,-185.462 157.226,-180.9 166.854,-176.646"/>
<polygon fill="black" stroke="black" points="168.44,-179.771 176.173,-172.528 165.611,-173.369 168.44,-179.771"/>
</g>
<!-- WORKFLOWINTERNALSINK_sesame_return -->
<g id="node15" class="node"><title>WORKFLOWINTERNALSINK_sesame_return</title>
<polygon fill="#bcd2ee" stroke="black" points="143,-37.5 63,-37.5 63,-16.5 143,-16.5 143,-37.5"/>
<text text-anchor="middle" x="103" y="-24.5" font-family="Helvetica,sans-Serif" font-size="10.00">sesame_return</text>
</g>
<!-- SesameXML&#45;&gt;WORKFLOWINTERNALSINK_sesame_return -->
<g id="edge24" class="edge"><title>SesameXML&#45;&gt;WORKFLOWINTERNALSINK_sesame_return</title>
<path fill="none" stroke="black" d="M113.328,-189.438C111.553,-161.515 106.709,-85.3363 104.34,-48.0808"/>
<polygon fill="black" stroke="black" points="107.818,-47.6226 103.691,-37.8649 100.833,-48.0669 107.818,-47.6226"/>
</g>
<!-- Flatten_List -->
<g id="node6" class="node"><title>Flatten_List</title>
<polygon fill="#d15fee" stroke="black" points="82,-134.5 14,-134.5 14,-113.5 82,-113.5 82,-134.5"/>
<text text-anchor="middle" x="48" y="-121.5" font-family="Helvetica,sans-Serif" font-size="10.00">Flatten_List</text>
</g>
<!-- XPath_From_Text&#45;&gt;Flatten_List -->
<g id="edge14" class="edge"><title>XPath_From_Text&#45;&gt;Flatten_List</title>
<path fill="none" stroke="black" d="M48,-151.212C48,-149.19 48,-147.013 48,-144.804"/>
<polygon fill="black" stroke="black" points="51.5001,-144.683 48,-134.683 44.5001,-144.683 51.5001,-144.683"/>
</g>
<!-- xpath_DEC -->
<g id="node3" class="node"><title>xpath_DEC</title>
<polygon fill="#b0c4de" stroke="black" points="74,-210.5 6,-210.5 6,-189.5 74,-189.5 74,-210.5"/>
<text text-anchor="middle" x="40" y="-197.5" font-family="Helvetica,sans-Serif" font-size="10.00">xpath_DEC</text>
</g>
<!-- xpath_DEC&#45;&gt;XPath_From_Text -->
<g id="edge8" class="edge"><title>xpath_DEC&#45;&gt;XPath_From_Text</title>
<path fill="none" stroke="black" d="M42.2711,-189.212C42.714,-187.109 43.1919,-184.839 43.6762,-182.538"/>
<polygon fill="black" stroke="black" points="47.1157,-183.19 45.7509,-172.683 40.2658,-181.748 47.1157,-183.19"/>
</g>
<!-- Flatten_List_2 -->
<g id="node7" class="node"><title>Flatten_List_2</title>
<polygon fill="#d15fee" stroke="black" points="256,-134.5 178,-134.5 178,-113.5 256,-113.5 256,-134.5"/>
<text text-anchor="middle" x="217" y="-121.5" font-family="Helvetica,sans-Serif" font-size="10.00">Flatten_List_2</text>
</g>
<!-- XPath_From_Text_2&#45;&gt;Flatten_List_2 -->
<g id="edge16" class="edge"><title>XPath_From_Text_2&#45;&gt;Flatten_List_2</title>
<path fill="none" stroke="black" d="M204.826,-151.212C205.84,-148.947 206.939,-146.488 208.05,-144.007"/>
<polygon fill="black" stroke="black" points="211.332,-145.241 212.221,-134.683 204.942,-142.382 211.332,-145.241"/>
</g>
<!-- xpath_RA -->
<g id="node5" class="node"><title>xpath_RA</title>
<polygon fill="#b0c4de" stroke="black" points="230,-210.5 170,-210.5 170,-189.5 230,-189.5 230,-210.5"/>
<text text-anchor="middle" x="200" y="-197.5" font-family="Helvetica,sans-Serif" font-size="10.00">xpath_RA</text>
</g>
<!-- xpath_RA&#45;&gt;XPath_From_Text_2 -->
<g id="edge12" class="edge"><title>xpath_RA&#45;&gt;XPath_From_Text_2</title>
<path fill="none" stroke="black" d="M200,-189.212C200,-187.19 200,-185.013 200,-182.804"/>
<polygon fill="black" stroke="black" points="203.5,-182.683 200,-172.683 196.5,-182.683 203.5,-182.683"/>
</g>
<!-- VII_237 -->
<g id="node8" class="node"><title>VII_237</title>
<polygon fill="#7aafff" stroke="black" points="189,-96.5 139,-96.5 139,-75.5 189,-75.5 189,-96.5"/>
<text text-anchor="middle" x="164" y="-83.5" font-family="Helvetica,sans-Serif" font-size="10.00">VII_237</text>
</g>
<!-- Flatten_List&#45;&gt;VII_237 -->
<g id="edge18" class="edge"><title>Flatten_List&#45;&gt;VII_237</title>
<path fill="none" stroke="black" d="M80.3125,-113.415C95.4903,-108.443 113.609,-102.507 129.1,-97.4327"/>
<polygon fill="black" stroke="black" points="130.43,-100.68 138.843,-94.241 128.25,-94.0281 130.43,-100.68"/>
</g>
<!-- WORKFLOWINTERNALSINK_DEC -->
<g id="node17" class="node"><title>WORKFLOWINTERNALSINK_DEC</title>
<polygon fill="#bcd2ee" stroke="black" points="59,-37.5 21,-37.5 21,-16.5 59,-16.5 59,-37.5"/>
<text text-anchor="middle" x="40" y="-24.5" font-family="Helvetica,sans-Serif" font-size="10.00">DEC</text>
</g>
<!-- Flatten_List&#45;&gt;WORKFLOWINTERNALSINK_DEC -->
<g id="edge28" class="edge"><title>Flatten_List&#45;&gt;WORKFLOWINTERNALSINK_DEC</title>
<path fill="none" stroke="black" d="M47.1133,-113.249C45.8089,-97.4334 43.3487,-67.6032 41.6918,-47.513"/>
<polygon fill="black" stroke="black" points="45.1766,-47.1831 40.8664,-37.5046 38.2002,-47.7585 45.1766,-47.1831"/>
</g>
<!-- Flatten_List_2&#45;&gt;VII_237 -->
<g id="edge20" class="edge"><title>Flatten_List_2&#45;&gt;VII_237</title>
<path fill="none" stroke="black" d="M202.237,-113.415C197.527,-110.038 192.198,-106.218 187.046,-102.524"/>
<polygon fill="black" stroke="black" points="188.851,-99.5108 178.684,-96.5284 184.772,-105.2 188.851,-99.5108"/>
</g>
<!-- WORKFLOWINTERNALSINK_RA -->
<g id="node16" class="node"><title>WORKFLOWINTERNALSINK_RA</title>
<polygon fill="#bcd2ee" stroke="black" points="243,-37.5 213,-37.5 213,-16.5 243,-16.5 243,-37.5"/>
<text text-anchor="middle" x="228" y="-24.5" font-family="Helvetica,sans-Serif" font-size="10.00">RA</text>
</g>
<!-- Flatten_List_2&#45;&gt;WORKFLOWINTERNALSINK_RA -->
<g id="edge26" class="edge"><title>Flatten_List_2&#45;&gt;WORKFLOWINTERNALSINK_RA</title>
<path fill="none" stroke="black" d="M218.219,-113.249C220.013,-97.4334 223.396,-67.6032 225.674,-47.513"/>
<polygon fill="black" stroke="black" points="229.16,-47.8353 226.809,-37.5046 222.204,-47.0465 229.16,-47.8353"/>
</g>
<!-- WORKFLOWINTERNALSINK_VO_output -->
<g id="node18" class="node"><title>WORKFLOWINTERNALSINK_VO_output</title>
<polygon fill="#bcd2ee" stroke="black" points="209,-37.5 147,-37.5 147,-16.5 209,-16.5 209,-37.5"/>
<text text-anchor="middle" x="178" y="-24.5" font-family="Helvetica,sans-Serif" font-size="10.00">VO_output</text>
</g>
<!-- VII_237&#45;&gt;WORKFLOWINTERNALSINK_VO_output -->
<g id="edge30" class="edge"><title>VII_237&#45;&gt;WORKFLOWINTERNALSINK_VO_output</title>
<path fill="none" stroke="black" d="M166.503,-75.452C168.332,-67.7457 170.87,-57.047 173.097,-47.6629"/>
<polygon fill="black" stroke="black" points="176.521,-48.3938 175.424,-37.8559 169.71,-46.7776 176.521,-48.3938"/>
</g>
<!-- SR_value -->
<g id="node9" class="node"><title>SR_value</title>
<polygon fill="#b0c4de" stroke="black" points="174,-134.5 116,-134.5 116,-113.5 174,-113.5 174,-134.5"/>
<text text-anchor="middle" x="145" y="-121.5" font-family="Helvetica,sans-Serif" font-size="10.00">SR_value</text>
</g>
<!-- SR_value&#45;&gt;VII_237 -->
<g id="edge22" class="edge"><title>SR_value&#45;&gt;VII_237</title>
<path fill="none" stroke="black" d="M150.394,-113.212C151.567,-110.866 152.844,-108.313 154.129,-105.741"/>
<polygon fill="black" stroke="black" points="157.317,-107.193 158.658,-96.6831 151.056,-104.062 157.317,-107.193"/>
</g>
<!-- WORKFLOWINTERNALSOURCECONTROL -->
<g id="node11" class="node"><title>WORKFLOWINTERNALSOURCECONTROL</title>
<polygon fill="#ff4040" stroke="black" points="163,-245 156,-234.5 170,-234.5 163,-245"/>
</g>
<!-- WORKFLOWINTERNALSOURCE_list_cig_name -->
<g id="node12" class="node"><title>WORKFLOWINTERNALSOURCE_list_cig_name</title>
<polygon fill="skyblue" stroke="black" points="152,-248.5 76,-248.5 76,-227.5 152,-227.5 152,-248.5"/>
<text text-anchor="middle" x="114" y="-235.5" font-family="Helvetica,sans-Serif" font-size="10.00">list_cig_name</text>
</g>
<!-- WORKFLOWINTERNALSOURCE_list_cig_name&#45;&gt;SesameXML -->
<g id="edge4" class="edge"><title>WORKFLOWINTERNALSOURCE_list_cig_name&#45;&gt;SesameXML</title>
<path fill="none" stroke="black" d="M114,-227.212C114,-225.19 114,-223.013 114,-220.804"/>
<polygon fill="black" stroke="black" points="117.5,-220.683 114,-210.683 110.5,-220.683 117.5,-220.683"/>
</g>
<!-- WORKFLOWINTERNALSINKCONTROL -->
<g id="node14" class="node"><title>WORKFLOWINTERNALSINKCONTROL</title>
<polygon fill="#66cd00" stroke="black" points="254,-20 261,-30.5 247,-30.5 254,-20"/>
</g>
</g>
</svg>
