<?xml version="1.0" encoding="UTF-8" standalone="no"?>
<!DOCTYPE svg PUBLIC "-//W3C//DTD SVG 1.1//EN"
 "http://www.w3.org/Graphics/SVG/1.1/DTD/svg11.dtd">
<!-- Generated by graphviz version 2.26.0 (20091210.2329)
 -->
<!-- Title: t2flow_graph Pages: 1 -->
<svg width="1472pt" height="687pt"
 viewBox="0.00 0.00 1472.00 687.00" xmlns="http://www.w3.org/2000/svg" xmlns:xlink="http://www.w3.org/1999/xlink">
<g id="graph1" class="graph" transform="scale(1 1) rotate(0) translate(4 683)">
<title>t2flow_graph</title>
<polygon fill="white" stroke="white" points="-4,5 -4,-683 1469,-683 1469,5 -4,5"/>
<g id="graph2" class="cluster"><title>cluster_Calculate_BT_CorrectionCalculate_BT_Correction</title>
<polygon fill="aliceblue" stroke="black" points="384,-411 384,-604 1418,-604 1418,-411 384,-411"/>
<text text-anchor="middle" x="447" y="-591" font-family="Helvetica,sans-Serif" font-size="10.00">Calculate_BT_Correction</text>
</g>
<g id="graph3" class="cluster"><title>cluster_Calculate_BT_Correctionsources</title>
<polygon fill="none" stroke="black" stroke-dasharray="1,5" points="1184,-516 1184,-575 1410,-575 1410,-516 1184,-516"/>
<text text-anchor="middle" x="1228" y="-562" font-family="Helvetica,sans-Serif" font-size="10.00">Workflow Inputs</text>
</g>
<g id="graph4" class="cluster"><title>cluster_Calculate_BT_Correctionsinks</title>
<polygon fill="none" stroke="black" stroke-dasharray="1,5" points="484,-419 484,-478 592,-478 592,-419 484,-419"/>
<text text-anchor="middle" x="531.5" y="-465" font-family="Helvetica,sans-Serif" font-size="10.00">Workflow Outputs</text>
</g>
<g id="graph5" class="cluster"><title>cluster_Calculate_DistancesCalculate_Distances</title>
<polygon fill="aliceblue" stroke="black" points="8,-306 8,-604 376,-604 376,-306 8,-306"/>
<text text-anchor="middle" x="61.5" y="-591" font-family="Helvetica,sans-Serif" font-size="10.00">Calculate_Distances</text>
</g>
<g id="graph6" class="cluster"><title>cluster_Calculate_Distancessources</title>
<polygon fill="none" stroke="black" stroke-dasharray="1,5" points="194,-516 194,-575 368,-575 368,-516 194,-516"/>
<text text-anchor="middle" x="238" y="-562" font-family="Helvetica,sans-Serif" font-size="10.00">Workflow Inputs</text>
</g>
<g id="graph7" class="cluster"><title>cluster_Calculate_Distancessinks</title>
<polygon fill="none" stroke="black" stroke-dasharray="1,5" points="273,-314 273,-373 368,-373 368,-314 273,-314"/>
<text text-anchor="middle" x="320.5" y="-360" font-family="Helvetica,sans-Serif" font-size="10.00">Workflow Outputs</text>
</g>
<g id="graph8" class="cluster"><title>cluster_Calculate_LuminositiesCalculate_Luminosities</title>
<polygon fill="aliceblue" stroke="black" points="332,-75 332,-268 510,-268 510,-75 332,-75"/>
<text text-anchor="middle" x="391" y="-255" font-family="Helvetica,sans-Serif" font-size="10.00">Calculate_Luminosities</text>
</g>
<g id="graph9" class="cluster"><title>cluster_Calculate_Luminositiessources</title>
<polygon fill="none" stroke="black" stroke-dasharray="1,5" points="340,-180 340,-239 502,-239 502,-180 340,-180"/>
<text text-anchor="middle" x="384" y="-226" font-family="Helvetica,sans-Serif" font-size="10.00">Workflow Inputs</text>
</g>
<g id="graph10" class="cluster"><title>cluster_Calculate_Luminositiessinks</title>
<polygon fill="none" stroke="black" stroke-dasharray="1,5" points="382,-83 382,-142 477,-142 477,-83 382,-83"/>
<text text-anchor="middle" x="429.5" y="-129" font-family="Helvetica,sans-Serif" font-size="10.00">Workflow Outputs</text>
</g>
<g id="graph11" class="cluster"><title>cluster_sources</title>
<polygon fill="none" stroke="black" stroke-dasharray="1,5" points="1038,-612 1038,-671 1456,-671 1456,-612 1038,-612"/>
<text text-anchor="middle" x="1082" y="-658" font-family="Helvetica,sans-Serif" font-size="10.00">Workflow Inputs</text>
</g>
<g id="graph12" class="cluster"><title>cluster_sinks</title>
<polygon fill="none" stroke="black" stroke-dasharray="1,5" points="338,-8 338,-67 492,-67 492,-8 338,-8"/>
<text text-anchor="middle" x="385.5" y="-54" font-family="Helvetica,sans-Serif" font-size="10.00">Workflow Outputs</text>
</g>
<!-- Calculate_BT_CorrectionBTCorrectionCalculation -->
<g id="node2" class="node"><title>Calculate_BT_CorrectionBTCorrectionCalculation</title>
<polygon fill="#f28c55" stroke="black" points="955,-507.5 833,-507.5 833,-486.5 955,-486.5 955,-507.5"/>
<text text-anchor="middle" x="894" y="-494.5" font-family="Helvetica,sans-Serif" font-size="10.00">BTCorrectionCalculation</text>
</g>
<!-- Calculate_BT_CorrectionWORKFLOWINTERNALSINK_BTCorrection -->
<g id="node24" class="node"><title>Calculate_BT_CorrectionWORKFLOWINTERNALSINK_BTCorrection</title>
<polygon fill="#bcd2ee" stroke="black" points="566,-448.5 492,-448.5 492,-427.5 566,-427.5 566,-448.5"/>
<text text-anchor="middle" x="529" y="-435.5" font-family="Helvetica,sans-Serif" font-size="10.00">BTCorrection</text>
</g>
<!-- Calculate_BT_CorrectionBTCorrectionCalculation&#45;&gt;Calculate_BT_CorrectionWORKFLOWINTERNALSINK_BTCorrection -->
<g id="edge39" class="edge"><title>Calculate_BT_CorrectionBTCorrectionCalculation&#45;&gt;Calculate_BT_CorrectionWORKFLOWINTERNALSINK_BTCorrection</title>
<path fill="none" stroke="black" d="M832.873,-495.715C745.632,-493.533 593.324,-488.299 570,-478 559.356,-473.3 549.878,-464.541 542.722,-456.415"/>
<polygon fill="black" stroke="black" points="545.427,-454.194 536.384,-448.674 540.011,-458.628 545.427,-454.194"/>
</g>
<!-- Calculate_BT_Correctionak1_value -->
<g id="node3" class="node"><title>Calculate_BT_Correctionak1_value</title>
<polygon fill="#b0c4de" stroke="black" points="1176,-545.5 1116,-545.5 1116,-524.5 1176,-524.5 1176,-545.5"/>
<text text-anchor="middle" x="1146" y="-532.5" font-family="Helvetica,sans-Serif" font-size="10.00">ak1_value</text>
</g>
<!-- Calculate_BT_Correctionak1_value&#45;&gt;Calculate_BT_CorrectionBTCorrectionCalculation -->
<g id="edge5" class="edge"><title>Calculate_BT_Correctionak1_value&#45;&gt;Calculate_BT_CorrectionBTCorrectionCalculation</title>
<path fill="none" stroke="black" d="M1130.37,-524.447C1124.8,-521.188 1118.33,-517.947 1112,-516 1085.43,-507.832 1018.02,-502.794 965.129,-499.977"/>
<polygon fill="black" stroke="black" points="965.266,-496.479 955.099,-499.459 964.906,-503.47 965.266,-496.479"/>
</g>
<!-- Calculate_BT_Correctionak10_value -->
<g id="node4" class="node"><title>Calculate_BT_Correctionak10_value</title>
<polygon fill="#b0c4de" stroke="black" points="1112,-545.5 1046,-545.5 1046,-524.5 1112,-524.5 1112,-545.5"/>
<text text-anchor="middle" x="1079" y="-532.5" font-family="Helvetica,sans-Serif" font-size="10.00">ak10_value</text>
</g>
<!-- Calculate_BT_Correctionak10_value&#45;&gt;Calculate_BT_CorrectionBTCorrectionCalculation -->
<g id="edge7" class="edge"><title>Calculate_BT_Correctionak10_value&#45;&gt;Calculate_BT_CorrectionBTCorrectionCalculation</title>
<path fill="none" stroke="black" d="M1061.47,-524.421C1055.48,-521.241 1048.62,-518.055 1042,-516 1027.66,-511.549 995.973,-507.234 965.581,-503.844"/>
<polygon fill="black" stroke="black" points="965.671,-500.333 955.351,-502.731 964.914,-507.292 965.671,-500.333"/>
</g>
<!-- Calculate_BT_CorrectionakBelow_value -->
<g id="node5" class="node"><title>Calculate_BT_CorrectionakBelow_value</title>
<polygon fill="#b0c4de" stroke="black" points="1042,-545.5 960,-545.5 960,-524.5 1042,-524.5 1042,-545.5"/>
<text text-anchor="middle" x="1001" y="-532.5" font-family="Helvetica,sans-Serif" font-size="10.00">akBelow_value</text>
</g>
<!-- Calculate_BT_CorrectionakBelow_value&#45;&gt;Calculate_BT_CorrectionBTCorrectionCalculation -->
<g id="edge9" class="edge"><title>Calculate_BT_CorrectionakBelow_value&#45;&gt;Calculate_BT_CorrectionBTCorrectionCalculation</title>
<path fill="none" stroke="black" d="M977.359,-524.484C970.524,-521.589 963.014,-518.548 956,-516 950.908,-514.15 945.539,-512.324 940.178,-510.579"/>
<polygon fill="black" stroke="black" points="941.187,-507.227 930.597,-507.536 939.068,-513.899 941.187,-507.227"/>
</g>
<!-- Calculate_BT_Correctionak2_value -->
<g id="node6" class="node"><title>Calculate_BT_Correctionak2_value</title>
<polygon fill="#b0c4de" stroke="black" points="956,-545.5 896,-545.5 896,-524.5 956,-524.5 956,-545.5"/>
<text text-anchor="middle" x="926" y="-532.5" font-family="Helvetica,sans-Serif" font-size="10.00">ak2_value</text>
</g>
<!-- Calculate_BT_Correctionak2_value&#45;&gt;Calculate_BT_CorrectionBTCorrectionCalculation -->
<g id="edge11" class="edge"><title>Calculate_BT_Correctionak2_value&#45;&gt;Calculate_BT_CorrectionBTCorrectionCalculation</title>
<path fill="none" stroke="black" d="M916.916,-524.212C914.599,-521.461 912.043,-518.426 909.503,-515.41"/>
<polygon fill="black" stroke="black" points="912.115,-513.078 902.996,-507.683 906.76,-517.587 912.115,-513.078"/>
</g>
<!-- Calculate_BT_Correctionak3_value -->
<g id="node7" class="node"><title>Calculate_BT_Correctionak3_value</title>
<polygon fill="#b0c4de" stroke="black" points="892,-545.5 832,-545.5 832,-524.5 892,-524.5 892,-545.5"/>
<text text-anchor="middle" x="862" y="-532.5" font-family="Helvetica,sans-Serif" font-size="10.00">ak3_value</text>
</g>
<!-- Calculate_BT_Correctionak3_value&#45;&gt;Calculate_BT_CorrectionBTCorrectionCalculation -->
<g id="edge13" class="edge"><title>Calculate_BT_Correctionak3_value&#45;&gt;Calculate_BT_CorrectionBTCorrectionCalculation</title>
<path fill="none" stroke="black" d="M871.084,-524.212C873.401,-521.461 875.957,-518.426 878.497,-515.41"/>
<polygon fill="black" stroke="black" points="881.24,-517.587 885.004,-507.683 875.885,-513.078 881.24,-517.587"/>
</g>
<!-- Calculate_BT_Correctionak4_value -->
<g id="node8" class="node"><title>Calculate_BT_Correctionak4_value</title>
<polygon fill="#b0c4de" stroke="black" points="828,-545.5 768,-545.5 768,-524.5 828,-524.5 828,-545.5"/>
<text text-anchor="middle" x="798" y="-532.5" font-family="Helvetica,sans-Serif" font-size="10.00">ak4_value</text>
</g>
<!-- Calculate_BT_Correctionak4_value&#45;&gt;Calculate_BT_CorrectionBTCorrectionCalculation -->
<g id="edge15" class="edge"><title>Calculate_BT_Correctionak4_value&#45;&gt;Calculate_BT_CorrectionBTCorrectionCalculation</title>
<path fill="none" stroke="black" d="M815.288,-524.408C820.539,-521.447 826.403,-518.389 832,-516 836.365,-514.137 840.973,-512.372 845.627,-510.723"/>
<polygon fill="black" stroke="black" points="846.817,-514.016 855.179,-507.51 844.585,-507.381 846.817,-514.016"/>
</g>
<!-- Calculate_BT_Correctionak5_value -->
<g id="node9" class="node"><title>Calculate_BT_Correctionak5_value</title>
<polygon fill="#b0c4de" stroke="black" points="764,-545.5 704,-545.5 704,-524.5 764,-524.5 764,-545.5"/>
<text text-anchor="middle" x="734" y="-532.5" font-family="Helvetica,sans-Serif" font-size="10.00">ak5_value</text>
</g>
<!-- Calculate_BT_Correctionak5_value&#45;&gt;Calculate_BT_CorrectionBTCorrectionCalculation -->
<g id="edge17" class="edge"><title>Calculate_BT_Correctionak5_value&#45;&gt;Calculate_BT_CorrectionBTCorrectionCalculation</title>
<path fill="none" stroke="black" d="M750.045,-524.474C755.541,-521.298 761.858,-518.101 768,-516 785.308,-510.079 804.58,-506.001 822.742,-503.192"/>
<polygon fill="black" stroke="black" points="823.299,-506.648 832.698,-501.759 822.302,-499.72 823.299,-506.648"/>
</g>
<!-- Calculate_BT_Correctionak6_value -->
<g id="node10" class="node"><title>Calculate_BT_Correctionak6_value</title>
<polygon fill="#b0c4de" stroke="black" points="700,-545.5 640,-545.5 640,-524.5 700,-524.5 700,-545.5"/>
<text text-anchor="middle" x="670" y="-532.5" font-family="Helvetica,sans-Serif" font-size="10.00">ak6_value</text>
</g>
<!-- Calculate_BT_Correctionak6_value&#45;&gt;Calculate_BT_CorrectionBTCorrectionCalculation -->
<g id="edge19" class="edge"><title>Calculate_BT_Correctionak6_value&#45;&gt;Calculate_BT_CorrectionBTCorrectionCalculation</title>
<path fill="none" stroke="black" d="M685.643,-524.493C691.214,-521.238 697.678,-517.988 704,-516 725.564,-509.22 778.074,-504.272 822.438,-501.127"/>
<polygon fill="black" stroke="black" points="822.902,-504.604 832.639,-500.426 822.422,-497.62 822.902,-504.604"/>
</g>
<!-- Calculate_BT_Correctionak7_value -->
<g id="node11" class="node"><title>Calculate_BT_Correctionak7_value</title>
<polygon fill="#b0c4de" stroke="black" points="636,-545.5 576,-545.5 576,-524.5 636,-524.5 636,-545.5"/>
<text text-anchor="middle" x="606" y="-532.5" font-family="Helvetica,sans-Serif" font-size="10.00">ak7_value</text>
</g>
<!-- Calculate_BT_Correctionak7_value&#45;&gt;Calculate_BT_CorrectionBTCorrectionCalculation -->
<g id="edge21" class="edge"><title>Calculate_BT_Correctionak7_value&#45;&gt;Calculate_BT_CorrectionBTCorrectionCalculation</title>
<path fill="none" stroke="black" d="M621.615,-524.402C627.184,-521.14 633.654,-517.908 640,-516 672.943,-506.093 759.666,-501.21 822.628,-498.904"/>
<polygon fill="black" stroke="black" points="823.039,-502.391 832.909,-498.542 822.792,-495.396 823.039,-502.391"/>
</g>
<!-- Calculate_BT_Correctionak8_value -->
<g id="node12" class="node"><title>Calculate_BT_Correctionak8_value</title>
<polygon fill="#b0c4de" stroke="black" points="572,-545.5 512,-545.5 512,-524.5 572,-524.5 572,-545.5"/>
<text text-anchor="middle" x="542" y="-532.5" font-family="Helvetica,sans-Serif" font-size="10.00">ak8_value</text>
</g>
<!-- Calculate_BT_Correctionak8_value&#45;&gt;Calculate_BT_CorrectionBTCorrectionCalculation -->
<g id="edge23" class="edge"><title>Calculate_BT_Correctionak8_value&#45;&gt;Calculate_BT_CorrectionBTCorrectionCalculation</title>
<path fill="none" stroke="black" d="M557.599,-524.348C563.167,-521.081 569.64,-517.861 576,-516 598.977,-509.277 736.34,-502.957 822.85,-499.57"/>
<polygon fill="black" stroke="black" points="823.019,-503.066 832.876,-499.182 822.748,-496.071 823.019,-503.066"/>
</g>
<!-- Calculate_BT_Correctionak9_value -->
<g id="node13" class="node"><title>Calculate_BT_Correctionak9_value</title>
<polygon fill="#b0c4de" stroke="black" points="508,-545.5 448,-545.5 448,-524.5 508,-524.5 508,-545.5"/>
<text text-anchor="middle" x="478" y="-532.5" font-family="Helvetica,sans-Serif" font-size="10.00">ak9_value</text>
</g>
<!-- Calculate_BT_Correctionak9_value&#45;&gt;Calculate_BT_CorrectionBTCorrectionCalculation -->
<g id="edge25" class="edge"><title>Calculate_BT_Correctionak9_value&#45;&gt;Calculate_BT_CorrectionBTCorrectionCalculation</title>
<path fill="none" stroke="black" d="M493.589,-524.311C499.155,-521.042 505.631,-517.829 512,-516 540.885,-507.705 719.945,-501.64 822.341,-498.8"/>
<polygon fill="black" stroke="black" points="822.71,-502.291 832.61,-498.519 822.518,-495.294 822.71,-502.291"/>
</g>
<!-- Calculate_BT_CorrectionC_value -->
<g id="node14" class="node"><title>Calculate_BT_CorrectionC_value</title>
<polygon fill="#b0c4de" stroke="black" points="444,-545.5 392,-545.5 392,-524.5 444,-524.5 444,-545.5"/>
<text text-anchor="middle" x="418" y="-532.5" font-family="Helvetica,sans-Serif" font-size="10.00">C_value</text>
</g>
<!-- Calculate_BT_CorrectionC_value&#45;&gt;Calculate_BT_CorrectionBTCorrectionCalculation -->
<g id="edge27" class="edge"><title>Calculate_BT_CorrectionC_value&#45;&gt;Calculate_BT_CorrectionBTCorrectionCalculation</title>
<path fill="none" stroke="black" d="M431.289,-524.486C436.252,-521.145 442.117,-517.843 448,-516 482.639,-505.149 705.438,-500.004 822.448,-498.025"/>
<polygon fill="black" stroke="black" points="822.805,-501.52 832.746,-497.855 822.689,-494.521 822.805,-501.52"/>
</g>
<!-- Calculate_BT_CorrectionWORKFLOWINTERNALSOURCECONTROL -->
<g id="node16" class="node"><title>Calculate_BT_CorrectionWORKFLOWINTERNALSOURCECONTROL</title>
<polygon fill="#ff4040" stroke="black" points="1395,-542 1388,-531.5 1402,-531.5 1395,-542"/>
</g>
<!-- Calculate_BT_CorrectionWORKFLOWINTERNALSOURCE_type -->
<g id="node17" class="node"><title>Calculate_BT_CorrectionWORKFLOWINTERNALSOURCE_type</title>
<polygon fill="skyblue" stroke="black" points="1384,-545.5 1350,-545.5 1350,-524.5 1384,-524.5 1384,-545.5"/>
<text text-anchor="middle" x="1367" y="-532.5" font-family="Helvetica,sans-Serif" font-size="10.00">type</text>
</g>
<!-- Calculate_BT_CorrectionWORKFLOWINTERNALSOURCE_type&#45;&gt;Calculate_BT_CorrectionBTCorrectionCalculation -->
<g id="edge29" class="edge"><title>Calculate_BT_CorrectionWORKFLOWINTERNALSOURCE_type&#45;&gt;Calculate_BT_CorrectionBTCorrectionCalculation</title>
<path fill="none" stroke="black" d="M1357.76,-524.108C1354.41,-520.908 1350.37,-517.789 1346,-516 1328.75,-508.933 1088.34,-501.895 965.369,-498.732"/>
<polygon fill="black" stroke="black" points="965.37,-495.231 955.284,-498.475 965.191,-502.229 965.37,-495.231"/>
</g>
<!-- Calculate_BT_CorrectionWORKFLOWINTERNALSOURCE_ag -->
<g id="node18" class="node"><title>Calculate_BT_CorrectionWORKFLOWINTERNALSOURCE_ag</title>
<polygon fill="skyblue" stroke="black" points="1346,-545.5 1320,-545.5 1320,-524.5 1346,-524.5 1346,-545.5"/>
<text text-anchor="middle" x="1333" y="-532.5" font-family="Helvetica,sans-Serif" font-size="10.00">ag</text>
</g>
<!-- Calculate_BT_CorrectionWORKFLOWINTERNALSOURCE_ag&#45;&gt;Calculate_BT_CorrectionBTCorrectionCalculation -->
<g id="edge31" class="edge"><title>Calculate_BT_CorrectionWORKFLOWINTERNALSOURCE_ag&#45;&gt;Calculate_BT_CorrectionBTCorrectionCalculation</title>
<path fill="none" stroke="black" d="M1325.88,-524.146C1323.19,-520.948 1319.84,-517.821 1316,-516 1300.48,-508.639 1081.67,-501.876 965.425,-498.778"/>
<polygon fill="black" stroke="black" points="965.277,-495.273 955.188,-498.508 965.092,-502.271 965.277,-495.273"/>
</g>
<!-- Calculate_BT_CorrectionWORKFLOWINTERNALSOURCE_velocity -->
<g id="node19" class="node"><title>Calculate_BT_CorrectionWORKFLOWINTERNALSOURCE_velocity</title>
<polygon fill="skyblue" stroke="black" points="1242,-545.5 1192,-545.5 1192,-524.5 1242,-524.5 1242,-545.5"/>
<text text-anchor="middle" x="1217" y="-532.5" font-family="Helvetica,sans-Serif" font-size="10.00">velocity</text>
</g>
<!-- Calculate_BT_CorrectionWORKFLOWINTERNALSOURCE_velocity&#45;&gt;Calculate_BT_CorrectionBTCorrectionCalculation -->
<g id="edge33" class="edge"><title>Calculate_BT_CorrectionWORKFLOWINTERNALSOURCE_velocity&#45;&gt;Calculate_BT_CorrectionBTCorrectionCalculation</title>
<path fill="none" stroke="black" d="M1203.89,-524.356C1199.16,-521.09 1193.6,-517.868 1188,-516 1167.47,-509.145 1045.57,-503.049 965.313,-499.705"/>
<polygon fill="black" stroke="black" points="965.392,-496.205 955.256,-499.291 965.104,-503.199 965.392,-496.205"/>
</g>
<!-- Calculate_BT_CorrectionWORKFLOWINTERNALSOURCE_bt -->
<g id="node20" class="node"><title>Calculate_BT_CorrectionWORKFLOWINTERNALSOURCE_bt</title>
<polygon fill="skyblue" stroke="black" points="1316,-545.5 1292,-545.5 1292,-524.5 1316,-524.5 1316,-545.5"/>
<text text-anchor="middle" x="1304" y="-532.5" font-family="Helvetica,sans-Serif" font-size="10.00">bt</text>
</g>
<!-- Calculate_BT_CorrectionWORKFLOWINTERNALSOURCE_bt&#45;&gt;Calculate_BT_CorrectionBTCorrectionCalculation -->
<g id="edge35" class="edge"><title>Calculate_BT_CorrectionWORKFLOWINTERNALSOURCE_bt&#45;&gt;Calculate_BT_CorrectionBTCorrectionCalculation</title>
<path fill="none" stroke="black" d="M1297.41,-524.164C1294.89,-520.967 1291.71,-517.836 1288,-516 1273.83,-508.986 1074.94,-502.201 965.308,-498.967"/>
<polygon fill="black" stroke="black" points="965.408,-495.468 955.309,-498.674 965.203,-502.465 965.408,-495.468"/>
</g>
<!-- Calculate_BT_CorrectionWORKFLOWINTERNALSOURCE_logr25 -->
<g id="node21" class="node"><title>Calculate_BT_CorrectionWORKFLOWINTERNALSOURCE_logr25</title>
<polygon fill="skyblue" stroke="black" points="1288,-545.5 1246,-545.5 1246,-524.5 1288,-524.5 1288,-545.5"/>
<text text-anchor="middle" x="1267" y="-532.5" font-family="Helvetica,sans-Serif" font-size="10.00">logr25</text>
</g>
<!-- Calculate_BT_CorrectionWORKFLOWINTERNALSOURCE_logr25&#45;&gt;Calculate_BT_CorrectionBTCorrectionCalculation -->
<g id="edge37" class="edge"><title>Calculate_BT_CorrectionWORKFLOWINTERNALSOURCE_logr25&#45;&gt;Calculate_BT_CorrectionBTCorrectionCalculation</title>
<path fill="none" stroke="black" d="M1255.67,-524.127C1251.66,-520.929 1246.91,-517.805 1242,-516 1216.83,-506.749 1059.62,-501.198 965.324,-498.66"/>
<polygon fill="black" stroke="black" points="965.365,-495.16 955.276,-498.395 965.18,-502.158 965.365,-495.16"/>
</g>
<!-- Calculate_BT_CorrectionWORKFLOWINTERNALSINKCONTROL -->
<g id="node23" class="node"><title>Calculate_BT_CorrectionWORKFLOWINTERNALSINKCONTROL</title>
<polygon fill="#66cd00" stroke="black" points="577,-431 584,-441.5 570,-441.5 577,-431"/>
</g>
<!-- Merge_BTCorrection -->
<g id="node79" class="node"><title>Merge_BTCorrection</title>
<polygon fill="#d15fee" stroke="black" points="522,-297.5 416,-297.5 416,-276.5 522,-276.5 522,-297.5"/>
<text text-anchor="middle" x="469" y="-284.5" font-family="Helvetica,sans-Serif" font-size="10.00">Merge_BTCorrection</text>
</g>
<!-- Calculate_BT_CorrectionWORKFLOWINTERNALSINK_BTCorrection&#45;&gt;Merge_BTCorrection -->
<g id="edge93" class="edge"><title>Calculate_BT_CorrectionWORKFLOWINTERNALSINK_BTCorrection&#45;&gt;Merge_BTCorrection</title>
<path fill="none" stroke="black" d="M524.685,-427.14C514.696,-402.001 489.854,-339.483 476.996,-307.123"/>
<polygon fill="black" stroke="black" points="480.221,-305.762 473.276,-297.761 473.716,-308.347 480.221,-305.762"/>
</g>
<!-- WORKFLOWINTERNALSINK_btc -->
<g id="node90" class="node"><title>WORKFLOWINTERNALSINK_btc</title>
<polygon fill="#bcd2ee" stroke="black" points="466,-37.5 436,-37.5 436,-16.5 466,-16.5 466,-37.5"/>
<text text-anchor="middle" x="451" y="-24.5" font-family="Helvetica,sans-Serif" font-size="10.00">btc</text>
</g>
<!-- Calculate_BT_CorrectionWORKFLOWINTERNALSINK_BTCorrection&#45;&gt;WORKFLOWINTERNALSINK_btc -->
<g id="edge95" class="edge"><title>Calculate_BT_CorrectionWORKFLOWINTERNALSINK_BTCorrection&#45;&gt;WORKFLOWINTERNALSINK_btc</title>
<path fill="none" stroke="black" d="M529,-427.268C529,-408.265 529,-367.453 529,-333 529,-333 529,-333 529,-161 529,-116.562 505.257,-110.096 478,-75 474.916,-71.0287 472.899,-71.1087 470,-67 465.754,-60.9811 462.024,-53.8645 459.02,-47.315"/>
<polygon fill="black" stroke="black" points="462.072,-45.5503 454.925,-37.7289 455.635,-48.3 462.072,-45.5503"/>
</g>
<!-- Calculate_Distancescoords2Deg -->
<g id="node44" class="node"><title>Calculate_Distancescoords2Deg</title>
<polygon fill="#f28c55" stroke="black" points="362,-507.5 294,-507.5 294,-486.5 362,-486.5 362,-507.5"/>
<text text-anchor="middle" x="328" y="-494.5" font-family="Helvetica,sans-Serif" font-size="10.00">coords2Deg</text>
</g>
<!-- Calculate_Distanceseq2gal -->
<g id="node45" class="node"><title>Calculate_Distanceseq2gal</title>
<polygon fill="#f28c55" stroke="black" points="356,-448.5 312,-448.5 312,-427.5 356,-427.5 356,-448.5"/>
<text text-anchor="middle" x="334" y="-435.5" font-family="Helvetica,sans-Serif" font-size="10.00">eq2gal</text>
</g>
<!-- Calculate_Distancescoords2Deg&#45;&gt;Calculate_Distanceseq2gal -->
<g id="edge46" class="edge"><title>Calculate_Distancescoords2Deg&#45;&gt;Calculate_Distanceseq2gal</title>
<path fill="none" stroke="black" d="M329.073,-486.452C329.848,-478.829 330.921,-468.277 331.868,-458.966"/>
<polygon fill="black" stroke="black" points="335.366,-459.159 332.896,-448.856 328.402,-458.45 335.366,-459.159"/>
</g>
<!-- Calculate_DistancescalculateDistance -->
<g id="node46" class="node"><title>Calculate_DistancescalculateDistance</title>
<polygon fill="#f28c55" stroke="black" points="360,-402.5 266,-402.5 266,-381.5 360,-381.5 360,-402.5"/>
<text text-anchor="middle" x="313" y="-389.5" font-family="Helvetica,sans-Serif" font-size="10.00">calculateDistance</text>
</g>
<!-- Calculate_Distancescoords2Deg&#45;&gt;Calculate_DistancescalculateDistance -->
<g id="edge48" class="edge"><title>Calculate_Distancescoords2Deg&#45;&gt;Calculate_DistancescalculateDistance</title>
<path fill="none" stroke="black" d="M348.93,-486.348C351.773,-483.992 354.295,-481.218 356,-478 362.972,-464.844 364.127,-423.475 356,-411 355.733,-410.59 355.454,-410.188 355.166,-409.795"/>
<polygon fill="black" stroke="black" points="357.442,-407.13 347.797,-402.746 352.603,-412.188 357.442,-407.13"/>
</g>
<!-- Calculate_Distanceseq2gal&#45;&gt;Calculate_DistancescalculateDistance -->
<g id="edge50" class="edge"><title>Calculate_Distanceseq2gal&#45;&gt;Calculate_DistancescalculateDistance</title>
<path fill="none" stroke="black" d="M329.129,-427.331C327.009,-422.686 324.454,-417.089 322.009,-411.733"/>
<polygon fill="black" stroke="black" points="325.181,-410.254 317.844,-402.611 318.813,-413.162 325.181,-410.254"/>
</g>
<!-- Calculate_DistancesWORKFLOWINTERNALSINK_distances -->
<g id="node56" class="node"><title>Calculate_DistancesWORKFLOWINTERNALSINK_distances</title>
<polygon fill="#bcd2ee" stroke="black" points="342,-343.5 284,-343.5 284,-322.5 342,-322.5 342,-343.5"/>
<text text-anchor="middle" x="313" y="-330.5" font-family="Helvetica,sans-Serif" font-size="10.00">distances</text>
</g>
<!-- Calculate_DistancescalculateDistance&#45;&gt;Calculate_DistancesWORKFLOWINTERNALSINK_distances -->
<g id="edge60" class="edge"><title>Calculate_DistancescalculateDistance&#45;&gt;Calculate_DistancesWORKFLOWINTERNALSINK_distances</title>
<path fill="none" stroke="black" d="M313,-381.452C313,-373.829 313,-363.277 313,-353.966"/>
<polygon fill="black" stroke="black" points="316.5,-353.856 313,-343.856 309.5,-353.856 316.5,-353.856"/>
</g>
<!-- Calculate_Distancesh75_value -->
<g id="node47" class="node"><title>Calculate_Distancesh75_value</title>
<polygon fill="#b0c4de" stroke="black" points="308,-448.5 248,-448.5 248,-427.5 308,-427.5 308,-448.5"/>
<text text-anchor="middle" x="278" y="-435.5" font-family="Helvetica,sans-Serif" font-size="10.00">h75_value</text>
</g>
<!-- Calculate_Distancesh75_value&#45;&gt;Calculate_DistancescalculateDistance -->
<g id="edge52" class="edge"><title>Calculate_Distancesh75_value&#45;&gt;Calculate_DistancescalculateDistance</title>
<path fill="none" stroke="black" d="M286.118,-427.331C289.828,-422.454 294.338,-416.527 298.595,-410.932"/>
<polygon fill="black" stroke="black" points="301.656,-412.689 304.926,-402.611 296.086,-408.45 301.656,-412.689"/>
</g>
<!-- Calculate_Distancesvirgo_coords_value -->
<g id="node48" class="node"><title>Calculate_Distancesvirgo_coords_value</title>
<polygon fill="#b0c4de" stroke="black" points="244,-448.5 144,-448.5 144,-427.5 244,-427.5 244,-448.5"/>
<text text-anchor="middle" x="194" y="-435.5" font-family="Helvetica,sans-Serif" font-size="10.00">virgo_coords_value</text>
</g>
<!-- Calculate_Distancesvirgo_coords_value&#45;&gt;Calculate_DistancescalculateDistance -->
<g id="edge54" class="edge"><title>Calculate_Distancesvirgo_coords_value&#45;&gt;Calculate_DistancescalculateDistance</title>
<path fill="none" stroke="black" d="M213.113,-427.392C223.275,-422.023 236.097,-415.672 248,-411 252.802,-409.115 257.867,-407.319 262.964,-405.635"/>
<polygon fill="black" stroke="black" points="264.265,-408.895 272.745,-402.543 262.155,-402.22 264.265,-408.895"/>
</g>
<!-- Calculate_Distancesvelocity_threshold_value -->
<g id="node49" class="node"><title>Calculate_Distancesvelocity_threshold_value</title>
<polygon fill="#b0c4de" stroke="black" points="140,-448.5 16,-448.5 16,-427.5 140,-427.5 140,-448.5"/>
<text text-anchor="middle" x="78" y="-435.5" font-family="Helvetica,sans-Serif" font-size="10.00">velocity_threshold_value</text>
</g>
<!-- Calculate_Distancesvelocity_threshold_value&#45;&gt;Calculate_DistancescalculateDistance -->
<g id="edge58" class="edge"><title>Calculate_Distancesvelocity_threshold_value&#45;&gt;Calculate_DistancescalculateDistance</title>
<path fill="none" stroke="black" d="M99.485,-427.442C112.147,-421.673 128.647,-414.923 144,-411 180.396,-401.701 222.358,-396.952 255.364,-394.528"/>
<polygon fill="black" stroke="black" points="256.009,-397.992 265.747,-393.819 255.532,-391.008 256.009,-397.992"/>
</g>
<!-- Calculate_DistancesWORKFLOWINTERNALSOURCECONTROL -->
<g id="node51" class="node"><title>Calculate_DistancesWORKFLOWINTERNALSOURCECONTROL</title>
<polygon fill="#ff4040" stroke="black" points="353,-542 346,-531.5 360,-531.5 353,-542"/>
</g>
<!-- Calculate_DistancesWORKFLOWINTERNALSOURCE_fileCoordsJ2000 -->
<g id="node52" class="node"><title>Calculate_DistancesWORKFLOWINTERNALSOURCE_fileCoordsJ2000</title>
<polygon fill="skyblue" stroke="black" points="288,-545.5 202,-545.5 202,-524.5 288,-524.5 288,-545.5"/>
<text text-anchor="middle" x="245" y="-532.5" font-family="Helvetica,sans-Serif" font-size="10.00">fileCoordsJ2000</text>
</g>
<!-- Calculate_DistancesWORKFLOWINTERNALSOURCE_fileCoordsJ2000&#45;&gt;Calculate_Distancescoords2Deg -->
<g id="edge44" class="edge"><title>Calculate_DistancesWORKFLOWINTERNALSOURCE_fileCoordsJ2000&#45;&gt;Calculate_Distancescoords2Deg</title>
<path fill="none" stroke="black" d="M268.12,-524.415C276.664,-520.503 286.511,-515.995 295.72,-511.779"/>
<polygon fill="black" stroke="black" points="297.368,-514.874 305.004,-507.528 294.454,-508.509 297.368,-514.874"/>
</g>
<!-- Calculate_DistancesWORKFLOWINTERNALSOURCE_velocity -->
<g id="node53" class="node"><title>Calculate_DistancesWORKFLOWINTERNALSOURCE_velocity</title>
<polygon fill="skyblue" stroke="black" points="342,-545.5 292,-545.5 292,-524.5 342,-524.5 342,-545.5"/>
<text text-anchor="middle" x="317" y="-532.5" font-family="Helvetica,sans-Serif" font-size="10.00">velocity</text>
</g>
<!-- Calculate_DistancesWORKFLOWINTERNALSOURCE_velocity&#45;&gt;Calculate_DistancescalculateDistance -->
<g id="edge56" class="edge"><title>Calculate_DistancesWORKFLOWINTERNALSOURCE_velocity&#45;&gt;Calculate_DistancescalculateDistance</title>
<path fill="none" stroke="black" d="M332.444,-524.406C336.767,-521.571 341.513,-518.58 346,-516 352.892,-512.037 357.82,-514.763 362,-508 372.133,-491.604 394.085,-458.988 361,-411 360.634,-410.47 360.251,-409.954 359.852,-409.453"/>
<polygon fill="black" stroke="black" points="361.951,-406.632 352.183,-402.528 357.26,-411.828 361.951,-406.632"/>
</g>
<!-- Calculate_DistancesWORKFLOWINTERNALSINKCONTROL -->
<g id="node55" class="node"><title>Calculate_DistancesWORKFLOWINTERNALSINKCONTROL</title>
<polygon fill="#66cd00" stroke="black" points="353,-326 360,-336.5 346,-336.5 353,-326"/>
</g>
<!-- Merge_Distances -->
<g id="node78" class="node"><title>Merge_Distances</title>
<polygon fill="#d15fee" stroke="black" points="412,-297.5 320,-297.5 320,-276.5 412,-276.5 412,-297.5"/>
<text text-anchor="middle" x="366" y="-284.5" font-family="Helvetica,sans-Serif" font-size="10.00">Merge_Distances</text>
</g>
<!-- Calculate_DistancesWORKFLOWINTERNALSINK_distances&#45;&gt;Merge_Distances -->
<g id="edge91" class="edge"><title>Calculate_DistancesWORKFLOWINTERNALSINK_distances&#45;&gt;Merge_Distances</title>
<path fill="none" stroke="black" d="M325.292,-322.331C331.447,-316.99 339.052,-310.389 346.017,-304.344"/>
<polygon fill="black" stroke="black" points="348.516,-306.809 353.774,-297.611 343.928,-301.523 348.516,-306.809"/>
</g>
<!-- WORKFLOWINTERNALSINK_distances -->
<g id="node91" class="node"><title>WORKFLOWINTERNALSINK_distances</title>
<polygon fill="#bcd2ee" stroke="black" points="404,-37.5 346,-37.5 346,-16.5 404,-16.5 404,-37.5"/>
<text text-anchor="middle" x="375" y="-24.5" font-family="Helvetica,sans-Serif" font-size="10.00">distances</text>
</g>
<!-- Calculate_DistancesWORKFLOWINTERNALSINK_distances&#45;&gt;WORKFLOWINTERNALSINK_distances -->
<g id="edge97" class="edge"><title>Calculate_DistancesWORKFLOWINTERNALSINK_distances&#45;&gt;WORKFLOWINTERNALSINK_distances</title>
<path fill="none" stroke="black" d="M313,-322.231C313,-299.477 313,-244.83 313,-199 313,-199 313,-199 313,-161 313,-116.482 341.535,-70.6952 359.888,-45.8497"/>
<polygon fill="black" stroke="black" points="362.834,-47.7582 366.117,-37.6848 357.269,-43.5122 362.834,-47.7582"/>
</g>
<!-- Calculate_LuminositiesLuminositiesCalculation -->
<g id="node67" class="node"><title>Calculate_LuminositiesLuminositiesCalculation</title>
<polygon fill="#f28c55" stroke="black" points="480,-171.5 360,-171.5 360,-150.5 480,-150.5 480,-171.5"/>
<text text-anchor="middle" x="420" y="-158.5" font-family="Helvetica,sans-Serif" font-size="10.00">LuminositiesCalculation</text>
</g>
<!-- Calculate_LuminositiesWORKFLOWINTERNALSINK_lb_result -->
<g id="node74" class="node"><title>Calculate_LuminositiesWORKFLOWINTERNALSINK_lb_result</title>
<polygon fill="#bcd2ee" stroke="black" points="446,-112.5 394,-112.5 394,-91.5 446,-91.5 446,-112.5"/>
<text text-anchor="middle" x="420" y="-99.5" font-family="Helvetica,sans-Serif" font-size="10.00">lb_result</text>
</g>
<!-- Calculate_LuminositiesLuminositiesCalculation&#45;&gt;Calculate_LuminositiesWORKFLOWINTERNALSINK_lb_result -->
<g id="edge69" class="edge"><title>Calculate_LuminositiesLuminositiesCalculation&#45;&gt;Calculate_LuminositiesWORKFLOWINTERNALSINK_lb_result</title>
<path fill="none" stroke="black" d="M420,-150.452C420,-142.829 420,-132.277 420,-122.966"/>
<polygon fill="black" stroke="black" points="423.5,-122.856 420,-112.856 416.5,-122.856 423.5,-122.856"/>
</g>
<!-- Calculate_LuminositiesWORKFLOWINTERNALSOURCECONTROL -->
<g id="node69" class="node"><title>Calculate_LuminositiesWORKFLOWINTERNALSOURCECONTROL</title>
<polygon fill="#ff4040" stroke="black" points="487,-206 480,-195.5 494,-195.5 487,-206"/>
</g>
<!-- Calculate_LuminositiesWORKFLOWINTERNALSOURCE_distances_file -->
<g id="node70" class="node"><title>Calculate_LuminositiesWORKFLOWINTERNALSOURCE_distances_file</title>
<polygon fill="skyblue" stroke="black" points="424,-209.5 348,-209.5 348,-188.5 424,-188.5 424,-209.5"/>
<text text-anchor="middle" x="386" y="-196.5" font-family="Helvetica,sans-Serif" font-size="10.00">distances_file</text>
</g>
<!-- Calculate_LuminositiesWORKFLOWINTERNALSOURCE_distances_file&#45;&gt;Calculate_LuminositiesLuminositiesCalculation -->
<g id="edge67" class="edge"><title>Calculate_LuminositiesWORKFLOWINTERNALSOURCE_distances_file&#45;&gt;Calculate_LuminositiesLuminositiesCalculation</title>
<path fill="none" stroke="black" d="M395.652,-188.212C398.186,-185.38 400.989,-182.247 403.766,-179.144"/>
<polygon fill="black" stroke="black" points="406.382,-181.469 410.441,-171.683 401.165,-176.802 406.382,-181.469"/>
</g>
<!-- Calculate_LuminositiesWORKFLOWINTERNALSOURCE_btc_file -->
<g id="node71" class="node"><title>Calculate_LuminositiesWORKFLOWINTERNALSOURCE_btc_file</title>
<polygon fill="skyblue" stroke="black" points="476,-209.5 428,-209.5 428,-188.5 476,-188.5 476,-209.5"/>
<text text-anchor="middle" x="452" y="-196.5" font-family="Helvetica,sans-Serif" font-size="10.00">btc_file</text>
</g>
<!-- Calculate_LuminositiesWORKFLOWINTERNALSOURCE_btc_file&#45;&gt;Calculate_LuminositiesLuminositiesCalculation -->
<g id="edge65" class="edge"><title>Calculate_LuminositiesWORKFLOWINTERNALSOURCE_btc_file&#45;&gt;Calculate_LuminositiesLuminositiesCalculation</title>
<path fill="none" stroke="black" d="M442.916,-188.212C440.599,-185.461 438.043,-182.426 435.503,-179.41"/>
<polygon fill="black" stroke="black" points="438.115,-177.078 428.996,-171.683 432.76,-181.587 438.115,-177.078"/>
</g>
<!-- Calculate_LuminositiesWORKFLOWINTERNALSINKCONTROL -->
<g id="node73" class="node"><title>Calculate_LuminositiesWORKFLOWINTERNALSINKCONTROL</title>
<polygon fill="#66cd00" stroke="black" points="459,-95 466,-105.5 452,-105.5 459,-95"/>
</g>
<!-- WORKFLOWINTERNALSINK_lb -->
<g id="node92" class="node"><title>WORKFLOWINTERNALSINK_lb</title>
<polygon fill="#bcd2ee" stroke="black" points="432,-37.5 408,-37.5 408,-16.5 432,-16.5 432,-37.5"/>
<text text-anchor="middle" x="420" y="-24.5" font-family="Helvetica,sans-Serif" font-size="10.00">lb</text>
</g>
<!-- Calculate_LuminositiesWORKFLOWINTERNALSINK_lb_result&#45;&gt;WORKFLOWINTERNALSINK_lb -->
<g id="edge99" class="edge"><title>Calculate_LuminositiesWORKFLOWINTERNALSINK_lb_result&#45;&gt;WORKFLOWINTERNALSINK_lb</title>
<path fill="none" stroke="black" d="M420,-91.2543C420,-80.0043 420,-62.051 420,-47.978"/>
<polygon fill="black" stroke="black" points="423.5,-47.7257 420,-37.7257 416.5,-47.7258 423.5,-47.7257"/>
</g>
<!-- Merge_Distances&#45;&gt;Calculate_LuminositiesWORKFLOWINTERNALSOURCE_distances_file -->
<g id="edge87" class="edge"><title>Merge_Distances&#45;&gt;Calculate_LuminositiesWORKFLOWINTERNALSOURCE_distances_file</title>
<path fill="none" stroke="black" d="M368.452,-276.209C371.648,-262.147 377.304,-237.264 381.33,-219.548"/>
<polygon fill="black" stroke="black" points="384.787,-220.131 383.59,-209.604 377.961,-218.58 384.787,-220.131"/>
</g>
<!-- Merge_BTCorrection&#45;&gt;Calculate_LuminositiesWORKFLOWINTERNALSOURCE_btc_file -->
<g id="edge89" class="edge"><title>Merge_BTCorrection&#45;&gt;Calculate_LuminositiesWORKFLOWINTERNALSOURCE_btc_file</title>
<path fill="none" stroke="black" d="M466.915,-276.209C464.199,-262.147 459.392,-237.264 455.969,-219.548"/>
<polygon fill="black" stroke="black" points="459.382,-218.758 454.048,-209.604 452.509,-220.086 459.382,-218.758"/>
</g>
<!-- WORKFLOWINTERNALSOURCECONTROL -->
<g id="node81" class="node"><title>WORKFLOWINTERNALSOURCECONTROL</title>
<polygon fill="#ff4040" stroke="black" points="1441,-638 1434,-627.5 1448,-627.5 1441,-638"/>
</g>
<!-- WORKFLOWINTERNALSOURCE_type_morpho -->
<g id="node82" class="node"><title>WORKFLOWINTERNALSOURCE_type_morpho</title>
<polygon fill="skyblue" stroke="black" points="1430,-641.5 1358,-641.5 1358,-620.5 1430,-620.5 1430,-641.5"/>
<text text-anchor="middle" x="1394" y="-628.5" font-family="Helvetica,sans-Serif" font-size="10.00">type_morpho</text>
</g>
<!-- WORKFLOWINTERNALSOURCE_type_morpho&#45;&gt;Calculate_BT_CorrectionWORKFLOWINTERNALSOURCE_type -->
<g id="edge73" class="edge"><title>WORKFLOWINTERNALSOURCE_type_morpho&#45;&gt;Calculate_BT_CorrectionWORKFLOWINTERNALSOURCE_type</title>
<path fill="none" stroke="black" d="M1391.01,-620.36C1386.61,-604.718 1378.31,-575.223 1372.72,-555.341"/>
<polygon fill="black" stroke="black" points="1376.08,-554.367 1370.01,-545.688 1369.34,-556.262 1376.08,-554.367"/>
</g>
<!-- WORKFLOWINTERNALSOURCE_fileCoordsJ2000 -->
<g id="node83" class="node"><title>WORKFLOWINTERNALSOURCE_fileCoordsJ2000</title>
<polygon fill="skyblue" stroke="black" points="1132,-641.5 1046,-641.5 1046,-620.5 1132,-620.5 1132,-641.5"/>
<text text-anchor="middle" x="1089" y="-628.5" font-family="Helvetica,sans-Serif" font-size="10.00">fileCoordsJ2000</text>
</g>
<!-- WORKFLOWINTERNALSOURCE_fileCoordsJ2000&#45;&gt;Calculate_DistancesWORKFLOWINTERNALSOURCE_fileCoordsJ2000 -->
<g id="edge83" class="edge"><title>WORKFLOWINTERNALSOURCE_fileCoordsJ2000&#45;&gt;Calculate_DistancesWORKFLOWINTERNALSOURCE_fileCoordsJ2000</title>
<path fill="none" stroke="black" d="M1045.95,-630.617C884.863,-629.044 325.199,-622.281 292,-604 272.759,-593.405 259.828,-571.173 252.479,-554.796"/>
<polygon fill="black" stroke="black" points="255.689,-553.401 248.618,-545.511 249.226,-556.088 255.689,-553.401"/>
</g>
<!-- WORKFLOWINTERNALSOURCE_velocityFile -->
<g id="node84" class="node"><title>WORKFLOWINTERNALSOURCE_velocityFile</title>
<polygon fill="skyblue" stroke="black" points="1202,-641.5 1136,-641.5 1136,-620.5 1202,-620.5 1202,-641.5"/>
<text text-anchor="middle" x="1169" y="-628.5" font-family="Helvetica,sans-Serif" font-size="10.00">velocityFile</text>
</g>
<!-- WORKFLOWINTERNALSOURCE_velocityFile&#45;&gt;Calculate_BT_CorrectionWORKFLOWINTERNALSOURCE_velocity -->
<g id="edge75" class="edge"><title>WORKFLOWINTERNALSOURCE_velocityFile&#45;&gt;Calculate_BT_CorrectionWORKFLOWINTERNALSOURCE_velocity</title>
<path fill="none" stroke="black" d="M1177.32,-620.313C1180.87,-615.487 1184.89,-609.617 1188,-604 1196.73,-588.236 1204.51,-569.307 1209.81,-555.266"/>
<polygon fill="black" stroke="black" points="1213.19,-556.208 1213.35,-545.614 1206.62,-553.795 1213.19,-556.208"/>
</g>
<!-- WORKFLOWINTERNALSOURCE_velocityFile&#45;&gt;Calculate_DistancesWORKFLOWINTERNALSOURCE_velocity -->
<g id="edge85" class="edge"><title>WORKFLOWINTERNALSOURCE_velocityFile&#45;&gt;Calculate_DistancesWORKFLOWINTERNALSOURCE_velocity</title>
<path fill="none" stroke="black" d="M1152.34,-620.363C1146.19,-617.011 1139.01,-613.733 1132,-612 1110.8,-606.761 364.124,-616.176 346,-604 330.05,-593.285 322.85,-571.926 319.614,-555.795"/>
<polygon fill="black" stroke="black" points="323.023,-554.957 317.948,-545.657 316.116,-556.093 323.023,-554.957"/>
</g>
<!-- WORKFLOWINTERNALSOURCE_agFile -->
<g id="node85" class="node"><title>WORKFLOWINTERNALSOURCE_agFile</title>
<polygon fill="skyblue" stroke="black" points="1354,-641.5 1312,-641.5 1312,-620.5 1354,-620.5 1354,-641.5"/>
<text text-anchor="middle" x="1333" y="-628.5" font-family="Helvetica,sans-Serif" font-size="10.00">agFile</text>
</g>
<!-- WORKFLOWINTERNALSOURCE_agFile&#45;&gt;Calculate_BT_CorrectionWORKFLOWINTERNALSOURCE_ag -->
<g id="edge77" class="edge"><title>WORKFLOWINTERNALSOURCE_agFile&#45;&gt;Calculate_BT_CorrectionWORKFLOWINTERNALSOURCE_ag</title>
<path fill="none" stroke="black" d="M1333,-620.36C1333,-604.862 1333,-575.766 1333,-555.893"/>
<polygon fill="black" stroke="black" points="1336.5,-555.688 1333,-545.688 1329.5,-555.688 1336.5,-555.688"/>
</g>
<!-- WORKFLOWINTERNALSOURCE_btFile -->
<g id="node86" class="node"><title>WORKFLOWINTERNALSOURCE_btFile</title>
<polygon fill="skyblue" stroke="black" points="1308,-641.5 1268,-641.5 1268,-620.5 1308,-620.5 1308,-641.5"/>
<text text-anchor="middle" x="1288" y="-628.5" font-family="Helvetica,sans-Serif" font-size="10.00">btFile</text>
</g>
<!-- WORKFLOWINTERNALSOURCE_btFile&#45;&gt;Calculate_BT_CorrectionWORKFLOWINTERNALSOURCE_bt -->
<g id="edge79" class="edge"><title>WORKFLOWINTERNALSOURCE_btFile&#45;&gt;Calculate_BT_CorrectionWORKFLOWINTERNALSOURCE_bt</title>
<path fill="none" stroke="black" d="M1289.77,-620.36C1292.37,-604.79 1297.25,-575.495 1300.56,-555.616"/>
<polygon fill="black" stroke="black" points="1304.03,-556.128 1302.22,-545.688 1297.12,-554.977 1304.03,-556.128"/>
</g>
<!-- WORKFLOWINTERNALSOURCE_logr25File -->
<g id="node87" class="node"><title>WORKFLOWINTERNALSOURCE_logr25File</title>
<polygon fill="skyblue" stroke="black" points="1264,-641.5 1206,-641.5 1206,-620.5 1264,-620.5 1264,-641.5"/>
<text text-anchor="middle" x="1235" y="-628.5" font-family="Helvetica,sans-Serif" font-size="10.00">logr25File</text>
</g>
<!-- WORKFLOWINTERNALSOURCE_logr25File&#45;&gt;Calculate_BT_CorrectionWORKFLOWINTERNALSOURCE_logr25 -->
<g id="edge81" class="edge"><title>WORKFLOWINTERNALSOURCE_logr25File&#45;&gt;Calculate_BT_CorrectionWORKFLOWINTERNALSOURCE_logr25</title>
<path fill="none" stroke="black" d="M1238.55,-620.36C1243.76,-604.718 1253.59,-575.223 1260.22,-555.341"/>
<polygon fill="black" stroke="black" points="1263.6,-556.282 1263.44,-545.688 1256.95,-554.068 1263.6,-556.282"/>
</g>
<!-- WORKFLOWINTERNALSINKCONTROL -->
<g id="node89" class="node"><title>WORKFLOWINTERNALSINKCONTROL</title>
<polygon fill="#66cd00" stroke="black" points="477,-20 484,-30.5 470,-30.5 477,-20"/>
</g>
</g>
</svg>
