<?xml version="1.0" encoding="UTF-8" standalone="no"?>
<!DOCTYPE svg PUBLIC "-//W3C//DTD SVG 1.1//EN"
 "http://www.w3.org/Graphics/SVG/1.1/DTD/svg11.dtd">
<!-- Generated by graphviz version 2.26.0 (20091210.2329)
 -->
<!-- Title: t2flow_graph Pages: 1 -->
<svg width="539pt" height="404pt"
 viewBox="0.00 0.00 539.00 404.00" xmlns="http://www.w3.org/2000/svg" xmlns:xlink="http://www.w3.org/1999/xlink">
<g id="graph1" class="graph" transform="scale(1 1) rotate(0) translate(4 400)">
<title>t2flow_graph</title>
<polygon fill="white" stroke="white" points="-4,5 -4,-400 536,-400 536,5 -4,5"/>
<g id="graph2" class="cluster"><title>cluster_sources</title>
<polygon fill="none" stroke="black" stroke-dasharray="1,5" points="428,-337 428,-388 516,-388 516,-337 428,-337"/>
<text text-anchor="middle" x="472" y="-375" font-family="Helvetica,sans-Serif" font-size="10.00">Workflow Inputs</text>
</g>
<g id="graph3" class="cluster"><title>cluster_sinks</title>
<polygon fill="none" stroke="black" stroke-dasharray="1,5" points="247,-8 247,-67 523,-67 523,-8 247,-8"/>
<text text-anchor="middle" x="294.5" y="-54" font-family="Helvetica,sans-Serif" font-size="10.00">Workflow Outputs</text>
</g>
<!-- CreateFasta -->
<g id="node1" class="node"><title>CreateFasta</title>
<polygon fill="#deb887" stroke="black" points="237,-248.5 167,-248.5 167,-227.5 237,-227.5 237,-248.5"/>
<text text-anchor="middle" x="202" y="-235.5" font-family="Helvetica,sans-Serif" font-size="10.00">CreateFasta</text>
</g>
<!-- seqret -->
<g id="node5" class="node"><title>seqret</title>
<polygon fill="#fafad2" stroke="black" points="229,-210.5 185,-210.5 185,-189.5 229,-189.5 229,-210.5"/>
<text text-anchor="middle" x="207" y="-197.5" font-family="Helvetica,sans-Serif" font-size="10.00">seqret</text>
</g>
<!-- CreateFasta&#45;&gt;seqret -->
<g id="edge18" class="edge"><title>CreateFasta&#45;&gt;seqret</title>
<path fill="none" stroke="black" d="M203.419,-227.212C203.686,-225.19 203.972,-223.013 204.263,-220.804"/>
<polygon fill="black" stroke="black" points="207.76,-221.054 205.594,-210.683 200.82,-220.141 207.76,-221.054"/>
</g>
<!-- GetUniqueHomolog -->
<g id="node2" class="node"><title>GetUniqueHomolog</title>
<polygon fill="#deb887" stroke="black" points="402,-324.5 300,-324.5 300,-303.5 402,-303.5 402,-324.5"/>
<text text-anchor="middle" x="351" y="-311.5" font-family="Helvetica,sans-Serif" font-size="10.00">GetUniqueHomolog</text>
</g>
<!-- hsapiens_gene_ensembl2 -->
<g id="node8" class="node"><title>hsapiens_gene_ensembl2</title>
<polygon fill="#d1eeee" stroke="black" points="128,-286.5 5.68434e-14,-286.5 0,-265.5 128,-265.5 128,-286.5"/>
<text text-anchor="middle" x="64" y="-273.5" font-family="Helvetica,sans-Serif" font-size="10.00">hsapiens_gene_ensembl2</text>
</g>
<!-- GetUniqueHomolog&#45;&gt;hsapiens_gene_ensembl2 -->
<g id="edge24" class="edge"><title>GetUniqueHomolog&#45;&gt;hsapiens_gene_ensembl2</title>
<path fill="none" stroke="black" d="M299.598,-308.217C257.601,-303.367 196.412,-296.018 138.136,-287.855"/>
<polygon fill="black" stroke="black" points="138.447,-284.365 128.056,-286.431 137.468,-291.296 138.447,-284.365"/>
</g>
<!-- mmusculus_gene_ensembl -->
<g id="node9" class="node"><title>mmusculus_gene_ensembl</title>
<polygon fill="#d1eeee" stroke="black" points="266,-286.5 132,-286.5 132,-265.5 266,-265.5 266,-286.5"/>
<text text-anchor="middle" x="199" y="-273.5" font-family="Helvetica,sans-Serif" font-size="10.00">mmusculus_gene_ensembl</text>
</g>
<!-- GetUniqueHomolog&#45;&gt;mmusculus_gene_ensembl -->
<g id="edge26" class="edge"><title>GetUniqueHomolog&#45;&gt;mmusculus_gene_ensembl</title>
<path fill="none" stroke="black" d="M308.66,-303.415C290.789,-298.947 269.807,-293.702 251.007,-289.002"/>
<polygon fill="black" stroke="black" points="251.664,-285.558 241.113,-286.528 249.966,-292.349 251.664,-285.558"/>
</g>
<!-- rnorvegicus_gene_ensembl -->
<g id="node10" class="node"><title>rnorvegicus_gene_ensembl</title>
<polygon fill="#d1eeee" stroke="black" points="404,-286.5 270,-286.5 270,-265.5 404,-265.5 404,-286.5"/>
<text text-anchor="middle" x="337" y="-273.5" font-family="Helvetica,sans-Serif" font-size="10.00">rnorvegicus_gene_ensembl</text>
</g>
<!-- GetUniqueHomolog&#45;&gt;rnorvegicus_gene_ensembl -->
<g id="edge28" class="edge"><title>GetUniqueHomolog&#45;&gt;rnorvegicus_gene_ensembl</title>
<path fill="none" stroke="black" d="M347.026,-303.212C346.221,-301.028 345.35,-298.664 344.469,-296.273"/>
<polygon fill="black" stroke="black" points="347.677,-294.857 340.936,-286.683 341.109,-297.277 347.677,-294.857"/>
</g>
<!-- WORKFLOWINTERNALSINK_HSapIDs -->
<g id="node16" class="node"><title>WORKFLOWINTERNALSINK_HSapIDs</title>
<polygon fill="#bcd2ee" stroke="black" points="375,-37.5 319,-37.5 319,-16.5 375,-16.5 375,-37.5"/>
<text text-anchor="middle" x="347" y="-24.5" font-family="Helvetica,sans-Serif" font-size="10.00">HSapIDs</text>
</g>
<!-- GetUniqueHomolog&#45;&gt;WORKFLOWINTERNALSINK_HSapIDs -->
<g id="edge32" class="edge"><title>GetUniqueHomolog&#45;&gt;WORKFLOWINTERNALSINK_HSapIDs</title>
<path fill="none" stroke="black" d="M383.793,-303.369C391.514,-299.388 398.955,-294.056 404,-287 416.796,-269.105 411,-259.999 411,-238 411,-238 411,-238 411,-124 411,-115.021 380.055,-71.6277 361.2,-46.022"/>
<polygon fill="black" stroke="black" points="363.87,-43.7458 355.106,-37.7923 358.244,-47.9116 363.87,-43.7458"/>
</g>
<!-- WORKFLOWINTERNALSINK_MMusIDs -->
<g id="node17" class="node"><title>WORKFLOWINTERNALSINK_MMusIDs</title>
<polygon fill="#bcd2ee" stroke="black" points="437,-37.5 379,-37.5 379,-16.5 437,-16.5 437,-37.5"/>
<text text-anchor="middle" x="408" y="-24.5" font-family="Helvetica,sans-Serif" font-size="10.00">MMusIDs</text>
</g>
<!-- GetUniqueHomolog&#45;&gt;WORKFLOWINTERNALSINK_MMusIDs -->
<g id="edge34" class="edge"><title>GetUniqueHomolog&#45;&gt;WORKFLOWINTERNALSINK_MMusIDs</title>
<path fill="none" stroke="black" d="M390.032,-303.429C398.356,-299.505 406.334,-294.183 412,-287 425.713,-269.615 421,-260.142 421,-238 421,-238 421,-238 421,-124 421,-97.4584 416.16,-67.1909 412.386,-47.6271"/>
<polygon fill="black" stroke="black" points="415.792,-46.8133 410.384,-37.7026 408.93,-48.1972 415.792,-46.8133"/>
</g>
<!-- WORKFLOWINTERNALSINK_RNorIDs -->
<g id="node18" class="node"><title>WORKFLOWINTERNALSINK_RNorIDs</title>
<polygon fill="#bcd2ee" stroke="black" points="497,-37.5 441,-37.5 441,-16.5 497,-16.5 497,-37.5"/>
<text text-anchor="middle" x="469" y="-24.5" font-family="Helvetica,sans-Serif" font-size="10.00">RNorIDs</text>
</g>
<!-- GetUniqueHomolog&#45;&gt;WORKFLOWINTERNALSINK_RNorIDs -->
<g id="edge36" class="edge"><title>GetUniqueHomolog&#45;&gt;WORKFLOWINTERNALSINK_RNorIDs</title>
<path fill="none" stroke="black" d="M388.907,-303.498C418.983,-292.584 456,-272.205 456,-238 456,-238 456,-238 456,-124 456,-97.4584 460.84,-67.1909 464.614,-47.6271"/>
<polygon fill="black" stroke="black" points="468.07,-48.1972 466.616,-37.7026 461.208,-46.8133 468.07,-48.1972"/>
</g>
<!-- hsapiens_gene_ensembl -->
<g id="node3" class="node"><title>hsapiens_gene_ensembl</title>
<polygon fill="#d1eeee" stroke="black" points="413,-362.5 289,-362.5 289,-341.5 413,-341.5 413,-362.5"/>
<text text-anchor="middle" x="351" y="-349.5" font-family="Helvetica,sans-Serif" font-size="10.00">hsapiens_gene_ensembl</text>
</g>
<!-- hsapiens_gene_ensembl&#45;&gt;GetUniqueHomolog -->
<g id="edge10" class="edge"><title>hsapiens_gene_ensembl&#45;&gt;GetUniqueHomolog</title>
<path fill="none" stroke="black" d="M348.264,-341.212C348.126,-339.19 348.042,-337.013 348.012,-334.804"/>
<polygon fill="black" stroke="black" points="351.514,-334.77 348.272,-324.683 344.516,-334.59 351.514,-334.77"/>
</g>
<!-- hsapiens_gene_ensembl&#45;&gt;GetUniqueHomolog -->
<g id="edge12" class="edge"><title>hsapiens_gene_ensembl&#45;&gt;GetUniqueHomolog</title>
<path fill="none" stroke="black" d="M351,-341.212C351,-339.19 351,-337.013 351,-334.804"/>
<polygon fill="black" stroke="black" points="354.5,-334.683 351,-324.683 347.5,-334.683 354.5,-334.683"/>
</g>
<!-- hsapiens_gene_ensembl&#45;&gt;GetUniqueHomolog -->
<g id="edge14" class="edge"><title>hsapiens_gene_ensembl&#45;&gt;GetUniqueHomolog</title>
<path fill="none" stroke="black" d="M353.736,-341.212C353.874,-339.19 353.958,-337.013 353.988,-334.804"/>
<polygon fill="black" stroke="black" points="357.484,-334.59 353.728,-324.683 350.486,-334.77 357.484,-334.59"/>
</g>
<!-- FlattenImageList -->
<g id="node4" class="node"><title>FlattenImageList</title>
<polygon fill="#d15fee" stroke="black" points="326,-96.5 238,-96.5 238,-75.5 326,-75.5 326,-96.5"/>
<text text-anchor="middle" x="282" y="-83.5" font-family="Helvetica,sans-Serif" font-size="10.00">FlattenImageList</text>
</g>
<!-- WORKFLOWINTERNALSINK_outputPlot -->
<g id="node15" class="node"><title>WORKFLOWINTERNALSINK_outputPlot</title>
<polygon fill="#bcd2ee" stroke="black" points="315,-37.5 255,-37.5 255,-16.5 315,-16.5 315,-37.5"/>
<text text-anchor="middle" x="285" y="-24.5" font-family="Helvetica,sans-Serif" font-size="10.00">outputPlot</text>
</g>
<!-- FlattenImageList&#45;&gt;WORKFLOWINTERNALSINK_outputPlot -->
<g id="edge30" class="edge"><title>FlattenImageList&#45;&gt;WORKFLOWINTERNALSINK_outputPlot</title>
<path fill="none" stroke="black" d="M282.536,-75.452C282.924,-67.8285 283.461,-57.2768 283.934,-47.966"/>
<polygon fill="black" stroke="black" points="287.436,-48.0207 284.448,-37.8559 280.445,-47.6652 287.436,-48.0207"/>
</g>
<!-- emma -->
<g id="node6" class="node"><title>emma</title>
<polygon fill="#fafad2" stroke="black" points="240,-172.5 196,-172.5 196,-151.5 240,-151.5 240,-172.5"/>
<text text-anchor="middle" x="218" y="-159.5" font-family="Helvetica,sans-Serif" font-size="10.00">emma</text>
</g>
<!-- seqret&#45;&gt;emma -->
<g id="edge20" class="edge"><title>seqret&#45;&gt;emma</title>
<path fill="none" stroke="black" d="M210.123,-189.212C210.732,-187.109 211.389,-184.839 212.055,-182.538"/>
<polygon fill="black" stroke="black" points="215.489,-183.262 214.908,-172.683 208.765,-181.315 215.489,-183.262"/>
</g>
<!-- plot -->
<g id="node7" class="node"><title>plot</title>
<polygon fill="#fafad2" stroke="black" points="255,-134.5 223,-134.5 223,-113.5 255,-113.5 255,-134.5"/>
<text text-anchor="middle" x="239" y="-121.5" font-family="Helvetica,sans-Serif" font-size="10.00">plot</text>
</g>
<!-- emma&#45;&gt;plot -->
<g id="edge22" class="edge"><title>emma&#45;&gt;plot</title>
<path fill="none" stroke="black" d="M223.962,-151.212C225.303,-148.785 226.767,-146.136 228.238,-143.475"/>
<polygon fill="black" stroke="black" points="231.323,-145.128 233.096,-134.683 225.196,-141.743 231.323,-145.128"/>
</g>
<!-- plot&#45;&gt;FlattenImageList -->
<g id="edge16" class="edge"><title>plot&#45;&gt;FlattenImageList</title>
<path fill="none" stroke="black" d="M251.207,-113.212C254.686,-110.138 258.568,-106.708 262.37,-103.347"/>
<polygon fill="black" stroke="black" points="264.736,-105.928 269.911,-96.6831 260.1,-100.682 264.736,-105.928"/>
</g>
<!-- hsapiens_gene_ensembl2&#45;&gt;CreateFasta -->
<g id="edge8" class="edge"><title>hsapiens_gene_ensembl2&#45;&gt;CreateFasta</title>
<path fill="none" stroke="black" d="M102.441,-265.415C119.241,-260.789 139.07,-255.328 156.592,-250.504"/>
<polygon fill="black" stroke="black" points="157.89,-253.777 166.602,-247.747 156.031,-247.028 157.89,-253.777"/>
</g>
<!-- mmusculus_gene_ensembl&#45;&gt;CreateFasta -->
<g id="edge6" class="edge"><title>mmusculus_gene_ensembl&#45;&gt;CreateFasta</title>
<path fill="none" stroke="black" d="M199.852,-265.212C200.011,-263.19 200.183,-261.013 200.358,-258.804"/>
<polygon fill="black" stroke="black" points="203.859,-258.928 201.157,-248.683 196.88,-258.377 203.859,-258.928"/>
</g>
<!-- rnorvegicus_gene_ensembl&#45;&gt;CreateFasta -->
<g id="edge4" class="edge"><title>rnorvegicus_gene_ensembl&#45;&gt;CreateFasta</title>
<path fill="none" stroke="black" d="M299.395,-265.415C283.09,-260.825 263.869,-255.415 246.829,-250.619"/>
<polygon fill="black" stroke="black" points="247.661,-247.217 237.087,-247.876 245.765,-253.955 247.661,-247.217"/>
</g>
<!-- WORKFLOWINTERNALSOURCECONTROL -->
<g id="node12" class="node"><title>WORKFLOWINTERNALSOURCECONTROL</title>
<polygon fill="#ff4040" stroke="black" points="472,-359 465,-348.5 479,-348.5 472,-359"/>
</g>
<!-- WORKFLOWINTERNALSINKCONTROL -->
<g id="node14" class="node"><title>WORKFLOWINTERNALSINKCONTROL</title>
<polygon fill="#66cd00" stroke="black" points="508,-20 515,-30.5 501,-30.5 508,-20"/>
</g>
</g>
</svg>
