<?xml version="1.0" encoding="UTF-8" standalone="no"?>
<!DOCTYPE svg PUBLIC "-//W3C//DTD SVG 1.1//EN"
 "http://www.w3.org/Graphics/SVG/1.1/DTD/svg11.dtd">
<!-- Generated by graphviz version 2.26.0 (20091210.2329)
 -->
<!-- Title: t2flow_graph Pages: 1 -->
<svg width="1089pt" height="522pt"
 viewBox="0.00 0.00 1089.00 522.00" xmlns="http://www.w3.org/2000/svg" xmlns:xlink="http://www.w3.org/1999/xlink">
<g id="graph1" class="graph" transform="scale(1 1) rotate(0) translate(4 518)">
<title>t2flow_graph</title>
<polygon fill="white" stroke="white" points="-4,5 -4,-518 1086,-518 1086,5 -4,5"/>
<g id="graph2" class="cluster"><title>cluster_sources</title>
<polygon fill="none" stroke="black" stroke-dasharray="1,5" points="647,-447 647,-506 735,-506 735,-447 647,-447"/>
<text text-anchor="middle" x="691" y="-493" font-family="Helvetica,sans-Serif" font-size="10.00">Workflow Inputs</text>
</g>
<g id="graph3" class="cluster"><title>cluster_sinks</title>
<polygon fill="none" stroke="black" stroke-dasharray="1,5" points="265,-8 265,-67 765,-67 765,-8 265,-8"/>
<text text-anchor="middle" x="312.5" y="-54" font-family="Helvetica,sans-Serif" font-size="10.00">Workflow Outputs</text>
</g>
<!-- ExecuteProcess_r.watershed -->
<g id="node1" class="node"><title>ExecuteProcess_r.watershed</title>
<polygon fill="#a2cd5a" stroke="black" points="621,-400.5 477,-400.5 477,-379.5 621,-379.5 621,-400.5"/>
<text text-anchor="middle" x="549" y="-387.5" font-family="Helvetica,sans-Serif" font-size="10.00">ExecuteProcess_r.watershed</text>
</g>
<!-- ExecuteProcess_r.watershed_ProcessOutputs -->
<g id="node4" class="node"><title>ExecuteProcess_r.watershed_ProcessOutputs</title>
<polygon fill="#ab92ea" stroke="black" points="651,-362.5 431,-362.5 431,-341.5 651,-341.5 651,-362.5"/>
<text text-anchor="middle" x="541" y="-349.5" font-family="Helvetica,sans-Serif" font-size="10.00">ExecuteProcess_r.watershed_ProcessOutputs</text>
</g>
<!-- ExecuteProcess_r.watershed&#45;&gt;ExecuteProcess_r.watershed_ProcessOutputs -->
<g id="edge10" class="edge"><title>ExecuteProcess_r.watershed&#45;&gt;ExecuteProcess_r.watershed_ProcessOutputs</title>
<path fill="none" stroke="black" d="M546.729,-379.212C546.286,-377.109 545.808,-374.839 545.324,-372.538"/>
<polygon fill="black" stroke="black" points="548.734,-371.748 543.249,-362.683 541.884,-373.19 548.734,-371.748"/>
</g>
<!-- ExecuteProcess_r.watershed_DataInputs -->
<g id="node2" class="node"><title>ExecuteProcess_r.watershed_DataInputs</title>
<polygon fill="#ab92ea" stroke="black" points="664,-438.5 466,-438.5 466,-417.5 664,-417.5 664,-438.5"/>
<text text-anchor="middle" x="565" y="-425.5" font-family="Helvetica,sans-Serif" font-size="10.00">ExecuteProcess_r.watershed_DataInputs</text>
</g>
<!-- ExecuteProcess_r.watershed_DataInputs&#45;&gt;ExecuteProcess_r.watershed -->
<g id="edge4" class="edge"><title>ExecuteProcess_r.watershed_DataInputs&#45;&gt;ExecuteProcess_r.watershed</title>
<path fill="none" stroke="black" d="M560.458,-417.212C559.504,-414.947 558.469,-412.488 557.424,-410.007"/>
<polygon fill="black" stroke="black" points="560.604,-408.541 553.498,-400.683 554.153,-411.258 560.604,-408.541"/>
</g>
<!-- threshold_value -->
<g id="node3" class="node"><title>threshold_value</title>
<polygon fill="#b0c4de" stroke="black" points="607,-476.5 523,-476.5 523,-455.5 607,-455.5 607,-476.5"/>
<text text-anchor="middle" x="565" y="-463.5" font-family="Helvetica,sans-Serif" font-size="10.00">threshold_value</text>
</g>
<!-- threshold_value&#45;&gt;ExecuteProcess_r.watershed_DataInputs -->
<g id="edge6" class="edge"><title>threshold_value&#45;&gt;ExecuteProcess_r.watershed_DataInputs</title>
<path fill="none" stroke="black" d="M565,-455.212C565,-453.19 565,-451.013 565,-448.804"/>
<polygon fill="black" stroke="black" points="568.5,-448.683 565,-438.683 561.5,-448.683 568.5,-448.683"/>
</g>
<!-- ExecuteProcess_geotiff2png_DataInputs -->
<g id="node6" class="node"><title>ExecuteProcess_geotiff2png_DataInputs</title>
<polygon fill="#ab92ea" stroke="black" points="631,-210.5 437,-210.5 437,-189.5 631,-189.5 631,-210.5"/>
<text text-anchor="middle" x="534" y="-197.5" font-family="Helvetica,sans-Serif" font-size="10.00">ExecuteProcess_geotiff2png_DataInputs</text>
</g>
<!-- ExecuteProcess_r.watershed_ProcessOutputs&#45;&gt;ExecuteProcess_geotiff2png_DataInputs -->
<g id="edge14" class="edge"><title>ExecuteProcess_r.watershed_ProcessOutputs&#45;&gt;ExecuteProcess_geotiff2png_DataInputs</title>
<path fill="none" stroke="black" d="M587.506,-341.459C602.957,-336.954 617.408,-331.283 622,-325 647.701,-289.832 648.947,-261.986 623,-227 619.129,-221.781 608.895,-217.175 596.682,-213.312"/>
<polygon fill="black" stroke="black" points="597.609,-209.937 587.029,-210.505 595.654,-216.658 597.609,-209.937"/>
</g>
<!-- ExecuteProcess_r.thin_DataInputs -->
<g id="node11" class="node"><title>ExecuteProcess_r.thin_DataInputs</title>
<polygon fill="#ab92ea" stroke="black" points="426,-286.5 258,-286.5 258,-265.5 426,-265.5 426,-286.5"/>
<text text-anchor="middle" x="342" y="-273.5" font-family="Helvetica,sans-Serif" font-size="10.00">ExecuteProcess_r.thin_DataInputs</text>
</g>
<!-- ExecuteProcess_r.watershed_ProcessOutputs&#45;&gt;ExecuteProcess_r.thin_DataInputs -->
<g id="edge22" class="edge"><title>ExecuteProcess_r.watershed_ProcessOutputs&#45;&gt;ExecuteProcess_r.thin_DataInputs</title>
<path fill="none" stroke="black" d="M465.401,-341.499C447.46,-337.568 428.694,-332.226 412,-325 393.685,-317.072 375.289,-303.945 361.954,-293.272"/>
<polygon fill="black" stroke="black" points="363.916,-290.353 353.973,-286.692 359.462,-295.754 363.916,-290.353"/>
</g>
<!-- ExecuteProcess_r.to.vect_DataInputs -->
<g id="node15" class="node"><title>ExecuteProcess_r.to.vect_DataInputs</title>
<polygon fill="#ab92ea" stroke="black" points="182,-172.5 8.52651e-14,-172.5 0,-151.5 182,-151.5 182,-172.5"/>
<text text-anchor="middle" x="91" y="-159.5" font-family="Helvetica,sans-Serif" font-size="10.00">ExecuteProcess_r.to.vect_DataInputs</text>
</g>
<!-- ExecuteProcess_r.watershed_ProcessOutputs&#45;&gt;ExecuteProcess_r.to.vect_DataInputs -->
<g id="edge32" class="edge"><title>ExecuteProcess_r.watershed_ProcessOutputs&#45;&gt;ExecuteProcess_r.to.vect_DataInputs</title>
<path fill="none" stroke="black" d="M430.961,-344.163C297.454,-333.139 90,-310.466 90,-276 90,-276 90,-276 90,-238 90,-219.493 90.3001,-198.454 90.5716,-183.211"/>
<polygon fill="black" stroke="black" points="94.0782,-182.887 90.7681,-172.823 87.0795,-182.755 94.0782,-182.887"/>
</g>
<!-- ExecuteProcess_r.colors_DataInputs -->
<g id="node22" class="node"><title>ExecuteProcess_r.colors_DataInputs</title>
<polygon fill="#ab92ea" stroke="black" points="818,-324.5 640,-324.5 640,-303.5 818,-303.5 818,-324.5"/>
<text text-anchor="middle" x="729" y="-311.5" font-family="Helvetica,sans-Serif" font-size="10.00">ExecuteProcess_r.colors_DataInputs</text>
</g>
<!-- ExecuteProcess_r.watershed_ProcessOutputs&#45;&gt;ExecuteProcess_r.colors_DataInputs -->
<g id="edge44" class="edge"><title>ExecuteProcess_r.watershed_ProcessOutputs&#45;&gt;ExecuteProcess_r.colors_DataInputs</title>
<path fill="none" stroke="black" d="M593.368,-341.415C616.185,-336.803 643.101,-331.363 666.917,-326.549"/>
<polygon fill="black" stroke="black" points="667.804,-329.94 676.912,-324.528 666.417,-323.079 667.804,-329.94"/>
</g>
<!-- ExecuteProcess_geotiff2png_4_DataInputs -->
<g id="node34" class="node"><title>ExecuteProcess_geotiff2png_4_DataInputs</title>
<polygon fill="#ab92ea" stroke="black" points="620,-324.5 414,-324.5 414,-303.5 620,-303.5 620,-324.5"/>
<text text-anchor="middle" x="517" y="-311.5" font-family="Helvetica,sans-Serif" font-size="10.00">ExecuteProcess_geotiff2png_4_DataInputs</text>
</g>
<!-- ExecuteProcess_r.watershed_ProcessOutputs&#45;&gt;ExecuteProcess_geotiff2png_4_DataInputs -->
<g id="edge66" class="edge"><title>ExecuteProcess_r.watershed_ProcessOutputs&#45;&gt;ExecuteProcess_geotiff2png_4_DataInputs</title>
<path fill="none" stroke="black" d="M534.187,-341.212C532.603,-338.704 530.869,-335.959 529.132,-333.209"/>
<polygon fill="black" stroke="black" points="532.046,-331.269 523.747,-324.683 526.128,-335.007 532.046,-331.269"/>
</g>
<!-- ExecuteProcess_geotiff2png -->
<g id="node5" class="node"><title>ExecuteProcess_geotiff2png</title>
<polygon fill="#a2cd5a" stroke="black" points="594,-172.5 452,-172.5 452,-151.5 594,-151.5 594,-172.5"/>
<text text-anchor="middle" x="523" y="-159.5" font-family="Helvetica,sans-Serif" font-size="10.00">ExecuteProcess_geotiff2png</text>
</g>
<!-- ExecuteProcess_geotiff2png_ProcessOutputs -->
<g id="node8" class="node"><title>ExecuteProcess_geotiff2png_ProcessOutputs</title>
<polygon fill="#ab92ea" stroke="black" points="617,-134.5 399,-134.5 399,-113.5 617,-113.5 617,-134.5"/>
<text text-anchor="middle" x="508" y="-121.5" font-family="Helvetica,sans-Serif" font-size="10.00">ExecuteProcess_geotiff2png_ProcessOutputs</text>
</g>
<!-- ExecuteProcess_geotiff2png&#45;&gt;ExecuteProcess_geotiff2png_ProcessOutputs -->
<g id="edge18" class="edge"><title>ExecuteProcess_geotiff2png&#45;&gt;ExecuteProcess_geotiff2png_ProcessOutputs</title>
<path fill="none" stroke="black" d="M518.742,-151.212C517.847,-148.947 516.877,-146.488 515.897,-144.007"/>
<polygon fill="black" stroke="black" points="519.144,-142.7 512.217,-134.683 512.633,-145.27 519.144,-142.7"/>
</g>
<!-- ExecuteProcess_geotiff2png_DataInputs&#45;&gt;ExecuteProcess_geotiff2png -->
<g id="edge12" class="edge"><title>ExecuteProcess_geotiff2png_DataInputs&#45;&gt;ExecuteProcess_geotiff2png</title>
<path fill="none" stroke="black" d="M530.877,-189.212C530.268,-187.109 529.611,-184.839 528.945,-182.538"/>
<polygon fill="black" stroke="black" points="532.235,-181.315 526.092,-172.683 525.511,-183.262 532.235,-181.315"/>
</g>
<!-- Decode_Base_64_to_byte_Array -->
<g id="node7" class="node"><title>Decode_Base_64_to_byte_Array</title>
<polygon fill="#d15fee" stroke="black" points="643,-96.5 483,-96.5 483,-75.5 643,-75.5 643,-96.5"/>
<text text-anchor="middle" x="563" y="-83.5" font-family="Helvetica,sans-Serif" font-size="10.00">Decode_Base_64_to_byte_Array</text>
</g>
<!-- WORKFLOWINTERNALSINK_outBasinPNG -->
<g id="node41" class="node"><title>WORKFLOWINTERNALSINK_outBasinPNG</title>
<polygon fill="#bcd2ee" stroke="black" points="573,-37.5 497,-37.5 497,-16.5 573,-16.5 573,-37.5"/>
<text text-anchor="middle" x="535" y="-24.5" font-family="Helvetica,sans-Serif" font-size="10.00">outBasinPNG</text>
</g>
<!-- Decode_Base_64_to_byte_Array&#45;&gt;WORKFLOWINTERNALSINK_outBasinPNG -->
<g id="edge74" class="edge"><title>Decode_Base_64_to_byte_Array&#45;&gt;WORKFLOWINTERNALSINK_outBasinPNG</title>
<path fill="none" stroke="black" d="M557.994,-75.452C554.258,-67.5799 549.041,-56.5855 544.52,-47.0593"/>
<polygon fill="black" stroke="black" points="547.601,-45.3895 540.152,-37.8559 541.277,-48.3908 547.601,-45.3895"/>
</g>
<!-- ExecuteProcess_geotiff2png_ProcessOutputs&#45;&gt;Decode_Base_64_to_byte_Array -->
<g id="edge16" class="edge"><title>ExecuteProcess_geotiff2png_ProcessOutputs&#45;&gt;Decode_Base_64_to_byte_Array</title>
<path fill="none" stroke="black" d="M523.321,-113.415C528.327,-109.956 534.008,-106.031 539.475,-102.254"/>
<polygon fill="black" stroke="black" points="541.524,-105.092 547.762,-96.5284 537.545,-99.3332 541.524,-105.092"/>
</g>
<!-- XPath_Service -->
<g id="node9" class="node"><title>XPath_Service</title>
<polygon fill="#e6ff5e" stroke="black" points="180,-96.5 98,-96.5 98,-75.5 180,-75.5 180,-96.5"/>
<text text-anchor="middle" x="139" y="-83.5" font-family="Helvetica,sans-Serif" font-size="10.00">XPath_Service</text>
</g>
<!-- WORKFLOWINTERNALSINK_outBasinGML -->
<g id="node42" class="node"><title>WORKFLOWINTERNALSINK_outBasinGML</title>
<polygon fill="#bcd2ee" stroke="black" points="349,-37.5 273,-37.5 273,-16.5 349,-16.5 349,-37.5"/>
<text text-anchor="middle" x="311" y="-24.5" font-family="Helvetica,sans-Serif" font-size="10.00">outBasinGML</text>
</g>
<!-- XPath_Service&#45;&gt;WORKFLOWINTERNALSINK_outBasinGML -->
<g id="edge76" class="edge"><title>XPath_Service&#45;&gt;WORKFLOWINTERNALSINK_outBasinGML</title>
<path fill="none" stroke="black" d="M169.75,-75.452C197.913,-65.7915 239.784,-51.4288 270.63,-40.8477"/>
<polygon fill="black" stroke="black" points="271.903,-44.1114 280.227,-37.556 269.632,-37.4901 271.903,-44.1114"/>
</g>
<!-- ExecuteProcess_r.thin -->
<g id="node10" class="node"><title>ExecuteProcess_r.thin</title>
<polygon fill="#a2cd5a" stroke="black" points="391,-248.5 275,-248.5 275,-227.5 391,-227.5 391,-248.5"/>
<text text-anchor="middle" x="333" y="-235.5" font-family="Helvetica,sans-Serif" font-size="10.00">ExecuteProcess_r.thin</text>
</g>
<!-- ExecuteProcess_r.thin_ProcessOutputs -->
<g id="node12" class="node"><title>ExecuteProcess_r.thin_ProcessOutputs</title>
<polygon fill="#ab92ea" stroke="black" points="433,-210.5 243,-210.5 243,-189.5 433,-189.5 433,-210.5"/>
<text text-anchor="middle" x="338" y="-197.5" font-family="Helvetica,sans-Serif" font-size="10.00">ExecuteProcess_r.thin_ProcessOutputs</text>
</g>
<!-- ExecuteProcess_r.thin&#45;&gt;ExecuteProcess_r.thin_ProcessOutputs -->
<g id="edge24" class="edge"><title>ExecuteProcess_r.thin&#45;&gt;ExecuteProcess_r.thin_ProcessOutputs</title>
<path fill="none" stroke="black" d="M334.419,-227.212C334.686,-225.19 334.972,-223.013 335.263,-220.804"/>
<polygon fill="black" stroke="black" points="338.76,-221.054 336.594,-210.683 331.82,-220.141 338.76,-221.054"/>
</g>
<!-- ExecuteProcess_r.thin_DataInputs&#45;&gt;ExecuteProcess_r.thin -->
<g id="edge20" class="edge"><title>ExecuteProcess_r.thin_DataInputs&#45;&gt;ExecuteProcess_r.thin</title>
<path fill="none" stroke="black" d="M339.445,-265.212C338.947,-263.109 338.409,-260.839 337.864,-258.538"/>
<polygon fill="black" stroke="black" points="341.241,-257.607 335.53,-248.683 334.429,-259.221 341.241,-257.607"/>
</g>
<!-- Decode_Base_64_to_byte_Array_2 -->
<g id="node13" class="node"><title>Decode_Base_64_to_byte_Array_2</title>
<polygon fill="#d15fee" stroke="black" points="479,-96.5 309,-96.5 309,-75.5 479,-75.5 479,-96.5"/>
<text text-anchor="middle" x="394" y="-83.5" font-family="Helvetica,sans-Serif" font-size="10.00">Decode_Base_64_to_byte_Array_2</text>
</g>
<!-- ExecuteProcess_r.thin_ProcessOutputs&#45;&gt;Decode_Base_64_to_byte_Array_2 -->
<g id="edge26" class="edge"><title>ExecuteProcess_r.thin_ProcessOutputs&#45;&gt;Decode_Base_64_to_byte_Array_2</title>
<path fill="none" stroke="black" d="M363.484,-189.453C370.539,-185.331 377.49,-179.903 382,-173 394.906,-153.246 396.594,-125.582 395.91,-106.79"/>
<polygon fill="black" stroke="black" points="399.392,-106.395 395.278,-96.6318 392.406,-106.83 399.392,-106.395"/>
</g>
<!-- ExecuteProcess_r.to.vect_2_DataInputs -->
<g id="node30" class="node"><title>ExecuteProcess_r.to.vect_2_DataInputs</title>
<polygon fill="#ab92ea" stroke="black" points="380,-172.5 186,-172.5 186,-151.5 380,-151.5 380,-172.5"/>
<text text-anchor="middle" x="283" y="-159.5" font-family="Helvetica,sans-Serif" font-size="10.00">ExecuteProcess_r.to.vect_2_DataInputs</text>
</g>
<!-- ExecuteProcess_r.thin_ProcessOutputs&#45;&gt;ExecuteProcess_r.to.vect_2_DataInputs -->
<g id="edge60" class="edge"><title>ExecuteProcess_r.thin_ProcessOutputs&#45;&gt;ExecuteProcess_r.to.vect_2_DataInputs</title>
<path fill="none" stroke="black" d="M322.679,-189.415C317.673,-185.956 311.992,-182.031 306.525,-178.254"/>
<polygon fill="black" stroke="black" points="308.455,-175.333 298.238,-172.528 304.476,-181.092 308.455,-175.333"/>
</g>
<!-- WORKFLOWINTERNALSINK_streamPNG -->
<g id="node43" class="node"><title>WORKFLOWINTERNALSINK_streamPNG</title>
<polygon fill="#bcd2ee" stroke="black" points="493,-37.5 425,-37.5 425,-16.5 493,-16.5 493,-37.5"/>
<text text-anchor="middle" x="459" y="-24.5" font-family="Helvetica,sans-Serif" font-size="10.00">streamPNG</text>
</g>
<!-- Decode_Base_64_to_byte_Array_2&#45;&gt;WORKFLOWINTERNALSINK_streamPNG -->
<g id="edge78" class="edge"><title>Decode_Base_64_to_byte_Array_2&#45;&gt;WORKFLOWINTERNALSINK_streamPNG</title>
<path fill="none" stroke="black" d="M410.099,-75.4539C413.787,-72.8264 417.616,-69.9214 421,-67 428.609,-60.4319 436.365,-52.5274 442.869,-45.4857"/>
<polygon fill="black" stroke="black" points="445.749,-47.5184 449.845,-37.7475 440.549,-42.8312 445.749,-47.5184"/>
</g>
<!-- ExecuteProcess_r.to.vect -->
<g id="node14" class="node"><title>ExecuteProcess_r.to.vect</title>
<polygon fill="#a2cd5a" stroke="black" points="175,-134.5 45,-134.5 45,-113.5 175,-113.5 175,-134.5"/>
<text text-anchor="middle" x="110" y="-121.5" font-family="Helvetica,sans-Serif" font-size="10.00">ExecuteProcess_r.to.vect</text>
</g>
<!-- ExecuteProcess_r.to.vect&#45;&gt;XPath_Service -->
<g id="edge70" class="edge"><title>ExecuteProcess_r.to.vect&#45;&gt;XPath_Service</title>
<path fill="none" stroke="black" d="M118.233,-113.212C120.27,-110.542 122.513,-107.604 124.747,-104.676"/>
<polygon fill="black" stroke="black" points="127.563,-106.756 130.847,-96.6831 121.998,-102.509 127.563,-106.756"/>
</g>
<!-- ExecuteProcess_r.to.vect_DataInputs&#45;&gt;ExecuteProcess_r.to.vect -->
<g id="edge28" class="edge"><title>ExecuteProcess_r.to.vect_DataInputs&#45;&gt;ExecuteProcess_r.to.vect</title>
<path fill="none" stroke="black" d="M96.3938,-151.212C97.567,-148.866 98.8437,-146.313 100.129,-143.741"/>
<polygon fill="black" stroke="black" points="103.317,-145.193 104.658,-134.683 97.0558,-142.062 103.317,-145.193"/>
</g>
<!-- type_value_1 -->
<g id="node16" class="node"><title>type_value_1</title>
<polygon fill="#b0c4de" stroke="black" points="171,-210.5 97,-210.5 97,-189.5 171,-189.5 171,-210.5"/>
<text text-anchor="middle" x="134" y="-197.5" font-family="Helvetica,sans-Serif" font-size="10.00">type_value_1</text>
</g>
<!-- type_value_1&#45;&gt;ExecuteProcess_r.to.vect_DataInputs -->
<g id="edge30" class="edge"><title>type_value_1&#45;&gt;ExecuteProcess_r.to.vect_DataInputs</title>
<path fill="none" stroke="black" d="M121.793,-189.212C118.314,-186.138 114.432,-182.708 110.63,-179.347"/>
<polygon fill="black" stroke="black" points="112.9,-176.682 103.089,-172.683 108.264,-181.928 112.9,-176.682"/>
</g>
<!-- ExecuteProcess_geotiff2png_2 -->
<g id="node17" class="node"><title>ExecuteProcess_geotiff2png_2</title>
<polygon fill="#a2cd5a" stroke="black" points="1039,-172.5 887,-172.5 887,-151.5 1039,-151.5 1039,-172.5"/>
<text text-anchor="middle" x="963" y="-159.5" font-family="Helvetica,sans-Serif" font-size="10.00">ExecuteProcess_geotiff2png_2</text>
</g>
<!-- ExecuteProcess_geotiff2png_2_ProcessOutputs -->
<g id="node19" class="node"><title>ExecuteProcess_geotiff2png_2_ProcessOutputs</title>
<polygon fill="#ab92ea" stroke="black" points="1081,-134.5 853,-134.5 853,-113.5 1081,-113.5 1081,-134.5"/>
<text text-anchor="middle" x="967" y="-121.5" font-family="Helvetica,sans-Serif" font-size="10.00">ExecuteProcess_geotiff2png_2_ProcessOutputs</text>
</g>
<!-- ExecuteProcess_geotiff2png_2&#45;&gt;ExecuteProcess_geotiff2png_2_ProcessOutputs -->
<g id="edge38" class="edge"><title>ExecuteProcess_geotiff2png_2&#45;&gt;ExecuteProcess_geotiff2png_2_ProcessOutputs</title>
<path fill="none" stroke="black" d="M964.136,-151.212C964.348,-149.19 964.578,-147.013 964.81,-144.804"/>
<polygon fill="black" stroke="black" points="968.309,-144.995 965.875,-134.683 961.348,-144.262 968.309,-144.995"/>
</g>
<!-- ExecuteProcess_geotiff2png_2_DataInputs -->
<g id="node18" class="node"><title>ExecuteProcess_geotiff2png_2_DataInputs</title>
<polygon fill="#ab92ea" stroke="black" points="1062,-210.5 856,-210.5 856,-189.5 1062,-189.5 1062,-210.5"/>
<text text-anchor="middle" x="959" y="-197.5" font-family="Helvetica,sans-Serif" font-size="10.00">ExecuteProcess_geotiff2png_2_DataInputs</text>
</g>
<!-- ExecuteProcess_geotiff2png_2_DataInputs&#45;&gt;ExecuteProcess_geotiff2png_2 -->
<g id="edge34" class="edge"><title>ExecuteProcess_geotiff2png_2_DataInputs&#45;&gt;ExecuteProcess_geotiff2png_2</title>
<path fill="none" stroke="black" d="M960.136,-189.212C960.348,-187.19 960.578,-185.013 960.81,-182.804"/>
<polygon fill="black" stroke="black" points="964.309,-182.995 961.875,-172.683 957.348,-182.262 964.309,-182.995"/>
</g>
<!-- Decode_Base_64_to_byte_Array_3 -->
<g id="node20" class="node"><title>Decode_Base_64_to_byte_Array_3</title>
<polygon fill="#d15fee" stroke="black" points="1022,-96.5 852,-96.5 852,-75.5 1022,-75.5 1022,-96.5"/>
<text text-anchor="middle" x="937" y="-83.5" font-family="Helvetica,sans-Serif" font-size="10.00">Decode_Base_64_to_byte_Array_3</text>
</g>
<!-- ExecuteProcess_geotiff2png_2_ProcessOutputs&#45;&gt;Decode_Base_64_to_byte_Array_3 -->
<g id="edge40" class="edge"><title>ExecuteProcess_geotiff2png_2_ProcessOutputs&#45;&gt;Decode_Base_64_to_byte_Array_3</title>
<path fill="none" stroke="black" d="M958.483,-113.212C956.375,-110.542 954.056,-107.604 951.745,-104.676"/>
<polygon fill="black" stroke="black" points="954.378,-102.363 945.434,-96.6831 948.883,-106.701 954.378,-102.363"/>
</g>
<!-- WORKFLOWINTERNALSINK_srtmPNG -->
<g id="node44" class="node"><title>WORKFLOWINTERNALSINK_srtmPNG</title>
<polygon fill="#bcd2ee" stroke="black" points="739,-37.5 681,-37.5 681,-16.5 739,-16.5 739,-37.5"/>
<text text-anchor="middle" x="710" y="-24.5" font-family="Helvetica,sans-Serif" font-size="10.00">srtmPNG</text>
</g>
<!-- Decode_Base_64_to_byte_Array_3&#45;&gt;WORKFLOWINTERNALSINK_srtmPNG -->
<g id="edge80" class="edge"><title>Decode_Base_64_to_byte_Array_3&#45;&gt;WORKFLOWINTERNALSINK_srtmPNG</title>
<path fill="none" stroke="black" d="M851.885,-78.0216C800.358,-73.1338 744.286,-67.6847 743,-67 733.993,-62.2039 726.493,-53.8137 720.931,-45.9521"/>
<polygon fill="black" stroke="black" points="723.857,-44.0305 715.498,-37.5205 717.972,-47.8222 723.857,-44.0305"/>
</g>
<!-- ExecuteProcess_r.colors -->
<g id="node21" class="node"><title>ExecuteProcess_r.colors</title>
<polygon fill="#a2cd5a" stroke="black" points="798,-286.5 672,-286.5 672,-265.5 798,-265.5 798,-286.5"/>
<text text-anchor="middle" x="735" y="-273.5" font-family="Helvetica,sans-Serif" font-size="10.00">ExecuteProcess_r.colors</text>
</g>
<!-- ExecuteProcess_r.colors_ProcessOutputs -->
<g id="node24" class="node"><title>ExecuteProcess_r.colors_ProcessOutputs</title>
<polygon fill="#ab92ea" stroke="black" points="839,-248.5 637,-248.5 637,-227.5 839,-227.5 839,-248.5"/>
<text text-anchor="middle" x="738" y="-235.5" font-family="Helvetica,sans-Serif" font-size="10.00">ExecuteProcess_r.colors_ProcessOutputs</text>
</g>
<!-- ExecuteProcess_r.colors&#45;&gt;ExecuteProcess_r.colors_ProcessOutputs -->
<g id="edge48" class="edge"><title>ExecuteProcess_r.colors&#45;&gt;ExecuteProcess_r.colors_ProcessOutputs</title>
<path fill="none" stroke="black" d="M735.852,-265.212C736.011,-263.19 736.183,-261.013 736.358,-258.804"/>
<polygon fill="black" stroke="black" points="739.859,-258.928 737.157,-248.683 732.88,-258.377 739.859,-258.928"/>
</g>
<!-- ExecuteProcess_r.colors_DataInputs&#45;&gt;ExecuteProcess_r.colors -->
<g id="edge42" class="edge"><title>ExecuteProcess_r.colors_DataInputs&#45;&gt;ExecuteProcess_r.colors</title>
<path fill="none" stroke="black" d="M730.703,-303.212C731.023,-301.19 731.366,-299.013 731.715,-296.804"/>
<polygon fill="black" stroke="black" points="735.211,-297.107 733.313,-286.683 728.296,-296.015 735.211,-297.107"/>
</g>
<!-- color_value -->
<g id="node23" class="node"><title>color_value</title>
<polygon fill="#b0c4de" stroke="black" points="762,-362.5 696,-362.5 696,-341.5 762,-341.5 762,-362.5"/>
<text text-anchor="middle" x="729" y="-349.5" font-family="Helvetica,sans-Serif" font-size="10.00">color_value</text>
</g>
<!-- color_value&#45;&gt;ExecuteProcess_r.colors_DataInputs -->
<g id="edge46" class="edge"><title>color_value&#45;&gt;ExecuteProcess_r.colors_DataInputs</title>
<path fill="none" stroke="black" d="M729,-341.212C729,-339.19 729,-337.013 729,-334.804"/>
<polygon fill="black" stroke="black" points="732.5,-334.683 729,-324.683 725.5,-334.683 732.5,-334.683"/>
</g>
<!-- ExecuteProcess_geotiff2png_3_DataInputs -->
<g id="node26" class="node"><title>ExecuteProcess_geotiff2png_3_DataInputs</title>
<polygon fill="#ab92ea" stroke="black" points="841,-210.5 635,-210.5 635,-189.5 841,-189.5 841,-210.5"/>
<text text-anchor="middle" x="738" y="-197.5" font-family="Helvetica,sans-Serif" font-size="10.00">ExecuteProcess_geotiff2png_3_DataInputs</text>
</g>
<!-- ExecuteProcess_r.colors_ProcessOutputs&#45;&gt;ExecuteProcess_geotiff2png_3_DataInputs -->
<g id="edge52" class="edge"><title>ExecuteProcess_r.colors_ProcessOutputs&#45;&gt;ExecuteProcess_geotiff2png_3_DataInputs</title>
<path fill="none" stroke="black" d="M738,-227.212C738,-225.19 738,-223.013 738,-220.804"/>
<polygon fill="black" stroke="black" points="741.5,-220.683 738,-210.683 734.5,-220.683 741.5,-220.683"/>
</g>
<!-- ExecuteProcess_geotiff2png_3 -->
<g id="node25" class="node"><title>ExecuteProcess_geotiff2png_3</title>
<polygon fill="#a2cd5a" stroke="black" points="812,-172.5 660,-172.5 660,-151.5 812,-151.5 812,-172.5"/>
<text text-anchor="middle" x="736" y="-159.5" font-family="Helvetica,sans-Serif" font-size="10.00">ExecuteProcess_geotiff2png_3</text>
</g>
<!-- ExecuteProcess_geotiff2png_3_ProcessOutputs -->
<g id="node28" class="node"><title>ExecuteProcess_geotiff2png_3_ProcessOutputs</title>
<polygon fill="#ab92ea" stroke="black" points="849,-134.5 621,-134.5 621,-113.5 849,-113.5 849,-134.5"/>
<text text-anchor="middle" x="735" y="-121.5" font-family="Helvetica,sans-Serif" font-size="10.00">ExecuteProcess_geotiff2png_3_ProcessOutputs</text>
</g>
<!-- ExecuteProcess_geotiff2png_3&#45;&gt;ExecuteProcess_geotiff2png_3_ProcessOutputs -->
<g id="edge56" class="edge"><title>ExecuteProcess_geotiff2png_3&#45;&gt;ExecuteProcess_geotiff2png_3_ProcessOutputs</title>
<path fill="none" stroke="black" d="M735.716,-151.212C735.663,-149.19 735.606,-147.013 735.547,-144.804"/>
<polygon fill="black" stroke="black" points="739.043,-144.588 735.281,-134.683 732.046,-144.772 739.043,-144.588"/>
</g>
<!-- ExecuteProcess_geotiff2png_3_DataInputs&#45;&gt;ExecuteProcess_geotiff2png_3 -->
<g id="edge50" class="edge"><title>ExecuteProcess_geotiff2png_3_DataInputs&#45;&gt;ExecuteProcess_geotiff2png_3</title>
<path fill="none" stroke="black" d="M737.432,-189.212C737.326,-187.19 737.211,-185.013 737.095,-182.804"/>
<polygon fill="black" stroke="black" points="740.583,-182.485 736.562,-172.683 733.593,-182.853 740.583,-182.485"/>
</g>
<!-- Decode_Base_64_to_byte_Array_4 -->
<g id="node27" class="node"><title>Decode_Base_64_to_byte_Array_4</title>
<polygon fill="#d15fee" stroke="black" points="818,-96.5 648,-96.5 648,-75.5 818,-75.5 818,-96.5"/>
<text text-anchor="middle" x="733" y="-83.5" font-family="Helvetica,sans-Serif" font-size="10.00">Decode_Base_64_to_byte_Array_4</text>
</g>
<!-- WORKFLOWINTERNALSINK_outBasinColorPNG -->
<g id="node45" class="node"><title>WORKFLOWINTERNALSINK_outBasinColorPNG</title>
<polygon fill="#bcd2ee" stroke="black" points="677,-37.5 577,-37.5 577,-16.5 677,-16.5 677,-37.5"/>
<text text-anchor="middle" x="627" y="-24.5" font-family="Helvetica,sans-Serif" font-size="10.00">outBasinColorPNG</text>
</g>
<!-- Decode_Base_64_to_byte_Array_4&#45;&gt;WORKFLOWINTERNALSINK_outBasinColorPNG -->
<g id="edge82" class="edge"><title>Decode_Base_64_to_byte_Array_4&#45;&gt;WORKFLOWINTERNALSINK_outBasinColorPNG</title>
<path fill="none" stroke="black" d="M699.644,-75.4298C693.308,-72.9737 686.839,-70.1442 681,-67 669.082,-60.583 656.876,-51.7671 647.091,-44.0445"/>
<polygon fill="black" stroke="black" points="649.153,-41.2105 639.182,-37.6272 644.742,-46.6461 649.153,-41.2105"/>
</g>
<!-- ExecuteProcess_geotiff2png_3_ProcessOutputs&#45;&gt;Decode_Base_64_to_byte_Array_4 -->
<g id="edge54" class="edge"><title>ExecuteProcess_geotiff2png_3_ProcessOutputs&#45;&gt;Decode_Base_64_to_byte_Array_4</title>
<path fill="none" stroke="black" d="M734.432,-113.212C734.326,-111.19 734.211,-109.013 734.095,-106.804"/>
<polygon fill="black" stroke="black" points="737.583,-106.485 733.562,-96.6831 730.593,-106.853 737.583,-106.485"/>
</g>
<!-- ExecuteProcess_r.to.vect_2 -->
<g id="node29" class="node"><title>ExecuteProcess_r.to.vect_2</title>
<polygon fill="#a2cd5a" stroke="black" points="338,-134.5 198,-134.5 198,-113.5 338,-113.5 338,-134.5"/>
<text text-anchor="middle" x="268" y="-121.5" font-family="Helvetica,sans-Serif" font-size="10.00">ExecuteProcess_r.to.vect_2</text>
</g>
<!-- XPath_Service_2 -->
<g id="node32" class="node"><title>XPath_Service_2</title>
<polygon fill="#e6ff5e" stroke="black" points="305,-96.5 213,-96.5 213,-75.5 305,-75.5 305,-96.5"/>
<text text-anchor="middle" x="259" y="-83.5" font-family="Helvetica,sans-Serif" font-size="10.00">XPath_Service_2</text>
</g>
<!-- ExecuteProcess_r.to.vect_2&#45;&gt;XPath_Service_2 -->
<g id="edge72" class="edge"><title>ExecuteProcess_r.to.vect_2&#45;&gt;XPath_Service_2</title>
<path fill="none" stroke="black" d="M265.445,-113.212C264.947,-111.109 264.409,-108.839 263.864,-106.538"/>
<polygon fill="black" stroke="black" points="267.241,-105.607 261.53,-96.6831 260.429,-107.221 267.241,-105.607"/>
</g>
<!-- ExecuteProcess_r.to.vect_2_DataInputs&#45;&gt;ExecuteProcess_r.to.vect_2 -->
<g id="edge58" class="edge"><title>ExecuteProcess_r.to.vect_2_DataInputs&#45;&gt;ExecuteProcess_r.to.vect_2</title>
<path fill="none" stroke="black" d="M278.742,-151.212C277.847,-148.947 276.877,-146.488 275.897,-144.007"/>
<polygon fill="black" stroke="black" points="279.144,-142.7 272.217,-134.683 272.633,-145.27 279.144,-142.7"/>
</g>
<!-- type_value -->
<g id="node31" class="node"><title>type_value</title>
<polygon fill="#b0c4de" stroke="black" points="239,-210.5 175,-210.5 175,-189.5 239,-189.5 239,-210.5"/>
<text text-anchor="middle" x="207" y="-197.5" font-family="Helvetica,sans-Serif" font-size="10.00">type_value</text>
</g>
<!-- type_value&#45;&gt;ExecuteProcess_r.to.vect_2_DataInputs -->
<g id="edge62" class="edge"><title>type_value&#45;&gt;ExecuteProcess_r.to.vect_2_DataInputs</title>
<path fill="none" stroke="black" d="M228.17,-189.415C235.829,-185.585 244.631,-181.185 252.909,-177.046"/>
<polygon fill="black" stroke="black" points="254.564,-180.131 261.943,-172.528 251.434,-173.87 254.564,-180.131"/>
</g>
<!-- WORKFLOWINTERNALSINK_streamGML -->
<g id="node46" class="node"><title>WORKFLOWINTERNALSINK_streamGML</title>
<polygon fill="#bcd2ee" stroke="black" points="421,-37.5 353,-37.5 353,-16.5 421,-16.5 421,-37.5"/>
<text text-anchor="middle" x="387" y="-24.5" font-family="Helvetica,sans-Serif" font-size="10.00">streamGML</text>
</g>
<!-- XPath_Service_2&#45;&gt;WORKFLOWINTERNALSINK_streamGML -->
<g id="edge84" class="edge"><title>XPath_Service_2&#45;&gt;WORKFLOWINTERNALSINK_streamGML</title>
<path fill="none" stroke="black" d="M305.036,-75.8373C306.372,-75.5536 307.695,-75.274 309,-75 326.743,-71.2743 333.126,-75.7589 349,-67 358.485,-61.7665 367.005,-53.3505 373.563,-45.5853"/>
<polygon fill="black" stroke="black" points="376.419,-47.6162 379.86,-37.596 370.921,-43.2828 376.419,-47.6162"/>
</g>
<!-- ExecuteProcess_geotiff2png_4 -->
<g id="node33" class="node"><title>ExecuteProcess_geotiff2png_4</title>
<polygon fill="#a2cd5a" stroke="black" points="590,-286.5 438,-286.5 438,-265.5 590,-265.5 590,-286.5"/>
<text text-anchor="middle" x="514" y="-273.5" font-family="Helvetica,sans-Serif" font-size="10.00">ExecuteProcess_geotiff2png_4</text>
</g>
<!-- ExecuteProcess_geotiff2png_4_ProcessOutputs -->
<g id="node35" class="node"><title>ExecuteProcess_geotiff2png_4_ProcessOutputs</title>
<polygon fill="#ab92ea" stroke="black" points="623,-248.5 395,-248.5 395,-227.5 623,-227.5 623,-248.5"/>
<text text-anchor="middle" x="509" y="-235.5" font-family="Helvetica,sans-Serif" font-size="10.00">ExecuteProcess_geotiff2png_4_ProcessOutputs</text>
</g>
<!-- ExecuteProcess_geotiff2png_4&#45;&gt;ExecuteProcess_geotiff2png_4_ProcessOutputs -->
<g id="edge68" class="edge"><title>ExecuteProcess_geotiff2png_4&#45;&gt;ExecuteProcess_geotiff2png_4_ProcessOutputs</title>
<path fill="none" stroke="black" d="M512.581,-265.212C512.314,-263.19 512.028,-261.013 511.737,-258.804"/>
<polygon fill="black" stroke="black" points="515.18,-258.141 510.406,-248.683 508.24,-259.054 515.18,-258.141"/>
</g>
<!-- ExecuteProcess_geotiff2png_4_DataInputs&#45;&gt;ExecuteProcess_geotiff2png_4 -->
<g id="edge64" class="edge"><title>ExecuteProcess_geotiff2png_4_DataInputs&#45;&gt;ExecuteProcess_geotiff2png_4</title>
<path fill="none" stroke="black" d="M516.148,-303.212C515.989,-301.19 515.817,-299.013 515.642,-296.804"/>
<polygon fill="black" stroke="black" points="519.12,-296.377 514.843,-286.683 512.141,-296.928 519.12,-296.377"/>
</g>
<!-- WORKFLOWINTERNALSOURCECONTROL -->
<g id="node37" class="node"><title>WORKFLOWINTERNALSOURCECONTROL</title>
<polygon fill="#ff4040" stroke="black" points="716,-473 709,-462.5 723,-462.5 716,-473"/>
</g>
<!-- WORKFLOWINTERNALSOURCE_DEM -->
<g id="node38" class="node"><title>WORKFLOWINTERNALSOURCE_DEM</title>
<polygon fill="skyblue" stroke="black" points="701,-476.5 663,-476.5 663,-455.5 701,-455.5 701,-476.5"/>
<text text-anchor="middle" x="682" y="-463.5" font-family="Helvetica,sans-Serif" font-size="10.00">DEM</text>
</g>
<!-- WORKFLOWINTERNALSOURCE_DEM&#45;&gt;ExecuteProcess_r.watershed_DataInputs -->
<g id="edge8" class="edge"><title>WORKFLOWINTERNALSOURCE_DEM&#45;&gt;ExecuteProcess_r.watershed_DataInputs</title>
<path fill="none" stroke="black" d="M671.072,-455.123C667.481,-452.082 663.301,-449.051 659,-447 654.917,-445.053 650.641,-443.305 646.26,-441.736"/>
<polygon fill="black" stroke="black" points="647.127,-438.338 636.535,-438.579 644.965,-444.996 647.127,-438.338"/>
</g>
<!-- WORKFLOWINTERNALSOURCE_DEM&#45;&gt;ExecuteProcess_geotiff2png_2_DataInputs -->
<g id="edge36" class="edge"><title>WORKFLOWINTERNALSOURCE_DEM&#45;&gt;ExecuteProcess_geotiff2png_2_DataInputs</title>
<path fill="none" stroke="black" d="M694.131,-455.398C698.044,-452.368 702.53,-449.274 707,-447 785.576,-407.02 897,-478.163 897,-390 897,-390 897,-390 897,-276 897,-251.416 916.719,-230.389 933.916,-216.725"/>
<polygon fill="black" stroke="black" points="936.153,-219.423 942.058,-210.626 931.956,-213.821 936.153,-219.423"/>
</g>
<!-- WORKFLOWINTERNALSINKCONTROL -->
<g id="node40" class="node"><title>WORKFLOWINTERNALSINKCONTROL</title>
<polygon fill="#66cd00" stroke="black" points="750,-20 757,-30.5 743,-30.5 750,-20"/>
</g>
</g>
</svg>
