<?xml version="1.0" encoding="UTF-8" standalone="no"?>
<!DOCTYPE svg PUBLIC "-//W3C//DTD SVG 1.1//EN"
 "http://www.w3.org/Graphics/SVG/1.1/DTD/svg11.dtd">
<!-- Generated by graphviz version 2.26.0 (20091210.2329)
 -->
<!-- Title: t2flow_graph Pages: 1 -->
<svg width="655pt" height="820pt"
 viewBox="0.00 0.00 655.00 820.00" xmlns="http://www.w3.org/2000/svg" xmlns:xlink="http://www.w3.org/1999/xlink">
<g id="graph1" class="graph" transform="scale(1 1) rotate(0) translate(4 816)">
<title>t2flow_graph</title>
<polygon fill="white" stroke="white" points="-4,5 -4,-816 652,-816 652,5 -4,5"/>
<g id="graph2" class="cluster"><title>cluster_gbif_occurrence_listgbif_occurrence_list</title>
<polygon fill="aliceblue" stroke="black" points="264,-165 264,-635 590,-635 590,-165 264,-165"/>
<text text-anchor="middle" x="316" y="-622" font-family="Helvetica,sans-Serif" font-size="10.00">gbif_occurrence_list</text>
</g>
<g id="graph3" class="cluster"><title>cluster_gbif_occurrence_listgbif_occurrence_max1000gbif_occurrence_max1000</title>
<polygon fill="antiquewhite" stroke="black" points="272,-270 272,-539 502,-539 502,-270 272,-270"/>
<text text-anchor="middle" x="337.5" y="-526" font-family="Helvetica,sans-Serif" font-size="10.00">gbif_occurrence_max1000</text>
</g>
<g id="graph4" class="cluster"><title>cluster_gbif_occurrence_listgbif_occurrence_max1000sources</title>
<polygon fill="none" stroke="black" stroke-dasharray="1,5" points="360,-451 360,-510 488,-510 488,-451 360,-451"/>
<text text-anchor="middle" x="404" y="-497" font-family="Helvetica,sans-Serif" font-size="10.00">Workflow Inputs</text>
</g>
<g id="graph5" class="cluster"><title>cluster_gbif_occurrence_listgbif_occurrence_max1000sinks</title>
<polygon fill="none" stroke="black" stroke-dasharray="1,5" points="306,-278 306,-337 488,-337 488,-278 306,-278"/>
<text text-anchor="middle" x="353.5" y="-324" font-family="Helvetica,sans-Serif" font-size="10.00">Workflow Outputs</text>
</g>
<g id="graph6" class="cluster"><title>cluster_gbif_occurrence_listsources</title>
<polygon fill="none" stroke="black" stroke-dasharray="1,5" points="411,-547 411,-606 501,-606 501,-547 411,-547"/>
<text text-anchor="middle" x="455" y="-593" font-family="Helvetica,sans-Serif" font-size="10.00">Workflow Inputs</text>
</g>
<g id="graph7" class="cluster"><title>cluster_gbif_occurrence_listsinks</title>
<polygon fill="none" stroke="black" stroke-dasharray="1,5" points="324,-173 324,-232 422,-232 422,-173 324,-173"/>
<text text-anchor="middle" x="371.5" y="-219" font-family="Helvetica,sans-Serif" font-size="10.00">Workflow Outputs</text>
</g>
<g id="graph8" class="cluster"><title>cluster_sources</title>
<polygon fill="none" stroke="black" stroke-dasharray="1,5" points="551,-753 551,-804 639,-804 639,-753 551,-753"/>
<text text-anchor="middle" x="595" y="-791" font-family="Helvetica,sans-Serif" font-size="10.00">Workflow Inputs</text>
</g>
<g id="graph9" class="cluster"><title>cluster_sinks</title>
<polygon fill="none" stroke="black" stroke-dasharray="1,5" points="169,-30 169,-89 267,-89 267,-30 169,-30"/>
<text text-anchor="middle" x="216.5" y="-76" font-family="Helvetica,sans-Serif" font-size="10.00">Workflow Outputs</text>
</g>
<!-- Split_string_into_string_list_by_regular_expression -->
<g id="node1" class="node"><title>Split_string_into_string_list_by_regular_expression</title>
<polygon fill="#d15fee" stroke="black" points="565,-664.5 329,-664.5 329,-643.5 565,-643.5 565,-664.5"/>
<text text-anchor="middle" x="447" y="-651.5" font-family="Helvetica,sans-Serif" font-size="10.00">Split_string_into_string_list_by_regular_expression</text>
</g>
<!-- gbif_occurrence_listWORKFLOWINTERNALSOURCE_sciName -->
<g id="node35" class="node"><title>gbif_occurrence_listWORKFLOWINTERNALSOURCE_sciName</title>
<polygon fill="skyblue" stroke="black" points="475,-576.5 419,-576.5 419,-555.5 475,-555.5 475,-576.5"/>
<text text-anchor="middle" x="447" y="-563.5" font-family="Helvetica,sans-Serif" font-size="10.00">sciName</text>
</g>
<!-- Split_string_into_string_list_by_regular_expression&#45;&gt;gbif_occurrence_listWORKFLOWINTERNALSOURCE_sciName -->
<g id="edge46" class="edge"><title>Split_string_into_string_list_by_regular_expression&#45;&gt;gbif_occurrence_listWORKFLOWINTERNALSOURCE_sciName</title>
<path fill="none" stroke="black" d="M447,-643.209C447,-629.213 447,-604.498 447,-586.799"/>
<polygon fill="black" stroke="black" points="450.5,-586.604 447,-576.604 443.5,-586.604 450.5,-586.604"/>
</g>
<!-- regex_value -->
<g id="node2" class="node"><title>regex_value</title>
<polygon fill="#b0c4de" stroke="black" points="440,-702.5 372,-702.5 372,-681.5 440,-681.5 440,-702.5"/>
<text text-anchor="middle" x="406" y="-689.5" font-family="Helvetica,sans-Serif" font-size="10.00">regex_value</text>
</g>
<!-- regex_value&#45;&gt;Split_string_into_string_list_by_regular_expression -->
<g id="edge40" class="edge"><title>regex_value&#45;&gt;Split_string_into_string_list_by_regular_expression</title>
<path fill="none" stroke="black" d="M417.639,-681.212C420.869,-678.219 424.463,-674.888 427.997,-671.613"/>
<polygon fill="black" stroke="black" points="430.518,-674.048 435.474,-664.683 425.76,-668.914 430.518,-674.048"/>
</g>
<!-- Read_Input_File -->
<g id="node3" class="node"><title>Read_Input_File</title>
<polygon fill="#d15fee" stroke="black" points="532,-702.5 444,-702.5 444,-681.5 532,-681.5 532,-702.5"/>
<text text-anchor="middle" x="488" y="-689.5" font-family="Helvetica,sans-Serif" font-size="10.00">Read_Input_File</text>
</g>
<!-- Read_Input_File&#45;&gt;Split_string_into_string_list_by_regular_expression -->
<g id="edge42" class="edge"><title>Read_Input_File&#45;&gt;Split_string_into_string_list_by_regular_expression</title>
<path fill="none" stroke="black" d="M476.361,-681.212C473.131,-678.219 469.537,-674.888 466.003,-671.613"/>
<polygon fill="black" stroke="black" points="468.24,-668.914 458.526,-664.683 463.482,-674.048 468.24,-668.914"/>
</g>
<!-- gbif_occurrence_listMerge_String_List_to_a_String -->
<g id="node5" class="node"><title>gbif_occurrence_listMerge_String_List_to_a_String</title>
<polygon fill="#d15fee" stroke="black" points="492,-261.5 342,-261.5 342,-240.5 492,-240.5 492,-261.5"/>
<text text-anchor="middle" x="417" y="-248.5" font-family="Helvetica,sans-Serif" font-size="10.00">Merge_String_List_to_a_String</text>
</g>
<!-- gbif_occurrence_listWORKFLOWINTERNALSINK_csv_output -->
<g id="node38" class="node"><title>gbif_occurrence_listWORKFLOWINTERNALSINK_csv_output</title>
<polygon fill="#bcd2ee" stroke="black" points="396,-202.5 332,-202.5 332,-181.5 396,-181.5 396,-202.5"/>
<text text-anchor="middle" x="364" y="-189.5" font-family="Helvetica,sans-Serif" font-size="10.00">csv_output</text>
</g>
<!-- gbif_occurrence_listMerge_String_List_to_a_String&#45;&gt;gbif_occurrence_listWORKFLOWINTERNALSINK_csv_output -->
<g id="edge36" class="edge"><title>gbif_occurrence_listMerge_String_List_to_a_String&#45;&gt;gbif_occurrence_listWORKFLOWINTERNALSINK_csv_output</title>
<path fill="none" stroke="black" d="M407.525,-240.452C400.081,-232.166 389.529,-220.42 380.68,-210.568"/>
<polygon fill="black" stroke="black" points="383.038,-207.956 373.752,-202.856 377.831,-212.634 383.038,-207.956"/>
</g>
<!-- gbif_occurrence_listno_separator -->
<g id="node6" class="node"><title>gbif_occurrence_listno_separator</title>
<polygon fill="#b0c4de" stroke="black" points="582,-307.5 510,-307.5 510,-286.5 582,-286.5 582,-307.5"/>
<text text-anchor="middle" x="546" y="-294.5" font-family="Helvetica,sans-Serif" font-size="10.00">no_separator</text>
</g>
<!-- gbif_occurrence_listno_separator&#45;&gt;gbif_occurrence_listMerge_String_List_to_a_String -->
<g id="edge26" class="edge"><title>gbif_occurrence_listno_separator&#45;&gt;gbif_occurrence_listMerge_String_List_to_a_String</title>
<path fill="none" stroke="black" d="M526.075,-286.451C515.304,-281.034 501.651,-274.621 489,-270 483.554,-268.011 477.807,-266.136 472.032,-264.396"/>
<polygon fill="black" stroke="black" points="472.911,-261.007 462.332,-261.598 470.971,-267.732 472.911,-261.007"/>
</g>
<!-- gbif_occurrence_listgbif_occurrence_max1000Transform_XML -->
<g id="node8" class="node"><title>gbif_occurrence_listgbif_occurrence_max1000Transform_XML</title>
<polygon fill="#d15fee" stroke="black" points="450,-404.5 364,-404.5 364,-383.5 450,-383.5 450,-404.5"/>
<text text-anchor="middle" x="407" y="-391.5" font-family="Helvetica,sans-Serif" font-size="10.00">Transform_XML</text>
</g>
<!-- gbif_occurrence_listgbif_occurrence_max1000WORKFLOWINTERNALSINK_max1000_csv_output -->
<g id="node21" class="node"><title>gbif_occurrence_listgbif_occurrence_max1000WORKFLOWINTERNALSINK_max1000_csv_output</title>
<polygon fill="#bcd2ee" stroke="black" points="462,-307.5 352,-307.5 352,-286.5 462,-286.5 462,-307.5"/>
<text text-anchor="middle" x="407" y="-294.5" font-family="Helvetica,sans-Serif" font-size="10.00">max1000_csv_output</text>
</g>
<!-- gbif_occurrence_listgbif_occurrence_max1000Transform_XML&#45;&gt;gbif_occurrence_listgbif_occurrence_max1000WORKFLOWINTERNALSINK_max1000_csv_output -->
<g id="edge22" class="edge"><title>gbif_occurrence_listgbif_occurrence_max1000Transform_XML&#45;&gt;gbif_occurrence_listgbif_occurrence_max1000WORKFLOWINTERNALSINK_max1000_csv_output</title>
<path fill="none" stroke="black" d="M407,-383.249C407,-367.433 407,-337.603 407,-317.513"/>
<polygon fill="black" stroke="black" points="410.5,-317.505 407,-307.505 403.5,-317.505 410.5,-317.505"/>
</g>
<!-- gbif_occurrence_listgbif_occurrence_max1000gbifResponse_to_csv_xsl -->
<g id="node9" class="node"><title>gbif_occurrence_listgbif_occurrence_max1000gbifResponse_to_csv_xsl</title>
<polygon fill="#b0c4de" stroke="black" points="494,-442.5 366,-442.5 366,-421.5 494,-421.5 494,-442.5"/>
<text text-anchor="middle" x="430" y="-429.5" font-family="Helvetica,sans-Serif" font-size="10.00">gbifResponse_to_csv_xsl</text>
</g>
<!-- gbif_occurrence_listgbif_occurrence_max1000gbifResponse_to_csv_xsl&#45;&gt;gbif_occurrence_listgbif_occurrence_max1000Transform_XML -->
<g id="edge6" class="edge"><title>gbif_occurrence_listgbif_occurrence_max1000gbifResponse_to_csv_xsl&#45;&gt;gbif_occurrence_listgbif_occurrence_max1000Transform_XML</title>
<path fill="none" stroke="black" d="M423.471,-421.212C422.001,-418.785 420.398,-416.136 418.787,-413.475"/>
<polygon fill="black" stroke="black" points="421.638,-411.426 413.466,-404.683 415.65,-415.05 421.638,-411.426"/>
</g>
<!-- gbif_occurrence_listgbif_occurrence_max1000gbifOccurrence -->
<g id="node10" class="node"><title>gbif_occurrence_listgbif_occurrence_max1000gbifOccurrence</title>
<polygon fill="#7aafff" stroke="black" points="362,-442.5 280,-442.5 280,-421.5 362,-421.5 362,-442.5"/>
<text text-anchor="middle" x="321" y="-429.5" font-family="Helvetica,sans-Serif" font-size="10.00">gbifOccurrence</text>
</g>
<!-- gbif_occurrence_listgbif_occurrence_max1000gbifOccurrence&#45;&gt;gbif_occurrence_listgbif_occurrence_max1000Transform_XML -->
<g id="edge8" class="edge"><title>gbif_occurrence_listgbif_occurrence_max1000gbifOccurrence&#45;&gt;gbif_occurrence_listgbif_occurrence_max1000Transform_XML</title>
<path fill="none" stroke="black" d="M344.956,-421.415C353.902,-417.462 364.226,-412.9 373.854,-408.646"/>
<polygon fill="black" stroke="black" points="375.44,-411.771 383.173,-404.528 372.611,-405.369 375.44,-411.771"/>
</g>
<!-- gbif_occurrence_listgbif_occurrence_max1000next -->
<g id="node12" class="node"><title>gbif_occurrence_listgbif_occurrence_max1000next</title>
<polygon fill="#e6ff5e" stroke="black" points="343,-404.5 309,-404.5 309,-383.5 343,-383.5 343,-404.5"/>
<text text-anchor="middle" x="326" y="-391.5" font-family="Helvetica,sans-Serif" font-size="10.00">next</text>
</g>
<!-- gbif_occurrence_listgbif_occurrence_max1000gbifOccurrence&#45;&gt;gbif_occurrence_listgbif_occurrence_max1000next -->
<g id="edge16" class="edge"><title>gbif_occurrence_listgbif_occurrence_max1000gbifOccurrence&#45;&gt;gbif_occurrence_listgbif_occurrence_max1000next</title>
<path fill="none" stroke="black" d="M322.419,-421.212C322.686,-419.19 322.972,-417.013 323.263,-414.804"/>
<polygon fill="black" stroke="black" points="326.76,-415.054 324.594,-404.683 319.82,-414.141 326.76,-415.054"/>
</g>
<!-- gbif_occurrence_listgbif_occurrence_max1000format_value -->
<g id="node11" class="node"><title>gbif_occurrence_listgbif_occurrence_max1000format_value</title>
<polygon fill="#b0c4de" stroke="black" points="352,-480.5 280,-480.5 280,-459.5 352,-459.5 352,-480.5"/>
<text text-anchor="middle" x="316" y="-467.5" font-family="Helvetica,sans-Serif" font-size="10.00">format_value</text>
</g>
<!-- gbif_occurrence_listgbif_occurrence_max1000format_value&#45;&gt;gbif_occurrence_listgbif_occurrence_max1000gbifOccurrence -->
<g id="edge10" class="edge"><title>gbif_occurrence_listgbif_occurrence_max1000format_value&#45;&gt;gbif_occurrence_listgbif_occurrence_max1000gbifOccurrence</title>
<path fill="none" stroke="black" d="M317.419,-459.212C317.686,-457.19 317.972,-455.013 318.263,-452.804"/>
<polygon fill="black" stroke="black" points="321.76,-453.054 319.594,-442.683 314.82,-452.141 321.76,-453.054"/>
</g>
<!-- gbif_occurrence_listgbif_occurrence_max1000list_to_single_value -->
<g id="node13" class="node"><title>gbif_occurrence_listgbif_occurrence_max1000list_to_single_value</title>
<polygon fill="#d15fee" stroke="black" points="382,-366.5 280,-366.5 280,-345.5 382,-345.5 382,-366.5"/>
<text text-anchor="middle" x="331" y="-353.5" font-family="Helvetica,sans-Serif" font-size="10.00">list_to_single_value</text>
</g>
<!-- gbif_occurrence_listgbif_occurrence_max1000next&#45;&gt;gbif_occurrence_listgbif_occurrence_max1000list_to_single_value -->
<g id="edge18" class="edge"><title>gbif_occurrence_listgbif_occurrence_max1000next&#45;&gt;gbif_occurrence_listgbif_occurrence_max1000list_to_single_value</title>
<path fill="none" stroke="black" d="M327.419,-383.212C327.686,-381.19 327.972,-379.013 328.263,-376.804"/>
<polygon fill="black" stroke="black" points="331.76,-377.054 329.594,-366.683 324.82,-376.141 331.76,-377.054"/>
</g>
<!-- gbif_occurrence_listgbif_occurrence_max1000WORKFLOWINTERNALSINK_next -->
<g id="node20" class="node"><title>gbif_occurrence_listgbif_occurrence_max1000WORKFLOWINTERNALSINK_next</title>
<polygon fill="#bcd2ee" stroke="black" points="348,-307.5 314,-307.5 314,-286.5 348,-286.5 348,-307.5"/>
<text text-anchor="middle" x="331" y="-294.5" font-family="Helvetica,sans-Serif" font-size="10.00">next</text>
</g>
<!-- gbif_occurrence_listgbif_occurrence_max1000list_to_single_value&#45;&gt;gbif_occurrence_listgbif_occurrence_max1000WORKFLOWINTERNALSINK_next -->
<g id="edge20" class="edge"><title>gbif_occurrence_listgbif_occurrence_max1000list_to_single_value&#45;&gt;gbif_occurrence_listgbif_occurrence_max1000WORKFLOWINTERNALSINK_next</title>
<path fill="none" stroke="black" d="M331,-345.452C331,-337.829 331,-327.277 331,-317.966"/>
<polygon fill="black" stroke="black" points="334.5,-317.856 331,-307.856 327.5,-317.856 334.5,-317.856"/>
</g>
<!-- gbif_occurrence_listgbif_occurrence_max1000WORKFLOWINTERNALSOURCECONTROL -->
<g id="node15" class="node"><title>gbif_occurrence_listgbif_occurrence_max1000WORKFLOWINTERNALSOURCECONTROL</title>
<polygon fill="#ff4040" stroke="black" points="473,-477 466,-466.5 480,-466.5 473,-477"/>
</g>
<!-- gbif_occurrence_listgbif_occurrence_max1000WORKFLOWINTERNALSOURCE_sciName -->
<g id="node16" class="node"><title>gbif_occurrence_listgbif_occurrence_max1000WORKFLOWINTERNALSOURCE_sciName</title>
<polygon fill="skyblue" stroke="black" points="462,-480.5 406,-480.5 406,-459.5 462,-459.5 462,-480.5"/>
<text text-anchor="middle" x="434" y="-467.5" font-family="Helvetica,sans-Serif" font-size="10.00">sciName</text>
</g>
<!-- gbif_occurrence_listgbif_occurrence_max1000WORKFLOWINTERNALSOURCE_sciName&#45;&gt;gbif_occurrence_listgbif_occurrence_max1000gbifOccurrence -->
<g id="edge12" class="edge"><title>gbif_occurrence_listgbif_occurrence_max1000WORKFLOWINTERNALSOURCE_sciName&#45;&gt;gbif_occurrence_listgbif_occurrence_max1000gbifOccurrence</title>
<path fill="none" stroke="black" d="M418.558,-459.491C413.461,-456.393 407.646,-453.237 402,-451 389.738,-446.142 384.235,-446.333 372.251,-444.187"/>
<polygon fill="black" stroke="black" points="372.692,-440.704 362.19,-442.106 371.274,-447.559 372.692,-440.704"/>
</g>
<!-- gbif_occurrence_listgbif_occurrence_max1000WORKFLOWINTERNALSOURCE_next -->
<g id="node17" class="node"><title>gbif_occurrence_listgbif_occurrence_max1000WORKFLOWINTERNALSOURCE_next</title>
<polygon fill="skyblue" stroke="black" points="402,-480.5 368,-480.5 368,-459.5 402,-459.5 402,-480.5"/>
<text text-anchor="middle" x="385" y="-467.5" font-family="Helvetica,sans-Serif" font-size="10.00">next</text>
</g>
<!-- gbif_occurrence_listgbif_occurrence_max1000WORKFLOWINTERNALSOURCE_next&#45;&gt;gbif_occurrence_listgbif_occurrence_max1000gbifOccurrence -->
<g id="edge14" class="edge"><title>gbif_occurrence_listgbif_occurrence_max1000WORKFLOWINTERNALSOURCE_next&#45;&gt;gbif_occurrence_listgbif_occurrence_max1000gbifOccurrence</title>
<path fill="none" stroke="black" d="M374.427,-459.235C371.245,-456.337 367.629,-453.356 364,-451 362.053,-449.736 360.008,-448.519 357.911,-447.353"/>
<polygon fill="black" stroke="black" points="359.025,-443.994 348.524,-442.589 355.857,-450.236 359.025,-443.994"/>
</g>
<!-- gbif_occurrence_listgbif_occurrence_max1000WORKFLOWINTERNALSINKCONTROL -->
<g id="node19" class="node"><title>gbif_occurrence_listgbif_occurrence_max1000WORKFLOWINTERNALSINKCONTROL</title>
<polygon fill="#66cd00" stroke="black" points="473,-290 480,-300.5 466,-300.5 473,-290"/>
</g>
<!-- gbif_occurrence_listsink -->
<g id="node32" class="node"><title>gbif_occurrence_listsink</title>
<polygon fill="#d15fee" stroke="black" points="338,-261.5 304,-261.5 304,-240.5 338,-240.5 338,-261.5"/>
<text text-anchor="middle" x="321" y="-248.5" font-family="Helvetica,sans-Serif" font-size="10.00">sink</text>
</g>
<!-- gbif_occurrence_listgbif_occurrence_max1000WORKFLOWINTERNALSINK_next&#45;&gt;gbif_occurrence_listsink -->
<g id="edge34" class="edge"><title>gbif_occurrence_listgbif_occurrence_max1000WORKFLOWINTERNALSINK_next&#45;&gt;gbif_occurrence_listsink</title>
<path fill="none" stroke="black" d="M328.681,-286.331C327.721,-281.919 326.575,-276.647 325.465,-271.538"/>
<polygon fill="black" stroke="black" points="328.851,-270.639 323.307,-261.611 322.011,-272.126 328.851,-270.639"/>
</g>
<!-- gbif_occurrence_listgbif_occurrence_max1000WORKFLOWINTERNALSINK_max1000_csv_output&#45;&gt;gbif_occurrence_listMerge_String_List_to_a_String -->
<g id="edge28" class="edge"><title>gbif_occurrence_listgbif_occurrence_max1000WORKFLOWINTERNALSINK_max1000_csv_output&#45;&gt;gbif_occurrence_listMerge_String_List_to_a_String</title>
<path fill="none" stroke="black" d="M409.319,-286.331C410.279,-281.919 411.425,-276.647 412.535,-271.538"/>
<polygon fill="black" stroke="black" points="415.989,-272.126 414.693,-261.611 409.149,-270.639 415.989,-272.126"/>
</g>
<!-- gbif_occurrence_listnext_value -->
<g id="node31" class="node"><title>gbif_occurrence_listnext_value</title>
<polygon fill="#b0c4de" stroke="black" points="403,-576.5 339,-576.5 339,-555.5 403,-555.5 403,-576.5"/>
<text text-anchor="middle" x="371" y="-563.5" font-family="Helvetica,sans-Serif" font-size="10.00">next_value</text>
</g>
<!-- gbif_occurrence_listnext_value&#45;&gt;gbif_occurrence_listgbif_occurrence_max1000WORKFLOWINTERNALSOURCE_next -->
<g id="edge32" class="edge"><title>gbif_occurrence_listnext_value&#45;&gt;gbif_occurrence_listgbif_occurrence_max1000WORKFLOWINTERNALSOURCE_next</title>
<path fill="none" stroke="black" d="M372.552,-555.36C374.822,-539.79 379.094,-510.495 381.993,-490.616"/>
<polygon fill="black" stroke="black" points="385.462,-491.089 383.441,-480.688 378.535,-490.078 385.462,-491.089"/>
</g>
<!-- gbif_occurrence_listWORKFLOWINTERNALSOURCECONTROL -->
<g id="node34" class="node"><title>gbif_occurrence_listWORKFLOWINTERNALSOURCECONTROL</title>
<polygon fill="#ff4040" stroke="black" points="486,-573 479,-562.5 493,-562.5 486,-573"/>
</g>
<!-- gbif_occurrence_listWORKFLOWINTERNALSOURCE_sciName&#45;&gt;gbif_occurrence_listgbif_occurrence_max1000WORKFLOWINTERNALSOURCE_sciName -->
<g id="edge30" class="edge"><title>gbif_occurrence_listWORKFLOWINTERNALSOURCE_sciName&#45;&gt;gbif_occurrence_listgbif_occurrence_max1000WORKFLOWINTERNALSOURCE_sciName</title>
<path fill="none" stroke="black" d="M445.559,-555.36C443.451,-539.79 439.484,-510.495 436.792,-490.616"/>
<polygon fill="black" stroke="black" points="440.258,-490.128 435.447,-480.688 433.321,-491.067 440.258,-490.128"/>
</g>
<!-- gbif_occurrence_listWORKFLOWINTERNALSINKCONTROL -->
<g id="node37" class="node"><title>gbif_occurrence_listWORKFLOWINTERNALSINKCONTROL</title>
<polygon fill="#66cd00" stroke="black" points="407,-185 414,-195.5 400,-195.5 407,-185"/>
</g>
<!-- Merge_String_List_to_a_String -->
<g id="node47" class="node"><title>Merge_String_List_to_a_String</title>
<polygon fill="#d15fee" stroke="black" points="329,-156.5 179,-156.5 179,-135.5 329,-135.5 329,-156.5"/>
<text text-anchor="middle" x="254" y="-143.5" font-family="Helvetica,sans-Serif" font-size="10.00">Merge_String_List_to_a_String</text>
</g>
<!-- gbif_occurrence_listWORKFLOWINTERNALSINK_csv_output&#45;&gt;Merge_String_List_to_a_String -->
<g id="edge52" class="edge"><title>gbif_occurrence_listWORKFLOWINTERNALSINK_csv_output&#45;&gt;Merge_String_List_to_a_String</title>
<path fill="none" stroke="black" d="M352.444,-181.478C345.734,-175.866 336.875,-169.259 328,-165 323.99,-163.076 319.761,-161.33 315.439,-159.748"/>
<polygon fill="black" stroke="black" points="316.473,-156.403 305.879,-156.543 314.248,-163.04 316.473,-156.403"/>
</g>
<!-- Read_CSV_Header_File -->
<g id="node45" class="node"><title>Read_CSV_Header_File</title>
<polygon fill="#d15fee" stroke="black" points="175,-156.5 51,-156.5 51,-135.5 175,-135.5 175,-156.5"/>
<text text-anchor="middle" x="113" y="-143.5" font-family="Helvetica,sans-Serif" font-size="10.00">Read_CSV_Header_File</text>
</g>
<!-- Concatenate_two_strings -->
<g id="node49" class="node"><title>Concatenate_two_strings</title>
<polygon fill="#d15fee" stroke="black" points="248,-118.5 120,-118.5 120,-97.5 248,-97.5 248,-118.5"/>
<text text-anchor="middle" x="184" y="-105.5" font-family="Helvetica,sans-Serif" font-size="10.00">Concatenate_two_strings</text>
</g>
<!-- Read_CSV_Header_File&#45;&gt;Concatenate_two_strings -->
<g id="edge54" class="edge"><title>Read_CSV_Header_File&#45;&gt;Concatenate_two_strings</title>
<path fill="none" stroke="black" d="M132.777,-135.415C139.779,-131.668 147.802,-127.374 155.389,-123.313"/>
<polygon fill="black" stroke="black" points="157.164,-126.333 164.329,-118.528 153.86,-120.161 157.164,-126.333"/>
</g>
<!-- csvheaders -->
<g id="node46" class="node"><title>csvheaders</title>
<polygon fill="#b0c4de" stroke="black" points="146,-202.5 80,-202.5 80,-181.5 146,-181.5 146,-202.5"/>
<text text-anchor="middle" x="113" y="-189.5" font-family="Helvetica,sans-Serif" font-size="10.00">csvheaders</text>
</g>
<!-- csvheaders&#45;&gt;Read_CSV_Header_File -->
<g id="edge48" class="edge"><title>csvheaders&#45;&gt;Read_CSV_Header_File</title>
<path fill="none" stroke="black" d="M113,-181.331C113,-177.035 113,-171.923 113,-166.942"/>
<polygon fill="black" stroke="black" points="116.5,-166.611 113,-156.611 109.5,-166.611 116.5,-166.611"/>
</g>
<!-- Merge_String_List_to_a_String&#45;&gt;Concatenate_two_strings -->
<g id="edge56" class="edge"><title>Merge_String_List_to_a_String&#45;&gt;Concatenate_two_strings</title>
<path fill="none" stroke="black" d="M234.501,-135.415C227.674,-131.709 219.862,-127.468 212.455,-123.447"/>
<polygon fill="black" stroke="black" points="213.853,-120.223 203.394,-118.528 210.513,-126.375 213.853,-120.223"/>
</g>
<!-- no_separator -->
<g id="node48" class="node"><title>no_separator</title>
<polygon fill="#b0c4de" stroke="black" points="256,-202.5 184,-202.5 184,-181.5 256,-181.5 256,-202.5"/>
<text text-anchor="middle" x="220" y="-189.5" font-family="Helvetica,sans-Serif" font-size="10.00">no_separator</text>
</g>
<!-- no_separator&#45;&gt;Merge_String_List_to_a_String -->
<g id="edge50" class="edge"><title>no_separator&#45;&gt;Merge_String_List_to_a_String</title>
<path fill="none" stroke="black" d="M227.886,-181.331C231.49,-176.454 235.871,-170.527 240.007,-164.932"/>
<polygon fill="black" stroke="black" points="243.028,-166.733 246.157,-156.611 237.398,-162.572 243.028,-166.733"/>
</g>
<!-- Select_Output_CSV_File -->
<g id="node53" class="node"><title>Select_Output_CSV_File</title>
<polygon fill="#d15fee" stroke="black" points="151,-59.5 25,-59.5 25,-38.5 151,-38.5 151,-59.5"/>
<text text-anchor="middle" x="88" y="-46.5" font-family="Helvetica,sans-Serif" font-size="10.00">Select_Output_CSV_File</text>
</g>
<!-- Concatenate_two_strings&#45;&gt;Select_Output_CSV_File -->
<g id="edge68" class="edge"><title>Concatenate_two_strings&#45;&gt;Select_Output_CSV_File</title>
<path fill="none" stroke="gray" d="M166.837,-97.452C151.642,-88.1132 129.297,-74.3802 112.272,-63.9172"/>
<ellipse fill="none" stroke="gray" cx="108.746" cy="-61.7501" rx="4.00002" ry="4.00002"/>
</g>
<!-- Write_Text_File -->
<g id="node54" class="node"><title>Write_Text_File</title>
<polygon fill="#d15fee" stroke="black" points="166,-21.5 80,-21.5 80,-0.5 166,-0.5 166,-21.5"/>
<text text-anchor="middle" x="123" y="-8.5" font-family="Helvetica,sans-Serif" font-size="10.00">Write_Text_File</text>
</g>
<!-- Concatenate_two_strings&#45;&gt;Write_Text_File -->
<g id="edge64" class="edge"><title>Concatenate_two_strings&#45;&gt;Write_Text_File</title>
<path fill="none" stroke="black" d="M173.682,-97.3179C171.58,-94.7407 169.543,-91.8915 168,-89 155.152,-64.9247 167.023,-52.0893 151,-30 150.644,-29.5096 150.272,-29.0279 149.884,-28.555"/>
<polygon fill="black" stroke="black" points="152.284,-26.0066 142.614,-21.6761 147.473,-31.0914 152.284,-26.0066"/>
</g>
<!-- WORKFLOWINTERNALSINK_csv_output -->
<g id="node59" class="node"><title>WORKFLOWINTERNALSINK_csv_output</title>
<polygon fill="#bcd2ee" stroke="black" points="241,-59.5 177,-59.5 177,-38.5 241,-38.5 241,-59.5"/>
<text text-anchor="middle" x="209" y="-46.5" font-family="Helvetica,sans-Serif" font-size="10.00">csv_output</text>
</g>
<!-- Concatenate_two_strings&#45;&gt;WORKFLOWINTERNALSINK_csv_output -->
<g id="edge66" class="edge"><title>Concatenate_two_strings&#45;&gt;WORKFLOWINTERNALSINK_csv_output</title>
<path fill="none" stroke="black" d="M188.469,-97.452C191.77,-89.6628 196.366,-78.8166 200.373,-69.3606"/>
<polygon fill="black" stroke="black" points="203.721,-70.4289 204.4,-59.8559 197.276,-67.6979 203.721,-70.4289"/>
</g>
<!-- Select_Input_File -->
<g id="node50" class="node"><title>Select_Input_File</title>
<polygon fill="#d15fee" stroke="black" points="534,-740.5 442,-740.5 442,-719.5 534,-719.5 534,-740.5"/>
<text text-anchor="middle" x="488" y="-727.5" font-family="Helvetica,sans-Serif" font-size="10.00">Select_Input_File</text>
</g>
<!-- Select_Input_File&#45;&gt;Read_Input_File -->
<g id="edge44" class="edge"><title>Select_Input_File&#45;&gt;Read_Input_File</title>
<path fill="none" stroke="black" d="M488,-719.212C488,-717.19 488,-715.013 488,-712.804"/>
<polygon fill="black" stroke="black" points="491.5,-712.683 488,-702.683 484.5,-712.683 491.5,-712.683"/>
</g>
<!-- input_filechooser_title -->
<g id="node51" class="node"><title>input_filechooser_title</title>
<polygon fill="#b0c4de" stroke="black" points="543,-778.5 433,-778.5 433,-757.5 543,-757.5 543,-778.5"/>
<text text-anchor="middle" x="488" y="-765.5" font-family="Helvetica,sans-Serif" font-size="10.00">input_filechooser_title</text>
</g>
<!-- input_filechooser_title&#45;&gt;Select_Input_File -->
<g id="edge58" class="edge"><title>input_filechooser_title&#45;&gt;Select_Input_File</title>
<path fill="none" stroke="black" d="M488,-757.212C488,-755.19 488,-753.013 488,-750.804"/>
<polygon fill="black" stroke="black" points="491.5,-750.683 488,-740.683 484.5,-750.683 491.5,-750.683"/>
</g>
<!-- output_filechooser_title -->
<g id="node52" class="node"><title>output_filechooser_title</title>
<polygon fill="#b0c4de" stroke="black" points="116,-118.5 5.68434e-14,-118.5 7.10543e-15,-97.5 116,-97.5 116,-118.5"/>
<text text-anchor="middle" x="58" y="-105.5" font-family="Helvetica,sans-Serif" font-size="10.00">output_filechooser_title</text>
</g>
<!-- output_filechooser_title&#45;&gt;Select_Output_CSV_File -->
<g id="edge60" class="edge"><title>output_filechooser_title&#45;&gt;Select_Output_CSV_File</title>
<path fill="none" stroke="black" d="M63.3634,-97.452C67.3661,-89.5799 72.9565,-78.5855 77.8004,-69.0593"/>
<polygon fill="black" stroke="black" points="81.0674,-70.3561 82.4801,-59.8559 74.8277,-67.1833 81.0674,-70.3561"/>
</g>
<!-- Select_Output_CSV_File&#45;&gt;Write_Text_File -->
<g id="edge62" class="edge"><title>Select_Output_CSV_File&#45;&gt;Write_Text_File</title>
<path fill="none" stroke="black" d="M97.936,-38.2124C100.544,-35.3804 103.43,-32.2471 106.288,-29.1443"/>
<polygon fill="black" stroke="black" points="108.96,-31.4097 113.16,-21.6831 103.811,-26.6674 108.96,-31.4097"/>
</g>
<!-- WORKFLOWINTERNALSOURCECONTROL -->
<g id="node56" class="node"><title>WORKFLOWINTERNALSOURCECONTROL</title>
<polygon fill="#ff4040" stroke="black" points="595,-775 588,-764.5 602,-764.5 595,-775"/>
</g>
<!-- WORKFLOWINTERNALSINKCONTROL -->
<g id="node58" class="node"><title>WORKFLOWINTERNALSINKCONTROL</title>
<polygon fill="#66cd00" stroke="black" points="252,-42 259,-52.5 245,-52.5 252,-42"/>
</g>
</g>
</svg>
