<?xml version="1.0" encoding="UTF-8" standalone="no"?>
<!DOCTYPE svg PUBLIC "-//W3C//DTD SVG 1.1//EN"
 "http://www.w3.org/Graphics/SVG/1.1/DTD/svg11.dtd">
<!-- Generated by graphviz version 2.26.0 (20091210.2329)
 -->
<!-- Title: t2flow_graph Pages: 1 -->
<svg width="258pt" height="826pt"
 viewBox="0.00 0.00 258.00 826.00" xmlns="http://www.w3.org/2000/svg" xmlns:xlink="http://www.w3.org/1999/xlink">
<g id="graph1" class="graph" transform="scale(1 1) rotate(0) translate(4 822)">
<title>t2flow_graph</title>
<polygon fill="white" stroke="white" points="-4,5 -4,-822 255,-822 255,5 -4,5"/>
<g id="graph2" class="cluster"><title>cluster_sources</title>
<polygon fill="none" stroke="black" stroke-dasharray="1,5" points="133,-751 133,-810 225,-810 225,-751 133,-751"/>
<text text-anchor="middle" x="177" y="-797" font-family="Helvetica,sans-Serif" font-size="10.00">Workflow Inputs</text>
</g>
<g id="graph3" class="cluster"><title>cluster_sinks</title>
<polygon fill="none" stroke="black" stroke-dasharray="1,5" points="132,-8 132,-67 227,-67 227,-8 132,-8"/>
<text text-anchor="middle" x="179.5" y="-54" font-family="Helvetica,sans-Serif" font-size="10.00">Workflow Outputs</text>
</g>
<!-- uploadImage -->
<g id="node1" class="node"><title>uploadImage</title>
<polygon fill="#a2cd5a" stroke="black" points="206,-666.5 134,-666.5 134,-645.5 206,-645.5 206,-666.5"/>
<text text-anchor="middle" x="170" y="-653.5" font-family="Helvetica,sans-Serif" font-size="10.00">uploadImage</text>
</g>
<!-- uploadImage_output -->
<g id="node3" class="node"><title>uploadImage_output</title>
<polygon fill="#ab92ea" stroke="black" points="222,-628.5 118,-628.5 118,-607.5 222,-607.5 222,-628.5"/>
<text text-anchor="middle" x="170" y="-615.5" font-family="Helvetica,sans-Serif" font-size="10.00">uploadImage_output</text>
</g>
<!-- uploadImage&#45;&gt;uploadImage_output -->
<g id="edge8" class="edge"><title>uploadImage&#45;&gt;uploadImage_output</title>
<path fill="none" stroke="black" d="M170,-645.212C170,-643.19 170,-641.013 170,-638.804"/>
<polygon fill="black" stroke="black" points="173.5,-638.683 170,-628.683 166.5,-638.683 173.5,-638.683"/>
</g>
<!-- uploadImage_input -->
<g id="node2" class="node"><title>uploadImage_input</title>
<polygon fill="#ab92ea" stroke="black" points="219,-704.5 121,-704.5 121,-683.5 219,-683.5 219,-704.5"/>
<text text-anchor="middle" x="170" y="-691.5" font-family="Helvetica,sans-Serif" font-size="10.00">uploadImage_input</text>
</g>
<!-- uploadImage_input&#45;&gt;uploadImage -->
<g id="edge4" class="edge"><title>uploadImage_input&#45;&gt;uploadImage</title>
<path fill="none" stroke="black" d="M170,-683.212C170,-681.19 170,-679.013 170,-676.804"/>
<polygon fill="black" stroke="black" points="173.5,-676.683 170,-666.683 166.5,-676.683 173.5,-676.683"/>
</g>
<!-- transformImage_input -->
<g id="node5" class="node"><title>transformImage_input</title>
<polygon fill="#ab92ea" stroke="black" points="223,-590.5 113,-590.5 113,-569.5 223,-569.5 223,-590.5"/>
<text text-anchor="middle" x="168" y="-577.5" font-family="Helvetica,sans-Serif" font-size="10.00">transformImage_input</text>
</g>
<!-- uploadImage_output&#45;&gt;transformImage_input -->
<g id="edge14" class="edge"><title>uploadImage_output&#45;&gt;transformImage_input</title>
<path fill="none" stroke="black" d="M169.432,-607.212C169.326,-605.19 169.211,-603.013 169.095,-600.804"/>
<polygon fill="black" stroke="black" points="172.583,-600.485 168.562,-590.683 165.593,-600.853 172.583,-600.485"/>
</g>
<!-- transformImage -->
<g id="node4" class="node"><title>transformImage</title>
<polygon fill="#a2cd5a" stroke="black" points="210,-552.5 126,-552.5 126,-531.5 210,-531.5 210,-552.5"/>
<text text-anchor="middle" x="168" y="-539.5" font-family="Helvetica,sans-Serif" font-size="10.00">transformImage</text>
</g>
<!-- transformImage_output -->
<g id="node7" class="node"><title>transformImage_output</title>
<polygon fill="#ab92ea" stroke="black" points="226,-514.5 110,-514.5 110,-493.5 226,-493.5 226,-514.5"/>
<text text-anchor="middle" x="168" y="-501.5" font-family="Helvetica,sans-Serif" font-size="10.00">transformImage_output</text>
</g>
<!-- transformImage&#45;&gt;transformImage_output -->
<g id="edge16" class="edge"><title>transformImage&#45;&gt;transformImage_output</title>
<path fill="none" stroke="black" d="M168,-531.212C168,-529.19 168,-527.013 168,-524.804"/>
<polygon fill="black" stroke="black" points="171.5,-524.683 168,-514.683 164.5,-524.683 171.5,-524.683"/>
</g>
<!-- transformImage_input&#45;&gt;transformImage -->
<g id="edge10" class="edge"><title>transformImage_input&#45;&gt;transformImage</title>
<path fill="none" stroke="black" d="M168,-569.212C168,-567.19 168,-565.013 168,-562.804"/>
<polygon fill="black" stroke="black" points="171.5,-562.683 168,-552.683 164.5,-562.683 171.5,-562.683"/>
</g>
<!-- ConvertTo8Bit -->
<g id="node6" class="node"><title>ConvertTo8Bit</title>
<polygon fill="#b0c4de" stroke="black" points="114,-628.5 34,-628.5 34,-607.5 114,-607.5 114,-628.5"/>
<text text-anchor="middle" x="74" y="-615.5" font-family="Helvetica,sans-Serif" font-size="10.00">ConvertTo8Bit</text>
</g>
<!-- ConvertTo8Bit&#45;&gt;transformImage_input -->
<g id="edge12" class="edge"><title>ConvertTo8Bit&#45;&gt;transformImage_input</title>
<path fill="none" stroke="black" d="M100.184,-607.415C110.166,-603.38 121.718,-598.71 132.427,-594.38"/>
<polygon fill="black" stroke="black" points="133.997,-597.521 141.956,-590.528 131.373,-591.031 133.997,-597.521"/>
</g>
<!-- transformImage_2_input -->
<g id="node9" class="node"><title>transformImage_2_input</title>
<polygon fill="#ab92ea" stroke="black" points="229,-476.5 107,-476.5 107,-455.5 229,-455.5 229,-476.5"/>
<text text-anchor="middle" x="168" y="-463.5" font-family="Helvetica,sans-Serif" font-size="10.00">transformImage_2_input</text>
</g>
<!-- transformImage_output&#45;&gt;transformImage_2_input -->
<g id="edge22" class="edge"><title>transformImage_output&#45;&gt;transformImage_2_input</title>
<path fill="none" stroke="black" d="M168,-493.212C168,-491.19 168,-489.013 168,-486.804"/>
<polygon fill="black" stroke="black" points="171.5,-486.683 168,-476.683 164.5,-486.683 171.5,-486.683"/>
</g>
<!-- transformImage_2 -->
<g id="node8" class="node"><title>transformImage_2</title>
<polygon fill="#a2cd5a" stroke="black" points="215,-438.5 121,-438.5 121,-417.5 215,-417.5 215,-438.5"/>
<text text-anchor="middle" x="168" y="-425.5" font-family="Helvetica,sans-Serif" font-size="10.00">transformImage_2</text>
</g>
<!-- transformImage_2_output -->
<g id="node11" class="node"><title>transformImage_2_output</title>
<polygon fill="#ab92ea" stroke="black" points="232,-400.5 104,-400.5 104,-379.5 232,-379.5 232,-400.5"/>
<text text-anchor="middle" x="168" y="-387.5" font-family="Helvetica,sans-Serif" font-size="10.00">transformImage_2_output</text>
</g>
<!-- transformImage_2&#45;&gt;transformImage_2_output -->
<g id="edge24" class="edge"><title>transformImage_2&#45;&gt;transformImage_2_output</title>
<path fill="none" stroke="black" d="M168,-417.212C168,-415.19 168,-413.013 168,-410.804"/>
<polygon fill="black" stroke="black" points="171.5,-410.683 168,-400.683 164.5,-410.683 171.5,-410.683"/>
</g>
<!-- transformImage_2_input&#45;&gt;transformImage_2 -->
<g id="edge18" class="edge"><title>transformImage_2_input&#45;&gt;transformImage_2</title>
<path fill="none" stroke="black" d="M168,-455.212C168,-453.19 168,-451.013 168,-448.804"/>
<polygon fill="black" stroke="black" points="171.5,-448.683 168,-438.683 164.5,-448.683 171.5,-448.683"/>
</g>
<!-- AutoThresholdImage -->
<g id="node10" class="node"><title>AutoThresholdImage</title>
<polygon fill="#b0c4de" stroke="black" points="106,-514.5 5.68434e-14,-514.5 0,-493.5 106,-493.5 106,-514.5"/>
<text text-anchor="middle" x="53" y="-501.5" font-family="Helvetica,sans-Serif" font-size="10.00">AutoThresholdImage</text>
</g>
<!-- AutoThresholdImage&#45;&gt;transformImage_2_input -->
<g id="edge20" class="edge"><title>AutoThresholdImage&#45;&gt;transformImage_2_input</title>
<path fill="none" stroke="black" d="M85.0339,-493.415C97.869,-489.174 112.826,-484.232 126.477,-479.721"/>
<polygon fill="black" stroke="black" points="127.741,-482.989 136.138,-476.528 125.545,-476.343 127.741,-482.989"/>
</g>
<!-- extractFeatures_input -->
<g id="node13" class="node"><title>extractFeatures_input</title>
<polygon fill="#ab92ea" stroke="black" points="222,-362.5 112,-362.5 112,-341.5 222,-341.5 222,-362.5"/>
<text text-anchor="middle" x="167" y="-349.5" font-family="Helvetica,sans-Serif" font-size="10.00">extractFeatures_input</text>
</g>
<!-- transformImage_2_output&#45;&gt;extractFeatures_input -->
<g id="edge30" class="edge"><title>transformImage_2_output&#45;&gt;extractFeatures_input</title>
<path fill="none" stroke="black" d="M167.716,-379.212C167.663,-377.19 167.606,-375.013 167.547,-372.804"/>
<polygon fill="black" stroke="black" points="171.043,-372.588 167.281,-362.683 164.046,-372.772 171.043,-372.588"/>
</g>
<!-- extractFeatures -->
<g id="node12" class="node"><title>extractFeatures</title>
<polygon fill="#a2cd5a" stroke="black" points="209,-324.5 125,-324.5 125,-303.5 209,-303.5 209,-324.5"/>
<text text-anchor="middle" x="167" y="-311.5" font-family="Helvetica,sans-Serif" font-size="10.00">extractFeatures</text>
</g>
<!-- extractFeatures_2_input -->
<g id="node16" class="node"><title>extractFeatures_2_input</title>
<polygon fill="#ab92ea" stroke="black" points="226,-286.5 104,-286.5 104,-265.5 226,-265.5 226,-286.5"/>
<text text-anchor="middle" x="165" y="-273.5" font-family="Helvetica,sans-Serif" font-size="10.00">extractFeatures_2_input</text>
</g>
<!-- extractFeatures&#45;&gt;extractFeatures_2_input -->
<g id="edge36" class="edge"><title>extractFeatures&#45;&gt;extractFeatures_2_input</title>
<path fill="none" stroke="black" d="M166.432,-303.212C166.326,-301.19 166.211,-299.013 166.095,-296.804"/>
<polygon fill="black" stroke="black" points="169.583,-296.485 165.562,-286.683 162.593,-296.853 169.583,-296.485"/>
</g>
<!-- extractFeatures_input&#45;&gt;extractFeatures -->
<g id="edge26" class="edge"><title>extractFeatures_input&#45;&gt;extractFeatures</title>
<path fill="none" stroke="black" d="M167,-341.212C167,-339.19 167,-337.013 167,-334.804"/>
<polygon fill="black" stroke="black" points="170.5,-334.683 167,-324.683 163.5,-334.683 170.5,-334.683"/>
</g>
<!-- KUP_Enhance -->
<g id="node14" class="node"><title>KUP_Enhance</title>
<polygon fill="#b0c4de" stroke="black" points="100,-400.5 20,-400.5 20,-379.5 100,-379.5 100,-400.5"/>
<text text-anchor="middle" x="60" y="-387.5" font-family="Helvetica,sans-Serif" font-size="10.00">KUP_Enhance</text>
</g>
<!-- KUP_Enhance&#45;&gt;extractFeatures_input -->
<g id="edge28" class="edge"><title>KUP_Enhance&#45;&gt;extractFeatures_input</title>
<path fill="none" stroke="black" d="M89.8055,-379.415C101.516,-375.256 115.124,-370.423 127.624,-365.984"/>
<polygon fill="black" stroke="black" points="129.102,-369.173 137.354,-362.528 126.76,-362.577 129.102,-369.173"/>
</g>
<!-- extractFeatures_2 -->
<g id="node15" class="node"><title>extractFeatures_2</title>
<polygon fill="#a2cd5a" stroke="black" points="212,-248.5 118,-248.5 118,-227.5 212,-227.5 212,-248.5"/>
<text text-anchor="middle" x="165" y="-235.5" font-family="Helvetica,sans-Serif" font-size="10.00">extractFeatures_2</text>
</g>
<!-- getImageURL_input -->
<g id="node20" class="node"><title>getImageURL_input</title>
<polygon fill="#ab92ea" stroke="black" points="217,-210.5 113,-210.5 113,-189.5 217,-189.5 217,-210.5"/>
<text text-anchor="middle" x="165" y="-197.5" font-family="Helvetica,sans-Serif" font-size="10.00">getImageURL_input</text>
</g>
<!-- extractFeatures_2&#45;&gt;getImageURL_input -->
<g id="edge42" class="edge"><title>extractFeatures_2&#45;&gt;getImageURL_input</title>
<path fill="none" stroke="black" d="M165,-227.212C165,-225.19 165,-223.013 165,-220.804"/>
<polygon fill="black" stroke="black" points="168.5,-220.683 165,-210.683 161.5,-220.683 168.5,-220.683"/>
</g>
<!-- extractFeatures_2_input&#45;&gt;extractFeatures_2 -->
<g id="edge32" class="edge"><title>extractFeatures_2_input&#45;&gt;extractFeatures_2</title>
<path fill="none" stroke="black" d="M165,-265.212C165,-263.19 165,-261.013 165,-258.804"/>
<polygon fill="black" stroke="black" points="168.5,-258.683 165,-248.683 161.5,-258.683 168.5,-258.683"/>
</g>
<!-- KUP_ObjectDetection -->
<g id="node17" class="node"><title>KUP_ObjectDetection</title>
<polygon fill="#b0c4de" stroke="black" points="121,-324.5 9,-324.5 9,-303.5 121,-303.5 121,-324.5"/>
<text text-anchor="middle" x="65" y="-311.5" font-family="Helvetica,sans-Serif" font-size="10.00">KUP_ObjectDetection</text>
</g>
<!-- KUP_ObjectDetection&#45;&gt;extractFeatures_2_input -->
<g id="edge34" class="edge"><title>KUP_ObjectDetection&#45;&gt;extractFeatures_2_input</title>
<path fill="none" stroke="black" d="M92.8556,-303.415C103.691,-299.297 116.266,-294.519 127.853,-290.116"/>
<polygon fill="black" stroke="black" points="129.189,-293.352 137.294,-286.528 126.703,-286.809 129.189,-293.352"/>
</g>
<!-- ShowSegmentedImage -->
<g id="node18" class="node"><title>ShowSegmentedImage</title>
<polygon fill="#deb887" stroke="black" points="224,-96.5 106,-96.5 106,-75.5 224,-75.5 224,-96.5"/>
<text text-anchor="middle" x="165" y="-83.5" font-family="Helvetica,sans-Serif" font-size="10.00">ShowSegmentedImage</text>
</g>
<!-- WORKFLOWINTERNALSINK_image -->
<g id="node28" class="node"><title>WORKFLOWINTERNALSINK_image</title>
<polygon fill="#bcd2ee" stroke="black" points="186,-37.5 144,-37.5 144,-16.5 186,-16.5 186,-37.5"/>
<text text-anchor="middle" x="165" y="-24.5" font-family="Helvetica,sans-Serif" font-size="10.00">image</text>
</g>
<!-- ShowSegmentedImage&#45;&gt;WORKFLOWINTERNALSINK_image -->
<g id="edge48" class="edge"><title>ShowSegmentedImage&#45;&gt;WORKFLOWINTERNALSINK_image</title>
<path fill="none" stroke="black" d="M165,-75.452C165,-67.8285 165,-57.2768 165,-47.966"/>
<polygon fill="black" stroke="black" points="168.5,-47.8558 165,-37.8559 161.5,-47.8559 168.5,-47.8558"/>
</g>
<!-- getImageURL -->
<g id="node19" class="node"><title>getImageURL</title>
<polygon fill="#a2cd5a" stroke="black" points="203,-172.5 127,-172.5 127,-151.5 203,-151.5 203,-172.5"/>
<text text-anchor="middle" x="165" y="-159.5" font-family="Helvetica,sans-Serif" font-size="10.00">getImageURL</text>
</g>
<!-- getImageURL_output -->
<g id="node21" class="node"><title>getImageURL_output</title>
<polygon fill="#ab92ea" stroke="black" points="220,-134.5 110,-134.5 110,-113.5 220,-113.5 220,-134.5"/>
<text text-anchor="middle" x="165" y="-121.5" font-family="Helvetica,sans-Serif" font-size="10.00">getImageURL_output</text>
</g>
<!-- getImageURL&#45;&gt;getImageURL_output -->
<g id="edge44" class="edge"><title>getImageURL&#45;&gt;getImageURL_output</title>
<path fill="none" stroke="black" d="M165,-151.212C165,-149.19 165,-147.013 165,-144.804"/>
<polygon fill="black" stroke="black" points="168.5,-144.683 165,-134.683 161.5,-144.683 168.5,-144.683"/>
</g>
<!-- getImageURL_input&#45;&gt;getImageURL -->
<g id="edge40" class="edge"><title>getImageURL_input&#45;&gt;getImageURL</title>
<path fill="none" stroke="black" d="M165,-189.212C165,-187.19 165,-185.013 165,-182.804"/>
<polygon fill="black" stroke="black" points="168.5,-182.683 165,-172.683 161.5,-182.683 168.5,-182.683"/>
</g>
<!-- getImageURL_output&#45;&gt;ShowSegmentedImage -->
<g id="edge38" class="edge"><title>getImageURL_output&#45;&gt;ShowSegmentedImage</title>
<path fill="none" stroke="black" d="M165,-113.212C165,-111.19 165,-109.013 165,-106.804"/>
<polygon fill="black" stroke="black" points="168.5,-106.683 165,-96.6831 161.5,-106.683 168.5,-106.683"/>
</g>
<!-- Encode_Byte_Array_to_Base_64 -->
<g id="node22" class="node"><title>Encode_Byte_Array_to_Base_64</title>
<polygon fill="#d15fee" stroke="black" points="250,-742.5 90,-742.5 90,-721.5 250,-721.5 250,-742.5"/>
<text text-anchor="middle" x="170" y="-729.5" font-family="Helvetica,sans-Serif" font-size="10.00">Encode_Byte_Array_to_Base_64</text>
</g>
<!-- Encode_Byte_Array_to_Base_64&#45;&gt;uploadImage_input -->
<g id="edge6" class="edge"><title>Encode_Byte_Array_to_Base_64&#45;&gt;uploadImage_input</title>
<path fill="none" stroke="black" d="M170,-721.212C170,-719.19 170,-717.013 170,-714.804"/>
<polygon fill="black" stroke="black" points="173.5,-714.683 170,-704.683 166.5,-714.683 173.5,-714.683"/>
</g>
<!-- WORKFLOWINTERNALSOURCECONTROL -->
<g id="node24" class="node"><title>WORKFLOWINTERNALSOURCECONTROL</title>
<polygon fill="#ff4040" stroke="black" points="210,-777 203,-766.5 217,-766.5 210,-777"/>
</g>
<!-- WORKFLOWINTERNALSOURCE_imageFile -->
<g id="node25" class="node"><title>WORKFLOWINTERNALSOURCE_imageFile</title>
<polygon fill="skyblue" stroke="black" points="199,-780.5 141,-780.5 141,-759.5 199,-759.5 199,-780.5"/>
<text text-anchor="middle" x="170" y="-767.5" font-family="Helvetica,sans-Serif" font-size="10.00">imageFile</text>
</g>
<!-- WORKFLOWINTERNALSOURCE_imageFile&#45;&gt;Encode_Byte_Array_to_Base_64 -->
<g id="edge46" class="edge"><title>WORKFLOWINTERNALSOURCE_imageFile&#45;&gt;Encode_Byte_Array_to_Base_64</title>
<path fill="none" stroke="black" d="M170,-759.212C170,-757.19 170,-755.013 170,-752.804"/>
<polygon fill="black" stroke="black" points="173.5,-752.683 170,-742.683 166.5,-752.683 173.5,-752.683"/>
</g>
<!-- WORKFLOWINTERNALSINKCONTROL -->
<g id="node27" class="node"><title>WORKFLOWINTERNALSINKCONTROL</title>
<polygon fill="#66cd00" stroke="black" points="204,-20 211,-30.5 197,-30.5 204,-20"/>
</g>
</g>
</svg>
