<?xml version="1.0" encoding="UTF-8" standalone="no"?>
<!DOCTYPE svg PUBLIC "-//W3C//DTD SVG 1.1//EN"
 "http://www.w3.org/Graphics/SVG/1.1/DTD/svg11.dtd">
<!-- Generated by graphviz version 2.26.0 (20091210.2329)
 -->
<!-- Title: t2flow_graph Pages: 1 -->
<svg width="1056pt" height="446pt"
 viewBox="0.00 0.00 1056.00 446.00" xmlns="http://www.w3.org/2000/svg" xmlns:xlink="http://www.w3.org/1999/xlink">
<g id="graph1" class="graph" transform="scale(1 1) rotate(0) translate(4 442)">
<title>t2flow_graph</title>
<polygon fill="white" stroke="white" points="-4,5 -4,-442 1053,-442 1053,5 -4,5"/>
<g id="graph2" class="cluster"><title>cluster_sources</title>
<polygon fill="none" stroke="black" stroke-dasharray="1,5" points="808,-371 808,-430 1040,-430 1040,-371 808,-371"/>
<text text-anchor="middle" x="852" y="-417" font-family="Helvetica,sans-Serif" font-size="10.00">Workflow Inputs</text>
</g>
<g id="graph3" class="cluster"><title>cluster_sinks</title>
<polygon fill="none" stroke="black" stroke-dasharray="1,5" points="352,-8 352,-67 506,-67 506,-8 352,-8"/>
<text text-anchor="middle" x="399.5" y="-54" font-family="Helvetica,sans-Serif" font-size="10.00">Workflow Outputs</text>
</g>
<!-- warp2D -->
<g id="node1" class="node"><title>warp2D</title>
<polygon fill="#a2cd5a" stroke="black" points="498,-286.5 448,-286.5 448,-265.5 498,-265.5 498,-286.5"/>
<text text-anchor="middle" x="473" y="-273.5" font-family="Helvetica,sans-Serif" font-size="10.00">warp2D</text>
</g>
<!-- warp2D_output -->
<g id="node3" class="node"><title>warp2D_output</title>
<polygon fill="#ab92ea" stroke="black" points="478,-248.5 396,-248.5 396,-227.5 478,-227.5 478,-248.5"/>
<text text-anchor="middle" x="437" y="-235.5" font-family="Helvetica,sans-Serif" font-size="10.00">warp2D_output</text>
</g>
<!-- warp2D&#45;&gt;warp2D_output -->
<g id="edge28" class="edge"><title>warp2D&#45;&gt;warp2D_output</title>
<path fill="none" stroke="black" d="M462.78,-265.212C460.097,-262.38 457.129,-259.247 454.189,-256.144"/>
<polygon fill="black" stroke="black" points="456.539,-253.536 447.121,-248.683 451.457,-258.35 456.539,-253.536"/>
</g>
<!-- warp2D_input -->
<g id="node2" class="node"><title>warp2D_input</title>
<polygon fill="#ab92ea" stroke="black" points="529,-324.5 453,-324.5 453,-303.5 529,-303.5 529,-324.5"/>
<text text-anchor="middle" x="491" y="-311.5" font-family="Helvetica,sans-Serif" font-size="10.00">warp2D_input</text>
</g>
<!-- warp2D_input&#45;&gt;warp2D -->
<g id="edge4" class="edge"><title>warp2D_input&#45;&gt;warp2D</title>
<path fill="none" stroke="black" d="M485.89,-303.212C484.779,-300.866 483.569,-298.313 482.351,-295.741"/>
<polygon fill="black" stroke="black" points="485.504,-294.222 478.06,-286.683 479.178,-297.219 485.504,-294.222"/>
</g>
<!-- Sleep -->
<g id="node15" class="node"><title>Sleep</title>
<polygon fill="#deb887" stroke="black" points="416,-210.5 376,-210.5 376,-189.5 416,-189.5 416,-210.5"/>
<text text-anchor="middle" x="396" y="-197.5" font-family="Helvetica,sans-Serif" font-size="10.00">Sleep</text>
</g>
<!-- warp2D_output&#45;&gt;Sleep -->
<g id="edge36" class="edge"><title>warp2D_output&#45;&gt;Sleep</title>
<path fill="none" stroke="black" d="M425.361,-227.212C422.131,-224.219 418.537,-220.888 415.003,-217.613"/>
<polygon fill="black" stroke="black" points="417.24,-214.914 407.526,-210.683 412.482,-220.048 417.24,-214.914"/>
</g>
<!-- DownloadResults -->
<g id="node17" class="node"><title>DownloadResults</title>
<polygon fill="#d15fee" stroke="black" points="437,-96.5 343,-96.5 343,-75.5 437,-75.5 437,-96.5"/>
<text text-anchor="middle" x="390" y="-83.5" font-family="Helvetica,sans-Serif" font-size="10.00">DownloadResults</text>
</g>
<!-- warp2D_output&#45;&gt;DownloadResults -->
<g id="edge42" class="edge"><title>warp2D_output&#45;&gt;DownloadResults</title>
<path fill="none" stroke="black" d="M438.84,-227.436C442.226,-204.776 447.286,-150.517 426,-113 423.875,-109.254 420.996,-105.87 417.786,-102.865"/>
<polygon fill="black" stroke="black" points="419.889,-100.065 409.895,-96.5495 415.515,-105.531 419.889,-100.065"/>
</g>
<!-- APIKey_value -->
<g id="node4" class="node"><title>APIKey_value</title>
<polygon fill="#b0c4de" stroke="black" points="78,-400.5 3.55271e-14,-400.5 0,-379.5 78,-379.5 78,-400.5"/>
<text text-anchor="middle" x="39" y="-387.5" font-family="Helvetica,sans-Serif" font-size="10.00">APIKey_value</text>
</g>
<!-- APIKey_value&#45;&gt;warp2D_input -->
<g id="edge6" class="edge"><title>APIKey_value&#45;&gt;warp2D_input</title>
<path fill="none" stroke="black" d="M38.2645,-379.131C38.1522,-367.728 39.9767,-350.209 51,-341 65.8292,-328.612 331.168,-318.964 442.48,-315.444"/>
<polygon fill="black" stroke="black" points="442.872,-318.934 452.758,-315.123 442.653,-311.937 442.872,-318.934"/>
</g>
<!-- getJobState_input -->
<g id="node14" class="node"><title>getJobState_input</title>
<polygon fill="#ab92ea" stroke="black" points="430,-172.5 336,-172.5 336,-151.5 430,-151.5 430,-172.5"/>
<text text-anchor="middle" x="383" y="-159.5" font-family="Helvetica,sans-Serif" font-size="10.00">getJobState_input</text>
</g>
<!-- APIKey_value&#45;&gt;getJobState_input -->
<g id="edge32" class="edge"><title>APIKey_value&#45;&gt;getJobState_input</title>
<path fill="none" stroke="black" d="M35.4438,-379.32C33.9054,-374.395 32.1889,-368.445 31,-363 26.3071,-341.508 24,-335.999 24,-314 24,-314 24,-314 24,-238 24,-207.55 224.225,-180.194 325.614,-168.293"/>
<polygon fill="black" stroke="black" points="326.168,-171.752 335.698,-167.122 325.361,-164.799 326.168,-171.752"/>
</g>
<!-- APIKey_value&#45;&gt;DownloadResults -->
<g id="edge40" class="edge"><title>APIKey_value&#45;&gt;DownloadResults</title>
<path fill="none" stroke="black" d="M37.8403,-379.191C36.3633,-364.467 34,-337.272 34,-314 34,-314 34,-314 34,-162 34,-131.832 232.05,-104.386 332.711,-92.3852"/>
<polygon fill="black" stroke="black" points="333.205,-95.8513 342.726,-91.2038 332.385,-88.8995 333.205,-95.8513"/>
</g>
<!-- DataUpload -->
<g id="node18" class="node"><title>DataUpload</title>
<polygon fill="#d15fee" stroke="black" points="947,-362.5 879,-362.5 879,-341.5 947,-341.5 947,-362.5"/>
<text text-anchor="middle" x="913" y="-349.5" font-family="Helvetica,sans-Serif" font-size="10.00">DataUpload</text>
</g>
<!-- APIKey_value&#45;&gt;DataUpload -->
<g id="edge48" class="edge"><title>APIKey_value&#45;&gt;DataUpload</title>
<path fill="none" stroke="black" d="M78.2087,-389.309C227.569,-386.599 757.921,-376.26 868.568,-363.686"/>
<polygon fill="black" stroke="black" points="869.25,-367.127 878.703,-362.343 868.33,-360.187 869.25,-367.127"/>
</g>
<!-- maxPeaksPerSegment_value -->
<g id="node5" class="node"><title>maxPeaksPerSegment_value</title>
<polygon fill="#b0c4de" stroke="black" points="197,-362.5 51,-362.5 51,-341.5 197,-341.5 197,-362.5"/>
<text text-anchor="middle" x="124" y="-349.5" font-family="Helvetica,sans-Serif" font-size="10.00">maxPeaksPerSegment_value</text>
</g>
<!-- maxPeaksPerSegment_value&#45;&gt;warp2D_input -->
<g id="edge8" class="edge"><title>maxPeaksPerSegment_value&#45;&gt;warp2D_input</title>
<path fill="none" stroke="black" d="M196.942,-341.487C198.305,-341.321 199.659,-341.158 201,-341 285.858,-330.995 385.046,-322.434 442.672,-317.77"/>
<polygon fill="black" stroke="black" points="443.248,-321.235 452.936,-316.945 442.687,-314.257 443.248,-321.235"/>
</g>
<!-- MZwidth_value -->
<g id="node6" class="node"><title>MZwidth_value</title>
<polygon fill="#b0c4de" stroke="black" points="283,-362.5 201,-362.5 201,-341.5 283,-341.5 283,-362.5"/>
<text text-anchor="middle" x="242" y="-349.5" font-family="Helvetica,sans-Serif" font-size="10.00">MZwidth_value</text>
</g>
<!-- MZwidth_value&#45;&gt;warp2D_input -->
<g id="edge10" class="edge"><title>MZwidth_value&#45;&gt;warp2D_input</title>
<path fill="none" stroke="black" d="M283.16,-341.75C284.453,-341.488 285.735,-341.238 287,-341 339.922,-331.06 401.244,-323.465 442.728,-318.899"/>
<polygon fill="black" stroke="black" points="443.266,-322.362 452.831,-317.804 442.512,-315.403 443.266,-322.362"/>
</g>
<!-- RTwidth_value -->
<g id="node7" class="node"><title>RTwidth_value</title>
<polygon fill="#b0c4de" stroke="black" points="369,-362.5 287,-362.5 287,-341.5 369,-341.5 369,-362.5"/>
<text text-anchor="middle" x="328" y="-349.5" font-family="Helvetica,sans-Serif" font-size="10.00">RTwidth_value</text>
</g>
<!-- RTwidth_value&#45;&gt;warp2D_input -->
<g id="edge12" class="edge"><title>RTwidth_value&#45;&gt;warp2D_input</title>
<path fill="none" stroke="black" d="M369.193,-341.905C370.476,-341.599 371.748,-341.296 373,-341 396.04,-335.548 421.653,-329.666 443.114,-324.788"/>
<polygon fill="black" stroke="black" points="443.993,-328.178 452.97,-322.552 442.444,-321.351 443.993,-328.178"/>
</g>
<!-- winSize_value -->
<g id="node8" class="node"><title>winSize_value</title>
<polygon fill="#b0c4de" stroke="black" points="453,-362.5 373,-362.5 373,-341.5 453,-341.5 453,-362.5"/>
<text text-anchor="middle" x="413" y="-349.5" font-family="Helvetica,sans-Serif" font-size="10.00">winSize_value</text>
</g>
<!-- winSize_value&#45;&gt;warp2D_input -->
<g id="edge14" class="edge"><title>winSize_value&#45;&gt;warp2D_input</title>
<path fill="none" stroke="black" d="M434.727,-341.415C442.672,-337.544 451.816,-333.09 460.391,-328.912"/>
<polygon fill="black" stroke="black" points="461.932,-332.055 469.389,-324.528 458.866,-325.762 461.932,-332.055"/>
</g>
<!-- slack_value -->
<g id="node9" class="node"><title>slack_value</title>
<polygon fill="#b0c4de" stroke="black" points="525,-362.5 457,-362.5 457,-341.5 525,-341.5 525,-362.5"/>
<text text-anchor="middle" x="491" y="-349.5" font-family="Helvetica,sans-Serif" font-size="10.00">slack_value</text>
</g>
<!-- slack_value&#45;&gt;warp2D_input -->
<g id="edge16" class="edge"><title>slack_value&#45;&gt;warp2D_input</title>
<path fill="none" stroke="black" d="M491,-341.212C491,-339.19 491,-337.013 491,-334.804"/>
<polygon fill="black" stroke="black" points="494.5,-334.683 491,-324.683 487.5,-334.683 494.5,-334.683"/>
</g>
<!-- NTimePoints_value -->
<g id="node10" class="node"><title>NTimePoints_value</title>
<polygon fill="#b0c4de" stroke="black" points="631,-362.5 529,-362.5 529,-341.5 631,-341.5 631,-362.5"/>
<text text-anchor="middle" x="580" y="-349.5" font-family="Helvetica,sans-Serif" font-size="10.00">NTimePoints_value</text>
</g>
<!-- NTimePoints_value&#45;&gt;warp2D_input -->
<g id="edge18" class="edge"><title>NTimePoints_value&#45;&gt;warp2D_input</title>
<path fill="none" stroke="black" d="M555.209,-341.415C545.854,-337.421 535.043,-332.805 524.991,-328.513"/>
<polygon fill="black" stroke="black" points="526.23,-325.236 515.659,-324.528 523.481,-331.674 526.23,-325.236"/>
</g>
<!-- sampShift_value -->
<g id="node11" class="node"><title>sampShift_value</title>
<polygon fill="#b0c4de" stroke="black" points="723,-362.5 635,-362.5 635,-341.5 723,-341.5 723,-362.5"/>
<text text-anchor="middle" x="679" y="-349.5" font-family="Helvetica,sans-Serif" font-size="10.00">sampShift_value</text>
</g>
<!-- sampShift_value&#45;&gt;warp2D_input -->
<g id="edge20" class="edge"><title>sampShift_value&#45;&gt;warp2D_input</title>
<path fill="none" stroke="black" d="M634.811,-341.813C633.527,-341.536 632.255,-341.265 631,-341 600.503,-334.567 566.138,-327.93 539.087,-322.847"/>
<polygon fill="black" stroke="black" points="539.574,-319.377 529.101,-320.978 538.286,-326.258 539.574,-319.377"/>
</g>
<!-- outputWarpedFileName_value -->
<g id="node12" class="node"><title>outputWarpedFileName_value</title>
<polygon fill="#b0c4de" stroke="black" points="875,-362.5 727,-362.5 727,-341.5 875,-341.5 875,-362.5"/>
<text text-anchor="middle" x="801" y="-349.5" font-family="Helvetica,sans-Serif" font-size="10.00">outputWarpedFileName_value</text>
</g>
<!-- outputWarpedFileName_value&#45;&gt;warp2D_input -->
<g id="edge22" class="edge"><title>outputWarpedFileName_value&#45;&gt;warp2D_input</title>
<path fill="none" stroke="black" d="M726.692,-341.479C725.452,-341.317 724.221,-341.157 723,-341 659.624,-332.845 586.364,-324.499 539.402,-319.287"/>
<polygon fill="black" stroke="black" points="539.538,-315.781 529.214,-318.16 538.768,-322.739 539.538,-315.781"/>
</g>
<!-- getJobState -->
<g id="node13" class="node"><title>getJobState</title>
<polygon fill="#a2cd5a" stroke="black" points="424,-134.5 356,-134.5 356,-113.5 424,-113.5 424,-134.5"/>
<text text-anchor="middle" x="390" y="-121.5" font-family="Helvetica,sans-Serif" font-size="10.00">getJobState</text>
</g>
<!-- getJobState_output -->
<g id="node16" class="node"><title>getJobState_output</title>
<polygon fill="#ab92ea" stroke="black" points="541,-96.5 441,-96.5 441,-75.5 541,-75.5 541,-96.5"/>
<text text-anchor="middle" x="491" y="-83.5" font-family="Helvetica,sans-Serif" font-size="10.00">getJobState_output</text>
</g>
<!-- getJobState&#45;&gt;getJobState_output -->
<g id="edge38" class="edge"><title>getJobState&#45;&gt;getJobState_output</title>
<path fill="none" stroke="black" d="M418.134,-113.415C429.078,-109.297 441.779,-104.519 453.482,-100.116"/>
<polygon fill="black" stroke="black" points="454.89,-103.326 463.017,-96.5284 452.425,-96.774 454.89,-103.326"/>
</g>
<!-- getJobState&#45;&gt;DownloadResults -->
<g id="edge56" class="edge"><title>getJobState&#45;&gt;DownloadResults</title>
<path fill="none" stroke="gray" d="M390,-113.212C390,-110.623 390,-107.782 390,-104.943"/>
<ellipse fill="none" stroke="gray" cx="390" cy="-100.683" rx="4" ry="4"/>
</g>
<!-- getJobState_input&#45;&gt;getJobState -->
<g id="edge30" class="edge"><title>getJobState_input&#45;&gt;getJobState</title>
<path fill="none" stroke="black" d="M384.987,-151.212C385.375,-149.109 385.793,-146.839 386.217,-144.538"/>
<polygon fill="black" stroke="black" points="389.662,-145.152 388.032,-134.683 382.778,-143.884 389.662,-145.152"/>
</g>
<!-- Sleep&#45;&gt;getJobState_input -->
<g id="edge34" class="edge"><title>Sleep&#45;&gt;getJobState_input</title>
<path fill="none" stroke="black" d="M392.309,-189.212C391.562,-187.028 390.753,-184.664 389.935,-182.273"/>
<polygon fill="black" stroke="black" points="393.203,-181.012 386.655,-172.683 386.58,-183.278 393.203,-181.012"/>
</g>
<!-- WORKFLOWINTERNALSINK_ResultFile -->
<g id="node25" class="node"><title>WORKFLOWINTERNALSINK_ResultFile</title>
<polygon fill="#bcd2ee" stroke="black" points="420,-37.5 360,-37.5 360,-16.5 420,-16.5 420,-37.5"/>
<text text-anchor="middle" x="390" y="-24.5" font-family="Helvetica,sans-Serif" font-size="10.00">ResultFile</text>
</g>
<!-- DownloadResults&#45;&gt;WORKFLOWINTERNALSINK_ResultFile -->
<g id="edge54" class="edge"><title>DownloadResults&#45;&gt;WORKFLOWINTERNALSINK_ResultFile</title>
<path fill="none" stroke="black" d="M390,-75.452C390,-67.8285 390,-57.2768 390,-47.966"/>
<polygon fill="black" stroke="black" points="393.5,-47.8558 390,-37.8559 386.5,-47.8559 393.5,-47.8558"/>
</g>
<!-- WORKFLOWINTERNALSINK_Message -->
<g id="node26" class="node"><title>WORKFLOWINTERNALSINK_Message</title>
<polygon fill="#bcd2ee" stroke="black" points="480,-37.5 424,-37.5 424,-16.5 480,-16.5 480,-37.5"/>
<text text-anchor="middle" x="452" y="-24.5" font-family="Helvetica,sans-Serif" font-size="10.00">Message</text>
</g>
<!-- DownloadResults&#45;&gt;WORKFLOWINTERNALSINK_Message -->
<g id="edge50" class="edge"><title>DownloadResults&#45;&gt;WORKFLOWINTERNALSINK_Message</title>
<path fill="none" stroke="black" d="M408.776,-75.4596C412.661,-72.9149 416.601,-70.0434 420,-67 426.894,-60.8263 433.471,-53.0622 438.85,-46.0209"/>
<polygon fill="black" stroke="black" points="441.883,-47.8022 444.955,-37.6625 436.23,-43.6733 441.883,-47.8022"/>
</g>
<!-- DataUpload&#45;&gt;warp2D_input -->
<g id="edge24" class="edge"><title>DataUpload&#45;&gt;warp2D_input</title>
<path fill="none" stroke="black" d="M878.866,-342.649C876.214,-342.021 873.57,-341.457 871,-341 808.404,-329.869 626.738,-320.369 539.214,-316.225"/>
<polygon fill="black" stroke="black" points="539.174,-312.719 529.021,-315.746 538.846,-319.711 539.174,-312.719"/>
</g>
<!-- DataUpload&#45;&gt;warp2D_input -->
<g id="edge26" class="edge"><title>DataUpload&#45;&gt;warp2D_input</title>
<path fill="none" stroke="black" d="M878.693,-341.717C877.451,-341.457 876.217,-341.216 875,-341 811.865,-329.773 627.605,-320.206 539.292,-316.119"/>
<polygon fill="black" stroke="black" points="539.416,-312.621 529.266,-315.659 539.096,-319.614 539.416,-312.621"/>
</g>
<!-- DataUpload&#45;&gt;warp2D_input -->
<g id="edge58" class="edge"><title>DataUpload&#45;&gt;warp2D_input</title>
<path fill="none" stroke="gray" d="M881.454,-341.463C880.63,-341.299 879.811,-341.144 879,-341 814.859,-329.594 625.7,-319.901 537.375,-315.928"/>
<ellipse fill="none" stroke="gray" cx="533.146" cy="-315.739" rx="4" ry="4"/>
</g>
<!-- DataUpload&#45;&gt;WORKFLOWINTERNALSINK_Message -->
<g id="edge52" class="edge"><title>DataUpload&#45;&gt;WORKFLOWINTERNALSINK_Message</title>
<path fill="none" stroke="black" d="M878.579,-341.377C825.568,-324.515 730,-291.911 730,-276 730,-276 730,-276 730,-124 730,-38.083 627.28,-91.6917 543,-75 517.042,-69.859 507.024,-80.0431 484,-67 475.435,-62.1481 468.294,-54.014 462.947,-46.343"/>
<polygon fill="black" stroke="black" points="465.827,-44.3476 457.517,-37.7751 459.914,-48.0951 465.827,-44.3476"/>
</g>
<!-- WORKFLOWINTERNALSOURCECONTROL -->
<g id="node20" class="node"><title>WORKFLOWINTERNALSOURCECONTROL</title>
<polygon fill="#ff4040" stroke="black" points="1025,-397 1018,-386.5 1032,-386.5 1025,-397"/>
</g>
<!-- WORKFLOWINTERNALSOURCE_refrencePeaklistFile -->
<g id="node21" class="node"><title>WORKFLOWINTERNALSOURCE_refrencePeaklistFile</title>
<polygon fill="skyblue" stroke="black" points="1014,-400.5 912,-400.5 912,-379.5 1014,-379.5 1014,-400.5"/>
<text text-anchor="middle" x="963" y="-387.5" font-family="Helvetica,sans-Serif" font-size="10.00">refrencePeaklistFile</text>
</g>
<!-- WORKFLOWINTERNALSOURCE_refrencePeaklistFile&#45;&gt;DataUpload -->
<g id="edge44" class="edge"><title>WORKFLOWINTERNALSOURCE_refrencePeaklistFile&#45;&gt;DataUpload</title>
<path fill="none" stroke="black" d="M949.072,-379.415C944.738,-376.121 939.847,-372.404 935.098,-368.794"/>
<polygon fill="black" stroke="black" points="936.933,-365.793 926.853,-362.528 932.697,-371.366 936.933,-365.793"/>
</g>
<!-- WORKFLOWINTERNALSOURCE_sampPeaklistFile -->
<g id="node22" class="node"><title>WORKFLOWINTERNALSOURCE_sampPeaklistFile</title>
<polygon fill="skyblue" stroke="black" points="908,-400.5 816,-400.5 816,-379.5 908,-379.5 908,-400.5"/>
<text text-anchor="middle" x="862" y="-387.5" font-family="Helvetica,sans-Serif" font-size="10.00">sampPeaklistFile</text>
</g>
<!-- WORKFLOWINTERNALSOURCE_sampPeaklistFile&#45;&gt;DataUpload -->
<g id="edge46" class="edge"><title>WORKFLOWINTERNALSOURCE_sampPeaklistFile&#45;&gt;DataUpload</title>
<path fill="none" stroke="black" d="M876.206,-379.415C880.738,-376.038 885.866,-372.218 890.823,-368.524"/>
<polygon fill="black" stroke="black" points="892.942,-371.31 898.87,-362.528 888.76,-365.697 892.942,-371.31"/>
</g>
<!-- WORKFLOWINTERNALSINKCONTROL -->
<g id="node24" class="node"><title>WORKFLOWINTERNALSINKCONTROL</title>
<polygon fill="#66cd00" stroke="black" points="491,-20 498,-30.5 484,-30.5 491,-20"/>
</g>
</g>
</svg>
