<?xml version="1.0" encoding="UTF-8" standalone="no"?>
<!DOCTYPE svg PUBLIC "-//W3C//DTD SVG 1.1//EN"
 "http://www.w3.org/Graphics/SVG/1.1/DTD/svg11.dtd">
<!-- Generated by graphviz version 2.26.0 (20091210.2329)
 -->
<!-- Title: t2flow_graph Pages: 1 -->
<svg width="596pt" height="677pt"
 viewBox="0.00 0.00 596.00 677.00" xmlns="http://www.w3.org/2000/svg" xmlns:xlink="http://www.w3.org/1999/xlink">
<g id="graph1" class="graph" transform="scale(1 1) rotate(0) translate(4 673)">
<title>t2flow_graph</title>
<polygon fill="white" stroke="white" points="-4,5 -4,-673 593,-673 593,5 -4,5"/>
<g id="graph2" class="cluster"><title>cluster_StatusStatus</title>
<polygon fill="aliceblue" stroke="black" points="155,-181 155,-450 327,-450 327,-181 155,-181"/>
<text text-anchor="middle" x="177.5" y="-437" font-family="Helvetica,sans-Serif" font-size="10.00">Status</text>
</g>
<g id="graph3" class="cluster"><title>cluster_Statussources</title>
<polygon fill="none" stroke="black" stroke-dasharray="1,5" points="226,-362 226,-421 314,-421 314,-362 226,-362"/>
<text text-anchor="middle" x="270" y="-408" font-family="Helvetica,sans-Serif" font-size="10.00">Workflow Inputs</text>
</g>
<g id="graph4" class="cluster"><title>cluster_Statussinks</title>
<polygon fill="none" stroke="black" stroke-dasharray="1,5" points="163,-189 163,-248 319,-248 319,-189 163,-189"/>
<text text-anchor="middle" x="210.5" y="-235" font-family="Helvetica,sans-Serif" font-size="10.00">Workflow Outputs</text>
</g>
<g id="graph5" class="cluster"><title>cluster_sources</title>
<polygon fill="none" stroke="black" stroke-dasharray="1,5" points="274,-602 274,-661 410,-661 410,-602 274,-602"/>
<text text-anchor="middle" x="318" y="-648" font-family="Helvetica,sans-Serif" font-size="10.00">Workflow Inputs</text>
</g>
<g id="graph6" class="cluster"><title>cluster_sinks</title>
<polygon fill="none" stroke="black" stroke-dasharray="1,5" points="8,-8 8,-67 580,-67 580,-8 8,-8"/>
<text text-anchor="middle" x="55.5" y="-54" font-family="Helvetica,sans-Serif" font-size="10.00">Workflow Outputs</text>
</g>
<!-- run -->
<g id="node1" class="node"><title>run</title>
<polygon fill="#a2cd5a" stroke="black" points="347,-517.5 317,-517.5 317,-496.5 347,-496.5 347,-517.5"/>
<text text-anchor="middle" x="332" y="-504.5" font-family="Helvetica,sans-Serif" font-size="10.00">run</text>
</g>
<!-- run_output -->
<g id="node4" class="node"><title>run_output</title>
<polygon fill="#ab92ea" stroke="black" points="363,-479.5 301,-479.5 301,-458.5 363,-458.5 363,-479.5"/>
<text text-anchor="middle" x="332" y="-466.5" font-family="Helvetica,sans-Serif" font-size="10.00">run_output</text>
</g>
<!-- run&#45;&gt;run_output -->
<g id="edge23" class="edge"><title>run&#45;&gt;run_output</title>
<path fill="none" stroke="black" d="M332,-496.212C332,-494.19 332,-492.013 332,-489.804"/>
<polygon fill="black" stroke="black" points="335.5,-489.683 332,-479.683 328.5,-489.683 335.5,-489.683"/>
</g>
<!-- run_input -->
<g id="node2" class="node"><title>run_input</title>
<polygon fill="#ab92ea" stroke="black" points="360,-555.5 304,-555.5 304,-534.5 360,-534.5 360,-555.5"/>
<text text-anchor="middle" x="332" y="-542.5" font-family="Helvetica,sans-Serif" font-size="10.00">run_input</text>
</g>
<!-- run_input&#45;&gt;run -->
<g id="edge15" class="edge"><title>run_input&#45;&gt;run</title>
<path fill="none" stroke="black" d="M332,-534.212C332,-532.19 332,-530.013 332,-527.804"/>
<polygon fill="black" stroke="black" points="335.5,-527.683 332,-517.683 328.5,-527.683 335.5,-527.683"/>
</g>
<!-- run_input_2 -->
<g id="node3" class="node"><title>run_input_2</title>
<polygon fill="#ab92ea" stroke="black" points="347,-593.5 281,-593.5 281,-572.5 347,-572.5 347,-593.5"/>
<text text-anchor="middle" x="314" y="-580.5" font-family="Helvetica,sans-Serif" font-size="10.00">run_input_2</text>
</g>
<!-- run_input_2&#45;&gt;run_input -->
<g id="edge17" class="edge"><title>run_input_2&#45;&gt;run_input</title>
<path fill="none" stroke="black" d="M319.11,-572.212C320.221,-569.866 321.431,-567.313 322.649,-564.741"/>
<polygon fill="black" stroke="black" points="325.822,-566.219 326.94,-555.683 319.496,-563.222 325.822,-566.219"/>
</g>
<!-- StatusWORKFLOWINTERNALSOURCE_JobID -->
<g id="node11" class="node"><title>StatusWORKFLOWINTERNALSOURCE_JobID</title>
<polygon fill="skyblue" stroke="black" points="282,-391.5 240,-391.5 240,-370.5 282,-370.5 282,-391.5"/>
<text text-anchor="middle" x="261" y="-378.5" font-family="Helvetica,sans-Serif" font-size="10.00">JobID</text>
</g>
<!-- run_output&#45;&gt;StatusWORKFLOWINTERNALSOURCE_JobID -->
<g id="edge25" class="edge"><title>run_output&#45;&gt;StatusWORKFLOWINTERNALSOURCE_JobID</title>
<path fill="none" stroke="black" d="M300.842,-459.804C295.75,-457.251 290.879,-454.034 287,-450 274.291,-436.783 267.664,-416.756 264.292,-401.676"/>
<polygon fill="black" stroke="black" points="267.706,-400.893 262.372,-391.739 260.833,-402.221 267.706,-400.893"/>
</g>
<!-- getResult_input -->
<g id="node21" class="node"><title>getResult_input</title>
<polygon fill="#ab92ea" stroke="black" points="161,-172.5 77,-172.5 77,-151.5 161,-151.5 161,-172.5"/>
<text text-anchor="middle" x="119" y="-159.5" font-family="Helvetica,sans-Serif" font-size="10.00">getResult_input</text>
</g>
<!-- run_output&#45;&gt;getResult_input -->
<g id="edge31" class="edge"><title>run_output&#45;&gt;getResult_input</title>
<path fill="none" stroke="black" d="M300.854,-465.892C239.305,-457.853 108,-430.453 108,-343 108,-343 108,-343 108,-267 108,-231.647 109.261,-220.64 114.937,-182.987"/>
<polygon fill="black" stroke="black" points="118.442,-183.22 116.478,-172.809 111.521,-182.173 118.442,-183.22"/>
</g>
<!-- getResult_graphic_input -->
<g id="node22" class="node"><title>getResult_graphic_input</title>
<polygon fill="#ab92ea" stroke="black" points="424,-172.5 302,-172.5 302,-151.5 424,-151.5 424,-172.5"/>
<text text-anchor="middle" x="363" y="-159.5" font-family="Helvetica,sans-Serif" font-size="10.00">getResult_graphic_input</text>
</g>
<!-- run_output&#45;&gt;getResult_graphic_input -->
<g id="edge35" class="edge"><title>run_output&#45;&gt;getResult_graphic_input</title>
<path fill="none" stroke="black" d="M343.25,-458.383C363.5,-438.062 404,-391.374 404,-343 404,-343 404,-343 404,-267 404,-228.651 417.733,-213.261 397,-181 396.735,-180.588 396.458,-180.183 396.169,-179.787"/>
<polygon fill="black" stroke="black" points="398.366,-177.042 388.75,-172.595 393.494,-182.068 398.366,-177.042"/>
</g>
<!-- getResult_xml_input -->
<g id="node28" class="node"><title>getResult_xml_input</title>
<polygon fill="#ab92ea" stroke="black" points="534,-172.5 428,-172.5 428,-151.5 534,-151.5 534,-172.5"/>
<text text-anchor="middle" x="481" y="-159.5" font-family="Helvetica,sans-Serif" font-size="10.00">getResult_xml_input</text>
</g>
<!-- run_output&#45;&gt;getResult_xml_input -->
<g id="edge45" class="edge"><title>run_output&#45;&gt;getResult_xml_input</title>
<path fill="none" stroke="black" d="M363.235,-458.542C406.927,-441.707 481,-404.149 481,-343 481,-343 481,-343 481,-267 481,-237.796 481,-204.022 481,-182.836"/>
<polygon fill="black" stroke="black" points="484.5,-182.732 481,-172.732 477.5,-182.732 484.5,-182.732"/>
</g>
<!-- StatusgetStatus -->
<g id="node6" class="node"><title>StatusgetStatus</title>
<polygon fill="#a2cd5a" stroke="black" points="271,-315.5 213,-315.5 213,-294.5 271,-294.5 271,-315.5"/>
<text text-anchor="middle" x="242" y="-302.5" font-family="Helvetica,sans-Serif" font-size="10.00">getStatus</text>
</g>
<!-- StatusgetStatus_output -->
<g id="node8" class="node"><title>StatusgetStatus_output</title>
<polygon fill="#ab92ea" stroke="black" points="280,-277.5 190,-277.5 190,-256.5 280,-256.5 280,-277.5"/>
<text text-anchor="middle" x="235" y="-264.5" font-family="Helvetica,sans-Serif" font-size="10.00">getStatus_output</text>
</g>
<!-- StatusgetStatus&#45;&gt;StatusgetStatus_output -->
<g id="edge9" class="edge"><title>StatusgetStatus&#45;&gt;StatusgetStatus_output</title>
<path fill="none" stroke="black" d="M240.013,-294.212C239.625,-292.109 239.207,-289.839 238.783,-287.538"/>
<polygon fill="black" stroke="black" points="242.222,-286.884 236.968,-277.683 235.338,-288.152 242.222,-286.884"/>
</g>
<!-- StatusgetStatus_input -->
<g id="node7" class="node"><title>StatusgetStatus_input</title>
<polygon fill="#ab92ea" stroke="black" points="298,-353.5 214,-353.5 214,-332.5 298,-332.5 298,-353.5"/>
<text text-anchor="middle" x="256" y="-340.5" font-family="Helvetica,sans-Serif" font-size="10.00">getStatus_input</text>
</g>
<!-- StatusgetStatus_input&#45;&gt;StatusgetStatus -->
<g id="edge5" class="edge"><title>StatusgetStatus_input&#45;&gt;StatusgetStatus</title>
<path fill="none" stroke="black" d="M252.026,-332.212C251.221,-330.028 250.35,-327.664 249.469,-325.273"/>
<polygon fill="black" stroke="black" points="252.677,-323.857 245.936,-315.683 246.109,-326.277 252.677,-323.857"/>
</g>
<!-- StatusWORKFLOWINTERNALSINK_getStatus_output_status -->
<g id="node14" class="node"><title>StatusWORKFLOWINTERNALSINK_getStatus_output_status</title>
<polygon fill="#bcd2ee" stroke="black" points="293,-218.5 171,-218.5 171,-197.5 293,-197.5 293,-218.5"/>
<text text-anchor="middle" x="232" y="-205.5" font-family="Helvetica,sans-Serif" font-size="10.00">getStatus_output_status</text>
</g>
<!-- StatusgetStatus_output&#45;&gt;StatusWORKFLOWINTERNALSINK_getStatus_output_status -->
<g id="edge11" class="edge"><title>StatusgetStatus_output&#45;&gt;StatusWORKFLOWINTERNALSINK_getStatus_output_status</title>
<path fill="none" stroke="black" d="M234.464,-256.452C234.076,-248.829 233.539,-238.277 233.066,-228.966"/>
<polygon fill="black" stroke="black" points="236.555,-228.665 232.552,-218.856 229.564,-229.021 236.555,-228.665"/>
</g>
<!-- StatusWORKFLOWINTERNALSOURCECONTROL -->
<g id="node10" class="node"><title>StatusWORKFLOWINTERNALSOURCECONTROL</title>
<polygon fill="#ff4040" stroke="black" points="296,-388 289,-377.5 303,-377.5 296,-388"/>
</g>
<!-- StatusWORKFLOWINTERNALSOURCE_JobID&#45;&gt;StatusgetStatus_input -->
<g id="edge7" class="edge"><title>StatusWORKFLOWINTERNALSOURCE_JobID&#45;&gt;StatusgetStatus_input</title>
<path fill="none" stroke="black" d="M259.581,-370.212C259.314,-368.19 259.028,-366.013 258.737,-363.804"/>
<polygon fill="black" stroke="black" points="262.18,-363.141 257.406,-353.683 255.24,-364.054 262.18,-363.141"/>
</g>
<!-- StatusWORKFLOWINTERNALSINKCONTROL -->
<g id="node13" class="node"><title>StatusWORKFLOWINTERNALSINKCONTROL</title>
<polygon fill="#66cd00" stroke="black" points="304,-201 311,-211.5 297,-211.5 304,-201"/>
</g>
<!-- StatusWORKFLOWINTERNALSINKCONTROL&#45;&gt;getResult_input -->
<g id="edge63" class="edge"><title>StatusWORKFLOWINTERNALSINKCONTROL&#45;&gt;getResult_input</title>
<path fill="none" stroke="gray" d="M303.327,-201.982C302.277,-195.674 299.627,-185.999 293,-181 283.254,-173.647 217.177,-168.038 169.332,-164.882"/>
<ellipse fill="none" stroke="gray" cx="165.218" cy="-164.616" rx="4" ry="4"/>
</g>
<!-- StatusWORKFLOWINTERNALSINKCONTROL&#45;&gt;getResult_graphic_input -->
<g id="edge61" class="edge"><title>StatusWORKFLOWINTERNALSINKCONTROL&#45;&gt;getResult_graphic_input</title>
<path fill="none" stroke="gray" d="M304.955,-202.308C306.246,-196.279 309.101,-186.84 315,-181 316.449,-179.565 318.019,-178.236 319.678,-177.004"/>
<ellipse fill="none" stroke="gray" cx="323.066" cy="-174.859" rx="4.00002" ry="4.00002"/>
</g>
<!-- StatusWORKFLOWINTERNALSINKCONTROL&#45;&gt;getResult_xml_input -->
<g id="edge59" class="edge"><title>StatusWORKFLOWINTERNALSINKCONTROL&#45;&gt;getResult_xml_input</title>
<path fill="none" stroke="gray" d="M304.639,-201.936C305.66,-195.589 308.286,-185.881 315,-181 323.671,-174.696 392.6,-174.533 419.628,-173.105"/>
<ellipse fill="none" stroke="gray" cx="423.949" cy="-172.765" rx="4" ry="4"/>
</g>
<!-- WORKFLOWINTERNALSINK_Workflow16_getStatus_output_status -->
<g id="node37" class="node"><title>WORKFLOWINTERNALSINK_Workflow16_getStatus_output_status</title>
<polygon fill="#bcd2ee" stroke="black" points="322,-37.5 142,-37.5 142,-16.5 322,-16.5 322,-37.5"/>
<text text-anchor="middle" x="232" y="-24.5" font-family="Helvetica,sans-Serif" font-size="10.00">Workflow16_getStatus_output_status</text>
</g>
<!-- StatusWORKFLOWINTERNALSINK_getStatus_output_status&#45;&gt;WORKFLOWINTERNALSINK_Workflow16_getStatus_output_status -->
<g id="edge51" class="edge"><title>StatusWORKFLOWINTERNALSINK_getStatus_output_status&#45;&gt;WORKFLOWINTERNALSINK_Workflow16_getStatus_output_status</title>
<path fill="none" stroke="black" d="M232,-197.486C232,-168.37 232,-86.292 232,-47.6301"/>
<polygon fill="black" stroke="black" points="235.5,-47.5427 232,-37.5427 228.5,-47.5427 235.5,-47.5427"/>
</g>
<!-- getResult -->
<g id="node19" class="node"><title>getResult</title>
<polygon fill="#a2cd5a" stroke="black" points="137,-134.5 79,-134.5 79,-113.5 137,-113.5 137,-134.5"/>
<text text-anchor="middle" x="108" y="-121.5" font-family="Helvetica,sans-Serif" font-size="10.00">getResult</text>
</g>
<!-- getResult_output -->
<g id="node23" class="node"><title>getResult_output</title>
<polygon fill="#ab92ea" stroke="black" points="132,-96.5 42,-96.5 42,-75.5 132,-75.5 132,-96.5"/>
<text text-anchor="middle" x="87" y="-83.5" font-family="Helvetica,sans-Serif" font-size="10.00">getResult_output</text>
</g>
<!-- getResult&#45;&gt;getResult_output -->
<g id="edge39" class="edge"><title>getResult&#45;&gt;getResult_output</title>
<path fill="none" stroke="black" d="M102.038,-113.212C100.697,-110.785 99.2332,-108.136 97.7625,-105.475"/>
<polygon fill="black" stroke="black" points="100.804,-103.743 92.9038,-96.6831 94.6774,-107.128 100.804,-103.743"/>
</g>
<!-- getResult_graphic -->
<g id="node20" class="node"><title>getResult_graphic</title>
<polygon fill="#a2cd5a" stroke="black" points="410,-134.5 316,-134.5 316,-113.5 410,-113.5 410,-134.5"/>
<text text-anchor="middle" x="363" y="-121.5" font-family="Helvetica,sans-Serif" font-size="10.00">getResult_graphic</text>
</g>
<!-- getResult_graphic_output -->
<g id="node24" class="node"><title>getResult_graphic_output</title>
<polygon fill="#ab92ea" stroke="black" points="427,-96.5 299,-96.5 299,-75.5 427,-75.5 427,-96.5"/>
<text text-anchor="middle" x="363" y="-83.5" font-family="Helvetica,sans-Serif" font-size="10.00">getResult_graphic_output</text>
</g>
<!-- getResult_graphic&#45;&gt;getResult_graphic_output -->
<g id="edge41" class="edge"><title>getResult_graphic&#45;&gt;getResult_graphic_output</title>
<path fill="none" stroke="black" d="M363,-113.212C363,-111.19 363,-109.013 363,-106.804"/>
<polygon fill="black" stroke="black" points="366.5,-106.683 363,-96.6831 359.5,-106.683 366.5,-106.683"/>
</g>
<!-- getResult_input&#45;&gt;getResult -->
<g id="edge27" class="edge"><title>getResult_input&#45;&gt;getResult</title>
<path fill="none" stroke="black" d="M115.877,-151.212C115.268,-149.109 114.611,-146.839 113.945,-144.538"/>
<polygon fill="black" stroke="black" points="117.235,-143.315 111.092,-134.683 110.511,-145.262 117.235,-143.315"/>
</g>
<!-- getResult_graphic_input&#45;&gt;getResult_graphic -->
<g id="edge29" class="edge"><title>getResult_graphic_input&#45;&gt;getResult_graphic</title>
<path fill="none" stroke="black" d="M363,-151.212C363,-149.19 363,-147.013 363,-144.804"/>
<polygon fill="black" stroke="black" points="366.5,-144.683 363,-134.683 359.5,-144.683 366.5,-144.683"/>
</g>
<!-- WORKFLOWINTERNALSINK_getResult_output_output -->
<g id="node38" class="node"><title>WORKFLOWINTERNALSINK_getResult_output_output</title>
<polygon fill="#bcd2ee" stroke="black" points="138,-37.5 16,-37.5 16,-16.5 138,-16.5 138,-37.5"/>
<text text-anchor="middle" x="77" y="-24.5" font-family="Helvetica,sans-Serif" font-size="10.00">getResult_output_output</text>
</g>
<!-- getResult_output&#45;&gt;WORKFLOWINTERNALSINK_getResult_output_output -->
<g id="edge53" class="edge"><title>getResult_output&#45;&gt;WORKFLOWINTERNALSINK_getResult_output_output</title>
<path fill="none" stroke="black" d="M85.2122,-75.452C83.9201,-67.8285 82.1317,-57.2768 80.5536,-47.966"/>
<polygon fill="black" stroke="black" points="83.9619,-47.1303 78.84,-37.8559 77.0604,-48.3002 83.9619,-47.1303"/>
</g>
<!-- WORKFLOWINTERNALSINK_Graphical_output -->
<g id="node39" class="node"><title>WORKFLOWINTERNALSINK_Graphical_output</title>
<polygon fill="#bcd2ee" stroke="black" points="416,-37.5 326,-37.5 326,-16.5 416,-16.5 416,-37.5"/>
<text text-anchor="middle" x="371" y="-24.5" font-family="Helvetica,sans-Serif" font-size="10.00">Graphical_output</text>
</g>
<!-- getResult_graphic_output&#45;&gt;WORKFLOWINTERNALSINK_Graphical_output -->
<g id="edge55" class="edge"><title>getResult_graphic_output&#45;&gt;WORKFLOWINTERNALSINK_Graphical_output</title>
<path fill="none" stroke="black" d="M364.43,-75.452C365.464,-67.8285 366.895,-57.2768 368.157,-47.966"/>
<polygon fill="black" stroke="black" points="371.653,-48.2355 369.528,-37.8559 364.716,-47.2949 371.653,-48.2355"/>
</g>
<!-- text -->
<g id="node25" class="node"><title>text</title>
<polygon fill="#b0c4de" stroke="black" points="147,-218.5 115,-218.5 115,-197.5 147,-197.5 147,-218.5"/>
<text text-anchor="middle" x="131" y="-205.5" font-family="Helvetica,sans-Serif" font-size="10.00">text</text>
</g>
<!-- text&#45;&gt;getResult_input -->
<g id="edge33" class="edge"><title>text&#45;&gt;getResult_input</title>
<path fill="none" stroke="black" d="M128.217,-197.331C127.066,-192.919 125.69,-187.647 124.358,-182.538"/>
<polygon fill="black" stroke="black" points="127.679,-181.404 121.768,-172.611 120.906,-183.171 127.679,-181.404"/>
</g>
<!-- visual_png -->
<g id="node26" class="node"><title>visual_png</title>
<polygon fill="#b0c4de" stroke="black" points="397,-218.5 335,-218.5 335,-197.5 397,-197.5 397,-218.5"/>
<text text-anchor="middle" x="366" y="-205.5" font-family="Helvetica,sans-Serif" font-size="10.00">visual_png</text>
</g>
<!-- visual_png&#45;&gt;getResult_graphic_input -->
<g id="edge37" class="edge"><title>visual_png&#45;&gt;getResult_graphic_input</title>
<path fill="none" stroke="black" d="M365.304,-197.331C365.024,-193.035 364.691,-187.923 364.366,-182.942"/>
<polygon fill="black" stroke="black" points="367.835,-182.362 363.692,-172.611 360.85,-182.818 367.835,-182.362"/>
</g>
<!-- getResult_xml -->
<g id="node27" class="node"><title>getResult_xml</title>
<polygon fill="#a2cd5a" stroke="black" points="524,-134.5 444,-134.5 444,-113.5 524,-113.5 524,-134.5"/>
<text text-anchor="middle" x="484" y="-121.5" font-family="Helvetica,sans-Serif" font-size="10.00">getResult_xml</text>
</g>
<!-- getResult_xml_output -->
<g id="node29" class="node"><title>getResult_xml_output</title>
<polygon fill="#ab92ea" stroke="black" points="543,-96.5 431,-96.5 431,-75.5 543,-75.5 543,-96.5"/>
<text text-anchor="middle" x="487" y="-83.5" font-family="Helvetica,sans-Serif" font-size="10.00">getResult_xml_output</text>
</g>
<!-- getResult_xml&#45;&gt;getResult_xml_output -->
<g id="edge49" class="edge"><title>getResult_xml&#45;&gt;getResult_xml_output</title>
<path fill="none" stroke="black" d="M484.852,-113.212C485.011,-111.19 485.183,-109.013 485.358,-106.804"/>
<polygon fill="black" stroke="black" points="488.859,-106.928 486.157,-96.6831 481.88,-106.377 488.859,-106.928"/>
</g>
<!-- getResult_xml_input&#45;&gt;getResult_xml -->
<g id="edge43" class="edge"><title>getResult_xml_input&#45;&gt;getResult_xml</title>
<path fill="none" stroke="black" d="M481.852,-151.212C482.011,-149.19 482.183,-147.013 482.358,-144.804"/>
<polygon fill="black" stroke="black" points="485.859,-144.928 483.157,-134.683 478.88,-144.377 485.859,-144.928"/>
</g>
<!-- WORKFLOWINTERNALSINK_getResult_3_output_output -->
<g id="node40" class="node"><title>WORKFLOWINTERNALSINK_getResult_3_output_output</title>
<polygon fill="#bcd2ee" stroke="black" points="554,-37.5 420,-37.5 420,-16.5 554,-16.5 554,-37.5"/>
<text text-anchor="middle" x="487" y="-24.5" font-family="Helvetica,sans-Serif" font-size="10.00">getResult_3_output_output</text>
</g>
<!-- getResult_xml_output&#45;&gt;WORKFLOWINTERNALSINK_getResult_3_output_output -->
<g id="edge57" class="edge"><title>getResult_xml_output&#45;&gt;WORKFLOWINTERNALSINK_getResult_3_output_output</title>
<path fill="none" stroke="black" d="M487,-75.452C487,-67.8285 487,-57.2768 487,-47.966"/>
<polygon fill="black" stroke="black" points="490.5,-47.8558 487,-37.8559 483.5,-47.8559 490.5,-47.8558"/>
</g>
<!-- xml -->
<g id="node30" class="node"><title>xml</title>
<polygon fill="#b0c4de" stroke="black" points="474,-218.5 442,-218.5 442,-197.5 474,-197.5 474,-218.5"/>
<text text-anchor="middle" x="458" y="-205.5" font-family="Helvetica,sans-Serif" font-size="10.00">xml</text>
</g>
<!-- xml&#45;&gt;getResult_xml_input -->
<g id="edge47" class="edge"><title>xml&#45;&gt;getResult_xml_input</title>
<path fill="none" stroke="black" d="M463.334,-197.331C465.657,-192.686 468.455,-187.089 471.133,-181.733"/>
<polygon fill="black" stroke="black" points="474.353,-183.121 475.694,-172.611 468.092,-179.99 474.353,-183.121"/>
</g>
<!-- WORKFLOWINTERNALSOURCECONTROL -->
<g id="node32" class="node"><title>WORKFLOWINTERNALSOURCECONTROL</title>
<polygon fill="#ff4040" stroke="black" points="395,-628 388,-617.5 402,-617.5 395,-628"/>
</g>
<!-- WORKFLOWINTERNALSOURCE_sequence -->
<g id="node33" class="node"><title>WORKFLOWINTERNALSOURCE_sequence</title>
<polygon fill="skyblue" stroke="black" points="340,-631.5 282,-631.5 282,-610.5 340,-610.5 340,-631.5"/>
<text text-anchor="middle" x="311" y="-618.5" font-family="Helvetica,sans-Serif" font-size="10.00">sequence</text>
</g>
<!-- WORKFLOWINTERNALSOURCE_sequence&#45;&gt;run_input_2 -->
<g id="edge21" class="edge"><title>WORKFLOWINTERNALSOURCE_sequence&#45;&gt;run_input_2</title>
<path fill="none" stroke="black" d="M311.852,-610.212C312.011,-608.19 312.183,-606.013 312.358,-603.804"/>
<polygon fill="black" stroke="black" points="315.859,-603.928 313.157,-593.683 308.88,-603.377 315.859,-603.928"/>
</g>
<!-- WORKFLOWINTERNALSOURCE_email -->
<g id="node34" class="node"><title>WORKFLOWINTERNALSOURCE_email</title>
<polygon fill="skyblue" stroke="black" points="384,-631.5 344,-631.5 344,-610.5 384,-610.5 384,-631.5"/>
<text text-anchor="middle" x="364" y="-618.5" font-family="Helvetica,sans-Serif" font-size="10.00">email</text>
</g>
<!-- WORKFLOWINTERNALSOURCE_email&#45;&gt;run_input -->
<g id="edge19" class="edge"><title>WORKFLOWINTERNALSOURCE_email&#45;&gt;run_input</title>
<path fill="none" stroke="black" d="M361.567,-610.187C359.085,-600.054 354.779,-584.618 349,-572 347.829,-569.444 346.455,-566.841 345.003,-564.309"/>
<polygon fill="black" stroke="black" points="347.883,-562.312 339.633,-555.664 341.937,-566.005 347.883,-562.312"/>
</g>
<!-- WORKFLOWINTERNALSINKCONTROL -->
<g id="node36" class="node"><title>WORKFLOWINTERNALSINKCONTROL</title>
<polygon fill="#66cd00" stroke="black" points="565,-20 572,-30.5 558,-30.5 565,-20"/>
</g>
</g>
</svg>
