<?xml version="1.0" encoding="UTF-8" standalone="no"?>
<!DOCTYPE svg PUBLIC "-//W3C//DTD SVG 1.1//EN"
 "http://www.w3.org/Graphics/SVG/1.1/DTD/svg11.dtd">
<!-- Generated by graphviz version 2.26.0 (20091210.2329)
 -->
<!-- Title: t2flow_graph Pages: 1 -->
<svg width="1203pt" height="609pt"
 viewBox="0.00 0.00 1203.00 609.00" xmlns="http://www.w3.org/2000/svg" xmlns:xlink="http://www.w3.org/1999/xlink">
<g id="graph1" class="graph" transform="scale(1 1) rotate(0) translate(4 605)">
<title>t2flow_graph</title>
<polygon fill="white" stroke="white" points="-4,5 -4,-605 1200,-605 1200,5 -4,5"/>
<g id="graph2" class="cluster"><title>cluster_Nested_workflowNested_workflow</title>
<polygon fill="aliceblue" stroke="black" points="8,-75 8,-496 1050,-496 1050,-75 8,-75"/>
<text text-anchor="middle" x="54" y="-483" font-family="Helvetica,sans-Serif" font-size="10.00">Nested_workflow</text>
</g>
<g id="graph3" class="cluster"><title>cluster_Nested_workflowsources</title>
<polygon fill="none" stroke="black" stroke-dasharray="1,5" points="682,-408 682,-467 888,-467 888,-408 682,-408"/>
<text text-anchor="middle" x="726" y="-454" font-family="Helvetica,sans-Serif" font-size="10.00">Workflow Inputs</text>
</g>
<g id="graph4" class="cluster"><title>cluster_Nested_workflowsinks</title>
<polygon fill="none" stroke="black" stroke-dasharray="1,5" points="550,-83 550,-142 1042,-142 1042,-83 550,-83"/>
<text text-anchor="middle" x="597.5" y="-129" font-family="Helvetica,sans-Serif" font-size="10.00">Workflow Outputs</text>
</g>
<g id="graph5" class="cluster"><title>cluster_sources</title>
<polygon fill="none" stroke="black" stroke-dasharray="1,5" points="916,-534 916,-593 1178,-593 1178,-534 916,-534"/>
<text text-anchor="middle" x="960" y="-580" font-family="Helvetica,sans-Serif" font-size="10.00">Workflow Inputs</text>
</g>
<g id="graph6" class="cluster"><title>cluster_sinks</title>
<polygon fill="none" stroke="black" stroke-dasharray="1,5" points="885,-8 885,-67 1187,-67 1187,-8 885,-8"/>
<text text-anchor="middle" x="932.5" y="-54" font-family="Helvetica,sans-Serif" font-size="10.00">Workflow Outputs</text>
</g>
<!-- Get_Protein_FASTA -->
<g id="node1" class="node"><title>Get_Protein_FASTA</title>
<polygon fill="#d15fee" stroke="black" points="1075,-525.5 969,-525.5 969,-504.5 1075,-504.5 1075,-525.5"/>
<text text-anchor="middle" x="1022" y="-512.5" font-family="Helvetica,sans-Serif" font-size="10.00">Get_Protein_FASTA</text>
</g>
<!-- searchSimple -->
<g id="node2" class="node"><title>searchSimple</title>
<polygon fill="#a2cd5a" stroke="black" points="1144,-437.5 1068,-437.5 1068,-416.5 1144,-416.5 1144,-437.5"/>
<text text-anchor="middle" x="1106" y="-424.5" font-family="Helvetica,sans-Serif" font-size="10.00">searchSimple</text>
</g>
<!-- Get_Protein_FASTA&#45;&gt;searchSimple -->
<g id="edge59" class="edge"><title>Get_Protein_FASTA&#45;&gt;searchSimple</title>
<path fill="none" stroke="black" d="M1051.4,-504.469C1055.9,-502.098 1060.28,-499.288 1064,-496 1079.19,-482.559 1090.62,-462.283 1097.69,-447.184"/>
<polygon fill="black" stroke="black" points="1101.04,-448.267 1101.89,-437.706 1094.64,-445.436 1101.04,-448.267"/>
</g>
<!-- Nested_workflowWORKFLOWINTERNALSOURCE_Sequence_or_ID -->
<g id="node24" class="node"><title>Nested_workflowWORKFLOWINTERNALSOURCE_Sequence_or_ID</title>
<polygon fill="skyblue" stroke="black" points="862,-437.5 774,-437.5 774,-416.5 862,-416.5 862,-437.5"/>
<text text-anchor="middle" x="818" y="-424.5" font-family="Helvetica,sans-Serif" font-size="10.00">Sequence_or_ID</text>
</g>
<!-- Get_Protein_FASTA&#45;&gt;Nested_workflowWORKFLOWINTERNALSOURCE_Sequence_or_ID -->
<g id="edge67" class="edge"><title>Get_Protein_FASTA&#45;&gt;Nested_workflowWORKFLOWINTERNALSOURCE_Sequence_or_ID</title>
<path fill="none" stroke="black" d="M968.608,-513.115C930.412,-510.913 882.886,-506.17 866,-496 847.159,-484.653 833.866,-462.75 826.118,-446.654"/>
<polygon fill="black" stroke="black" points="829.307,-445.211 822.011,-437.528 822.923,-448.084 829.307,-445.211"/>
</g>
<!-- WORKFLOWINTERNALSINK_Sequence -->
<g id="node65" class="node"><title>WORKFLOWINTERNALSINK_Sequence</title>
<polygon fill="#bcd2ee" stroke="black" points="1047,-37.5 987,-37.5 987,-16.5 1047,-16.5 1047,-37.5"/>
<text text-anchor="middle" x="1017" y="-24.5" font-family="Helvetica,sans-Serif" font-size="10.00">Sequence</text>
</g>
<!-- Get_Protein_FASTA&#45;&gt;WORKFLOWINTERNALSINK_Sequence -->
<g id="edge69" class="edge"><title>Get_Protein_FASTA&#45;&gt;WORKFLOWINTERNALSINK_Sequence</title>
<path fill="none" stroke="black" d="M1043.4,-504.311C1046.38,-501.96 1049.07,-499.197 1051,-496 1075.64,-455.082 1061,-436.763 1061,-389 1061,-389 1061,-389 1061,-161 1061,-121.95 1056.44,-111.665 1043,-75 1039.4,-65.173 1034.06,-54.8917 1029.16,-46.3769"/>
<polygon fill="black" stroke="black" points="1032.07,-44.4161 1023.93,-37.6325 1026.06,-48.0106 1032.07,-44.4161"/>
</g>
<!-- WORKFLOWINTERNALSINK_searchSimple_Result -->
<g id="node66" class="node"><title>WORKFLOWINTERNALSINK_searchSimple_Result</title>
<polygon fill="#bcd2ee" stroke="black" points="1161,-37.5 1051,-37.5 1051,-16.5 1161,-16.5 1161,-37.5"/>
<text text-anchor="middle" x="1106" y="-24.5" font-family="Helvetica,sans-Serif" font-size="10.00">searchSimple_Result</text>
</g>
<!-- searchSimple&#45;&gt;WORKFLOWINTERNALSINK_searchSimple_Result -->
<g id="edge71" class="edge"><title>searchSimple&#45;&gt;WORKFLOWINTERNALSINK_searchSimple_Result</title>
<path fill="none" stroke="black" d="M1106,-416.176C1106,-401.436 1106,-374.222 1106,-351 1106,-351 1106,-351 1106,-161 1106,-121.078 1106,-74.4655 1106,-48.0712"/>
<polygon fill="black" stroke="black" points="1109.5,-47.7689 1106,-37.769 1102.5,-47.769 1109.5,-47.7689"/>
</g>
<!-- Nested_workflowInput_data -->
<g id="node4" class="node"><title>Nested_workflowInput_data</title>
<polygon fill="#ab92ea" stroke="black" points="849,-399.5 787,-399.5 787,-378.5 849,-378.5 849,-399.5"/>
<text text-anchor="middle" x="818" y="-386.5" font-family="Helvetica,sans-Serif" font-size="10.00">Input_data</text>
</g>
<!-- Nested_workflowContent_list -->
<g id="node11" class="node"><title>Nested_workflowContent_list</title>
<polygon fill="#ab92ea" stroke="black" points="844,-361.5 776,-361.5 776,-340.5 844,-340.5 844,-361.5"/>
<text text-anchor="middle" x="810" y="-348.5" font-family="Helvetica,sans-Serif" font-size="10.00">Content_list</text>
</g>
<!-- Nested_workflowInput_data&#45;&gt;Nested_workflowContent_list -->
<g id="edge35" class="edge"><title>Nested_workflowInput_data&#45;&gt;Nested_workflowContent_list</title>
<path fill="none" stroke="black" d="M815.729,-378.212C815.286,-376.109 814.808,-373.839 814.324,-371.538"/>
<polygon fill="black" stroke="black" points="817.734,-370.748 812.249,-361.683 810.884,-372.19 817.734,-370.748"/>
</g>
<!-- Nested_workflowGet_XML_result -->
<g id="node5" class="node"><title>Nested_workflowGet_XML_result</title>
<polygon fill="#a2cd5a" stroke="black" points="947,-247.5 861,-247.5 861,-226.5 947,-226.5 947,-247.5"/>
<text text-anchor="middle" x="904" y="-234.5" font-family="Helvetica,sans-Serif" font-size="10.00">Get_XML_result</text>
</g>
<!-- Nested_workflowUnpack_XML_result -->
<g id="node8" class="node"><title>Nested_workflowUnpack_XML_result</title>
<polygon fill="#d15fee" stroke="black" points="982,-171.5 878,-171.5 878,-150.5 982,-150.5 982,-171.5"/>
<text text-anchor="middle" x="930" y="-158.5" font-family="Helvetica,sans-Serif" font-size="10.00">Unpack_XML_result</text>
</g>
<!-- Nested_workflowGet_XML_result&#45;&gt;Nested_workflowUnpack_XML_result -->
<g id="edge25" class="edge"><title>Nested_workflowGet_XML_result&#45;&gt;Nested_workflowUnpack_XML_result</title>
<path fill="none" stroke="black" d="M904.108,-226.115C904.54,-215.931 906.058,-200.461 911,-188 912.09,-185.253 913.511,-182.517 915.086,-179.899"/>
<polygon fill="black" stroke="black" points="918.003,-181.835 920.777,-171.61 912.232,-177.873 918.003,-181.835"/>
</g>
<!-- Nested_workflowFormat_as_GFF -->
<g id="node6" class="node"><title>Nested_workflowFormat_as_GFF</title>
<polygon fill="#deb887" stroke="black" points="831,-171.5 743,-171.5 743,-150.5 831,-150.5 831,-171.5"/>
<text text-anchor="middle" x="787" y="-158.5" font-family="Helvetica,sans-Serif" font-size="10.00">Format_as_GFF</text>
</g>
<!-- Nested_workflowWORKFLOWINTERNALSINK_InterProScan_GFF -->
<g id="node30" class="node"><title>Nested_workflowWORKFLOWINTERNALSINK_InterProScan_GFF</title>
<polygon fill="#bcd2ee" stroke="black" points="836,-112.5 738,-112.5 738,-91.5 836,-91.5 836,-112.5"/>
<text text-anchor="middle" x="787" y="-99.5" font-family="Helvetica,sans-Serif" font-size="10.00">InterProScan_GFF</text>
</g>
<!-- Nested_workflowFormat_as_GFF&#45;&gt;Nested_workflowWORKFLOWINTERNALSINK_InterProScan_GFF -->
<g id="edge47" class="edge"><title>Nested_workflowFormat_as_GFF&#45;&gt;Nested_workflowWORKFLOWINTERNALSINK_InterProScan_GFF</title>
<path fill="none" stroke="black" d="M787,-150.452C787,-142.829 787,-132.277 787,-122.966"/>
<polygon fill="black" stroke="black" points="790.5,-122.856 787,-112.856 783.5,-122.856 790.5,-122.856"/>
</g>
<!-- Nested_workflowJob_params -->
<g id="node7" class="node"><title>Nested_workflowJob_params</title>
<polygon fill="#ab92ea" stroke="black" points="540,-399.5 470,-399.5 470,-378.5 540,-378.5 540,-399.5"/>
<text text-anchor="middle" x="505" y="-386.5" font-family="Helvetica,sans-Serif" font-size="10.00">Job_params</text>
</g>
<!-- Nested_workflowrunInterProScan -->
<g id="node10" class="node"><title>Nested_workflowrunInterProScan</title>
<polygon fill="#a2cd5a" stroke="black" points="838,-323.5 752,-323.5 752,-302.5 838,-302.5 838,-323.5"/>
<text text-anchor="middle" x="795" y="-310.5" font-family="Helvetica,sans-Serif" font-size="10.00">runInterProScan</text>
</g>
<!-- Nested_workflowJob_params&#45;&gt;Nested_workflowrunInterProScan -->
<g id="edge33" class="edge"><title>Nested_workflowJob_params&#45;&gt;Nested_workflowrunInterProScan</title>
<path fill="none" stroke="black" d="M540.27,-379.757C591.497,-366.332 686.727,-341.375 745.122,-326.071"/>
<polygon fill="black" stroke="black" points="746.085,-329.437 754.871,-323.516 744.311,-322.666 746.085,-329.437"/>
</g>
<!-- Nested_workflowWORKFLOWINTERNALSINK_InterProScan_XML_result -->
<g id="node28" class="node"><title>Nested_workflowWORKFLOWINTERNALSINK_InterProScan_XML_result</title>
<polygon fill="#bcd2ee" stroke="black" points="1016,-112.5 888,-112.5 888,-91.5 1016,-91.5 1016,-112.5"/>
<text text-anchor="middle" x="952" y="-99.5" font-family="Helvetica,sans-Serif" font-size="10.00">InterProScan_XML_result</text>
</g>
<!-- Nested_workflowUnpack_XML_result&#45;&gt;Nested_workflowWORKFLOWINTERNALSINK_InterProScan_XML_result -->
<g id="edge43" class="edge"><title>Nested_workflowUnpack_XML_result&#45;&gt;Nested_workflowWORKFLOWINTERNALSINK_InterProScan_XML_result</title>
<path fill="none" stroke="black" d="M933.933,-150.452C936.838,-142.663 940.882,-131.817 944.408,-122.361"/>
<polygon fill="black" stroke="black" points="947.738,-123.449 947.952,-112.856 941.179,-121.003 947.738,-123.449"/>
</g>
<!-- Nested_workflowGet_text_result -->
<g id="node9" class="node"><title>Nested_workflowGet_text_result</title>
<polygon fill="#a2cd5a" stroke="black" points="828,-247.5 746,-247.5 746,-226.5 828,-226.5 828,-247.5"/>
<text text-anchor="middle" x="787" y="-234.5" font-family="Helvetica,sans-Serif" font-size="10.00">Get_text_result</text>
</g>
<!-- Nested_workflowUnpack_text_result -->
<g id="node12" class="node"><title>Nested_workflowUnpack_text_result</title>
<polygon fill="#d15fee" stroke="black" points="837,-209.5 737,-209.5 737,-188.5 837,-188.5 837,-209.5"/>
<text text-anchor="middle" x="787" y="-196.5" font-family="Helvetica,sans-Serif" font-size="10.00">Unpack_text_result</text>
</g>
<!-- Nested_workflowGet_text_result&#45;&gt;Nested_workflowUnpack_text_result -->
<g id="edge37" class="edge"><title>Nested_workflowGet_text_result&#45;&gt;Nested_workflowUnpack_text_result</title>
<path fill="none" stroke="black" d="M787,-226.212C787,-224.19 787,-222.013 787,-219.804"/>
<polygon fill="black" stroke="black" points="790.5,-219.683 787,-209.683 783.5,-219.683 790.5,-219.683"/>
</g>
<!-- Nested_workflowrunInterProScan&#45;&gt;Nested_workflowGet_XML_result -->
<g id="edge9" class="edge"><title>Nested_workflowrunInterProScan&#45;&gt;Nested_workflowGet_XML_result</title>
<path fill="none" stroke="black" d="M835.486,-302.392C845.028,-298.437 854.572,-293.112 862,-286 869.758,-278.572 865.515,-272.561 872,-264 874.617,-260.545 877.751,-257.235 881.019,-254.19"/>
<polygon fill="black" stroke="black" points="883.378,-256.777 888.707,-247.62 878.831,-251.455 883.378,-256.777"/>
</g>
<!-- Nested_workflowrunInterProScan&#45;&gt;Nested_workflowGet_text_result -->
<g id="edge29" class="edge"><title>Nested_workflowrunInterProScan&#45;&gt;Nested_workflowGet_text_result</title>
<path fill="none" stroke="black" d="M793.81,-302.488C793.25,-297.494 792.58,-291.44 792,-286 791.006,-276.673 789.946,-266.343 789.059,-257.582"/>
<polygon fill="black" stroke="black" points="792.53,-257.116 788.046,-247.517 785.565,-257.817 792.53,-257.116"/>
</g>
<!-- Nested_workflowcheckStatus -->
<g id="node20" class="node"><title>Nested_workflowcheckStatus</title>
<polygon fill="#a2cd5a" stroke="black" points="862,-285.5 792,-285.5 792,-264.5 862,-264.5 862,-285.5"/>
<text text-anchor="middle" x="827" y="-272.5" font-family="Helvetica,sans-Serif" font-size="10.00">checkStatus</text>
</g>
<!-- Nested_workflowrunInterProScan&#45;&gt;Nested_workflowcheckStatus -->
<g id="edge39" class="edge"><title>Nested_workflowrunInterProScan&#45;&gt;Nested_workflowcheckStatus</title>
<path fill="none" stroke="black" d="M804.084,-302.212C806.401,-299.461 808.957,-296.426 811.497,-293.41"/>
<polygon fill="black" stroke="black" points="814.24,-295.587 818.004,-285.683 808.885,-291.078 814.24,-295.587"/>
</g>
<!-- Nested_workflowWORKFLOWINTERNALSINK_Job_ID -->
<g id="node29" class="node"><title>Nested_workflowWORKFLOWINTERNALSINK_Job_ID</title>
<polygon fill="#bcd2ee" stroke="black" points="606,-112.5 558,-112.5 558,-91.5 606,-91.5 606,-112.5"/>
<text text-anchor="middle" x="582" y="-99.5" font-family="Helvetica,sans-Serif" font-size="10.00">Job_ID</text>
</g>
<!-- Nested_workflowrunInterProScan&#45;&gt;Nested_workflowWORKFLOWINTERNALSINK_Job_ID -->
<g id="edge45" class="edge"><title>Nested_workflowrunInterProScan&#45;&gt;Nested_workflowWORKFLOWINTERNALSINK_Job_ID</title>
<path fill="none" stroke="black" d="M751.62,-311.531C704.905,-309.099 634.51,-302.701 614,-286 596.01,-271.35 596,-260.201 596,-237 596,-237 596,-237 596,-199 596,-172.421 590.787,-142.162 586.723,-122.61"/>
<polygon fill="black" stroke="black" points="590.112,-121.721 584.568,-112.693 583.272,-123.208 590.112,-121.721"/>
</g>
<!-- Nested_workflowContent_list&#45;&gt;Nested_workflowrunInterProScan -->
<g id="edge31" class="edge"><title>Nested_workflowContent_list&#45;&gt;Nested_workflowrunInterProScan</title>
<path fill="none" stroke="black" d="M805.742,-340.212C804.847,-337.947 803.877,-335.488 802.897,-333.007"/>
<polygon fill="black" stroke="black" points="806.144,-331.7 799.217,-323.683 799.633,-334.27 806.144,-331.7"/>
</g>
<!-- Nested_workflowUnpack_text_result&#45;&gt;Nested_workflowFormat_as_GFF -->
<g id="edge13" class="edge"><title>Nested_workflowUnpack_text_result&#45;&gt;Nested_workflowFormat_as_GFF</title>
<path fill="none" stroke="black" d="M787,-188.212C787,-186.19 787,-184.013 787,-181.804"/>
<polygon fill="black" stroke="black" points="790.5,-181.683 787,-171.683 783.5,-181.683 790.5,-181.683"/>
</g>
<!-- Nested_workflowWORKFLOWINTERNALSINK_InterProScan_text_result -->
<g id="node27" class="node"><title>Nested_workflowWORKFLOWINTERNALSINK_InterProScan_text_result</title>
<polygon fill="#bcd2ee" stroke="black" points="734,-112.5 610,-112.5 610,-91.5 734,-91.5 734,-112.5"/>
<text text-anchor="middle" x="672" y="-99.5" font-family="Helvetica,sans-Serif" font-size="10.00">InterProScan_text_result</text>
</g>
<!-- Nested_workflowUnpack_text_result&#45;&gt;Nested_workflowWORKFLOWINTERNALSINK_InterProScan_text_result -->
<g id="edge41" class="edge"><title>Nested_workflowUnpack_text_result&#45;&gt;Nested_workflowWORKFLOWINTERNALSINK_InterProScan_text_result</title>
<path fill="none" stroke="black" d="M766.105,-188.266C757.962,-183.697 748.744,-178.031 741,-172 721.007,-156.43 700.991,-135.369 687.707,-120.427"/>
<polygon fill="black" stroke="black" points="690.279,-118.052 681.062,-112.829 685.01,-122.66 690.279,-118.052"/>
</g>
<!-- Nested_workflowInput_data_type_defaultValue -->
<g id="node13" class="node"><title>Nested_workflowInput_data_type_defaultValue</title>
<polygon fill="#b0c4de" stroke="black" points="1042,-437.5 896,-437.5 896,-416.5 1042,-416.5 1042,-437.5"/>
<text text-anchor="middle" x="969" y="-424.5" font-family="Helvetica,sans-Serif" font-size="10.00">Input_data_type_defaultValue</text>
</g>
<!-- Nested_workflowInput_data_type_defaultValue&#45;&gt;Nested_workflowInput_data -->
<g id="edge7" class="edge"><title>Nested_workflowInput_data_type_defaultValue&#45;&gt;Nested_workflowInput_data</title>
<path fill="none" stroke="black" d="M925.014,-416.432C913.317,-413.655 900.686,-410.686 889,-408 876.146,-405.046 870.92,-404.41 859.168,-401.529"/>
<polygon fill="black" stroke="black" points="859.813,-398.081 849.255,-398.969 858.062,-404.859 859.813,-398.081"/>
</g>
<!-- Nested_workflowGet_XML_result_type_defaultValue -->
<g id="node14" class="node"><title>Nested_workflowGet_XML_result_type_defaultValue</title>
<polygon fill="#b0c4de" stroke="black" points="1042,-285.5 872,-285.5 872,-264.5 1042,-264.5 1042,-285.5"/>
<text text-anchor="middle" x="957" y="-272.5" font-family="Helvetica,sans-Serif" font-size="10.00">Get_XML_result_type_defaultValue</text>
</g>
<!-- Nested_workflowGet_XML_result_type_defaultValue&#45;&gt;Nested_workflowGet_XML_result -->
<g id="edge11" class="edge"><title>Nested_workflowGet_XML_result_type_defaultValue&#45;&gt;Nested_workflowGet_XML_result</title>
<path fill="none" stroke="black" d="M942.237,-264.415C937.527,-261.038 932.198,-257.218 927.046,-253.524"/>
<polygon fill="black" stroke="black" points="928.851,-250.511 918.684,-247.528 924.772,-256.2 928.851,-250.511"/>
</g>
<!-- Nested_workflowJob_params_crc_defaultValue -->
<g id="node15" class="node"><title>Nested_workflowJob_params_crc_defaultValue</title>
<polygon fill="#b0c4de" stroke="black" points="336,-437.5 188,-437.5 188,-416.5 336,-416.5 336,-437.5"/>
<text text-anchor="middle" x="262" y="-424.5" font-family="Helvetica,sans-Serif" font-size="10.00">Job_params_crc_defaultValue</text>
</g>
<!-- Nested_workflowJob_params_crc_defaultValue&#45;&gt;Nested_workflowJob_params -->
<g id="edge17" class="edge"><title>Nested_workflowJob_params_crc_defaultValue&#45;&gt;Nested_workflowJob_params</title>
<path fill="none" stroke="black" d="M301.078,-416.473C313.457,-413.41 327.24,-410.28 340,-408 380.085,-400.838 426.155,-395.796 459.408,-392.715"/>
<polygon fill="black" stroke="black" points="460.086,-396.168 469.731,-391.783 459.457,-389.196 460.086,-396.168"/>
</g>
<!-- Nested_workflowJob_params_seqtype_defaultValue -->
<g id="node16" class="node"><title>Nested_workflowJob_params_seqtype_defaultValue</title>
<polygon fill="#b0c4de" stroke="black" points="184,-437.5 16,-437.5 16,-416.5 184,-416.5 184,-437.5"/>
<text text-anchor="middle" x="100" y="-424.5" font-family="Helvetica,sans-Serif" font-size="10.00">Job_params_seqtype_defaultValue</text>
</g>
<!-- Nested_workflowJob_params_seqtype_defaultValue&#45;&gt;Nested_workflowJob_params -->
<g id="edge15" class="edge"><title>Nested_workflowJob_params_seqtype_defaultValue&#45;&gt;Nested_workflowJob_params</title>
<path fill="none" stroke="black" d="M142.289,-416.5C156.708,-413.286 172.98,-410.059 188,-408 239.125,-400.99 384.982,-394.073 459.692,-390.861"/>
<polygon fill="black" stroke="black" points="459.902,-394.355 469.744,-390.432 459.604,-387.361 459.902,-394.355"/>
</g>
<!-- Nested_workflowJob_params_goterms_defaultValue -->
<g id="node17" class="node"><title>Nested_workflowJob_params_goterms_defaultValue</title>
<polygon fill="#b0c4de" stroke="black" points="674,-437.5 504,-437.5 504,-416.5 674,-416.5 674,-437.5"/>
<text text-anchor="middle" x="589" y="-424.5" font-family="Helvetica,sans-Serif" font-size="10.00">Job_params_goterms_defaultValue</text>
</g>
<!-- Nested_workflowJob_params_goterms_defaultValue&#45;&gt;Nested_workflowJob_params -->
<g id="edge19" class="edge"><title>Nested_workflowJob_params_goterms_defaultValue&#45;&gt;Nested_workflowJob_params</title>
<path fill="none" stroke="black" d="M565.601,-416.415C556.954,-412.503 546.989,-407.995 537.669,-403.779"/>
<polygon fill="black" stroke="black" points="538.827,-400.461 528.273,-399.528 535.942,-406.839 538.827,-400.461"/>
</g>
<!-- Nested_workflowJob_params_async_defaultValue -->
<g id="node18" class="node"><title>Nested_workflowJob_params_async_defaultValue</title>
<polygon fill="#b0c4de" stroke="black" points="500,-437.5 340,-437.5 340,-416.5 500,-416.5 500,-437.5"/>
<text text-anchor="middle" x="420" y="-424.5" font-family="Helvetica,sans-Serif" font-size="10.00">Job_params_async_defaultValue</text>
</g>
<!-- Nested_workflowJob_params_async_defaultValue&#45;&gt;Nested_workflowJob_params -->
<g id="edge21" class="edge"><title>Nested_workflowJob_params_async_defaultValue&#45;&gt;Nested_workflowJob_params</title>
<path fill="none" stroke="black" d="M443.677,-416.415C452.519,-412.462 462.724,-407.9 472.239,-403.646"/>
<polygon fill="black" stroke="black" points="473.749,-406.805 481.45,-399.528 470.892,-400.414 473.749,-406.805"/>
</g>
<!-- Nested_workflowGet_text_result_type_defaultValue -->
<g id="node19" class="node"><title>Nested_workflowGet_text_result_type_defaultValue</title>
<polygon fill="#b0c4de" stroke="black" points="782,-285.5 616,-285.5 616,-264.5 782,-264.5 782,-285.5"/>
<text text-anchor="middle" x="699" y="-272.5" font-family="Helvetica,sans-Serif" font-size="10.00">Get_text_result_type_defaultValue</text>
</g>
<!-- Nested_workflowGet_text_result_type_defaultValue&#45;&gt;Nested_workflowGet_text_result -->
<g id="edge27" class="edge"><title>Nested_workflowGet_text_result_type_defaultValue&#45;&gt;Nested_workflowGet_text_result</title>
<path fill="none" stroke="black" d="M723.513,-264.415C732.762,-260.421 743.452,-255.805 753.391,-251.513"/>
<polygon fill="black" stroke="black" points="754.825,-254.706 762.619,-247.528 752.05,-248.28 754.825,-254.706"/>
</g>
<!-- Nested_workflowcheckStatus&#45;&gt;Nested_workflowGet_XML_result -->
<g id="edge51" class="edge"><title>Nested_workflowcheckStatus&#45;&gt;Nested_workflowGet_XML_result</title>
<path fill="none" stroke="gray" d="M848.449,-264.415C856.792,-260.297 866.475,-255.519 875.397,-251.116"/>
<ellipse fill="none" stroke="gray" cx="879.079" cy="-249.299" rx="4.00002" ry="4.00002"/>
</g>
<!-- Nested_workflowcheckStatus&#45;&gt;Nested_workflowGet_text_result -->
<g id="edge53" class="edge"><title>Nested_workflowcheckStatus&#45;&gt;Nested_workflowGet_text_result</title>
<path fill="none" stroke="gray" d="M815.645,-264.212C812.067,-260.814 808.033,-256.982 804.146,-253.289"/>
<ellipse fill="none" stroke="gray" cx="801.145" cy="-250.438" rx="4.00002" ry="4.00002"/>
</g>
<!-- Nested_workflowWORKFLOWINTERNALSINK_status -->
<g id="node31" class="node"><title>Nested_workflowWORKFLOWINTERNALSINK_status</title>
<polygon fill="#bcd2ee" stroke="black" points="884,-112.5 840,-112.5 840,-91.5 884,-91.5 884,-112.5"/>
<text text-anchor="middle" x="862" y="-99.5" font-family="Helvetica,sans-Serif" font-size="10.00">status</text>
</g>
<!-- Nested_workflowcheckStatus&#45;&gt;Nested_workflowWORKFLOWINTERNALSINK_status -->
<g id="edge49" class="edge"><title>Nested_workflowcheckStatus&#45;&gt;Nested_workflowWORKFLOWINTERNALSINK_status</title>
<path fill="none" stroke="black" d="M829.137,-264.438C834.786,-236.515 850.198,-160.336 857.735,-123.081"/>
<polygon fill="black" stroke="black" points="861.249,-123.36 859.802,-112.865 854.388,-121.972 861.249,-123.36"/>
</g>
<!-- Nested_workflowWORKFLOWINTERNALSOURCECONTROL -->
<g id="node22" class="node"><title>Nested_workflowWORKFLOWINTERNALSOURCECONTROL</title>
<polygon fill="#ff4040" stroke="black" points="873,-434 866,-423.5 880,-423.5 873,-434"/>
</g>
<!-- Nested_workflowWORKFLOWINTERNALSOURCE_Email_address -->
<g id="node23" class="node"><title>Nested_workflowWORKFLOWINTERNALSOURCE_Email_address</title>
<polygon fill="skyblue" stroke="black" points="770,-437.5 690,-437.5 690,-416.5 770,-416.5 770,-437.5"/>
<text text-anchor="middle" x="730" y="-424.5" font-family="Helvetica,sans-Serif" font-size="10.00">Email_address</text>
</g>
<!-- Nested_workflowWORKFLOWINTERNALSOURCE_Email_address&#45;&gt;Nested_workflowJob_params -->
<g id="edge23" class="edge"><title>Nested_workflowWORKFLOWINTERNALSOURCE_Email_address&#45;&gt;Nested_workflowJob_params</title>
<path fill="none" stroke="black" d="M708.977,-416.383C701.847,-413.201 693.727,-410.023 686,-408 661.259,-401.521 595.426,-395.638 550.367,-392.189"/>
<polygon fill="black" stroke="black" points="550.48,-388.687 540.245,-391.428 549.955,-395.668 550.48,-388.687"/>
</g>
<!-- Nested_workflowWORKFLOWINTERNALSOURCE_Sequence_or_ID&#45;&gt;Nested_workflowInput_data -->
<g id="edge5" class="edge"><title>Nested_workflowWORKFLOWINTERNALSOURCE_Sequence_or_ID&#45;&gt;Nested_workflowInput_data</title>
<path fill="none" stroke="black" d="M818,-416.212C818,-414.19 818,-412.013 818,-409.804"/>
<polygon fill="black" stroke="black" points="821.5,-409.683 818,-399.683 814.5,-409.683 821.5,-409.683"/>
</g>
<!-- Nested_workflowWORKFLOWINTERNALSINKCONTROL -->
<g id="node26" class="node"><title>Nested_workflowWORKFLOWINTERNALSINKCONTROL</title>
<polygon fill="#66cd00" stroke="black" points="1027,-95 1034,-105.5 1020,-105.5 1027,-95"/>
</g>
<!-- WORKFLOWINTERNALSINK_InterproScan_out -->
<g id="node67" class="node"><title>WORKFLOWINTERNALSINK_InterproScan_out</title>
<polygon fill="#bcd2ee" stroke="black" points="983,-37.5 893,-37.5 893,-16.5 983,-16.5 983,-37.5"/>
<text text-anchor="middle" x="938" y="-24.5" font-family="Helvetica,sans-Serif" font-size="10.00">InterproScan_out</text>
</g>
<!-- Nested_workflowWORKFLOWINTERNALSINK_InterProScan_text_result&#45;&gt;WORKFLOWINTERNALSINK_InterproScan_out -->
<g id="edge73" class="edge"><title>Nested_workflowWORKFLOWINTERNALSINK_InterProScan_text_result&#45;&gt;WORKFLOWINTERNALSINK_InterproScan_out</title>
<path fill="none" stroke="black" d="M695.197,-91.4935C707.705,-86.0888 723.507,-79.6733 738,-75 786.248,-59.442 842.491,-46.3778 883.024,-37.8262"/>
<polygon fill="black" stroke="black" points="883.901,-41.2186 892.976,-35.7505 882.472,-34.3661 883.901,-41.2186"/>
</g>
<!-- WORKFLOWINTERNALSOURCECONTROL -->
<g id="node58" class="node"><title>WORKFLOWINTERNALSOURCECONTROL</title>
<polygon fill="#ff4040" stroke="black" points="1163,-560 1156,-549.5 1170,-549.5 1163,-560"/>
</g>
<!-- WORKFLOWINTERNALSOURCE_ID -->
<g id="node59" class="node"><title>WORKFLOWINTERNALSOURCE_ID</title>
<polygon fill="skyblue" stroke="black" points="1034,-563.5 1008,-563.5 1008,-542.5 1034,-542.5 1034,-563.5"/>
<text text-anchor="middle" x="1021" y="-550.5" font-family="Helvetica,sans-Serif" font-size="10.00">ID</text>
</g>
<!-- WORKFLOWINTERNALSOURCE_ID&#45;&gt;Get_Protein_FASTA -->
<g id="edge57" class="edge"><title>WORKFLOWINTERNALSOURCE_ID&#45;&gt;Get_Protein_FASTA</title>
<path fill="none" stroke="black" d="M1021.28,-542.212C1021.34,-540.19 1021.39,-538.013 1021.45,-535.804"/>
<polygon fill="black" stroke="black" points="1024.95,-535.772 1021.72,-525.683 1017.96,-535.588 1024.95,-535.772"/>
</g>
<!-- WORKFLOWINTERNALSOURCE_Database -->
<g id="node60" class="node"><title>WORKFLOWINTERNALSOURCE_Database</title>
<polygon fill="skyblue" stroke="black" points="1152,-563.5 1094,-563.5 1094,-542.5 1152,-542.5 1152,-563.5"/>
<text text-anchor="middle" x="1123" y="-550.5" font-family="Helvetica,sans-Serif" font-size="10.00">Database</text>
</g>
<!-- WORKFLOWINTERNALSOURCE_Database&#45;&gt;searchSimple -->
<g id="edge61" class="edge"><title>WORKFLOWINTERNALSOURCE_Database&#45;&gt;searchSimple</title>
<path fill="none" stroke="black" d="M1121.55,-542.257C1118.73,-521.335 1112.45,-474.803 1108.79,-447.696"/>
<polygon fill="black" stroke="black" points="1112.25,-447.158 1107.45,-437.715 1105.31,-448.094 1112.25,-447.158"/>
</g>
<!-- WORKFLOWINTERNALSOURCE_Program -->
<g id="node61" class="node"><title>WORKFLOWINTERNALSOURCE_Program</title>
<polygon fill="skyblue" stroke="black" points="1090,-563.5 1038,-563.5 1038,-542.5 1090,-542.5 1090,-563.5"/>
<text text-anchor="middle" x="1064" y="-550.5" font-family="Helvetica,sans-Serif" font-size="10.00">Program</text>
</g>
<!-- WORKFLOWINTERNALSOURCE_Program&#45;&gt;searchSimple -->
<g id="edge63" class="edge"><title>WORKFLOWINTERNALSOURCE_Program&#45;&gt;searchSimple</title>
<path fill="none" stroke="black" d="M1069.6,-542.404C1072.06,-537.496 1074.87,-531.536 1077,-526 1087.19,-499.481 1095.89,-467.816 1101.03,-447.564"/>
<polygon fill="black" stroke="black" points="1104.49,-448.141 1103.5,-437.592 1097.7,-446.453 1104.49,-448.141"/>
</g>
<!-- WORKFLOWINTERNALSOURCE_lEmailAddress -->
<g id="node62" class="node"><title>WORKFLOWINTERNALSOURCE_lEmailAddress</title>
<polygon fill="skyblue" stroke="black" points="1004,-563.5 924,-563.5 924,-542.5 1004,-542.5 1004,-563.5"/>
<text text-anchor="middle" x="964" y="-550.5" font-family="Helvetica,sans-Serif" font-size="10.00">lEmailAddress</text>
</g>
<!-- WORKFLOWINTERNALSOURCE_lEmailAddress&#45;&gt;Nested_workflowWORKFLOWINTERNALSOURCE_Email_address -->
<g id="edge65" class="edge"><title>WORKFLOWINTERNALSOURCE_lEmailAddress&#45;&gt;Nested_workflowWORKFLOWINTERNALSOURCE_Email_address</title>
<path fill="none" stroke="black" d="M923.85,-549.878C882.265,-544.767 817.408,-531.32 774,-496 757.818,-482.833 745.724,-462.07 738.352,-446.757"/>
<polygon fill="black" stroke="black" points="741.52,-445.269 734.193,-437.616 735.148,-448.167 741.52,-445.269"/>
</g>
<!-- WORKFLOWINTERNALSINKCONTROL -->
<g id="node64" class="node"><title>WORKFLOWINTERNALSINKCONTROL</title>
<polygon fill="#66cd00" stroke="black" points="1172,-20 1179,-30.5 1165,-30.5 1172,-20"/>
</g>
</g>
</svg>
