<?xml version="1.0" encoding="UTF-8" standalone="no"?>
<!DOCTYPE svg PUBLIC "-//W3C//DTD SVG 1.1//EN"
 "http://www.w3.org/Graphics/SVG/1.1/DTD/svg11.dtd">
<!-- Generated by graphviz version 2.26.0 (20091210.2329)
 -->
<!-- Title: t2flow_graph Pages: 1 -->
<svg width="804pt" height="411pt"
 viewBox="0.00 0.00 804.00 411.00" xmlns="http://www.w3.org/2000/svg" xmlns:xlink="http://www.w3.org/1999/xlink">
<g id="graph1" class="graph" transform="scale(1 1) rotate(0) translate(4 407)">
<title>t2flow_graph</title>
<polygon fill="white" stroke="white" points="-4,5 -4,-407 801,-407 801,5 -4,5"/>
<g id="graph2" class="cluster"><title>cluster_Nested_workflow_Fill_templates_without_barNested_workflow_Fill_templates_without_bar</title>
<polygon fill="aliceblue" stroke="black" points="8,-105 8,-298 394,-298 394,-105 8,-105"/>
<text text-anchor="middle" x="115" y="-285" font-family="Helvetica,sans-Serif" font-size="10.00">Nested_workflow_Fill_templates_without_bar</text>
</g>
<g id="graph3" class="cluster"><title>cluster_Nested_workflow_Fill_templates_without_barsources</title>
<polygon fill="none" stroke="black" stroke-dasharray="1,5" points="16,-210 16,-269 386,-269 386,-210 16,-210"/>
<text text-anchor="middle" x="60" y="-256" font-family="Helvetica,sans-Serif" font-size="10.00">Workflow Inputs</text>
</g>
<g id="graph4" class="cluster"><title>cluster_Nested_workflow_Fill_templates_without_barsinks</title>
<polygon fill="none" stroke="black" stroke-dasharray="1,5" points="83,-113 83,-172 371,-172 371,-113 83,-113"/>
<text text-anchor="middle" x="130.5" y="-159" font-family="Helvetica,sans-Serif" font-size="10.00">Workflow Outputs</text>
</g>
<g id="graph5" class="cluster"><title>cluster_Nested_workflow_fill_templates_with_barNested_workflow_fill_templates_with_bar</title>
<polygon fill="aliceblue" stroke="black" points="402,-105 402,-298 788,-298 788,-105 402,-105"/>
<text text-anchor="middle" x="500.5" y="-285" font-family="Helvetica,sans-Serif" font-size="10.00">Nested_workflow_fill_templates_with_bar</text>
</g>
<g id="graph6" class="cluster"><title>cluster_Nested_workflow_fill_templates_with_barsources</title>
<polygon fill="none" stroke="black" stroke-dasharray="1,5" points="410,-210 410,-269 780,-269 780,-210 410,-210"/>
<text text-anchor="middle" x="454" y="-256" font-family="Helvetica,sans-Serif" font-size="10.00">Workflow Inputs</text>
</g>
<g id="graph7" class="cluster"><title>cluster_Nested_workflow_fill_templates_with_barsinks</title>
<polygon fill="none" stroke="black" stroke-dasharray="1,5" points="410,-113 410,-172 698,-172 698,-113 410,-113"/>
<text text-anchor="middle" x="457.5" y="-159" font-family="Helvetica,sans-Serif" font-size="10.00">Workflow Outputs</text>
</g>
<g id="graph8" class="cluster"><title>cluster_sources</title>
<polygon fill="none" stroke="black" stroke-dasharray="1,5" points="61,-336 61,-395 667,-395 667,-336 61,-336"/>
<text text-anchor="middle" x="105" y="-382" font-family="Helvetica,sans-Serif" font-size="10.00">Workflow Inputs</text>
</g>
<g id="graph9" class="cluster"><title>cluster_sinks</title>
<polygon fill="none" stroke="black" stroke-dasharray="1,5" points="298,-8 298,-67 474,-67 474,-8 298,-8"/>
<text text-anchor="middle" x="345.5" y="-54" font-family="Helvetica,sans-Serif" font-size="10.00">Workflow Outputs</text>
</g>
<!-- Select_Rows_with_bar -->
<g id="node1" class="node"><title>Select_Rows_with_bar</title>
<polygon fill="white" stroke="black" points="450,-327.5 334,-327.5 334,-306.5 450,-306.5 450,-327.5"/>
<text text-anchor="middle" x="392" y="-314.5" font-family="Helvetica,sans-Serif" font-size="10.00">Select_Rows_with_bar</text>
</g>
<!-- Nested_workflow_fill_templates_with_barWORKFLOWINTERNALSOURCE_votable -->
<g id="node31" class="node"><title>Nested_workflow_fill_templates_with_barWORKFLOWINTERNALSOURCE_votable</title>
<polygon fill="skyblue" stroke="black" points="534,-239.5 486,-239.5 486,-218.5 534,-218.5 534,-239.5"/>
<text text-anchor="middle" x="510" y="-226.5" font-family="Helvetica,sans-Serif" font-size="10.00">votable</text>
</g>
<!-- Select_Rows_with_bar&#45;&gt;Nested_workflow_fill_templates_with_barWORKFLOWINTERNALSOURCE_votable -->
<g id="edge58" class="edge"><title>Select_Rows_with_bar&#45;&gt;Nested_workflow_fill_templates_with_barWORKFLOWINTERNALSOURCE_votable</title>
<path fill="none" stroke="black" d="M450.444,-309.017C464.292,-306.163 476.611,-302.509 482,-298 496.362,-285.984 503.435,-265.477 506.871,-249.933"/>
<polygon fill="black" stroke="black" points="510.389,-250.157 508.781,-239.685 503.508,-248.874 510.389,-250.157"/>
</g>
<!-- Select_Rows_without_bar -->
<g id="node2" class="node"><title>Select_Rows_without_bar</title>
<polygon fill="white" stroke="black" points="310,-327.5 180,-327.5 180,-306.5 310,-306.5 310,-327.5"/>
<text text-anchor="middle" x="245" y="-314.5" font-family="Helvetica,sans-Serif" font-size="10.00">Select_Rows_without_bar</text>
</g>
<!-- Nested_workflow_Fill_templates_without_barWORKFLOWINTERNALSOURCE_votable -->
<g id="node10" class="node"><title>Nested_workflow_Fill_templates_without_barWORKFLOWINTERNALSOURCE_votable</title>
<polygon fill="skyblue" stroke="black" points="198,-239.5 150,-239.5 150,-218.5 198,-218.5 198,-239.5"/>
<text text-anchor="middle" x="174" y="-226.5" font-family="Helvetica,sans-Serif" font-size="10.00">votable</text>
</g>
<!-- Select_Rows_without_bar&#45;&gt;Nested_workflow_Fill_templates_without_barWORKFLOWINTERNALSOURCE_votable -->
<g id="edge50" class="edge"><title>Select_Rows_without_bar&#45;&gt;Nested_workflow_Fill_templates_without_barWORKFLOWINTERNALSOURCE_votable</title>
<path fill="none" stroke="black" d="M213.099,-306.337C209.03,-304.035 205.182,-301.281 202,-298 189.108,-284.708 181.877,-264.689 178.008,-249.633"/>
<polygon fill="black" stroke="black" points="181.383,-248.688 175.752,-239.713 174.557,-250.24 181.383,-248.688"/>
</g>
<!-- Merge_Check_filler_report -->
<g id="node3" class="node"><title>Merge_Check_filler_report</title>
<polygon fill="#d15fee" stroke="black" points="396,-96.5 266,-96.5 266,-75.5 396,-75.5 396,-96.5"/>
<text text-anchor="middle" x="331" y="-83.5" font-family="Helvetica,sans-Serif" font-size="10.00">Merge_Check_filler_report</text>
</g>
<!-- WORKFLOWINTERNALSINK_Parameter_report -->
<g id="node58" class="node"><title>WORKFLOWINTERNALSINK_Parameter_report</title>
<polygon fill="#bcd2ee" stroke="black" points="398,-37.5 306,-37.5 306,-16.5 398,-16.5 398,-37.5"/>
<text text-anchor="middle" x="352" y="-24.5" font-family="Helvetica,sans-Serif" font-size="10.00">Parameter_report</text>
</g>
<!-- Merge_Check_filler_report&#45;&gt;WORKFLOWINTERNALSINK_Parameter_report -->
<g id="edge74" class="edge"><title>Merge_Check_filler_report&#45;&gt;WORKFLOWINTERNALSINK_Parameter_report</title>
<path fill="none" stroke="black" d="M334.754,-75.452C337.527,-67.6628 341.387,-56.8166 344.753,-47.3606"/>
<polygon fill="black" stroke="black" points="348.08,-48.4506 348.136,-37.8559 341.485,-46.1032 348.08,-48.4506"/>
</g>
<!-- Merge_String_List -->
<g id="node4" class="node"><title>Merge_String_List</title>
<polygon fill="#d15fee" stroke="black" points="494,-96.5 400,-96.5 400,-75.5 494,-75.5 494,-96.5"/>
<text text-anchor="middle" x="447" y="-83.5" font-family="Helvetica,sans-Serif" font-size="10.00">Merge_String_List</text>
</g>
<!-- WORKFLOWINTERNALSINK_results -->
<g id="node59" class="node"><title>WORKFLOWINTERNALSINK_results</title>
<polygon fill="#bcd2ee" stroke="black" points="448,-37.5 402,-37.5 402,-16.5 448,-16.5 448,-37.5"/>
<text text-anchor="middle" x="425" y="-24.5" font-family="Helvetica,sans-Serif" font-size="10.00">results</text>
</g>
<!-- Merge_String_List&#45;&gt;WORKFLOWINTERNALSINK_results -->
<g id="edge76" class="edge"><title>Merge_String_List&#45;&gt;WORKFLOWINTERNALSINK_results</title>
<path fill="none" stroke="black" d="M443.067,-75.452C440.162,-67.6628 436.118,-56.8166 432.592,-47.3606"/>
<polygon fill="black" stroke="black" points="435.821,-46.0028 429.048,-37.8559 429.262,-48.4485 435.821,-46.0028"/>
</g>
<!-- Nested_workflow_Fill_templates_without_barCheck_template_filler -->
<g id="node6" class="node"><title>Nested_workflow_Fill_templates_without_barCheck_template_filler</title>
<polygon fill="white" stroke="black" points="188,-201.5 78,-201.5 78,-180.5 188,-180.5 188,-201.5"/>
<text text-anchor="middle" x="133" y="-188.5" font-family="Helvetica,sans-Serif" font-size="10.00">Check_template_filler</text>
</g>
<!-- Nested_workflow_Fill_templates_without_barWORKFLOWINTERNALSINK_Check_template_filler_report -->
<g id="node16" class="node"><title>Nested_workflow_Fill_templates_without_barWORKFLOWINTERNALSINK_Check_template_filler_report</title>
<polygon fill="#bcd2ee" stroke="black" points="231,-142.5 91,-142.5 91,-121.5 231,-121.5 231,-142.5"/>
<text text-anchor="middle" x="161" y="-129.5" font-family="Helvetica,sans-Serif" font-size="10.00">Check_template_filler_report</text>
</g>
<!-- Nested_workflow_Fill_templates_without_barCheck_template_filler&#45;&gt;Nested_workflow_Fill_templates_without_barWORKFLOWINTERNALSINK_Check_template_filler_report -->
<g id="edge17" class="edge"><title>Nested_workflow_Fill_templates_without_barCheck_template_filler&#45;&gt;Nested_workflow_Fill_templates_without_barWORKFLOWINTERNALSINK_Check_template_filler_report</title>
<path fill="none" stroke="black" d="M138.006,-180.452C141.742,-172.58 146.959,-161.586 151.48,-152.059"/>
<polygon fill="black" stroke="black" points="154.723,-153.391 155.848,-142.856 148.399,-150.39 154.723,-153.391"/>
</g>
<!-- Nested_workflow_Fill_templates_without_barTemplate_filler -->
<g id="node7" class="node"><title>Nested_workflow_Fill_templates_without_barTemplate_filler</title>
<polygon fill="white" stroke="black" points="287,-201.5 207,-201.5 207,-180.5 287,-180.5 287,-201.5"/>
<text text-anchor="middle" x="247" y="-188.5" font-family="Helvetica,sans-Serif" font-size="10.00">Template_filler</text>
</g>
<!-- Nested_workflow_Fill_templates_without_barWORKFLOWINTERNALSINK_Template_filler_report -->
<g id="node17" class="node"><title>Nested_workflow_Fill_templates_without_barWORKFLOWINTERNALSINK_Template_filler_report</title>
<polygon fill="#bcd2ee" stroke="black" points="345,-142.5 235,-142.5 235,-121.5 345,-121.5 345,-142.5"/>
<text text-anchor="middle" x="290" y="-129.5" font-family="Helvetica,sans-Serif" font-size="10.00">Template_filler_report</text>
</g>
<!-- Nested_workflow_Fill_templates_without_barTemplate_filler&#45;&gt;Nested_workflow_Fill_templates_without_barWORKFLOWINTERNALSINK_Template_filler_report -->
<g id="edge19" class="edge"><title>Nested_workflow_Fill_templates_without_barTemplate_filler&#45;&gt;Nested_workflow_Fill_templates_without_barWORKFLOWINTERNALSINK_Template_filler_report</title>
<path fill="none" stroke="black" d="M254.688,-180.452C260.606,-172.331 268.946,-160.888 276.035,-151.161"/>
<polygon fill="black" stroke="black" points="279.027,-152.999 282.088,-142.856 273.37,-148.876 279.027,-152.999"/>
</g>
<!-- Nested_workflow_Fill_templates_without_barWORKFLOWINTERNALSOURCECONTROL -->
<g id="node9" class="node"><title>Nested_workflow_Fill_templates_without_barWORKFLOWINTERNALSOURCECONTROL</title>
<polygon fill="#ff4040" stroke="black" points="371,-236 364,-225.5 378,-225.5 371,-236"/>
</g>
<!-- Nested_workflow_Fill_templates_without_barWORKFLOWINTERNALSOURCE_votable&#45;&gt;Nested_workflow_Fill_templates_without_barCheck_template_filler -->
<g id="edge5" class="edge"><title>Nested_workflow_Fill_templates_without_barWORKFLOWINTERNALSOURCE_votable&#45;&gt;Nested_workflow_Fill_templates_without_barCheck_template_filler</title>
<path fill="none" stroke="black" d="M162.361,-218.212C159.131,-215.219 155.537,-211.888 152.003,-208.613"/>
<polygon fill="black" stroke="black" points="154.24,-205.914 144.526,-201.683 149.482,-211.048 154.24,-205.914"/>
</g>
<!-- Nested_workflow_Fill_templates_without_barWORKFLOWINTERNALSOURCE_votable&#45;&gt;Nested_workflow_Fill_templates_without_barTemplate_filler -->
<g id="edge13" class="edge"><title>Nested_workflow_Fill_templates_without_barWORKFLOWINTERNALSOURCE_votable&#45;&gt;Nested_workflow_Fill_templates_without_barTemplate_filler</title>
<path fill="none" stroke="black" d="M188.481,-218.381C192.73,-215.485 197.458,-212.469 202,-210 204.671,-208.548 207.476,-207.131 210.325,-205.766"/>
<polygon fill="black" stroke="black" points="211.811,-208.935 219.467,-201.611 208.915,-202.563 211.811,-208.935"/>
</g>
<!-- Nested_workflow_Fill_templates_without_barWORKFLOWINTERNALSOURCE_vocabulary -->
<g id="node11" class="node"><title>Nested_workflow_Fill_templates_without_barWORKFLOWINTERNALSOURCE_vocabulary</title>
<polygon fill="skyblue" stroke="black" points="88,-239.5 24,-239.5 24,-218.5 88,-218.5 88,-239.5"/>
<text text-anchor="middle" x="56" y="-226.5" font-family="Helvetica,sans-Serif" font-size="10.00">vocabulary</text>
</g>
<!-- Nested_workflow_Fill_templates_without_barWORKFLOWINTERNALSOURCE_vocabulary&#45;&gt;Nested_workflow_Fill_templates_without_barCheck_template_filler -->
<g id="edge7" class="edge"><title>Nested_workflow_Fill_templates_without_barWORKFLOWINTERNALSOURCE_vocabulary&#45;&gt;Nested_workflow_Fill_templates_without_barCheck_template_filler</title>
<path fill="none" stroke="black" d="M75.7113,-218.362C80.9755,-215.585 86.6802,-212.634 92,-210 94.7243,-208.651 97.5633,-207.275 100.42,-205.911"/>
<polygon fill="black" stroke="black" points="101.927,-209.07 109.484,-201.644 98.9461,-202.737 101.927,-209.07"/>
</g>
<!-- Nested_workflow_Fill_templates_without_barWORKFLOWINTERNALSOURCE_template -->
<g id="node12" class="node"><title>Nested_workflow_Fill_templates_without_barWORKFLOWINTERNALSOURCE_template</title>
<polygon fill="skyblue" stroke="black" points="146,-239.5 92,-239.5 92,-218.5 146,-218.5 146,-239.5"/>
<text text-anchor="middle" x="119" y="-226.5" font-family="Helvetica,sans-Serif" font-size="10.00">template</text>
</g>
<!-- Nested_workflow_Fill_templates_without_barWORKFLOWINTERNALSOURCE_template&#45;&gt;Nested_workflow_Fill_templates_without_barCheck_template_filler -->
<g id="edge9" class="edge"><title>Nested_workflow_Fill_templates_without_barWORKFLOWINTERNALSOURCE_template&#45;&gt;Nested_workflow_Fill_templates_without_barCheck_template_filler</title>
<path fill="none" stroke="black" d="M122.974,-218.212C123.779,-216.028 124.65,-213.664 125.531,-211.273"/>
<polygon fill="black" stroke="black" points="128.891,-212.277 129.064,-201.683 122.323,-209.857 128.891,-212.277"/>
</g>
<!-- Nested_workflow_Fill_templates_without_barWORKFLOWINTERNALSOURCE_template&#45;&gt;Nested_workflow_Fill_templates_without_barTemplate_filler -->
<g id="edge15" class="edge"><title>Nested_workflow_Fill_templates_without_barWORKFLOWINTERNALSOURCE_template&#45;&gt;Nested_workflow_Fill_templates_without_barTemplate_filler</title>
<path fill="none" stroke="black" d="M133.889,-218.393C138.823,-215.289 144.471,-212.155 150,-210 150.621,-209.758 173.489,-205.275 196.863,-200.725"/>
<polygon fill="black" stroke="black" points="197.7,-204.128 206.847,-198.783 196.363,-197.257 197.7,-204.128"/>
</g>
<!-- Nested_workflow_Fill_templates_without_barWORKFLOWINTERNALSOURCE_columnNameWithConfigFilePath -->
<g id="node13" class="node"><title>Nested_workflow_Fill_templates_without_barWORKFLOWINTERNALSOURCE_columnNameWithConfigFilePath</title>
<polygon fill="skyblue" stroke="black" points="360,-239.5 202,-239.5 202,-218.5 360,-218.5 360,-239.5"/>
<text text-anchor="middle" x="281" y="-226.5" font-family="Helvetica,sans-Serif" font-size="10.00">columnNameWithConfigFilePath</text>
</g>
<!-- Nested_workflow_Fill_templates_without_barWORKFLOWINTERNALSOURCE_columnNameWithConfigFilePath&#45;&gt;Nested_workflow_Fill_templates_without_barTemplate_filler -->
<g id="edge11" class="edge"><title>Nested_workflow_Fill_templates_without_barWORKFLOWINTERNALSOURCE_columnNameWithConfigFilePath&#45;&gt;Nested_workflow_Fill_templates_without_barTemplate_filler</title>
<path fill="none" stroke="black" d="M271.348,-218.212C268.814,-215.38 266.011,-212.247 263.234,-209.144"/>
<polygon fill="black" stroke="black" points="265.835,-206.802 256.559,-201.683 260.618,-211.469 265.835,-206.802"/>
</g>
<!-- Nested_workflow_Fill_templates_without_barWORKFLOWINTERNALSINKCONTROL -->
<g id="node15" class="node"><title>Nested_workflow_Fill_templates_without_barWORKFLOWINTERNALSINKCONTROL</title>
<polygon fill="#66cd00" stroke="black" points="356,-125 363,-135.5 349,-135.5 356,-125"/>
</g>
<!-- Nested_workflow_Fill_templates_without_barWORKFLOWINTERNALSINK_Check_template_filler_report&#45;&gt;Merge_Check_filler_report -->
<g id="edge66" class="edge"><title>Nested_workflow_Fill_templates_without_barWORKFLOWINTERNALSINK_Check_template_filler_report&#45;&gt;Merge_Check_filler_report</title>
<path fill="none" stroke="black" d="M187.049,-121.377C201.084,-115.939 218.8,-109.529 235,-105 243.115,-102.731 251.688,-100.628 260.238,-98.7125"/>
<polygon fill="black" stroke="black" points="261.201,-102.085 270.236,-96.5503 259.722,-95.2434 261.201,-102.085"/>
</g>
<!-- Nested_workflow_Fill_templates_without_barWORKFLOWINTERNALSINK_Template_filler_report&#45;&gt;Merge_String_List -->
<g id="edge70" class="edge"><title>Nested_workflow_Fill_templates_without_barWORKFLOWINTERNALSINK_Template_filler_report&#45;&gt;Merge_String_List</title>
<path fill="none" stroke="black" d="M309.698,-121.417C320.931,-115.785 335.436,-109.179 349,-105 366.086,-99.7355 372.987,-100.516 389.494,-98.0345"/>
<polygon fill="black" stroke="black" points="390.519,-101.41 399.779,-96.2612 389.33,-94.5114 390.519,-101.41"/>
</g>
<!-- Nested_workflow_fill_templates_with_barCheck_template_filler -->
<g id="node27" class="node"><title>Nested_workflow_fill_templates_with_barCheck_template_filler</title>
<polygon fill="white" stroke="black" points="550,-201.5 440,-201.5 440,-180.5 550,-180.5 550,-201.5"/>
<text text-anchor="middle" x="495" y="-188.5" font-family="Helvetica,sans-Serif" font-size="10.00">Check_template_filler</text>
</g>
<!-- Nested_workflow_fill_templates_with_barWORKFLOWINTERNALSINK_Check_template_filler_report -->
<g id="node37" class="node"><title>Nested_workflow_fill_templates_with_barWORKFLOWINTERNALSINK_Check_template_filler_report</title>
<polygon fill="#bcd2ee" stroke="black" points="558,-142.5 418,-142.5 418,-121.5 558,-121.5 558,-142.5"/>
<text text-anchor="middle" x="488" y="-129.5" font-family="Helvetica,sans-Serif" font-size="10.00">Check_template_filler_report</text>
</g>
<!-- Nested_workflow_fill_templates_with_barCheck_template_filler&#45;&gt;Nested_workflow_fill_templates_with_barWORKFLOWINTERNALSINK_Check_template_filler_report -->
<g id="edge36" class="edge"><title>Nested_workflow_fill_templates_with_barCheck_template_filler&#45;&gt;Nested_workflow_fill_templates_with_barWORKFLOWINTERNALSINK_Check_template_filler_report</title>
<path fill="none" stroke="black" d="M493.749,-180.452C492.844,-172.829 491.592,-162.277 490.487,-152.966"/>
<polygon fill="black" stroke="black" points="493.942,-152.374 489.288,-142.856 486.991,-153.199 493.942,-152.374"/>
</g>
<!-- Nested_workflow_fill_templates_with_barTemplate_filler -->
<g id="node28" class="node"><title>Nested_workflow_fill_templates_with_barTemplate_filler</title>
<polygon fill="white" stroke="black" points="649,-201.5 569,-201.5 569,-180.5 649,-180.5 649,-201.5"/>
<text text-anchor="middle" x="609" y="-188.5" font-family="Helvetica,sans-Serif" font-size="10.00">Template_filler</text>
</g>
<!-- Nested_workflow_fill_templates_with_barWORKFLOWINTERNALSINK_Template_filler_report -->
<g id="node38" class="node"><title>Nested_workflow_fill_templates_with_barWORKFLOWINTERNALSINK_Template_filler_report</title>
<polygon fill="#bcd2ee" stroke="black" points="672,-142.5 562,-142.5 562,-121.5 672,-121.5 672,-142.5"/>
<text text-anchor="middle" x="617" y="-129.5" font-family="Helvetica,sans-Serif" font-size="10.00">Template_filler_report</text>
</g>
<!-- Nested_workflow_fill_templates_with_barTemplate_filler&#45;&gt;Nested_workflow_fill_templates_with_barWORKFLOWINTERNALSINK_Template_filler_report -->
<g id="edge38" class="edge"><title>Nested_workflow_fill_templates_with_barTemplate_filler&#45;&gt;Nested_workflow_fill_templates_with_barWORKFLOWINTERNALSINK_Template_filler_report</title>
<path fill="none" stroke="black" d="M610.43,-180.452C611.464,-172.829 612.895,-162.277 614.157,-152.966"/>
<polygon fill="black" stroke="black" points="617.653,-153.235 615.528,-142.856 610.716,-152.295 617.653,-153.235"/>
</g>
<!-- Nested_workflow_fill_templates_with_barWORKFLOWINTERNALSOURCECONTROL -->
<g id="node30" class="node"><title>Nested_workflow_fill_templates_with_barWORKFLOWINTERNALSOURCECONTROL</title>
<polygon fill="#ff4040" stroke="black" points="765,-236 758,-225.5 772,-225.5 765,-236"/>
</g>
<!-- Nested_workflow_fill_templates_with_barWORKFLOWINTERNALSOURCE_votable&#45;&gt;Nested_workflow_fill_templates_with_barCheck_template_filler -->
<g id="edge24" class="edge"><title>Nested_workflow_fill_templates_with_barWORKFLOWINTERNALSOURCE_votable&#45;&gt;Nested_workflow_fill_templates_with_barCheck_template_filler</title>
<path fill="none" stroke="black" d="M505.742,-218.212C504.847,-215.947 503.877,-213.488 502.897,-211.007"/>
<polygon fill="black" stroke="black" points="506.144,-209.7 499.217,-201.683 499.633,-212.27 506.144,-209.7"/>
</g>
<!-- Nested_workflow_fill_templates_with_barWORKFLOWINTERNALSOURCE_votable&#45;&gt;Nested_workflow_fill_templates_with_barTemplate_filler -->
<g id="edge32" class="edge"><title>Nested_workflow_fill_templates_with_barWORKFLOWINTERNALSOURCE_votable&#45;&gt;Nested_workflow_fill_templates_with_barTemplate_filler</title>
<path fill="none" stroke="black" d="M523.699,-218.365C528.086,-215.333 533.085,-212.247 538,-210 544.622,-206.972 551.819,-204.35 559.007,-202.104"/>
<polygon fill="black" stroke="black" points="560.123,-205.424 568.747,-199.27 558.167,-198.703 560.123,-205.424"/>
</g>
<!-- Nested_workflow_fill_templates_with_barWORKFLOWINTERNALSOURCE_vocabulary -->
<g id="node32" class="node"><title>Nested_workflow_fill_templates_with_barWORKFLOWINTERNALSOURCE_vocabulary</title>
<polygon fill="skyblue" stroke="black" points="482,-239.5 418,-239.5 418,-218.5 482,-218.5 482,-239.5"/>
<text text-anchor="middle" x="450" y="-226.5" font-family="Helvetica,sans-Serif" font-size="10.00">vocabulary</text>
</g>
<!-- Nested_workflow_fill_templates_with_barWORKFLOWINTERNALSOURCE_vocabulary&#45;&gt;Nested_workflow_fill_templates_with_barCheck_template_filler -->
<g id="edge26" class="edge"><title>Nested_workflow_fill_templates_with_barWORKFLOWINTERNALSOURCE_vocabulary&#45;&gt;Nested_workflow_fill_templates_with_barCheck_template_filler</title>
<path fill="none" stroke="black" d="M462.775,-218.212C466.416,-215.138 470.478,-211.708 474.457,-208.347"/>
<polygon fill="black" stroke="black" points="476.967,-210.809 482.349,-201.683 472.451,-205.461 476.967,-210.809"/>
</g>
<!-- Nested_workflow_fill_templates_with_barWORKFLOWINTERNALSOURCE_template -->
<g id="node33" class="node"><title>Nested_workflow_fill_templates_with_barWORKFLOWINTERNALSOURCE_template</title>
<polygon fill="skyblue" stroke="black" points="592,-239.5 538,-239.5 538,-218.5 592,-218.5 592,-239.5"/>
<text text-anchor="middle" x="565" y="-226.5" font-family="Helvetica,sans-Serif" font-size="10.00">template</text>
</g>
<!-- Nested_workflow_fill_templates_with_barWORKFLOWINTERNALSOURCE_template&#45;&gt;Nested_workflow_fill_templates_with_barCheck_template_filler -->
<g id="edge28" class="edge"><title>Nested_workflow_fill_templates_with_barWORKFLOWINTERNALSOURCE_template&#45;&gt;Nested_workflow_fill_templates_with_barCheck_template_filler</title>
<path fill="none" stroke="black" d="M548.442,-218.445C543.82,-215.611 538.76,-212.61 534,-210 531.746,-208.764 529.401,-207.52 527.027,-206.292"/>
<polygon fill="black" stroke="black" points="528.38,-203.055 517.874,-201.686 525.233,-209.308 528.38,-203.055"/>
</g>
<!-- Nested_workflow_fill_templates_with_barWORKFLOWINTERNALSOURCE_template&#45;&gt;Nested_workflow_fill_templates_with_barTemplate_filler -->
<g id="edge34" class="edge"><title>Nested_workflow_fill_templates_with_barWORKFLOWINTERNALSOURCE_template&#45;&gt;Nested_workflow_fill_templates_with_barTemplate_filler</title>
<path fill="none" stroke="black" d="M577.491,-218.212C581.051,-215.138 585.023,-211.708 588.914,-208.347"/>
<polygon fill="black" stroke="black" points="591.35,-210.868 596.63,-201.683 586.774,-205.57 591.35,-210.868"/>
</g>
<!-- Nested_workflow_fill_templates_with_barWORKFLOWINTERNALSOURCE_columnNameWithConfigFilePath -->
<g id="node34" class="node"><title>Nested_workflow_fill_templates_with_barWORKFLOWINTERNALSOURCE_columnNameWithConfigFilePath</title>
<polygon fill="skyblue" stroke="black" points="754,-239.5 596,-239.5 596,-218.5 754,-218.5 754,-239.5"/>
<text text-anchor="middle" x="675" y="-226.5" font-family="Helvetica,sans-Serif" font-size="10.00">columnNameWithConfigFilePath</text>
</g>
<!-- Nested_workflow_fill_templates_with_barWORKFLOWINTERNALSOURCE_columnNameWithConfigFilePath&#45;&gt;Nested_workflow_fill_templates_with_barTemplate_filler -->
<g id="edge30" class="edge"><title>Nested_workflow_fill_templates_with_barWORKFLOWINTERNALSOURCE_columnNameWithConfigFilePath&#45;&gt;Nested_workflow_fill_templates_with_barTemplate_filler</title>
<path fill="none" stroke="black" d="M656.615,-218.415C650.322,-214.791 643.14,-210.656 636.295,-206.715"/>
<polygon fill="black" stroke="black" points="637.699,-203.485 627.286,-201.528 634.206,-209.551 637.699,-203.485"/>
</g>
<!-- Nested_workflow_fill_templates_with_barWORKFLOWINTERNALSINKCONTROL -->
<g id="node36" class="node"><title>Nested_workflow_fill_templates_with_barWORKFLOWINTERNALSINKCONTROL</title>
<polygon fill="#66cd00" stroke="black" points="683,-125 690,-135.5 676,-135.5 683,-125"/>
</g>
<!-- Nested_workflow_fill_templates_with_barWORKFLOWINTERNALSINK_Check_template_filler_report&#45;&gt;Merge_Check_filler_report -->
<g id="edge68" class="edge"><title>Nested_workflow_fill_templates_with_barWORKFLOWINTERNALSINK_Check_template_filler_report&#45;&gt;Merge_Check_filler_report</title>
<path fill="none" stroke="black" d="M451.981,-121.447C429.543,-114.872 400.478,-106.357 376.461,-99.3197"/>
<polygon fill="black" stroke="black" points="377.432,-95.9572 366.851,-96.5042 375.464,-102.675 377.432,-95.9572"/>
</g>
<!-- Nested_workflow_fill_templates_with_barWORKFLOWINTERNALSINK_Template_filler_report&#45;&gt;Merge_String_List -->
<g id="edge72" class="edge"><title>Nested_workflow_fill_templates_with_barWORKFLOWINTERNALSINK_Template_filler_report&#45;&gt;Merge_String_List</title>
<path fill="none" stroke="black" d="M597.301,-121.422C586.067,-115.792 571.562,-109.186 558,-105 540.822,-99.6983 521.663,-95.7539 504.163,-92.8757"/>
<polygon fill="black" stroke="black" points="504.498,-89.3858 494.078,-91.3021 503.419,-96.3021 504.498,-89.3858"/>
</g>
<!-- WORKFLOWINTERNALSOURCECONTROL -->
<g id="node48" class="node"><title>WORKFLOWINTERNALSOURCECONTROL</title>
<polygon fill="#ff4040" stroke="black" points="652,-362 645,-351.5 659,-351.5 652,-362"/>
</g>
<!-- WORKFLOWINTERNALSOURCE_votable -->
<g id="node49" class="node"><title>WORKFLOWINTERNALSOURCE_votable</title>
<polygon fill="skyblue" stroke="black" points="343,-365.5 295,-365.5 295,-344.5 343,-344.5 343,-365.5"/>
<text text-anchor="middle" x="319" y="-352.5" font-family="Helvetica,sans-Serif" font-size="10.00">votable</text>
</g>
<!-- WORKFLOWINTERNALSOURCE_votable&#45;&gt;Select_Rows_with_bar -->
<g id="edge42" class="edge"><title>WORKFLOWINTERNALSOURCE_votable&#45;&gt;Select_Rows_with_bar</title>
<path fill="none" stroke="black" d="M333.481,-344.381C337.73,-341.485 342.458,-338.469 347,-336 349.671,-334.548 352.476,-333.131 355.325,-331.766"/>
<polygon fill="black" stroke="black" points="356.811,-334.935 364.467,-327.611 353.915,-328.563 356.811,-334.935"/>
</g>
<!-- WORKFLOWINTERNALSOURCE_votable&#45;&gt;Select_Rows_without_bar -->
<g id="edge46" class="edge"><title>WORKFLOWINTERNALSOURCE_votable&#45;&gt;Select_Rows_without_bar</title>
<path fill="none" stroke="black" d="M304.532,-344.358C300.283,-341.462 295.552,-338.451 291,-336 288.273,-334.532 285.408,-333.102 282.497,-331.729"/>
<polygon fill="black" stroke="black" points="283.713,-328.439 273.155,-327.559 280.86,-334.831 283.713,-328.439"/>
</g>
<!-- WORKFLOWINTERNALSOURCE_PartitioningFilter1 -->
<g id="node50" class="node"><title>WORKFLOWINTERNALSOURCE_PartitioningFilter1</title>
<polygon fill="skyblue" stroke="black" points="291,-365.5 199,-365.5 199,-344.5 291,-344.5 291,-365.5"/>
<text text-anchor="middle" x="245" y="-352.5" font-family="Helvetica,sans-Serif" font-size="10.00">PartitioningFilter1</text>
</g>
<!-- WORKFLOWINTERNALSOURCE_PartitioningFilter1&#45;&gt;Select_Rows_without_bar -->
<g id="edge48" class="edge"><title>WORKFLOWINTERNALSOURCE_PartitioningFilter1&#45;&gt;Select_Rows_without_bar</title>
<path fill="none" stroke="black" d="M245,-344.212C245,-342.19 245,-340.013 245,-337.804"/>
<polygon fill="black" stroke="black" points="248.5,-337.683 245,-327.683 241.5,-337.683 248.5,-337.683"/>
</g>
<!-- WORKFLOWINTERNALSOURCE_partitioningFilter2 -->
<g id="node51" class="node"><title>WORKFLOWINTERNALSOURCE_partitioningFilter2</title>
<polygon fill="skyblue" stroke="black" points="437,-365.5 347,-365.5 347,-344.5 437,-344.5 437,-365.5"/>
<text text-anchor="middle" x="392" y="-352.5" font-family="Helvetica,sans-Serif" font-size="10.00">partitioningFilter2</text>
</g>
<!-- WORKFLOWINTERNALSOURCE_partitioningFilter2&#45;&gt;Select_Rows_with_bar -->
<g id="edge44" class="edge"><title>WORKFLOWINTERNALSOURCE_partitioningFilter2&#45;&gt;Select_Rows_with_bar</title>
<path fill="none" stroke="black" d="M392,-344.212C392,-342.19 392,-340.013 392,-337.804"/>
<polygon fill="black" stroke="black" points="395.5,-337.683 392,-327.683 388.5,-337.683 395.5,-337.683"/>
</g>
<!-- WORKFLOWINTERNALSOURCE_vocabulary -->
<g id="node52" class="node"><title>WORKFLOWINTERNALSOURCE_vocabulary</title>
<polygon fill="skyblue" stroke="black" points="195,-365.5 131,-365.5 131,-344.5 195,-344.5 195,-365.5"/>
<text text-anchor="middle" x="163" y="-352.5" font-family="Helvetica,sans-Serif" font-size="10.00">vocabulary</text>
</g>
<!-- WORKFLOWINTERNALSOURCE_vocabulary&#45;&gt;Nested_workflow_Fill_templates_without_barWORKFLOWINTERNALSOURCE_vocabulary -->
<g id="edge54" class="edge"><title>WORKFLOWINTERNALSOURCE_vocabulary&#45;&gt;Nested_workflow_Fill_templates_without_barWORKFLOWINTERNALSOURCE_vocabulary</title>
<path fill="none" stroke="black" d="M146.127,-344.425C130.592,-334.054 107.651,-317.056 92,-298 79.8546,-283.213 70.1294,-263.669 63.8638,-249.157"/>
<polygon fill="black" stroke="black" points="66.978,-247.528 59.9277,-239.62 60.5073,-250.199 66.978,-247.528"/>
</g>
<!-- WORKFLOWINTERNALSOURCE_vocabulary&#45;&gt;Nested_workflow_fill_templates_with_barWORKFLOWINTERNALSOURCE_vocabulary -->
<g id="edge62" class="edge"><title>WORKFLOWINTERNALSOURCE_vocabulary&#45;&gt;Nested_workflow_fill_templates_with_barWORKFLOWINTERNALSOURCE_vocabulary</title>
<path fill="none" stroke="black" d="M162.229,-344.497C162.032,-333.064 163.733,-315.189 175,-306 193.267,-291.102 365.616,-307.918 387,-298 409.511,-287.559 427.615,-264.958 438.54,-248.457"/>
<polygon fill="black" stroke="black" points="441.759,-249.913 444.122,-239.585 435.835,-246.185 441.759,-249.913"/>
</g>
<!-- WORKFLOWINTERNALSOURCE_columnNameWithConfigFile -->
<g id="node53" class="node"><title>WORKFLOWINTERNALSOURCE_columnNameWithConfigFile</title>
<polygon fill="skyblue" stroke="black" points="579,-365.5 441,-365.5 441,-344.5 579,-344.5 579,-365.5"/>
<text text-anchor="middle" x="510" y="-352.5" font-family="Helvetica,sans-Serif" font-size="10.00">columnNameWithConfigFile</text>
</g>
<!-- WORKFLOWINTERNALSOURCE_columnNameWithConfigFile&#45;&gt;Nested_workflow_Fill_templates_without_barWORKFLOWINTERNALSOURCE_columnNameWithConfigFilePath -->
<g id="edge52" class="edge"><title>WORKFLOWINTERNALSOURCE_columnNameWithConfigFile&#45;&gt;Nested_workflow_Fill_templates_without_barWORKFLOWINTERNALSOURCE_columnNameWithConfigFilePath</title>
<path fill="none" stroke="black" d="M506.096,-344.25C501.238,-332.597 491.738,-314.524 477,-306 455.209,-293.396 387.358,-307.387 364,-298 336.656,-287.011 311.585,-263.484 296.313,-246.97"/>
<polygon fill="black" stroke="black" points="298.914,-244.629 289.636,-239.513 293.699,-249.298 298.914,-244.629"/>
</g>
<!-- WORKFLOWINTERNALSOURCE_columnNameWithConfigFile&#45;&gt;Nested_workflow_fill_templates_with_barWORKFLOWINTERNALSOURCE_columnNameWithConfigFilePath -->
<g id="edge64" class="edge"><title>WORKFLOWINTERNALSOURCE_columnNameWithConfigFile&#45;&gt;Nested_workflow_fill_templates_with_barWORKFLOWINTERNALSOURCE_columnNameWithConfigFilePath</title>
<path fill="none" stroke="black" d="M526.008,-344.468C542.749,-333.317 569.649,-315.009 592,-298 614.095,-281.186 638.419,-260.72 654.989,-246.463"/>
<polygon fill="black" stroke="black" points="657.621,-248.814 662.894,-239.625 653.041,-243.52 657.621,-248.814"/>
</g>
<!-- WORKFLOWINTERNALSOURCE_template1 -->
<g id="node54" class="node"><title>WORKFLOWINTERNALSOURCE_template1</title>
<polygon fill="skyblue" stroke="black" points="127,-365.5 69,-365.5 69,-344.5 127,-344.5 127,-365.5"/>
<text text-anchor="middle" x="98" y="-352.5" font-family="Helvetica,sans-Serif" font-size="10.00">template1</text>
</g>
<!-- WORKFLOWINTERNALSOURCE_template1&#45;&gt;Nested_workflow_Fill_templates_without_barWORKFLOWINTERNALSOURCE_template -->
<g id="edge56" class="edge"><title>WORKFLOWINTERNALSOURCE_template1&#45;&gt;Nested_workflow_Fill_templates_without_barWORKFLOWINTERNALSOURCE_template</title>
<path fill="none" stroke="black" d="M99.7904,-344.257C103.277,-323.335 111.033,-276.803 115.551,-249.696"/>
<polygon fill="black" stroke="black" points="119.022,-250.155 117.214,-239.715 112.118,-249.004 119.022,-250.155"/>
</g>
<!-- WORKFLOWINTERNALSOURCE_template2 -->
<g id="node55" class="node"><title>WORKFLOWINTERNALSOURCE_template2</title>
<polygon fill="skyblue" stroke="black" points="641,-365.5 583,-365.5 583,-344.5 641,-344.5 641,-365.5"/>
<text text-anchor="middle" x="612" y="-352.5" font-family="Helvetica,sans-Serif" font-size="10.00">template2</text>
</g>
<!-- WORKFLOWINTERNALSOURCE_template2&#45;&gt;Nested_workflow_fill_templates_with_barWORKFLOWINTERNALSOURCE_template -->
<g id="edge60" class="edge"><title>WORKFLOWINTERNALSOURCE_template2&#45;&gt;Nested_workflow_fill_templates_with_barWORKFLOWINTERNALSOURCE_template</title>
<path fill="none" stroke="black" d="M607.993,-344.257C600.154,-323.242 582.677,-276.389 572.586,-249.336"/>
<polygon fill="black" stroke="black" points="575.771,-247.862 568.997,-239.715 569.213,-250.308 575.771,-247.862"/>
</g>
<!-- WORKFLOWINTERNALSINKCONTROL -->
<g id="node57" class="node"><title>WORKFLOWINTERNALSINKCONTROL</title>
<polygon fill="#66cd00" stroke="black" points="459,-20 466,-30.5 452,-30.5 459,-20"/>
</g>
</g>
</svg>
