<?xml version="1.0" encoding="UTF-8" standalone="no"?>
<!DOCTYPE svg PUBLIC "-//W3C//DTD SVG 1.1//EN"
 "http://www.w3.org/Graphics/SVG/1.1/DTD/svg11.dtd">
<!-- Generated by graphviz version 2.26.0 (20091210.2329)
 -->
<!-- Title: t2flow_graph Pages: 1 -->
<svg width="542pt" height="408pt"
 viewBox="0.00 0.00 542.00 408.00" xmlns="http://www.w3.org/2000/svg" xmlns:xlink="http://www.w3.org/1999/xlink">
<g id="graph1" class="graph" transform="scale(1 1) rotate(0) translate(4 404)">
<title>t2flow_graph</title>
<polygon fill="white" stroke="white" points="-4,5 -4,-404 539,-404 539,5 -4,5"/>
<g id="graph2" class="cluster"><title>cluster_sources</title>
<polygon fill="none" stroke="black" stroke-dasharray="1,5" points="127,-333 127,-392 289,-392 289,-333 127,-333"/>
<text text-anchor="middle" x="171" y="-379" font-family="Helvetica,sans-Serif" font-size="10.00">Workflow Inputs</text>
</g>
<g id="graph3" class="cluster"><title>cluster_sinks</title>
<polygon fill="none" stroke="black" stroke-dasharray="1,5" points="8,-8 8,-67 526,-67 526,-8 8,-8"/>
<text text-anchor="middle" x="55.5" y="-54" font-family="Helvetica,sans-Serif" font-size="10.00">Workflow Outputs</text>
</g>
<!-- LM_URL1 -->
<g id="node1" class="node"><title>LM_URL1</title>
<polygon fill="#b0c4de" stroke="black" points="119,-362.5 59,-362.5 59,-341.5 119,-341.5 119,-362.5"/>
<text text-anchor="middle" x="89" y="-349.5" font-family="Helvetica,sans-Serif" font-size="10.00">LM_URL1</text>
</g>
<!-- merge1 -->
<g id="node3" class="node"><title>merge1</title>
<polygon fill="#d15fee" stroke="black" points="146,-324.5 98,-324.5 98,-303.5 146,-303.5 146,-324.5"/>
<text text-anchor="middle" x="122" y="-311.5" font-family="Helvetica,sans-Serif" font-size="10.00">merge1</text>
</g>
<!-- LM_URL1&#45;&gt;merge1 -->
<g id="edge4" class="edge"><title>LM_URL1&#45;&gt;merge1</title>
<path fill="none" stroke="black" d="M98.3682,-341.212C100.757,-338.461 103.393,-335.426 106.012,-332.41"/>
<polygon fill="black" stroke="black" points="108.808,-334.528 112.723,-324.683 103.523,-329.939 108.808,-334.528"/>
</g>
<!-- LM_URL2 -->
<g id="node2" class="node"><title>LM_URL2</title>
<polygon fill="#b0c4de" stroke="black" points="210,-324.5 150,-324.5 150,-303.5 210,-303.5 210,-324.5"/>
<text text-anchor="middle" x="180" y="-311.5" font-family="Helvetica,sans-Serif" font-size="10.00">LM_URL2</text>
</g>
<!-- merge2 -->
<g id="node4" class="node"><title>merge2</title>
<polygon fill="#d15fee" stroke="black" points="191,-286.5 143,-286.5 143,-265.5 191,-265.5 191,-286.5"/>
<text text-anchor="middle" x="167" y="-273.5" font-family="Helvetica,sans-Serif" font-size="10.00">merge2</text>
</g>
<!-- LM_URL2&#45;&gt;merge2 -->
<g id="edge8" class="edge"><title>LM_URL2&#45;&gt;merge2</title>
<path fill="none" stroke="black" d="M176.309,-303.212C175.562,-301.028 174.753,-298.664 173.935,-296.273"/>
<polygon fill="black" stroke="black" points="177.203,-295.012 170.655,-286.683 170.58,-297.278 177.203,-295.012"/>
</g>
<!-- merge1&#45;&gt;merge2 -->
<g id="edge10" class="edge"><title>merge1&#45;&gt;merge2</title>
<path fill="none" stroke="black" d="M134.775,-303.212C138.416,-300.138 142.478,-296.708 146.457,-293.347"/>
<polygon fill="black" stroke="black" points="148.967,-295.809 154.349,-286.683 144.451,-290.461 148.967,-295.809"/>
</g>
<!-- merge3 -->
<g id="node12" class="node"><title>merge3</title>
<polygon fill="#d15fee" stroke="black" points="242,-248.5 194,-248.5 194,-227.5 242,-227.5 242,-248.5"/>
<text text-anchor="middle" x="218" y="-235.5" font-family="Helvetica,sans-Serif" font-size="10.00">merge3</text>
</g>
<!-- merge2&#45;&gt;merge3 -->
<g id="edge28" class="edge"><title>merge2&#45;&gt;merge3</title>
<path fill="none" stroke="black" d="M181.206,-265.415C185.738,-262.038 190.866,-258.218 195.823,-254.524"/>
<polygon fill="black" stroke="black" points="197.942,-257.31 203.87,-248.528 193.76,-251.697 197.942,-257.31"/>
</g>
<!-- download_content -->
<g id="node5" class="node"><title>download_content</title>
<polygon fill="#d15fee" stroke="black" points="265,-210.5 171,-210.5 171,-189.5 265,-189.5 265,-210.5"/>
<text text-anchor="middle" x="218" y="-197.5" font-family="Helvetica,sans-Serif" font-size="10.00">download_content</text>
</g>
<!-- split_lines -->
<g id="node6" class="node"><title>split_lines</title>
<polygon fill="#d15fee" stroke="black" points="275,-172.5 215,-172.5 215,-151.5 275,-151.5 275,-172.5"/>
<text text-anchor="middle" x="245" y="-159.5" font-family="Helvetica,sans-Serif" font-size="10.00">split_lines</text>
</g>
<!-- download_content&#45;&gt;split_lines -->
<g id="edge14" class="edge"><title>download_content&#45;&gt;split_lines</title>
<path fill="none" stroke="black" d="M225.665,-189.212C227.505,-186.623 229.523,-183.782 231.541,-180.943"/>
<polygon fill="black" stroke="black" points="234.47,-182.862 237.409,-172.683 228.764,-178.808 234.47,-182.862"/>
</g>
<!-- split_whitespaces -->
<g id="node8" class="node"><title>split_whitespaces</title>
<polygon fill="#d15fee" stroke="black" points="317,-134.5 223,-134.5 223,-113.5 317,-113.5 317,-134.5"/>
<text text-anchor="middle" x="270" y="-121.5" font-family="Helvetica,sans-Serif" font-size="10.00">split_whitespaces</text>
</g>
<!-- split_lines&#45;&gt;split_whitespaces -->
<g id="edge18" class="edge"><title>split_lines&#45;&gt;split_whitespaces</title>
<path fill="none" stroke="black" d="M252.097,-151.212C253.747,-148.704 255.553,-145.959 257.363,-143.209"/>
<polygon fill="black" stroke="black" points="260.399,-144.961 262.972,-134.683 254.551,-141.114 260.399,-144.961"/>
</g>
<!-- Newline -->
<g id="node7" class="node"><title>Newline</title>
<polygon fill="#b0c4de" stroke="black" points="294,-324.5 242,-324.5 242,-303.5 294,-303.5 294,-324.5"/>
<text text-anchor="middle" x="268" y="-311.5" font-family="Helvetica,sans-Serif" font-size="10.00">Newline</text>
</g>
<!-- Newline&#45;&gt;split_lines -->
<g id="edge16" class="edge"><title>Newline&#45;&gt;split_lines</title>
<path fill="none" stroke="black" d="M269.86,-303.251C273.236,-281.135 278.818,-229.241 265,-189 264.041,-186.207 262.679,-183.463 261.111,-180.857"/>
<polygon fill="black" stroke="black" points="263.926,-178.777 255.273,-172.664 258.226,-182.839 263.926,-178.777"/>
</g>
<!-- reformat_list -->
<g id="node11" class="node"><title>reformat_list</title>
<polygon fill="#d15fee" stroke="black" points="265,-286.5 195,-286.5 195,-265.5 265,-265.5 265,-286.5"/>
<text text-anchor="middle" x="230" y="-273.5" font-family="Helvetica,sans-Serif" font-size="10.00">reformat_list</text>
</g>
<!-- Newline&#45;&gt;reformat_list -->
<g id="edge24" class="edge"><title>Newline&#45;&gt;reformat_list</title>
<path fill="none" stroke="black" d="M257.212,-303.212C254.3,-300.3 251.068,-297.068 247.878,-293.878"/>
<polygon fill="black" stroke="black" points="250.229,-291.279 240.683,-286.683 245.279,-296.229 250.229,-291.279"/>
</g>
<!-- split_entries -->
<g id="node10" class="node"><title>split_entries</title>
<polygon fill="#deb887" stroke="black" points="304,-96.5 236,-96.5 236,-75.5 304,-75.5 304,-96.5"/>
<text text-anchor="middle" x="270" y="-83.5" font-family="Helvetica,sans-Serif" font-size="10.00">split_entries</text>
</g>
<!-- split_whitespaces&#45;&gt;split_entries -->
<g id="edge22" class="edge"><title>split_whitespaces&#45;&gt;split_entries</title>
<path fill="none" stroke="black" d="M270,-113.212C270,-111.19 270,-109.013 270,-106.804"/>
<polygon fill="black" stroke="black" points="273.5,-106.683 270,-96.6831 266.5,-106.683 273.5,-106.683"/>
</g>
<!-- Tab -->
<g id="node9" class="node"><title>Tab</title>
<polygon fill="#b0c4de" stroke="black" points="311,-172.5 279,-172.5 279,-151.5 311,-151.5 311,-172.5"/>
<text text-anchor="middle" x="295" y="-159.5" font-family="Helvetica,sans-Serif" font-size="10.00">Tab</text>
</g>
<!-- Tab&#45;&gt;split_whitespaces -->
<g id="edge20" class="edge"><title>Tab&#45;&gt;split_whitespaces</title>
<path fill="none" stroke="black" d="M287.903,-151.212C286.253,-148.704 284.447,-145.959 282.637,-143.209"/>
<polygon fill="black" stroke="black" points="285.449,-141.114 277.028,-134.683 279.601,-144.961 285.449,-141.114"/>
</g>
<!-- WORKFLOWINTERNALSINK_01_IDs -->
<g id="node19" class="node"><title>WORKFLOWINTERNALSINK_01_IDs</title>
<polygon fill="#bcd2ee" stroke="black" points="500,-37.5 452,-37.5 452,-16.5 500,-16.5 500,-37.5"/>
<text text-anchor="middle" x="476" y="-24.5" font-family="Helvetica,sans-Serif" font-size="10.00">01_IDs</text>
</g>
<!-- split_entries&#45;&gt;WORKFLOWINTERNALSINK_01_IDs -->
<g id="edge32" class="edge"><title>split_entries&#45;&gt;WORKFLOWINTERNALSINK_01_IDs</title>
<path fill="none" stroke="black" d="M304.163,-83.877C352.386,-80.6502 435.923,-74.1284 448,-67 455.992,-62.2826 462.27,-54.2841 466.837,-46.6737"/>
<polygon fill="black" stroke="black" points="469.937,-48.2995 471.561,-37.8299 463.762,-45.0016 469.937,-48.2995"/>
</g>
<!-- WORKFLOWINTERNALSINK_02_CommonNames -->
<g id="node20" class="node"><title>WORKFLOWINTERNALSINK_02_CommonNames</title>
<polygon fill="#bcd2ee" stroke="black" points="448,-37.5 344,-37.5 344,-16.5 448,-16.5 448,-37.5"/>
<text text-anchor="middle" x="396" y="-24.5" font-family="Helvetica,sans-Serif" font-size="10.00">02_CommonNames</text>
</g>
<!-- split_entries&#45;&gt;WORKFLOWINTERNALSINK_02_CommonNames -->
<g id="edge34" class="edge"><title>split_entries&#45;&gt;WORKFLOWINTERNALSINK_02_CommonNames</title>
<path fill="none" stroke="black" d="M304.336,-79.2618C315.977,-76.3091 328.849,-72.2859 340,-67 352.82,-60.9229 365.797,-51.8768 376.025,-43.9238"/>
<polygon fill="black" stroke="black" points="378.305,-46.5819 383.908,-37.5895 373.92,-41.1254 378.305,-46.5819"/>
</g>
<!-- WORKFLOWINTERNALSINK_04_Formulae -->
<g id="node21" class="node"><title>WORKFLOWINTERNALSINK_04_Formulae</title>
<polygon fill="#bcd2ee" stroke="black" points="340,-37.5 268,-37.5 268,-16.5 340,-16.5 340,-37.5"/>
<text text-anchor="middle" x="304" y="-24.5" font-family="Helvetica,sans-Serif" font-size="10.00">04_Formulae</text>
</g>
<!-- split_entries&#45;&gt;WORKFLOWINTERNALSINK_04_Formulae -->
<g id="edge36" class="edge"><title>split_entries&#45;&gt;WORKFLOWINTERNALSINK_04_Formulae</title>
<path fill="none" stroke="black" d="M276.079,-75.452C280.663,-67.4971 287.084,-56.3537 292.613,-46.759"/>
<polygon fill="black" stroke="black" points="295.784,-48.2677 297.744,-37.8559 289.719,-44.7726 295.784,-48.2677"/>
</g>
<!-- WORKFLOWINTERNALSINK_05_Mass -->
<g id="node22" class="node"><title>WORKFLOWINTERNALSINK_05_Mass</title>
<polygon fill="#bcd2ee" stroke="black" points="264,-37.5 208,-37.5 208,-16.5 264,-16.5 264,-37.5"/>
<text text-anchor="middle" x="236" y="-24.5" font-family="Helvetica,sans-Serif" font-size="10.00">05_Mass</text>
</g>
<!-- split_entries&#45;&gt;WORKFLOWINTERNALSINK_05_Mass -->
<g id="edge38" class="edge"><title>split_entries&#45;&gt;WORKFLOWINTERNALSINK_05_Mass</title>
<path fill="none" stroke="black" d="M263.921,-75.452C259.337,-67.4971 252.916,-56.3537 247.387,-46.759"/>
<polygon fill="black" stroke="black" points="250.281,-44.7726 242.256,-37.8559 244.216,-48.2677 250.281,-44.7726"/>
</g>
<!-- WORKFLOWINTERNALSINK_06_Category -->
<g id="node23" class="node"><title>WORKFLOWINTERNALSINK_06_Category</title>
<polygon fill="#bcd2ee" stroke="black" points="204,-37.5 132,-37.5 132,-16.5 204,-16.5 204,-37.5"/>
<text text-anchor="middle" x="168" y="-24.5" font-family="Helvetica,sans-Serif" font-size="10.00">06_Category</text>
</g>
<!-- split_entries&#45;&gt;WORKFLOWINTERNALSINK_06_Category -->
<g id="edge40" class="edge"><title>split_entries&#45;&gt;WORKFLOWINTERNALSINK_06_Category</title>
<path fill="none" stroke="black" d="M235.911,-78.7878C226.47,-75.9458 216.49,-72.1053 208,-67 198.605,-61.3507 189.798,-53.023 182.853,-45.4266"/>
<polygon fill="black" stroke="black" points="185.297,-42.9032 176.107,-37.6322 180.004,-47.484 185.297,-42.9032"/>
</g>
<!-- WORKFLOWINTERNALSINK_03_Systematic_Name -->
<g id="node24" class="node"><title>WORKFLOWINTERNALSINK_03_Systematic_Name</title>
<polygon fill="#bcd2ee" stroke="black" points="128,-37.5 16,-37.5 16,-16.5 128,-16.5 128,-37.5"/>
<text text-anchor="middle" x="72" y="-24.5" font-family="Helvetica,sans-Serif" font-size="10.00">03_Systematic_Name</text>
</g>
<!-- split_entries&#45;&gt;WORKFLOWINTERNALSINK_03_Systematic_Name -->
<g id="edge42" class="edge"><title>split_entries&#45;&gt;WORKFLOWINTERNALSINK_03_Systematic_Name</title>
<path fill="none" stroke="black" d="M235.892,-83.066C201.337,-79.7799 150.43,-73.9879 132,-67 117.775,-61.6066 103.536,-52.3209 92.5009,-44.0532"/>
<polygon fill="black" stroke="black" points="94.4373,-41.1248 84.3994,-37.7347 90.1323,-46.6446 94.4373,-41.1248"/>
</g>
<!-- reformat_list&#45;&gt;merge3 -->
<g id="edge30" class="edge"><title>reformat_list&#45;&gt;merge3</title>
<path fill="none" stroke="black" d="M226.593,-265.212C225.903,-263.028 225.157,-260.664 224.402,-258.273"/>
<polygon fill="black" stroke="black" points="227.723,-257.165 221.374,-248.683 221.047,-259.273 227.723,-257.165"/>
</g>
<!-- merge3&#45;&gt;download_content -->
<g id="edge12" class="edge"><title>merge3&#45;&gt;download_content</title>
<path fill="none" stroke="black" d="M218,-227.212C218,-225.19 218,-223.013 218,-220.804"/>
<polygon fill="black" stroke="black" points="221.5,-220.683 218,-210.683 214.5,-220.683 221.5,-220.683"/>
</g>
<!-- WORKFLOWINTERNALSOURCECONTROL -->
<g id="node14" class="node"><title>WORKFLOWINTERNALSOURCECONTROL</title>
<polygon fill="#ff4040" stroke="black" points="274,-359 267,-348.5 281,-348.5 274,-359"/>
</g>
<!-- WORKFLOWINTERNALSOURCE_ExactMass -->
<g id="node15" class="node"><title>WORKFLOWINTERNALSOURCE_ExactMass</title>
<polygon fill="skyblue" stroke="black" points="263,-362.5 197,-362.5 197,-341.5 263,-341.5 263,-362.5"/>
<text text-anchor="middle" x="230" y="-349.5" font-family="Helvetica,sans-Serif" font-size="10.00">ExactMass</text>
</g>
<!-- WORKFLOWINTERNALSOURCE_ExactMass&#45;&gt;reformat_list -->
<g id="edge26" class="edge"><title>WORKFLOWINTERNALSOURCE_ExactMass&#45;&gt;reformat_list</title>
<path fill="none" stroke="black" d="M230,-341.433C230,-329.992 230,-311.448 230,-297.017"/>
<polygon fill="black" stroke="black" points="233.5,-296.97 230,-286.97 226.5,-296.97 233.5,-296.97"/>
</g>
<!-- WORKFLOWINTERNALSOURCE_Tolerance -->
<g id="node16" class="node"><title>WORKFLOWINTERNALSOURCE_Tolerance</title>
<polygon fill="skyblue" stroke="black" points="193,-362.5 135,-362.5 135,-341.5 193,-341.5 193,-362.5"/>
<text text-anchor="middle" x="164" y="-349.5" font-family="Helvetica,sans-Serif" font-size="10.00">Tolerance</text>
</g>
<!-- WORKFLOWINTERNALSOURCE_Tolerance&#45;&gt;merge1 -->
<g id="edge6" class="edge"><title>WORKFLOWINTERNALSOURCE_Tolerance&#45;&gt;merge1</title>
<path fill="none" stroke="black" d="M152.077,-341.212C148.768,-338.219 145.087,-334.888 141.467,-331.613"/>
<polygon fill="black" stroke="black" points="143.571,-328.797 133.808,-324.683 138.875,-333.988 143.571,-328.797"/>
</g>
<!-- WORKFLOWINTERNALSINKCONTROL -->
<g id="node18" class="node"><title>WORKFLOWINTERNALSINKCONTROL</title>
<polygon fill="#66cd00" stroke="black" points="511,-20 518,-30.5 504,-30.5 511,-20"/>
</g>
</g>
</svg>
