<?xml version="1.0" encoding="UTF-8" standalone="no"?>
<!DOCTYPE svg PUBLIC "-//W3C//DTD SVG 1.1//EN"
 "http://www.w3.org/Graphics/SVG/1.1/DTD/svg11.dtd">
<!-- Generated by graphviz version 2.26.0 (20091210.2329)
 -->
<!-- Title: t2flow_graph Pages: 1 -->
<svg width="226pt" height="180pt"
 viewBox="0.00 0.00 226.00 180.00" xmlns="http://www.w3.org/2000/svg" xmlns:xlink="http://www.w3.org/1999/xlink">
<g id="graph1" class="graph" transform="scale(1 1) rotate(0) translate(4 176)">
<title>t2flow_graph</title>
<polygon fill="white" stroke="white" points="-4,5 -4,-176 223,-176 223,5 -4,5"/>
<g id="graph2" class="cluster"><title>cluster_sources</title>
<polygon fill="none" stroke="black" stroke-dasharray="1,5" points="69,-105 69,-164 157,-164 157,-105 69,-105"/>
<text text-anchor="middle" x="113" y="-151" font-family="Helvetica,sans-Serif" font-size="10.00">Workflow Inputs</text>
</g>
<g id="graph3" class="cluster"><title>cluster_sinks</title>
<polygon fill="none" stroke="black" stroke-dasharray="1,5" points="8,-8 8,-67 210,-67 210,-8 8,-8"/>
<text text-anchor="middle" x="55.5" y="-54" font-family="Helvetica,sans-Serif" font-size="10.00">Workflow Outputs</text>
</g>
<!-- createLists -->
<g id="node1" class="node"><title>createLists</title>
<polygon fill="#deb887" stroke="black" points="136,-96.5 72,-96.5 72,-75.5 136,-75.5 136,-96.5"/>
<text text-anchor="middle" x="104" y="-83.5" font-family="Helvetica,sans-Serif" font-size="10.00">createLists</text>
</g>
<!-- WORKFLOWINTERNALSINK_name -->
<g id="node7" class="node"><title>WORKFLOWINTERNALSINK_name</title>
<polygon fill="#bcd2ee" stroke="black" points="184,-37.5 144,-37.5 144,-16.5 184,-16.5 184,-37.5"/>
<text text-anchor="middle" x="164" y="-24.5" font-family="Helvetica,sans-Serif" font-size="10.00">name</text>
</g>
<!-- createLists&#45;&gt;WORKFLOWINTERNALSINK_name -->
<g id="edge6" class="edge"><title>createLists&#45;&gt;WORKFLOWINTERNALSINK_name</title>
<path fill="none" stroke="black" d="M128.458,-75.4364C132.579,-73.0226 136.613,-70.2065 140,-67 146.065,-61.2585 151.138,-53.6518 155.035,-46.6143"/>
<polygon fill="black" stroke="black" points="158.205,-48.1016 159.601,-37.5991 151.96,-44.9386 158.205,-48.1016"/>
</g>
<!-- WORKFLOWINTERNALSINK_ucd -->
<g id="node8" class="node"><title>WORKFLOWINTERNALSINK_ucd</title>
<polygon fill="#bcd2ee" stroke="black" points="140,-37.5 108,-37.5 108,-16.5 140,-16.5 140,-37.5"/>
<text text-anchor="middle" x="124" y="-24.5" font-family="Helvetica,sans-Serif" font-size="10.00">ucd</text>
</g>
<!-- createLists&#45;&gt;WORKFLOWINTERNALSINK_ucd -->
<g id="edge8" class="edge"><title>createLists&#45;&gt;WORKFLOWINTERNALSINK_ucd</title>
<path fill="none" stroke="black" d="M107.576,-75.452C110.216,-67.6628 113.893,-56.8166 117.098,-47.3606"/>
<polygon fill="black" stroke="black" points="120.424,-48.4502 120.32,-37.8559 113.795,-46.2029 120.424,-48.4502"/>
</g>
<!-- WORKFLOWINTERNALSINK_utype -->
<g id="node9" class="node"><title>WORKFLOWINTERNALSINK_utype</title>
<polygon fill="#bcd2ee" stroke="black" points="104,-37.5 64,-37.5 64,-16.5 104,-16.5 104,-37.5"/>
<text text-anchor="middle" x="84" y="-24.5" font-family="Helvetica,sans-Serif" font-size="10.00">utype</text>
</g>
<!-- createLists&#45;&gt;WORKFLOWINTERNALSINK_utype -->
<g id="edge10" class="edge"><title>createLists&#45;&gt;WORKFLOWINTERNALSINK_utype</title>
<path fill="none" stroke="black" d="M100.424,-75.452C97.784,-67.6628 94.1073,-56.8166 90.9019,-47.3606"/>
<polygon fill="black" stroke="black" points="94.2051,-46.2029 87.68,-37.8559 87.5757,-48.4502 94.2051,-46.2029"/>
</g>
<!-- WORKFLOWINTERNALSINK_values -->
<g id="node10" class="node"><title>WORKFLOWINTERNALSINK_values</title>
<polygon fill="#bcd2ee" stroke="black" points="60,-37.5 16,-37.5 16,-16.5 60,-16.5 60,-37.5"/>
<text text-anchor="middle" x="38" y="-24.5" font-family="Helvetica,sans-Serif" font-size="10.00">values</text>
</g>
<!-- createLists&#45;&gt;WORKFLOWINTERNALSINK_values -->
<g id="edge12" class="edge"><title>createLists&#45;&gt;WORKFLOWINTERNALSINK_values</title>
<path fill="none" stroke="black" d="M76.4981,-75.437C72.0539,-73.0482 67.7026,-70.2405 64,-67 57.5726,-61.3748 52.1044,-53.7907 47.8656,-46.7387"/>
<polygon fill="black" stroke="black" points="50.7671,-44.7523 42.8728,-37.6861 44.6376,-48.133 50.7671,-44.7523"/>
</g>
<!-- WORKFLOWINTERNALSOURCECONTROL -->
<g id="node3" class="node"><title>WORKFLOWINTERNALSOURCECONTROL</title>
<polygon fill="#ff4040" stroke="black" points="140,-131 133,-120.5 147,-120.5 140,-131"/>
</g>
<!-- WORKFLOWINTERNALSOURCE_votable -->
<g id="node4" class="node"><title>WORKFLOWINTERNALSOURCE_votable</title>
<polygon fill="skyblue" stroke="black" points="128,-134.5 80,-134.5 80,-113.5 128,-113.5 128,-134.5"/>
<text text-anchor="middle" x="104" y="-121.5" font-family="Helvetica,sans-Serif" font-size="10.00">votable</text>
</g>
<!-- WORKFLOWINTERNALSOURCE_votable&#45;&gt;createLists -->
<g id="edge4" class="edge"><title>WORKFLOWINTERNALSOURCE_votable&#45;&gt;createLists</title>
<path fill="none" stroke="black" d="M104,-113.212C104,-111.19 104,-109.013 104,-106.804"/>
<polygon fill="black" stroke="black" points="107.5,-106.683 104,-96.6831 100.5,-106.683 107.5,-106.683"/>
</g>
<!-- WORKFLOWINTERNALSINKCONTROL -->
<g id="node6" class="node"><title>WORKFLOWINTERNALSINKCONTROL</title>
<polygon fill="#66cd00" stroke="black" points="195,-20 202,-30.5 188,-30.5 195,-20"/>
</g>
</g>
</svg>
