<?xml version="1.0" encoding="UTF-8" standalone="no"?>
<!DOCTYPE svg PUBLIC "-//W3C//DTD SVG 1.1//EN"
 "http://www.w3.org/Graphics/SVG/1.1/DTD/svg11.dtd">
<!-- Generated by graphviz version 2.26.0 (20091210.2329)
 -->
<!-- Title: t2flow_graph Pages: 1 -->
<svg width="464pt" height="180pt"
 viewBox="0.00 0.00 464.00 180.00" xmlns="http://www.w3.org/2000/svg" xmlns:xlink="http://www.w3.org/1999/xlink">
<g id="graph1" class="graph" transform="scale(1 1) rotate(0) translate(4 176)">
<title>t2flow_graph</title>
<polygon fill="white" stroke="white" points="-4,5 -4,-176 461,-176 461,5 -4,5"/>
<g id="graph2" class="cluster"><title>cluster_sources</title>
<polygon fill="none" stroke="black" stroke-dasharray="1,5" points="195,-105 195,-164 295,-164 295,-105 195,-105"/>
<text text-anchor="middle" x="239" y="-151" font-family="Helvetica,sans-Serif" font-size="10.00">Workflow Inputs</text>
</g>
<g id="graph3" class="cluster"><title>cluster_sinks</title>
<polygon fill="none" stroke="black" stroke-dasharray="1,5" points="8,-8 8,-67 448,-67 448,-8 8,-8"/>
<text text-anchor="middle" x="55.5" y="-54" font-family="Helvetica,sans-Serif" font-size="10.00">Workflow Outputs</text>
</g>
<!-- autostructure -->
<g id="node1" class="node"><title>autostructure</title>
<polygon fill="#fafad2" stroke="black" points="273,-96.5 199,-96.5 199,-75.5 273,-75.5 273,-96.5"/>
<text text-anchor="middle" x="236" y="-83.5" font-family="Helvetica,sans-Serif" font-size="10.00">autostructure</text>
</g>
<!-- WORKFLOWINTERNALSINK_std_errors -->
<g id="node7" class="node"><title>WORKFLOWINTERNALSINK_std_errors</title>
<polygon fill="#bcd2ee" stroke="black" points="422,-37.5 362,-37.5 362,-16.5 422,-16.5 422,-37.5"/>
<text text-anchor="middle" x="392" y="-24.5" font-family="Helvetica,sans-Serif" font-size="10.00">std_errors</text>
</g>
<!-- autostructure&#45;&gt;WORKFLOWINTERNALSINK_std_errors -->
<g id="edge6" class="edge"><title>autostructure&#45;&gt;WORKFLOWINTERNALSINK_std_errors</title>
<path fill="none" stroke="black" d="M273.007,-83.0811C303.441,-80.1647 343.785,-74.9587 358,-67 366.802,-62.0716 374.349,-53.9272 380.081,-46.2691"/>
<polygon fill="black" stroke="black" points="383.171,-47.9508 385.941,-37.7244 377.399,-43.9914 383.171,-47.9508"/>
</g>
<!-- WORKFLOWINTERNALSINK_report -->
<g id="node8" class="node"><title>WORKFLOWINTERNALSINK_report</title>
<polygon fill="#bcd2ee" stroke="black" points="358,-37.5 318,-37.5 318,-16.5 358,-16.5 358,-37.5"/>
<text text-anchor="middle" x="338" y="-24.5" font-family="Helvetica,sans-Serif" font-size="10.00">report</text>
</g>
<!-- autostructure&#45;&gt;WORKFLOWINTERNALSINK_report -->
<g id="edge8" class="edge"><title>autostructure&#45;&gt;WORKFLOWINTERNALSINK_report</title>
<path fill="none" stroke="black" d="M273.369,-79.7242C289.998,-76.3681 307.322,-71.9169 314,-67 320.815,-61.9823 326.065,-54.3959 329.893,-47.174"/>
<polygon fill="black" stroke="black" points="333.196,-48.3703 334.243,-37.8273 326.85,-45.4163 333.196,-48.3703"/>
</g>
<!-- WORKFLOWINTERNALSINK_olg -->
<g id="node9" class="node"><title>WORKFLOWINTERNALSINK_olg</title>
<polygon fill="#bcd2ee" stroke="black" points="314,-37.5 286,-37.5 286,-16.5 314,-16.5 314,-37.5"/>
<text text-anchor="middle" x="300" y="-24.5" font-family="Helvetica,sans-Serif" font-size="10.00">olg</text>
</g>
<!-- autostructure&#45;&gt;WORKFLOWINTERNALSINK_olg -->
<g id="edge10" class="edge"><title>autostructure&#45;&gt;WORKFLOWINTERNALSINK_olg</title>
<path fill="none" stroke="black" d="M269.998,-75.4963C274.37,-73.1713 278.526,-70.3678 282,-67 287.511,-61.6584 291.472,-54.3232 294.25,-47.392"/>
<polygon fill="black" stroke="black" points="297.604,-48.3998 297.516,-37.8053 290.978,-46.1425 297.604,-48.3998"/>
</g>
<!-- WORKFLOWINTERNALSINK_oic -->
<g id="node10" class="node"><title>WORKFLOWINTERNALSINK_oic</title>
<polygon fill="#bcd2ee" stroke="black" points="282,-37.5 254,-37.5 254,-16.5 282,-16.5 282,-37.5"/>
<text text-anchor="middle" x="268" y="-24.5" font-family="Helvetica,sans-Serif" font-size="10.00">oic</text>
</g>
<!-- autostructure&#45;&gt;WORKFLOWINTERNALSINK_oic -->
<g id="edge12" class="edge"><title>autostructure&#45;&gt;WORKFLOWINTERNALSINK_oic</title>
<path fill="none" stroke="black" d="M244.407,-75.4195C246.358,-72.7466 248.346,-69.8299 250,-67 253.631,-60.7871 257.035,-53.7105 259.883,-47.2544"/>
<polygon fill="black" stroke="black" points="263.195,-48.4075 263.856,-37.8332 256.745,-45.6874 263.195,-48.4075"/>
</g>
<!-- WORKFLOWINTERNALSINK_ols -->
<g id="node11" class="node"><title>WORKFLOWINTERNALSINK_ols</title>
<polygon fill="#bcd2ee" stroke="black" points="250,-37.5 222,-37.5 222,-16.5 250,-16.5 250,-37.5"/>
<text text-anchor="middle" x="236" y="-24.5" font-family="Helvetica,sans-Serif" font-size="10.00">ols</text>
</g>
<!-- autostructure&#45;&gt;WORKFLOWINTERNALSINK_ols -->
<g id="edge14" class="edge"><title>autostructure&#45;&gt;WORKFLOWINTERNALSINK_ols</title>
<path fill="none" stroke="black" d="M236,-75.452C236,-67.8285 236,-57.2768 236,-47.966"/>
<polygon fill="black" stroke="black" points="239.5,-47.8558 236,-37.8559 232.5,-47.8559 239.5,-47.8558"/>
</g>
<!-- WORKFLOWINTERNALSINK_radout -->
<g id="node12" class="node"><title>WORKFLOWINTERNALSINK_radout</title>
<polygon fill="#bcd2ee" stroke="black" points="218,-37.5 174,-37.5 174,-16.5 218,-16.5 218,-37.5"/>
<text text-anchor="middle" x="196" y="-24.5" font-family="Helvetica,sans-Serif" font-size="10.00">radout</text>
</g>
<!-- autostructure&#45;&gt;WORKFLOWINTERNALSINK_radout -->
<g id="edge16" class="edge"><title>autostructure&#45;&gt;WORKFLOWINTERNALSINK_radout</title>
<path fill="none" stroke="black" d="M227.893,-75.2278C225.933,-72.5608 223.866,-69.6948 222,-67 217.332,-60.259 212.386,-52.7497 208.075,-46.0744"/>
<polygon fill="black" stroke="black" points="211.015,-44.1751 202.676,-37.6393 205.119,-47.9486 211.015,-44.1751"/>
</g>
<!-- WORKFLOWINTERNALSINK_tccdw -->
<g id="node13" class="node"><title>WORKFLOWINTERNALSINK_tccdw</title>
<polygon fill="#bcd2ee" stroke="black" points="170,-37.5 128,-37.5 128,-16.5 170,-16.5 170,-37.5"/>
<text text-anchor="middle" x="149" y="-24.5" font-family="Helvetica,sans-Serif" font-size="10.00">tccdw</text>
</g>
<!-- autostructure&#45;&gt;WORKFLOWINTERNALSINK_tccdw -->
<g id="edge18" class="edge"><title>autostructure&#45;&gt;WORKFLOWINTERNALSINK_tccdw</title>
<path fill="none" stroke="black" d="M198.833,-79.2879C190.096,-76.4946 181.233,-72.5533 174,-67 167.212,-61.7885 161.8,-54.1665 157.772,-46.9703"/>
<polygon fill="black" stroke="black" points="160.736,-45.071 153.137,-37.6877 154.473,-48.198 160.736,-45.071"/>
</g>
<!-- WORKFLOWINTERNALSINK_omginfic -->
<g id="node14" class="node"><title>WORKFLOWINTERNALSINK_omginfic</title>
<polygon fill="#bcd2ee" stroke="black" points="124,-37.5 72,-37.5 72,-16.5 124,-16.5 124,-37.5"/>
<text text-anchor="middle" x="98" y="-24.5" font-family="Helvetica,sans-Serif" font-size="10.00">omginfic</text>
</g>
<!-- autostructure&#45;&gt;WORKFLOWINTERNALSINK_omginfic -->
<g id="edge20" class="edge"><title>autostructure&#45;&gt;WORKFLOWINTERNALSINK_omginfic</title>
<path fill="none" stroke="black" d="M198.78,-82.3909C172.392,-79.2881 139.681,-74.173 128,-67 119.99,-62.0813 113.389,-54.1673 108.438,-46.6718"/>
<polygon fill="black" stroke="black" points="111.193,-44.4573 103.067,-37.6584 105.179,-48.0406 111.193,-44.4573"/>
</g>
<!-- WORKFLOWINTERNALSINK_omginfls -->
<g id="node15" class="node"><title>WORKFLOWINTERNALSINK_omginfls</title>
<polygon fill="#bcd2ee" stroke="black" points="68,-37.5 16,-37.5 16,-16.5 68,-16.5 68,-37.5"/>
<text text-anchor="middle" x="42" y="-24.5" font-family="Helvetica,sans-Serif" font-size="10.00">omginfls</text>
</g>
<!-- autostructure&#45;&gt;WORKFLOWINTERNALSINK_omginfls -->
<g id="edge22" class="edge"><title>autostructure&#45;&gt;WORKFLOWINTERNALSINK_omginfls</title>
<path fill="none" stroke="black" d="M198.958,-85.0733C157.365,-83.4526 92.9405,-79.0264 72,-67 63.7586,-62.2669 57.0793,-54.266 52.1334,-46.6582"/>
<polygon fill="black" stroke="black" points="55.037,-44.6896 46.9716,-37.8193 48.9922,-48.2197 55.037,-44.6896"/>
</g>
<!-- WORKFLOWINTERNALSOURCECONTROL -->
<g id="node3" class="node"><title>WORKFLOWINTERNALSOURCECONTROL</title>
<polygon fill="#ff4040" stroke="black" points="280,-131 273,-120.5 287,-120.5 280,-131"/>
</g>
<!-- WORKFLOWINTERNALSOURCE_autos_input -->
<g id="node4" class="node"><title>WORKFLOWINTERNALSOURCE_autos_input</title>
<polygon fill="skyblue" stroke="black" points="269,-134.5 203,-134.5 203,-113.5 269,-113.5 269,-134.5"/>
<text text-anchor="middle" x="236" y="-121.5" font-family="Helvetica,sans-Serif" font-size="10.00">autos_input</text>
</g>
<!-- WORKFLOWINTERNALSOURCE_autos_input&#45;&gt;autostructure -->
<g id="edge4" class="edge"><title>WORKFLOWINTERNALSOURCE_autos_input&#45;&gt;autostructure</title>
<path fill="none" stroke="black" d="M236,-113.212C236,-111.19 236,-109.013 236,-106.804"/>
<polygon fill="black" stroke="black" points="239.5,-106.683 236,-96.6831 232.5,-106.683 239.5,-106.683"/>
</g>
<!-- WORKFLOWINTERNALSINKCONTROL -->
<g id="node6" class="node"><title>WORKFLOWINTERNALSINKCONTROL</title>
<polygon fill="#66cd00" stroke="black" points="433,-20 440,-30.5 426,-30.5 433,-20"/>
</g>
</g>
</svg>
