<?xml version="1.0" encoding="UTF-8" standalone="no"?>
<!DOCTYPE svg PUBLIC "-//W3C//DTD SVG 1.1//EN"
 "http://www.w3.org/Graphics/SVG/1.1/DTD/svg11.dtd">
<!-- Generated by graphviz version 2.26.0 (20091210.2329)
 -->
<!-- Title: t2flow_graph Pages: 1 -->
<svg width="382pt" height="585pt"
 viewBox="0.00 0.00 382.00 585.00" xmlns="http://www.w3.org/2000/svg" xmlns:xlink="http://www.w3.org/1999/xlink">
<g id="graph1" class="graph" transform="scale(1 1) rotate(0) translate(4 581)">
<title>t2flow_graph</title>
<polygon fill="white" stroke="white" points="-4,5 -4,-581 379,-581 379,5 -4,5"/>
<g id="graph2" class="cluster"><title>cluster_readLinesFilereadLinesFile</title>
<polygon fill="aliceblue" stroke="black" points="8,-278 8,-547 260,-547 260,-278 8,-278"/>
<text text-anchor="middle" x="45" y="-534" font-family="Helvetica,sans-Serif" font-size="10.00">readLinesFile</text>
</g>
<g id="graph3" class="cluster"><title>cluster_readLinesFilesources</title>
<polygon fill="none" stroke="black" stroke-dasharray="1,5" points="164,-459 164,-518 252,-518 252,-459 164,-459"/>
<text text-anchor="middle" x="208" y="-505" font-family="Helvetica,sans-Serif" font-size="10.00">Workflow Inputs</text>
</g>
<g id="graph4" class="cluster"><title>cluster_readLinesFilesinks</title>
<polygon fill="none" stroke="black" stroke-dasharray="1,5" points="96,-286 96,-345 191,-345 191,-286 96,-286"/>
<text text-anchor="middle" x="143.5" y="-332" font-family="Helvetica,sans-Serif" font-size="10.00">Workflow Outputs</text>
</g>
<g id="graph5" class="cluster"><title>cluster_sources</title>
<polygon fill="none" stroke="black" stroke-dasharray="1,5" points="170,-181 170,-240 258,-240 258,-181 170,-181"/>
<text text-anchor="middle" x="214" y="-227" font-family="Helvetica,sans-Serif" font-size="10.00">Workflow Inputs</text>
</g>
<g id="graph6" class="cluster"><title>cluster_sinks</title>
<polygon fill="none" stroke="black" stroke-dasharray="1,5" points="223,-8 223,-67 333,-67 333,-8 223,-8"/>
<text text-anchor="middle" x="270.5" y="-54" font-family="Helvetica,sans-Serif" font-size="10.00">Workflow Outputs</text>
</g>
<!-- REST_Service -->
<g id="node1" class="node"><title>REST_Service</title>
<polygon fill="#7aafff" stroke="black" points="175,-269.5 93,-269.5 93,-248.5 175,-248.5 175,-269.5"/>
<text text-anchor="middle" x="134" y="-256.5" font-family="Helvetica,sans-Serif" font-size="10.00">REST_Service</text>
</g>
<!-- Write_Text_File -->
<g id="node3" class="node"><title>Write_Text_File</title>
<polygon fill="#d15fee" stroke="black" points="162,-210.5 76,-210.5 76,-189.5 162,-189.5 162,-210.5"/>
<text text-anchor="middle" x="119" y="-197.5" font-family="Helvetica,sans-Serif" font-size="10.00">Write_Text_File</text>
</g>
<!-- REST_Service&#45;&gt;Write_Text_File -->
<g id="edge31" class="edge"><title>REST_Service&#45;&gt;Write_Text_File</title>
<path fill="none" stroke="black" d="M131.318,-248.452C129.359,-240.746 126.639,-230.047 124.253,-220.663"/>
<polygon fill="black" stroke="black" points="127.616,-219.685 121.76,-210.856 120.832,-221.41 127.616,-219.685"/>
</g>
<!-- extractPropertyValue -->
<g id="node2" class="node"><title>extractPropertyValue</title>
<polygon fill="#f28c55" stroke="black" points="241,-172.5 133,-172.5 133,-151.5 241,-151.5 241,-172.5"/>
<text text-anchor="middle" x="187" y="-159.5" font-family="Helvetica,sans-Serif" font-size="10.00">extractPropertyValue</text>
</g>
<!-- Merge_String_List_to_a_String -->
<g id="node28" class="node"><title>Merge_String_List_to_a_String</title>
<polygon fill="#d15fee" stroke="black" points="262,-134.5 112,-134.5 112,-113.5 262,-113.5 262,-134.5"/>
<text text-anchor="middle" x="187" y="-121.5" font-family="Helvetica,sans-Serif" font-size="10.00">Merge_String_List_to_a_String</text>
</g>
<!-- extractPropertyValue&#45;&gt;Merge_String_List_to_a_String -->
<g id="edge37" class="edge"><title>extractPropertyValue&#45;&gt;Merge_String_List_to_a_String</title>
<path fill="none" stroke="black" d="M187,-151.212C187,-149.19 187,-147.013 187,-144.804"/>
<polygon fill="black" stroke="black" points="190.5,-144.683 187,-134.683 183.5,-144.683 190.5,-144.683"/>
</g>
<!-- Write_Text_File&#45;&gt;extractPropertyValue -->
<g id="edge25" class="edge"><title>Write_Text_File&#45;&gt;extractPropertyValue</title>
<path fill="none" stroke="black" d="M137.942,-189.415C144.573,-185.709 152.163,-181.468 159.358,-177.447"/>
<polygon fill="black" stroke="black" points="161.138,-180.462 168.16,-172.528 157.723,-174.351 161.138,-180.462"/>
</g>
<!-- encoding_value_1 -->
<g id="node4" class="node"><title>encoding_value_1</title>
<polygon fill="#b0c4de" stroke="black" points="287,-269.5 193,-269.5 193,-248.5 287,-248.5 287,-269.5"/>
<text text-anchor="middle" x="240" y="-256.5" font-family="Helvetica,sans-Serif" font-size="10.00">encoding_value_1</text>
</g>
<!-- encoding_value_1&#45;&gt;Write_Text_File -->
<g id="edge29" class="edge"><title>encoding_value_1&#45;&gt;Write_Text_File</title>
<path fill="none" stroke="black" d="M192.768,-249.302C184.622,-246.809 176.402,-243.742 169,-240 157.455,-234.163 146.074,-225.367 137.093,-217.508"/>
<polygon fill="black" stroke="black" points="139.334,-214.815 129.585,-210.666 134.619,-219.989 139.334,-214.815"/>
</g>
<!-- Write_Text_File_3 -->
<g id="node29" class="node"><title>Write_Text_File_3</title>
<polygon fill="#d15fee" stroke="black" points="317,-96.5 221,-96.5 221,-75.5 317,-75.5 317,-96.5"/>
<text text-anchor="middle" x="269" y="-83.5" font-family="Helvetica,sans-Serif" font-size="10.00">Write_Text_File_3</text>
</g>
<!-- encoding_value_1&#45;&gt;Write_Text_File_3 -->
<g id="edge39" class="edge"><title>encoding_value_1&#45;&gt;Write_Text_File_3</title>
<path fill="none" stroke="black" d="M253.19,-248.405C255.506,-245.901 257.615,-243.06 259,-240 278.978,-195.872 275.725,-137.263 272.09,-106.637"/>
<polygon fill="black" stroke="black" points="275.557,-106.153 270.776,-96.698 268.617,-107.071 275.557,-106.153"/>
</g>
<!-- outputFile_value -->
<g id="node5" class="node"><title>outputFile_value</title>
<polygon fill="#b0c4de" stroke="black" points="89,-269.5 1,-269.5 1,-248.5 89,-248.5 89,-269.5"/>
<text text-anchor="middle" x="45" y="-256.5" font-family="Helvetica,sans-Serif" font-size="10.00">outputFile_value</text>
</g>
<!-- outputFile_value&#45;&gt;Write_Text_File -->
<g id="edge33" class="edge"><title>outputFile_value&#45;&gt;Write_Text_File</title>
<path fill="none" stroke="black" d="M58.2297,-248.452C69.1424,-239.751 84.8392,-227.236 97.5461,-217.105"/>
<polygon fill="black" stroke="black" points="99.7471,-219.827 105.384,-210.856 95.3832,-214.353 99.7471,-219.827"/>
</g>
<!-- readLinesFileSelect_File -->
<g id="node7" class="node"><title>readLinesFileSelect_File</title>
<polygon fill="#d15fee" stroke="black" points="168,-450.5 104,-450.5 104,-429.5 168,-429.5 168,-450.5"/>
<text text-anchor="middle" x="136" y="-437.5" font-family="Helvetica,sans-Serif" font-size="10.00">Select_File</text>
</g>
<!-- readLinesFileRead_Text_File -->
<g id="node9" class="node"><title>readLinesFileRead_Text_File</title>
<polygon fill="#d15fee" stroke="black" points="178,-412.5 92,-412.5 92,-391.5 178,-391.5 178,-412.5"/>
<text text-anchor="middle" x="135" y="-399.5" font-family="Helvetica,sans-Serif" font-size="10.00">Read_Text_File</text>
</g>
<!-- readLinesFileSelect_File&#45;&gt;readLinesFileRead_Text_File -->
<g id="edge13" class="edge"><title>readLinesFileSelect_File&#45;&gt;readLinesFileRead_Text_File</title>
<path fill="none" stroke="black" d="M135.716,-429.212C135.663,-427.19 135.606,-425.013 135.547,-422.804"/>
<polygon fill="black" stroke="black" points="139.043,-422.588 135.281,-412.683 132.046,-422.772 139.043,-422.588"/>
</g>
<!-- readLinesFilefileExtensions_value -->
<g id="node8" class="node"><title>readLinesFilefileExtensions_value</title>
<polygon fill="#b0c4de" stroke="black" points="156,-488.5 50,-488.5 50,-467.5 156,-467.5 156,-488.5"/>
<text text-anchor="middle" x="103" y="-475.5" font-family="Helvetica,sans-Serif" font-size="10.00">fileExtensions_value</text>
</g>
<!-- readLinesFilefileExtensions_value&#45;&gt;readLinesFileSelect_File -->
<g id="edge5" class="edge"><title>readLinesFilefileExtensions_value&#45;&gt;readLinesFileSelect_File</title>
<path fill="none" stroke="black" d="M111,-467.212C113.295,-464.461 115.887,-461.426 118.513,-458.41"/>
<polygon fill="black" stroke="black" points="121.347,-460.489 125.358,-450.683 116.107,-455.847 121.347,-460.489"/>
</g>
<!-- readLinesFilefileExtensions_value&#45;&gt;readLinesFileSelect_File -->
<g id="edge7" class="edge"><title>readLinesFilefileExtensions_value&#45;&gt;readLinesFileSelect_File</title>
<path fill="none" stroke="black" d="M113.736,-467.212C116.219,-464.461 118.899,-461.426 121.511,-458.41"/>
<polygon fill="black" stroke="black" points="124.272,-460.567 128.087,-450.683 118.941,-456.031 124.272,-460.567"/>
</g>
<!-- readLinesFileSplit_string_into_string_list_by_regular_expression -->
<g id="node11" class="node"><title>readLinesFileSplit_string_into_string_list_by_regular_expression</title>
<polygon fill="#d15fee" stroke="black" points="252,-374.5 16,-374.5 16,-353.5 252,-353.5 252,-374.5"/>
<text text-anchor="middle" x="134" y="-361.5" font-family="Helvetica,sans-Serif" font-size="10.00">Split_string_into_string_list_by_regular_expression</text>
</g>
<!-- readLinesFileRead_Text_File&#45;&gt;readLinesFileSplit_string_into_string_list_by_regular_expression -->
<g id="edge15" class="edge"><title>readLinesFileRead_Text_File&#45;&gt;readLinesFileSplit_string_into_string_list_by_regular_expression</title>
<path fill="none" stroke="black" d="M134.716,-391.212C134.663,-389.19 134.606,-387.013 134.547,-384.804"/>
<polygon fill="black" stroke="black" points="138.043,-384.588 134.281,-374.683 131.046,-384.772 138.043,-384.588"/>
</g>
<!-- readLinesFileencoding_value -->
<g id="node10" class="node"><title>readLinesFileencoding_value</title>
<polygon fill="#b0c4de" stroke="black" points="100,-450.5 16,-450.5 16,-429.5 100,-429.5 100,-450.5"/>
<text text-anchor="middle" x="58" y="-437.5" font-family="Helvetica,sans-Serif" font-size="10.00">encoding_value</text>
</g>
<!-- readLinesFileencoding_value&#45;&gt;readLinesFileRead_Text_File -->
<g id="edge11" class="edge"><title>readLinesFileencoding_value&#45;&gt;readLinesFileRead_Text_File</title>
<path fill="none" stroke="black" d="M79.4488,-429.415C87.2084,-425.585 96.126,-421.185 104.513,-417.046"/>
<polygon fill="black" stroke="black" points="106.248,-420.093 113.666,-412.528 103.15,-413.815 106.248,-420.093"/>
</g>
<!-- readLinesFileWORKFLOWINTERNALSINK_lines -->
<g id="node18" class="node"><title>readLinesFileWORKFLOWINTERNALSINK_lines</title>
<polygon fill="#bcd2ee" stroke="black" points="152,-315.5 116,-315.5 116,-294.5 152,-294.5 152,-315.5"/>
<text text-anchor="middle" x="134" y="-302.5" font-family="Helvetica,sans-Serif" font-size="10.00">lines</text>
</g>
<!-- readLinesFileSplit_string_into_string_list_by_regular_expression&#45;&gt;readLinesFileWORKFLOWINTERNALSINK_lines -->
<g id="edge19" class="edge"><title>readLinesFileSplit_string_into_string_list_by_regular_expression&#45;&gt;readLinesFileWORKFLOWINTERNALSINK_lines</title>
<path fill="none" stroke="black" d="M134,-353.452C134,-345.829 134,-335.277 134,-325.966"/>
<polygon fill="black" stroke="black" points="137.5,-325.856 134,-315.856 130.5,-325.856 137.5,-325.856"/>
</g>
<!-- readLinesFileregex_value -->
<g id="node12" class="node"><title>readLinesFileregex_value</title>
<polygon fill="#b0c4de" stroke="black" points="88,-412.5 20,-412.5 20,-391.5 88,-391.5 88,-412.5"/>
<text text-anchor="middle" x="54" y="-399.5" font-family="Helvetica,sans-Serif" font-size="10.00">regex_value</text>
</g>
<!-- readLinesFileregex_value&#45;&gt;readLinesFileSplit_string_into_string_list_by_regular_expression -->
<g id="edge17" class="edge"><title>readLinesFileregex_value&#45;&gt;readLinesFileSplit_string_into_string_list_by_regular_expression</title>
<path fill="none" stroke="black" d="M76.2845,-391.415C84.433,-387.544 93.8108,-383.09 102.606,-378.912"/>
<polygon fill="black" stroke="black" points="104.304,-381.98 111.835,-374.528 101.301,-375.658 104.304,-381.98"/>
</g>
<!-- readLinesFileWORKFLOWINTERNALSOURCECONTROL -->
<g id="node14" class="node"><title>readLinesFileWORKFLOWINTERNALSOURCECONTROL</title>
<polygon fill="#ff4040" stroke="black" points="226,-485 219,-474.5 233,-474.5 226,-485"/>
</g>
<!-- readLinesFileWORKFLOWINTERNALSOURCE_title -->
<g id="node15" class="node"><title>readLinesFileWORKFLOWINTERNALSOURCE_title</title>
<polygon fill="skyblue" stroke="black" points="204,-488.5 172,-488.5 172,-467.5 204,-467.5 204,-488.5"/>
<text text-anchor="middle" x="188" y="-475.5" font-family="Helvetica,sans-Serif" font-size="10.00">title</text>
</g>
<!-- readLinesFileWORKFLOWINTERNALSOURCE_title&#45;&gt;readLinesFileSelect_File -->
<g id="edge9" class="edge"><title>readLinesFileWORKFLOWINTERNALSOURCE_title&#45;&gt;readLinesFileSelect_File</title>
<path fill="none" stroke="black" d="M177.807,-467.478C174.774,-464.583 171.361,-461.543 168,-459 166.776,-458.074 165.504,-457.156 164.203,-456.253"/>
<polygon fill="black" stroke="black" points="165.706,-453.058 155.406,-450.576 161.91,-458.939 165.706,-453.058"/>
</g>
<!-- readLinesFileWORKFLOWINTERNALSINKCONTROL -->
<g id="node17" class="node"><title>readLinesFileWORKFLOWINTERNALSINKCONTROL</title>
<polygon fill="#66cd00" stroke="black" points="169,-298 176,-308.5 162,-308.5 169,-298"/>
</g>
<!-- readLinesFileWORKFLOWINTERNALSINK_lines&#45;&gt;REST_Service -->
<g id="edge23" class="edge"><title>readLinesFileWORKFLOWINTERNALSINK_lines&#45;&gt;REST_Service</title>
<path fill="none" stroke="black" d="M134,-294.331C134,-290.035 134,-284.923 134,-279.942"/>
<polygon fill="black" stroke="black" points="137.5,-279.611 134,-269.611 130.5,-279.611 137.5,-279.611"/>
</g>
<!-- Names_galaxies -->
<g id="node27" class="node"><title>Names_galaxies</title>
<polygon fill="#b0c4de" stroke="black" points="232,-576.5 144,-576.5 144,-555.5 232,-555.5 232,-576.5"/>
<text text-anchor="middle" x="188" y="-563.5" font-family="Helvetica,sans-Serif" font-size="10.00">Names_galaxies</text>
</g>
<!-- Names_galaxies&#45;&gt;readLinesFileWORKFLOWINTERNALSOURCE_title -->
<g id="edge35" class="edge"><title>Names_galaxies&#45;&gt;readLinesFileWORKFLOWINTERNALSOURCE_title</title>
<path fill="none" stroke="black" d="M188,-555.209C188,-541.213 188,-516.498 188,-498.799"/>
<polygon fill="black" stroke="black" points="191.5,-498.604 188,-488.604 184.5,-498.604 191.5,-498.604"/>
</g>
<!-- Merge_String_List_to_a_String&#45;&gt;Write_Text_File_3 -->
<g id="edge41" class="edge"><title>Merge_String_List_to_a_String&#45;&gt;Write_Text_File_3</title>
<path fill="none" stroke="black" d="M209.842,-113.415C218.283,-109.503 228.011,-104.995 237.109,-100.779"/>
<polygon fill="black" stroke="black" points="238.679,-103.909 246.281,-96.5284 235.736,-97.5574 238.679,-103.909"/>
</g>
<!-- WORKFLOWINTERNALSINK_remoteValues -->
<g id="node36" class="node"><title>WORKFLOWINTERNALSINK_remoteValues</title>
<polygon fill="#bcd2ee" stroke="black" points="307,-37.5 231,-37.5 231,-16.5 307,-16.5 307,-37.5"/>
<text text-anchor="middle" x="269" y="-24.5" font-family="Helvetica,sans-Serif" font-size="10.00">remoteValues</text>
</g>
<!-- Write_Text_File_3&#45;&gt;WORKFLOWINTERNALSINK_remoteValues -->
<g id="edge45" class="edge"><title>Write_Text_File_3&#45;&gt;WORKFLOWINTERNALSINK_remoteValues</title>
<path fill="none" stroke="black" d="M269,-75.452C269,-67.8285 269,-57.2768 269,-47.966"/>
<polygon fill="black" stroke="black" points="272.5,-47.8558 269,-37.8559 265.5,-47.8559 272.5,-47.8558"/>
</g>
<!-- outputFile_value_2 -->
<g id="node30" class="node"><title>outputFile_value_2</title>
<polygon fill="#b0c4de" stroke="black" points="374,-134.5 276,-134.5 276,-113.5 374,-113.5 374,-134.5"/>
<text text-anchor="middle" x="325" y="-121.5" font-family="Helvetica,sans-Serif" font-size="10.00">outputFile_value_2</text>
</g>
<!-- outputFile_value_2&#45;&gt;Write_Text_File_3 -->
<g id="edge43" class="edge"><title>outputFile_value_2&#45;&gt;Write_Text_File_3</title>
<path fill="none" stroke="black" d="M309.401,-113.415C304.304,-109.956 298.519,-106.031 292.953,-102.254"/>
<polygon fill="black" stroke="black" points="294.756,-99.2472 284.515,-96.5284 290.825,-105.04 294.756,-99.2472"/>
</g>
<!-- WORKFLOWINTERNALSOURCECONTROL -->
<g id="node32" class="node"><title>WORKFLOWINTERNALSOURCECONTROL</title>
<polygon fill="#ff4040" stroke="black" points="242,-207 235,-196.5 249,-196.5 242,-207"/>
</g>
<!-- WORKFLOWINTERNALSOURCE_property -->
<g id="node33" class="node"><title>WORKFLOWINTERNALSOURCE_property</title>
<polygon fill="skyblue" stroke="black" points="230,-210.5 178,-210.5 178,-189.5 230,-189.5 230,-210.5"/>
<text text-anchor="middle" x="204" y="-197.5" font-family="Helvetica,sans-Serif" font-size="10.00">property</text>
</g>
<!-- WORKFLOWINTERNALSOURCE_property&#45;&gt;extractPropertyValue -->
<g id="edge27" class="edge"><title>WORKFLOWINTERNALSOURCE_property&#45;&gt;extractPropertyValue</title>
<path fill="none" stroke="black" d="M199.174,-189.212C198.16,-186.947 197.061,-184.488 195.95,-182.007"/>
<polygon fill="black" stroke="black" points="199.058,-180.382 191.779,-172.683 192.668,-183.241 199.058,-180.382"/>
</g>
<!-- WORKFLOWINTERNALSINKCONTROL -->
<g id="node35" class="node"><title>WORKFLOWINTERNALSINKCONTROL</title>
<polygon fill="#66cd00" stroke="black" points="318,-20 325,-30.5 311,-30.5 318,-20"/>
</g>
</g>
</svg>
