<?xml version="1.0" encoding="UTF-8" standalone="no"?>
<!DOCTYPE svg PUBLIC "-//W3C//DTD SVG 1.1//EN"
 "http://www.w3.org/Graphics/SVG/1.1/DTD/svg11.dtd">
<!-- Generated by graphviz version 2.26.0 (20091210.2329)
 -->
<!-- Title: t2flow_graph Pages: 1 -->
<svg width="672pt" height="176pt"
 viewBox="0.00 0.00 672.00 176.00" xmlns="http://www.w3.org/2000/svg" xmlns:xlink="http://www.w3.org/1999/xlink">
<g id="graph1" class="graph" transform="scale(1 1) rotate(0) translate(4 172)">
<title>t2flow_graph</title>
<polygon fill="white" stroke="white" points="-4,5 -4,-172 669,-172 669,5 -4,5"/>
<g id="graph2" class="cluster"><title>cluster_sources</title>
<polygon fill="none" stroke="black" stroke-dasharray="1,5" points="499,-109 499,-160 587,-160 587,-109 499,-109"/>
<text text-anchor="middle" x="543" y="-147" font-family="Helvetica,sans-Serif" font-size="10.00">Workflow Inputs</text>
</g>
<g id="graph3" class="cluster"><title>cluster_sinks</title>
<polygon fill="none" stroke="black" stroke-dasharray="1,5" points="8,-8 8,-67 656,-67 656,-8 8,-8"/>
<text text-anchor="middle" x="55.5" y="-54" font-family="Helvetica,sans-Serif" font-size="10.00">Workflow Outputs</text>
</g>
<!-- show_species_json -->
<g id="node1" class="node"><title>show_species_json</title>
<polygon fill="#7aafff" stroke="black" points="308,-96.5 206,-96.5 206,-75.5 308,-75.5 308,-96.5"/>
<text text-anchor="middle" x="257" y="-83.5" font-family="Helvetica,sans-Serif" font-size="10.00">show_species_json</text>
</g>
<!-- WORKFLOWINTERNALSINK_show_species_json_responseBody -->
<g id="node8" class="node"><title>WORKFLOWINTERNALSINK_show_species_json_responseBody</title>
<polygon fill="#bcd2ee" stroke="black" points="186,-37.5 16,-37.5 16,-16.5 186,-16.5 186,-37.5"/>
<text text-anchor="middle" x="101" y="-24.5" font-family="Helvetica,sans-Serif" font-size="10.00">show_species_json_responseBody</text>
</g>
<!-- show_species_json&#45;&gt;WORKFLOWINTERNALSINK_show_species_json_responseBody -->
<g id="edge8" class="edge"><title>show_species_json&#45;&gt;WORKFLOWINTERNALSINK_show_species_json_responseBody</title>
<path fill="none" stroke="black" d="M216.305,-75.4886C207.551,-72.9421 198.407,-70.0625 190,-67 170.175,-59.7777 148.573,-50.1143 131.616,-42.095"/>
<polygon fill="black" stroke="black" points="132.748,-38.7567 122.218,-37.5942 129.725,-45.0701 132.748,-38.7567"/>
</g>
<!-- WORKFLOWINTERNALSINK_show_species_json_status -->
<g id="node9" class="node"><title>WORKFLOWINTERNALSINK_show_species_json_status</title>
<polygon fill="#bcd2ee" stroke="black" points="324,-37.5 190,-37.5 190,-16.5 324,-16.5 324,-37.5"/>
<text text-anchor="middle" x="257" y="-24.5" font-family="Helvetica,sans-Serif" font-size="10.00">show_species_json_status</text>
</g>
<!-- show_species_json&#45;&gt;WORKFLOWINTERNALSINK_show_species_json_status -->
<g id="edge10" class="edge"><title>show_species_json&#45;&gt;WORKFLOWINTERNALSINK_show_species_json_status</title>
<path fill="none" stroke="black" d="M257,-75.452C257,-67.8285 257,-57.2768 257,-47.966"/>
<polygon fill="black" stroke="black" points="260.5,-47.8558 257,-37.8559 253.5,-47.8559 260.5,-47.8558"/>
</g>
<!-- lsid_value -->
<g id="node2" class="node"><title>lsid_value</title>
<polygon fill="#b0c4de" stroke="black" points="355,-134.5 295,-134.5 295,-113.5 355,-113.5 355,-134.5"/>
<text text-anchor="middle" x="325" y="-121.5" font-family="Helvetica,sans-Serif" font-size="10.00">lsid_value</text>
</g>
<!-- lsid_value&#45;&gt;show_species_json -->
<g id="edge4" class="edge"><title>lsid_value&#45;&gt;show_species_json</title>
<path fill="none" stroke="black" d="M306.058,-113.415C299.427,-109.709 291.837,-105.468 284.642,-101.447"/>
<polygon fill="black" stroke="black" points="286.277,-98.3513 275.84,-96.5284 282.862,-104.462 286.277,-98.3513"/>
</g>
<!-- show_species_xml -->
<g id="node3" class="node"><title>show_species_xml</title>
<polygon fill="#7aafff" stroke="black" points="461,-96.5 361,-96.5 361,-75.5 461,-75.5 461,-96.5"/>
<text text-anchor="middle" x="411" y="-83.5" font-family="Helvetica,sans-Serif" font-size="10.00">show_species_xml</text>
</g>
<!-- lsid_value&#45;&gt;show_species_xml -->
<g id="edge6" class="edge"><title>lsid_value&#45;&gt;show_species_xml</title>
<path fill="none" stroke="black" d="M348.956,-113.415C357.902,-109.462 368.226,-104.9 377.854,-100.646"/>
<polygon fill="black" stroke="black" points="379.44,-103.771 387.173,-96.5284 376.611,-97.3686 379.44,-103.771"/>
</g>
<!-- WORKFLOWINTERNALSINK_show_species_xml_responseBody -->
<g id="node10" class="node"><title>WORKFLOWINTERNALSINK_show_species_xml_responseBody</title>
<polygon fill="#bcd2ee" stroke="black" points="494,-37.5 328,-37.5 328,-16.5 494,-16.5 494,-37.5"/>
<text text-anchor="middle" x="411" y="-24.5" font-family="Helvetica,sans-Serif" font-size="10.00">show_species_xml_responseBody</text>
</g>
<!-- show_species_xml&#45;&gt;WORKFLOWINTERNALSINK_show_species_xml_responseBody -->
<g id="edge12" class="edge"><title>show_species_xml&#45;&gt;WORKFLOWINTERNALSINK_show_species_xml_responseBody</title>
<path fill="none" stroke="black" d="M411,-75.452C411,-67.8285 411,-57.2768 411,-47.966"/>
<polygon fill="black" stroke="black" points="414.5,-47.8558 411,-37.8559 407.5,-47.8559 414.5,-47.8558"/>
</g>
<!-- WORKFLOWINTERNALSINK_show_species_xml_status -->
<g id="node11" class="node"><title>WORKFLOWINTERNALSINK_show_species_xml_status</title>
<polygon fill="#bcd2ee" stroke="black" points="630,-37.5 498,-37.5 498,-16.5 630,-16.5 630,-37.5"/>
<text text-anchor="middle" x="564" y="-24.5" font-family="Helvetica,sans-Serif" font-size="10.00">show_species_xml_status</text>
</g>
<!-- show_species_xml&#45;&gt;WORKFLOWINTERNALSINK_show_species_xml_status -->
<g id="edge14" class="edge"><title>show_species_xml&#45;&gt;WORKFLOWINTERNALSINK_show_species_xml_status</title>
<path fill="none" stroke="black" d="M461.313,-76.9817C472.271,-74.3306 483.672,-71.0308 494,-67 510.103,-60.7153 526.961,-51.1851 540.097,-43.0035"/>
<polygon fill="black" stroke="black" points="541.997,-45.943 548.541,-37.6112 538.229,-40.0432 541.997,-45.943"/>
</g>
<!-- WORKFLOWINTERNALSOURCECONTROL -->
<g id="node5" class="node"><title>WORKFLOWINTERNALSOURCECONTROL</title>
<polygon fill="#ff4040" stroke="black" points="543,-131 536,-120.5 550,-120.5 543,-131"/>
</g>
<!-- WORKFLOWINTERNALSINKCONTROL -->
<g id="node7" class="node"><title>WORKFLOWINTERNALSINKCONTROL</title>
<polygon fill="#66cd00" stroke="black" points="641,-20 648,-30.5 634,-30.5 641,-20"/>
</g>
</g>
</svg>
