<?xml version="1.0" encoding="UTF-8" standalone="no"?>
<!DOCTYPE svg PUBLIC "-//W3C//DTD SVG 1.1//EN"
 "http://www.w3.org/Graphics/SVG/1.1/DTD/svg11.dtd">
<!-- Generated by graphviz version 2.26.0 (20091210.2329)
 -->
<!-- Title: t2flow_graph Pages: 1 -->
<svg width="236pt" height="218pt"
 viewBox="0.00 0.00 236.00 218.00" xmlns="http://www.w3.org/2000/svg" xmlns:xlink="http://www.w3.org/1999/xlink">
<g id="graph1" class="graph" transform="scale(1 1) rotate(0) translate(4 214)">
<title>t2flow_graph</title>
<polygon fill="white" stroke="white" points="-4,5 -4,-214 233,-214 233,5 -4,5"/>
<g id="graph2" class="cluster"><title>cluster_sources</title>
<polygon fill="none" stroke="black" stroke-dasharray="1,5" points="74,-143 74,-202 184,-202 184,-143 74,-143"/>
<text text-anchor="middle" x="118" y="-189" font-family="Helvetica,sans-Serif" font-size="10.00">Workflow Inputs</text>
</g>
<g id="graph3" class="cluster"><title>cluster_sinks</title>
<polygon fill="none" stroke="black" stroke-dasharray="1,5" points="51,-8 51,-67 199,-67 199,-8 51,-8"/>
<text text-anchor="middle" x="98.5" y="-54" font-family="Helvetica,sans-Serif" font-size="10.00">Workflow Outputs</text>
</g>
<!-- XPath_From_Text -->
<g id="node1" class="node"><title>XPath_From_Text</title>
<polygon fill="#d15fee" stroke="black" points="223,-96.5 127,-96.5 127,-75.5 223,-75.5 223,-96.5"/>
<text text-anchor="middle" x="175" y="-83.5" font-family="Helvetica,sans-Serif" font-size="10.00">XPath_From_Text</text>
</g>
<!-- WORKFLOWINTERNALSINK_ra -->
<g id="node12" class="node"><title>WORKFLOWINTERNALSINK_ra</title>
<polygon fill="#bcd2ee" stroke="black" points="173,-37.5 149,-37.5 149,-16.5 173,-16.5 173,-37.5"/>
<text text-anchor="middle" x="161" y="-24.5" font-family="Helvetica,sans-Serif" font-size="10.00">ra</text>
</g>
<!-- XPath_From_Text&#45;&gt;WORKFLOWINTERNALSINK_ra -->
<g id="edge16" class="edge"><title>XPath_From_Text&#45;&gt;WORKFLOWINTERNALSINK_ra</title>
<path fill="none" stroke="black" d="M172.497,-75.452C170.668,-67.7457 168.13,-57.047 165.903,-47.6629"/>
<polygon fill="black" stroke="black" points="169.29,-46.7776 163.576,-37.8559 162.479,-48.3938 169.29,-46.7776"/>
</g>
<!-- SesameXML -->
<g id="node2" class="node"><title>SesameXML</title>
<polygon fill="#a2cd5a" stroke="black" points="156,-134.5 84,-134.5 84,-113.5 156,-113.5 156,-134.5"/>
<text text-anchor="middle" x="120" y="-121.5" font-family="Helvetica,sans-Serif" font-size="10.00">SesameXML</text>
</g>
<!-- SesameXML&#45;&gt;XPath_From_Text -->
<g id="edge4" class="edge"><title>SesameXML&#45;&gt;XPath_From_Text</title>
<path fill="none" stroke="black" d="M135.321,-113.415C140.327,-109.956 146.008,-106.031 151.475,-102.254"/>
<polygon fill="black" stroke="black" points="153.524,-105.092 159.762,-96.5284 149.545,-99.3332 153.524,-105.092"/>
</g>
<!-- XPath_From_Text_2 -->
<g id="node4" class="node"><title>XPath_From_Text_2</title>
<polygon fill="#d15fee" stroke="black" points="113,-96.5 7,-96.5 7,-75.5 113,-75.5 113,-96.5"/>
<text text-anchor="middle" x="60" y="-83.5" font-family="Helvetica,sans-Serif" font-size="10.00">XPath_From_Text_2</text>
</g>
<!-- SesameXML&#45;&gt;XPath_From_Text_2 -->
<g id="edge12" class="edge"><title>SesameXML&#45;&gt;XPath_From_Text_2</title>
<path fill="none" stroke="black" d="M103.287,-113.415C97.6953,-109.874 91.3324,-105.844 85.2384,-101.984"/>
<polygon fill="black" stroke="black" points="86.9446,-98.922 76.6237,-96.5284 83.1992,-104.836 86.9446,-98.922"/>
</g>
<!-- WORKFLOWINTERNALSINK_sesame -->
<g id="node11" class="node"><title>WORKFLOWINTERNALSINK_sesame</title>
<polygon fill="#bcd2ee" stroke="black" points="145,-37.5 95,-37.5 95,-16.5 145,-16.5 145,-37.5"/>
<text text-anchor="middle" x="120" y="-24.5" font-family="Helvetica,sans-Serif" font-size="10.00">sesame</text>
</g>
<!-- SesameXML&#45;&gt;WORKFLOWINTERNALSINK_sesame -->
<g id="edge14" class="edge"><title>SesameXML&#45;&gt;WORKFLOWINTERNALSINK_sesame</title>
<path fill="none" stroke="black" d="M120,-113.249C120,-97.4334 120,-67.6032 120,-47.513"/>
<polygon fill="black" stroke="black" points="123.5,-47.5046 120,-37.5046 116.5,-47.5047 123.5,-47.5046"/>
</g>
<!-- xpath_value -->
<g id="node3" class="node"><title>xpath_value</title>
<polygon fill="#b0c4de" stroke="black" points="228,-134.5 160,-134.5 160,-113.5 228,-113.5 228,-134.5"/>
<text text-anchor="middle" x="194" y="-121.5" font-family="Helvetica,sans-Serif" font-size="10.00">xpath_value</text>
</g>
<!-- xpath_value&#45;&gt;XPath_From_Text -->
<g id="edge6" class="edge"><title>xpath_value&#45;&gt;XPath_From_Text</title>
<path fill="none" stroke="black" d="M188.606,-113.212C187.433,-110.866 186.156,-108.313 184.871,-105.741"/>
<polygon fill="black" stroke="black" points="187.944,-104.062 180.342,-96.6831 181.683,-107.193 187.944,-104.062"/>
</g>
<!-- WORKFLOWINTERNALSINK_dec -->
<g id="node13" class="node"><title>WORKFLOWINTERNALSINK_dec</title>
<polygon fill="#bcd2ee" stroke="black" points="91,-37.5 59,-37.5 59,-16.5 91,-16.5 91,-37.5"/>
<text text-anchor="middle" x="75" y="-24.5" font-family="Helvetica,sans-Serif" font-size="10.00">dec</text>
</g>
<!-- XPath_From_Text_2&#45;&gt;WORKFLOWINTERNALSINK_dec -->
<g id="edge18" class="edge"><title>XPath_From_Text_2&#45;&gt;WORKFLOWINTERNALSINK_dec</title>
<path fill="none" stroke="black" d="M62.6817,-75.452C64.6409,-67.7457 67.3609,-57.047 69.7467,-47.6629"/>
<polygon fill="black" stroke="black" points="73.1681,-48.41 72.24,-37.8559 66.3839,-46.6851 73.1681,-48.41"/>
</g>
<!-- xpath_value_1 -->
<g id="node5" class="node"><title>xpath_value_1</title>
<polygon fill="#b0c4de" stroke="black" points="80,-134.5 3.55271e-14,-134.5 0,-113.5 80,-113.5 80,-134.5"/>
<text text-anchor="middle" x="40" y="-121.5" font-family="Helvetica,sans-Serif" font-size="10.00">xpath_value_1</text>
</g>
<!-- xpath_value_1&#45;&gt;XPath_From_Text_2 -->
<g id="edge10" class="edge"><title>xpath_value_1&#45;&gt;XPath_From_Text_2</title>
<path fill="none" stroke="black" d="M45.6777,-113.212C46.9127,-110.866 48.2566,-108.313 49.61,-105.741"/>
<polygon fill="black" stroke="black" points="52.817,-107.162 54.3773,-96.6831 46.6226,-103.902 52.817,-107.162"/>
</g>
<!-- WORKFLOWINTERNALSOURCECONTROL -->
<g id="node7" class="node"><title>WORKFLOWINTERNALSOURCECONTROL</title>
<polygon fill="#ff4040" stroke="black" points="169,-169 162,-158.5 176,-158.5 169,-169"/>
</g>
<!-- WORKFLOWINTERNALSOURCE_list_cig_name -->
<g id="node8" class="node"><title>WORKFLOWINTERNALSOURCE_list_cig_name</title>
<polygon fill="skyblue" stroke="black" points="158,-172.5 82,-172.5 82,-151.5 158,-151.5 158,-172.5"/>
<text text-anchor="middle" x="120" y="-159.5" font-family="Helvetica,sans-Serif" font-size="10.00">list_cig_name</text>
</g>
<!-- WORKFLOWINTERNALSOURCE_list_cig_name&#45;&gt;SesameXML -->
<g id="edge8" class="edge"><title>WORKFLOWINTERNALSOURCE_list_cig_name&#45;&gt;SesameXML</title>
<path fill="none" stroke="black" d="M120,-151.212C120,-149.19 120,-147.013 120,-144.804"/>
<polygon fill="black" stroke="black" points="123.5,-144.683 120,-134.683 116.5,-144.683 123.5,-144.683"/>
</g>
<!-- WORKFLOWINTERNALSINKCONTROL -->
<g id="node10" class="node"><title>WORKFLOWINTERNALSINKCONTROL</title>
<polygon fill="#66cd00" stroke="black" points="184,-20 191,-30.5 177,-30.5 184,-20"/>
</g>
</g>
</svg>
